<?xml version="1.0" encoding="UTF-8"?>
<svg width="1120" height="748" version="1.1" viewBox="0 0 1120 748" xml:space="preserve"
  xmlns="http://www.w3.org/2000/svg" xmlns:cc="http://creativecommons.org/ns#"
  xmlns:dc="http://purl.org/dc/elements/1.1/" xmlns:rdf="http://www.w3.org/1999/02/22-rdf-syntax-ns#">
    <g transform="matrix(1.3333333,0,0,1.3333333,0,1.87e-5)">
    <path d="m220.199 454.336-71.465-63.832" stroke="#00708f" stroke-width=".75" />
    <path d="m142.734 384.504 12 12" stroke="#00708f" stroke-width=".75" />
    <path d="m142.734 396.504 12-12" stroke="#00708f" stroke-width=".75" />
    <path d="m120.172 276.727v53.289" fill="none" stroke="#c0c" stroke-width=".75" />
    <path d="m114.172 324.016 12 12" stroke="#c0c" stroke-width=".75" />
    <path d="m114.172 336.016 12-12" stroke="#c0c" stroke-width=".75" />
    <path d="m120.172 276.727v-51.895" fill="none" stroke="#00708f" stroke-width=".75" />
    <path d="m114.172 218.832 12 12" stroke="#00708f" stroke-width=".75" />
    <path d="m114.172 230.832 12-12" stroke="#00708f" stroke-width=".75" />
    <path d="m215.461 106.875-68.473 60.418" stroke="#c0c" stroke-width=".75" />
    <path d="m140.988 161.293 12 12" stroke="#c0c" stroke-width=".75" />
    <path d="m140.988 173.293 12-12" stroke="#c0c" stroke-width=".75" />
    <path d="m146.039 28.125-82.66 72.937" stroke="#00708f" stroke-width=".75" />
    <path d="m57.379 95.062 12 12" stroke="#00708f" stroke-width=".75" />
    <path d="m57.379 107.062 12-12" stroke="#00708f" stroke-width=".75" />
    <path d="m15.172 276.727v-91.067" fill="none" stroke="#c0c" stroke-width=".75" />
    <path d="m9.172 179.66 12 12" stroke="#c0c" stroke-width=".75" />
    <path d="m9.172 191.66 12-12" stroke="#c0c" stroke-width=".75" />
    <path d="m15.172 276.727v93.211" fill="none" stroke="#00708f" stroke-width=".75" />
    <path d="m9.172 363.938 12 12" stroke="#00708f" stroke-width=".75" />
    <path d="m9.172 375.938 12-12" stroke="#00708f" stroke-width=".75" />
    <path d="m150.301 532.664-84.918-75.852" stroke="#c0c" stroke-width=".75" />
    <path d="m59.383 450.812 12 12" stroke="#c0c" stroke-width=".75" />
    <path d="m59.383 462.812 12-12" stroke="#c0c" stroke-width=".75" />
    <path d="m619.801 454.336 71.465-63.832" stroke="#00708f" stroke-width=".75" />
    <path d="m685.266 384.504 12 12" stroke="#00708f" stroke-width=".75" />
    <path d="m685.266 396.504 12-12" stroke="#00708f" stroke-width=".75" />
    <path d="m719.832 276.727v53.289" fill="none" stroke="#c0c" stroke-width=".75" />
    <path d="m713.832 324.016 12 12" stroke="#c0c" stroke-width=".75" />
    <path d="m713.832 336.016 12-12" stroke="#c0c" stroke-width=".75" />
    <path d="m719.832 276.727v-51.895" fill="none" stroke="#00708f" stroke-width=".75" />
    <path d="m713.832 218.832 12 12" stroke="#00708f" stroke-width=".75" />
    <path d="m713.832 230.832 12-12" stroke="#00708f" stroke-width=".75" />
    <path d="m624.539 106.875 68.473 60.418" stroke="#c0c" stroke-width=".75" />
    <path d="m687.012 161.293 12 12" stroke="#c0c" stroke-width=".75" />
    <path d="m687.012 173.293 12-12" stroke="#c0c" stroke-width=".75" />
    <path d="m624.504 106.844-10.856-9.606" stroke="#00708f" stroke-width=".75" />
    <path d="m607.648 91.238 12 12" stroke="#00708f" stroke-width=".75" />
    <path d="m607.648 103.238 12-12" stroke="#00708f" stroke-width=".75" />
    <path d="m606.766 67.492v15.672" fill="none" stroke="#c0c" stroke-width=".75" />
    <path d="m600.766 77.164 12 12" stroke="#c0c" stroke-width=".75" />
    <path d="m600.766 89.164 12-12" stroke="#c0c" stroke-width=".75" />
    <path d="m606.766 67.492v-28.969" fill="none" stroke="#00708f" stroke-width=".75" />
    <path d="m600.766 32.523 12 12" stroke="#00708f" stroke-width=".75" />
    <path d="m600.766 44.523 12-12" stroke="#00708f" stroke-width=".75" />
    <path d="m659.258 15.004h-28.973" fill="none" stroke="#c0c" stroke-width=".75" />
    <path d="m624.285 9.004 12 12" stroke="#c0c" stroke-width=".75" />
    <path d="m624.285 21.004 12-12" stroke="#c0c" stroke-width=".75" />
    <path d="m659.258 15.004h13.297" fill="none" stroke="#00708f" stroke-width=".75" />
    <path d="m666.555 9.004 12 12" stroke="#00708f" stroke-width=".75" />
    <path d="m666.555 21.004 12-12" stroke="#00708f" stroke-width=".75" />
    <path d="m693.961 28.125-9.254-8.168" stroke="#c0c" stroke-width=".75" />
    <path d="m678.707 13.957 12 12" stroke="#c0c" stroke-width=".75" />
    <path d="m678.707 25.957 12-12" stroke="#c0c" stroke-width=".75" />
    <path d="m693.961 28.125 82.66 72.937" stroke="#00708f" stroke-width=".75" />
    <path d="m770.621 95.062 12 12" stroke="#00708f" stroke-width=".75" />
    <path d="m770.621 107.062 12-12" stroke="#00708f" stroke-width=".75" />
    <path d="m824.832 276.727v-91.067" fill="none" stroke="#c0c" stroke-width=".75" />
    <path d="m818.832 179.66 12 12" stroke="#c0c" stroke-width=".75" />
    <path d="m818.832 191.66 12-12" stroke="#c0c" stroke-width=".75" />
    <path d="m824.832 276.727v93.211" fill="none" stroke="#00708f" stroke-width=".75" />
    <path d="m818.832 363.938 12 12" stroke="#00708f" stroke-width=".75" />
    <path d="m818.832 375.938 12-12" stroke="#00708f" stroke-width=".75" />
    <path d="m689.699 532.664 84.918-75.852" stroke="#c0c" stroke-width=".75" />
    <path d="m768.617 450.812 12 12" stroke="#c0c" stroke-width=".75" />
    <path d="m768.617 462.812 12-12" stroke="#c0c" stroke-width=".75" />
    <path d="m689.699 532.664-9.281 8.293" stroke="#00708f" stroke-width=".75" />
    <path d="m674.418 534.957 12 12" stroke="#00708f" stroke-width=".75" />
    <path d="m674.418 546.957 12-12" stroke="#00708f" stroke-width=".75" />
    <path d="m654.758 545.996h13.414" fill="none" stroke="#c0c" stroke-width=".75" />
    <path d="m662.172 539.996 12 12" stroke="#c0c" stroke-width=".75" />
    <path d="m662.172 551.996 12-12" stroke="#c0c" stroke-width=".75" />
    <path d="m654.758 545.996h-28.973" fill="none" stroke="#00708f" stroke-width=".75" />
    <path d="m619.785 539.996 12 12" stroke="#00708f" stroke-width=".75" />
    <path d="m619.785 551.996 12-12" stroke="#00708f" stroke-width=".75" />
    <path d="m602.266 493.508v28.969" fill="none" stroke="#c0c" stroke-width=".75" />
    <path d="m596.266 516.477 12 12" stroke="#c0c" stroke-width=".75" />
    <path d="m596.266 528.477 12-12" stroke="#c0c" stroke-width=".75" />
    <path d="m602.266 493.508v-15.555" fill="none" stroke="#00708f" stroke-width=".75" />
    <path d="m596.266 471.953 12 12" stroke="#00708f" stroke-width=".75" />
    <path d="m596.266 483.953 12-12" stroke="#00708f" stroke-width=".75" />
    <path d="m619.766 454.367-10.719 9.602" stroke="#c0c" stroke-width=".75" />
    <path d="m603.047 457.969 12 12" stroke="#c0c" stroke-width=".75" />
    <path d="m603.047 469.969 12-12" stroke="#c0c" stroke-width=".75" />
    <path d="m215.703 459.371-0.535-9.531 9.527-0.535z" fill="#707070" />
    <g transform="matrix(-1 -.893209 .893209 -1 0 0)">
      <path d="m-348.208-148.907h5.593" fill="none" stroke="#707070" stroke-width=".55935502" />
    </g>
    <g transform="matrix(-1 -.893209 .893209 -1 0 0)">
      <path d="m-342.615-148.907-1.679 1.68" fill="none" stroke="#707070" stroke-width=".55935502" />
    </g>
    <g transform="matrix(-1 -.893209 .893209 -1 0 0)">
      <path d="m-342.615-148.907-1.679-1.679" fill="none" stroke="#707070" stroke-width=".55935502" />
    </g>
    <path
      d="m125.422 276.727c0 2.898-2.352 5.25-5.25 5.25-2.902 0-5.25-2.352-5.25-5.25 0-2.899 2.348-5.25 5.25-5.25 2.898 0 5.25 2.351 5.25 5.25z"
      fill="#bf0080" />
    <path d="m219.926 111.938-9.528-0.598 0.598-9.528z" fill="#f00" />
    <path d="m210.996 102.344h9v9h-9z" fill="#bf0080" />
    <path d="m141.539 23.625h9v9h-9z" fill="#bf0080" />
    <path
      d="m20.422 276.727c0 2.898-2.352 5.25-5.25 5.25-2.902 0-5.25-2.352-5.25-5.25 0-2.899 2.348-5.25 5.25-5.25 2.898 0 5.25 2.351 5.25 5.25z"
      fill="#bf0080" />
    <path d="m145.801 528.164h9v9h-9z" fill="#bf0080" />
    <path d="m215.734 449.867h9v9h-9z" fill="#bf0080" />
    <path d="m615.305 449.305 9.531 0.535-0.539 9.531z" fill="#707070" />
    <g transform="matrix(1 -.893209 .893209 1 0 0)">
      <path d="m119.024 555.056h5.594" fill="none" stroke="#707070" stroke-width=".55935502" />
    </g>
    <g transform="matrix(1 -.893209 .893209 1 0 0)">
      <path d="m124.618 555.056-1.68 1.679" fill="none" stroke="#707070" stroke-width=".55935502" />
    </g>
    <g transform="matrix(1 -.893209 .893209 1 0 0)">
      <path d="m124.618 555.056-1.682-1.678" fill="none" stroke="#707070" stroke-width=".55935502" />
    </g>
    <path
      d="m725.082 276.727c0 2.902-2.352 5.25-5.25 5.25-2.902 0-5.25-2.348-5.25-5.25 0-2.899 2.348-5.25 5.25-5.25 2.898 0 5.25 2.351 5.25 5.25z"
      fill="#bf0080" />
    <path d="m629.004 101.812 0.598 9.528-9.528 0.598z" fill="#f00" />
    <path d="m620.031 111.898-0.586-9.527 9.532-0.582z" fill="#f00" />
    <path
      d="m612.016 67.492c0 2.899-2.352 5.25-5.25 5.25-2.899 0-5.25-2.351-5.25-5.25 0-2.898 2.351-5.25 5.25-5.25 2.898 0 5.25 2.352 5.25 5.25z"
      fill="#bf0080" />
    <path
      d="m664.508 15.004c0 2.898-2.352 5.25-5.25 5.25-2.903 0-5.25-2.352-5.25-5.25 0-2.902 2.347-5.25 5.25-5.25 2.898 0 5.25 2.348 5.25 5.25z"
      fill="#bf0080" />
    <path
      d="m699.211 28.125c0 2.898-2.352 5.25-5.25 5.25-2.899 0-5.25-2.352-5.25-5.25s2.351-5.25 5.25-5.25c2.898 0 5.25 2.352 5.25 5.25z"
      fill="#f00" />
    <path
      d="m830.082 276.727c0 2.902-2.352 5.25-5.25 5.25-2.902 0-5.25-2.348-5.25-5.25 0-2.899 2.348-5.25 5.25-5.25 2.898 0 5.25 2.351 5.25 5.25z"
      fill="#bf0080" />
    <path
      d="m694.949 532.664c0 2.898-2.351 5.25-5.25 5.25-2.898 0-5.25-2.352-5.25-5.25 0-2.902 2.352-5.25 5.25-5.25 2.899 0 5.25 2.348 5.25 5.25z"
      fill="#f00" />
    <path
      d="m660.008 545.996c0 2.902-2.352 5.25-5.25 5.25-2.903 0-5.25-2.348-5.25-5.25 0-2.898 2.347-5.25 5.25-5.25 2.898 0 5.25 2.352 5.25 5.25z"
      fill="#bf0080" />
    <path
      d="m607.516 493.508c0 2.898-2.352 5.25-5.25 5.25-2.899 0-5.25-2.352-5.25-5.25 0-2.899 2.351-5.25 5.25-5.25 2.898 0 5.25 2.351 5.25 5.25z"
      fill="#bf0080" />
    <path d="m624.27 459.395-9.532-0.524 0.524-9.531z" fill="#f00" />
    <path d="m185.25 493.5c-154.5-138-157.5-291-4.5-426m474 426c154.5-138 157.5-291 4.5-426" fill="none"
      stroke="#008000" stroke-width="1.5" />
    <path
      d="m220.199 454.336c-71.465-63.832-100.027-124.32-100.027-177.609 0-51.895 26.816-109.434 95.289-169.852l0.035-0.031-69.457-78.719c-82.66 72.937-130.867 157.535-130.867 248.602 0 93.211 50.211 180.085 135.129 255.937l69.933-78.297zm399.602 0c71.465-63.832 100.031-124.32 100.031-177.609 0-51.895-26.82-109.434-95.293-169.852l-0.035-0.031c-10.856-9.606-17.738-23.68-17.738-39.352 0-28.969 23.519-52.488 52.492-52.488 13.297 0 25.449 4.953 34.703 13.121 82.66 72.937 130.871 157.535 130.871 248.602 0 93.211-50.215 180.085-135.133 255.937-9.281 8.293-21.527 13.332-34.941 13.332-28.973 0-52.492-23.519-52.492-52.488 0-15.555 6.781-29.539 17.5-39.141z"
      fill="#32cd32" fill-opacity=".07000002" />
    <path
      d="m220.199 454.336c-71.465-63.832-100.027-124.32-100.027-177.609 0-51.895 26.816-109.434 95.289-169.852l0.035-0.031-69.457-78.719c-82.66 72.937-130.867 157.535-130.867 248.602 0 93.211 50.211 180.085 135.129 255.937l69.933-78.297zm399.602 0c71.465-63.832 100.031-124.32 100.031-177.609 0-51.895-26.82-109.434-95.293-169.852l-0.035-0.031c-10.856-9.606-17.738-23.68-17.738-39.352 0-28.969 23.519-52.488 52.492-52.488 13.297 0 25.449 4.953 34.703 13.121 82.66 72.937 130.871 157.535 130.871 248.602 0 93.211-50.215 180.085-135.133 255.937-9.281 8.293-21.527 13.332-34.941 13.332-28.973 0-52.492-23.519-52.492-52.488 0-15.555 6.781-29.539 17.5-39.141z"
      fill="none" stroke="#000" stroke-width="1.5" /><text transform="translate(200.4668,517.5)" fill="#000000"
      font-family="'DejaVu Sans'" font-size="15px">
      <tspan x="0 10.29 19.785 25.665001 31.545 36.299999 46.814999 55.994999" y="0">Butt Cap</tspan>
      <tspan x="299.5459 309.2959 318.46091 327.9559 337.4509 346.96091 351.71591 362.18591 371.41092" y="30">Round Cap
      </tspan>
    </text>
  </g>
</svg>