<?xml version="1.0" encoding="UTF-8"?>
<svg width="1273" height="668" version="1.1" viewBox="0 0 1273 668" xml:space="preserve"
  xmlns="http://www.w3.org/2000/svg" xmlns:cc="http://creativecommons.org/ns#"
  xmlns:dc="http://purl.org/dc/elements/1.1/" xmlns:rdf="http://www.w3.org/1999/02/22-rdf-syntax-ns#">
    <g transform="matrix(1.3333333,0,0,1.3333333,0,1.67e-5)">
    <path d="m498.75 172.949h9v9h-9z" fill="#707070" />
    <g transform="matrix(-.00989917 -1 1 -.00989917 0 0)">
      <path d="m-182.413 493.944h7.5" fill="none" stroke="#707070" stroke-width=".74996299" />
    </g>
    <g transform="matrix(-.00989917 -1 1 -.00989917 0 0)">
      <path d="m-174.913 493.944-2.249 2.251" fill="none" stroke="#707070" stroke-width=".74996299" />
    </g>
    <g transform="matrix(-.00989917 -1 1 -.00989917 0 0)">
      <path d="m-174.913 493.944-2.251-2.249" fill="none" stroke="#707070" stroke-width=".74996299" />
    </g>
    <path d="m497.176 13.875h9v9h-9z" fill="#bf0080" />
    <path d="m615.301 12.301h9v9h-9z" fill="#bf0080" />
    <path d="m553.875 91.051h9v9h-9z" fill="#bf0080" />
    <path d="m612.148 172.949h9v9h-9z" fill="#bf0080" />
    <path d="m802.727 465.898h9v9h-9z" fill="#707070" />
    <g transform="matrix(-.0113615 -1 1 -.0113615 0 0)">
      <path d="m-479.509 794.279 7.5-1e-3" fill="none" stroke="#707070" stroke-width=".74995202" />
    </g>
    <g transform="matrix(-.0113615 -1 1 -.0113615 0 0)">
      <path d="m-472.009 794.278-2.252 2.248" fill="none" stroke="#707070" stroke-width=".74995202" />
    </g>
    <g transform="matrix(-.0113615 -1 1 -.0113615 0 0)">
      <path d="m-472.009 794.278-2.251-2.252" fill="none" stroke="#707070" stroke-width=".74995202" />
    </g>
    <path d="m801.148 327.301h9v9h-9z" fill="#bf0080" />
    <path d="m933.449 327.301h9v9h-9z" fill="#f00" />
    <path d="m933.449 462.75h9v9h-9z" fill="#f00" />
    <path d="m935.023 10.727h9v9h-9z" fill="#707070" />
    <g transform="scale(-1)">
      <path d="m-939.523-22.727h7.5" fill="none" stroke="#707070" stroke-width=".75" />
    </g>
    <g transform="scale(-1)">
      <path d="m-932.023-22.727-2.25 2.25" fill="none" stroke="#707070" stroke-width=".75" />
    </g>
    <g transform="scale(-1)">
      <path d="m-932.023-22.727-2.25-2.25" fill="none" stroke="#707070" stroke-width=".75" />
    </g>
    <path d="m835.801 10.727h9v9h-9z" fill="#bf0080" />
    <path d="m884.625 154.051h9v9h-9z" fill="#bf0080" />
    <path d="m701.926 34.352h9v9h-9z" fill="#707070" />
    <path d="m542.852 481.648h9v9h-9z" fill="#707070" />
    <g transform="matrix(.374046 -1 1 .374046 0 0)">
      <path d="m-246.876 632.667 7.027 1e-3" fill="none" stroke="#707070" stroke-width=".70246702" />
    </g>
    <g transform="matrix(.374046 -1 1 .374046 0 0)">
      <path d="m-239.849 632.668-2.109 2.109" fill="none" stroke="#707070" stroke-width=".70246702" />
    </g>
    <g transform="matrix(.374046 -1 1 .374046 0 0)">
      <path d="m-239.849 632.668-2.108-2.106" fill="none" stroke="#707070" stroke-width=".70246702" />
    </g>
    <path d="m620.023 275.324h9v9h-9z" fill="#bf0080" />
    <path d="m695.625 478.5h9v9h-9z" fill="#bf0080" />
    <path d="m516.074 354.074h9v9h-9z" fill="#bf0080" />
    <path d="m712.949 354.074h9v9h-9z" fill="#bf0080" />
    <path d="m694.051 127.273h9v9h-9z" fill="#707070" />
    <g transform="matrix(.852449 -1 1 .852449 0 0)">
      <path d="m268.554 463.915 5.706-1e-3" fill="none" stroke="#707070" stroke-width=".57076401" />
    </g>
    <g transform="matrix(.852449 -1 1 .852449 0 0)">
      <path d="m274.26 463.914-1.712 1.713" fill="none" stroke="#707070" stroke-width=".57076401" />
    </g>
    <g transform="matrix(.852449 -1 1 .852449 0 0)">
      <path d="m274.26 463.914-1.711-1.713" fill="none" stroke="#707070" stroke-width=".57076401" />
    </g>
    <path d="m775.949 31.199h9v9h-9z" fill="#bf0080" />
    <path d="m56.176 447.523h9v9h-9z" fill="#707070" />
    <g transform="matrix(-.347828 -1 1 -.347828 0 0)">
      <path d="m-422.065-93.216 7.081 2e-3" fill="none" stroke="#707070" stroke-width=".708372" />
    </g>
    <g transform="matrix(-.347828 -1 1 -.347828 0 0)">
      <path d="m-414.984-93.214-2.125 2.124" fill="none" stroke="#707070" stroke-width=".708372" />
    </g>
    <g transform="matrix(-.347828 -1 1 -.347828 0 0)">
      <path d="m-414.984-93.214-2.124-2.126" fill="none" stroke="#707070" stroke-width=".708372" />
    </g>
    <path d="m18.375 338.852h9v9h-9z" fill="#bf0080" />
    <path d="m377.477 299.477h9v9h-9z" fill="#bf0080" />
    <path d="m375.898 323.102h9v9h-9z" fill="#f00" />
    <path d="m257.773 62.176h9v9h-9z" fill="#707070" />
    <g transform="matrix(1 .00690124 -.00690124 1 0 0)">
      <path d="m262.724 57.363 7.5-1e-3" fill="none" stroke="#707070" stroke-width=".749982" />
    </g>
    <g transform="matrix(1 .00690124 -.00690124 1 0 0)">
      <path d="m270.224 57.362-2.25 2.25" fill="none" stroke="#707070" stroke-width=".749982" />
    </g>
    <g transform="matrix(1 .00690124 -.00690124 1 0 0)">
      <path d="m270.224 57.362-2.25-2.25" fill="none" stroke="#707070" stroke-width=".749982" />
    </g>
    <path d="m337.477 62.727h9v9h-9z" fill="#f00" />
    <path d="m376.852 132.023h9v9h-9z" fill="#bf0080" />
    <path d="m336.523 200.773h9v9h-9z" fill="#bf0080" />
    <path d="m256.82 200.227h9v9h-9z" fill="#f00" />
    <path d="m217.445 130.926h9v9h-9z" fill="#bf0080" />
    <path d="m10.5 174h9v9h-9z" fill="#707070" />
    <g transform="matrix(.926826 -1 1 .926826 0 0)">
      <path d="m-88.541 91.562h5.5" fill="none" stroke="#707070" stroke-width=".55007398" />
    </g>
    <g transform="matrix(.926826 -1 1 .926826 0 0)">
      <path d="m-83.041 91.562-1.65 1.65" fill="none" stroke="#707070" stroke-width=".55007398" />
    </g>
    <g transform="matrix(.926826 -1 1 .926826 0 0)">
      <path d="m-83.041 91.562-1.65-1.65" fill="none" stroke="#707070" stroke-width=".55007398" />
    </g>
    <path d="m130.199 44.852h9v9h-9z" fill="#bf0080" />
    <path d="m158.551 218.102h9v9h-9z" fill="#bf0080" />
    <path
      d="m503.25 177.449-1.574-159.074 118.125-1.574-61.426 78.75 58.273 81.898zm436.273-162.222h-99.222l48.824 143.324zm-392.171 470.921 77.171-206.324 75.602 203.176-179.551-124.426h196.875zm151.199-354.375 81.898-96.074zm-637.875 320.25-37.801-108.671 359.102-39.375-1.579 23.625zm201.597-385.347 79.704 0.551 39.375 69.296-40.329 68.75-79.703-0.546-39.375-69.301zm-247.273 111.824 119.699-129.148 28.352 173.25z"
      fill="#32cd32" fill-opacity=".07000002" />
    <path
      d="m503.25 177.449-1.574-159.074 118.125-1.574-61.426 78.75 58.273 81.898zm436.273-162.222h-99.222l48.824 143.324zm-392.171 470.921 77.171-206.324 75.602 203.176-179.551-124.426h196.875zm151.199-354.375 81.898-96.074zm-637.875 320.25-37.801-108.671 359.102-39.375-1.579 23.625zm201.597-385.347 79.704 0.551 39.375 69.296-40.329 68.75-79.703-0.546-39.375-69.301zm-247.273 111.824 119.699-129.148 28.352 173.25z"
      fill="none" stroke="#000" stroke-width="1.5" />
    <path d="m807.227 470.398-1.579-138.597h132.301v135.449" fill="none" stroke="#600" stroke-width="1.5" /><text
      transform="translate(129.0293,277.5)" fill="#000000" font-family="'DejaVu Sans'" font-size="15px">
      <tspan
        x="0 10.47 19.635 29.129999 37.994999 46.98 55.845001 60.599998 69.135002 78.300003 82.455002 91.32 100.83 109.995 119.49"
        y="0">Convex Polygons</tspan>
    </text>
    <text transform="translate(573.18457,101.25)" fill="#b22222" font-family="'DejaVu Sans'" font-size="15px">
      <tspan x="0 9.1800003 18.674999 28.184999 32.34" y="0">angle</tspan>
      <tspan
        x="106.24512 112.12512 121.29012 130.45512 135.21011 140.49013 149.71512 161.97012 166.72511 176.23512 185.40012 189.55511 199.05013 204.93011"
        y="56.25">too few points</tspan>
      <tspan
        x="252.31934 260.55432 269.71933 279.21432 288.70932 294.63434 303.85934 309.70932 317.94434 322.09933 331.26434 339.49933 348.18433 360.48434 364.63934 372.43933"
        y="86.25">counterclockwise</tspan>
      <tspan
        x="-9.4189501 -1.61895 7.60605 11.76105 16.216049 21.616051 25.771049 35.266048 41.146049 50.371052 56.536049 64.38105 73.606049 81.841049 87.721046 91.876053 101.37105"
        y="161.25">self-intersecting</tspan>
      <tspan x="275.84473 285.00974 294.51971 303.74472" y="213.75">open</tspan>
    </text>
  </g>
</svg>