<?xml version="1.0" encoding="UTF-8"?>
<svg width="1308" height="569" version="1.1" viewBox="0 0 1308 569" xml:space="preserve"
  xmlns="http://www.w3.org/2000/svg" xmlns:cc="http://creativecommons.org/ns#"
  xmlns:dc="http://purl.org/dc/elements/1.1/" xmlns:rdf="http://www.w3.org/1999/02/22-rdf-syntax-ns#">
    <g transform="matrix(1.3333333,0,0,1.3333333,0,1.4225e-5)">
    <path d="m699.535 411.75 5.742-30.945" stroke="#00708f" stroke-width=".75" />
    <path d="m699.277 374.805 12 12" stroke="#00708f" stroke-width=".75" />
    <path d="m699.277 386.805 12-12" stroke="#00708f" stroke-width=".75" />
    <path d="m718.793 325.492-7.055 26.426" stroke="#c0c" stroke-width=".75" />
    <path d="m705.738 345.918 12 12" stroke="#c0c" stroke-width=".75" />
    <path d="m705.738 357.918 12-12" stroke="#c0c" stroke-width=".75" />
    <path d="m718.793 325.492 12.867-48.215" stroke="#00708f" stroke-width=".75" />
    <path d="m725.66 271.277 12 12" stroke="#00708f" stroke-width=".75" />
    <path d="m725.66 283.277 12-12" stroke="#00708f" stroke-width=".75" />
    <path d="m760.016 210.516-13.52 27.132" stroke="#c0c" stroke-width=".75" />
    <path d="m740.496 231.648 12 12" stroke="#c0c" stroke-width=".75" />
    <path d="m740.496 243.648 12-12" stroke="#c0c" stroke-width=".75" />
    <path d="m760.016 210.516 10.832-21.739" stroke="#00708f" stroke-width=".75" />
    <path d="m764.848 182.777 12 12" stroke="#00708f" stroke-width=".75" />
    <path d="m764.848 194.777 12-12" stroke="#00708f" stroke-width=".75" />
    <path d="m784.047 172.402-3.231 3.414" stroke="#c0c" stroke-width=".75" />
    <path d="m774.816 169.816 12 12" stroke="#c0c" stroke-width=".75" />
    <path d="m774.816 181.816 12-12" stroke="#c0c" stroke-width=".75" />
    <path d="m784.047 172.402 2.594-2.746" stroke="#00708f" stroke-width=".75" />
    <path d="m780.641 163.656 12 12" stroke="#00708f" stroke-width=".75" />
    <path d="m780.641 175.656 12-12" stroke="#00708f" stroke-width=".75" />
    <path d="m777.34 166.73 12 12" stroke="#c0c" stroke-width=".75" />
    <path d="m777.34 178.73 12-12" stroke="#c0c" stroke-width=".75" />
    <path d="m777.34 166.73 12 12" stroke="#00708f" stroke-width=".75" />
    <path d="m777.34 178.73 12-12" stroke="#00708f" stroke-width=".75" />
    <path d="m772.793 169.531 12 12" stroke="#c0c" stroke-width=".75" />
    <path d="m772.793 181.531 12-12" stroke="#c0c" stroke-width=".75" />
    <path d="m711.492 176.082 4.059 4.316" stroke="#00708f" stroke-width=".75" />
    <path d="m709.551 174.398 12 12" stroke="#00708f" stroke-width=".75" />
    <path d="m709.551 186.398 12-12" stroke="#00708f" stroke-width=".75" />
    <path d="m736.148 214.934-10.699-21.481" stroke="#c0c" stroke-width=".75" />
    <path d="m719.449 187.453 12 12" stroke="#c0c" stroke-width=".75" />
    <path d="m719.449 199.453 12-12" stroke="#c0c" stroke-width=".75" />
    <path d="m736.148 214.934 13.348 26.8" stroke="#00708f" stroke-width=".75" />
    <path d="m743.496 235.734 12 12" stroke="#00708f" stroke-width=".75" />
    <path d="m743.496 247.734 12-12" stroke="#00708f" stroke-width=".75" />
    <path d="m776.43 328.051-12.477-47.457" stroke="#c0c" stroke-width=".75" />
    <path d="m757.953 274.594 12 12" stroke="#c0c" stroke-width=".75" />
    <path d="m757.953 286.594 12-12" stroke="#c0c" stroke-width=".75" />
    <path d="m776.43 328.051 6.738 25.629" stroke="#00708f" stroke-width=".75" />
    <path d="m777.168 347.68 12 12" stroke="#00708f" stroke-width=".75" />
    <path d="m777.168 359.68 12-12" stroke="#00708f" stroke-width=".75" />
    <path d="m794.785 411.75-5.465-30.055" stroke="#c0c" stroke-width=".75" />
    <path d="m783.32 375.695 12 12" stroke="#c0c" stroke-width=".75" />
    <path d="m783.32 387.695 12-12" stroke="#c0c" stroke-width=".75" />
    <path d="m695.035 407.25h9v9h-9z" fill="none" stroke="#c7c700" stroke-width="1.5" />
    <g transform="matrix(.185586 -1 1 .185586 0 0)">
      <path d="m-272.541 742.74 7.375-2e-3" fill="none" stroke="#707070" stroke-width=".737409" />
    </g>
    <g transform="matrix(.185586 -1 1 .185586 0 0)">
      <path d="m-265.166 742.738-2.211 2.211" fill="none" stroke="#707070" stroke-width=".737409" />
    </g>
    <g transform="matrix(.185586 -1 1 .185586 0 0)">
      <path d="m-265.166 742.738-2.211-2.21" fill="none" stroke="#707070" stroke-width=".737409" />
    </g>
    <path
      d="m724.043 325.492c0 2.899-2.352 5.25-5.25 5.25s-5.25-2.351-5.25-5.25c0-2.902 2.352-5.25 5.25-5.25s5.25 2.348 5.25 5.25z"
      fill="none" stroke="#c7c700" stroke-width="1.5" />
    <path
      d="m765.266 210.516c0 2.898-2.352 5.25-5.25 5.25-2.903 0-5.25-2.352-5.25-5.25 0-2.899 2.347-5.25 5.25-5.25 2.898 0 5.25 2.351 5.25 5.25z"
      fill="none" stroke="#c7c700" stroke-width="1.5" />
    <path
      d="m789.297 172.402c0 2.899-2.352 5.25-5.25 5.25-2.902 0-5.25-2.351-5.25-5.25 0-2.898 2.348-5.25 5.25-5.25 2.898 0 5.25 2.352 5.25 5.25z"
      fill="none" stroke="#c7c700" stroke-width="1.5" />
    <path d="m778.84 168.23h9v9h-9z" fill="none" stroke="#c7c700" stroke-width="1.5" />
    <path d="m774.293 171.031h9v9h-9z" fill="none" stroke="#c7c700" stroke-width="1.5" />
    <path d="m738.75 179.438h9v9h-9z" fill="none" stroke="#c7c700" stroke-width="1.5" />
    <path d="m706.992 171.582h9v9h-9z" fill="none" stroke="#c7c700" stroke-width="1.5" />
    <path
      d="m741.398 214.934c0 2.898-2.351 5.25-5.25 5.25-2.902 0-5.25-2.352-5.25-5.25 0-2.903 2.348-5.25 5.25-5.25 2.899 0 5.25 2.347 5.25 5.25z"
      fill="none" stroke="#c7c700" stroke-width="1.5" />
    <path
      d="m781.68 328.051c0 2.898-2.352 5.25-5.25 5.25-2.899 0-5.25-2.352-5.25-5.25 0-2.899 2.351-5.25 5.25-5.25 2.898 0 5.25 2.351 5.25 5.25z"
      fill="none" stroke="#c7c700" stroke-width="1.5" />
    <path d="m790.285 407.25h9v9h-9z" fill="none" stroke="#c7c700" stroke-width="1.5" />
    <path
      d="m186.531 411.75c5.746-30.945 12.207-59.832 19.262-86.258 12.867-48.215 27.703-87.844 41.223-114.976 10.832-21.739 20.8-34.7 24.031-38.114-0.211 0.192-0.707 0.328-0.707 0.328-9.051 5.579-21.184 11.208-40.09 11.208-18.762 0-32.543-8.801-33.422-9.512 0.578 0.554 1.664 1.656 1.664 1.656 4.059 4.316 13.957 17.371 24.656 38.852 13.348 26.8 27.805 65.66 40.282 113.117 6.738 25.629 12.89 53.644 18.355 83.699m246.301 0c39.047-234.992 118.449-396.562 215.164-396.562 104.281 0 184.379 159.609 222.871 396.562m-951.035 0c39.047-234.992 118.449-396.562 215.164-396.562 104.281 0 184.379 159.609 222.871 396.562"
      fill="none" stroke="#008000" stroke-width="1.5" />
    <path
      d="m699.535 411.75c5.742-30.945 12.203-59.832 19.258-86.258 12.867-48.215 27.703-87.844 41.223-114.976 10.832-21.739 20.8-34.7 24.031-38.114 2.594-2.746-0.707 0.328-0.707 0.328l-4.547 2.801-35.543 8.407-31.758-7.856c4.059 4.316 13.957 17.371 24.656 38.852 13.348 26.8 27.805 65.66 40.282 113.117 6.738 25.629 12.89 53.644 18.355 83.699"
      fill="none" stroke="#600" stroke-width="1.5" />
  </g>
</svg>