<?xml version="1.0" encoding="UTF-8"?>
<svg width="935" height="454" version="1.1" viewBox="0 0 935 454" xml:space="preserve"
  xmlns="http://www.w3.org/2000/svg" xmlns:cc="http://creativecommons.org/ns#"
  xmlns:dc="http://purl.org/dc/elements/1.1/" xmlns:rdf="http://www.w3.org/1999/02/22-rdf-syntax-ns#">
    <g transform="matrix(1.3333333,0,0,1.3333333,0,1.135e-5)">
    <path d="m19.066 314.945 30.372-85.695" stroke="#00708f" stroke-width=".75" />
    <path d="m43.438 223.25 12 12" stroke="#00708f" stroke-width=".75" />
    <path d="m43.438 235.25 12-12" stroke="#00708f" stroke-width=".75" />
    <path d="m184.141 66.953-79.305 79.305" stroke="#c0c" stroke-width=".75" />
    <path d="m98.836 140.258 12 12" stroke="#c0c" stroke-width=".75" />
    <path d="m98.836 152.258 12-12" stroke="#c0c" stroke-width=".75" />
    <path d="m184.141 66.953 14.886-14.887" stroke="#00708f" stroke-width=".75" />
    <path d="m193.027 46.066 12 12" stroke="#00708f" stroke-width=".75" />
    <path d="m193.027 58.066 12-12" stroke="#00708f" stroke-width=".75" />
    <path d="m231.328 22.688-16.57 14.621" stroke="#c0c" stroke-width=".75" />
    <path d="m208.758 31.309 12 12" stroke="#c0c" stroke-width=".75" />
    <path d="m208.758 43.309 12-12" stroke="#c0c" stroke-width=".75" />
    <path d="m231.328 22.688 4.86-4.286" stroke="#00708f" stroke-width=".75" />
    <path d="m230.188 12.402 12 12" stroke="#00708f" stroke-width=".75" />
    <path d="m230.188 24.402 12-12" stroke="#00708f" stroke-width=".75" />
    <path d="m252.121 14.824h-8.562" fill="none" stroke="#c0c" stroke-width=".75" />
    <path d="m237.559 8.824 12 12" stroke="#c0c" stroke-width=".75" />
    <path d="m237.559 20.824 12-12" stroke="#c0c" stroke-width=".75" />
    <path d="m252.121 14.824h15.723" fill="none" stroke="#00708f" stroke-width=".75" />
    <path d="m261.844 8.824 12 12" stroke="#00708f" stroke-width=".75" />
    <path d="m261.844 20.824 12-12" stroke="#00708f" stroke-width=".75" />
    <path d="m283.641 46.289-0.02-19.109" stroke="#c0c" stroke-width=".75" />
    <path d="m277.621 21.18 12 12" stroke="#c0c" stroke-width=".75" />
    <path d="m277.621 33.18 12-12" stroke="#c0c" stroke-width=".75" />
    <path d="m400.035 325.5 35.039-91.562" stroke="#00708f" stroke-width=".75" />
    <path d="m429.074 227.938 12 12" stroke="#00708f" stroke-width=".75" />
    <path d="m429.074 239.938 12-12" stroke="#00708f" stroke-width=".75" />
    <path d="m599.312 57.512-97.906 86.39" stroke="#c0c" stroke-width=".75" />
    <path d="m495.406 137.902 12 12" stroke="#c0c" stroke-width=".75" />
    <path d="m495.406 149.902 12-12" stroke="#c0c" stroke-width=".75" />
    <path d="m599.312 57.512 4.317-3.805" stroke="#00708f" stroke-width=".75" />
    <path d="m597.629 47.707 12 12" stroke="#00708f" stroke-width=".75" />
    <path d="m597.629 59.707 12-12" stroke="#00708f" stroke-width=".75" />
    <path d="m613.414 46.348-5.062 3.605" stroke="#c0c" stroke-width=".75" />
    <path d="m602.352 43.953 12 12" stroke="#c0c" stroke-width=".75" />
    <path d="m602.352 55.953 12-12" stroke="#c0c" stroke-width=".75" />
    <path d="m613.414 46.348 21.148-15.059" stroke="#00708f" stroke-width=".75" />
    <path d="m628.562 25.289 12 12" stroke="#00708f" stroke-width=".75" />
    <path d="m628.562 37.289 12-12" stroke="#00708f" stroke-width=".75" />
    <path d="m670.352 22.734h-14.145" fill="none" stroke="#c0c" stroke-width=".75" />
    <path d="m650.207 16.734 12 12" stroke="#c0c" stroke-width=".75" />
    <path d="m650.207 28.734 12-12" stroke="#c0c" stroke-width=".75" />
    <path d="m670.352 22.734h9.066" fill="none" stroke="#00708f" stroke-width=".75" />
    <path d="m673.418 16.734 12 12" stroke="#00708f" stroke-width=".75" />
    <path d="m673.418 28.734 12-12" stroke="#00708f" stroke-width=".75" />
    <path d="m686.191 35.137 0.082-8.844" stroke="#c0c" stroke-width=".75" />
    <path d="m680.273 20.293 12 12" stroke="#c0c" stroke-width=".75" />
    <path d="m680.273 32.293 12-12" stroke="#c0c" stroke-width=".75" />
    <path d="m220.734 119.555-66.308 68.027" stroke="#00708f" stroke-width=".75" />
    <path d="m148.426 181.582 12 12" stroke="#00708f" stroke-width=".75" />
    <path d="m148.426 193.582 12-12" stroke="#00708f" stroke-width=".75" />
    <path d="m82.324 325.5 26.352-68.793" stroke="#c0c" stroke-width=".75" />
    <path d="m102.676 250.707 12 12" stroke="#c0c" stroke-width=".75" />
    <path d="m102.676 262.707 12-12" stroke="#c0c" stroke-width=".75" />
    <path d="m599.383 121.988-54.695 62.875" stroke="#00708f" stroke-width=".75" />
    <path d="m538.688 178.863 12 12" stroke="#00708f" stroke-width=".75" />
    <path d="m538.688 190.863 12-12" stroke="#00708f" stroke-width=".75" />
    <path d="m482.789 314.312 23.066-65.089" stroke="#c0c" stroke-width=".75" />
    <path d="m499.855 243.223 12 12" stroke="#c0c" stroke-width=".75" />
    <path d="m499.855 255.223 12-12" stroke="#c0c" stroke-width=".75" />
    <path d="m10.828 321h9v9h-9z" fill="#707070" />
    <g transform="matrix(.354382 -1 1 .354382 0 0)">
      <path d="m-284.358 109.029 7.07-1e-3" fill="none" stroke="#707070" stroke-width=".70692199" />
    </g>
    <g transform="matrix(.354382 -1 1 .354382 0 0)">
      <path d="m-277.288 109.028-2.119 2.122" fill="none" stroke="#707070" stroke-width=".70692199" />
    </g>
    <g transform="matrix(.354382 -1 1 .354382 0 0)">
      <path d="m-277.288 109.028-2.119-2.121" fill="none" stroke="#707070" stroke-width=".70692199" />
    </g>
    <path d="m12.703 312.691 8.617-4.109 4.11 8.617z" fill="#f00" />
    <path
      d="m189.391 66.953c0 2.899-2.352 5.25-5.25 5.25-2.899 0-5.25-2.351-5.25-5.25 0-2.898 2.351-5.25 5.25-5.25 2.898 0 5.25 2.352 5.25 5.25z"
      fill="#f00" />
    <path
      d="m236.578 22.688c0 2.898-2.348 5.25-5.25 5.25-2.898 0-5.25-2.352-5.25-5.25 0-2.899 2.352-5.25 5.25-5.25 2.902 0 5.25 2.351 5.25 5.25z"
      fill="#f00" />
    <path
      d="m257.371 14.824c0 2.903-2.348 5.25-5.25 5.25-2.898 0-5.25-2.347-5.25-5.25 0-2.898 2.352-5.25 5.25-5.25 2.902 0 5.25 2.352 5.25 5.25z"
      fill="#bf0080" />
    <path d="m276.891 46.297 6.742-6.758 6.758 6.742z" fill="#f00" />
    <path d="m279.445 321h9v9h-9z" fill="#bf0080" />
    <path d="m395.535 321h9v9h-9z" fill="#707070" />
    <g transform="matrix(.38269 -1 1 .38269 0 0)">
      <path d="m-150.387 450.583 7.004-1e-3" fill="none" stroke="#707070" stroke-width=".70046002" />
    </g>
    <g transform="matrix(.38269 -1 1 .38269 0 0)">
      <path d="m-143.383 450.582-2.099 2.1" fill="none" stroke="#707070" stroke-width=".70046002" />
    </g>
    <g transform="matrix(.38269 -1 1 .38269 0 0)">
      <path d="m-143.383 450.582-2.101-2.102" fill="none" stroke="#707070" stroke-width=".70046002" />
    </g>
    <path
      d="m604.562 57.512c0 2.902-2.347 5.25-5.25 5.25-2.898 0-5.25-2.348-5.25-5.25 0-2.899 2.352-5.25 5.25-5.25 2.903 0 5.25 2.351 5.25 5.25z"
      fill="#f00" />
    <path
      d="m618.664 46.348c0 2.898-2.352 5.25-5.25 5.25s-5.25-2.352-5.25-5.25c0-2.899 2.352-5.25 5.25-5.25s5.25 2.351 5.25 5.25z"
      fill="#f00" />
    <path
      d="m675.602 22.734c0 2.899-2.352 5.25-5.25 5.25-2.899 0-5.25-2.351-5.25-5.25 0-2.898 2.351-5.25 5.25-5.25 2.898 0 5.25 2.352 5.25 5.25z"
      fill="#bf0080" />
    <path d="m679.441 35.074 6.813-6.687 6.687 6.812z" fill="#bf0080" />
    <path d="m682 321h9v9h-9z" fill="#bf0080" />
    <path d="m216.457 321h9v9h-9z" fill="#707070" />
    <g transform="matrix(-.00107047 -1 1 -.00107047 0 0)">
      <path d="m-325.736 213.108 7.5 1e-3" fill="none" stroke="#707070" stroke-width=".75" />
    </g>
    <g transform="matrix(-.00107047 -1 1 -.00107047 0 0)">
      <path d="m-318.236 213.109-2.248 2.247" fill="none" stroke="#707070" stroke-width=".75" />
    </g>
    <g transform="matrix(-.00107047 -1 1 -.00107047 0 0)">
      <path d="m-318.236 213.109-2.251-2.253" fill="none" stroke="#707070" stroke-width=".75" />
    </g>
    <path d="m216.234 115.055h9v9h-9z" fill="#bf0080" />
    <path d="m77.824 321h9v9h-9z" fill="#bf0080" />
    <path d="m595.102 321h9v9h-9z" fill="#707070" />
    <g transform="matrix(-.00106888 -1 1 -.00106888 0 0)">
      <path d="m-326.14 591.753h7.5" fill="none" stroke="#707070" stroke-width=".75" />
    </g>
    <g transform="matrix(-.00106888 -1 1 -.00106888 0 0)">
      <path d="m-318.64 591.753-2.249 2.248" fill="none" stroke="#707070" stroke-width=".75" />
    </g>
    <g transform="matrix(-.00106888 -1 1 -.00106888 0 0)">
      <path d="m-318.64 591.753-2.252-2.252" fill="none" stroke="#707070" stroke-width=".75" />
    </g>
    <path d="m594.883 117.488h9v9h-9z" fill="#bf0080" />
    <path d="m476.426 312.059 8.617-4.11 4.109 8.617z" fill="#f00" />
    <path d="m474.324 321h9v9h-9z" fill="#bf0080" />
    <path
      d="m48.75 325.5c33.816-95.418 101.508-189.27 203.402-279.176l0.297 279.176m186.903 0c33.816-95.418 101.507-189.27 203.398-279.176l0.301 279.176"
      fill="none" stroke="#008000" stroke-width="1.5" />
    <path
      d="m15.328 325.5 3.738-10.555c30.372-85.695 85.77-168.687 165.075-247.992 14.886-14.887 30.617-29.644 47.187-44.265 4.86-4.286 12.231-7.864 20.793-7.864 15.723 0 31.5 12.356 31.52 31.465l0.304 279.211m116.09 0c35.039-91.562 101.371-181.598 199.277-267.988 4.317-3.805 9.04-7.559 14.102-11.164 21.148-15.059 42.793-23.614 56.938-23.614 9.066 0 15.921 3.559 15.839 12.403l0.309 290.363m-465.543 0-0.223-205.945c-66.308 68.027-112.058 137.152-138.41 205.945m517.278 0-0.219-203.512c-54.695 62.875-93.528 127.235-116.594 192.324l-3.965 11.188"
      fill="#32cd32" fill-opacity=".07000002" />
    <path
      d="m15.328 325.5 3.738-10.555c30.372-85.695 85.77-168.687 165.075-247.992 14.886-14.887 30.617-29.644 47.187-44.265 4.86-4.286 12.231-7.864 20.793-7.864 15.723 0 31.5 12.356 31.52 31.465l0.304 279.211m116.09 0c35.039-91.562 101.371-181.598 199.277-267.988 4.317-3.805 9.04-7.559 14.102-11.164 21.148-15.059 42.793-23.614 56.938-23.614 9.066 0 15.921 3.559 15.839 12.403l0.309 290.363m-465.543 0-0.223-205.945c-66.308 68.027-112.058 137.152-138.41 205.945m517.278 0-0.219-203.512c-54.695 62.875-93.528 127.235-116.594 192.324l-3.965 11.188"
      fill="none" stroke="#000" stroke-width="1.5" />
  </g>
</svg>