<?xml version="1.0" encoding="UTF-8"?>
<svg width="878" height="483" version="1.1" viewBox="0 0 878 483" xml:space="preserve"
  xmlns="http://www.w3.org/2000/svg" xmlns:cc="http://creativecommons.org/ns#"
  xmlns:dc="http://purl.org/dc/elements/1.1/" xmlns:rdf="http://www.w3.org/1999/02/22-rdf-syntax-ns#">
    <g transform="matrix(1.3333333,0,0,1.3333333,0,1.2075e-5)">
    <path d="m569.797 316.199v0.309" fill="none" stroke="#00708f" stroke-width=".75" />
    <path d="m563.797 310.508 12 12" stroke="#00708f" stroke-width=".75" />
    <path d="m563.797 322.508 12-12" stroke="#00708f" stroke-width=".75" />
    <path d="m569.953 317.09-0.105-0.281" stroke="#c0c" stroke-width=".75" />
    <path d="m563.848 310.809 12 12" stroke="#c0c" stroke-width=".75" />
    <path d="m563.848 322.809 12-12" stroke="#c0c" stroke-width=".75" />
    <path d="m569.953 317.09 1.84 5.055" stroke="#00708f" stroke-width=".75" />
    <path d="m565.793 316.145 12 12" stroke="#00708f" stroke-width=".75" />
    <path d="m565.793 328.145 12-12" stroke="#00708f" stroke-width=".75" />
    <path d="m609.934 312.91-20.227 7.363" stroke="#c0c" stroke-width=".75" />
    <path d="m583.707 314.273 12 12" stroke="#c0c" stroke-width=".75" />
    <path d="m583.707 326.273 12-12" stroke="#c0c" stroke-width=".75" />
    <path d="m609.934 312.91 19.101-6.949" stroke="#00708f" stroke-width=".75" />
    <path d="m623.035 299.961 12 12" stroke="#00708f" stroke-width=".75" />
    <path d="m623.035 311.961 12-12" stroke="#00708f" stroke-width=".75" />
    <path d="m643.402 291.301 4e-3 5.285" stroke="#c0c" stroke-width=".75" />
    <path d="m637.406 290.586 12 12" stroke="#c0c" stroke-width=".75" />
    <path d="m637.406 302.586 12-12" stroke="#c0c" stroke-width=".75" />
    <path d="m573.605 50.859-97.39 85.934" stroke="#00708f" stroke-width=".75" />
    <path d="m470.215 130.793 12 12" stroke="#00708f" stroke-width=".75" />
    <path d="m470.215 142.793 12-12" stroke="#00708f" stroke-width=".75" />
    <path d="m380.879 314.957 31.754-89.59" stroke="#c0c" stroke-width=".75" />
    <path d="m406.633 219.367 12 12" stroke="#c0c" stroke-width=".75" />
    <path d="m406.633 231.367 12-12" stroke="#c0c" stroke-width=".75" />
    <path d="m380.879 314.957-0.274 0.781" stroke="#00708f" stroke-width=".75" />
    <path d="m374.605 309.738 12 12" stroke="#00708f" stroke-width=".75" />
    <path d="m374.605 321.738 12-12" stroke="#00708f" stroke-width=".75" />
    <path d="m380.801 317.09-0.231-0.637" stroke="#c0c" stroke-width=".75" />
    <path d="m374.57 310.453 12 12" stroke="#c0c" stroke-width=".75" />
    <path d="m374.57 322.453 12-12" stroke="#c0c" stroke-width=".75" />
    <path d="m380.801 317.09 1.844 5.055" stroke="#00708f" stroke-width=".75" />
    <path d="m376.645 316.145 12 12" stroke="#00708f" stroke-width=".75" />
    <path d="m376.645 328.145 12-12" stroke="#00708f" stroke-width=".75" />
    <path d="m420.785 312.91-20.226 7.363" stroke="#c0c" stroke-width=".75" />
    <path d="m394.559 314.273 12 12" stroke="#c0c" stroke-width=".75" />
    <path d="m394.559 326.273 12-12" stroke="#c0c" stroke-width=".75" />
    <path d="m420.785 312.91 17.68-6.433" stroke="#00708f" stroke-width=".75" />
    <path d="m432.465 300.477 12 12" stroke="#00708f" stroke-width=".75" />
    <path d="m432.465 312.477 12-12" stroke="#00708f" stroke-width=".75" />
    <path d="m454.02 292.543-1.922 5.418" stroke="#c0c" stroke-width=".75" />
    <path d="m446.098 291.961 12 12" stroke="#c0c" stroke-width=".75" />
    <path d="m446.098 303.961 12-12" stroke="#c0c" stroke-width=".75" />
    <path d="m454.02 292.543 22.449-63.336" stroke="#00708f" stroke-width=".75" />
    <path d="m470.469 223.207 12 12" stroke="#00708f" stroke-width=".75" />
    <path d="m470.469 235.207 12-12" stroke="#00708f" stroke-width=".75" />
    <path d="m569.574 106.551-54.418 60.304" stroke="#c0c" stroke-width=".75" />
    <path d="m509.156 160.855 12 12" stroke="#c0c" stroke-width=".75" />
    <path d="m509.156 172.855 12-12" stroke="#c0c" stroke-width=".75" />
    <path d="m204.895 303.809 3e-3 4.414" stroke="#00708f" stroke-width=".75" />
    <path d="m198.898 302.223 12 12" stroke="#00708f" stroke-width=".75" />
    <path d="m198.898 314.223 12-12" stroke="#00708f" stroke-width=".75" />
    <path d="m207.254 317.09-1.598-4.383" stroke="#c0c" stroke-width=".75" />
    <path d="m199.656 306.707 12 12" stroke="#c0c" stroke-width=".75" />
    <path d="m199.656 318.707 12-12" stroke="#c0c" stroke-width=".75" />
    <path d="m207.254 317.09 7.359 20.226" stroke="#00708f" stroke-width=".75" />
    <path d="m208.613 331.316 12 12" stroke="#00708f" stroke-width=".75" />
    <path d="m208.613 343.316 12-12" stroke="#00708f" stroke-width=".75" />
    <path d="m257.238 340.398-20.226 7.364" stroke="#c0c" stroke-width=".75" />
    <path d="m231.012 341.762 12 12" stroke="#c0c" stroke-width=".75" />
    <path d="m231.012 353.762 12-12" stroke="#c0c" stroke-width=".75" />
    <path d="m257.238 340.398 15.844-5.765" stroke="#00708f" stroke-width=".75" />
    <path d="m267.082 328.633 12 12" stroke="#00708f" stroke-width=".75" />
    <path d="m267.082 340.633 12-12" stroke="#00708f" stroke-width=".75" />
    <path d="m282.906 303.691 0.02 15.946" stroke="#c0c" stroke-width=".75" />
    <path d="m276.926 313.637 12 12" stroke="#c0c" stroke-width=".75" />
    <path d="m276.926 325.637 12-12" stroke="#c0c" stroke-width=".75" />
    <path d="m217.836 15.25-98.164 86.613" stroke="#00708f" stroke-width=".75" />
    <path d="m113.672 95.863 12 12" stroke="#00708f" stroke-width=".75" />
    <path d="m113.672 107.863 12-12" stroke="#00708f" stroke-width=".75" />
    <path d="m17.988 290.75 34.235-96.602" stroke="#c0c" stroke-width=".75" />
    <path d="m46.223 188.148 12 12" stroke="#c0c" stroke-width=".75" />
    <path d="m46.223 200.148 12-12" stroke="#c0c" stroke-width=".75" />
    <path d="m17.988 290.75-2.922 8.234" stroke="#00708f" stroke-width=".75" />
    <path d="m9.066 292.984 12 12" stroke="#00708f" stroke-width=".75" />
    <path d="m9.066 304.984 12-12" stroke="#00708f" stroke-width=".75" />
    <path d="m18.102 317.09-3.219-8.844" stroke="#c0c" stroke-width=".75" />
    <path d="m8.883 302.246 12 12" stroke="#c0c" stroke-width=".75" />
    <path d="m8.883 314.246 12-12" stroke="#c0c" stroke-width=".75" />
    <path d="m18.102 317.09 7.363 20.226" stroke="#00708f" stroke-width=".75" />
    <path d="m19.465 331.316 12 12" stroke="#00708f" stroke-width=".75" />
    <path d="m19.465 343.316 12-12" stroke="#00708f" stroke-width=".75" />
    <path d="m68.09 340.398-20.227 7.364" stroke="#c0c" stroke-width=".75" />
    <path d="m41.863 341.762 12 12" stroke="#c0c" stroke-width=".75" />
    <path d="m41.863 353.762 12-12" stroke="#c0c" stroke-width=".75" />
    <path d="m68.09 340.398 11.383-4.144" stroke="#00708f" stroke-width=".75" />
    <path d="m73.473 330.254 12 12" stroke="#00708f" stroke-width=".75" />
    <path d="m73.473 342.254 12-12" stroke="#00708f" stroke-width=".75" />
    <path d="m91.512 316.75-3.754 10.602" stroke="#c0c" stroke-width=".75" />
    <path d="m81.758 321.352 12 12" stroke="#c0c" stroke-width=".75" />
    <path d="m81.758 333.352 12-12" stroke="#c0c" stroke-width=".75" />
    <path d="m91.512 316.75 21.105-59.551" stroke="#00708f" stroke-width=".75" />
    <path d="m106.617 251.199 12 12" stroke="#00708f" stroke-width=".75" />
    <path d="m106.617 263.199 12-12" stroke="#00708f" stroke-width=".75" />
    <path d="m204.715 137.027-54.781 59.852" stroke="#c0c" stroke-width=".75" />
    <path d="m143.934 190.879 12 12" stroke="#c0c" stroke-width=".75" />
    <path d="m143.934 202.879 12-12" stroke="#c0c" stroke-width=".75" />
    <path d="m565.074 102.051h9v9h-9z" fill="#707070" />
    <g transform="matrix(.00106904 1 -1 .00106904 0 0)">
      <path d="m107.16-576.96 7.5 1e-3" fill="none" stroke="#707070" stroke-width=".75" />
    </g>
    <g transform="matrix(.00106904 1 -1 .00106904 0 0)">
      <path d="m114.66-576.959-2.253 2.251" fill="none" stroke="#707070" stroke-width=".75" />
    </g>
    <g transform="matrix(.00106904 1 -1 .00106904 0 0)">
      <path d="m114.66-576.959-2.252-2.249" fill="none" stroke="#707070" stroke-width=".75" />
    </g>
    <path d="m576.547 316.199-6.75 6.75-6.75-6.75z" fill="#f00" />
    <path
      d="m575.203 317.09c0 2.898-2.351 5.25-5.25 5.25-2.902 0-5.25-2.352-5.25-5.25 0-2.902 2.348-5.25 5.25-5.25 2.899 0 5.25 2.348 5.25 5.25z"
      fill="#f00" />
    <path
      d="m615.184 312.91c0 2.902-2.348 5.25-5.25 5.25-2.899 0-5.25-2.348-5.25-5.25 0-2.898 2.351-5.25 5.25-5.25 2.902 0 5.25 2.352 5.25 5.25z"
      fill="#f00" />
    <path d="m650.152 291.297-6.742 6.754-6.758-6.742z" fill="#f00" />
    <path d="m638.625 27.57h9v9h-9z" fill="#bf0080" />
    <path d="m569.105 46.359h9v9h-9z" fill="#f00" />
    <path
      d="m386.129 314.957c0 2.898-2.348 5.25-5.25 5.25-2.899 0-5.25-2.352-5.25-5.25s2.351-5.25 5.25-5.25c2.902 0 5.25 2.352 5.25 5.25z"
      fill="#f00" />
    <path
      d="m386.051 317.09c0 2.898-2.348 5.25-5.25 5.25-2.899 0-5.25-2.352-5.25-5.25 0-2.902 2.351-5.25 5.25-5.25 2.902 0 5.25 2.348 5.25 5.25z"
      fill="#f00" />
    <path
      d="m426.035 312.91c0 2.902-2.351 5.25-5.25 5.25-2.898 0-5.25-2.348-5.25-5.25 0-2.898 2.352-5.25 5.25-5.25 2.899 0 5.25 2.352 5.25 5.25z"
      fill="#f00" />
    <path
      d="m459.27 292.543c0 2.898-2.352 5.25-5.25 5.25-2.899 0-5.25-2.352-5.25-5.25s2.351-5.25 5.25-5.25c2.898 0 5.25 2.352 5.25 5.25z"
      fill="#f00" />
    <path d="m565.074 102.051h9v9h-9z" fill="#707070" />
    <g transform="matrix(.00106904 1 -1 .00106904 0 0)">
      <path d="m107.16-576.96 7.5 1e-3" fill="none" stroke="#707070" stroke-width=".75" />
    </g>
    <g transform="matrix(.00106904 1 -1 .00106904 0 0)">
      <path d="m114.66-576.959-2.253 2.251" fill="none" stroke="#707070" stroke-width=".75" />
    </g>
    <g transform="matrix(.00106904 1 -1 .00106904 0 0)">
      <path d="m114.66-576.959-2.252-2.249" fill="none" stroke="#707070" stroke-width=".75" />
    </g>
    <path d="m200.215 132.527h9v9h-9z" fill="#707070" />
    <g transform="matrix(.00106713 1 -1 .00106713 0 0)">
      <path d="m137.246-212.068h7.5" fill="none" stroke="#707070" stroke-width=".75" />
    </g>
    <g transform="matrix(.00106713 1 -1 .00106713 0 0)">
      <path d="m144.746-212.068-2.253 2.251" fill="none" stroke="#707070" stroke-width=".75" />
    </g>
    <g transform="matrix(.00106713 1 -1 .00106713 0 0)">
      <path d="m144.746-212.068-2.252-2.249" fill="none" stroke="#707070" stroke-width=".75" />
    </g>
    <path d="m211.645 303.801-6.743 6.758-6.757-6.743z" fill="#f00" />
    <path
      d="m212.504 317.09c0 2.898-2.352 5.25-5.25 5.25-2.902 0-5.25-2.352-5.25-5.25 0-2.902 2.348-5.25 5.25-5.25 2.898 0 5.25 2.348 5.25 5.25z"
      fill="#f00" />
    <path
      d="m262.488 340.398c0 2.899-2.351 5.25-5.25 5.25-2.898 0-5.25-2.351-5.25-5.25 0-2.898 2.352-5.25 5.25-5.25 2.899 0 5.25 2.352 5.25 5.25z"
      fill="#f00" />
    <path d="m289.656 303.684-6.742 6.757-6.758-6.742z" fill="#f00" />
    <path d="m278.129 39.957h9v9h-9z" fill="#f00" />
    <path d="m213.336 10.75h9v9h-9z" fill="#bf0080" />
    <path
      d="m23.238 290.75c0 2.898-2.351 5.25-5.25 5.25-2.898 0-5.25-2.352-5.25-5.25s2.352-5.25 5.25-5.25c2.899 0 5.25 2.352 5.25 5.25z"
      fill="#f00" />
    <path
      d="m23.352 317.09c0 2.898-2.352 5.25-5.25 5.25-2.899 0-5.25-2.352-5.25-5.25 0-2.902 2.351-5.25 5.25-5.25 2.898 0 5.25 2.348 5.25 5.25z"
      fill="#f00" />
    <path
      d="m73.34 340.398c0 2.899-2.352 5.25-5.25 5.25-2.902 0-5.25-2.351-5.25-5.25 0-2.898 2.348-5.25 5.25-5.25 2.898 0 5.25 2.352 5.25 5.25z"
      fill="#f00" />
    <path
      d="m96.762 316.75c0 2.898-2.352 5.25-5.25 5.25-2.899 0-5.25-2.352-5.25-5.25s2.351-5.25 5.25-5.25c2.898 0 5.25 2.352 5.25 5.25z"
      fill="#f00" />
    <path d="m200.215 132.527h9v9h-9z" fill="#707070" />
    <g transform="matrix(.00106713 1 -1 .00106713 0 0)">
      <path d="m137.246-212.068h7.5" fill="none" stroke="#707070" stroke-width=".75" />
    </g>
    <g transform="matrix(.00106713 1 -1 .00106713 0 0)">
      <path d="m144.746-212.068-2.253 2.251" fill="none" stroke="#707070" stroke-width=".75" />
    </g>
    <g transform="matrix(.00106713 1 -1 .00106713 0 0)">
      <path d="m144.746-212.068-2.252-2.249" fill="none" stroke="#707070" stroke-width=".75" />
    </g>
    <path
      d="m54.75 303.75c31.402-88.602 94.258-175.75 188.871-259.234l0.277 259.234m173.551 0c31.403-88.602 94.258-175.75 188.875-259.234l0.278 259.234"
      fill="none" stroke="#008000" stroke-width="1.5" />
    <path
      d="m569.574 106.551 0.223 209.648c0 0.309 0.051 0.61 0.156 0.891 1.84 5.055 19.754 3.183 39.981-4.18 19.101-6.949 33.472-16.324 33.468-21.609l-0.277-259.231-69.52 18.789c-97.39 85.934-160.972 174.508-192.726 264.098-0.274 0.781-0.309 1.496-0.078 2.133 1.844 5.055 19.758 3.183 39.984-4.18 17.68-6.433 31.313-14.949 33.235-20.367 22.449-63.336 61.136-125.688 115.554-185.992zm-364.859 30.476 0.18 166.782c3e-3 4.414 0.761 8.898 2.359 13.281 7.359 20.226 29.758 30.672 49.984 23.308 15.844-5.765 25.688-20.761 25.668-36.707l-0.277-259.234-64.793-29.207c-98.164 86.613-165.613 178.898-199.848 275.5-2.922 8.234-3.105 17.496 0.114 26.34 7.363 20.226 29.761 30.672 49.988 23.308 11.383-4.144 19.668-13.046 23.422-23.648 21.105-59.551 58.422-119.871 113.203-179.723z"
      fill="#32cd32" fill-opacity=".07000002" />
    <path
      d="m569.574 106.551 0.223 209.648c0 0.309 0.051 0.61 0.156 0.891 1.84 5.055 19.754 3.183 39.981-4.18 19.101-6.949 33.472-16.324 33.468-21.609l-0.277-259.231-69.52 18.789c-97.39 85.934-160.972 174.508-192.726 264.098-0.274 0.781-0.309 1.496-0.078 2.133 1.844 5.055 19.758 3.183 39.984-4.18 17.68-6.433 31.313-14.949 33.235-20.367 22.449-63.336 61.136-125.688 115.554-185.992zm-364.859 30.476 0.18 166.782c3e-3 4.414 0.761 8.898 2.359 13.281 7.359 20.226 29.758 30.672 49.984 23.308 15.844-5.765 25.688-20.761 25.668-36.707l-0.277-259.234-64.793-29.207c-98.164 86.613-165.613 178.898-199.848 275.5-2.922 8.234-3.105 17.496 0.114 26.34 7.363 20.226 29.761 30.672 49.988 23.308 11.383-4.144 19.668-13.046 23.422-23.648 21.105-59.551 58.422-119.871 113.203-179.723z"
      fill="none" stroke="#000" stroke-width="1.5" />
  </g>
</svg>