<?xml version="1.0" encoding="UTF-8"?>
<svg width="1207" height="229" version="1.1" viewBox="0 0 1207 229" xml:space="preserve"
  xmlns="http://www.w3.org/2000/svg" xmlns:cc="http://creativecommons.org/ns#"
  xmlns:dc="http://purl.org/dc/elements/1.1/" xmlns:rdf="http://www.w3.org/1999/02/22-rdf-syntax-ns#">
    <g transform="matrix(1.3333333,0,0,1.3333333,0,5.725e-6)">
    <path d="m385.906 121.441 22.438-25.121" stroke="#00708f" stroke-width=".75" />
    <path d="m402.344 90.32 12 12" stroke="#00708f" stroke-width=".75" />
    <path d="m402.344 102.32 12-12" stroke="#00708f" stroke-width=".75" />
    <path d="m420.922 81.121 12 12" stroke="#c0c" stroke-width=".75" />
    <path d="m420.922 93.121 12-12" stroke="#c0c" stroke-width=".75" />
    <path d="m427.043 87.129 5.23-1.063" stroke="#00708f" stroke-width=".75" />
    <path d="m426.273 80.066 12 12" stroke="#00708f" stroke-width=".75" />
    <path d="m426.273 92.066 12-12" stroke="#00708f" stroke-width=".75" />
    <path d="m478.035 97.855-22.555-11.464" stroke="#c0c" stroke-width=".75" />
    <path d="m449.48 80.391 12 12" stroke="#c0c" stroke-width=".75" />
    <path d="m449.48 92.391 12-12" stroke="#c0c" stroke-width=".75" />
    <path d="m478.035 97.855 17.844 9.071" stroke="#00708f" stroke-width=".75" />
    <path d="m489.879 100.926 12 12" stroke="#00708f" stroke-width=".75" />
    <path d="m489.879 112.926 12-12" stroke="#00708f" stroke-width=".75" />
    <path d="m531.707 141.484-17.641-19.992" stroke="#c0c" stroke-width=".75" />
    <path d="m508.066 115.492 12 12" stroke="#c0c" stroke-width=".75" />
    <path d="m508.066 127.492 12-12" stroke="#c0c" stroke-width=".75" />
    <path d="m600.793 113.516-20.449-23.172" stroke="#00708f" stroke-width=".75" />
    <path d="m574.344 84.344 12 12" stroke="#00708f" stroke-width=".75" />
    <path d="m574.344 96.344 12-12" stroke="#00708f" stroke-width=".75" />
    <path d="m536.293 63.887 22.723 9.89" stroke="#c0c" stroke-width=".75" />
    <path d="m553.016 67.777 12 12" stroke="#c0c" stroke-width=".75" />
    <path d="m553.016 79.777 12-12" stroke="#c0c" stroke-width=".75" />
    <path d="m536.293 63.887-26.789-11.66" stroke="#00708f" stroke-width=".75" />
    <path d="m503.504 46.227 12 12" stroke="#00708f" stroke-width=".75" />
    <path d="m503.504 58.227 12-12" stroke="#00708f" stroke-width=".75" />
    <path d="m419.227 65.977 57.98-21.102" stroke="#c0c" stroke-width=".75" />
    <path d="m471.207 38.875 12 12" stroke="#c0c" stroke-width=".75" />
    <path d="m471.207 50.875 12-12" stroke="#c0c" stroke-width=".75" />
    <path d="m419.227 65.977-49.442 17.996" stroke="#00708f" stroke-width=".75" />
    <path d="m363.785 77.973 12 12" stroke="#00708f" stroke-width=".75" />
    <path d="m363.785 89.973 12-12" stroke="#00708f" stroke-width=".75" />
    <path d="m320.594 133.559 23.847-26.7" stroke="#c0c" stroke-width=".75" />
    <path d="m338.441 100.859 12 12" stroke="#c0c" stroke-width=".75" />
    <path d="m338.441 112.859 12-12" stroke="#c0c" stroke-width=".75" />
    <path d="m59.852 148.262 20.285-22.711" stroke="#00708f" stroke-width=".75" />
    <path d="m74.137 119.551 12 12" stroke="#00708f" stroke-width=".75" />
    <path d="m74.137 131.551 12-12" stroke="#00708f" stroke-width=".75" />
    <path d="m117.586 105.488-17.684 6.438" stroke="#c0c" stroke-width=".75" />
    <path d="m93.902 105.926 12 12" stroke="#c0c" stroke-width=".75" />
    <path d="m93.902 117.926 12-12" stroke="#c0c" stroke-width=".75" />
    <path d="m117.586 105.488 34.039-12.386" stroke="#00708f" stroke-width=".75" />
    <path d="m145.625 87.102 12 12" stroke="#00708f" stroke-width=".75" />
    <path d="m145.625 99.102 12-12" stroke="#00708f" stroke-width=".75" />
    <path d="m227.988 148.086-40.523-45.926" stroke="#c0c" stroke-width=".75" />
    <path d="m181.465 96.16 12 12" stroke="#c0c" stroke-width=".75" />
    <path d="m181.465 108.16 12-12" stroke="#c0c" stroke-width=".75" />
    <path d="m273.012 108.414-50.137-56.824" stroke="#00708f" stroke-width=".75" />
    <path d="m216.875 45.59 12 12" stroke="#00708f" stroke-width=".75" />
    <path d="m216.875 57.59 12-12" stroke="#00708f" stroke-width=".75" />
    <path d="m97.066 49.109 62.864-22.882" stroke="#c0c" stroke-width=".75" />
    <path d="m153.93 20.227 12 12" stroke="#c0c" stroke-width=".75" />
    <path d="m153.93 32.227 12-12" stroke="#c0c" stroke-width=".75" />
    <path d="m97.066 49.109-29.707 10.809" stroke="#00708f" stroke-width=".75" />
    <path d="m61.359 53.918 12 12" stroke="#00708f" stroke-width=".75" />
    <path d="m61.359 65.918 12-12" stroke="#00708f" stroke-width=".75" />
    <path d="m15.148 108.238 25.036-28.031" stroke="#c0c" stroke-width=".75" />
    <path d="m34.184 74.207 12 12" stroke="#c0c" stroke-width=".75" />
    <path d="m34.184 86.207 12-12" stroke="#c0c" stroke-width=".75" />
    <path d="m677.668 156.926 65.266-73.071" stroke="#00708f" stroke-width=".75" />
    <path d="m736.934 77.855 12 12" stroke="#00708f" stroke-width=".75" />
    <path d="m736.934 89.855 12-12" stroke="#00708f" stroke-width=".75" />
    <path d="m874.789 156.875-63.773-72.277" stroke="#c0c" stroke-width=".75" />
    <path d="m805.016 78.598 12 12" stroke="#c0c" stroke-width=".75" />
    <path d="m805.016 90.598 12-12" stroke="#c0c" stroke-width=".75" />
    <path d="m890.711 96.625-71.223-80.723" stroke="#00708f" stroke-width=".75" />
    <path d="m813.488 9.902 12 12" stroke="#00708f" stroke-width=".75" />
    <path d="m813.488 21.902 12-12" stroke="#00708f" stroke-width=".75" />
    <path d="m661.836 96.574 72.73-81.429" stroke="#c0c" stroke-width=".75" />
    <path d="m728.566 9.145 12 12" stroke="#c0c" stroke-width=".75" />
    <path d="m728.566 21.145 12-12" stroke="#c0c" stroke-width=".75" />
    <path d="m381.406 116.941h9v9h-9z" fill="#707070" />
    <g transform="matrix(.893198 -1 1 .893198 0 0)">
      <path d="m124.179 269.396h5.593" fill="none" stroke="#707070" stroke-width=".55935901" />
    </g>
    <g transform="matrix(.893198 -1 1 .893198 0 0)">
      <path d="m129.772 269.396-1.677 1.678" fill="none" stroke="#707070" stroke-width=".55935901" />
    </g>
    <g transform="matrix(.893198 -1 1 .893198 0 0)">
      <path d="m129.772 269.396-1.677-1.677" fill="none" stroke="#707070" stroke-width=".55935901" />
    </g>
    <path d="m422.422 82.621h9v9h-9z" fill="#bf0080" />
    <path d="m425.695 80.516 7.961 5.265-5.265 7.965z" fill="#bf0080" />
    <path
      d="m483.285 97.855c0 2.899-2.351 5.25-5.25 5.25-2.898 0-5.25-2.351-5.25-5.25 0-2.898 2.352-5.25 5.25-5.25 2.899 0 5.25 2.352 5.25 5.25z"
      fill="#f00" />
    <path d="m527.207 136.984h9v9h-9z" fill="#bf0080" />
    <path d="m596.293 109.016h9v9h-9z" fill="#bf0080" />
    <path
      d="m541.543 63.887c0 2.902-2.352 5.25-5.25 5.25-2.902 0-5.25-2.348-5.25-5.25 0-2.899 2.348-5.25 5.25-5.25 2.898 0 5.25 2.351 5.25 5.25z"
      fill="#f00" />
    <path
      d="m424.477 65.977c0 2.898-2.352 5.25-5.25 5.25-2.899 0-5.25-2.352-5.25-5.25 0-2.899 2.351-5.25 5.25-5.25 2.898 0 5.25 2.351 5.25 5.25z"
      fill="#f00" />
    <path d="m316.094 129.059h9v9h-9z" fill="#bf0080" />
    <path d="m55.352 143.762h9v9h-9z" fill="#707070" />
    <g transform="matrix(.893189 -1 1 .893189 0 0)">
      <path d="m-52.733 101.359 5.593-1e-3" fill="none" stroke="#707070" stroke-width=".55936098" />
    </g>
    <g transform="matrix(.893189 -1 1 .893189 0 0)">
      <path d="m-47.14 101.358-1.679 1.68" fill="none" stroke="#707070" stroke-width=".55936098" />
    </g>
    <g transform="matrix(.893189 -1 1 .893189 0 0)">
      <path d="m-47.14 101.358-1.677-1.677" fill="none" stroke="#707070" stroke-width=".55936098" />
    </g>
    <path
      d="m122.836 105.488c0 2.903-2.352 5.25-5.25 5.25s-5.25-2.347-5.25-5.25c0-2.898 2.352-5.25 5.25-5.25s5.25 2.352 5.25 5.25z"
      fill="#f00" />
    <path d="m223.488 143.586h9v9h-9z" fill="#bf0080" />
    <path d="m268.512 103.914h9v9h-9z" fill="#bf0080" />
    <path
      d="m102.316 49.109c0 2.899-2.351 5.25-5.25 5.25-2.902 0-5.25-2.351-5.25-5.25 0-2.902 2.348-5.25 5.25-5.25 2.899 0 5.25 2.348 5.25 5.25z"
      fill="#f00" />
    <path d="m10.648 103.738h9v9h-9z" fill="#bf0080" />
    <path d="m673.168 152.426h9v9h-9z" fill="#707070" />
    <g transform="matrix(.893199 -1 1 .893199 0 0)">
      <path d="m249.397 449.313h5.593" fill="none" stroke="#707070" stroke-width=".559358" />
    </g>
    <g transform="matrix(.893199 -1 1 .893199 0 0)">
      <path d="m254.99 449.313-1.681 1.678" fill="none" stroke="#707070" stroke-width=".559358" />
    </g>
    <g transform="matrix(.893199 -1 1 .893199 0 0)">
      <path d="m254.99 449.313-1.679-1.679" fill="none" stroke="#707070" stroke-width=".559358" />
    </g>
    <path d="m870.289 152.375h9v9h-9z" fill="#bf0080" />
    <path d="m886.211 92.125h9v9h-9z" fill="#bf0080" />
    <path d="m657.336 92.074h9v9h-9z" fill="#bf0080" />
    <path
      d="m669.75 128.25c69-77.25 145.5-76.5 213 0m-529.5-0.75c69-77.25 145.5-76.5 213 0m-528.75 0.75c69-77.25 145.5-76.5 213 0"
      fill="none" stroke="#008000" stroke-width="1.5" />
    <path
      d="m385.906 121.441c22.438-25.121 41.016-34.32 41.016-34.32l0.121 8e-3c5.23-1.063 28.437-0.738 50.992 10.726 17.844 9.071 36.031 23.637 53.672 43.629l69.086-27.968c-20.449-23.172-41.777-39.739-64.5-49.629-26.789-11.66-59.086-19.012-117.066 2.09-49.442 17.996-74.786 40.882-98.633 67.582zm-326.054 26.821c20.285-22.711 40.05-36.336 57.734-42.774 34.039-12.386 69.879-3.328 110.402 42.598l45.024-39.672c-50.137-56.824-113.082-82.187-175.946-59.305-29.707 10.809-56.882 31.098-81.918 59.129zm617.816 8.664c65.266-73.071 133.348-72.328 197.121-0.051l15.922-60.25c-71.223-80.723-156.145-81.48-228.875-0.051z"
      fill="#32cd32" fill-opacity=".07000002" />
    <path
      d="m385.906 121.441c22.438-25.121 41.016-34.32 41.016-34.32l0.121 8e-3c5.23-1.063 28.437-0.738 50.992 10.726 17.844 9.071 36.031 23.637 53.672 43.629l69.086-27.968c-20.449-23.172-41.777-39.739-64.5-49.629-26.789-11.66-59.086-19.012-117.066 2.09-49.442 17.996-74.786 40.882-98.633 67.582zm-326.054 26.821c20.285-22.711 40.05-36.336 57.734-42.774 34.039-12.386 69.879-3.328 110.402 42.598l45.024-39.672c-50.137-56.824-113.082-82.187-175.946-59.305-29.707 10.809-56.882 31.098-81.918 59.129zm617.816 8.664c65.266-73.071 133.348-72.328 197.121-0.051l15.922-60.25c-71.223-80.723-156.145-81.48-228.875-0.051z"
      fill="none" stroke="#000" stroke-width="1.5" />
  </g>
</svg>