<?xml version="1.0" encoding="UTF-8"?>
<svg width="855" height="697" version="1.1" viewBox="0 0 855 697" xml:space="preserve"
  xmlns="http://www.w3.org/2000/svg" xmlns:cc="http://creativecommons.org/ns#"
  xmlns:dc="http://purl.org/dc/elements/1.1/" xmlns:rdf="http://www.w3.org/1999/02/22-rdf-syntax-ns#">
    <g transform="matrix(1.3333333,0,0,1.3333333,0,1.7425e-5)">
    <path d="m38.699 107.852v-25.801" fill="none" stroke="#00708f" stroke-width=".75" />
    <path d="m32.699 76.051 12 12" stroke="#00708f" stroke-width=".75" />
    <path d="m32.699 88.051 12-12" stroke="#00708f" stroke-width=".75" />
    <path d="m84.301 61.051h-25.199" fill="none" stroke="#c0c" stroke-width=".75" />
    <path d="m53.102 55.051 12 12" stroke="#c0c" stroke-width=".75" />
    <path d="m53.102 67.051 12-12" stroke="#c0c" stroke-width=".75" />
    <path d="m84.301 61.051h25.199" fill="none" stroke="#00708f" stroke-width=".75" />
    <path d="m103.5 55.051 12 12" stroke="#00708f" stroke-width=".75" />
    <path d="m103.5 67.051 12-12" stroke="#00708f" stroke-width=".75" />
    <path d="m129.898 107.852v-25.204" fill="none" stroke="#c0c" stroke-width=".75" />
    <path d="m123.898 76.648 12 12" stroke="#c0c" stroke-width=".75" />
    <path d="m123.898 88.648 12-12" stroke="#c0c" stroke-width=".75" />
    <path d="m129.898 107.852v25.199" fill="none" stroke="#00708f" stroke-width=".75" />
    <path d="m123.898 127.051 12 12" stroke="#00708f" stroke-width=".75" />
    <path d="m123.898 139.051 12-12" stroke="#00708f" stroke-width=".75" />
    <path d="m84.301 154.648h25.199" fill="none" stroke="#c0c" stroke-width=".75" />
    <path d="m103.5 148.648 12 12" stroke="#c0c" stroke-width=".75" />
    <path d="m103.5 160.648 12-12" stroke="#c0c" stroke-width=".75" />
    <path d="m84.301 154.648h-25.199" fill="none" stroke="#00708f" stroke-width=".75" />
    <path d="m53.102 148.648 12 12" stroke="#00708f" stroke-width=".75" />
    <path d="m53.102 160.648 12-12" stroke="#00708f" stroke-width=".75" />
    <path d="m38.699 107.852v25.796" fill="none" stroke="#c0c" stroke-width=".75" />
    <path d="m32.699 127.648 12 12" stroke="#c0c" stroke-width=".75" />
    <path d="m32.699 139.648 12-12" stroke="#c0c" stroke-width=".75" />
    <path d="m441.164 147.293v-7.801" fill="none" stroke="#00708f" stroke-width=".75" />
    <path d="m435.164 133.492 12 12" stroke="#00708f" stroke-width=".75" />
    <path d="m435.164 145.492 12-12" stroke="#00708f" stroke-width=".75" />
    <path d="m446.328 125.652-3.301 6.477" stroke="#c0c" stroke-width=".75" />
    <path d="m437.027 126.129 12 12" stroke="#c0c" stroke-width=".75" />
    <path d="m437.027 138.129 12-12" stroke="#c0c" stroke-width=".75" />
    <path d="m489.91 40.117 7.613-14.941" stroke="#00708f" stroke-width=".75" />
    <path d="m491.523 19.176 12 12" stroke="#00708f" stroke-width=".75" />
    <path d="m491.523 31.176 12-12" stroke="#00708f" stroke-width=".75" />
    <path d="m530.344 14.957h-17.578" fill="none" stroke="#c0c" stroke-width=".75" />
    <path d="m506.766 8.957 12 12" stroke="#c0c" stroke-width=".75" />
    <path d="m506.766 20.957 12-12" stroke="#c0c" stroke-width=".75" />
    <path d="m530.344 14.957h7.273" fill="none" stroke="#00708f" stroke-width=".75" />
    <path d="m531.617 8.957 12 12" stroke="#00708f" stroke-width=".75" />
    <path d="m531.617 20.957 12-12" stroke="#00708f" stroke-width=".75" />
    <path d="m550.582 19.812-6.098-3.109" stroke="#c0c" stroke-width=".75" />
    <path d="m538.484 10.703 12 12" stroke="#c0c" stroke-width=".75" />
    <path d="m538.484 22.703 12-12" stroke="#c0c" stroke-width=".75" />
    <path d="m561.273 25.258 15.036 7.664" stroke="#00708f" stroke-width=".75" />
    <path d="m570.309 26.922 12 12" stroke="#00708f" stroke-width=".75" />
    <path d="m570.309 38.922 12-12" stroke="#00708f" stroke-width=".75" />
    <path d="m586.637 67.207v-18.359" fill="none" stroke="#c0c" stroke-width=".75" />
    <path d="m580.637 42.848 12 12" stroke="#c0c" stroke-width=".75" />
    <path d="m580.637 54.848 12-12" stroke="#c0c" stroke-width=".75" />
    <path d="m586.637 67.207v7.801" fill="none" stroke="#00708f" stroke-width=".75" />
    <path d="m580.637 69.008 12 12" stroke="#00708f" stroke-width=".75" />
    <path d="m580.637 81.008 12-12" stroke="#00708f" stroke-width=".75" />
    <path d="m581.473 88.848 3.3-6.477" stroke="#c0c" stroke-width=".75" />
    <path d="m578.773 76.371 12 12" stroke="#c0c" stroke-width=".75" />
    <path d="m578.773 88.371 12-12" stroke="#c0c" stroke-width=".75" />
    <path d="m537.891 174.383-7.614 14.941" stroke="#00708f" stroke-width=".75" />
    <path d="m524.277 183.324 12 12" stroke="#00708f" stroke-width=".75" />
    <path d="m524.277 195.324 12-12" stroke="#00708f" stroke-width=".75" />
    <path d="m497.453 199.543h17.582" fill="none" stroke="#c0c" stroke-width=".75" />
    <path d="m509.035 193.543 12 12" stroke="#c0c" stroke-width=".75" />
    <path d="m509.035 205.543 12-12" stroke="#c0c" stroke-width=".75" />
    <path d="m497.453 199.543h-7.269" fill="none" stroke="#00708f" stroke-width=".75" />
    <path d="m484.184 193.543 12 12" stroke="#00708f" stroke-width=".75" />
    <path d="m484.184 205.543 12-12" stroke="#00708f" stroke-width=".75" />
    <path d="m477.219 194.688 6.097 3.109" stroke="#c0c" stroke-width=".75" />
    <path d="m477.316 191.797 12 12" stroke="#c0c" stroke-width=".75" />
    <path d="m477.316 203.797 12-12" stroke="#c0c" stroke-width=".75" />
    <path d="m466.527 189.242-15.035-7.664" stroke="#00708f" stroke-width=".75" />
    <path d="m445.492 175.578 12 12" stroke="#00708f" stroke-width=".75" />
    <path d="m445.492 187.578 12-12" stroke="#00708f" stroke-width=".75" />
    <path d="m441.164 147.293v18.359" fill="none" stroke="#c0c" stroke-width=".75" />
    <path d="m435.164 159.652 12 12" stroke="#c0c" stroke-width=".75" />
    <path d="m435.164 171.652 12-12" stroke="#c0c" stroke-width=".75" />
    <path
      d="m43.949 107.852c0 2.898-2.351 5.25-5.25 5.25-2.898 0-5.25-2.352-5.25-5.25 0-2.903 2.352-5.25 5.25-5.25 2.899 0 5.25 2.347 5.25 5.25z"
      fill="#707070" />
    <g transform="rotate(-90)">
      <path d="m-107.852 31.199h7.5" fill="none" stroke="#707070" stroke-width=".75" />
    </g>
    <g transform="rotate(-90)">
      <path d="m-100.352 31.199-2.25 2.25" fill="none" stroke="#707070" stroke-width=".75" />
    </g>
    <g transform="rotate(-90)">
      <path d="m-100.352 31.199-2.25-2.25" fill="none" stroke="#707070" stroke-width=".75" />
    </g>
    <path
      d="m89.551 61.051c0 2.898-2.352 5.25-5.25 5.25-2.899 0-5.25-2.352-5.25-5.25 0-2.899 2.351-5.25 5.25-5.25 2.898 0 5.25 2.351 5.25 5.25z"
      fill="#bf0080" />
    <path
      d="m135.148 107.852c0 2.898-2.347 5.25-5.25 5.25-2.898 0-5.25-2.352-5.25-5.25 0-2.903 2.352-5.25 5.25-5.25 2.903 0 5.25 2.347 5.25 5.25z"
      fill="#bf0080" />
    <path
      d="m89.551 154.648c0 2.903-2.352 5.25-5.25 5.25-2.899 0-5.25-2.347-5.25-5.25 0-2.898 2.351-5.25 5.25-5.25 2.898 0 5.25 2.352 5.25 5.25z"
      fill="#bf0080" />
    <path
      d="m43.949 107.852c0 2.898-2.351 5.25-5.25 5.25-2.898 0-5.25-2.352-5.25-5.25 0-2.903 2.352-5.25 5.25-5.25 2.899 0 5.25 2.347 5.25 5.25z"
      fill="#707070" />
    <g transform="rotate(-90)">
      <path d="m-107.852 31.199h7.5" fill="none" stroke="#707070" stroke-width=".75" />
    </g>
    <g transform="rotate(-90)">
      <path d="m-100.352 31.199-2.25 2.25" fill="none" stroke="#707070" stroke-width=".75" />
    </g>
    <g transform="rotate(-90)">
      <path d="m-100.352 31.199-2.25-2.25" fill="none" stroke="#707070" stroke-width=".75" />
    </g>
    <path d="m79.801 435.75h9v9h-9z" fill="#707070" />
    <g transform="matrix(-.464004 -1 1 -.464004 0 0)">
      <path d="m-394.442-105.526 6.805 1e-3" fill="none" stroke="#707070" stroke-width=".68032998" />
    </g>
    <g transform="matrix(-.464004 -1 1 -.464004 0 0)">
      <path d="m-387.637-105.525-2.044 2.039" fill="none" stroke="#707070" stroke-width=".68032998" />
    </g>
    <g transform="matrix(-.464004 -1 1 -.464004 0 0)">
      <path d="m-387.637-105.525-2.042-2.041" fill="none" stroke="#707070" stroke-width=".68032998" />
    </g>
    <path d="m10.199 285.75h9v9h-9z" fill="#bf0080" />
    <path d="m165 284.551h9v9h-9z" fill="#bf0080" />
    <path d="m102.602 406.949h9v9h-9z" fill="#f00" />
    <path
      d="m446.414 147.293c0 2.902-2.352 5.25-5.25 5.25-2.902 0-5.25-2.348-5.25-5.25 0-2.898 2.348-5.25 5.25-5.25 2.898 0 5.25 2.352 5.25 5.25z"
      fill="#707070" />
    <g transform="rotate(-90)">
      <path d="m-147.293 433.664h7.5" fill="none" stroke="#707070" stroke-width=".75" />
    </g>
    <g transform="rotate(-90)">
      <path d="m-139.793 433.664-2.25 2.25" fill="none" stroke="#707070" stroke-width=".75" />
    </g>
    <g transform="rotate(-90)">
      <path d="m-139.793 433.664-2.25-2.25" fill="none" stroke="#707070" stroke-width=".75" />
    </g>
    <path d="m452.344 128.719-9.082 2.949-2.95-9.078z" fill="#f00" />
    <path d="m483.898 37.051 9.079-2.949 2.949 9.078z" fill="#f00" />
    <path
      d="m535.594 14.957c0 2.898-2.348 5.25-5.25 5.25-2.899 0-5.25-2.352-5.25-5.25s2.351-5.25 5.25-5.25c2.902 0 5.25 2.352 5.25 5.25z"
      fill="#bf0080" />
    <path d="m547.516 25.824-2.95-9.078 9.079-2.949z" fill="#f00" />
    <path d="m564.336 19.246 2.953 9.078-9.082 2.949z" fill="#f00" />
    <path
      d="m591.887 67.207c0 2.898-2.348 5.25-5.25 5.25-2.899 0-5.25-2.352-5.25-5.25 0-2.902 2.351-5.25 5.25-5.25 2.902 0 5.25 2.348 5.25 5.25z"
      fill="#bf0080" />
    <path d="m575.457 85.781 9.078-2.949 2.953 9.078z" fill="#f00" />
    <path d="m543.902 177.449-9.078 2.949-2.949-9.078z" fill="#f00" />
    <path
      d="m502.703 199.543c0 2.898-2.348 5.25-5.25 5.25-2.898 0-5.25-2.352-5.25-5.25s2.352-5.25 5.25-5.25c2.902 0 5.25 2.352 5.25 5.25z"
      fill="#bf0080" />
    <path d="m480.285 188.676 2.949 9.078-9.078 2.949z" fill="#f00" />
    <path d="m463.461 195.254-2.949-9.078 9.078-2.949z" fill="#f00" />
    <path
      d="m446.414 147.293c0 2.902-2.352 5.25-5.25 5.25-2.902 0-5.25-2.348-5.25-5.25 0-2.898 2.348-5.25 5.25-5.25 2.898 0 5.25 2.352 5.25 5.25z"
      fill="#707070" />
    <g transform="rotate(-90)">
      <path d="m-147.293 433.664h7.5" fill="none" stroke="#707070" stroke-width=".75" />
    </g>
    <g transform="rotate(-90)">
      <path d="m-139.793 433.664-2.25 2.25" fill="none" stroke="#707070" stroke-width=".75" />
    </g>
    <g transform="rotate(-90)">
      <path d="m-139.793 433.664-2.25-2.25" fill="none" stroke="#707070" stroke-width=".75" />
    </g>
    <path d="m564.605 329.547h9v9h-9z" fill="#707070" />
    <g transform="matrix(-.509669 1 -1 -.509669 0 0)">
      <path d="m34.92-593.587h6.684" fill="none" stroke="#707070" stroke-width=".66821599" />
    </g>
    <g transform="matrix(-.509669 1 -1 -.509669 0 0)">
      <path d="m41.604-593.587-2.007 2.003" fill="none" stroke="#707070" stroke-width=".66821599" />
    </g>
    <g transform="matrix(-.509669 1 -1 -.509669 0 0)">
      <path d="m41.604-593.587-2.006-2.005" fill="none" stroke="#707070" stroke-width=".66821599" />
    </g>
    <path d="m533.992 389.617h9v9h-9z" fill="#bf0080" />
    <path d="m506.328 330h9v9h-9z" fill="#bf0080" />
    <path d="m509.305 448.555h9v9h-9z" fill="#707070" />
    <g transform="matrix(1 .509537 -.509537 1 0 0)">
      <path d="m591.168 145.153 6.682-2e-3" fill="none" stroke="#707070" stroke-width=".66825199" />
    </g>
    <g transform="matrix(1 .509537 -.509537 1 0 0)">
      <path d="m597.85 145.151-2.005 2.006" fill="none" stroke="#707070" stroke-width=".66825199" />
    </g>
    <g transform="matrix(1 .509537 -.509537 1 0 0)">
      <path d="m597.85 145.151-2.006-2.006" fill="none" stroke="#707070" stroke-width=".66825199" />
    </g>
    <path d="m515.754 451.844h9v9h-9z" fill="#bf0080" />
    <path d="m621.738 243.906h9v9h-9z" fill="#bf0080" />
    <path d="m611.047 238.457h9v9h-9z" fill="#bf0080" />
    <path d="m456.246 239.656h9v9h-9z" fill="#f00" />
    <path d="m412.664 325.195h9v9h-9z" fill="#bf0080" />
    <path d="m482.262 475.195h9v9h-9z" fill="#f00" />
    <path d="m492.953 480.641h9v9h-9z" fill="#bf0080" />
    <path d="m310.883 394.914-43.582 85.535-10.692-5.445 43.582-85.539z" fill="none" stroke="#008000"
      stroke-width="1.5" />
    <path
      d="m38.699 107.852c0-25.801 20.403-46.801 45.602-46.801s45.597 21.597 45.597 46.801c0 25.199-20.398 46.796-45.597 46.796s-45.602-21-45.602-46.796zm402.465 39.441c0-7.801 1.863-15.164 5.164-21.641l43.582-85.535c7.613-14.941 22.856-25.16 40.434-25.16 7.273 0 14.14 1.746 20.238 4.855l10.691 5.446c15.036 7.664 25.364 23.59 25.364 41.949 0 7.801-1.864 15.164-5.164 21.641l-43.582 85.535c-7.614 14.941-22.856 25.16-40.438 25.16-7.269 0-14.137-1.746-20.234-4.855l-10.692-5.446c-15.035-7.664-25.363-23.59-25.363-41.949zm127.941 186.754-30.613 60.07-27.664-59.617zm-55.3 119.008 6.449 3.289 105.984-207.938-10.691-5.449-154.801 1.199-43.582 85.539 69.598 150 10.691 5.446z"
      fill="#32cd32" fill-opacity=".07000002" />
    <path
      d="m38.699 107.852c0-25.801 20.403-46.801 45.602-46.801s45.597 21.597 45.597 46.801c0 25.199-20.398 46.796-45.597 46.796s-45.602-21-45.602-46.796zm402.465 39.441c0-7.801 1.863-15.164 5.164-21.641l43.582-85.535c7.613-14.941 22.856-25.16 40.434-25.16 7.273 0 14.14 1.746 20.238 4.855l10.691 5.446c15.036 7.664 25.364 23.59 25.364 41.949 0 7.801-1.864 15.164-5.164 21.641l-43.582 85.535c-7.614 14.941-22.856 25.16-40.438 25.16-7.269 0-14.137-1.746-20.234-4.855l-10.692-5.446c-15.035-7.664-25.363-23.59-25.363-41.949zm127.941 186.754-30.613 60.07-27.664-59.617zm-55.3 119.008 6.449 3.289 105.984-207.938-10.691-5.449-154.801 1.199-43.582 85.539 69.598 150 10.691 5.446z"
      fill="none" stroke="#000" stroke-width="1.5" />
    <path d="m84.301 440.25-69.602-150 154.801-1.199-62.398 122.398" fill="none" stroke="#600" stroke-width="1.5" />
    <text transform="translate(36.949219,519.75)" fill="#000000" font-family="'DejaVu Sans'" font-size="15px">
      <tspan
        x="0 9.5100002 18.674999 28.17 34.035 42.27 51.494999 56.25 66.720001 75.885002 85.425003 91.305 100.47 109.965 116.13 242.22 253.44 257.595 419.70703 431.51202 441.00705 446.88702 456.39703 465.89203 471.81705 476.57202 487.04202 496.20703 505.70203 511.58203 520.74701 530.28705 536.45203"
        y="0">Source ContoursNibOutput Contours</tspan>
    </text>
  </g>
</svg>