<?xml version="1.0" encoding="UTF-8"?>
<svg width="1256" height="609" version="1.1" viewBox="0 0 1256 609" xml:space="preserve"
  xmlns="http://www.w3.org/2000/svg" xmlns:cc="http://creativecommons.org/ns#"
  xmlns:dc="http://purl.org/dc/elements/1.1/" xmlns:rdf="http://www.w3.org/1999/02/22-rdf-syntax-ns#">
    <g transform="matrix(1.3333333,0,0,1.3333333,0,1.5225e-5)">
    <path d="m554.551 150.125 0.445-0.496" stroke="#00708f" stroke-width=".75" />
    <path d="m548.996 143.629 12 12" stroke="#00708f" stroke-width=".75" />
    <path d="m548.996 155.629 12-12" stroke="#00708f" stroke-width=".75" />
    <path d="m596.285 120.492-23.078 11.258" stroke="#c0c" stroke-width=".75" />
    <path d="m567.207 125.75 12 12" stroke="#c0c" stroke-width=".75" />
    <path d="m567.207 137.75 12-12" stroke="#c0c" stroke-width=".75" />
    <path d="m596.285 120.492 18.133-8.847" stroke="#00708f" stroke-width=".75" />
    <path d="m608.418 105.645 12 12" stroke="#00708f" stroke-width=".75" />
    <path d="m608.418 117.645 12-12" stroke="#00708f" stroke-width=".75" />
    <path d="m653.988 106.082-19.859 0.422" stroke="#c0c" stroke-width=".75" />
    <path d="m628.129 100.504 12 12" stroke="#c0c" stroke-width=".75" />
    <path d="m628.129 112.504 12-12" stroke="#c0c" stroke-width=".75" />
    <path d="m653.988 106.082 35.856-0.766" stroke="#00708f" stroke-width=".75" />
    <path d="m683.844 99.316 12 12" stroke="#00708f" stroke-width=".75" />
    <path d="m683.844 111.316 12-12" stroke="#00708f" stroke-width=".75" />
    <path d="m761.281 148.973-35.078-29.434" stroke="#c0c" stroke-width=".75" />
    <path d="m720.203 113.539 12 12" stroke="#c0c" stroke-width=".75" />
    <path d="m720.203 125.539 12-12" stroke="#c0c" stroke-width=".75" />
    <path d="m761.281 148.973 10.778 9.043" stroke="#00708f" stroke-width=".75" />
    <path d="m766.059 152.016 12 12" stroke="#00708f" stroke-width=".75" />
    <path d="m766.059 164.016 12-12" stroke="#00708f" stroke-width=".75" />
    <path d="m793.219 180.391-10.5-11.899" stroke="#c0c" stroke-width=".75" />
    <path d="m776.719 162.492 12 12" stroke="#c0c" stroke-width=".75" />
    <path d="m776.719 174.492 12-12" stroke="#c0c" stroke-width=".75" />
    <path d="M 813.414,203.277 824,215.242" stroke="#00708f" stroke-width=".75" />
    <path d="m818 209.242 12 12" stroke="#00708f" stroke-width=".75" />
    <path d="m818 221.242 12-12" stroke="#00708f" stroke-width=".75" />
    <path d="m856.793 222.832h-17.273" fill="none" stroke="#c0c" stroke-width=".75" />
    <path d="m833.52 216.832 12 12" stroke="#c0c" stroke-width=".75" />
    <path d="m833.52 228.832 12-12" stroke="#c0c" stroke-width=".75" />
    <path d="m856.793 222.832h31.937" fill="none" stroke="#00708f" stroke-width=".75" />
    <path d="m882.73 216.832 12 12" stroke="#00708f" stroke-width=".75" />
    <path d="m882.73 228.832 12-12" stroke="#00708f" stroke-width=".75" />
    <path d="m914.656 164.965v31.937" fill="none" stroke="#c0c" stroke-width=".75" />
    <path d="m908.656 190.902 12 12" stroke="#c0c" stroke-width=".75" />
    <path d="m908.656 202.902 12-12" stroke="#c0c" stroke-width=".75" />
    <path d="m914.656 164.965v-14.66" fill="none" stroke="#00708f" stroke-width=".75" />
    <path d="m908.656 144.305 12 12" stroke="#00708f" stroke-width=".75" />
    <path d="m908.656 156.305 12-12" stroke="#00708f" stroke-width=".75" />
    <path d="m900.191 126.711 9.004 10.199" stroke="#c0c" stroke-width=".75" />
    <path d="m903.195 130.91 12 12" stroke="#c0c" stroke-width=".75" />
    <path d="m903.195 142.91 12-12" stroke="#c0c" stroke-width=".75" />
    <path d="m868.781 91.109-10.597-12.011" stroke="#00708f" stroke-width=".75" />
    <path d="m852.184 73.098 12 12" stroke="#00708f" stroke-width=".75" />
    <path d="m852.184 85.098 12-12" stroke="#00708f" stroke-width=".75" />
    <path d="m836.488 59.344 10.918 9.164" stroke="#c0c" stroke-width=".75" />
    <path d="m841.406 62.508 12 12" stroke="#c0c" stroke-width=".75" />
    <path d="m841.406 74.508 12-12" stroke="#c0c" stroke-width=".75" />
    <path d="m836.488 59.344-35.504-29.789" stroke="#00708f" stroke-width=".75" />
    <path d="m794.984 23.555 12 12" stroke="#00708f" stroke-width=".75" />
    <path d="m794.984 35.555 12-12" stroke="#00708f" stroke-width=".75" />
    <path d="m726.23 15.574 37.743-0.804" stroke="#c0c" stroke-width=".75" />
    <path d="m757.973 8.77 12 12" stroke="#c0c" stroke-width=".75" />
    <path d="m757.973 20.77 12-12" stroke="#c0c" stroke-width=".75" />
    <path d="m726.23 15.574-21.023 0.446" stroke="#00708f" stroke-width=".75" />
    <path d="m699.207 10.02 12 12" stroke="#00708f" stroke-width=".75" />
    <path d="m699.207 22.02 12-12" stroke="#00708f" stroke-width=".75" />
    <path d="m661.512 32.133 22.449-10.953" stroke="#c0c" stroke-width=".75" />
    <path d="m677.961 15.18 12 12" stroke="#c0c" stroke-width=".75" />
    <path d="m677.961 27.18 12-12" stroke="#c0c" stroke-width=".75" />
    <path d="m661.512 32.133-27.657 13.492" stroke="#00708f" stroke-width=".75" />
    <path d="m627.855 39.625 12 12" stroke="#00708f" stroke-width=".75" />
    <path d="m627.855 51.625 12-12" stroke="#00708f" stroke-width=".75" />
    <path d="m553.648 121.375 48.27-54.043" stroke="#c0c" stroke-width=".75" />
    <path d="m595.918 61.332 12 12" stroke="#c0c" stroke-width=".75" />
    <path d="m595.918 73.332 12-12" stroke="#c0c" stroke-width=".75" />
    <path d="m520.727 158.234-1.567 1.75" stroke="#00708f" stroke-width=".75" />
    <path d="m513.16 153.984 12 12" stroke="#00708f" stroke-width=".75" />
    <path d="m513.16 165.984 12-12" stroke="#00708f" stroke-width=".75" />
    <path d="m518.207 164.832v-2.535" fill="none" stroke="#c0c" stroke-width=".75" />
    <path d="m512.207 156.297 12 12" stroke="#c0c" stroke-width=".75" />
    <path d="m512.207 168.297 12-12" stroke="#c0c" stroke-width=".75" />
    <path d="m518.207 164.832v5.473" fill="none" stroke="#00708f" stroke-width=".75" />
    <path d="m512.207 164.305 12 12" stroke="#00708f" stroke-width=".75" />
    <path d="m512.207 176.305 12-12" stroke="#00708f" stroke-width=".75" />
    <path d="m528.121 174.746h-5.473" fill="none" stroke="#c0c" stroke-width=".75" />
    <path d="m516.648 168.746 12 12" stroke="#c0c" stroke-width=".75" />
    <path d="m516.648 180.746 12-12" stroke="#c0c" stroke-width=".75" />
    <path d="m528.121 174.746h2.938" fill="none" stroke="#00708f" stroke-width=".75" />
    <path d="m525.059 168.746 12 12" stroke="#00708f" stroke-width=".75" />
    <path d="m525.059 180.746 12-12" stroke="#00708f" stroke-width=".75" />
    <path d="m535.512 171.441-1.813 2.024" stroke="#c0c" stroke-width=".75" />
    <path d="m527.699 167.465 12 12" stroke="#c0c" stroke-width=".75" />
    <path d="m527.699 179.465 12-12" stroke="#c0c" stroke-width=".75" />
    <path d="m109.344 161.711 40.183-44.988" stroke="#00708f" stroke-width=".75" />
    <path d="m143.527 110.723 12 12" stroke="#00708f" stroke-width=".75" />
    <path d="m143.527 122.723 12-12" stroke="#00708f" stroke-width=".75" />
    <path d="m219.086 99.797h-32.289" fill="none" stroke="#c0c" stroke-width=".75" />
    <path d="m180.797 93.797 12 12" stroke="#c0c" stroke-width=".75" />
    <path d="m180.797 105.797 12-12" stroke="#c0c" stroke-width=".75" />
    <path d="m219.086 99.797h32.43" fill="none" stroke="#00708f" stroke-width=".75" />
    <path d="m245.516 93.797 12 12" stroke="#00708f" stroke-width=".75" />
    <path d="m245.516 105.797 12-12" stroke="#00708f" stroke-width=".75" />
    <path d="m327.898 161.535-39.418-44.676" stroke="#c0c" stroke-width=".75" />
    <path d="m282.48 110.859 12 12" stroke="#c0c" stroke-width=".75" />
    <path d="m282.48 122.859 12-12" stroke="#c0c" stroke-width=".75" />
    <path d="m353.715 190.793 7.133 8.062" stroke="#00708f" stroke-width=".75" />
    <path d="m354.848 192.855 12 12" stroke="#00708f" stroke-width=".75" />
    <path d="m354.848 204.855 12-12" stroke="#00708f" stroke-width=".75" />
    <path d="m382.945 203.969h-11.64" fill="none" stroke="#c0c" stroke-width=".75" />
    <path d="m365.305 197.969 12 12" stroke="#c0c" stroke-width=".75" />
    <path d="m365.305 209.969 12-12" stroke="#c0c" stroke-width=".75" />
    <path d="m382.945 203.969h21.524" fill="none" stroke="#00708f" stroke-width=".75" />
    <path d="m398.469 197.969 12 12" stroke="#00708f" stroke-width=".75" />
    <path d="m398.469 209.969 12-12" stroke="#00708f" stroke-width=".75" />
    <path d="m421.941 164.977v21.519" fill="none" stroke="#c0c" stroke-width=".75" />
    <path d="m415.941 180.496 12 12" stroke="#c0c" stroke-width=".75" />
    <path d="m415.941 192.496 12-12" stroke="#c0c" stroke-width=".75" />
    <path d="m421.941 164.977v-9.883" fill="none" stroke="#00708f" stroke-width=".75" />
    <path d="m415.941 149.094 12 12" stroke="#00708f" stroke-width=".75" />
    <path d="m415.941 161.094 12-12" stroke="#00708f" stroke-width=".75" />
    <path d="m412.191 139.195 6.067 6.875" stroke="#c0c" stroke-width=".75" />
    <path d="m412.258 140.07 12 12" stroke="#c0c" stroke-width=".75" />
    <path d="m412.258 152.07 12-12" stroke="#c0c" stroke-width=".75" />
    <path d="m386.398 109.965-48.539-55.016" stroke="#00708f" stroke-width=".75" />
    <path d="m331.859 48.949 12 12" stroke="#00708f" stroke-width=".75" />
    <path d="m331.859 60.949 12-12" stroke="#00708f" stroke-width=".75" />
    <path d="m219.086 21.797h61.891" fill="none" stroke="#c0c" stroke-width=".75" />
    <path d="m274.977 15.797 12 12" stroke="#c0c" stroke-width=".75" />
    <path d="m274.977 27.797 12-12" stroke="#c0c" stroke-width=".75" />
    <path d="m219.086 21.797h-61.57" fill="none" stroke="#00708f" stroke-width=".75" />
    <path d="m151.516 15.797 12 12" stroke="#00708f" stroke-width=".75" />
    <path d="m151.516 27.797 12-12" stroke="#00708f" stroke-width=".75" />
    <path d="m51.156 109.789 49.297-55.191" stroke="#c0c" stroke-width=".75" />
    <path d="m94.453 48.598 12 12" stroke="#c0c" stroke-width=".75" />
    <path d="m94.453 60.598 12-12" stroke="#c0c" stroke-width=".75" />
    <path d="m25.188 138.859-6.161 6.899" stroke="#00708f" stroke-width=".75" />
    <path d="m13.027 139.758 12 12" stroke="#00708f" stroke-width=".75" />
    <path d="m13.027 151.758 12-12" stroke="#00708f" stroke-width=".75" />
    <path d="m15.281 164.82v-9.965" fill="none" stroke="#c0c" stroke-width=".75" />
    <path d="m9.281 148.855 12 12" stroke="#c0c" stroke-width=".75" />
    <path d="m9.281 160.855 12-12" stroke="#c0c" stroke-width=".75" />
    <path d="m15.281 164.82v21.52" fill="none" stroke="#00708f" stroke-width=".75" />
    <path d="m9.281 180.34 12 12" stroke="#00708f" stroke-width=".75" />
    <path d="m9.281 192.34 12-12" stroke="#00708f" stroke-width=".75" />
    <path d="m54.277 203.812h-21.523" fill="none" stroke="#c0c" stroke-width=".75" />
    <path d="m26.754 197.812 12 12" stroke="#c0c" stroke-width=".75" />
    <path d="m26.754 209.812 12-12" stroke="#c0c" stroke-width=".75" />
    <path d="m54.277 203.812h11.555" fill="none" stroke="#00708f" stroke-width=".75" />
    <path d="m59.832 197.812 12 12" stroke="#00708f" stroke-width=".75" />
    <path d="m59.832 209.812 12-12" stroke="#00708f" stroke-width=".75" />
    <path d="m83.352 190.812-7.133 7.961" stroke="#c0c" stroke-width=".75" />
    <path d="m70.219 192.773 12 12" stroke="#c0c" stroke-width=".75" />
    <path d="m70.219 204.773 12-12" stroke="#c0c" stroke-width=".75" />
    <path d="m109.344 365.488 40.183-44.988" stroke="#00708f" stroke-width=".75" />
    <path d="m143.527 314.5 12 12" stroke="#00708f" stroke-width=".75" />
    <path d="m143.527 326.5 12-12" stroke="#00708f" stroke-width=".75" />
    <path d="m219.086 303.57h-32.289" fill="none" stroke="#c0c" stroke-width=".75" />
    <path d="m180.797 297.57 12 12" stroke="#c0c" stroke-width=".75" />
    <path d="m180.797 309.57 12-12" stroke="#c0c" stroke-width=".75" />
    <path d="m219.086 303.57h32.43" fill="none" stroke="#00708f" stroke-width=".75" />
    <path d="m245.516 297.57 12 12" stroke="#00708f" stroke-width=".75" />
    <path d="m245.516 309.57 12-12" stroke="#00708f" stroke-width=".75" />
    <path d="m327.898 365.309-39.418-44.676" stroke="#c0c" stroke-width=".75" />
    <path d="m282.48 314.633 12 12" stroke="#c0c" stroke-width=".75" />
    <path d="m282.48 326.633 12-12" stroke="#c0c" stroke-width=".75" />
    <path d="m353.711 394.562 7.133 8.063" stroke="#00708f" stroke-width=".75" />
    <path d="m354.844 396.625 12 12" stroke="#00708f" stroke-width=".75" />
    <path d="m354.844 408.625 12-12" stroke="#00708f" stroke-width=".75" />
    <path d="m382.941 407.738h-11.64" fill="none" stroke="#c0c" stroke-width=".75" />
    <path d="m365.301 401.738 12 12" stroke="#c0c" stroke-width=".75" />
    <path d="m365.301 413.738 12-12" stroke="#c0c" stroke-width=".75" />
    <path d="m382.941 407.738h21.52" fill="none" stroke="#00708f" stroke-width=".75" />
    <path d="m398.461 401.738 12 12" stroke="#00708f" stroke-width=".75" />
    <path d="m398.461 413.738 12-12" stroke="#00708f" stroke-width=".75" />
    <path d="m421.934 368.746v21.52" fill="none" stroke="#c0c" stroke-width=".75" />
    <path d="m415.934 384.266 12 12" stroke="#c0c" stroke-width=".75" />
    <path d="m415.934 396.266 12-12" stroke="#c0c" stroke-width=".75" />
    <path d="m421.934 368.746v-9.879" fill="none" stroke="#00708f" stroke-width=".75" />
    <path d="m415.934 352.867 12 12" stroke="#00708f" stroke-width=".75" />
    <path d="m415.934 364.867 12-12" stroke="#00708f" stroke-width=".75" />
    <path d="m412.188 342.965 6.066 6.875" stroke="#c0c" stroke-width=".75" />
    <path d="m412.254 343.84 12 12" stroke="#c0c" stroke-width=".75" />
    <path d="m412.254 355.84 12-12" stroke="#c0c" stroke-width=".75" />
    <path d="m386.398 313.742-48.539-55.019" stroke="#00708f" stroke-width=".75" />
    <path d="m331.859 252.723 12 12" stroke="#00708f" stroke-width=".75" />
    <path d="m331.859 264.723 12-12" stroke="#00708f" stroke-width=".75" />
    <path d="m219.086 225.57h61.891" fill="none" stroke="#c0c" stroke-width=".75" />
    <path d="m274.977 219.57 12 12" stroke="#c0c" stroke-width=".75" />
    <path d="m274.977 231.57 12-12" stroke="#c0c" stroke-width=".75" />
    <path d="m219.086 225.57h-61.57" fill="none" stroke="#00708f" stroke-width=".75" />
    <path d="m151.516 219.57 12 12" stroke="#00708f" stroke-width=".75" />
    <path d="m151.516 231.57 12-12" stroke="#00708f" stroke-width=".75" />
    <path d="m51.156 313.562 49.297-55.191" stroke="#c0c" stroke-width=".75" />
    <path d="m94.453 252.371 12 12" stroke="#c0c" stroke-width=".75" />
    <path d="m94.453 264.371 12-12" stroke="#c0c" stroke-width=".75" />
    <path d="m25.191 342.629-6.156 6.898" stroke="#00708f" stroke-width=".75" />
    <path d="m13.035 343.527 12 12" stroke="#00708f" stroke-width=".75" />
    <path d="m13.035 355.527 12-12" stroke="#00708f" stroke-width=".75" />
    <path d="m15.289 368.59v-9.965" fill="none" stroke="#c0c" stroke-width=".75" />
    <path d="m9.289 352.625 12 12" stroke="#c0c" stroke-width=".75" />
    <path d="m9.289 364.625 12-12" stroke="#c0c" stroke-width=".75" />
    <path d="m15.289 368.59v21.519" fill="none" stroke="#00708f" stroke-width=".75" />
    <path d="m9.289 384.109 12 12" stroke="#00708f" stroke-width=".75" />
    <path d="m9.289 396.109 12-12" stroke="#00708f" stroke-width=".75" />
    <path d="m54.281 407.582h-21.519" fill="none" stroke="#c0c" stroke-width=".75" />
    <path d="m26.762 401.582 12 12" stroke="#c0c" stroke-width=".75" />
    <path d="m26.762 413.582 12-12" stroke="#c0c" stroke-width=".75" />
    <path d="m54.281 407.582h11.555" fill="none" stroke="#00708f" stroke-width=".75" />
    <path d="m59.836 401.582 12 12" stroke="#00708f" stroke-width=".75" />
    <path d="m59.836 413.582 12-12" stroke="#00708f" stroke-width=".75" />
    <path d="m83.355 394.582-7.132 7.961" stroke="#c0c" stroke-width=".75" />
    <path d="m70.223 396.543 12 12" stroke="#c0c" stroke-width=".75" />
    <path d="m70.223 408.543 12-12" stroke="#c0c" stroke-width=".75" />
    <path d="m554.551 354.875 0.445-0.496" stroke="#00708f" stroke-width=".75" />
    <path d="m548.996 348.379 12 12" stroke="#00708f" stroke-width=".75" />
    <path d="m548.996 360.379 12-12" stroke="#00708f" stroke-width=".75" />
    <path d="m596.285 325.242-23.078 11.258" stroke="#c0c" stroke-width=".75" />
    <path d="m567.207 330.5 12 12" stroke="#c0c" stroke-width=".75" />
    <path d="m567.207 342.5 12-12" stroke="#c0c" stroke-width=".75" />
    <path d="m596.285 325.242 18.133-8.847" stroke="#00708f" stroke-width=".75" />
    <path d="m608.418 310.395 12 12" stroke="#00708f" stroke-width=".75" />
    <path d="m608.418 322.395 12-12" stroke="#00708f" stroke-width=".75" />
    <path d="m653.988 310.832-19.859 0.422" stroke="#c0c" stroke-width=".75" />
    <path d="m628.129 305.254 12 12" stroke="#c0c" stroke-width=".75" />
    <path d="m628.129 317.254 12-12" stroke="#c0c" stroke-width=".75" />
    <path d="m653.988 310.832 35.856-0.766" stroke="#00708f" stroke-width=".75" />
    <path d="m683.844 304.066 12 12" stroke="#00708f" stroke-width=".75" />
    <path d="m683.844 316.066 12-12" stroke="#00708f" stroke-width=".75" />
    <path d="m761.281 353.723-35.078-29.434" stroke="#c0c" stroke-width=".75" />
    <path d="m720.203 318.289 12 12" stroke="#c0c" stroke-width=".75" />
    <path d="m720.203 330.289 12-12" stroke="#c0c" stroke-width=".75" />
    <path d="m761.281 353.723 10.778 9.043" stroke="#00708f" stroke-width=".75" />
    <path d="m766.059 356.766 12 12" stroke="#00708f" stroke-width=".75" />
    <path d="m766.059 368.766 12-12" stroke="#00708f" stroke-width=".75" />
    <path d="m793.219 385.141-10.5-11.899" stroke="#c0c" stroke-width=".75" />
    <path d="m776.719 367.242 12 12" stroke="#c0c" stroke-width=".75" />
    <path d="m776.719 379.242 12-12" stroke="#c0c" stroke-width=".75" />
    <path d="m825.895 422.172 10.585 11.969" stroke="#00708f" stroke-width=".75" />
    <path d="m830.48 428.141 12 12" stroke="#00708f" stroke-width=".75" />
    <path d="m830.48 440.141 12-12" stroke="#00708f" stroke-width=".75" />
    <path d="M 869.273,441.727 H 852" fill="none" stroke="#c0c" stroke-width=".75" />
    <path d="m846 435.727 12 12" stroke="#c0c" stroke-width=".75" />
    <path d="m846 447.727 12-12" stroke="#c0c" stroke-width=".75" />
    <path d="m869.273 441.727h31.938" fill="none" stroke="#00708f" stroke-width=".75" />
    <path d="m895.211 435.727 12 12" stroke="#00708f" stroke-width=".75" />
    <path d="m895.211 447.727 12-12" stroke="#00708f" stroke-width=".75" />
    <path d="m927.141 383.863v31.934" fill="none" stroke="#c0c" stroke-width=".75" />
    <path d="m921.141 409.797 12 12" stroke="#c0c" stroke-width=".75" />
    <path d="m921.141 421.797 12-12" stroke="#c0c" stroke-width=".75" />
    <path d="m927.141 383.863v-14.664" fill="none" stroke="#00708f" stroke-width=".75" />
    <path d="m921.141 363.199 12 12" stroke="#00708f" stroke-width=".75" />
    <path d="m921.141 375.199 12-12" stroke="#00708f" stroke-width=".75" />
    <path d="m912.672 345.605 9.004 10.2" stroke="#c0c" stroke-width=".75" />
    <path d="m915.676 349.805 12 12" stroke="#c0c" stroke-width=".75" />
    <path d="m915.676 361.805 12-12" stroke="#c0c" stroke-width=".75" />
    <path d="m868.781 295.859-10.597-12.011" stroke="#00708f" stroke-width=".75" />
    <path d="m852.184 277.848 12 12" stroke="#00708f" stroke-width=".75" />
    <path d="m852.184 289.848 12-12" stroke="#00708f" stroke-width=".75" />
    <path d="m836.488 264.094 10.918 9.164" stroke="#c0c" stroke-width=".75" />
    <path d="m841.406 267.258 12 12" stroke="#c0c" stroke-width=".75" />
    <path d="m841.406 279.258 12-12" stroke="#c0c" stroke-width=".75" />
    <path d="m836.488 264.094-35.504-29.789" stroke="#00708f" stroke-width=".75" />
    <path d="m794.984 228.305 12 12" stroke="#00708f" stroke-width=".75" />
    <path d="m794.984 240.305 12-12" stroke="#00708f" stroke-width=".75" />
    <path d="m726.23 220.324 37.743-0.804" stroke="#c0c" stroke-width=".75" />
    <path d="m757.973 213.52 12 12" stroke="#c0c" stroke-width=".75" />
    <path d="m757.973 225.52 12-12" stroke="#c0c" stroke-width=".75" />
    <path d="m726.23 220.324-21.023 0.446" stroke="#00708f" stroke-width=".75" />
    <path d="m699.207 214.77 12 12" stroke="#00708f" stroke-width=".75" />
    <path d="m699.207 226.77 12-12" stroke="#00708f" stroke-width=".75" />
    <path d="m661.512 236.883 22.449-10.953" stroke="#c0c" stroke-width=".75" />
    <path d="m677.961 219.93 12 12" stroke="#c0c" stroke-width=".75" />
    <path d="m677.961 231.93 12-12" stroke="#c0c" stroke-width=".75" />
    <path d="m661.512 236.883-27.657 13.492" stroke="#00708f" stroke-width=".75" />
    <path d="m627.855 244.375 12 12" stroke="#00708f" stroke-width=".75" />
    <path d="m627.855 256.375 12-12" stroke="#00708f" stroke-width=".75" />
    <path d="m553.648 326.125 48.27-54.043" stroke="#c0c" stroke-width=".75" />
    <path d="m595.918 266.082 12 12" stroke="#c0c" stroke-width=".75" />
    <path d="m595.918 278.082 12-12" stroke="#c0c" stroke-width=".75" />
    <path d="m539.766 341.668-1.567 1.754" stroke="#00708f" stroke-width=".75" />
    <path d="m532.199 337.422 12 12" stroke="#00708f" stroke-width=".75" />
    <path d="m532.199 349.422 12-12" stroke="#00708f" stroke-width=".75" />
    <path d="m537.246 348.27v-2.536" fill="none" stroke="#c0c" stroke-width=".75" />
    <path d="m531.246 339.734 12 12" stroke="#c0c" stroke-width=".75" />
    <path d="m531.246 351.734 12-12" stroke="#c0c" stroke-width=".75" />
    <path d="m537.246 348.27v5.468" fill="none" stroke="#00708f" stroke-width=".75" />
    <path d="m531.246 347.738 12 12" stroke="#00708f" stroke-width=".75" />
    <path d="m531.246 359.738 12-12" stroke="#00708f" stroke-width=".75" />
    <path d="m547.16 358.18h-5.472" fill="none" stroke="#c0c" stroke-width=".75" />
    <path d="m535.688 352.18 12 12" stroke="#c0c" stroke-width=".75" />
    <path d="m535.688 364.18 12-12" stroke="#c0c" stroke-width=".75" />
    <path d="m547.16 358.18h2.938" fill="none" stroke="#00708f" stroke-width=".75" />
    <path d="m544.098 352.18 12 12" stroke="#00708f" stroke-width=".75" />
    <path d="m544.098 364.18 12-12" stroke="#00708f" stroke-width=".75" />
    <path d="m554.551 354.875-1.813 2.027" stroke="#c0c" stroke-width=".75" />
    <path d="m546.738 350.902 12 12" stroke="#c0c" stroke-width=".75" />
    <path d="m546.738 362.902 12-12" stroke="#c0c" stroke-width=".75" />
    <path d="m549.52 145.625 9.531-0.531 0.531 9.531z" fill="#707070" />
    <g transform="matrix(.894118 -1 1 .894118 0 0)">
      <path d="m192.121 377.183 5.59 1e-3" fill="none" stroke="#707070" stroke-width=".55910301" />
    </g>
    <g transform="matrix(.894118 -1 1 .894118 0 0)">
      <path d="m197.711 377.184-1.679 1.677" fill="none" stroke="#707070" stroke-width=".55910301" />
    </g>
    <g transform="matrix(.894118 -1 1 .894118 0 0)">
      <path d="m197.711 377.184-1.679-1.678" fill="none" stroke="#707070" stroke-width=".55910301" />
    </g>
    <path
      d="m601.535 120.492c0 2.899-2.351 5.25-5.25 5.25-2.898 0-5.25-2.351-5.25-5.25 0-2.898 2.352-5.25 5.25-5.25 2.899 0 5.25 2.352 5.25 5.25z"
      fill="#f00" />
    <path
      d="m659.238 106.082c0 2.898-2.347 5.25-5.25 5.25-2.898 0-5.25-2.352-5.25-5.25 0-2.902 2.352-5.25 5.25-5.25 2.903 0 5.25 2.348 5.25 5.25z"
      fill="#f00" />
    <path
      d="m766.531 148.973c0 2.898-2.351 5.25-5.25 5.25-2.902 0-5.25-2.352-5.25-5.25 0-2.903 2.348-5.25 5.25-5.25 2.899 0 5.25 2.347 5.25 5.25z"
      fill="#f00" />
    <path d="m788.156 184.855 0.598-9.527 9.527 0.594z" fill="#f00" />
    <path d="m818.469 198.805-0.582 9.527-9.528-0.582z" fill="#f00" />
    <path
      d="m862.043 222.832c0 2.898-2.352 5.25-5.25 5.25s-5.25-2.352-5.25-5.25c0-2.902 2.352-5.25 5.25-5.25s5.25 2.348 5.25 5.25z"
      fill="#bf0080" />
    <path
      d="m919.906 164.965c0 2.902-2.347 5.25-5.25 5.25-2.898 0-5.25-2.348-5.25-5.25 0-2.899 2.352-5.25 5.25-5.25 2.903 0 5.25 2.351 5.25 5.25z"
      fill="#bf0080" />
    <path d="m905.254 122.242-0.598 9.528-9.527-0.594z" fill="#f00" />
    <path d="m863.719 95.578 0.597-9.527 9.528 0.594z" fill="#f00" />
    <path
      d="m841.738 59.344c0 2.898-2.351 5.25-5.25 5.25-2.902 0-5.25-2.352-5.25-5.25 0-2.899 2.348-5.25 5.25-5.25 2.899 0 5.25 2.351 5.25 5.25z"
      fill="#f00" />
    <path
      d="m731.48 15.574c0 2.899-2.347 5.25-5.25 5.25-2.898 0-5.25-2.351-5.25-5.25 0-2.902 2.352-5.25 5.25-5.25 2.903 0 5.25 2.348 5.25 5.25z"
      fill="#f00" />
    <path
      d="m666.762 32.133c0 2.902-2.352 5.25-5.25 5.25-2.899 0-5.25-2.348-5.25-5.25 0-2.899 2.351-5.25 5.25-5.25 2.898 0 5.25 2.351 5.25 5.25z"
      fill="#f00" />
    <path d="m548.613 116.879 9.532-0.539 0.539 9.531z" fill="#f00" />
    <path d="m525.762 162.73-9.532 0.536-0.539-9.532z" fill="#f00" />
    <path
      d="m523.457 164.832c0 2.898-2.348 5.25-5.25 5.25-2.898 0-5.25-2.352-5.25-5.25s2.352-5.25 5.25-5.25c2.902 0 5.25 2.352 5.25 5.25z"
      fill="#bf0080" />
    <path
      d="m533.371 174.746c0 2.899-2.351 5.25-5.25 5.25-2.898 0-5.25-2.351-5.25-5.25 0-2.898 2.352-5.25 5.25-5.25 2.899 0 5.25 2.352 5.25 5.25z"
      fill="#bf0080" />
    <path d="m540.539 175.945-9.531 0.524-0.524-9.531z" fill="#f00" />
    <path d="m104.309 157.215 9.531-0.535 0.535 9.531z" fill="#707070" />
    <g transform="matrix(.893205 -1 1 .893205 0 0)">
      <path d="m-35.624 135.569 5.592 2e-3" fill="none" stroke="#707070" stroke-width=".55935699" />
    </g>
    <g transform="matrix(.893205 -1 1 .893205 0 0)">
      <path d="m-30.032 135.571-1.677 1.678" fill="none" stroke="#707070" stroke-width=".55935699" />
    </g>
    <g transform="matrix(.893205 -1 1 .893205 0 0)">
      <path d="m-30.032 135.571-1.678-1.681" fill="none" stroke="#707070" stroke-width=".55935699" />
    </g>
    <path
      d="m224.336 99.797c0 2.898-2.348 5.25-5.25 5.25-2.898 0-5.25-2.352-5.25-5.25 0-2.899 2.352-5.25 5.25-5.25 2.902 0 5.25 2.351 5.25 5.25z"
      fill="#bf0080" />
    <path d="m322.84 166 0.594-9.527 9.527 0.597z" fill="#f00" />
    <path d="m358.77 186.32-0.582 9.528-9.528-0.582z" fill="#f00" />
    <path
      d="m388.195 203.969c0 2.898-2.347 5.25-5.25 5.25-2.898 0-5.25-2.352-5.25-5.25 0-2.899 2.352-5.25 5.25-5.25 2.903 0 5.25 2.351 5.25 5.25z"
      fill="#bf0080" />
    <path
      d="m427.191 164.977c0 2.898-2.351 5.25-5.25 5.25-2.902 0-5.25-2.352-5.25-5.25 0-2.903 2.348-5.25 5.25-5.25 2.899 0 5.25 2.347 5.25 5.25z"
      fill="#bf0080" />
    <path d="m417.254 134.73-0.598 9.528-9.527-0.598z" fill="#f00" />
    <path d="m381.34 114.43 0.594-9.528 9.527 0.598z" fill="#f00" />
    <path
      d="m224.336 21.797c0 2.898-2.348 5.25-5.25 5.25-2.898 0-5.25-2.352-5.25-5.25 0-2.899 2.352-5.25 5.25-5.25 2.902 0 5.25 2.351 5.25 5.25z"
      fill="#bf0080" />
    <path d="m46.125 105.289 9.527-0.535 0.539 9.531z" fill="#f00" />
    <path d="m30.223 143.359-9.532 0.536-0.535-9.532z" fill="#f00" />
    <path
      d="m20.531 164.82c0 2.899-2.347 5.25-5.25 5.25-2.898 0-5.25-2.351-5.25-5.25 0-2.898 2.352-5.25 5.25-5.25 2.903 0 5.25 2.352 5.25 5.25z"
      fill="#bf0080" />
    <path
      d="m59.527 203.812c0 2.899-2.351 5.25-5.25 5.25-2.902 0-5.25-2.351-5.25-5.25 0-2.898 2.348-5.25 5.25-5.25 2.899 0 5.25 2.352 5.25 5.25z"
      fill="#bf0080" />
    <path d="m88.379 195.316-9.531 0.524-0.524-9.531z" fill="#f00" />
    <path d="m104.309 360.992 9.531-0.539 0.535 9.531z" fill="#707070" />
    <g transform="matrix(.893205 -1 1 .893205 0 0)">
      <path d="m-148.971 236.812 5.594-1e-3" fill="none" stroke="#707070" stroke-width=".55935699" />
    </g>
    <g transform="matrix(.893205 -1 1 .893205 0 0)">
      <path d="m-143.377 236.811-1.678 1.678" fill="none" stroke="#707070" stroke-width=".55935699" />
    </g>
    <g transform="matrix(.893205 -1 1 .893205 0 0)">
      <path d="m-143.377 236.811-1.68-1.679" fill="none" stroke="#707070" stroke-width=".55935699" />
    </g>
    <path
      d="m224.336 303.57c0 2.903-2.348 5.25-5.25 5.25-2.898 0-5.25-2.347-5.25-5.25 0-2.898 2.352-5.25 5.25-5.25 2.902 0 5.25 2.352 5.25 5.25z"
      fill="#bf0080" />
    <path d="m322.84 369.777 0.594-9.527 9.527 0.594z" fill="#f00" />
    <path d="m358.766 390.09-0.582 9.527-9.528-0.582z" fill="#f00" />
    <path
      d="m388.191 407.738c0 2.899-2.351 5.25-5.25 5.25-2.898 0-5.25-2.351-5.25-5.25 0-2.898 2.352-5.25 5.25-5.25 2.899 0 5.25 2.352 5.25 5.25z"
      fill="#bf0080" />
    <path
      d="m427.184 368.746c0 2.899-2.348 5.25-5.25 5.25-2.899 0-5.25-2.351-5.25-5.25 0-2.902 2.351-5.25 5.25-5.25 2.902 0 5.25 2.348 5.25 5.25z"
      fill="#bf0080" />
    <path d="m417.25 338.5-0.598 9.527-9.527-0.597z" fill="#f00" />
    <path d="m381.34 318.207 0.594-9.527 9.527 0.593z" fill="#f00" />
    <path
      d="m224.336 225.57c0 2.903-2.348 5.25-5.25 5.25-2.898 0-5.25-2.347-5.25-5.25 0-2.898 2.352-5.25 5.25-5.25 2.902 0 5.25 2.352 5.25 5.25z"
      fill="#bf0080" />
    <path d="m46.125 309.066 9.527-0.539 0.539 9.532z" fill="#f00" />
    <path d="m30.227 347.129-9.532 0.535-0.535-9.531z" fill="#f00" />
    <path
      d="m20.539 368.59c0 2.898-2.351 5.25-5.25 5.25-2.902 0-5.25-2.352-5.25-5.25 0-2.899 2.348-5.25 5.25-5.25 2.899 0 5.25 2.351 5.25 5.25z"
      fill="#bf0080" />
    <path
      d="m59.531 407.582c0 2.898-2.351 5.25-5.25 5.25-2.898 0-5.25-2.352-5.25-5.25s2.352-5.25 5.25-5.25c2.899 0 5.25 2.352 5.25 5.25z"
      fill="#bf0080" />
    <path d="m88.383 399.086-9.531 0.523-0.524-9.531z" fill="#f00" />
    <path
      d="m559.801 354.875c0 2.902-2.352 5.25-5.25 5.25-2.899 0-5.25-2.348-5.25-5.25 0-2.898 2.351-5.25 5.25-5.25 2.898 0 5.25 2.352 5.25 5.25z"
      fill="#707070" />
    <g transform="matrix(.894118 -1 1 .894118 0 0)">
      <path d="m78.336 478.92 5.59 1e-3" fill="none" stroke="#707070" stroke-width=".55910301" />
    </g>
    <g transform="matrix(.894118 -1 1 .894118 0 0)">
      <path d="m83.926 478.921-1.679 1.677" fill="none" stroke="#707070" stroke-width=".55910301" />
    </g>
    <g transform="matrix(.894118 -1 1 .894118 0 0)">
      <path d="m83.926 478.921-1.679-1.678" fill="none" stroke="#707070" stroke-width=".55910301" />
    </g>
    <path
      d="m601.535 325.242c0 2.899-2.351 5.25-5.25 5.25-2.898 0-5.25-2.351-5.25-5.25 0-2.898 2.352-5.25 5.25-5.25 2.899 0 5.25 2.352 5.25 5.25z"
      fill="#f00" />
    <path
      d="m659.238 310.832c0 2.898-2.347 5.25-5.25 5.25-2.898 0-5.25-2.352-5.25-5.25 0-2.902 2.352-5.25 5.25-5.25 2.903 0 5.25 2.348 5.25 5.25z"
      fill="#f00" />
    <path
      d="m766.531 353.723c0 2.898-2.351 5.25-5.25 5.25-2.902 0-5.25-2.352-5.25-5.25 0-2.903 2.348-5.25 5.25-5.25 2.899 0 5.25 2.347 5.25 5.25z"
      fill="#f00" />
    <path d="m788.156 389.605 0.598-9.527 9.527 0.594z" fill="#f00" />
    <path d="m830.953 417.699-0.586 9.531-9.527-0.585z" fill="#f00" />
    <path
      d="m874.523 441.727c0 2.898-2.351 5.25-5.25 5.25-2.898 0-5.25-2.352-5.25-5.25 0-2.899 2.352-5.25 5.25-5.25 2.899 0 5.25 2.351 5.25 5.25z"
      fill="#bf0080" />
    <path
      d="m932.391 383.863c0 2.899-2.352 5.25-5.25 5.25-2.903 0-5.25-2.351-5.25-5.25 0-2.902 2.347-5.25 5.25-5.25 2.898 0 5.25 2.348 5.25 5.25z"
      fill="#bf0080" />
    <path d="m917.734 341.137-0.593 9.527-9.528-0.594z" fill="#f00" />
    <path d="m863.719 300.328 0.597-9.527 9.528 0.594z" fill="#f00" />
    <path
      d="m841.738 264.094c0 2.898-2.351 5.25-5.25 5.25-2.902 0-5.25-2.352-5.25-5.25 0-2.899 2.348-5.25 5.25-5.25 2.899 0 5.25 2.351 5.25 5.25z"
      fill="#f00" />
    <path
      d="m731.48 220.324c0 2.899-2.347 5.25-5.25 5.25-2.898 0-5.25-2.351-5.25-5.25 0-2.902 2.352-5.25 5.25-5.25 2.903 0 5.25 2.348 5.25 5.25z"
      fill="#f00" />
    <path
      d="m666.762 236.883c0 2.902-2.352 5.25-5.25 5.25-2.899 0-5.25-2.348-5.25-5.25 0-2.899 2.351-5.25 5.25-5.25 2.898 0 5.25 2.351 5.25 5.25z"
      fill="#f00" />
    <path d="m548.613 321.629 9.532-0.539 0.539 9.531z" fill="#f00" />
    <path d="m544.797 346.164-9.531 0.539-0.536-9.531z" fill="#f00" />
    <path
      d="m542.496 348.27c0 2.898-2.351 5.25-5.25 5.25-2.898 0-5.25-2.352-5.25-5.25 0-2.903 2.352-5.25 5.25-5.25 2.899 0 5.25 2.347 5.25 5.25z"
      fill="#bf0080" />
    <path
      d="m552.41 358.18c0 2.902-2.351 5.25-5.25 5.25-2.898 0-5.25-2.348-5.25-5.25 0-2.899 2.352-5.25 5.25-5.25 2.899 0 5.25 2.351 5.25 5.25z"
      fill="#bf0080" />
    <path
      d="m559.801 354.875c0 2.902-2.352 5.25-5.25 5.25-2.899 0-5.25-2.348-5.25-5.25 0-2.898 2.351-5.25 5.25-5.25 2.898 0 5.25 2.352 5.25 5.25z"
      fill="#707070" />
    <g transform="matrix(.894118 -1 1 .894118 0 0)">
      <path d="m78.336 478.92 5.59 1e-3" fill="none" stroke="#707070" stroke-width=".55910301" />
    </g>
    <g transform="matrix(.894118 -1 1 .894118 0 0)">
      <path d="m83.926 478.921-1.679 1.677" fill="none" stroke="#707070" stroke-width=".55910301" />
    </g>
    <g transform="matrix(.894118 -1 1 .894118 0 0)">
      <path d="m83.926 478.921-1.679-1.678" fill="none" stroke="#707070" stroke-width=".55910301" />
    </g>
    <path
      d="m554.102 135.75c89.699-100.426 189.148-99.449 276.898 0m-750.75 0c89.699-100.426 189.148-99.449 276.898 0m-276.898 203.773c89.699-100.421 189.148-99.449 276.898 0m196.954 0.977c89.699-100.426 189.148-99.449 276.898 0"
      fill="none" stroke="#008000" stroke-width="1.5" />
    <path
      d="m554.551 150.125c0.445-0.496 18.656-18.375 41.734-29.633 18.133-8.847 37.844-13.988 57.703-14.41 35.856-0.766 72.215 13.457 107.293 42.891 10.778 9.043 21.438 19.519 31.938 31.418l20.195 22.886c10.586 11.965 26.106 19.555 43.379 19.555 31.937 0 57.863-25.93 57.863-57.867 0-14.66-5.461-28.055-14.465-38.254l-31.41-35.602c-10.597-12.011-21.375-22.601-32.293-31.765-35.504-29.789-72.515-44.574-110.258-43.77-21.023 0.446-42.269 5.606-64.718 16.559-27.657 13.492-59.594 35.199-107.864 89.242l-32.921 36.859c-1.567 1.75-2.52 4.063-2.52 6.598 0 5.473 4.441 9.914 9.914 9.914 2.938 0 5.578-1.281 7.391-3.305zm-445.207 11.586c40.183-44.988 77.453-61.914 109.742-61.914 32.43 0 69.394 17.062 108.812 61.738l25.817 29.258c7.133 8.062 17.59 13.176 29.23 13.176 21.524 0 38.996-17.473 38.996-38.992 0-9.883-3.683-18.907-9.75-25.782l-25.793-29.23c-48.539-55.016-105.421-88.168-167.312-88.168-61.57 0-118.633 32.801-167.93 87.992l-25.968 29.07c-6.161 6.899-9.907 15.996-9.907 25.961 0 21.52 17.473 38.992 38.996 38.992 11.555 0 21.942-5.039 29.075-13zm0 203.777c40.183-44.988 77.453-61.918 109.742-61.918 32.43 0 69.394 17.063 108.812 61.739l25.813 29.253c7.133 8.063 17.59 13.176 29.23 13.176 21.52 0 38.993-17.472 38.993-38.992 0-9.879-3.68-18.906-9.746-25.781l-25.79-29.223c-48.539-55.019-105.421-88.172-167.312-88.172-61.57 0-118.633 32.801-167.93 87.992l-25.965 29.067c-6.156 6.898-9.902 15.996-9.902 25.961 0 21.519 17.473 38.992 38.992 38.992 11.555 0 21.942-5.039 29.074-13zm445.207-10.613c0.445-0.496 18.656-18.375 41.734-29.633 18.133-8.847 37.844-13.988 57.703-14.41 35.856-0.766 72.215 13.457 107.293 42.891 10.778 9.043 21.438 19.519 31.938 31.418l32.676 37.031c10.585 11.969 26.105 19.555 43.378 19.555 31.938 0 57.868-25.93 57.868-57.864 0-14.664-5.465-28.058-14.469-38.258l-43.891-49.746c-10.597-12.011-21.375-22.601-32.293-31.765-35.504-29.789-72.515-44.574-110.258-43.77-21.023 0.446-42.269 5.606-64.718 16.559-27.657 13.492-59.594 35.199-107.864 89.242l-13.882 15.543c-1.567 1.754-2.52 4.066-2.52 6.602 0 5.468 4.442 9.91 9.914 9.91 2.938 0 5.578-1.278 7.391-3.305z"
      fill="#32cd32" fill-opacity=".07000002" />
    <path
      d="m554.551 150.125c0.445-0.496 18.656-18.375 41.734-29.633 18.133-8.847 37.844-13.988 57.703-14.41 35.856-0.766 72.215 13.457 107.293 42.891 10.778 9.043 21.438 19.519 31.938 31.418l20.195 22.886c10.586 11.965 26.106 19.555 43.379 19.555 31.937 0 57.863-25.93 57.863-57.867 0-14.66-5.461-28.055-14.465-38.254l-31.41-35.602c-10.597-12.011-21.375-22.601-32.293-31.765-35.504-29.789-72.515-44.574-110.258-43.77-21.023 0.446-42.269 5.606-64.718 16.559-27.657 13.492-59.594 35.199-107.864 89.242l-32.921 36.859c-1.567 1.75-2.52 4.063-2.52 6.598 0 5.473 4.441 9.914 9.914 9.914 2.938 0 5.578-1.281 7.391-3.305zm-445.207 11.586c40.183-44.988 77.453-61.914 109.742-61.914 32.43 0 69.394 17.062 108.812 61.738l25.817 29.258c7.133 8.062 17.59 13.176 29.23 13.176 21.524 0 38.996-17.473 38.996-38.992 0-9.883-3.683-18.907-9.75-25.782l-25.793-29.23c-48.539-55.016-105.421-88.168-167.312-88.168-61.57 0-118.633 32.801-167.93 87.992l-25.968 29.07c-6.161 6.899-9.907 15.996-9.907 25.961 0 21.52 17.473 38.992 38.996 38.992 11.555 0 21.942-5.039 29.075-13zm0 203.777c40.183-44.988 77.453-61.918 109.742-61.918 32.43 0 69.394 17.063 108.812 61.739l25.813 29.253c7.133 8.063 17.59 13.176 29.23 13.176 21.52 0 38.993-17.472 38.993-38.992 0-9.879-3.68-18.906-9.746-25.781l-25.79-29.223c-48.539-55.019-105.421-88.172-167.312-88.172-61.57 0-118.633 32.801-167.93 87.992l-25.965 29.067c-6.156 6.898-9.902 15.996-9.902 25.961 0 21.519 17.473 38.992 38.992 38.992 11.555 0 21.942-5.039 29.074-13zm445.207-10.613c0.445-0.496 18.656-18.375 41.734-29.633 18.133-8.847 37.844-13.988 57.703-14.41 35.856-0.766 72.215 13.457 107.293 42.891 10.778 9.043 21.438 19.519 31.938 31.418l32.676 37.031c10.585 11.969 26.105 19.555 43.378 19.555 31.938 0 57.868-25.93 57.868-57.864 0-14.664-5.465-28.058-14.469-38.258l-43.891-49.746c-10.597-12.011-21.375-22.601-32.293-31.765-35.504-29.789-72.515-44.574-110.258-43.77-21.023 0.446-42.269 5.606-64.718 16.559-27.657 13.492-59.594 35.199-107.864 89.242l-13.882 15.543c-1.567 1.754-2.52 4.066-2.52 6.602 0 5.468 4.442 9.91 9.914 9.91 2.938 0 5.578-1.278 7.391-3.305z"
      fill="none" stroke="#000" stroke-width="1.5" /><text transform="translate(394.45898,68.25)" fill="#000000"
      font-family="'DejaVu Sans'" font-size="15px">
      <tspan
        x="0 9.4650002 18.33 24.209999 33.435001 42.93 52.439999 57.240002 67.709999 76.889999 86.400002 91.440002 96.239998 105.78 115.32 120.075 129.3"
        y="0">Extend Cap: 40 em</tspan>
      <tspan
        x="-32.153324 -22.688326 -13.823325 -7.943325 1.281675 10.776675 20.286674 25.086676 35.556675 44.736675 54.246674 59.286674 64.086678 68.841675 78.381676 83.136673 90.936676 96.816673 102.71168 111.87668 120.03667 129.26167 134.66168 146.91667 151.07167 160.58168 166.46167"
        y="195">Extend Cap: .5 stroke-width</tspan>
    </text>
  </g>
</svg>