<?xml version="1.0" encoding="UTF-8"?>
<svg width="1241" height="614" version="1.1" viewBox="0 0 1241 614" xml:space="preserve"
  xmlns="http://www.w3.org/2000/svg" xmlns:cc="http://creativecommons.org/ns#"
  xmlns:dc="http://purl.org/dc/elements/1.1/" xmlns:rdf="http://www.w3.org/1999/02/22-rdf-syntax-ns#">
    <g transform="matrix(1.3333333,0,0,1.3333333,0,1.535e-5)">
    <path d="m777.723 389.484 2.429 2.59" stroke="#00708f" stroke-width=".75" />
    <path d="m774.152 386.074 12 12" stroke="#00708f" stroke-width=".75" />
    <path d="m774.152 398.074 12-12" stroke="#00708f" stroke-width=".75" />
    <path d="m784.992 397.473-2.418-2.739" stroke="#c0c" stroke-width=".75" />
    <path d="m776.574 388.734 12 12" stroke="#c0c" stroke-width=".75" />
    <path d="m776.574 400.734 12-12" stroke="#c0c" stroke-width=".75" />
    <path d="m881.508 328.527-4.68-5.304" stroke="#00708f" stroke-width=".75" />
    <path d="m870.828 317.223 12 12" stroke="#00708f" stroke-width=".75" />
    <path d="m870.828 329.223 12-12" stroke="#00708f" stroke-width=".75" />
    <path d="m867.371 313.457 4.746 4.742" stroke="#c0c" stroke-width=".75" />
    <path d="m866.117 312.199 12 12" stroke="#c0c" stroke-width=".75" />
    <path d="m866.117 324.199 12-12" stroke="#c0c" stroke-width=".75" />
    <path d="m853.586 299.668-79.883-79.879" stroke="#00708f" stroke-width=".75" />
    <path d="m767.703 213.789 12 12" stroke="#00708f" stroke-width=".75" />
    <path d="m767.703 225.789 12-12" stroke="#00708f" stroke-width=".75" />
    <path d="m603.941 300.844 81.368-81.371" stroke="#c0c" stroke-width=".75" />
    <path d="m679.309 213.473 12 12" stroke="#c0c" stroke-width=".75" />
    <path d="m679.309 225.473 12-12" stroke="#c0c" stroke-width=".75" />
    <path d="m521.211 383.574-4.395 4.395" stroke="#00708f" stroke-width=".75" />
    <path d="m510.816 381.969 12 12" stroke="#00708f" stroke-width=".75" />
    <path d="m510.816 393.969 12-12" stroke="#00708f" stroke-width=".75" />
    <path d="m508.09 397.473 4.351-4.871" stroke="#c0c" stroke-width=".75" />
    <path d="m506.441 386.602 12 12" stroke="#c0c" stroke-width=".75" />
    <path d="m506.441 398.602 12-12" stroke="#c0c" stroke-width=".75" />
    <path d="m569.066 368.32 69.161-49.027" stroke="#00708f" stroke-width=".75" />
    <path d="m632.227 313.293 12 12" stroke="#00708f" stroke-width=".75" />
    <path d="m632.227 325.293 12-12" stroke="#00708f" stroke-width=".75" />
    <path d="m777.723 389.484-66.95-62.73" stroke="#c0c" stroke-width=".75" />
    <path d="m704.773 320.754 12 12" stroke="#c0c" stroke-width=".75" />
    <path d="m704.773 332.754 12-12" stroke="#c0c" stroke-width=".75" />
    <path d="m111.57 184.238 40.207-45.015" stroke="#00708f" stroke-width=".75" />
    <path d="m145.777 133.223 12 12" stroke="#00708f" stroke-width=".75" />
    <path d="m145.777 145.223 12-12" stroke="#00708f" stroke-width=".75" />
    <path d="m221.336 122.297h-32.289" fill="none" stroke="#c0c" stroke-width=".75" />
    <path d="m183.047 116.297 12 12" stroke="#c0c" stroke-width=".75" />
    <path d="m183.047 128.297 12-12" stroke="#c0c" stroke-width=".75" />
    <path d="m221.336 122.297h32.43" fill="none" stroke="#00708f" stroke-width=".75" />
    <path d="m247.766 116.297 12 12" stroke="#00708f" stroke-width=".75" />
    <path d="m247.766 128.297 12-12" stroke="#00708f" stroke-width=".75" />
    <path d="m330.148 184.035-39.418-44.676" stroke="#c0c" stroke-width=".75" />
    <path d="m284.73 133.359 12 12" stroke="#c0c" stroke-width=".75" />
    <path d="m284.73 145.359 12-12" stroke="#c0c" stroke-width=".75" />
    <path d="m388.648 132.465-48.539-55.016" stroke="#00708f" stroke-width=".75" />
    <path d="m334.109 71.449 12 12" stroke="#00708f" stroke-width=".75" />
    <path d="m334.109 83.449 12-12" stroke="#00708f" stroke-width=".75" />
    <path d="m221.336 44.297h61.891" fill="none" stroke="#c0c" stroke-width=".75" />
    <path d="m277.227 38.297 12 12" stroke="#c0c" stroke-width=".75" />
    <path d="m277.227 50.297 12-12" stroke="#c0c" stroke-width=".75" />
    <path d="m221.336 44.297h-61.57" fill="none" stroke="#00708f" stroke-width=".75" />
    <path d="m153.766 38.297 12 12" stroke="#00708f" stroke-width=".75" />
    <path d="m153.766 50.297 12-12" stroke="#00708f" stroke-width=".75" />
    <path d="m53.406 132.289 49.297-55.191" stroke="#c0c" stroke-width=".75" />
    <path d="m96.703 71.098 12 12" stroke="#c0c" stroke-width=".75" />
    <path d="m96.703 83.098 12-12" stroke="#c0c" stroke-width=".75" />
    <path d="m777.723 184.734 2.429 2.59" stroke="#00708f" stroke-width=".75" />
    <path d="m774.152 181.324 12 12" stroke="#00708f" stroke-width=".75" />
    <path d="m774.152 193.324 12-12" stroke="#00708f" stroke-width=".75" />
    <path d="m784.992 192.723-2.418-2.739" stroke="#c0c" stroke-width=".75" />
    <path d="m776.574 183.984 12 12" stroke="#c0c" stroke-width=".75" />
    <path d="m776.574 195.984 12-12" stroke="#c0c" stroke-width=".75" />
    <path d="m881.508 123.777-4.68-5.304" stroke="#00708f" stroke-width=".75" />
    <path d="m870.828 112.473 12 12" stroke="#00708f" stroke-width=".75" />
    <path d="m870.828 124.473 12-12" stroke="#00708f" stroke-width=".75" />
    <path d="m867.371 108.707 4.746 4.742" stroke="#c0c" stroke-width=".75" />
    <path d="m866.117 107.449 12 12" stroke="#c0c" stroke-width=".75" />
    <path d="m866.117 119.449 12-12" stroke="#c0c" stroke-width=".75" />
    <path d="m853.586 94.918-79.883-79.879" stroke="#00708f" stroke-width=".75" />
    <path d="m767.703 9.039 12 12" stroke="#00708f" stroke-width=".75" />
    <path d="m767.703 21.039 12-12" stroke="#00708f" stroke-width=".75" />
    <path d="m603.941 96.094 81.368-81.371" stroke="#c0c" stroke-width=".75" />
    <path d="m679.309 8.723 12 12" stroke="#c0c" stroke-width=".75" />
    <path d="m679.309 20.723 12-12" stroke="#c0c" stroke-width=".75" />
    <path d="m521.211 178.824-4.395 4.395" stroke="#00708f" stroke-width=".75" />
    <path d="m510.816 177.219 12 12" stroke="#00708f" stroke-width=".75" />
    <path d="m510.816 189.219 12-12" stroke="#00708f" stroke-width=".75" />
    <path d="m508.09 192.723 4.351-4.871" stroke="#c0c" stroke-width=".75" />
    <path d="m506.441 181.852 12 12" stroke="#c0c" stroke-width=".75" />
    <path d="m506.441 193.852 12-12" stroke="#c0c" stroke-width=".75" />
    <path d="m569.066 163.57 69.161-49.027" stroke="#00708f" stroke-width=".75" />
    <path d="m632.227 108.543 12 12" stroke="#00708f" stroke-width=".75" />
    <path d="m632.227 120.543 12-12" stroke="#00708f" stroke-width=".75" />
    <path d="m777.723 184.734-66.95-62.73" stroke="#c0c" stroke-width=".75" />
    <path d="m704.773 116.004 12 12" stroke="#c0c" stroke-width=".75" />
    <path d="m704.773 128.004 12-12" stroke="#c0c" stroke-width=".75" />
    <path d="M 111.594,387.988 151.777,343" stroke="#00708f" stroke-width=".75" />
    <path d="m145.777 337 12 12" stroke="#00708f" stroke-width=".75" />
    <path d="m145.777 349 12-12" stroke="#00708f" stroke-width=".75" />
    <path d="m221.336 326.07h-32.289" fill="none" stroke="#c0c" stroke-width=".75" />
    <path d="m183.047 320.07 12 12" stroke="#c0c" stroke-width=".75" />
    <path d="m183.047 332.07 12-12" stroke="#c0c" stroke-width=".75" />
    <path d="m221.336 326.07h32.43" fill="none" stroke="#00708f" stroke-width=".75" />
    <path d="m247.766 320.07 12 12" stroke="#00708f" stroke-width=".75" />
    <path d="m247.766 332.07 12-12" stroke="#00708f" stroke-width=".75" />
    <path d="m330.148 387.809-39.418-44.676" stroke="#c0c" stroke-width=".75" />
    <path d="m284.73 337.133 12 12" stroke="#c0c" stroke-width=".75" />
    <path d="m284.73 349.133 12-12" stroke="#c0c" stroke-width=".75" />
    <path d="m388.648 336.242-48.539-55.015" stroke="#00708f" stroke-width=".75" />
    <path d="m334.109 275.227 12 12" stroke="#00708f" stroke-width=".75" />
    <path d="m334.109 287.227 12-12" stroke="#00708f" stroke-width=".75" />
    <path d="m221.336 248.07h61.891" fill="none" stroke="#c0c" stroke-width=".75" />
    <path d="m277.227 242.07 12 12" stroke="#c0c" stroke-width=".75" />
    <path d="m277.227 254.07 12-12" stroke="#c0c" stroke-width=".75" />
    <path d="m221.336 248.07h-61.57" fill="none" stroke="#00708f" stroke-width=".75" />
    <path d="m153.766 242.07 12 12" stroke="#00708f" stroke-width=".75" />
    <path d="m153.766 254.07 12-12" stroke="#00708f" stroke-width=".75" />
    <path d="m53.41 336.062 49.293-55.191" stroke="#c0c" stroke-width=".75" />
    <path d="m96.703 274.871 12 12" stroke="#c0c" stroke-width=".75" />
    <path d="m96.703 286.871 12-12" stroke="#c0c" stroke-width=".75" />
    <path
      d="m782.973 389.484c0 2.903-2.352 5.25-5.25 5.25-2.903 0-5.25-2.347-5.25-5.25 0-2.898 2.347-5.25 5.25-5.25 2.898 0 5.25 2.352 5.25 5.25z"
      fill="#707070" />
    <g transform="matrix(.939977 1 -1 .939977 0 0)">
      <path d="m594.897-223.994h5.465" fill="none" stroke="#707070" stroke-width=".54647702" />
    </g>
    <g transform="matrix(.939977 1 -1 .939977 0 0)">
      <path d="m600.362-223.994-1.639 1.639" fill="none" stroke="#707070" stroke-width=".54647702" />
    </g>
    <g transform="matrix(.939977 1 -1 .939977 0 0)">
      <path d="m600.362-223.994-1.638-1.641" fill="none" stroke="#707070" stroke-width=".54647702" />
    </g>
    <path d="m779.93 401.938 0.593-9.528 9.528 0.594z" fill="#f00" />
    <path d="m822.574 440.668h9v9h-9z" fill="#bf0080" />
    <path d="m911.047 362.602h9v9h-9z" fill="#bf0080" />
    <path d="m876.445 332.992 0.598-9.527 9.527 0.597z" fill="#f00" />
    <path d="m872.145 308.684v9.546h-9.547z" fill="#f00" />
    <path d="m848.812 304.441v-9.546h9.543z" fill="#f00" />
    <path d="m599.168 296.07h9.547v9.547z" fill="#f00" />
    <path d="m525.98 388.348h-9.542v-9.547z" fill="#f00" />
    <path d="m503.59 392.973h9v9h-9z" fill="#bf0080" />
    <path d="m523.023 410.332h9v9h-9z" fill="#bf0080" />
    <path d="m564.566 363.82h9v9h-9z" fill="#f00" />
    <path
      d="m782.973 389.484c0 2.903-2.352 5.25-5.25 5.25-2.903 0-5.25-2.347-5.25-5.25 0-2.898 2.347-5.25 5.25-5.25 2.898 0 5.25 2.352 5.25 5.25z"
      fill="#707070" />
    <g transform="matrix(.939977 1 -1 .939977 0 0)">
      <path d="m594.897-223.994h5.465" fill="none" stroke="#707070" stroke-width=".54647702" />
    </g>
    <g transform="matrix(.939977 1 -1 .939977 0 0)">
      <path d="m600.362-223.994-1.639 1.639" fill="none" stroke="#707070" stroke-width=".54647702" />
    </g>
    <g transform="matrix(.939977 1 -1 .939977 0 0)">
      <path d="m600.362-223.994-1.638-1.641" fill="none" stroke="#707070" stroke-width=".54647702" />
    </g>
    <path d="m107.07 179.738h9v9h-9z" fill="#707070" />
    <g transform="matrix(.893199 -1 1 .893199 0 0)">
      <path d="m-47.049 148h5.594" fill="none" stroke="#707070" stroke-width=".559358" />
    </g>
    <g transform="matrix(.893199 -1 1 .893199 0 0)">
      <path d="m-41.455 148-1.677 1.678" fill="none" stroke="#707070" stroke-width=".559358" />
    </g>
    <g transform="matrix(.893199 -1 1 .893199 0 0)">
      <path d="m-41.455 148-1.678-1.677" fill="none" stroke="#707070" stroke-width=".559358" />
    </g>
    <path
      d="m226.586 122.297c0 2.898-2.348 5.25-5.25 5.25-2.898 0-5.25-2.352-5.25-5.25 0-2.899 2.352-5.25 5.25-5.25 2.902 0 5.25 2.351 5.25 5.25z"
      fill="#bf0080" />
    <path d="m325.09 188.5 0.594-9.527 9.527 0.597z" fill="#bf0080" />
    <path d="m384.148 127.965h9v9h-9z" fill="#bf0080" />
    <path
      d="m226.586 44.297c0 2.898-2.348 5.25-5.25 5.25-2.898 0-5.25-2.352-5.25-5.25 0-2.899 2.352-5.25 5.25-5.25 2.902 0 5.25 2.351 5.25 5.25z"
      fill="#bf0080" />
    <path d="m48.906 127.789h9v9h-9z" fill="#bf0080" />
    <path
      d="m782.973 184.734c0 2.903-2.352 5.25-5.25 5.25-2.903 0-5.25-2.347-5.25-5.25 0-2.898 2.347-5.25 5.25-5.25 2.898 0 5.25 2.352 5.25 5.25z"
      fill="#707070" />
    <g transform="matrix(.939977 1 -1 .939977 0 0)">
      <path d="m486.193-326.173h5.465" fill="none" stroke="#707070" stroke-width=".54647702" />
    </g>
    <g transform="matrix(.939977 1 -1 .939977 0 0)">
      <path d="m491.658-326.173-1.639 1.639" fill="none" stroke="#707070" stroke-width=".54647702" />
    </g>
    <g transform="matrix(.939977 1 -1 .939977 0 0)">
      <path d="m491.658-326.173-1.638-1.641" fill="none" stroke="#707070" stroke-width=".54647702" />
    </g>
    <path d="m779.93 197.188 0.593-9.528 9.528 0.594z" fill="#f00" />
    <path d="m788.539 197.344h9v9h-9z" fill="#bf0080" />
    <path d="m877.008 119.277h9v9h-9z" fill="#bf0080" />
    <path d="m872.145 103.934v9.546h-9.547z" fill="#f00" />
    <path d="m848.812 99.691v-9.546h9.543z" fill="#f00" />
    <path d="m599.168 91.32h9.547v9.547z" fill="#f00" />
    <path d="m525.98 183.598h-9.542v-9.547z" fill="#f00" />
    <path d="m503.59 188.223h9v9h-9z" fill="#bf0080" />
    <path d="m523.023 205.582h9v9h-9z" fill="#bf0080" />
    <path d="m564.566 159.07h9v9h-9z" fill="#f00" />
    <path
      d="m782.973 184.734c0 2.903-2.352 5.25-5.25 5.25-2.903 0-5.25-2.347-5.25-5.25 0-2.898 2.347-5.25 5.25-5.25 2.898 0 5.25 2.352 5.25 5.25z"
      fill="#707070" />
    <g transform="matrix(.939977 1 -1 .939977 0 0)">
      <path d="m486.193-326.173h5.465" fill="none" stroke="#707070" stroke-width=".54647702" />
    </g>
    <g transform="matrix(.939977 1 -1 .939977 0 0)">
      <path d="m491.658-326.173-1.639 1.639" fill="none" stroke="#707070" stroke-width=".54647702" />
    </g>
    <g transform="matrix(.939977 1 -1 .939977 0 0)">
      <path d="m491.658-326.173-1.638-1.641" fill="none" stroke="#707070" stroke-width=".54647702" />
    </g>
    <path d="m106.559 383.492 9.531-0.539 0.535 9.531z" fill="#707070" />
    <g transform="matrix(.893221 -1 1 .893221 0 0)">
      <path d="m-160.365 249.241h5.594" fill="none" stroke="#707070" stroke-width=".55935198" />
    </g>
    <g transform="matrix(.893221 -1 1 .893221 0 0)">
      <path d="m-154.771 249.241-1.679 1.676" fill="none" stroke="#707070" stroke-width=".55935198" />
    </g>
    <g transform="matrix(.893221 -1 1 .893221 0 0)">
      <path d="m-154.771 249.241-1.68-1.679" fill="none" stroke="#707070" stroke-width=".55935198" />
    </g>
    <path
      d="m226.586 326.07c0 2.903-2.352 5.25-5.25 5.25s-5.25-2.347-5.25-5.25c0-2.898 2.352-5.25 5.25-5.25s5.25 2.352 5.25 5.25z"
      fill="#bf0080" />
    <path d="m325.09 392.277 0.594-9.527 9.527 0.594z" fill="#f00" />
    <path d="m363.723 426.457h9v9h-9z" fill="#bf0080" />
    <path d="m422.199 374.859h9v9h-9z" fill="#bf0080" />
    <path d="m383.59 340.707 0.594-9.527 9.527 0.593z" fill="#f00" />
    <path
      d="m226.586 248.07c0 2.903-2.352 5.25-5.25 5.25s-5.25-2.347-5.25-5.25c0-2.898 2.352-5.25 5.25-5.25s5.25 2.352 5.25 5.25z"
      fill="#bf0080" />
    <path d="m48.375 331.566 9.531-0.539 0.535 9.532z" fill="#f00" />
    <path d="m10.598 374.453h9v9h-9z" fill="#bf0080" />
    <path d="m68.762 426.402h9v9h-9z" fill="#bf0080" />
    <path
      d="m556.352 158.25c89.699-100.426 189.148-99.449 276.898 0m-750.75 0c89.699-100.426 189.148-99.449 276.898 0m-276.898 203.773c89.699-100.421 189.148-99.449 276.898 0m196.954 0.977c89.699-100.426 189.148-99.449 276.898 0"
      fill="none" stroke="#008000" stroke-width="1.5" />
    <path
      d="m777.723 389.484c2.429 2.59 4.851 5.25 7.269 7.989l42.082 47.695 88.473-78.066-34.039-38.575c-4.68-5.304-9.391-10.328-14.137-15.07l-13.785-13.789c-79.883-79.879-168.277-80.195-249.645 1.176l-82.73 82.73c-4.395 4.395-8.77 9.028-13.121 13.899l19.433 17.359 41.543-46.512c69.161-49.027 141.707-41.566 208.657 21.164zm-666.153-205.246c40.207-45.015 77.477-61.941 109.766-61.941 32.43 0 69.394 17.062 108.812 61.738l58.5-51.57c-48.539-55.016-105.421-88.168-167.312-88.168-61.57 0-118.633 32.801-167.93 87.992zm666.153 0.496c2.429 2.59 4.851 5.25 7.269 7.989l8.047 9.121 88.469-78.067c-4.68-5.304-9.391-10.328-14.137-15.07l-13.785-13.789c-79.883-79.879-168.277-80.195-249.645 1.176l-82.73 82.73c-4.395 4.395-8.77 9.028-13.121 13.899l19.433 17.359 41.543-46.512c69.161-49.027 141.707-41.566 208.657 21.164zm-666.129 203.254c40.183-44.988 77.453-61.918 109.742-61.918 32.43 0 69.394 17.063 108.812 61.739l38.075 43.148 58.476-51.598-38.051-43.117c-48.539-55.015-105.421-88.172-167.312-88.172-61.57 0-118.633 32.801-167.926 87.992l-38.312 42.891 58.164 51.949z"
      fill="#32cd32" fill-opacity=".07000002" />
    <path
      d="m777.723 389.484c2.429 2.59 4.851 5.25 7.269 7.989l42.082 47.695 88.473-78.066-34.039-38.575c-4.68-5.304-9.391-10.328-14.137-15.07l-13.785-13.789c-79.883-79.879-168.277-80.195-249.645 1.176l-82.73 82.73c-4.395 4.395-8.77 9.028-13.121 13.899l19.433 17.359 41.543-46.512c69.161-49.027 141.707-41.566 208.657 21.164zm-666.153-205.246c40.207-45.015 77.477-61.941 109.766-61.941 32.43 0 69.394 17.062 108.812 61.738l58.5-51.57c-48.539-55.016-105.421-88.168-167.312-88.168-61.57 0-118.633 32.801-167.93 87.992zm666.153 0.496c2.429 2.59 4.851 5.25 7.269 7.989l8.047 9.121 88.469-78.067c-4.68-5.304-9.391-10.328-14.137-15.07l-13.785-13.789c-79.883-79.879-168.277-80.195-249.645 1.176l-82.73 82.73c-4.395 4.395-8.77 9.028-13.121 13.899l19.433 17.359 41.543-46.512c69.161-49.027 141.707-41.566 208.657 21.164zm-666.129 203.254c40.183-44.988 77.453-61.918 109.742-61.918 32.43 0 69.394 17.063 108.812 61.739l38.075 43.148 58.476-51.598-38.051-43.117c-48.539-55.015-105.421-88.172-167.312-88.172-61.57 0-118.633 32.801-167.926 87.992l-38.312 42.891 58.164 51.949z"
      fill="none" stroke="#000" stroke-width="1.5" /><text transform="translate(410.12695,90.75)" fill="#000000"
      font-family="'DejaVu Sans'" font-size="15px">
      <tspan
        x="0 4.4099998 13.575 17.73 27.225 31.98 40.334999 44.490002 59.099998 63.255001 69.135002 74.175003 78.93 88.470001 93.224998 102.45"
        y="0">Join Limit: 0 em</tspan>
      <tspan
        x="-4.7753849 -0.365385 8.7996149 12.954615 22.449615 27.204615 35.559616 39.714615 54.324615 58.479614 64.359612 69.399612 74.154617 83.694618 93.234612 98.034615 107.25961"
        y="210">Join Limit: 60 em</tspan>
    </text>
  </g>
</svg>