<?xml version="1.0" encoding="UTF-8"?>
<svg width="1e3" height="428" version="1.1" viewBox="0 0 1e3 428" xml:space="preserve"
  xmlns="http://www.w3.org/2000/svg" xmlns:cc="http://creativecommons.org/ns#"
  xmlns:dc="http://purl.org/dc/elements/1.1/" xmlns:rdf="http://www.w3.org/1999/02/22-rdf-syntax-ns#">
    <g transform="matrix(1.3333333,0,0,1.3333333,0,1.07e-5)">
    <path d="m75.172 304.477v-60.289" fill="none" stroke="#00708f" stroke-width=".75" />
    <path d="m69.172 238.188 12 12" stroke="#00708f" stroke-width=".75" />
    <path d="m69.172 250.188 12-12" stroke="#00708f" stroke-width=".75" />
    <path d="m178.086 117.75-71.516 63.102" stroke="#c0c" stroke-width=".75" />
    <path d="m100.57 174.852 12 12" stroke="#c0c" stroke-width=".75" />
    <path d="m100.57 186.852 12-12" stroke="#c0c" stroke-width=".75" />
    <path d="m138.414 72.75-79.621 70.254" stroke="#00708f" stroke-width=".75" />
    <path d="m52.793 137.004 12 12" stroke="#00708f" stroke-width=".75" />
    <path d="m52.793 149.004 12-12" stroke="#00708f" stroke-width=".75" />
    <path d="m15.172 304.477v-82.672" fill="none" stroke="#c0c" stroke-width=".75" />
    <path d="m9.172 215.805 12 12" stroke="#c0c" stroke-width=".75" />
    <path d="m9.172 227.805 12-12" stroke="#c0c" stroke-width=".75" />
    <path d="m547.672 305.977v-60.289" fill="none" stroke="#00708f" stroke-width=".75" />
    <path d="m541.672 239.688 12 12" stroke="#00708f" stroke-width=".75" />
    <path d="m541.672 251.688 12-12" stroke="#00708f" stroke-width=".75" />
    <path d="m650.586 119.25-71.516 63.102" stroke="#c0c" stroke-width=".75" />
    <path d="m573.07 176.352 12 12" stroke="#c0c" stroke-width=".75" />
    <path d="m573.07 188.352 12-12" stroke="#c0c" stroke-width=".75" />
    <path d="m610.914 74.25-79.621 70.254" stroke="#00708f" stroke-width=".75" />
    <path d="m525.293 138.504 12 12" stroke="#00708f" stroke-width=".75" />
    <path d="m525.293 150.504 12-12" stroke="#00708f" stroke-width=".75" />
    <path d="m487.672 305.977v-82.672" fill="none" stroke="#c0c" stroke-width=".75" />
    <path d="m481.672 217.305 12 12" stroke="#c0c" stroke-width=".75" />
    <path d="m481.672 229.305 12-12" stroke="#c0c" stroke-width=".75" />
    <path d="m312.172 305.977v-60.289" fill="none" stroke="#00708f" stroke-width=".75" />
    <path d="m306.172 239.688 12 12" stroke="#00708f" stroke-width=".75" />
    <path d="m306.172 251.688 12-12" stroke="#00708f" stroke-width=".75" />
    <path d="m415.086 119.25-71.516 63.102" stroke="#c0c" stroke-width=".75" />
    <path d="m337.57 176.352 12 12" stroke="#c0c" stroke-width=".75" />
    <path d="m337.57 188.352 12-12" stroke="#c0c" stroke-width=".75" />
    <path d="m375.414 74.25-79.621 70.254" stroke="#00708f" stroke-width=".75" />
    <path d="m289.793 138.504 12 12" stroke="#00708f" stroke-width=".75" />
    <path d="m289.793 150.504 12-12" stroke="#00708f" stroke-width=".75" />
    <path d="m252.172 305.977v-82.672" fill="none" stroke="#c0c" stroke-width=".75" />
    <path d="m246.172 217.305 12 12" stroke="#c0c" stroke-width=".75" />
    <path d="m246.172 229.305 12-12" stroke="#c0c" stroke-width=".75" />
    <path
      d="m80.422 304.477c0 2.898-2.352 5.25-5.25 5.25-2.902 0-5.25-2.352-5.25-5.25 0-2.899 2.348-5.25 5.25-5.25 2.898 0 5.25 2.351 5.25 5.25z"
      fill="#707070" />
    <g transform="rotate(-90)">
      <path d="m-304.477 67.672h7.5" fill="none" stroke="#707070" stroke-width=".75" />
    </g>
    <g transform="rotate(-90)">
      <path d="m-296.977 67.672-2.25 2.25" fill="none" stroke="#707070" stroke-width=".75" />
    </g>
    <g transform="rotate(-90)">
      <path d="m-296.977 67.672-2.25-2.25" fill="none" stroke="#707070" stroke-width=".75" />
    </g>
    <path d="m182.551 122.812-9.528-0.597 0.594-9.527z" fill="#f00" />
    <path d="m173.605 113.23h9v9h-9z" fill="#bf0080" />
    <path d="m133.914 68.25h9v9h-9z" fill="#bf0080" />
    <path
      d="m20.422 304.477c0 2.898-2.352 5.25-5.25 5.25-2.902 0-5.25-2.352-5.25-5.25 0-2.899 2.348-5.25 5.25-5.25 2.898 0 5.25 2.351 5.25 5.25z"
      fill="#bf0080" />
    <path
      d="m552.922 305.977c0 2.898-2.352 5.25-5.25 5.25-2.902 0-5.25-2.352-5.25-5.25 0-2.899 2.348-5.25 5.25-5.25 2.898 0 5.25 2.351 5.25 5.25z"
      fill="#707070" />
    <g transform="rotate(-90)">
      <path d="m-305.977 540.172h7.5" fill="none" stroke="#707070" stroke-width=".75" />
    </g>
    <g transform="rotate(-90)">
      <path d="m-298.477 540.172-2.25 2.25" fill="none" stroke="#707070" stroke-width=".75" />
    </g>
    <g transform="rotate(-90)">
      <path d="m-298.477 540.172-2.25-2.25" fill="none" stroke="#707070" stroke-width=".75" />
    </g>
    <path d="m655.051 124.312-9.528-0.597 0.594-9.527z" fill="#f00" />
    <path d="m713.566 55.207h9v9h-9z" fill="#bf0080" />
    <path d="m673.879 10.223h9v9h-9z" fill="#bf0080" />
    <path d="m615.383 79.312-9.528-0.597 0.594-9.527z" fill="#f00" />
    <path
      d="m492.922 305.977c0 2.898-2.352 5.25-5.25 5.25-2.902 0-5.25-2.352-5.25-5.25 0-2.899 2.348-5.25 5.25-5.25 2.898 0 5.25 2.351 5.25 5.25z"
      fill="#bf0080" />
    <path
      d="m317.422 305.977c0 2.898-2.352 5.25-5.25 5.25-2.902 0-5.25-2.352-5.25-5.25 0-2.899 2.348-5.25 5.25-5.25 2.898 0 5.25 2.351 5.25 5.25z"
      fill="#707070" />
    <g transform="rotate(-90)">
      <path d="m-305.977 304.672h7.5" fill="none" stroke="#707070" stroke-width=".75" />
    </g>
    <g transform="rotate(-90)">
      <path d="m-298.477 304.672-2.25 2.25" fill="none" stroke="#707070" stroke-width=".75" />
    </g>
    <g transform="rotate(-90)">
      <path d="m-298.477 304.672-2.25-2.25" fill="none" stroke="#707070" stroke-width=".75" />
    </g>
    <path d="m419.551 124.312-9.528-0.597 0.594-9.527z" fill="#f00" />
    <path d="m433.086 94.895h9v9h-9z" fill="#bf0080" />
    <path d="m393.395 49.914h9v9h-9z" fill="#bf0080" />
    <path d="m379.883 79.312-9.528-0.597 0.594-9.527z" fill="#f00" />
    <path
      d="m257.422 305.977c0 2.898-2.352 5.25-5.25 5.25-2.902 0-5.25-2.352-5.25-5.25 0-2.899 2.348-5.25 5.25-5.25 2.898 0 5.25 2.351 5.25 5.25z"
      fill="#bf0080" />
    <path
      d="m45.184 302.25c0.769-70.73 38.285-141.016 113.066-207m359.422 210c0.254-71.238 37.769-142.051 113.078-208.5m-348.578 208.5c0.254-71.238 37.769-142.051 113.078-208.5"
      fill="none" stroke="#008000" stroke-width="1.5" />
    <path
      d="m75.172 304.477c0-60.289 31.398-123.625 102.914-186.727l0.019-0.02-39.691-44.98c-79.621 70.254-123.242 149.055-123.242 231.727m532.5 1.5c0-60.289 31.398-123.625 102.914-186.727l67.48-59.543-39.687-44.984-67.465 59.527c-79.621 70.254-123.242 149.055-123.242 231.727m-175.5 0c0-60.289 31.398-123.625 102.914-186.727l22.5-19.855-39.691-44.981-22.481 19.836c-79.621 70.254-123.242 149.055-123.242 231.727"
      fill="#32cd32" fill-opacity=".07000002" />
    <path
      d="m75.172 304.477c0-60.289 31.398-123.625 102.914-186.727l0.019-0.02-39.691-44.98c-79.621 70.254-123.242 149.055-123.242 231.727m532.5 1.5c0-60.289 31.398-123.625 102.914-186.727l67.48-59.543-39.687-44.984-67.465 59.527c-79.621 70.254-123.242 149.055-123.242 231.727m-175.5 0c0-60.289 31.398-123.625 102.914-186.727l22.5-19.855-39.691-44.981-22.481 19.836c-79.621 70.254-123.242 149.055-123.242 231.727"
      fill="none" stroke="#000" stroke-width="1.5" /><text transform="translate(143.5459,185.25)" fill="#000000"
      font-family="'DejaVu Sans'" font-size="15px">
      <tspan
        x="0 9.4650002 18.33 24.209999 33.435001 42.93 52.439999 57.240002 67.709999 76.889999 86.400002 91.440002 96.239998 231.96001 241.425 250.28999 256.17001 265.39499 274.935 284.44501 289.20001 299.67001 308.85001 318.35999 323.44501 328.20001 337.73999 342.495 468.33691 477.80191 486.6669 492.54691 501.77191 511.26691 520.77692 525.5769 536.04694 545.22693 554.73694 559.77692 564.5769 574.11694 578.87189"
        y="0">Extend Cap: 0Extend Cap: 0.5Extend Cap: 1.5</tspan>
    </text>
  </g>
</svg>