<?xml version="1.0" encoding="UTF-8"?>
<svg width="1035" height="513" version="1.1" viewBox="0 0 1035 513" xml:space="preserve"
  xmlns="http://www.w3.org/2000/svg" xmlns:cc="http://creativecommons.org/ns#"
  xmlns:dc="http://purl.org/dc/elements/1.1/" xmlns:rdf="http://www.w3.org/1999/02/22-rdf-syntax-ns#">
    <g transform="matrix(1.3333333,0,0,1.3333333,0,1.2825e-5)">
    <path d="m14.898 212.25v-51.309" fill="none" stroke="#00708f" stroke-width=".75" />
    <path d="m8.898 154.941 12 12" stroke="#00708f" stroke-width=".75" />
    <path d="m8.898 166.941 12-12" stroke="#00708f" stroke-width=".75" />
    <path d="m60.414 94.039-25.855 25.852" stroke="#c0c" stroke-width=".75" />
    <path d="m28.559 113.891 12 12" stroke="#c0c" stroke-width=".75" />
    <path d="m28.559 125.891 12-12" stroke="#c0c" stroke-width=".75" />
    <path d="m111.324 43.125 17.914-17.914" stroke="#00708f" stroke-width=".75" />
    <path d="m123.238 19.211 12 12" stroke="#00708f" stroke-width=".75" />
    <path d="m123.238 31.211 12-12" stroke="#00708f" stroke-width=".75" />
    <path d="m172.754 14.691h-21.988" fill="none" stroke="#c0c" stroke-width=".75" />
    <path d="m144.766 8.691 12 12" stroke="#c0c" stroke-width=".75" />
    <path d="m144.766 20.691 12-12" stroke="#c0c" stroke-width=".75" />
    <path d="m181.754 14.691h22.371" fill="none" stroke="#00708f" stroke-width=".75" />
    <path d="m198.125 8.691 12 12" stroke="#00708f" stroke-width=".75" />
    <path d="m198.125 20.691 12-12" stroke="#00708f" stroke-width=".75" />
    <path d="m232.766 36.73-13.254-13.25" stroke="#c0c" stroke-width=".75" />
    <path d="m213.512 17.48 12 12" stroke="#c0c" stroke-width=".75" />
    <path d="m213.512 29.48 12-12" stroke="#c0c" stroke-width=".75" />
    <path d="m242.309 46.277 21.129 21.129" stroke="#00708f" stroke-width=".75" />
    <path d="m257.438 61.406 12 12" stroke="#00708f" stroke-width=".75" />
    <path d="m257.438 73.406 12-12" stroke="#00708f" stroke-width=".75" />
    <path d="m276.102 140.25v-38.547" fill="none" stroke="#c0c" stroke-width=".75" />
    <path d="m270.102 95.703 12 12" stroke="#c0c" stroke-width=".75" />
    <path d="m270.102 107.703 12-12" stroke="#c0c" stroke-width=".75" />
    <path d="m276.102 149.25v51.312" fill="none" stroke="#00708f" stroke-width=".75" />
    <path d="m270.102 194.562 12 12" stroke="#00708f" stroke-width=".75" />
    <path d="m270.102 206.562 12-12" stroke="#00708f" stroke-width=".75" />
    <path d="m230.586 267.465 25.855-25.856" stroke="#c0c" stroke-width=".75" />
    <path d="m250.441 235.609 12 12" stroke="#c0c" stroke-width=".75" />
    <path d="m250.441 247.609 12-12" stroke="#c0c" stroke-width=".75" />
    <path d="m179.676 318.375-17.914 17.914" stroke="#00708f" stroke-width=".75" />
    <path d="m155.762 330.289 12 12" stroke="#00708f" stroke-width=".75" />
    <path d="m155.762 342.289 12-12" stroke="#00708f" stroke-width=".75" />
    <path d="m118.246 346.809h21.988" fill="none" stroke="#c0c" stroke-width=".75" />
    <path d="m134.234 340.809 12 12" stroke="#c0c" stroke-width=".75" />
    <path d="m134.234 352.809 12-12" stroke="#c0c" stroke-width=".75" />
    <path d="m109.246 346.809h-22.371" fill="none" stroke="#00708f" stroke-width=".75" />
    <path d="m80.875 340.809 12 12" stroke="#00708f" stroke-width=".75" />
    <path d="m80.875 352.809 12-12" stroke="#00708f" stroke-width=".75" />
    <path d="m58.238 324.77 13.25 13.25" stroke="#c0c" stroke-width=".75" />
    <path d="m65.488 332.02 12 12" stroke="#c0c" stroke-width=".75" />
    <path d="m65.488 344.02 12-12" stroke="#c0c" stroke-width=".75" />
    <path d="m48.691 315.223-21.129-21.129" stroke="#00708f" stroke-width=".75" />
    <path d="m21.562 288.094 12 12" stroke="#00708f" stroke-width=".75" />
    <path d="m21.562 300.094 12-12" stroke="#00708f" stroke-width=".75" />
    <path d="m14.898 221.25v38.547" fill="none" stroke="#c0c" stroke-width=".75" />
    <path d="m8.898 253.797 12 12" stroke="#c0c" stroke-width=".75" />
    <path d="m8.898 265.797 12-12" stroke="#c0c" stroke-width=".75" />
    <path d="m154.949 277.215 9.949-0.621" stroke="#00708f" stroke-width=".75" />
    <path d="m158.898 270.594 12 12" stroke="#00708f" stroke-width=".75" />
    <path d="m158.898 282.594 12-12" stroke="#00708f" stroke-width=".75" />
    <path d="m184.082 269.262-9.375 4.582" stroke="#c0c" stroke-width=".75" />
    <path d="m168.707 267.844 12 12" stroke="#c0c" stroke-width=".75" />
    <path d="m168.707 279.844 12-12" stroke="#c0c" stroke-width=".75" />
    <path d="m184.082 269.262 12.664-22.414" stroke="#00708f" stroke-width=".75" />
    <path d="m190.746 240.848 12 12" stroke="#00708f" stroke-width=".75" />
    <path d="m190.746 252.848 12-12" stroke="#00708f" stroke-width=".75" />
    <path d="m206.59 186.117-0.758 33.082" stroke="#c0c" stroke-width=".75" />
    <path d="m199.832 213.199 12 12" stroke="#c0c" stroke-width=".75" />
    <path d="m199.832 225.199 12-12" stroke="#c0c" stroke-width=".75" />
    <path d="m206.59 186.117-1.137-49.547" stroke="#00708f" stroke-width=".75" />
    <path d="m199.453 130.57 12 12" stroke="#00708f" stroke-width=".75" />
    <path d="m199.453 142.57 12-12" stroke="#00708f" stroke-width=".75" />
    <path d="m136.051 84.285 49.316 2.918" stroke="#c0c" stroke-width=".75" />
    <path d="m179.367 81.203 12 12" stroke="#c0c" stroke-width=".75" />
    <path d="m179.367 93.203 12-12" stroke="#c0c" stroke-width=".75" />
    <path d="m136.051 84.285-9.949 0.621" stroke="#00708f" stroke-width=".75" />
    <path d="m120.102 78.906 12 12" stroke="#00708f" stroke-width=".75" />
    <path d="m120.102 90.906 12-12" stroke="#00708f" stroke-width=".75" />
    <path d="m106.918 92.238 9.375-4.582" stroke="#c0c" stroke-width=".75" />
    <path d="m110.293 81.656 12 12" stroke="#c0c" stroke-width=".75" />
    <path d="m110.293 93.656 12-12" stroke="#c0c" stroke-width=".75" />
    <path d="m106.918 92.238-12.664 22.414" stroke="#00708f" stroke-width=".75" />
    <path d="m88.254 108.652 12 12" stroke="#00708f" stroke-width=".75" />
    <path d="m88.254 120.652 12-12" stroke="#00708f" stroke-width=".75" />
    <path d="m84.41 175.383 0.758-33.082" stroke="#c0c" stroke-width=".75" />
    <path d="m79.168 136.301 12 12" stroke="#c0c" stroke-width=".75" />
    <path d="m79.168 148.301 12-12" stroke="#c0c" stroke-width=".75" />
    <path d="m84.41 175.383 1.137 49.547" stroke="#00708f" stroke-width=".75" />
    <path d="m79.547 218.93 12 12" stroke="#00708f" stroke-width=".75" />
    <path d="m79.547 230.93 12-12" stroke="#00708f" stroke-width=".75" />
    <path d="m154.949 277.215-49.316-2.918" stroke="#c0c" stroke-width=".75" />
    <path d="m99.633 268.297 12 12" stroke="#c0c" stroke-width=".75" />
    <path d="m99.633 280.297 12-12" stroke="#c0c" stroke-width=".75" />
    <path d="m667.055 23.824-20.485 1.27" stroke="#00708f" stroke-width=".75" />
    <path d="m640.57 19.094 12 12" stroke="#00708f" stroke-width=".75" />
    <path d="m640.57 31.094 12-12" stroke="#00708f" stroke-width=".75" />
    <path d="m609.926 52.125 16.746-16.746" stroke="#c0c" stroke-width=".75" />
    <path d="m620.672 29.379 12 12" stroke="#c0c" stroke-width=".75" />
    <path d="m620.672 41.379 12-12" stroke="#c0c" stroke-width=".75" />
    <path d="m559.012 103.039-25.067 25.066" stroke="#00708f" stroke-width=".75" />
    <path d="m527.945 122.105 12 12" stroke="#00708f" stroke-width=".75" />
    <path d="m527.945 134.105 12-12" stroke="#00708f" stroke-width=".75" />
    <path d="m513.555 216.602 1.144-49.141" stroke="#c0c" stroke-width=".75" />
    <path d="m508.699 161.461 12 12" stroke="#c0c" stroke-width=".75" />
    <path d="m508.699 173.461 12-12" stroke="#c0c" stroke-width=".75" />
    <path d="m513.555 216.602 0.914 36.769" stroke="#00708f" stroke-width=".75" />
    <path d="m508.469 247.371 12 12" stroke="#00708f" stroke-width=".75" />
    <path d="m508.469 259.371 12-12" stroke="#00708f" stroke-width=".75" />
    <path d="m547.289 306.223-20.328-20.328" stroke="#c0c" stroke-width=".75" />
    <path d="m520.961 279.895 12 12" stroke="#c0c" stroke-width=".75" />
    <path d="m520.961 291.895 12-12" stroke="#c0c" stroke-width=".75" />
    <path d="m556.836 315.77 12.301 12.3" stroke="#00708f" stroke-width=".75" />
    <path d="m563.137 322.07 12 12" stroke="#00708f" stroke-width=".75" />
    <path d="m563.137 334.07 12-12" stroke="#00708f" stroke-width=".75" />
    <path d="m603.145 337.676-19.864-1.149" stroke="#c0c" stroke-width=".75" />
    <path d="m577.281 330.527 12 12" stroke="#c0c" stroke-width=".75" />
    <path d="m577.281 342.527 12-12" stroke="#c0c" stroke-width=".75" />
    <path d="m603.145 337.676 20.484-1.27" stroke="#00708f" stroke-width=".75" />
    <path d="m617.629 330.406 12 12" stroke="#00708f" stroke-width=".75" />
    <path d="m617.629 342.406 12-12" stroke="#00708f" stroke-width=".75" />
    <path d="m660.277 309.375-16.746 16.746" stroke="#c0c" stroke-width=".75" />
    <path d="m637.531 320.121 12 12" stroke="#c0c" stroke-width=".75" />
    <path d="m637.531 332.121 12-12" stroke="#c0c" stroke-width=".75" />
    <path d="m711.188 258.465 25.07-25.07" stroke="#00708f" stroke-width=".75" />
    <path d="m730.258 227.395 12 12" stroke="#00708f" stroke-width=".75" />
    <path d="m730.258 239.395 12-12" stroke="#00708f" stroke-width=".75" />
    <path d="m756.648 144.898-1.148 49.141" stroke="#c0c" stroke-width=".75" />
    <path d="m749.5 188.039 12 12" stroke="#c0c" stroke-width=".75" />
    <path d="m749.5 200.039 12-12" stroke="#c0c" stroke-width=".75" />
    <path d="m756.648 144.898-0.918-36.769" stroke="#00708f" stroke-width=".75" />
    <path d="m749.73 102.129 12 12" stroke="#00708f" stroke-width=".75" />
    <path d="m749.73 114.129 12-12" stroke="#00708f" stroke-width=".75" />
    <path d="m722.91 55.277 20.328 20.328" stroke="#c0c" stroke-width=".75" />
    <path d="m737.238 69.605 12 12" stroke="#c0c" stroke-width=".75" />
    <path d="m737.238 81.605 12-12" stroke="#c0c" stroke-width=".75" />
    <path d="m713.363 45.73-12.301-12.3" stroke="#00708f" stroke-width=".75" />
    <path d="m695.062 27.43 12 12" stroke="#00708f" stroke-width=".75" />
    <path d="m695.062 39.43 12-12" stroke="#00708f" stroke-width=".75" />
    <path d="m667.055 23.824 19.863 1.149" stroke="#c0c" stroke-width=".75" />
    <path d="m680.918 18.973 12 12" stroke="#c0c" stroke-width=".75" />
    <path d="m680.918 30.973 12-12" stroke="#c0c" stroke-width=".75" />
    <path d="m705.242 190.617v35.082" fill="none" stroke="#00708f" stroke-width=".75" />
    <path d="m699.242 219.699 12 12" stroke="#00708f" stroke-width=".75" />
    <path d="m699.242 231.699 12-12" stroke="#00708f" stroke-width=".75" />
    <path d="m682.684 278.266 13.23-23.43" stroke="#c0c" stroke-width=".75" />
    <path d="m689.914 248.836 12 12" stroke="#c0c" stroke-width=".75" />
    <path d="m689.914 260.836 12-12" stroke="#c0c" stroke-width=".75" />
    <path d="m682.684 278.266-10.739 5.242" stroke="#00708f" stroke-width=".75" />
    <path d="m665.945 277.508 12 12" stroke="#00708f" stroke-width=".75" />
    <path d="m665.945 289.508 12-12" stroke="#00708f" stroke-width=".75" />
    <path d="m649.211 286.352h11.43" fill="none" stroke="#c0c" stroke-width=".75" />
    <path d="m654.641 280.352 12 12" stroke="#c0c" stroke-width=".75" />
    <path d="m654.641 292.352 12-12" stroke="#c0c" stroke-width=".75" />
    <path d="m640.211 286.352h-54.266" fill="none" stroke="#00708f" stroke-width=".75" />
    <path d="m579.945 280.352 12 12" stroke="#00708f" stroke-width=".75" />
    <path d="m579.945 292.352 12-12" stroke="#00708f" stroke-width=".75" />
    <path d="m564.957 179.883v52.547" fill="none" stroke="#c0c" stroke-width=".75" />
    <path d="m558.957 226.43 12 12" stroke="#c0c" stroke-width=".75" />
    <path d="m558.957 238.43 12-12" stroke="#c0c" stroke-width=".75" />
    <path d="m564.957 170.883v-35.082" fill="none" stroke="#00708f" stroke-width=".75" />
    <path d="m558.957 129.801 12 12" stroke="#00708f" stroke-width=".75" />
    <path d="m558.957 141.801 12-12" stroke="#00708f" stroke-width=".75" />
    <path d="m587.516 83.234-13.231 23.43" stroke="#c0c" stroke-width=".75" />
    <path d="m568.285 100.664 12 12" stroke="#c0c" stroke-width=".75" />
    <path d="m568.285 112.664 12-12" stroke="#c0c" stroke-width=".75" />
    <path d="m587.516 83.234 10.738-5.242" stroke="#00708f" stroke-width=".75" />
    <path d="m592.254 71.992 12 12" stroke="#00708f" stroke-width=".75" />
    <path d="m592.254 83.992 12-12" stroke="#00708f" stroke-width=".75" />
    <path d="m620.988 75.148h-11.429" fill="none" stroke="#c0c" stroke-width=".75" />
    <path d="m603.559 69.148 12 12" stroke="#c0c" stroke-width=".75" />
    <path d="m603.559 81.148 12-12" stroke="#c0c" stroke-width=".75" />
    <path d="m629.988 75.148h54.266" fill="none" stroke="#00708f" stroke-width=".75" />
    <path d="m678.254 69.148 12 12" stroke="#00708f" stroke-width=".75" />
    <path d="m678.254 81.148 12-12" stroke="#00708f" stroke-width=".75" />
    <path d="m705.242 181.617v-52.547" fill="none" stroke="#c0c" stroke-width=".75" />
    <path d="m699.242 123.07 12 12" stroke="#c0c" stroke-width=".75" />
    <path d="m699.242 135.07 12-12" stroke="#c0c" stroke-width=".75" />
    <path d="m8.148 212.25 6.75-6.75 6.75 6.75z" fill="#707070" />
    <g transform="rotate(-90)">
      <path d="m-212.25 7.398h7.5" fill="none" stroke="#707070" stroke-width=".75" />
    </g>
    <g transform="rotate(-90)">
      <path d="m-204.75 7.398-2.25 2.25" fill="none" stroke="#707070" stroke-width=".75" />
    </g>
    <g transform="rotate(-90)">
      <path d="m-204.75 7.398-2.25-2.25" fill="none" stroke="#707070" stroke-width=".75" />
    </g>
    <path d="m65.188 98.809h-9.547v-9.543z" fill="#f00" />
    <path d="m106.551 38.352h9.547v9.546z" fill="#f00" />
    <path d="m172.754 21.441-6.75-6.75 6.75-6.75z" fill="#f00" />
    <path d="m181.754 7.941 6.75 6.75-6.75 6.75z" fill="#f00" />
    <path d="m227.992 41.504v-9.547h9.543z" fill="#f00" />
    <path d="m247.082 41.504v9.547h-9.547z" fill="#f00" />
    <path d="m269.352 140.25 6.75-6.75 6.75 6.75z" fill="#f00" />
    <path d="m282.852 149.25-6.75 6.75-6.75-6.75z" fill="#f00" />
    <path d="m225.812 262.691h9.547v9.543z" fill="#f00" />
    <path d="m184.449 323.148h-9.547v-9.546z" fill="#f00" />
    <path d="m118.246 340.059 6.75 6.75-6.75 6.75z" fill="#f00" />
    <path d="m109.246 353.559-6.75-6.75 6.75-6.75z" fill="#f00" />
    <path d="m63.008 319.996v9.547h-9.543z" fill="#f00" />
    <path d="m43.918 319.996v-9.547h9.547z" fill="#f00" />
    <path d="m21.648 221.25-6.75 6.75-6.75-6.75z" fill="#f00" />
    <path
      d="m160.199 277.215c0 2.902-2.351 5.25-5.25 5.25-2.898 0-5.25-2.348-5.25-5.25 0-2.899 2.352-5.25 5.25-5.25 2.899 0 5.25 2.351 5.25 5.25z"
      fill="#707070" />
    <g transform="matrix(1 -.0626565 .0626565 1 0 0)">
      <path d="m137.042 278.317h7.484" fill="none" stroke="#707070" stroke-width=".748532" />
    </g>
    <g transform="matrix(1 -.0626565 .0626565 1 0 0)">
      <path d="m144.526 278.317-2.246 2.246" fill="none" stroke="#707070" stroke-width=".748532" />
    </g>
    <g transform="matrix(1 -.0626565 .0626565 1 0 0)">
      <path d="m144.526 278.317-2.246-2.246" fill="none" stroke="#707070" stroke-width=".748532" />
    </g>
    <path d="m179.582 264.762h9v9h-9z" fill="#f00" />
    <path
      d="m211.84 186.117c0 2.903-2.348 5.25-5.25 5.25-2.899 0-5.25-2.347-5.25-5.25 0-2.898 2.351-5.25 5.25-5.25 2.902 0 5.25 2.352 5.25 5.25z"
      fill="#bf0080" />
    <path
      d="m141.301 84.285c0 2.899-2.352 5.25-5.25 5.25-2.899 0-5.25-2.351-5.25-5.25 0-2.902 2.351-5.25 5.25-5.25 2.898 0 5.25 2.348 5.25 5.25z"
      fill="#bf0080" />
    <path d="m102.418 87.738h9v9h-9z" fill="#f00" />
    <path
      d="m89.66 175.383c0 2.898-2.351 5.25-5.25 5.25-2.902 0-5.25-2.352-5.25-5.25 0-2.903 2.348-5.25 5.25-5.25 2.899 0 5.25 2.347 5.25 5.25z"
      fill="#bf0080" />
    <path
      d="m160.199 277.215c0 2.902-2.351 5.25-5.25 5.25-2.898 0-5.25-2.348-5.25-5.25 0-2.899 2.352-5.25 5.25-5.25 2.899 0 5.25 2.351 5.25 5.25z"
      fill="#707070" />
    <g transform="matrix(1 -.0626565 .0626565 1 0 0)">
      <path d="m137.042 278.317h7.484" fill="none" stroke="#707070" stroke-width=".748532" />
    </g>
    <g transform="matrix(1 -.0626565 .0626565 1 0 0)">
      <path d="m144.526 278.317-2.246 2.246" fill="none" stroke="#707070" stroke-width=".748532" />
    </g>
    <g transform="matrix(1 -.0626565 .0626565 1 0 0)">
      <path d="m144.526 278.317-2.246-2.246" fill="none" stroke="#707070" stroke-width=".748532" />
    </g>
    <path
      d="m672.305 23.824c0 2.899-2.352 5.25-5.25 5.25-2.899 0-5.25-2.351-5.25-5.25 0-2.898 2.351-5.25 5.25-5.25 2.898 0 5.25 2.352 5.25 5.25z"
      fill="#707070" />
    <g transform="matrix(-1 .0620709 -.0620709 -1 0 0)">
      <path d="m-663.022-72.463h7.485" fill="none" stroke="#707070" stroke-width=".748559" />
    </g>
    <g transform="matrix(-1 .0620709 -.0620709 -1 0 0)">
      <path d="m-655.537-72.463-2.245 2.243" fill="none" stroke="#707070" stroke-width=".748559" />
    </g>
    <g transform="matrix(-1 .0620709 -.0620709 -1 0 0)">
      <path d="m-655.537-72.463-2.244-2.245" fill="none" stroke="#707070" stroke-width=".748559" />
    </g>
    <path d="m605.152 47.352h9.547v9.546z" fill="#f00" />
    <path d="m563.785 107.809h-9.547v-9.543z" fill="#f00" />
    <path
      d="m518.805 216.602c0 2.898-2.352 5.25-5.25 5.25-2.903 0-5.25-2.352-5.25-5.25 0-2.903 2.347-5.25 5.25-5.25 2.898 0 5.25 2.347 5.25 5.25z"
      fill="#bf0080" />
    <path d="m542.52 310.996-4e-3 -9.547h9.546z" fill="#f00" />
    <path d="m561.609 310.996v9.547h-9.547z" fill="#f00" />
    <path
      d="m608.395 337.676c0 2.898-2.352 5.25-5.25 5.25-2.899 0-5.25-2.352-5.25-5.25 0-2.899 2.351-5.25 5.25-5.25 2.898 0 5.25 2.351 5.25 5.25z"
      fill="#bf0080" />
    <path d="m665.047 314.148h-9.543v-9.546z" fill="#f00" />
    <path d="m706.414 253.691h9.547v9.543z" fill="#f00" />
    <path
      d="m761.898 144.898c0 2.903-2.351 5.25-5.25 5.25-2.902 0-5.25-2.347-5.25-5.25 0-2.898 2.348-5.25 5.25-5.25 2.899 0 5.25 2.352 5.25 5.25z"
      fill="#bf0080" />
    <path d="m727.684 50.504v9.547h-9.547z" fill="#f00" />
    <path d="m708.59 50.504v-9.547h9.547z" fill="#f00" />
    <path
      d="m672.305 23.824c0 2.899-2.352 5.25-5.25 5.25-2.899 0-5.25-2.351-5.25-5.25 0-2.898 2.351-5.25 5.25-5.25 2.898 0 5.25 2.352 5.25 5.25z"
      fill="#707070" />
    <g transform="matrix(-1 .0620709 -.0620709 -1 0 0)">
      <path d="m-663.022-72.463h7.485" fill="none" stroke="#707070" stroke-width=".748559" />
    </g>
    <g transform="matrix(-1 .0620709 -.0620709 -1 0 0)">
      <path d="m-655.537-72.463-2.245 2.243" fill="none" stroke="#707070" stroke-width=".748559" />
    </g>
    <g transform="matrix(-1 .0620709 -.0620709 -1 0 0)">
      <path d="m-655.537-72.463-2.244-2.245" fill="none" stroke="#707070" stroke-width=".748559" />
    </g>
    <path d="m711.992 190.617-6.75 6.75-6.75-6.75z" fill="#707070" />
    <g transform="rotate(90)">
      <path d="m190.617-712.742h7.5" fill="none" stroke="#707070" stroke-width=".75" />
    </g>
    <g transform="rotate(90)">
      <path d="m198.117-712.742-2.25 2.25" fill="none" stroke="#707070" stroke-width=".75" />
    </g>
    <g transform="rotate(90)">
      <path d="m198.117-712.742-2.25-2.25" fill="none" stroke="#707070" stroke-width=".75" />
    </g>
    <path d="m678.184 273.766h9v9h-9z" fill="#f00" />
    <path d="m649.211 279.602 6.75 6.75-6.75 6.75z" fill="#f00" />
    <path d="m640.211 293.102-6.75-6.75 6.75-6.75z" fill="#f00" />
    <path d="m571.707 179.883-6.75 6.75-6.75-6.75z" fill="#f00" />
    <path d="m558.207 170.883 6.75-6.75 6.75 6.75z" fill="#f00" />
    <path d="m583.016 78.734h9v9h-9z" fill="#f00" />
    <path d="m620.988 81.898-6.75-6.75 6.75-6.75z" fill="#f00" />
    <path d="m629.988 68.398 6.75 6.75-6.75 6.75z" fill="#f00" />
    <path d="m698.492 181.617 6.75-6.75 6.75 6.75z" fill="#f00" />
    <path
      d="m19.398 216.75c0-51.309 19.661-92.359 45.516-118.211l50.91-50.914c17.914-17.914 39.442-28.434 61.43-28.434 22.371 0 37.758 8.789 51.012 22.039l9.543 9.547c21.129 21.129 33.793 55.426 33.793 93.973 0 51.312-19.661 92.359-45.516 118.215l-50.91 50.91c-17.914 17.914-39.442 28.434-61.43 28.434-22.371 0-37.758-8.789-51.008-22.039l-9.547-9.547c-21.129-21.129-33.793-55.426-33.793-93.973zm191.747-30.633c0-52.547-20.993-106.469-75.254-106.469-11.43 0-22.739 2.844-33.473 8.09-13.234 23.426-22.563 52.563-22.563 87.645 0 52.547 20.993 106.469 75.254 106.469 11.43 0 22.739-2.844 33.473-8.09 13.234-23.426 22.563-52.563 22.563-87.645zm297.855 30.633c0-51.309 19.66-92.359 45.512-118.211l50.914-50.914c17.914-17.914 39.441-28.434 61.429-28.434 22.372 0 37.758 8.789 51.008 22.039l9.547 9.547c21.129 21.129 33.789 55.426 33.789 93.973 0 51.312-19.656 92.359-45.511 118.215l-50.911 50.91c-17.918 17.914-39.445 28.434-61.433 28.434-22.367 0-37.758-8.789-51.008-22.039l-9.547-9.547c-21.125-21.129-33.789-55.426-33.789-93.973zm191.742-30.633c0-52.547-20.988-106.469-75.254-106.469-11.429 0-22.734 2.844-33.472 8.086-13.231 23.43-22.559 52.567-22.559 87.649 0 52.547 20.988 106.469 75.254 106.469 11.43 0 22.734-2.844 33.473-8.086 13.23-23.43 22.558-52.567 22.558-87.649z"
      fill="none" stroke="#008000" stroke-width="1.5" />
    <path
      d="m14.898 212.25c0-51.309 19.661-92.359 45.516-118.211l50.91-50.914c17.914-17.914 39.442-28.434 61.43-28.434h9c22.371 0 37.758 8.789 51.012 22.039l9.543 9.547c21.129 21.129 33.793 55.426 33.793 93.973v9c0 51.312-19.661 92.359-45.516 118.215l-50.91 50.91c-17.914 17.914-39.442 28.434-61.43 28.434h-9c-22.371 0-37.758-8.789-51.008-22.039l-9.547-9.547c-21.129-21.129-33.793-55.426-33.793-93.973zm140.051 64.965c9.949-0.621 19.758-3.371 29.133-7.953 12.664-22.414 21.75-50.063 22.508-83.145-1.137-49.547-21.223-98.914-70.539-101.832-9.949 0.621-19.758 3.371-29.133 7.953-12.664 22.414-21.75 50.063-22.508 83.145 1.137 49.547 21.223 98.914 70.539 101.832zm512.106-253.391c-20.485 1.27-40.383 11.555-57.129 28.301l-50.914 50.914c-25.067 25.066-44.313 64.422-45.457 113.563 0.914 36.769 13.406 69.293 33.734 89.621l9.547 9.547c12.301 12.3 26.445 20.757 46.309 21.906 20.484-1.27 40.386-11.555 57.132-28.301l50.911-50.91c25.07-25.07 44.312-64.426 45.46-113.567-0.918-36.769-13.41-69.293-33.738-89.621l-9.547-9.547c-12.301-12.3-26.445-20.757-46.308-21.906zm38.187 166.793c0 35.082-9.328 64.219-22.558 87.649-10.739 5.242-22.043 8.086-33.473 8.086h-9c-54.266 0-75.254-53.922-75.254-106.469v-9c0-35.082 9.328-64.219 22.559-87.649 10.738-5.242 22.043-8.086 33.472-8.086h9c54.266 0 75.254 53.922 75.254 106.469z"
      fill="#32cd32" fill-opacity=".07000002" />
    <path
      d="m14.898 212.25c0-51.309 19.661-92.359 45.516-118.211l50.91-50.914c17.914-17.914 39.442-28.434 61.43-28.434h9c22.371 0 37.758 8.789 51.012 22.039l9.543 9.547c21.129 21.129 33.793 55.426 33.793 93.973v9c0 51.312-19.661 92.359-45.516 118.215l-50.91 50.91c-17.914 17.914-39.442 28.434-61.43 28.434h-9c-22.371 0-37.758-8.789-51.008-22.039l-9.547-9.547c-21.129-21.129-33.793-55.426-33.793-93.973zm140.051 64.965c9.949-0.621 19.758-3.371 29.133-7.953 12.664-22.414 21.75-50.063 22.508-83.145-1.137-49.547-21.223-98.914-70.539-101.832-9.949 0.621-19.758 3.371-29.133 7.953-12.664 22.414-21.75 50.063-22.508 83.145 1.137 49.547 21.223 98.914 70.539 101.832zm512.106-253.391c-20.485 1.27-40.383 11.555-57.129 28.301l-50.914 50.914c-25.067 25.066-44.313 64.422-45.457 113.563 0.914 36.769 13.406 69.293 33.734 89.621l9.547 9.547c12.301 12.3 26.445 20.757 46.309 21.906 20.484-1.27 40.386-11.555 57.132-28.301l50.911-50.91c25.07-25.07 44.312-64.426 45.46-113.567-0.918-36.769-13.41-69.293-33.738-89.621l-9.547-9.547c-12.301-12.3-26.445-20.757-46.308-21.906zm38.187 166.793c0 35.082-9.328 64.219-22.558 87.649-10.739 5.242-22.043 8.086-33.473 8.086h-9c-54.266 0-75.254-53.922-75.254-106.469v-9c0-35.082 9.328-64.219 22.559-87.649 10.738-5.242 22.043-8.086 33.472-8.086h9c54.266 0 75.254 53.922 75.254 106.469z"
      fill="none" stroke="#000" stroke-width="1.5" /><text transform="translate(109.78711,375.75)" fill="#000000"
      font-family="'DejaVu Sans'" font-size="15px">
      <tspan
        x="0 9.4650002 18.33 24.209999 33.435001 39.375 48.869999 58.049999 62.205002 66.959999 78.764999 88.260002 92.415001 482.21191 486.62192 496.11691 501.99692 511.22192 517.16193 526.65692 535.83691 539.99194 544.74689 556.55194 566.04694 570.2019"
        y="0">External OnlyInternal Only</tspan>
    </text>
  </g>
</svg>