<?xml version="1.0" encoding="UTF-8"?>
<svg width="1682" height="521" version="1.1" viewBox="0 0 1682 521" xml:space="preserve"
  xmlns="http://www.w3.org/2000/svg" xmlns:cc="http://creativecommons.org/ns#"
  xmlns:dc="http://purl.org/dc/elements/1.1/" xmlns:rdf="http://www.w3.org/1999/02/22-rdf-syntax-ns#">
    <g transform="matrix(1.3333333,0,0,1.3333333,0,1.3025e-5)">
    <path d="m648.602 375.75v-52.121" fill="none" stroke="#00708f" stroke-width=".75" />
    <path d="m642.602 317.629 12 12" stroke="#00708f" stroke-width=".75" />
    <path d="m642.602 329.629 12-12" stroke="#00708f" stroke-width=".75" />
    <path d="m681.109 207.777-21.004 56.368" stroke="#c0c" stroke-width=".75" />
    <path d="m654.105 258.145 12 12" stroke="#c0c" stroke-width=".75" />
    <path d="m654.105 270.145 12-12" stroke="#c0c" stroke-width=".75" />
    <path d="m681.109 207.777 16.797-45.062" stroke="#00708f" stroke-width=".75" />
    <path d="m691.906 156.715 12 12" stroke="#00708f" stroke-width=".75" />
    <path d="m691.906 168.715 12-12" stroke="#00708f" stroke-width=".75" />
    <path d="m751.215 84.438-30.363 34.984" stroke="#c0c" stroke-width=".75" />
    <path d="m714.852 113.422 12 12" stroke="#c0c" stroke-width=".75" />
    <path d="m714.852 125.422 12-12" stroke="#c0c" stroke-width=".75" />
    <path d="m751.215 84.438 33.851-39.004" stroke="#00708f" stroke-width=".75" />
    <path d="m779.066 39.434 12 12" stroke="#00708f" stroke-width=".75" />
    <path d="m779.066 51.434 12-12" stroke="#00708f" stroke-width=".75" />
    <path d="m887.059 14.691h-56.164" fill="none" stroke="#c0c" stroke-width=".75" />
    <path d="m824.895 8.691 12 12" stroke="#c0c" stroke-width=".75" />
    <path d="m824.895 20.691 12-12" stroke="#c0c" stroke-width=".75" />
    <path d="m845.117 112.164-10.117 6.551" stroke="#00708f" stroke-width=".75" />
    <path d="m829 112.715 12 12" stroke="#00708f" stroke-width=".75" />
    <path d="m829 124.715 12-12" stroke="#00708f" stroke-width=".75" />
    <path d="m814.672 139.453 10.16-11.707" stroke="#c0c" stroke-width=".75" />
    <path d="m818.832 121.746 12 12" stroke="#c0c" stroke-width=".75" />
    <path d="m818.832 133.746 12-12" stroke="#c0c" stroke-width=".75" />
    <path d="m814.672 139.453-21.379 24.629" stroke="#00708f" stroke-width=".75" />
    <path d="m787.293 158.082 12 12" stroke="#00708f" stroke-width=".75" />
    <path d="m787.293 170.082 12-12" stroke="#00708f" stroke-width=".75" />
    <path d="m759.852 237.074 14.156-37.992" stroke="#c0c" stroke-width=".75" />
    <path d="m768.008 193.082 12 12" stroke="#c0c" stroke-width=".75" />
    <path d="m768.008 205.082 12-12" stroke="#c0c" stroke-width=".75" />
    <path d="m759.852 237.074-17.684 47.457" stroke="#00708f" stroke-width=".75" />
    <path d="m736.168 278.531 12 12" stroke="#00708f" stroke-width=".75" />
    <path d="m736.168 290.531 12-12" stroke="#00708f" stroke-width=".75" />
    <path d="m732.602 375.75v-39.434" fill="none" stroke="#c0c" stroke-width=".75" />
    <path d="m726.602 330.316 12 12" stroke="#c0c" stroke-width=".75" />
    <path d="m726.602 342.316 12-12" stroke="#c0c" stroke-width=".75" />
    <path d="m15 375.75v-52.121" fill="none" stroke="#00708f" stroke-width=".75" />
    <path d="m9 317.629 12 12" stroke="#00708f" stroke-width=".75" />
    <path d="m9 329.629 12-12" stroke="#00708f" stroke-width=".75" />
    <path d="m47.512 207.777-21.008 56.368" stroke="#c0c" stroke-width=".75" />
    <path d="m20.504 258.145 12 12" stroke="#c0c" stroke-width=".75" />
    <path d="m20.504 270.145 12-12" stroke="#c0c" stroke-width=".75" />
    <path d="m47.512 207.777 16.793-45.062" stroke="#00708f" stroke-width=".75" />
    <path d="m58.305 156.715 12 12" stroke="#00708f" stroke-width=".75" />
    <path d="m58.305 168.715 12-12" stroke="#00708f" stroke-width=".75" />
    <path d="m117.617 84.438-30.367 34.984" stroke="#c0c" stroke-width=".75" />
    <path d="m81.25 113.422 12 12" stroke="#c0c" stroke-width=".75" />
    <path d="m81.25 125.422 12-12" stroke="#c0c" stroke-width=".75" />
    <path d="m117.617 84.438 33.852-39.004" stroke="#00708f" stroke-width=".75" />
    <path d="m145.469 39.434 12 12" stroke="#00708f" stroke-width=".75" />
    <path d="m145.469 51.434 12-12" stroke="#00708f" stroke-width=".75" />
    <path d="m253.461 14.691h-56.164" fill="none" stroke="#c0c" stroke-width=".75" />
    <path d="m191.297 8.691 12 12" stroke="#c0c" stroke-width=".75" />
    <path d="m191.297 20.691 12-12" stroke="#c0c" stroke-width=".75" />
    <path d="m211.52 112.164-10.118 6.551" stroke="#00708f" stroke-width=".75" />
    <path d="m195.402 112.715 12 12" stroke="#00708f" stroke-width=".75" />
    <path d="m195.402 124.715 12-12" stroke="#00708f" stroke-width=".75" />
    <path d="m181.07 139.453 10.16-11.707" stroke="#c0c" stroke-width=".75" />
    <path d="m185.23 121.746 12 12" stroke="#c0c" stroke-width=".75" />
    <path d="m185.23 133.746 12-12" stroke="#c0c" stroke-width=".75" />
    <path d="m181.07 139.453-21.375 24.629" stroke="#00708f" stroke-width=".75" />
    <path d="m153.695 158.082 12 12" stroke="#00708f" stroke-width=".75" />
    <path d="m153.695 170.082 12-12" stroke="#00708f" stroke-width=".75" />
    <path d="m126.25 237.074 14.16-37.992" stroke="#c0c" stroke-width=".75" />
    <path d="m134.41 193.082 12 12" stroke="#c0c" stroke-width=".75" />
    <path d="m134.41 205.082 12-12" stroke="#c0c" stroke-width=".75" />
    <path d="m126.25 237.074-17.684 47.457" stroke="#00708f" stroke-width=".75" />
    <path d="m102.566 278.531 12 12" stroke="#00708f" stroke-width=".75" />
    <path d="m102.566 290.531 12-12" stroke="#00708f" stroke-width=".75" />
    <path d="m99 375.75v-39.434" fill="none" stroke="#c0c" stroke-width=".75" />
    <path d="m93 330.316 12 12" stroke="#c0c" stroke-width=".75" />
    <path d="m93 342.316 12-12" stroke="#c0c" stroke-width=".75" />
    <path d="m331.801 375.75v-52.121" fill="none" stroke="#00708f" stroke-width=".75" />
    <path d="m325.801 317.629 12 12" stroke="#00708f" stroke-width=".75" />
    <path d="m325.801 329.629 12-12" stroke="#00708f" stroke-width=".75" />
    <path d="m364.309 207.777-21.004 56.368" stroke="#c0c" stroke-width=".75" />
    <path d="m337.305 258.145 12 12" stroke="#c0c" stroke-width=".75" />
    <path d="m337.305 270.145 12-12" stroke="#c0c" stroke-width=".75" />
    <path d="m364.309 207.777 16.796-45.062" stroke="#00708f" stroke-width=".75" />
    <path d="m375.105 156.715 12 12" stroke="#00708f" stroke-width=".75" />
    <path d="m375.105 168.715 12-12" stroke="#00708f" stroke-width=".75" />
    <path d="m434.414 84.438-30.363 34.984" stroke="#c0c" stroke-width=".75" />
    <path d="m398.051 113.422 12 12" stroke="#c0c" stroke-width=".75" />
    <path d="m398.051 125.422 12-12" stroke="#c0c" stroke-width=".75" />
    <path d="m434.414 84.438 33.852-39.004" stroke="#00708f" stroke-width=".75" />
    <path d="m462.266 39.434 12 12" stroke="#00708f" stroke-width=".75" />
    <path d="m462.266 51.434 12-12" stroke="#00708f" stroke-width=".75" />
    <path d="m570.258 14.691h-56.16" fill="none" stroke="#c0c" stroke-width=".75" />
    <path d="m508.098 8.691 12 12" stroke="#c0c" stroke-width=".75" />
    <path d="m508.098 20.691 12-12" stroke="#c0c" stroke-width=".75" />
    <path d="m570.258 14.691h23.164" fill="none" stroke="#00708f" stroke-width=".75" />
    <path d="m587.422 8.691 12 12" stroke="#00708f" stroke-width=".75" />
    <path d="m587.422 20.691 12-12" stroke="#00708f" stroke-width=".75" />
    <path d="m612.258 56.648-0.024-23.164" stroke="#c0c" stroke-width=".75" />
    <path d="m606.234 27.484 12 12" stroke="#c0c" stroke-width=".75" />
    <path d="m606.234 39.484 12-12" stroke="#c0c" stroke-width=".75" />
    <path d="m528.32 112.164-10.121 6.551" stroke="#00708f" stroke-width=".75" />
    <path d="m512.199 112.715 12 12" stroke="#00708f" stroke-width=".75" />
    <path d="m512.199 124.715 12-12" stroke="#00708f" stroke-width=".75" />
    <path d="m497.871 139.453 10.16-11.707" stroke="#c0c" stroke-width=".75" />
    <path d="m502.031 121.746 12 12" stroke="#c0c" stroke-width=".75" />
    <path d="m502.031 133.746 12-12" stroke="#c0c" stroke-width=".75" />
    <path d="m497.871 139.453-21.375 24.629" stroke="#00708f" stroke-width=".75" />
    <path d="m470.496 158.082 12 12" stroke="#00708f" stroke-width=".75" />
    <path d="m470.496 170.082 12-12" stroke="#00708f" stroke-width=".75" />
    <path d="m443.051 237.074 14.16-37.992" stroke="#c0c" stroke-width=".75" />
    <path d="m451.211 193.082 12 12" stroke="#c0c" stroke-width=".75" />
    <path d="m451.211 205.082 12-12" stroke="#c0c" stroke-width=".75" />
    <path d="m443.051 237.074-17.684 47.457" stroke="#00708f" stroke-width=".75" />
    <path d="m419.367 278.531 12 12" stroke="#00708f" stroke-width=".75" />
    <path d="m419.367 290.531 12-12" stroke="#00708f" stroke-width=".75" />
    <path d="m415.801 375.75v-39.434" fill="none" stroke="#c0c" stroke-width=".75" />
    <path d="m409.801 330.316 12 12" stroke="#c0c" stroke-width=".75" />
    <path d="m409.801 342.316 12-12" stroke="#c0c" stroke-width=".75" />
    <path d="m965.398 375.75v-52.121" fill="none" stroke="#00708f" stroke-width=".75" />
    <path d="m959.398 317.629 12 12" stroke="#00708f" stroke-width=".75" />
    <path d="m959.398 329.629 12-12" stroke="#00708f" stroke-width=".75" />
    <path d="m997.91 207.777-21.004 56.368" stroke="#c0c" stroke-width=".75" />
    <path d="m970.906 258.145 12 12" stroke="#c0c" stroke-width=".75" />
    <path d="m970.906 270.145 12-12" stroke="#c0c" stroke-width=".75" />
    <path d="m997.91 207.777 16.793-45.062" stroke="#00708f" stroke-width=".75" />
    <path d="m1008.703 156.715 12 12" stroke="#00708f" stroke-width=".75" />
    <path d="m1008.703 168.715 12-12" stroke="#00708f" stroke-width=".75" />
    <path d="m1068.016 84.438-30.368 34.984" stroke="#c0c" stroke-width=".75" />
    <path d="m1031.648 113.422 12 12" stroke="#c0c" stroke-width=".75" />
    <path d="m1031.648 125.422 12-12" stroke="#c0c" stroke-width=".75" />
    <path d="m1068.016 84.438 33.851-39.004" stroke="#00708f" stroke-width=".75" />
    <path d="m1095.867 39.434 12 12" stroke="#00708f" stroke-width=".75" />
    <path d="m1095.867 51.434 12-12" stroke="#00708f" stroke-width=".75" />
    <path d="m1203.859 14.691h-56.164" fill="none" stroke="#c0c" stroke-width=".75" />
    <path d="m1141.695 8.691 12 12" stroke="#c0c" stroke-width=".75" />
    <path d="m1141.695 20.691 12-12" stroke="#c0c" stroke-width=".75" />
    <path d="m1203.859 14.691h14.555" fill="none" stroke="#00708f" stroke-width=".75" />
    <path d="m1212.414 8.691 12 12" stroke="#00708f" stroke-width=".75" />
    <path d="m1212.414 20.691 12-12" stroke="#00708f" stroke-width=".75" />
    <path d="m1245.82 20.535-13.347-3.789" stroke="#c0c" stroke-width=".75" />
    <path d="m1226.473 10.746 12 12" stroke="#c0c" stroke-width=".75" />
    <path d="m1226.473 22.746 12-12" stroke="#c0c" stroke-width=".75" />
    <path d="m1161.918 112.164-10.117 6.551" stroke="#00708f" stroke-width=".75" />
    <path d="m1145.801 112.715 12 12" stroke="#00708f" stroke-width=".75" />
    <path d="m1145.801 124.715 12-12" stroke="#00708f" stroke-width=".75" />
    <path d="m1131.473 139.453 10.16-11.707" stroke="#c0c" stroke-width=".75" />
    <path d="m1135.633 121.746 12 12" stroke="#c0c" stroke-width=".75" />
    <path d="m1135.633 133.746 12-12" stroke="#c0c" stroke-width=".75" />
    <path d="m1131.473 139.453-21.379 24.629" stroke="#00708f" stroke-width=".75" />
    <path d="m1104.094 158.082 12 12" stroke="#00708f" stroke-width=".75" />
    <path d="m1104.094 170.082 12-12" stroke="#00708f" stroke-width=".75" />
    <path d="m1076.652 237.074 14.157-37.992" stroke="#c0c" stroke-width=".75" />
    <path d="m1084.809 193.082 12 12" stroke="#c0c" stroke-width=".75" />
    <path d="m1084.809 205.082 12-12" stroke="#c0c" stroke-width=".75" />
    <path d="m1076.652 237.074-17.687 47.457" stroke="#00708f" stroke-width=".75" />
    <path d="m1052.965 278.531 12 12" stroke="#00708f" stroke-width=".75" />
    <path d="m1052.965 290.531 12-12" stroke="#00708f" stroke-width=".75" />
    <path d="m1049.398 375.75v-39.434" fill="none" stroke="#c0c" stroke-width=".75" />
    <path d="m1043.398 330.316 12 12" stroke="#c0c" stroke-width=".75" />
    <path d="m1043.398 342.316 12-12" stroke="#c0c" stroke-width=".75" />
    <path d="m644.102 371.25h9v9h-9z" fill="#707070" />
    <g transform="rotate(-90)">
      <path d="m-375.75 641.102h7.5" fill="none" stroke="#707070" stroke-width=".75" />
    </g>
    <g transform="rotate(-90)">
      <path d="m-368.25 641.102-2.25 2.25" fill="none" stroke="#707070" stroke-width=".75" />
    </g>
    <g transform="rotate(-90)">
      <path d="m-368.25 641.102-2.25-2.25" fill="none" stroke="#707070" stroke-width=".75" />
    </g>
    <path
      d="m686.359 207.777c0 2.899-2.351 5.25-5.25 5.25-2.898 0-5.25-2.351-5.25-5.25 0-2.898 2.352-5.25 5.25-5.25 2.899 0 5.25 2.352 5.25 5.25z"
      fill="#f00" />
    <path
      d="m756.465 84.438c0 2.898-2.352 5.25-5.25 5.25-2.899 0-5.25-2.352-5.25-5.25 0-2.903 2.351-5.25 5.25-5.25 2.898 0 5.25 2.347 5.25 5.25z"
      fill="#f00" />
    <path d="m887.059 21.441-6.75-6.75 6.75-6.75z" fill="#f00" />
    <path d="m924.516 10.191h9v9h-9z" fill="#f00" />
    <path d="m924.898 371.203h9v9h-9z" fill="#bf0080" />
    <path d="m840.898 371.297h9v9h-9z" fill="#707070" />
    <g transform="matrix(-.00106961 -1 1 -.00106961 0 0)">
      <path d="m-376.7 837.496h7.5" fill="none" stroke="#707070" stroke-width=".75" />
    </g>
    <g transform="matrix(-.00106961 -1 1 -.00106961 0 0)">
      <path d="m-369.2 837.496-2.249 2.251" fill="none" stroke="#707070" stroke-width=".75" />
    </g>
    <g transform="matrix(-.00106961 -1 1 -.00106961 0 0)">
      <path d="m-369.2 837.496-2.248-2.249" fill="none" stroke="#707070" stroke-width=".75" />
    </g>
    <path d="m840.617 107.664h9v9h-9z" fill="#bf0080" />
    <path
      d="m819.922 139.453c0 2.899-2.352 5.25-5.25 5.25-2.899 0-5.25-2.351-5.25-5.25 0-2.898 2.351-5.25 5.25-5.25 2.898 0 5.25 2.352 5.25 5.25z"
      fill="#f00" />
    <path
      d="m765.102 237.074c0 2.903-2.352 5.25-5.25 5.25-2.899 0-5.25-2.347-5.25-5.25 0-2.898 2.351-5.25 5.25-5.25 2.898 0 5.25 2.352 5.25 5.25z"
      fill="#f00" />
    <path d="m728.102 371.25h9v9h-9z" fill="#bf0080" />
    <path d="m10.5 371.25h9v9h-9z" fill="#707070" />
    <g transform="rotate(-90)">
      <path d="m-375.75 7.5h7.5" fill="none" stroke="#707070" stroke-width=".75" />
    </g>
    <g transform="rotate(-90)">
      <path d="m-368.25 7.5-2.25 2.25" fill="none" stroke="#707070" stroke-width=".75" />
    </g>
    <g transform="rotate(-90)">
      <path d="m-368.25 7.5-2.25-2.25" fill="none" stroke="#707070" stroke-width=".75" />
    </g>
    <path
      d="m52.762 207.777c0 2.899-2.352 5.25-5.25 5.25-2.903 0-5.25-2.351-5.25-5.25 0-2.898 2.347-5.25 5.25-5.25 2.898 0 5.25 2.352 5.25 5.25z"
      fill="#f00" />
    <path
      d="m122.867 84.438c0 2.898-2.351 5.25-5.25 5.25-2.902 0-5.25-2.352-5.25-5.25 0-2.903 2.348-5.25 5.25-5.25 2.899 0 5.25 2.347 5.25 5.25z"
      fill="#f00" />
    <path d="m248.961 10.191h9v9h-9z" fill="#bf0080" />
    <path d="m290.961 52.148h9v9h-9z" fill="#f00" />
    <path d="m291.301 371.203h9v9h-9z" fill="#bf0080" />
    <path d="m207.301 371.297h9v9h-9z" fill="#707070" />
    <g transform="matrix(-.00106961 -1 1 -.00106961 0 0)">
      <path d="m-376.023 203.899h7.5" fill="none" stroke="#707070" stroke-width=".75" />
    </g>
    <g transform="matrix(-.00106961 -1 1 -.00106961 0 0)">
      <path d="m-368.523 203.899-2.248 2.247" fill="none" stroke="#707070" stroke-width=".75" />
    </g>
    <g transform="matrix(-.00106961 -1 1 -.00106961 0 0)">
      <path d="m-368.523 203.899-2.247-2.253" fill="none" stroke="#707070" stroke-width=".75" />
    </g>
    <path d="m207.02 107.664h9v9h-9z" fill="#bf0080" />
    <path
      d="m186.32 139.453c0 2.899-2.347 5.25-5.25 5.25-2.898 0-5.25-2.351-5.25-5.25 0-2.898 2.352-5.25 5.25-5.25 2.903 0 5.25 2.352 5.25 5.25z"
      fill="#f00" />
    <path
      d="m131.5 237.074c0 2.903-2.348 5.25-5.25 5.25-2.898 0-5.25-2.347-5.25-5.25 0-2.898 2.352-5.25 5.25-5.25 2.902 0 5.25 2.352 5.25 5.25z"
      fill="#f00" />
    <path d="m94.5 371.25h9v9h-9z" fill="#bf0080" />
    <path d="m327.301 371.25h9v9h-9z" fill="#707070" />
    <g transform="rotate(-90)">
      <path d="m-375.75 324.301h7.5" fill="none" stroke="#707070" stroke-width=".75" />
    </g>
    <g transform="rotate(-90)">
      <path d="m-368.25 324.301-2.25 2.25" fill="none" stroke="#707070" stroke-width=".75" />
    </g>
    <g transform="rotate(-90)">
      <path d="m-368.25 324.301-2.25-2.25" fill="none" stroke="#707070" stroke-width=".75" />
    </g>
    <path
      d="m369.559 207.777c0 2.899-2.348 5.25-5.25 5.25-2.899 0-5.25-2.351-5.25-5.25 0-2.898 2.351-5.25 5.25-5.25 2.902 0 5.25 2.352 5.25 5.25z"
      fill="#f00" />
    <path
      d="m439.664 84.438c0 2.898-2.348 5.25-5.25 5.25-2.898 0-5.25-2.352-5.25-5.25 0-2.903 2.352-5.25 5.25-5.25 2.902 0 5.25 2.347 5.25 5.25z"
      fill="#f00" />
    <path
      d="m575.508 14.691c0 2.903-2.348 5.25-5.25 5.25-2.899 0-5.25-2.347-5.25-5.25 0-2.898 2.351-5.25 5.25-5.25 2.902 0 5.25 2.352 5.25 5.25z"
      fill="#bf0080" />
    <path d="m605.508 56.652 6.742-6.754 6.758 6.743z" fill="#f00" />
    <path d="m608.102 371.203h9v9h-9z" fill="#bf0080" />
    <path d="m524.102 371.297h9v9h-9z" fill="#707070" />
    <g transform="matrix(-.00106683 -1 1 -.00106683 0 0)">
      <path d="m-376.36 520.7h7.5" fill="none" stroke="#707070" stroke-width=".75" />
    </g>
    <g transform="matrix(-.00106683 -1 1 -.00106683 0 0)">
      <path d="m-368.86 520.7-2.249 2.248" fill="none" stroke="#707070" stroke-width=".75" />
    </g>
    <g transform="matrix(-.00106683 -1 1 -.00106683 0 0)">
      <path d="m-368.86 520.7-2.248-2.252" fill="none" stroke="#707070" stroke-width=".75" />
    </g>
    <path d="m523.82 107.664h9v9h-9z" fill="#bf0080" />
    <path
      d="m503.121 139.453c0 2.899-2.351 5.25-5.25 5.25-2.898 0-5.25-2.351-5.25-5.25 0-2.898 2.352-5.25 5.25-5.25 2.899 0 5.25 2.352 5.25 5.25z"
      fill="#f00" />
    <path
      d="m448.301 237.074c0 2.903-2.352 5.25-5.25 5.25-2.899 0-5.25-2.347-5.25-5.25 0-2.898 2.351-5.25 5.25-5.25 2.898 0 5.25 2.352 5.25 5.25z"
      fill="#f00" />
    <path d="m411.301 371.25h9v9h-9z" fill="#bf0080" />
    <path d="m960.898 371.25h9v9h-9z" fill="#707070" />
    <g transform="rotate(-90)">
      <path d="m-375.75 957.898h7.5" fill="none" stroke="#707070" stroke-width=".75" />
    </g>
    <g transform="rotate(-90)">
      <path d="m-368.25 957.898-2.25 2.25" fill="none" stroke="#707070" stroke-width=".75" />
    </g>
    <g transform="rotate(-90)">
      <path d="m-368.25 957.898-2.25-2.25" fill="none" stroke="#707070" stroke-width=".75" />
    </g>
    <path
      d="m1003.16 207.777c0 2.899-2.351 5.25-5.25 5.25-2.898 0-5.25-2.351-5.25-5.25 0-2.898 2.352-5.25 5.25-5.25 2.899 0 5.25 2.352 5.25 5.25z"
      fill="#f00" />
    <path
      d="m1073.266 84.438c0 2.898-2.352 5.25-5.25 5.25-2.899 0-5.25-2.352-5.25-5.25 0-2.903 2.351-5.25 5.25-5.25 2.898 0 5.25 2.347 5.25 5.25z"
      fill="#f00" />
    <path
      d="m1209.109 14.691c0 2.903-2.351 5.25-5.25 5.25-2.898 0-5.25-2.347-5.25-5.25 0-2.898 2.352-5.25 5.25-5.25 2.899 0 5.25 2.352 5.25 5.25z"
      fill="#bf0080" />
    <path d="m1241.32 16.035h9v9h-9z" fill="#f00" />
    <path d="m1241.699 371.203h9v9h-9z" fill="#bf0080" />
    <path d="m1157.699 371.297h9v9h-9z" fill="#707070" />
    <g transform="matrix(-.00106683 -1 1 -.00106683 0 0)">
      <path d="m-377.036 1154.297h7.5" fill="none" stroke="#707070" stroke-width=".75" />
    </g>
    <g transform="matrix(-.00106683 -1 1 -.00106683 0 0)">
      <path d="m-369.536 1154.297-2.249 2.252" fill="none" stroke="#707070" stroke-width=".75" />
    </g>
    <g transform="matrix(-.00106683 -1 1 -.00106683 0 0)">
      <path d="m-369.536 1154.297-2.248-2.248" fill="none" stroke="#707070" stroke-width=".75" />
    </g>
    <path d="m1157.418 107.664h9v9h-9z" fill="#bf0080" />
    <path
      d="m1136.723 139.453c0 2.899-2.352 5.25-5.25 5.25-2.903 0-5.25-2.351-5.25-5.25 0-2.898 2.347-5.25 5.25-5.25 2.898 0 5.25 2.352 5.25 5.25z"
      fill="#f00" />
    <path
      d="m1081.902 237.074c0 2.903-2.351 5.25-5.25 5.25-2.902 0-5.25-2.347-5.25-5.25 0-2.898 2.348-5.25 5.25-5.25 2.899 0 5.25 2.352 5.25 5.25z"
      fill="#f00" />
    <path d="m1044.898 371.25h9v9h-9z" fill="#bf0080" />
    <path
      d="m1007.398 375.75c0-123.602 76.801-319.059 196.461-319.059l0.34 319.059m-513.597 0c0-123.602 76.796-319.059 196.457-319.059l0.339 319.059m-513.597 0c0-123.602 76.801-319.059 196.457-319.059l0.344 319.059m-513.602 0c0-123.602 76.801-319.059 196.461-319.059l0.34 319.059"
      fill="none" stroke="#008000" stroke-width="1.5" />
    <path
      d="m648.602 375.75c0-52.121 11.503-111.605 32.507-167.973 16.797-45.062 39.743-88.355 70.106-123.339 33.851-39.004 79.68-69.747 135.844-69.747h41.957l0.382 361.012m-84 0.094-0.281-263.633c-10.117 6.551-20.285 15.582-30.445 27.289-21.379 24.629-40.664 59.629-54.82 97.621-17.684 47.457-27.25 99.242-27.25 138.676m-717.602 0c0-52.121 11.504-111.605 32.512-167.973 16.793-45.062 39.738-88.355 70.105-123.339 33.852-39.004 79.68-69.747 135.844-69.747l42 41.957 0.34 319.055m-84 0.094-0.281-263.633c-10.118 6.551-20.29 15.582-30.45 27.289-21.375 24.629-40.66 59.629-54.82 97.621-17.684 47.457-27.25 99.242-27.25 138.676m232.801 0c0-52.121 11.504-111.605 32.508-167.973 16.796-45.062 39.742-88.355 70.105-123.339 33.852-39.004 79.684-69.747 135.844-69.747 23.164 0 41.976 18.793 42 41.957l0.344 319.055m-84 0.094-0.282-263.633c-10.121 6.551-20.289 15.582-30.449 27.289-21.375 24.629-40.66 59.629-54.82 97.621-17.684 47.457-27.25 99.242-27.25 138.676m549.597 0c0-52.121 11.508-111.605 32.512-167.973 16.793-45.062 39.738-88.355 70.106-123.339 33.851-39.004 79.679-69.747 135.843-69.747 14.555 0 28.614 2.055 41.961 5.844l0.379 355.168m-84 0.094-0.281-263.633c-10.117 6.551-20.285 15.582-30.445 27.289-21.379 24.629-40.664 59.629-54.821 97.621-17.687 47.457-27.254 99.242-27.254 138.676"
      fill="#32cd32" fill-opacity=".07000002" />
    <path
      d="m648.602 375.75c0-52.121 11.503-111.605 32.507-167.973 16.797-45.062 39.743-88.355 70.106-123.339 33.851-39.004 79.68-69.747 135.844-69.747h41.957l0.382 361.012m-84 0.094-0.281-263.633c-10.117 6.551-20.285 15.582-30.445 27.289-21.379 24.629-40.664 59.629-54.82 97.621-17.684 47.457-27.25 99.242-27.25 138.676m-717.602 0c0-52.121 11.504-111.605 32.512-167.973 16.793-45.062 39.738-88.355 70.105-123.339 33.852-39.004 79.68-69.747 135.844-69.747l42 41.957 0.34 319.055m-84 0.094-0.281-263.633c-10.118 6.551-20.29 15.582-30.45 27.289-21.375 24.629-40.66 59.629-54.82 97.621-17.684 47.457-27.25 99.242-27.25 138.676m232.801 0c0-52.121 11.504-111.605 32.508-167.973 16.796-45.062 39.742-88.355 70.105-123.339 33.852-39.004 79.684-69.747 135.844-69.747 23.164 0 41.976 18.793 42 41.957l0.344 319.055m-84 0.094-0.282-263.633c-10.121 6.551-20.289 15.582-30.449 27.289-21.375 24.629-40.66 59.629-54.82 97.621-17.684 47.457-27.25 99.242-27.25 138.676m549.597 0c0-52.121 11.508-111.605 32.512-167.973 16.793-45.062 39.738-88.355 70.106-123.339 33.851-39.004 79.679-69.747 135.843-69.747 14.555 0 28.614 2.055 41.961 5.844l0.379 355.168m-84 0.094-0.281-263.633c-10.117 6.551-20.285 15.582-30.445 27.289-21.379 24.629-40.664 59.629-54.821 97.621-17.687 47.457-27.254 99.242-27.254 138.676"
      fill="none" stroke="#000" stroke-width="1.5" /><text transform="translate(192.58594,45.75)" fill="#000000"
      font-family="'DejaVu Sans'" font-size="15px">
      <tspan x="0 10.29 19.514999 28.379999 37.605 41.759998 46.514999 50.924999 60.09 64.245003" y="0">Bevel Join
      </tspan>
      <tspan
        x="300.9082 312.1282 316.2832 325.79321 330.83319 340.58319 349.7482 359.24319 368.73822 378.2482 383.0032 387.41321 396.57822 400.73322"
        y="3.75">Nib/Round Join</tspan>
      <tspan
        x="654.18457 667.11456 671.26959 677.1496 686.37457 692.53955 697.29456 701.70459 710.86957 715.0246 972.29004 982.55005 988.40002 996.63501 1004.4351 1009.1901 1013.6 1022.765 1026.92"
        y="0">Miter JoinArcs Join</tspan>
    </text>
  </g>
</svg>