<?xml version="1.0" encoding="UTF-8"?>
<svg width="891" height="452" version="1.1" viewBox="0 0 891 452" xml:space="preserve"
  xmlns="http://www.w3.org/2000/svg" xmlns:cc="http://creativecommons.org/ns#"
  xmlns:dc="http://purl.org/dc/elements/1.1/" xmlns:rdf="http://www.w3.org/1999/02/22-rdf-syntax-ns#">
    <g transform="matrix(1.3333333,0,0,1.3333333,0,1.13e-5)">
    <path d="m578.391 50.207-91.504 80.738" stroke="#00708f" stroke-width=".75" />
    <path d="m480.887 124.945 12 12" stroke="#00708f" stroke-width=".75" />
    <path d="m480.887 136.945 12-12" stroke="#00708f" stroke-width=".75" />
    <path d="m391.371 308.23 32.203-90.867" stroke="#c0c" stroke-width=".75" />
    <path d="m417.574 211.363 12 12" stroke="#c0c" stroke-width=".75" />
    <path d="m417.574 223.363 12-12" stroke="#c0c" stroke-width=".75" />
    <path d="m481.926 323.25 17.39-43.043" stroke="#00708f" stroke-width=".75" />
    <path d="m493.316 274.207 12 12" stroke="#00708f" stroke-width=".75" />
    <path d="m493.316 286.207 12-12" stroke="#00708f" stroke-width=".75" />
    <path d="m563.262 193.086-37.059 43.543" stroke="#c0c" stroke-width=".75" />
    <path d="m520.203 230.629 12 12" stroke="#c0c" stroke-width=".75" />
    <path d="m520.203 242.629 12-12" stroke="#c0c" stroke-width=".75" />
    <path d="m207.594 50.207-91.504 80.738" stroke="#00708f" stroke-width=".75" />
    <path d="m110.09 124.945 12 12" stroke="#00708f" stroke-width=".75" />
    <path d="m110.09 136.945 12-12" stroke="#00708f" stroke-width=".75" />
    <path d="m20.57 308.23 32.207-90.867" stroke="#c0c" stroke-width=".75" />
    <path d="m46.777 211.363 12 12" stroke="#c0c" stroke-width=".75" />
    <path d="m46.777 223.363 12-12" stroke="#c0c" stroke-width=".75" />
    <path d="m111.125 323.25 17.402-43.035" stroke="#00708f" stroke-width=".75" />
    <path d="m122.527 274.215 12 12" stroke="#00708f" stroke-width=".75" />
    <path d="m122.527 286.215 12-12" stroke="#00708f" stroke-width=".75" />
    <path d="m192.461 193.086-37.059 43.543" stroke="#c0c" stroke-width=".75" />
    <path d="m149.402 230.629 12 12" stroke="#c0c" stroke-width=".75" />
    <path d="m149.402 242.629 12-12" stroke="#c0c" stroke-width=".75" />
    <path d="m648.898 318.699h9v9h-9z" fill="#707070" />
    <g transform="matrix(-.00106821 -1 1 -.00106821 0 0)">
      <path d="m-323.897 645.552 7.5 1e-3" fill="none" stroke="#707070" stroke-width=".75" />
    </g>
    <g transform="matrix(-.00106821 -1 1 -.00106821 0 0)">
      <path d="m-316.397 645.553-2.252 2.251" fill="none" stroke="#707070" stroke-width=".75" />
    </g>
    <g transform="matrix(-.00106821 -1 1 -.00106821 0 0)">
      <path d="m-316.397 645.553-2.251-2.249" fill="none" stroke="#707070" stroke-width=".75" />
    </g>
    <path d="m648.645 79.41h9v9h-9z" fill="#f00" />
    <path d="m648.586 25.684h9v9h-9z" fill="#f00" />
    <path d="m614.172 10.168h9v9h-9z" fill="#bf0080" />
    <path d="m582.859 55.27-9.527-0.598 0.594-9.527z" fill="#f00" />
    <path d="m385.008 305.977 8.617-4.106 4.109 8.617z" fill="#f00" />
    <path d="m381.547 318.75h9v9h-9z" fill="#bf0080" />
    <path d="m477.426 318.75h9v9h-9z" fill="#707070" />
    <g transform="matrix(.404026 -1 1 .404026 0 0)">
      <path d="m-110.502 519.618h6.953" fill="none" stroke="#707070" stroke-width=".69538802" />
    </g>
    <g transform="matrix(.404026 -1 1 .404026 0 0)">
      <path d="m-103.549 519.618-2.084 2.084" fill="none" stroke="#707070" stroke-width=".69538802" />
    </g>
    <g transform="matrix(.404026 -1 1 .404026 0 0)">
      <path d="m-103.549 519.618-2.086-2.087" fill="none" stroke="#707070" stroke-width=".69538802" />
    </g>
    <path d="m558.762 188.586h9v9h-9z" fill="#bf0080" />
    <path d="m558.898 318.801h9v9h-9z" fill="#bf0080" />
    <path d="m278.102 318.699h9v9h-9z" fill="#707070" />
    <g transform="matrix(-.00106821 -1 1 -.00106821 0 0)">
      <path d="m-323.501 274.756h7.5" fill="none" stroke="#707070" stroke-width=".75" />
    </g>
    <g transform="matrix(-.00106821 -1 1 -.00106821 0 0)">
      <path d="m-316.001 274.756-2.252 2.248" fill="none" stroke="#707070" stroke-width=".75" />
    </g>
    <g transform="matrix(-.00106821 -1 1 -.00106821 0 0)">
      <path d="m-316.001 274.756-2.251-2.252" fill="none" stroke="#707070" stroke-width=".75" />
    </g>
    <path d="m277.844 79.41h9v9h-9z" fill="#f00" />
    <path d="m203.094 45.707h9v9h-9z" fill="#bf0080" />
    <path d="m14.207 305.977 8.617-4.106 4.11 8.617z" fill="#f00" />
    <path d="m10.75 318.75h9v9h-9z" fill="#bf0080" />
    <path d="m106.625 318.75h9v9h-9z" fill="#707070" />
    <g transform="matrix(.404364 -1 1 .404364 0 0)">
      <path d="m-239.202 200.897h6.953" fill="none" stroke="#707070" stroke-width=".695306" />
    </g>
    <g transform="matrix(.404364 -1 1 .404364 0 0)">
      <path d="m-232.249 200.897-2.086 2.086" fill="none" stroke="#707070" stroke-width=".695306" />
    </g>
    <g transform="matrix(.404364 -1 1 .404364 0 0)">
      <path d="m-232.249 200.897-2.086-2.086" fill="none" stroke="#707070" stroke-width=".695306" />
    </g>
    <path d="m187.961 188.586h9v9h-9z" fill="#bf0080" />
    <path d="m188.102 318.801h9v9h-9z" fill="#bf0080" />
    <path d="m106.625 318.75h9v9h-9z" fill="#707070" />
    <path d="m10.75 318.75h9v9h-9z" fill="#707070" />
    <path d="m477.426 318.75h9v9h-9z" fill="#707070" />
    <path d="m381.547 318.75h9v9h-9z" fill="#707070" />
    <path
      d="m63 323.25c28.984-81.785 87.008-162.23 174.344-239.293l0.258 239.293m196.199 0c28.984-81.785 87.008-162.23 174.344-239.293l0.253 239.293"
      fill="none" stroke="#008000" stroke-width="1.5" />
    <path
      d="m653.398 323.199-0.253-239.289-0.059-53.726-34.414-15.516-40.281 35.539c-91.504 80.738-154.817 167.156-187.02 258.023l-5.324 15.02m95.879 0c17.39-43.043 44.277-86.621 81.336-130.164l0.136 130.215m-280.796-0.102-0.258-239.289-74.75-33.703c-91.504 80.738-154.817 167.156-187.024 258.023l-5.32 15.02m95.875 0c17.402-43.035 44.277-86.621 81.336-130.164l0.141 130.215"
      fill="#32cd32" fill-opacity=".07000002" />
    <path
      d="m653.398 323.199-0.253-239.289-0.059-53.726-34.414-15.516-40.281 35.539c-91.504 80.738-154.817 167.156-187.02 258.023l-5.324 15.02m95.879 0c17.39-43.043 44.277-86.621 81.336-130.164l0.136 130.215m-280.796-0.102-0.258-239.289-74.75-33.703c-91.504 80.738-154.817 167.156-187.024 258.023l-5.32 15.02m95.875 0c17.402-43.035 44.277-86.621 81.336-130.164l0.141 130.215"
      fill="none" stroke="#000" stroke-width="1.5" /><text transform="translate(242.20898,57)" fill="#000000"
      font-family="'DejaVu Sans'" font-size="15px">
      <tspan
        x="0 12.93 17.084999 22.965 32.189999 38.355 47.91 52.32 61.485001 65.639999 79.919998 88.275002 92.43 107.04 111.195 117.075 126.9"
        y="0">Miter,JoinLimit:3</tspan>
      <tspan
        x="185.94727 198.87726 203.03226 208.91226 218.13725 224.30226 229.05727 239.57227 243.72726 247.88226 257.39227 262.14725 266.90225 271.31226 280.47726 284.63226 294.12726 298.88226 307.23727 311.39227 326.00226 330.15726 336.03726 341.07727 345.83224"
        y="-33.75">Miter Clip, Join Limit: 3</tspan>
    </text>
  </g>
</svg>