<?xml version="1.0" encoding="UTF-8"?>
<svg width="692" height="595" version="1.1" viewBox="0 0 692 595" xml:space="preserve"
  xmlns="http://www.w3.org/2000/svg" xmlns:cc="http://creativecommons.org/ns#"
  xmlns:dc="http://purl.org/dc/elements/1.1/" xmlns:rdf="http://www.w3.org/1999/02/22-rdf-syntax-ns#">
    <g transform="matrix(1.3333333,0,0,1.3333333,0,1.4875e-5)">
    <path d="m109.289 222.328-6.246-30.691" stroke="#00708f" stroke-width=".75" />
    <path d="m97.043 185.637 12 12" stroke="#00708f" stroke-width=".75" />
    <path d="m97.043 197.637 12-12" stroke="#00708f" stroke-width=".75" />
    <path d="m113.102 129.359-8.868 30.051" stroke="#c0c" stroke-width=".75" />
    <path d="m98.234 153.41 12 12" stroke="#c0c" stroke-width=".75" />
    <path d="m98.234 165.41 12-12" stroke="#c0c" stroke-width=".75" />
    <path d="m113.102 129.359 4.023-13.64" stroke="#00708f" stroke-width=".75" />
    <path d="m111.125 109.719 12 12" stroke="#00708f" stroke-width=".75" />
    <path d="m111.125 121.719 12-12" stroke="#00708f" stroke-width=".75" />
    <path d="m129.684 90.16-6.961 12.399" stroke="#c0c" stroke-width=".75" />
    <path d="m116.723 96.559 12 12" stroke="#c0c" stroke-width=".75" />
    <path d="m116.723 108.559 12-12" stroke="#c0c" stroke-width=".75" />
    <path d="m186.238 15.293-1.554 1.023" stroke="#00708f" stroke-width=".75" />
    <path d="m178.684 10.316 12 12" stroke="#00708f" stroke-width=".75" />
    <path d="m178.684 22.316 12-12" stroke="#00708f" stroke-width=".75" />
    <path d="m181.621 18.426 1.524-1.067" stroke="#c0c" stroke-width=".75" />
    <path d="m177.145 11.359 12 12" stroke="#c0c" stroke-width=".75" />
    <path d="m177.145 23.359 12-12" stroke="#c0c" stroke-width=".75" />
    <path d="m101.754 74.352-35.293 24.707" stroke="#00708f" stroke-width=".75" />
    <path d="m60.461 93.059 12 12" stroke="#00708f" stroke-width=".75" />
    <path d="m60.461 105.059 12-12" stroke="#00708f" stroke-width=".75" />
    <path d="m27.641 177.293 12.199-41.328" stroke="#c0c" stroke-width=".75" />
    <path d="m33.84 129.965 12 12" stroke="#c0c" stroke-width=".75" />
    <path d="m33.84 141.965 12-12" stroke="#c0c" stroke-width=".75" />
    <path d="m27.641 177.293-12.723 43.117" stroke="#00708f" stroke-width=".75" />
    <path d="m8.918 214.41 12 12" stroke="#00708f" stroke-width=".75" />
    <path d="m8.918 226.41 12-12" stroke="#00708f" stroke-width=".75" />
    <path d="M 36.172,309.117 18,268.004" stroke="#c0c" stroke-width=".75" />
    <path d="m12 262.004 12 12" stroke="#c0c" stroke-width=".75" />
    <path d="m12 274.004 12-12" stroke="#c0c" stroke-width=".75" />
    <path d="m36.172 309.117 5.004 11.332" stroke="#00708f" stroke-width=".75" />
    <path d="m35.176 314.449 12 12" stroke="#00708f" stroke-width=".75" />
    <path d="m35.176 326.449 12-12" stroke="#00708f" stroke-width=".75" />
    <path d="m54.41 341.422-7.101-10.145" stroke="#c0c" stroke-width=".75" />
    <path d="m41.309 325.277 12 12" stroke="#c0c" stroke-width=".75" />
    <path d="m41.309 337.277 12-12" stroke="#c0c" stroke-width=".75" />
    <path d="m60.004 349.41 13.234 18.895" stroke="#00708f" stroke-width=".75" />
    <path d="m67.238 362.305 12 12" stroke="#00708f" stroke-width=".75" />
    <path d="m67.238 374.305 12-12" stroke="#00708f" stroke-width=".75" />
    <path d="m108.891 397.871-19.043-13.031" stroke="#c0c" stroke-width=".75" />
    <path d="m83.848 378.84 12 12" stroke="#c0c" stroke-width=".75" />
    <path d="m83.848 390.84 12-12" stroke="#c0c" stroke-width=".75" />
    <path d="m108.891 397.871 29.265 20.024" stroke="#00708f" stroke-width=".75" />
    <path d="m132.156 411.895 12 12" stroke="#00708f" stroke-width=".75" />
    <path d="m132.156 423.895 12-12" stroke="#00708f" stroke-width=".75" />
    <path d="m208.488 431.18-35.422-1.61" stroke="#c0c" stroke-width=".75" />
    <path d="m167.066 423.57 12 12" stroke="#c0c" stroke-width=".75" />
    <path d="m167.066 435.57 12-12" stroke="#c0c" stroke-width=".75" />
    <path d="m278.141 367.004-33.829-2.379" stroke="#00708f" stroke-width=".75" />
    <path d="m238.312 358.625 12 12" stroke="#00708f" stroke-width=".75" />
    <path d="m238.312 370.625 12-12" stroke="#00708f" stroke-width=".75" />
    <path d="m183.164 333.961 27.992 19.152" stroke="#c0c" stroke-width=".75" />
    <path d="m205.156 347.113 12 12" stroke="#c0c" stroke-width=".75" />
    <path d="m205.156 359.113 12-12" stroke="#c0c" stroke-width=".75" />
    <path d="m183.164 333.961-17.699-12.109" stroke="#00708f" stroke-width=".75" />
    <path d="m159.465 315.852 12 12" stroke="#00708f" stroke-width=".75" />
    <path d="m159.465 327.852 12-12" stroke="#00708f" stroke-width=".75" />
    <path d="m137.129 289.457 12.734 17.254" stroke="#c0c" stroke-width=".75" />
    <path d="m143.863 300.711 12 12" stroke="#c0c" stroke-width=".75" />
    <path d="m143.863 312.711 12-12" stroke="#c0c" stroke-width=".75" />
    <path d="m137.129 289.457-5.949-8.965" stroke="#00708f" stroke-width=".75" />
    <path d="m125.18 274.492 12 12" stroke="#00708f" stroke-width=".75" />
    <path d="m125.18 286.492 12-12" stroke="#00708f" stroke-width=".75" />
    <path d="m121.629 261.184 4.351 9.843" stroke="#c0c" stroke-width=".75" />
    <path d="m119.98 265.027 12 12" stroke="#c0c" stroke-width=".75" />
    <path d="m119.98 277.027 12-12" stroke="#c0c" stroke-width=".75" />
    <path d="m121.629 261.184-3.469-7.852" stroke="#00708f" stroke-width=".75" />
    <path d="m112.16 247.332 12 12" stroke="#00708f" stroke-width=".75" />
    <path d="m112.16 259.332 12-12" stroke="#00708f" stroke-width=".75" />
    <path d="m112.875 236.996 2.363 8.246" stroke="#c0c" stroke-width=".75" />
    <path d="m109.238 239.242 12 12" stroke="#c0c" stroke-width=".75" />
    <path d="m109.238 251.242 12-12" stroke="#c0c" stroke-width=".75" />
    <path d="m205.953 135.594h9v9h-9z" fill="#707070" />
    <g transform="matrix(-1 .812901 -.812901 -1 0 0)">
      <path d="m-58.151-193.181 5.82 1e-3" fill="none" stroke="#707070" stroke-width=".58197099" />
    </g>
    <g transform="matrix(-1 .812901 -.812901 -1 0 0)">
      <path d="m-52.331-193.18-1.744 1.746" fill="none" stroke="#707070" stroke-width=".58197099" />
    </g>
    <g transform="matrix(-1 .812901 -.812901 -1 0 0)">
      <path d="m-52.331-193.18-1.744-1.747" fill="none" stroke="#707070" stroke-width=".58197099" />
    </g>
    <path d="m104.789 217.828h9v9h-9z" fill="#bf0080" />
    <path
      d="m118.352 129.359c0 2.899-2.352 5.25-5.25 5.25-2.899 0-5.25-2.351-5.25-5.25 0-2.902 2.351-5.25 5.25-5.25 2.898 0 5.25 2.348 5.25 5.25z"
      fill="#f00" />
    <path d="m125.184 85.66h9v9h-9z" fill="#bf0080" />
    <path d="m143.457 207.93h9v9h-9z" fill="#707070" />
    <g transform="matrix(1 -.812902 .812902 1 0 0)">
      <path d="m-14.893 194.507 5.82 1e-3" fill="none" stroke="#707070" stroke-width=".58197099" />
    </g>
    <g transform="matrix(1 -.812902 .812902 1 0 0)">
      <path d="m-9.073 194.508-1.744 1.746" fill="none" stroke="#707070" stroke-width=".58197099" />
    </g>
    <g transform="matrix(1 -.812902 .812902 1 0 0)">
      <path d="m-9.073 194.508-1.744-1.747" fill="none" stroke="#707070" stroke-width=".58197099" />
    </g>
    <path d="m294.582 85.082h9v9h-9z" fill="#bf0080" />
    <path d="m288.988 77.094h9v9h-9z" fill="#f00" />
    <path d="m189.941 20.938-9.347-1.938 1.937-9.348z" fill="#bf0080" />
    <path d="m177.746 12.898 9.402 1.657-1.656 9.398z" fill="#f00" />
    <path d="m105.625 79.879-9.402-1.656 1.656-9.403z" fill="#f00" />
    <path
      d="m32.891 177.293c0 2.902-2.348 5.25-5.25 5.25-2.899 0-5.25-2.348-5.25-5.25 0-2.898 2.351-5.25 5.25-5.25 2.902 0 5.25 2.352 5.25 5.25z"
      fill="#f00" />
    <path
      d="m41.422 309.117c0 2.903-2.352 5.25-5.25 5.25-2.902 0-5.25-2.347-5.25-5.25 0-2.898 2.348-5.25 5.25-5.25 2.898 0 5.25 2.352 5.25 5.25z"
      fill="#f00" />
    <path d="m48.883 345.293 1.656-9.398 9.402 1.656z" fill="#f00" />
    <path d="m65.535 345.539-1.66 9.399-9.398-1.657z" fill="#f00" />
    <path
      d="m114.141 397.871c0 2.899-2.352 5.25-5.25 5.25-2.899 0-5.25-2.351-5.25-5.25 0-2.898 2.351-5.25 5.25-5.25 2.898 0 5.25 2.352 5.25 5.25z"
      fill="#f00" />
    <path d="m203.988 426.68h9v9h-9z" fill="#bf0080" />
    <path d="m283.855 370.758h9v9h-9z" fill="#f00" />
    <path d="m315.055 345.406h9v9h-9z" fill="#bf0080" />
    <path d="m309.461 337.418h9v9h-9z" fill="#bf0080" />
    <path d="m273.641 362.504h9v9h-9z" fill="#bf0080" />
    <path
      d="m188.414 333.961c0 2.898-2.352 5.25-5.25 5.25s-5.25-2.352-5.25-5.25c0-2.902 2.352-5.25 5.25-5.25s5.25 2.348 5.25 5.25z"
      fill="#f00" />
    <path
      d="m142.379 289.457c0 2.902-2.352 5.25-5.25 5.25-2.902 0-5.25-2.348-5.25-5.25 0-2.898 2.348-5.25 5.25-5.25 2.898 0 5.25 2.352 5.25 5.25z"
      fill="#f00" />
    <path
      d="m126.879 261.184c0 2.898-2.352 5.25-5.25 5.25-2.899 0-5.25-2.352-5.25-5.25 0-2.903 2.351-5.25 5.25-5.25 2.898 0 5.25 2.347 5.25 5.25z"
      fill="#f00" />
    <path d="m108.375 232.496h9v9h-9z" fill="#bf0080" />
    <path
      d="m105.227 236.398 151.125-122.847-107.25-66.301c-37.586 24.664-66.008 62.961-78.731 106.074-12.723 43.117-9.644 90.711 8.527 131.824 14.336 32.434 37.864 60.743 67.129 80.766 29.266 20.024 64.176 31.699 99.598 33.313l31.199-25.352m227.008-227.742-79.871 55.922-5.59-7.985 79.867-55.925z"
      fill="none" stroke="#008000" stroke-width="1.5" />
    <path
      d="m210.453 140.094-101.164 82.234c-6.246-30.691-5.055-62.918 3.813-92.969 4.023-13.64 9.621-26.8 16.582-39.199zm-62.496 72.336 151.125-122.848-5.594-7.988-107.25-66.301c-1.554 1.023-3.093 2.066-4.617 3.133l-79.867 55.926c-35.293 24.707-61.914 61.613-74.113 102.941-12.723 43.117-9.641 90.711 8.531 131.824 5.004 11.332 11.137 22.16 18.238 32.305l5.594 7.988c13.234 18.895 29.844 35.43 48.887 48.461 29.265 20.024 64.175 31.699 99.597 33.309l79.867-55.922 31.2-25.352-5.594-7.988-35.82 25.086c-33.829-2.379-66.985-13.891-94.977-33.043-17.699-12.109-33.301-27.25-46.035-44.504-5.949-8.965-11.149-18.43-15.5-28.273-3.469-7.852-6.391-15.942-8.754-24.188z"
      fill="#32cd32" fill-opacity=".07000002" />
    <path
      d="m210.453 140.094-101.164 82.234c-6.246-30.691-5.055-62.918 3.813-92.969 4.023-13.64 9.621-26.8 16.582-39.199zm-62.496 72.336 151.125-122.848-5.594-7.988-107.25-66.301c-1.554 1.023-3.093 2.066-4.617 3.133l-79.867 55.926c-35.293 24.707-61.914 61.613-74.113 102.941-12.723 43.117-9.641 90.711 8.531 131.824 5.004 11.332 11.137 22.16 18.238 32.305l5.594 7.988c13.234 18.895 29.844 35.43 48.887 48.461 29.265 20.024 64.175 31.699 99.597 33.309l79.867-55.922 31.2-25.352-5.594-7.988-35.82 25.086c-33.829-2.379-66.985-13.891-94.977-33.043-17.699-12.109-33.301-27.25-46.035-44.504-5.949-8.965-11.149-18.43-15.5-28.273-3.469-7.852-6.391-15.942-8.754-24.188z"
      fill="none" stroke="#000" stroke-width="1.5" />
  </g>
</svg>