<?xml version="1.0" encoding="UTF-8"?>
<svg width="1155" height="625" version="1.1" viewBox="0 0 1155 625" xml:space="preserve"
  xmlns="http://www.w3.org/2000/svg" xmlns:cc="http://creativecommons.org/ns#"
  xmlns:dc="http://purl.org/dc/elements/1.1/" xmlns:rdf="http://www.w3.org/1999/02/22-rdf-syntax-ns#">
    <g transform="matrix(1.3333333,0,0,1.3333333,0,1.5625e-5)">
    <path d="m69.086 351.305-38.262-38.262" stroke="#00708f" stroke-width=".75" />
    <path d="m24.824 307.043 12 12" stroke="#00708f" stroke-width=".75" />
    <path d="m24.824 319.043 12-12" stroke="#00708f" stroke-width=".75" />
    <path d="m21.574 213.449-6.769 49.285" stroke="#c0c" stroke-width=".75" />
    <path d="m8.805 256.734 12 12" stroke="#c0c" stroke-width=".75" />
    <path d="m8.805 268.734 12-12" stroke="#c0c" stroke-width=".75" />
    <path d="m21.574 213.449 5.387-39.207" stroke="#00708f" stroke-width=".75" />
    <path d="m20.961 168.242 12 12" stroke="#00708f" stroke-width=".75" />
    <path d="m20.961 180.242 12-12" stroke="#00708f" stroke-width=".75" />
    <path d="m77.176 105.914-30.914 30.914" stroke="#c0c" stroke-width=".75" />
    <path d="m40.262 130.828 12 12" stroke="#c0c" stroke-width=".75" />
    <path d="m40.262 142.828 12-12" stroke="#c0c" stroke-width=".75" />
    <path d="m77.176 105.914 91.176-91.176" stroke="#00708f" stroke-width=".75" />
    <path d="m162.352 8.738 12 12" stroke="#00708f" stroke-width=".75" />
    <path d="m162.352 20.738 12-12" stroke="#00708f" stroke-width=".75" />
    <path d="m338.629 39.559-65.406-9.5" stroke="#c0c" stroke-width=".75" />
    <path d="m267.223 24.059 12 12" stroke="#c0c" stroke-width=".75" />
    <path d="m267.223 36.059 12-12" stroke="#c0c" stroke-width=".75" />
    <path d="m338.629 39.559 13.801 2.003" stroke="#00708f" stroke-width=".75" />
    <path d="m346.43 35.562 12 12" stroke="#00708f" stroke-width=".75" />
    <path d="m346.43 47.562 12-12" stroke="#00708f" stroke-width=".75" />
    <path d="m374.523 44.023-9.855-0.726" stroke="#c0c" stroke-width=".75" />
    <path d="m358.668 37.297 12 12" stroke="#c0c" stroke-width=".75" />
    <path d="m358.668 49.297 12-12" stroke="#c0c" stroke-width=".75" />
    <path d="m508.469 53.871 21.238 1.563" stroke="#00708f" stroke-width=".75" />
    <path d="m523.707 49.434 12 12" stroke="#00708f" stroke-width=".75" />
    <path d="m523.707 61.434 12-12" stroke="#00708f" stroke-width=".75" />
    <path d="m568.555 53.031-17.192 2.309" stroke="#c0c" stroke-width=".75" />
    <path d="m545.363 49.34 12 12" stroke="#c0c" stroke-width=".75" />
    <path d="m545.363 61.34 12-12" stroke="#c0c" stroke-width=".75" />
    <path d="m568.555 53.031 3.828-0.515" stroke="#00708f" stroke-width=".75" />
    <path d="m566.383 46.516 12 12" stroke="#00708f" stroke-width=".75" />
    <path d="m566.383 58.516 12-12" stroke="#00708f" stroke-width=".75" />
    <path d="m580.578 51.383-4.176 0.574" stroke="#c0c" stroke-width=".75" />
    <path d="m570.402 45.957 12 12" stroke="#c0c" stroke-width=".75" />
    <path d="m570.402 57.957 12-12" stroke="#c0c" stroke-width=".75" />
    <path d="m580.578 51.383 34.633-4.793" stroke="#00708f" stroke-width=".75" />
    <path d="m609.211 40.59 12 12" stroke="#00708f" stroke-width=".75" />
    <path d="m609.211 52.59 12-12" stroke="#00708f" stroke-width=".75" />
    <path d="m704.5 44.246-44.48-4.223" stroke="#c0c" stroke-width=".75" />
    <path d="m654.02 34.023 12 12" stroke="#c0c" stroke-width=".75" />
    <path d="m654.02 46.023 12-12" stroke="#c0c" stroke-width=".75" />
    <path d="m704.5 44.246 35.32 3.359" stroke="#00708f" stroke-width=".75" />
    <path d="m733.82 41.605 12 12" stroke="#00708f" stroke-width=".75" />
    <path d="m733.82 53.605 12-12" stroke="#00708f" stroke-width=".75" />
    <path d="m805.91 86.738-28.625-28.625" stroke="#c0c" stroke-width=".75" />
    <path d="m771.285 52.113 12 12" stroke="#c0c" stroke-width=".75" />
    <path d="m771.285 64.113 12-12" stroke="#c0c" stroke-width=".75" />
    <path d="m805.91 86.738 22.547 22.547" stroke="#00708f" stroke-width=".75" />
    <path d="m822.457 103.285 12 12" stroke="#00708f" stroke-width=".75" />
    <path d="m822.457 115.285 12-12" stroke="#00708f" stroke-width=".75" />
    <path d="m846.398 180.055-3.918-39.168" stroke="#c0c" stroke-width=".75" />
    <path d="m836.48 134.887 12 12" stroke="#c0c" stroke-width=".75" />
    <path d="m836.48 146.887 12-12" stroke="#c0c" stroke-width=".75" />
    <path d="m846.398 180.055 4.977 49.789" stroke="#00708f" stroke-width=".75" />
    <path d="m845.375 223.844 12 12" stroke="#00708f" stroke-width=".75" />
    <path d="m845.375 235.844 12-12" stroke="#00708f" stroke-width=".75" />
    <path d="m802.035 304.555 30.692-30.692" stroke="#c0c" stroke-width=".75" />
    <path d="m826.727 267.863 12 12" stroke="#c0c" stroke-width=".75" />
    <path d="m826.727 279.863 12-12" stroke="#c0c" stroke-width=".75" />
    <path d="m802.035 304.555-39.926 39.925" stroke="#00708f" stroke-width=".75" />
    <path d="m756.109 338.48 12 12" stroke="#00708f" stroke-width=".75" />
    <path d="m756.109 350.48 12-12" stroke="#00708f" stroke-width=".75" />
    <path d="m643.234 348.961 58.59 14.301" stroke="#c0c" stroke-width=".75" />
    <path d="m695.824 357.262 12 12" stroke="#c0c" stroke-width=".75" />
    <path d="m695.824 369.262 12-12" stroke="#c0c" stroke-width=".75" />
    <path d="m643.234 348.961-58.804-14.352" stroke="#00708f" stroke-width=".75" />
    <path d="m578.43 328.609 12 12" stroke="#00708f" stroke-width=".75" />
    <path d="m578.43 340.609 12-12" stroke="#00708f" stroke-width=".75" />
    <path d="m526.414 296.059 23.109 15.539" stroke="#c0c" stroke-width=".75" />
    <path d="m543.523 305.598 12 12" stroke="#c0c" stroke-width=".75" />
    <path d="m543.523 317.598 12-12" stroke="#c0c" stroke-width=".75" />
    <path d="m526.414 296.059-23.207-15.602" stroke="#00708f" stroke-width=".75" />
    <path d="m497.207 274.457 12 12" stroke="#00708f" stroke-width=".75" />
    <path d="m497.207 286.457 12-12" stroke="#00708f" stroke-width=".75" />
    <path d="m483.406 278.82 14.727-1.664" stroke="#c0c" stroke-width=".75" />
    <path d="m492.133 271.156 12 12" stroke="#c0c" stroke-width=".75" />
    <path d="m492.133 283.156 12-12" stroke="#c0c" stroke-width=".75" />
    <path d="m483.406 278.82-13.531 1.528" stroke="#00708f" stroke-width=".75" />
    <path d="m463.875 274.348 12 12" stroke="#00708f" stroke-width=".75" />
    <path d="m463.875 286.348 12-12" stroke="#00708f" stroke-width=".75" />
    <path d="m400.953 313.879 43.258-24.582" stroke="#c0c" stroke-width=".75" />
    <path d="m438.211 283.297 12 12" stroke="#c0c" stroke-width=".75" />
    <path d="m438.211 295.297 12-12" stroke="#c0c" stroke-width=".75" />
    <path d="m400.953 313.879-10.797 6.133" stroke="#00708f" stroke-width=".75" />
    <path d="m384.156 314.012 12 12" stroke="#00708f" stroke-width=".75" />
    <path d="m384.156 326.012 12-12" stroke="#00708f" stroke-width=".75" />
    <path d="m367.453 333.582 11.508-6.883" stroke="#c0c" stroke-width=".75" />
    <path d="m372.961 320.699 12 12" stroke="#c0c" stroke-width=".75" />
    <path d="m372.961 332.699 12-12" stroke="#c0c" stroke-width=".75" />
    <path d="m367.453 333.582-79.527 47.531" stroke="#00708f" stroke-width=".75" />
    <path d="m281.926 375.113 12 12" stroke="#00708f" stroke-width=".75" />
    <path d="m281.926 387.113 12-12" stroke="#00708f" stroke-width=".75" />
    <path d="m69.086 351.305 102.262 102.265" stroke="#c0c" stroke-width=".75" />
    <path d="m165.348 447.57 12 12" stroke="#c0c" stroke-width=".75" />
    <path d="m165.348 459.57 12-12" stroke="#c0c" stroke-width=".75" />
    <path d="m116.816 303.574 61.582 61.582" stroke="#00708f" stroke-width=".75" />
    <path d="m172.398 359.156 12 12" stroke="#00708f" stroke-width=".75" />
    <path d="m172.398 371.156 12-12" stroke="#00708f" stroke-width=".75" />
    <path d="m332.836 275.617-89.324 53.391" stroke="#c0c" stroke-width=".75" />
    <path d="m237.512 323.008 12 12" stroke="#c0c" stroke-width=".75" />
    <path d="m237.512 335.008 12-12" stroke="#c0c" stroke-width=".75" />
    <path d="m332.836 275.617 11.512-6.883" stroke="#00708f" stroke-width=".75" />
    <path d="m338.348 262.734 12 12" stroke="#00708f" stroke-width=".75" />
    <path d="m338.348 274.734 12-12" stroke="#00708f" stroke-width=".75" />
    <path d="m367.613 255.172-11.675 6.633" stroke="#c0c" stroke-width=".75" />
    <path d="m349.938 255.805 12 12" stroke="#c0c" stroke-width=".75" />
    <path d="m349.938 267.805 12-12" stroke="#c0c" stroke-width=".75" />
    <path d="m367.613 255.172 56.992-32.387" stroke="#00708f" stroke-width=".75" />
    <path d="m418.605 216.785 12 12" stroke="#00708f" stroke-width=".75" />
    <path d="m418.605 228.785 12-12" stroke="#00708f" stroke-width=".75" />
    <path d="m497.781 211.434-36.113-3.246" stroke="#c0c" stroke-width=".75" />
    <path d="m455.668 202.188 12 12" stroke="#c0c" stroke-width=".75" />
    <path d="m455.668 214.188 12-12" stroke="#c0c" stroke-width=".75" />
    <path d="m497.781 211.434 29.192 2.621" stroke="#00708f" stroke-width=".75" />
    <path d="m520.973 208.055 12 12" stroke="#00708f" stroke-width=".75" />
    <path d="m520.973 220.055 12-12" stroke="#00708f" stroke-width=".75" />
    <path d="m564.035 240.004-17.066-11.473" stroke="#c0c" stroke-width=".75" />
    <path d="m540.969 222.531 12 12" stroke="#c0c" stroke-width=".75" />
    <path d="m540.969 234.531 12-12" stroke="#c0c" stroke-width=".75" />
    <path d="m564.035 240.004 22.524 15.141" stroke="#00708f" stroke-width=".75" />
    <path d="m580.559 249.145 12 12" stroke="#00708f" stroke-width=".75" />
    <path d="m580.559 261.145 12-12" stroke="#00708f" stroke-width=".75" />
    <path d="m659.32 283.406-49.3-12.031" stroke="#c0c" stroke-width=".75" />
    <path d="m604.02 265.375 12 12" stroke="#c0c" stroke-width=".75" />
    <path d="m604.02 277.375 12-12" stroke="#c0c" stroke-width=".75" />
    <path d="m659.32 283.406 34.438 8.406" stroke="#00708f" stroke-width=".75" />
    <path d="m687.758 285.812 12 12" stroke="#00708f" stroke-width=".75" />
    <path d="m687.758 297.812 12-12" stroke="#00708f" stroke-width=".75" />
    <path d="m754.305 256.828-23.543 23.543" stroke="#c0c" stroke-width=".75" />
    <path d="m724.762 274.371 12 12" stroke="#c0c" stroke-width=".75" />
    <path d="m724.762 286.371 12-12" stroke="#c0c" stroke-width=".75" />
    <path d="m754.305 256.828 17.715-17.719" stroke="#00708f" stroke-width=".75" />
    <path d="m766.02 233.109 12 12" stroke="#00708f" stroke-width=".75" />
    <path d="m766.02 245.109 12-12" stroke="#00708f" stroke-width=".75" />
    <path d="m779.246 186.82 2.859 28.563" stroke="#c0c" stroke-width=".75" />
    <path d="m776.105 209.383 12 12" stroke="#c0c" stroke-width=".75" />
    <path d="m776.105 221.383 12-12" stroke="#c0c" stroke-width=".75" />
    <path d="m779.246 186.82-2.719-27.211" stroke="#00708f" stroke-width=".75" />
    <path d="m770.527 153.609 12 12" stroke="#00708f" stroke-width=".75" />
    <path d="m770.527 165.609 12-12" stroke="#00708f" stroke-width=".75" />
    <path d="m758.184 134.469 9.949 9.953" stroke="#c0c" stroke-width=".75" />
    <path d="m762.133 138.422 12 12" stroke="#c0c" stroke-width=".75" />
    <path d="m762.133 150.422 12-12" stroke="#c0c" stroke-width=".75" />
    <path d="m758.184 134.469-12.789-12.785" stroke="#00708f" stroke-width=".75" />
    <path d="m739.395 115.684 12 12" stroke="#00708f" stroke-width=".75" />
    <path d="m739.395 127.684 12-12" stroke="#00708f" stroke-width=".75" />
    <path d="m698.066 111.43 27.02 2.57" stroke="#c0c" stroke-width=".75" />
    <path d="m719.086 108 12 12" stroke="#c0c" stroke-width=".75" />
    <path d="m719.086 120 12-12" stroke="#c0c" stroke-width=".75" />
    <path d="m698.066 111.43-33.445-3.176" stroke="#00708f" stroke-width=".75" />
    <path d="m658.621 102.254 12 12" stroke="#00708f" stroke-width=".75" />
    <path d="m658.621 114.254 12-12" stroke="#00708f" stroke-width=".75" />
    <path d="m589.891 118.227 34.492-4.774" stroke="#c0c" stroke-width=".75" />
    <path d="m618.383 107.453 12 12" stroke="#c0c" stroke-width=".75" />
    <path d="m618.383 119.453 12-12" stroke="#c0c" stroke-width=".75" />
    <path d="m589.891 118.227-4.176 0.578" stroke="#00708f" stroke-width=".75" />
    <path d="m579.715 112.805 12 12" stroke="#00708f" stroke-width=".75" />
    <path d="m579.715 124.805 12-12" stroke="#00708f" stroke-width=".75" />
    <path d="m577.598 119.91 4.015-0.539" stroke="#c0c" stroke-width=".75" />
    <path d="m575.613 113.371 12 12" stroke="#c0c" stroke-width=".75" />
    <path d="m575.613 125.371 12-12" stroke="#c0c" stroke-width=".75" />
    <path d="m577.598 119.91-23.93 3.215" stroke="#00708f" stroke-width=".75" />
    <path d="m547.668 117.125 12 12" stroke="#00708f" stroke-width=".75" />
    <path d="m547.668 129.125 12-12" stroke="#00708f" stroke-width=".75" />
    <path d="m503.484 121.176 24.61 1.808" stroke="#c0c" stroke-width=".75" />
    <path d="m522.094 116.984 12 12" stroke="#c0c" stroke-width=".75" />
    <path d="m522.094 128.984 12-12" stroke="#c0c" stroke-width=".75" />
    <path d="m369.535 111.324-13.387-0.984" stroke="#00708f" stroke-width=".75" />
    <path d="m350.148 104.34 12 12" stroke="#00708f" stroke-width=".75" />
    <path d="m350.148 116.34 12-12" stroke="#00708f" stroke-width=".75" />
    <path d="m328.867 106.34 13.817 2.004" stroke="#c0c" stroke-width=".75" />
    <path d="m336.684 102.344 12 12" stroke="#c0c" stroke-width=".75" />
    <path d="m336.684 114.344 12-12" stroke="#c0c" stroke-width=".75" />
    <path d="m328.867 106.34-66.426-9.645" stroke="#00708f" stroke-width=".75" />
    <path d="m256.441 90.695 12 12" stroke="#00708f" stroke-width=".75" />
    <path d="m256.441 102.695 12-12" stroke="#00708f" stroke-width=".75" />
    <path d="m124.906 153.645 67.086-67.086" stroke="#c0c" stroke-width=".75" />
    <path d="m185.992 80.559 12 12" stroke="#c0c" stroke-width=".75" />
    <path d="m185.992 92.559 12-12" stroke="#c0c" stroke-width=".75" />
    <path d="m124.906 153.645-21.5 21.5" stroke="#00708f" stroke-width=".75" />
    <path d="m97.406 169.145 12 12" stroke="#00708f" stroke-width=".75" />
    <path d="m97.406 181.145 12-12" stroke="#00708f" stroke-width=".75" />
    <path d="m88.43 222.695 3.179-23.133" stroke="#c0c" stroke-width=".75" />
    <path d="m85.609 193.562 12 12" stroke="#c0c" stroke-width=".75" />
    <path d="m85.609 205.562 12-12" stroke="#c0c" stroke-width=".75" />
    <path d="m88.43 222.695-3.934 28.637" stroke="#00708f" stroke-width=".75" />
    <path d="m78.496 245.332 12 12" stroke="#00708f" stroke-width=".75" />
    <path d="m78.496 257.332 12-12" stroke="#00708f" stroke-width=".75" />
    <path d="m116.816 303.574-23.836-23.836" stroke="#c0c" stroke-width=".75" />
    <path d="m86.98 273.738 12 12" stroke="#c0c" stroke-width=".75" />
    <path d="m86.98 285.738 12-12" stroke="#c0c" stroke-width=".75" />
    <path
      d="m74.336 351.305c0 2.898-2.352 5.25-5.25 5.25s-5.25-2.352-5.25-5.25c0-2.899 2.352-5.25 5.25-5.25s5.25 2.351 5.25 5.25z"
      fill="#707070" />
    <g transform="matrix(-1 -.999981 .999981 -1 0 0)">
      <path d="m-210.196-146.417 5.303 2e-3" fill="none" stroke="#707070" stroke-width=".53033501" />
    </g>
    <g transform="matrix(-1 -.999981 .999981 -1 0 0)">
      <path d="m-204.893-146.415-1.59 1.589" fill="none" stroke="#707070" stroke-width=".53033501" />
    </g>
    <g transform="matrix(-1 -.999981 .999981 -1 0 0)">
      <path d="m-204.893-146.415-1.592-1.592" fill="none" stroke="#707070" stroke-width=".53033501" />
    </g>
    <path
      d="m26.824 213.449c0 2.899-2.351 5.25-5.25 5.25-2.898 0-5.25-2.351-5.25-5.25 0-2.902 2.352-5.25 5.25-5.25 2.899 0 5.25 2.348 5.25 5.25z"
      fill="#f00" />
    <path
      d="m82.426 105.914c0 2.902-2.352 5.25-5.25 5.25-2.903 0-5.25-2.348-5.25-5.25 0-2.898 2.347-5.25 5.25-5.25 2.898 0 5.25 2.352 5.25 5.25z"
      fill="#f00" />
    <path
      d="m343.879 39.559c0 2.898-2.348 5.25-5.25 5.25-2.899 0-5.25-2.352-5.25-5.25 0-2.903 2.351-5.25 5.25-5.25 2.902 0 5.25 2.347 5.25 5.25z"
      fill="#f00" />
    <path d="m374.027 50.754-6.238-7.227 7.231-6.238z" fill="#f00" />
    <path d="m508.965 47.141 6.234 7.226-7.226 6.238z" fill="#f00" />
    <path
      d="m573.805 53.031c0 2.899-2.352 5.25-5.25 5.25-2.903 0-5.25-2.351-5.25-5.25 0-2.902 2.347-5.25 5.25-5.25 2.898 0 5.25 2.348 5.25 5.25z"
      fill="#f00" />
    <path
      d="m585.828 51.383c0 2.898-2.351 5.25-5.25 5.25-2.902 0-5.25-2.352-5.25-5.25 0-2.903 2.348-5.25 5.25-5.25 2.899 0 5.25 2.347 5.25 5.25z"
      fill="#f00" />
    <path
      d="m709.75 44.246c0 2.902-2.352 5.25-5.25 5.25-2.902 0-5.25-2.348-5.25-5.25 0-2.898 2.348-5.25 5.25-5.25 2.898 0 5.25 2.352 5.25 5.25z"
      fill="#f00" />
    <path
      d="m811.16 86.738c0 2.903-2.351 5.25-5.25 5.25-2.898 0-5.25-2.347-5.25-5.25 0-2.898 2.352-5.25 5.25-5.25 2.899 0 5.25 2.352 5.25 5.25z"
      fill="#f00" />
    <path
      d="m851.648 180.055c0 2.902-2.351 5.25-5.25 5.25-2.898 0-5.25-2.348-5.25-5.25 0-2.899 2.352-5.25 5.25-5.25 2.899 0 5.25 2.351 5.25 5.25z"
      fill="#f00" />
    <path
      d="m807.285 304.555c0 2.902-2.351 5.25-5.25 5.25-2.902 0-5.25-2.348-5.25-5.25 0-2.899 2.348-5.25 5.25-5.25 2.899 0 5.25 2.351 5.25 5.25z"
      fill="#f00" />
    <path
      d="m648.484 348.961c0 2.898-2.351 5.25-5.25 5.25-2.902 0-5.25-2.352-5.25-5.25 0-2.899 2.348-5.25 5.25-5.25 2.899 0 5.25 2.351 5.25 5.25z"
      fill="#f00" />
    <path
      d="m531.664 296.059c0 2.898-2.352 5.25-5.25 5.25s-5.25-2.352-5.25-5.25c0-2.899 2.352-5.25 5.25-5.25s5.25 2.351 5.25 5.25z"
      fill="#f00" />
    <path
      d="m488.656 278.82c0 2.899-2.347 5.25-5.25 5.25-2.898 0-5.25-2.351-5.25-5.25 0-2.902 2.352-5.25 5.25-5.25 2.903 0 5.25 2.348 5.25 5.25z"
      fill="#f00" />
    <path
      d="m406.203 313.879c0 2.898-2.351 5.25-5.25 5.25-2.902 0-5.25-2.352-5.25-5.25 0-2.899 2.348-5.25 5.25-5.25 2.899 0 5.25 2.351 5.25 5.25z"
      fill="#f00" />
    <path
      d="m372.703 333.582c0 2.898-2.351 5.25-5.25 5.25-2.898 0-5.25-2.352-5.25-5.25 0-2.902 2.352-5.25 5.25-5.25 2.899 0 5.25 2.348 5.25 5.25z"
      fill="#f00" />
    <path
      d="m74.336 351.305c0 2.898-2.352 5.25-5.25 5.25s-5.25-2.352-5.25-5.25c0-2.899 2.352-5.25 5.25-5.25s5.25 2.351 5.25 5.25z"
      fill="#707070" />
    <g transform="matrix(-1 -.999981 .999981 -1 0 0)">
      <path d="m-210.196-146.417 5.303 2e-3" fill="none" stroke="#707070" stroke-width=".53033501" />
    </g>
    <g transform="matrix(-1 -.999981 .999981 -1 0 0)">
      <path d="m-204.893-146.415-1.59 1.589" fill="none" stroke="#707070" stroke-width=".53033501" />
    </g>
    <g transform="matrix(-1 -.999981 .999981 -1 0 0)">
      <path d="m-204.893-146.415-1.592-1.592" fill="none" stroke="#707070" stroke-width=".53033501" />
    </g>
    <path
      d="m122.066 303.574c0 2.903-2.351 5.25-5.25 5.25-2.898 0-5.25-2.347-5.25-5.25 0-2.898 2.352-5.25 5.25-5.25 2.899 0 5.25 2.352 5.25 5.25z"
      fill="#707070" />
    <g transform="matrix(.999976 1 -1 .999976 0 0)">
      <path d="m210.201 88.075h5.301" fill="none" stroke="#707070" stroke-width=".53033602" />
    </g>
    <g transform="matrix(.999976 1 -1 .999976 0 0)">
      <path d="m215.502 88.075-1.59 1.59" fill="none" stroke="#707070" stroke-width=".53033602" />
    </g>
    <g transform="matrix(.999976 1 -1 .999976 0 0)">
      <path d="m215.502 88.075-1.59-1.59" fill="none" stroke="#707070" stroke-width=".53033602" />
    </g>
    <path
      d="m338.086 275.617c0 2.899-2.352 5.25-5.25 5.25s-5.25-2.351-5.25-5.25c0-2.902 2.352-5.25 5.25-5.25s5.25 2.348 5.25 5.25z"
      fill="#f00" />
    <path
      d="m372.863 255.172c0 2.898-2.351 5.25-5.25 5.25-2.902 0-5.25-2.352-5.25-5.25 0-2.899 2.348-5.25 5.25-5.25 2.899 0 5.25 2.351 5.25 5.25z"
      fill="#f00" />
    <path
      d="m503.031 211.434c0 2.898-2.347 5.25-5.25 5.25-2.898 0-5.25-2.352-5.25-5.25 0-2.903 2.352-5.25 5.25-5.25 2.903 0 5.25 2.347 5.25 5.25z"
      fill="#f00" />
    <path
      d="m569.285 240.004c0 2.898-2.351 5.25-5.25 5.25-2.898 0-5.25-2.352-5.25-5.25 0-2.902 2.352-5.25 5.25-5.25 2.899 0 5.25 2.348 5.25 5.25z"
      fill="#f00" />
    <path
      d="m664.57 283.406c0 2.899-2.351 5.25-5.25 5.25-2.898 0-5.25-2.351-5.25-5.25 0-2.898 2.352-5.25 5.25-5.25 2.899 0 5.25 2.352 5.25 5.25z"
      fill="#f00" />
    <path
      d="m759.555 256.828c0 2.899-2.352 5.25-5.25 5.25-2.903 0-5.25-2.351-5.25-5.25 0-2.902 2.347-5.25 5.25-5.25 2.898 0 5.25 2.348 5.25 5.25z"
      fill="#f00" />
    <path
      d="m784.496 186.82c0 2.899-2.348 5.25-5.25 5.25-2.898 0-5.25-2.351-5.25-5.25 0-2.898 2.352-5.25 5.25-5.25 2.902 0 5.25 2.352 5.25 5.25z"
      fill="#f00" />
    <path
      d="m763.434 134.469c0 2.902-2.352 5.25-5.25 5.25-2.903 0-5.25-2.348-5.25-5.25 0-2.899 2.347-5.25 5.25-5.25 2.898 0 5.25 2.351 5.25 5.25z"
      fill="#f00" />
    <path
      d="m703.316 111.43c0 2.898-2.347 5.25-5.25 5.25-2.898 0-5.25-2.352-5.25-5.25 0-2.899 2.352-5.25 5.25-5.25 2.903 0 5.25 2.351 5.25 5.25z"
      fill="#f00" />
    <path
      d="m595.141 118.227c0 2.898-2.352 5.25-5.25 5.25-2.899 0-5.25-2.352-5.25-5.25 0-2.899 2.351-5.25 5.25-5.25 2.898 0 5.25 2.351 5.25 5.25z"
      fill="#f00" />
    <path
      d="m582.848 119.91c0 2.902-2.352 5.25-5.25 5.25-2.899 0-5.25-2.348-5.25-5.25 0-2.898 2.351-5.25 5.25-5.25 2.898 0 5.25 2.352 5.25 5.25z"
      fill="#f00" />
    <path d="m503.977 114.445 6.238 7.227-7.227 6.234z" fill="#f00" />
    <path d="m369.043 118.059-6.238-7.227 7.226-6.238z" fill="#f00" />
    <path
      d="m334.117 106.34c0 2.898-2.351 5.25-5.25 5.25-2.902 0-5.25-2.352-5.25-5.25 0-2.902 2.348-5.25 5.25-5.25 2.899 0 5.25 2.348 5.25 5.25z"
      fill="#f00" />
    <path
      d="m130.156 153.645c0 2.898-2.351 5.25-5.25 5.25-2.902 0-5.25-2.352-5.25-5.25 0-2.899 2.348-5.25 5.25-5.25 2.899 0 5.25 2.351 5.25 5.25z"
      fill="#f00" />
    <path
      d="m93.68 222.695c0 2.899-2.352 5.25-5.25 5.25-2.899 0-5.25-2.351-5.25-5.25 0-2.898 2.351-5.25 5.25-5.25 2.898 0 5.25 2.352 5.25 5.25z"
      fill="#f00" />
    <path
      d="m122.066 303.574c0 2.903-2.351 5.25-5.25 5.25-2.898 0-5.25-2.347-5.25-5.25 0-2.898 2.352-5.25 5.25-5.25 2.899 0 5.25 2.352 5.25 5.25z"
      fill="#707070" />
    <g transform="matrix(.999976 1 -1 .999976 0 0)">
      <path d="m210.201 88.075h5.301" fill="none" stroke="#707070" stroke-width=".53033602" />
    </g>
    <g transform="matrix(.999976 1 -1 .999976 0 0)">
      <path d="m215.502 88.075-1.59 1.59" fill="none" stroke="#707070" stroke-width=".53033602" />
    </g>
    <g transform="matrix(.999976 1 -1 .999976 0 0)">
      <path d="m215.502 88.075-1.59-1.59" fill="none" stroke="#707070" stroke-width=".53033602" />
    </g>
    <path
      d="m92.949 327.441c-55.887-55.89-50.875-138.699 8.09-197.66 95.707-95.707 203.891-57.043 270.992-52.109l133.946 9.851c22.921 1.688 46.539 1.707 67.097-1.054 82.75-11.11 226.278-37.77 239.746 96.969 9.055 90.542-79.547 152.757-161.543 132.746-148.808-36.321-109.14-121.356-266.996-31.657-93.621 53.192-198.238 136.004-291.332 42.914z"
      fill="none" stroke="#008000" stroke-width="1.5" />
    <path
      d="m69.086 351.305c-38.262-38.262-54.281-88.571-47.512-137.856 5.387-39.207 24.688-76.621 55.602-107.535 91.176-91.176 196.047-75.855 261.453-66.355 13.801 2.003 26.039 3.738 35.894 4.464l133.946 9.848c21.238 1.563 42.894 1.469 60.086-0.84 3.828-0.515 7.847-1.074 12.023-1.648 34.633-4.793 79.442-11.36 123.922-7.137 35.32 3.359 72.785 13.867 101.41 42.492 22.547 22.547 36.57 54.149 40.488 93.317 4.977 49.789-13.671 93.808-44.363 124.5-39.926 39.925-100.211 58.707-158.801 44.406-58.804-14.352-93.711-37.363-116.82-52.902-23.207-15.602-28.281-18.903-43.008-17.239-13.531 1.528-39.195 10.477-82.453 35.059-10.797 6.133-21.992 12.82-33.5 19.703-79.527 47.531-196.105 119.988-298.367 17.723zm47.73-47.731c61.582 61.582 126.696 25.434 216.02-27.957 11.512-6.883 23.102-13.812 34.777-20.445 56.992-32.387 94.055-46.984 130.168-43.738 29.192 2.621 49.188 17.097 66.254 28.57 22.524 15.141 45.985 31.371 95.285 43.402 34.438 8.406 71.442-3.035 94.985-26.578 17.715-17.719 27.8-41.445 24.941-70.008-2.719-27.211-11.113-42.398-21.062-52.351-12.789-12.785-33.098-20.469-60.118-23.039-33.445-3.176-73.683 2.023-108.175 6.797-4.176 0.578-8.278 1.144-12.293 1.683-23.93 3.215-49.504 3.074-74.114 1.266l-133.949-9.852c-13.387-0.984-26.851-2.98-40.668-4.984-66.426-9.645-136.875-19.781-203.961 47.305-21.5 21.5-33.297 45.917-36.476 69.05-3.934 28.637 4.55 57.043 28.386 80.879z"
      fill="#32cd32" fill-opacity=".07000002" />
    <path
      d="m69.086 351.305c-38.262-38.262-54.281-88.571-47.512-137.856 5.387-39.207 24.688-76.621 55.602-107.535 91.176-91.176 196.047-75.855 261.453-66.355 13.801 2.003 26.039 3.738 35.894 4.464l133.946 9.848c21.238 1.563 42.894 1.469 60.086-0.84 3.828-0.515 7.847-1.074 12.023-1.648 34.633-4.793 79.442-11.36 123.922-7.137 35.32 3.359 72.785 13.867 101.41 42.492 22.547 22.547 36.57 54.149 40.488 93.317 4.977 49.789-13.671 93.808-44.363 124.5-39.926 39.925-100.211 58.707-158.801 44.406-58.804-14.352-93.711-37.363-116.82-52.902-23.207-15.602-28.281-18.903-43.008-17.239-13.531 1.528-39.195 10.477-82.453 35.059-10.797 6.133-21.992 12.82-33.5 19.703-79.527 47.531-196.105 119.988-298.367 17.723zm47.73-47.731c61.582 61.582 126.696 25.434 216.02-27.957 11.512-6.883 23.102-13.812 34.777-20.445 56.992-32.387 94.055-46.984 130.168-43.738 29.192 2.621 49.188 17.097 66.254 28.57 22.524 15.141 45.985 31.371 95.285 43.402 34.438 8.406 71.442-3.035 94.985-26.578 17.715-17.719 27.8-41.445 24.941-70.008-2.719-27.211-11.113-42.398-21.062-52.351-12.789-12.785-33.098-20.469-60.118-23.039-33.445-3.176-73.683 2.023-108.175 6.797-4.176 0.578-8.278 1.144-12.293 1.683-23.93 3.215-49.504 3.074-74.114 1.266l-133.949-9.852c-13.387-0.984-26.851-2.98-40.668-4.984-66.426-9.645-136.875-19.781-203.961 47.305-21.5 21.5-33.297 45.917-36.476 69.05-3.934 28.637 4.55 57.043 28.386 80.879z"
      fill="none" stroke="#000" stroke-width="1.5" />
  </g>
</svg>