<?xml version="1.0" encoding="UTF-8"?>
<svg width="870" height="720" version="1.1" viewBox="0 0 870 720" xml:space="preserve"
  xmlns="http://www.w3.org/2000/svg" xmlns:cc="http://creativecommons.org/ns#"
  xmlns:dc="http://purl.org/dc/elements/1.1/" xmlns:rdf="http://www.w3.org/1999/02/22-rdf-syntax-ns#">
    <g transform="matrix(1.3333333,0,0,1.3333333,0,1.8e-5)">
    <path
      d="m149.25 135h-90v-90h90zm360-45c0-24.836 20.164-45 45-45s45 20.164 45 45-20.164 45-45 45-45-20.164-45-45zm-365.016 184.602-67.656 24.625-12.312-33.829 67.656-24.625zm376.188 7.71c-3.399-9.335 9-22.429 27.672-29.226s36.586-4.734 39.984 4.602c3.399 9.335-9 22.433-27.672 29.226-18.672 6.797-36.586 4.734-39.984-4.602zm-327.078 104.047-152.735 152.735-25.453-25.453 152.735-152.735zm284.539 140.008c-7.024-7.023 21.492-46.945 63.64-89.094 42.149-42.148 82.071-70.664 89.094-63.64 7.024 7.023-21.492 46.945-63.64 89.094-42.149 42.148-82.071 70.664-89.094 63.64z"
      fill="none" stroke="#008000" stroke-width="1.5" /><text transform="translate(59.982422,22.5)" fill="#000000"
      font-family="'DejaVu Sans'" font-size="15px">
      <tspan
        x="0 10.47 19.65 23.805 27.959999 32.115002 41.625 47.790001 56.970001 66.480003 75.974998 80.129997 462.68555 472.15054 476.30554 480.46054 484.61554 494.12555 500.00555 504.16055 512.39557 521.57556"
        y="0">CalligraphicElliptical</tspan>
      <tspan
        x="149.38477 163.87476 168.02975 177.53976 183.41975 192.91476 197.95476 202.70976 212.29475 221.83476 226.58977 231.34476 242.60976 251.83476 255.98976 265.49976 274.99475 280.87476 285.95975 290.71475 300.25476 309.79477 314.54977 319.34976 329.60977 339.10477 348.61475 352.76974 361.99475 367.03476 371.78976 381.32977"
        y="75">Width: 50, Height: 50, Angle: 0°</tspan>
      <tspan
        x="144.60938 159.09938 163.25438 172.76437 178.64438 188.13937 193.17938 197.93437 207.51938 217.05937 221.81438 226.56938 237.83438 247.05937 251.21437 260.72437 270.21936 276.09937 281.18439 285.93936 295.47937 305.01938 309.77438 314.57437 324.83438 334.32938 343.83939 347.99438 357.21936 362.25937 367.01437 376.55438 386.09436"
        y="251.25">Width: 40, Height: 20, Angle: 25°</tspan>
      <tspan
        x="139.83398 154.32399 158.47899 167.98898 173.86899 183.36398 193.20399 202.74399 212.284 221.82399 231.394 242.659 251.88399 256.039 265.54898 275.04398 280.92398 290.76398 300.30399 309.84399 319.39899 329.659 339.15399 348.664 352.819 362.04398 371.86899 381.409 390.94901"
        y="427.5">Width:120,Height:20,Angle:45°</tspan>
    </text>
  </g>
</svg>