<?xml version="1.0" encoding="UTF-8"?>
<svg width="804" height="516" version="1.1" viewBox="0 0 804 516" xml:space="preserve"
  xmlns="http://www.w3.org/2000/svg" xmlns:cc="http://creativecommons.org/ns#"
  xmlns:dc="http://purl.org/dc/elements/1.1/" xmlns:rdf="http://www.w3.org/1999/02/22-rdf-syntax-ns#">
    <g transform="matrix(1.3333333,0,0,1.3333333,0,1.29e-5)">
    <path d="m289.949 357 12.242-71.508" stroke="#00708f" stroke-width=".75" />
    <path d="m296.191 279.492 12 12" stroke="#00708f" stroke-width=".75" />
    <path d="m296.191 291.492 12-12" stroke="#00708f" stroke-width=".75" />
    <path d="m350.105 151.41-27.546 65.254" stroke="#c0c" stroke-width=".75" />
    <path d="m316.559 210.664 12 12" stroke="#c0c" stroke-width=".75" />
    <path d="m316.559 222.664 12-12" stroke="#c0c" stroke-width=".75" />
    <path d="m285.449 352.5h9v9h-9z" fill="#707070" />
    <g transform="matrix(.171208 -1 1 .171208 0 0)">
      <path d="m-298.606 333.678 7.391 1e-3" fill="none" stroke="#707070" stroke-width=".73924398" />
    </g>
    <g transform="matrix(.171208 -1 1 .171208 0 0)">
      <path d="m-291.215 333.679-2.214 2.218" fill="none" stroke="#707070" stroke-width=".73924398" />
    </g>
    <g transform="matrix(.171208 -1 1 .171208 0 0)">
      <path d="m-291.215 333.679-2.216-2.215" fill="none" stroke="#707070" stroke-width=".73924398" />
    </g>
    <path d="m345.605 146.91h9v9h-9z" fill="#bf0080" />
    <path d="m237.793 315h9v9h-9z" fill="#bf0080" />
    <path d="m372.621 67.5h9v9h-9z" fill="#bf0080" />
    <path
      d="m406.469 265.465 82.855-152.106c8.828-16.214 26.141-27.3 46.02-27.3 28.945 0 52.445 23.5 52.445 52.441 0 9.062-2.305 17.594-6.359 25.035-21.309 39.121-49.047 84.215-81.848 130.199-2.164 3.036-4.336 6.055-6.52 9.059-8.523 11.75-22.367 19.398-37.984 19.398-25.887 0-46.902-21.015-46.902-46.902 0-6.453 1.308-12.605 3.683-18.227zm-370.469 91.535c-21.062-15.027 14.039-100.406 78.344-190.555 64.301-90.144 133.601-151.136 154.664-136.113 21.062 15.027-14.043 100.41-78.344 190.555-64.297 90.148-133.602 151.136-154.664 136.113zm457.949-142.5c-10.433 19.156-22.086 37.648-34.902 55.312"
      fill="none" stroke="#008000" stroke-width="1.5" />
    <path d="m289.949 357c12.242-71.508 32.61-140.336 60.156-205.59l-107.812 168.09 134.828-247.5" fill="none"
      stroke="#600" stroke-width="1.5" />
  </g>
</svg>