<?xml version="1.0" encoding="UTF-8"?>
<svg width="1071" height="483" version="1.1" viewBox="0 0 1071 483" xml:space="preserve"
  xmlns="http://www.w3.org/2000/svg" xmlns:cc="http://creativecommons.org/ns#"
  xmlns:dc="http://purl.org/dc/elements/1.1/" xmlns:rdf="http://www.w3.org/1999/02/22-rdf-syntax-ns#">
    <g transform="matrix(1.3333333,0,0,1.3333333,0,1.2075e-5)">
    <path d="m250.648 309.602 10.801-8.102" stroke="#00708f" stroke-width=".75" />
    <path d="m255.449 295.5 12 12" stroke="#00708f" stroke-width=".75" />
    <path d="m255.449 307.5 12-12" stroke="#00708f" stroke-width=".75" />
    <path d="m272.25 272.699v16.676" fill="none" stroke="#c0c" stroke-width=".75" />
    <path d="m266.25 283.375 12 12" stroke="#c0c" stroke-width=".75" />
    <path d="m266.25 295.375 12-12" stroke="#c0c" stroke-width=".75" />
    <path d="m272.25 272.699v-81" fill="none" stroke="#00708f" stroke-width=".75" />
    <path d="m266.25 185.699 12 12" stroke="#00708f" stroke-width=".75" />
    <path d="m266.25 197.699 12-12" stroke="#00708f" stroke-width=".75" />
    <path d="m245.25 67.5v82.801" fill="none" stroke="#c0c" stroke-width=".75" />
    <path d="m239.25 144.301 12 12" stroke="#c0c" stroke-width=".75" />
    <path d="m239.25 156.301 12-12" stroke="#c0c" stroke-width=".75" />
    <path d="m245.25 67.5v-18.906" fill="none" stroke="#00708f" stroke-width=".75" />
    <path d="m239.25 42.594 12 12" stroke="#00708f" stroke-width=".75" />
    <path d="m239.25 54.594 12-12" stroke="#00708f" stroke-width=".75" />
    <path d="m266.398 27.898-11.25 9" stroke="#c0c" stroke-width=".75" />
    <path d="m249.148 30.898 12 12" stroke="#c0c" stroke-width=".75" />
    <path d="m249.148 42.898 12-12" stroke="#c0c" stroke-width=".75" />
    <path d="m14.852 166.5v-77.852" fill="none" stroke="#00708f" stroke-width=".75" />
    <path d="m8.852 82.648 12 12" stroke="#00708f" stroke-width=".75" />
    <path d="m8.852 94.648 12-12" stroke="#00708f" stroke-width=".75" />
    <path d="m99.449 25.199h-46.801" fill="none" stroke="#c0c" stroke-width=".75" />
    <path d="m46.648 19.199 12 12" stroke="#c0c" stroke-width=".75" />
    <path d="m46.648 31.199 12-12" stroke="#c0c" stroke-width=".75" />
    <path d="m99.449 25.199h46.801" fill="none" stroke="#00708f" stroke-width=".75" />
    <path d="m140.25 19.199 12 12" stroke="#00708f" stroke-width=".75" />
    <path d="m140.25 31.199 12-12" stroke="#00708f" stroke-width=".75" />
    <path d="m184.051 166.5v-77.852" fill="none" stroke="#c0c" stroke-width=".75" />
    <path d="m178.051 82.648 12 12" stroke="#c0c" stroke-width=".75" />
    <path d="m178.051 94.648 12-12" stroke="#c0c" stroke-width=".75" />
    <path d="m184.051 166.5v77.852" fill="none" stroke="#00708f" stroke-width=".75" />
    <path d="m178.051 238.352 12 12" stroke="#00708f" stroke-width=".75" />
    <path d="m178.051 250.352 12-12" stroke="#00708f" stroke-width=".75" />
    <path d="m99.449 307.801h46.801" fill="none" stroke="#c0c" stroke-width=".75" />
    <path d="m140.25 301.801 12 12" stroke="#c0c" stroke-width=".75" />
    <path d="m140.25 313.801 12-12" stroke="#c0c" stroke-width=".75" />
    <path d="m99.449 307.801h-46.801" fill="none" stroke="#00708f" stroke-width=".75" />
    <path d="m46.648 301.801 12 12" stroke="#00708f" stroke-width=".75" />
    <path d="m46.648 313.801 12-12" stroke="#00708f" stroke-width=".75" />
    <path d="m14.852 166.5v77.852" fill="none" stroke="#c0c" stroke-width=".75" />
    <path d="m8.852 238.352 12 12" stroke="#c0c" stroke-width=".75" />
    <path d="m8.852 250.352 12-12" stroke="#c0c" stroke-width=".75" />
    <path d="m748.801 308.238v4.598" fill="none" stroke="#00708f" stroke-width=".75" />
    <path d="m742.801 306.836 12 12" stroke="#00708f" stroke-width=".75" />
    <path d="m742.801 318.836 12-12" stroke="#00708f" stroke-width=".75" />
    <path d="m757.789 317.25h-5.148" fill="none" stroke="#c0c" stroke-width=".75" />
    <path d="m746.641 311.25 12 12" stroke="#c0c" stroke-width=".75" />
    <path d="m746.641 323.25 12-12" stroke="#c0c" stroke-width=".75" />
    <path d="m757.789 317.25h1.93" fill="none" stroke="#00708f" stroke-width=".75" />
    <path d="m753.719 311.25 12 12" stroke="#00708f" stroke-width=".75" />
    <path d="m753.719 323.25 12-12" stroke="#00708f" stroke-width=".75" />
    <path d="m763.203 315.449-1.574 1.184" stroke="#c0c" stroke-width=".75" />
    <path d="m755.629 310.633 12 12" stroke="#c0c" stroke-width=".75" />
    <path d="m755.629 322.633 12-12" stroke="#c0c" stroke-width=".75" />
    <path d="m763.203 315.449 11.938-8.953" stroke="#00708f" stroke-width=".75" />
    <path d="m769.141 300.496 12 12" stroke="#00708f" stroke-width=".75" />
    <path d="m769.141 312.496 12-12" stroke="#00708f" stroke-width=".75" />
    <path d="m788.398 271.359v20.645" fill="none" stroke="#c0c" stroke-width=".75" />
    <path d="m782.398 286.004 12 12" stroke="#c0c" stroke-width=".75" />
    <path d="m782.398 298.004 12-12" stroke="#c0c" stroke-width=".75" />
    <path d="m788.398 271.359v-82.211" fill="none" stroke="#00708f" stroke-width=".75" />
    <path d="m782.398 183.148 12 12" stroke="#00708f" stroke-width=".75" />
    <path d="m782.398 195.148 12-12" stroke="#00708f" stroke-width=".75" />
    <path d="m761.398 66.16v81.61" fill="none" stroke="#c0c" stroke-width=".75" />
    <path d="m755.398 141.77 12 12" stroke="#c0c" stroke-width=".75" />
    <path d="m755.398 153.77 12-12" stroke="#c0c" stroke-width=".75" />
    <path d="m761.398 66.16v-8.918" fill="none" stroke="#00708f" stroke-width=".75" />
    <path d="m755.398 51.242 12 12" stroke="#00708f" stroke-width=".75" />
    <path d="m755.398 63.242 12-12" stroke="#00708f" stroke-width=".75" />
    <path d="m767.84 45.172-3.918 5.598" stroke="#c0c" stroke-width=".75" />
    <path d="m757.922 44.77 12 12" stroke="#c0c" stroke-width=".75" />
    <path d="m757.922 56.77 12-12" stroke="#c0c" stroke-width=".75" />
    <path d="m767.84 45.172 2.969-4.238" stroke="#00708f" stroke-width=".75" />
    <path d="m764.809 34.934 12 12" stroke="#00708f" stroke-width=".75" />
    <path d="m764.809 46.934 12-12" stroke="#00708f" stroke-width=".75" />
    <path d="m779.172 33.578-4.434 3.547" stroke="#c0c" stroke-width=".75" />
    <path d="m768.738 31.125 12 12" stroke="#c0c" stroke-width=".75" />
    <path d="m768.738 43.125 12-12" stroke="#c0c" stroke-width=".75" />
    <path d="m779.172 33.578 1.848-1.476" stroke="#00708f" stroke-width=".75" />
    <path d="m775.02 26.102 12 12" stroke="#00708f" stroke-width=".75" />
    <path d="m775.02 38.102 12-12" stroke="#00708f" stroke-width=".75" />
    <path d="m782.551 26.559v2.812" fill="none" stroke="#c0c" stroke-width=".75" />
    <path d="m776.551 23.371 12 12" stroke="#c0c" stroke-width=".75" />
    <path d="m776.551 35.371 12-12" stroke="#c0c" stroke-width=".75" />
    <path d="m782.551 26.559v-4.594" fill="none" stroke="#00708f" stroke-width=".75" />
    <path d="m776.551 15.965 12 12" stroke="#00708f" stroke-width=".75" />
    <path d="m776.551 27.965 12-12" stroke="#00708f" stroke-width=".75" />
    <path d="m773.559 17.551h5.148" fill="none" stroke="#c0c" stroke-width=".75" />
    <path d="m772.707 11.551 12 12" stroke="#c0c" stroke-width=".75" />
    <path d="m772.707 23.551 12-12" stroke="#c0c" stroke-width=".75" />
    <path d="m773.559 17.551h-2.02" fill="none" stroke="#00708f" stroke-width=".75" />
    <path d="m765.539 11.551 12 12" stroke="#00708f" stroke-width=".75" />
    <path d="m765.539 23.551 12-12" stroke="#00708f" stroke-width=".75" />
    <path d="m767.926 19.52 1.617-1.29" stroke="#c0c" stroke-width=".75" />
    <path d="m763.543 12.23 12 12" stroke="#c0c" stroke-width=".75" />
    <path d="m763.543 24.23 12-12" stroke="#c0c" stroke-width=".75" />
    <path d="m767.926 19.52-12.492 9.996" stroke="#00708f" stroke-width=".75" />
    <path d="m749.434 23.516 12 12" stroke="#00708f" stroke-width=".75" />
    <path d="m749.434 35.516 12-12" stroke="#00708f" stroke-width=".75" />
    <path d="m743.402 66.141v-22.188" fill="none" stroke="#c0c" stroke-width=".75" />
    <path d="m737.402 37.953 12 12" stroke="#c0c" stroke-width=".75" />
    <path d="m737.402 49.953 12-12" stroke="#c0c" stroke-width=".75" />
    <path d="m743.402 66.141v42.629" fill="none" stroke="#00708f" stroke-width=".75" />
    <path d="m737.402 102.77 12 12" stroke="#00708f" stroke-width=".75" />
    <path d="m737.402 114.77 12-12" stroke="#00708f" stroke-width=".75" />
    <path d="m757.223 171.859-6.782-30.968" stroke="#c0c" stroke-width=".75" />
    <path d="m744.441 134.891 12 12" stroke="#c0c" stroke-width=".75" />
    <path d="m744.441 146.891 12-12" stroke="#c0c" stroke-width=".75" />
    <path d="m757.223 171.859 6.718 30.68" stroke="#00708f" stroke-width=".75" />
    <path d="m757.941 196.539 12 12" stroke="#00708f" stroke-width=".75" />
    <path d="m757.941 208.539 12-12" stroke="#00708f" stroke-width=".75" />
    <path d="m770.402 271.34v-39.262" fill="none" stroke="#c0c" stroke-width=".75" />
    <path d="m764.402 226.078 12 12" stroke="#c0c" stroke-width=".75" />
    <path d="m764.402 238.078 12-12" stroke="#c0c" stroke-width=".75" />
    <path d="m770.402 271.34v13.801" fill="none" stroke="#00708f" stroke-width=".75" />
    <path d="m764.402 279.141 12 12" stroke="#00708f" stroke-width=".75" />
    <path d="m764.402 291.141 12-12" stroke="#00708f" stroke-width=".75" />
    <path d="m752.398 301.051 8.473-6.356" stroke="#c0c" stroke-width=".75" />
    <path d="m754.871 288.695 12 12" stroke="#c0c" stroke-width=".75" />
    <path d="m754.871 300.695 12-12" stroke="#c0c" stroke-width=".75" />
    <path d="m752.398 301.051-1.957 1.465" stroke="#00708f" stroke-width=".75" />
    <path d="m744.441 296.516 12 12" stroke="#00708f" stroke-width=".75" />
    <path d="m744.441 308.516 12-12" stroke="#00708f" stroke-width=".75" />
    <path d="m748.801 308.238v-2.933" fill="none" stroke="#c0c" stroke-width=".75" />
    <path d="m742.801 299.305 12 12" stroke="#c0c" stroke-width=".75" />
    <path d="m742.801 311.305 12-12" stroke="#c0c" stroke-width=".75" />
    <path d="m531 165.16v56.707" fill="none" stroke="#00708f" stroke-width=".75" />
    <path d="m525 215.867 12 12" stroke="#00708f" stroke-width=".75" />
    <path d="m525 227.867 12-12" stroke="#00708f" stroke-width=".75" />
    <path d="m579.094 288.152-26.946-18.863" stroke="#c0c" stroke-width=".75" />
    <path d="m546.148 263.289 12 12" stroke="#c0c" stroke-width=".75" />
    <path d="m546.148 275.289 12-12" stroke="#c0c" stroke-width=".75" />
    <path d="m579.094 288.152 8.769 6.145" stroke="#00708f" stroke-width=".75" />
    <path d="m581.863 288.297 12 12" stroke="#00708f" stroke-width=".75" />
    <path d="m581.863 300.297 12-12" stroke="#00708f" stroke-width=".75" />
    <path d="m606.609 297.453h-9.519" fill="none" stroke="#c0c" stroke-width=".75" />
    <path d="m591.09 291.453 12 12" stroke="#c0c" stroke-width=".75" />
    <path d="m591.09 303.453 12-12" stroke="#c0c" stroke-width=".75" />
    <path d="m606.609 297.453h17.051" fill="none" stroke="#00708f" stroke-width=".75" />
    <path d="m617.66 291.453 12 12" stroke="#00708f" stroke-width=".75" />
    <path d="m617.66 303.453 12-12" stroke="#00708f" stroke-width=".75" />
    <path d="m654.16 267.438-13.742 19.621" stroke="#c0c" stroke-width=".75" />
    <path d="m634.418 281.059 12 12" stroke="#c0c" stroke-width=".75" />
    <path d="m634.418 293.059 12-12" stroke="#c0c" stroke-width=".75" />
    <path d="m654.16 267.438 16.817-24.02" stroke="#00708f" stroke-width=".75" />
    <path d="m664.977 237.418 12 12" stroke="#00708f" stroke-width=".75" />
    <path d="m664.977 249.418 12-12" stroke="#00708f" stroke-width=".75" />
    <path d="m682.203 165.141v41.375" fill="none" stroke="#c0c" stroke-width=".75" />
    <path d="m676.203 200.516 12 12" stroke="#c0c" stroke-width=".75" />
    <path d="m676.203 212.516 12-12" stroke="#c0c" stroke-width=".75" />
    <path d="m682.203 165.141v-56.711" fill="none" stroke="#00708f" stroke-width=".75" />
    <path d="m676.203 102.43 12 12" stroke="#00708f" stroke-width=".75" />
    <path d="m676.203 114.43 12-12" stroke="#00708f" stroke-width=".75" />
    <path d="m634.109 42.148 26.942 18.864" stroke="#c0c" stroke-width=".75" />
    <path d="m655.051 55.012 12 12" stroke="#c0c" stroke-width=".75" />
    <path d="m655.051 67.012 12-12" stroke="#c0c" stroke-width=".75" />
    <path d="m634.109 42.148-8.773-6.144" stroke="#00708f" stroke-width=".75" />
    <path d="m619.336 30.004 12 12" stroke="#00708f" stroke-width=".75" />
    <path d="m619.336 42.004 12-12" stroke="#00708f" stroke-width=".75" />
    <path d="m606.59 32.848h9.519" fill="none" stroke="#c0c" stroke-width=".75" />
    <path d="m610.109 26.848 12 12" stroke="#c0c" stroke-width=".75" />
    <path d="m610.109 38.848 12-12" stroke="#c0c" stroke-width=".75" />
    <path d="m606.59 32.848h-17.047" fill="none" stroke="#00708f" stroke-width=".75" />
    <path d="m583.543 26.848 12 12" stroke="#00708f" stroke-width=".75" />
    <path d="m583.543 38.848 12-12" stroke="#00708f" stroke-width=".75" />
    <path d="m559.043 62.863 13.738-19.621" stroke="#c0c" stroke-width=".75" />
    <path d="m566.781 37.242 12 12" stroke="#c0c" stroke-width=".75" />
    <path d="m566.781 49.242 12-12" stroke="#c0c" stroke-width=".75" />
    <path d="m559.043 62.863-16.82 24.02" stroke="#00708f" stroke-width=".75" />
    <path d="m536.223 80.883 12 12" stroke="#00708f" stroke-width=".75" />
    <path d="m536.223 92.883 12-12" stroke="#00708f" stroke-width=".75" />
    <path d="m531 165.16v-41.375" fill="none" stroke="#c0c" stroke-width=".75" />
    <path d="m525 117.785 12 12" stroke="#c0c" stroke-width=".75" />
    <path d="m525 129.785 12-12" stroke="#c0c" stroke-width=".75" />
    <path d="m513 165.141v-44.512" fill="none" stroke="#00708f" stroke-width=".75" />
    <path d="m507 114.629 12 12" stroke="#00708f" stroke-width=".75" />
    <path d="m507 126.629 12-12" stroke="#00708f" stroke-width=".75" />
    <path d="m544.297 52.539-19.516 27.875" stroke="#c0c" stroke-width=".75" />
    <path d="m518.781 74.414 12 12" stroke="#c0c" stroke-width=".75" />
    <path d="m518.781 86.414 12-12" stroke="#c0c" stroke-width=".75" />
    <path d="m544.297 52.539 15.801-22.562" stroke="#00708f" stroke-width=".75" />
    <path d="m554.098 23.977 12 12" stroke="#00708f" stroke-width=".75" />
    <path d="m554.098 35.977 12-12" stroke="#00708f" stroke-width=".75" />
    <path d="m606.609 14.852h-24.921" fill="none" stroke="#c0c" stroke-width=".75" />
    <path d="m575.688 8.852 12 12" stroke="#c0c" stroke-width=".75" />
    <path d="m575.688 20.852 12-12" stroke="#c0c" stroke-width=".75" />
    <path d="m606.609 14.852h13.657" fill="none" stroke="#00708f" stroke-width=".75" />
    <path d="m614.266 8.852 12 12" stroke="#00708f" stroke-width=".75" />
    <path d="m614.266 20.852 12-12" stroke="#00708f" stroke-width=".75" />
    <path d="m644.434 27.402-11.325-7.925" stroke="#c0c" stroke-width=".75" />
    <path d="m627.109 13.477 12 12" stroke="#c0c" stroke-width=".75" />
    <path d="m627.109 25.477 12-12" stroke="#c0c" stroke-width=".75" />
    <path d="m644.434 27.402 34.117 23.891" stroke="#00708f" stroke-width=".75" />
    <path d="m672.551 45.293 12 12" stroke="#00708f" stroke-width=".75" />
    <path d="m672.551 57.293 12-12" stroke="#00708f" stroke-width=".75" />
    <path d="m700.199 165.16v-60.441" fill="none" stroke="#c0c" stroke-width=".75" />
    <path d="m694.199 98.719 12 12" stroke="#c0c" stroke-width=".75" />
    <path d="m694.199 110.719 12-12" stroke="#c0c" stroke-width=".75" />
    <path d="m700.199 165.16v44.508" fill="none" stroke="#00708f" stroke-width=".75" />
    <path d="m694.199 203.668 12 12" stroke="#00708f" stroke-width=".75" />
    <path d="m694.199 215.668 12-12" stroke="#00708f" stroke-width=".75" />
    <path d="m668.902 277.762 19.52-27.875" stroke="#c0c" stroke-width=".75" />
    <path d="m682.422 243.887 12 12" stroke="#c0c" stroke-width=".75" />
    <path d="m682.422 255.887 12-12" stroke="#c0c" stroke-width=".75" />
    <path d="m668.902 277.762-15.797 22.562" stroke="#00708f" stroke-width=".75" />
    <path d="m647.105 294.324 12 12" stroke="#00708f" stroke-width=".75" />
    <path d="m647.105 306.324 12-12" stroke="#00708f" stroke-width=".75" />
    <path d="m606.59 315.449h24.922" fill="none" stroke="#c0c" stroke-width=".75" />
    <path d="m625.512 309.449 12 12" stroke="#c0c" stroke-width=".75" />
    <path d="m625.512 321.449 12-12" stroke="#c0c" stroke-width=".75" />
    <path d="m606.59 315.449h-13.656" fill="none" stroke="#00708f" stroke-width=".75" />
    <path d="m586.934 309.449 12 12" stroke="#00708f" stroke-width=".75" />
    <path d="m586.934 321.449 12-12" stroke="#00708f" stroke-width=".75" />
    <path d="m568.77 302.898 11.32 7.926" stroke="#c0c" stroke-width=".75" />
    <path d="m574.09 304.824 12 12" stroke="#c0c" stroke-width=".75" />
    <path d="m574.09 316.824 12-12" stroke="#c0c" stroke-width=".75" />
    <path d="m568.77 302.898-34.122-23.89" stroke="#00708f" stroke-width=".75" />
    <path d="m528.648 273.008 12 12" stroke="#00708f" stroke-width=".75" />
    <path d="m528.648 285.008 12-12" stroke="#00708f" stroke-width=".75" />
    <path d="m513 165.141v60.441" fill="none" stroke="#c0c" stroke-width=".75" />
    <path d="m507 219.582 12 12" stroke="#c0c" stroke-width=".75" />
    <path d="m507 231.582 12-12" stroke="#c0c" stroke-width=".75" />
    <path
      d="m255.898 309.602c0 2.898-2.347 5.25-5.25 5.25-2.898 0-5.25-2.352-5.25-5.25 0-2.903 2.352-5.25 5.25-5.25 2.903 0 5.25 2.347 5.25 5.25z"
      fill="#707070" />
    <g transform="matrix(1 -.750017 .750017 1 0 0)">
      <path d="m11.803 312.454h6" fill="none" stroke="#707070" stroke-width=".59999502" />
    </g>
    <g transform="matrix(1 -.750017 .750017 1 0 0)">
      <path d="m17.803 312.454-1.799 1.799" fill="none" stroke="#707070" stroke-width=".59999502" />
    </g>
    <g transform="matrix(1 -.750017 .750017 1 0 0)">
      <path d="m17.803 312.454-1.798-1.801" fill="none" stroke="#707070" stroke-width=".59999502" />
    </g>
    <path
      d="m277.5 272.699c0 2.899-2.352 5.25-5.25 5.25s-5.25-2.351-5.25-5.25c0-2.898 2.352-5.25 5.25-5.25s5.25 2.352 5.25 5.25z"
      fill="#bf0080" />
    <path d="m250.5 67.5c0 2.898-2.352 5.25-5.25 5.25s-5.25-2.352-5.25-5.25 2.352-5.25 5.25-5.25 5.25 2.352 5.25 5.25z"
      fill="#bf0080" />
    <path
      d="m271.648 27.898c0 2.903-2.347 5.25-5.25 5.25-2.898 0-5.25-2.347-5.25-5.25 0-2.898 2.352-5.25 5.25-5.25 2.903 0 5.25 2.352 5.25 5.25z"
      fill="#bf0080" />
    <path
      d="m20.102 166.5c0 2.898-2.352 5.25-5.25 5.25-2.903 0-5.25-2.352-5.25-5.25s2.347-5.25 5.25-5.25c2.898 0 5.25 2.352 5.25 5.25z"
      fill="#707070" />
    <g transform="rotate(-90)">
      <path d="m-166.5 7.352h7.5" fill="none" stroke="#707070" stroke-width=".75" />
    </g>
    <g transform="rotate(-90)">
      <path d="m-159 7.352-2.25 2.25" fill="none" stroke="#707070" stroke-width=".75" />
    </g>
    <g transform="rotate(-90)">
      <path d="m-159 7.352-2.25-2.25" fill="none" stroke="#707070" stroke-width=".75" />
    </g>
    <path
      d="m104.699 25.199c0 2.899-2.351 5.25-5.25 5.25-2.898 0-5.25-2.351-5.25-5.25 0-2.898 2.352-5.25 5.25-5.25 2.899 0 5.25 2.352 5.25 5.25z"
      fill="#bf0080" />
    <path
      d="m189.301 166.5c0 2.898-2.352 5.25-5.25 5.25-2.899 0-5.25-2.352-5.25-5.25s2.351-5.25 5.25-5.25c2.898 0 5.25 2.352 5.25 5.25z"
      fill="#bf0080" />
    <path
      d="m104.699 307.801c0 2.898-2.351 5.25-5.25 5.25-2.898 0-5.25-2.352-5.25-5.25 0-2.899 2.352-5.25 5.25-5.25 2.899 0 5.25 2.351 5.25 5.25z"
      fill="#bf0080" />
    <path
      d="m20.102 166.5c0 2.898-2.352 5.25-5.25 5.25-2.903 0-5.25-2.352-5.25-5.25s2.347-5.25 5.25-5.25c2.898 0 5.25 2.352 5.25 5.25z"
      fill="#707070" />
    <g transform="rotate(-90)">
      <path d="m-166.5 7.352h7.5" fill="none" stroke="#707070" stroke-width=".75" />
    </g>
    <g transform="rotate(-90)">
      <path d="m-159 7.352-2.25 2.25" fill="none" stroke="#707070" stroke-width=".75" />
    </g>
    <g transform="rotate(-90)">
      <path d="m-159 7.352-2.25-2.25" fill="none" stroke="#707070" stroke-width=".75" />
    </g>
    <path
      d="m754.051 308.238c0 2.903-2.352 5.25-5.25 5.25-2.899 0-5.25-2.347-5.25-5.25 0-2.898 2.351-5.25 5.25-5.25 2.898 0 5.25 2.352 5.25 5.25z"
      fill="#707070" />
    <g transform="rotate(90)">
      <path d="m308.238-756.301h7.5" fill="none" stroke="#707070" stroke-width=".75" />
    </g>
    <g transform="rotate(90)">
      <path d="m315.738-756.301-2.25 2.25" fill="none" stroke="#707070" stroke-width=".75" />
    </g>
    <g transform="rotate(90)">
      <path d="m315.738-756.301-2.25-2.25" fill="none" stroke="#707070" stroke-width=".75" />
    </g>
    <path
      d="m763.039 317.25c0 2.898-2.348 5.25-5.25 5.25-2.898 0-5.25-2.352-5.25-5.25s2.352-5.25 5.25-5.25c2.902 0 5.25 2.352 5.25 5.25z"
      fill="#bf0080" />
    <path
      d="m768.453 315.449c0 2.903-2.351 5.25-5.25 5.25-2.898 0-5.25-2.347-5.25-5.25 0-2.898 2.352-5.25 5.25-5.25 2.899 0 5.25 2.352 5.25 5.25z"
      fill="#f00" />
    <path
      d="m793.648 271.359c0 2.899-2.347 5.25-5.25 5.25-2.898 0-5.25-2.351-5.25-5.25 0-2.898 2.352-5.25 5.25-5.25 2.903 0 5.25 2.352 5.25 5.25z"
      fill="#bf0080" />
    <path
      d="m766.648 66.16c0 2.899-2.347 5.25-5.25 5.25-2.898 0-5.25-2.351-5.25-5.25 0-2.898 2.352-5.25 5.25-5.25 2.903 0 5.25 2.352 5.25 5.25z"
      fill="#bf0080" />
    <path
      d="m773.09 45.172c0 2.902-2.352 5.25-5.25 5.25-2.899 0-5.25-2.348-5.25-5.25 0-2.899 2.351-5.25 5.25-5.25 2.898 0 5.25 2.351 5.25 5.25z"
      fill="#f00" />
    <path
      d="m784.422 33.578c0 2.902-2.348 5.25-5.25 5.25-2.899 0-5.25-2.348-5.25-5.25 0-2.898 2.351-5.25 5.25-5.25 2.902 0 5.25 2.352 5.25 5.25z"
      fill="#f00" />
    <path
      d="m787.801 26.559c0 2.902-2.352 5.25-5.25 5.25-2.903 0-5.25-2.348-5.25-5.25 0-2.899 2.347-5.25 5.25-5.25 2.898 0 5.25 2.351 5.25 5.25z"
      fill="#bf0080" />
    <path
      d="m778.809 17.551c0 2.898-2.348 5.25-5.25 5.25-2.899 0-5.25-2.352-5.25-5.25 0-2.899 2.351-5.25 5.25-5.25 2.902 0 5.25 2.351 5.25 5.25z"
      fill="#bf0080" />
    <path
      d="m773.176 19.52c0 2.902-2.348 5.25-5.25 5.25-2.899 0-5.25-2.348-5.25-5.25 0-2.899 2.351-5.25 5.25-5.25 2.902 0 5.25 2.351 5.25 5.25z"
      fill="#f00" />
    <path
      d="m748.652 66.141c0 2.898-2.351 5.25-5.25 5.25-2.902 0-5.25-2.352-5.25-5.25 0-2.899 2.348-5.25 5.25-5.25 2.899 0 5.25 2.351 5.25 5.25z"
      fill="#bf0080" />
    <path
      d="m762.473 171.859c0 2.903-2.352 5.25-5.25 5.25-2.903 0-5.25-2.347-5.25-5.25 0-2.898 2.347-5.25 5.25-5.25 2.898 0 5.25 2.352 5.25 5.25z"
      fill="#f00" />
    <path
      d="m775.652 271.34c0 2.898-2.351 5.25-5.25 5.25-2.902 0-5.25-2.352-5.25-5.25 0-2.899 2.348-5.25 5.25-5.25 2.899 0 5.25 2.351 5.25 5.25z"
      fill="#bf0080" />
    <path
      d="m757.648 301.051c0 2.898-2.351 5.25-5.25 5.25-2.902 0-5.25-2.352-5.25-5.25 0-2.903 2.348-5.25 5.25-5.25 2.899 0 5.25 2.347 5.25 5.25z"
      fill="#f00" />
    <path
      d="m754.051 308.238c0 2.903-2.352 5.25-5.25 5.25-2.899 0-5.25-2.347-5.25-5.25 0-2.898 2.351-5.25 5.25-5.25 2.898 0 5.25 2.352 5.25 5.25z"
      fill="#707070" />
    <g transform="rotate(90)">
      <path d="m308.238-756.301h7.5" fill="none" stroke="#707070" stroke-width=".75" />
    </g>
    <g transform="rotate(90)">
      <path d="m315.738-756.301-2.25 2.25" fill="none" stroke="#707070" stroke-width=".75" />
    </g>
    <g transform="rotate(90)">
      <path d="m315.738-756.301-2.25-2.25" fill="none" stroke="#707070" stroke-width=".75" />
    </g>
    <path
      d="m536.25 165.16c0 2.899-2.352 5.25-5.25 5.25s-5.25-2.351-5.25-5.25c0-2.898 2.352-5.25 5.25-5.25s5.25 2.352 5.25 5.25z"
      fill="#707070" />
    <g transform="rotate(90)">
      <path d="m165.16-538.5h7.5" fill="none" stroke="#707070" stroke-width=".75" />
    </g>
    <g transform="rotate(90)">
      <path d="m172.66-538.5-2.25 2.25" fill="none" stroke="#707070" stroke-width=".75" />
    </g>
    <g transform="rotate(90)">
      <path d="m172.66-538.5-2.25-2.25" fill="none" stroke="#707070" stroke-width=".75" />
    </g>
    <path
      d="m584.344 288.152c0 2.899-2.352 5.25-5.25 5.25-2.903 0-5.25-2.351-5.25-5.25 0-2.898 2.347-5.25 5.25-5.25 2.898 0 5.25 2.352 5.25 5.25z"
      fill="#f00" />
    <path
      d="m611.859 297.453c0 2.899-2.351 5.25-5.25 5.25-2.898 0-5.25-2.351-5.25-5.25 0-2.902 2.352-5.25 5.25-5.25 2.899 0 5.25 2.348 5.25 5.25z"
      fill="#bf0080" />
    <path
      d="m659.41 267.438c0 2.898-2.351 5.25-5.25 5.25-2.902 0-5.25-2.352-5.25-5.25 0-2.899 2.348-5.25 5.25-5.25 2.899 0 5.25 2.351 5.25 5.25z"
      fill="#f00" />
    <path
      d="m687.453 165.141c0 2.898-2.351 5.25-5.25 5.25-2.902 0-5.25-2.352-5.25-5.25 0-2.899 2.348-5.25 5.25-5.25 2.899 0 5.25 2.351 5.25 5.25z"
      fill="#bf0080" />
    <path
      d="m639.359 42.148c0 2.899-2.351 5.25-5.25 5.25-2.902 0-5.25-2.351-5.25-5.25 0-2.902 2.348-5.25 5.25-5.25 2.899 0 5.25 2.348 5.25 5.25z"
      fill="#f00" />
    <path
      d="m611.84 32.848c0 2.902-2.352 5.25-5.25 5.25-2.899 0-5.25-2.348-5.25-5.25 0-2.899 2.351-5.25 5.25-5.25 2.898 0 5.25 2.351 5.25 5.25z"
      fill="#bf0080" />
    <path
      d="m564.293 62.863c0 2.899-2.352 5.25-5.25 5.25-2.902 0-5.25-2.351-5.25-5.25 0-2.898 2.348-5.25 5.25-5.25 2.898 0 5.25 2.352 5.25 5.25z"
      fill="#f00" />
    <path
      d="m536.25 165.16c0 2.899-2.352 5.25-5.25 5.25s-5.25-2.351-5.25-5.25c0-2.898 2.352-5.25 5.25-5.25s5.25 2.352 5.25 5.25z"
      fill="#707070" />
    <g transform="rotate(90)">
      <path d="m165.16-538.5h7.5" fill="none" stroke="#707070" stroke-width=".75" />
    </g>
    <g transform="rotate(90)">
      <path d="m172.66-538.5-2.25 2.25" fill="none" stroke="#707070" stroke-width=".75" />
    </g>
    <g transform="rotate(90)">
      <path d="m172.66-538.5-2.25-2.25" fill="none" stroke="#707070" stroke-width=".75" />
    </g>
    <path
      d="m518.25 165.141c0 2.898-2.352 5.25-5.25 5.25s-5.25-2.352-5.25-5.25c0-2.899 2.352-5.25 5.25-5.25s5.25 2.351 5.25 5.25z"
      fill="#707070" />
    <g transform="rotate(-90)">
      <path d="m-165.141 505.5h7.5" fill="none" stroke="#707070" stroke-width=".75" />
    </g>
    <g transform="rotate(-90)">
      <path d="m-157.641 505.5-2.25 2.25" fill="none" stroke="#707070" stroke-width=".75" />
    </g>
    <g transform="rotate(-90)">
      <path d="m-157.641 505.5-2.25-2.25" fill="none" stroke="#707070" stroke-width=".75" />
    </g>
    <path
      d="m549.547 52.539c0 2.899-2.352 5.25-5.25 5.25-2.899 0-5.25-2.351-5.25-5.25 0-2.898 2.351-5.25 5.25-5.25 2.898 0 5.25 2.352 5.25 5.25z"
      fill="#f00" />
    <path
      d="m611.859 14.852c0 2.898-2.351 5.25-5.25 5.25-2.898 0-5.25-2.352-5.25-5.25 0-2.903 2.352-5.25 5.25-5.25 2.899 0 5.25 2.347 5.25 5.25z"
      fill="#bf0080" />
    <path
      d="m649.684 27.402c0 2.899-2.352 5.25-5.25 5.25-2.903 0-5.25-2.351-5.25-5.25 0-2.898 2.347-5.25 5.25-5.25 2.898 0 5.25 2.352 5.25 5.25z"
      fill="#f00" />
    <path
      d="m705.449 165.16c0 2.899-2.351 5.25-5.25 5.25-2.898 0-5.25-2.351-5.25-5.25 0-2.898 2.352-5.25 5.25-5.25 2.899 0 5.25 2.352 5.25 5.25z"
      fill="#bf0080" />
    <path
      d="m674.152 277.762c0 2.898-2.347 5.25-5.25 5.25-2.898 0-5.25-2.352-5.25-5.25 0-2.899 2.352-5.25 5.25-5.25 2.903 0 5.25 2.351 5.25 5.25z"
      fill="#f00" />
    <path
      d="m611.84 315.449c0 2.899-2.352 5.25-5.25 5.25-2.899 0-5.25-2.351-5.25-5.25 0-2.898 2.351-5.25 5.25-5.25 2.898 0 5.25 2.352 5.25 5.25z"
      fill="#bf0080" />
    <path
      d="m574.02 302.898c0 2.899-2.352 5.25-5.25 5.25-2.903 0-5.25-2.351-5.25-5.25 0-2.898 2.347-5.25 5.25-5.25 2.898 0 5.25 2.352 5.25 5.25z"
      fill="#f00" />
    <path
      d="m518.25 165.141c0 2.898-2.352 5.25-5.25 5.25s-5.25-2.352-5.25-5.25c0-2.899 2.352-5.25 5.25-5.25s5.25 2.351 5.25 5.25z"
      fill="#707070" />
    <g transform="rotate(-90)">
      <path d="m-165.141 505.5h7.5" fill="none" stroke="#707070" stroke-width=".75" />
    </g>
    <g transform="rotate(-90)">
      <path d="m-157.641 505.5-2.25 2.25" fill="none" stroke="#707070" stroke-width=".75" />
    </g>
    <g transform="rotate(-90)">
      <path d="m-157.641 505.5-2.25-2.25" fill="none" stroke="#707070" stroke-width=".75" />
    </g>
    <path
      d="m386.551 310.5c-5.145 0-8.989-4.414-8.989-9.008 0-5.144 4.411-8.992 9.008-8.992 5.145 0 8.989 4.414 8.989 9.012 0 5.144-4.411 8.988-9.008 8.988z"
      fill="none" stroke="#008000" stroke-width="1.5" />
    <path
      d="m14.852 166.5c0-77.852 37.796-141.301 84.597-141.301s84.602 63.449 84.602 141.301-37.801 141.301-84.602 141.301-84.597-63.449-84.597-141.301zm733.949 141.738c0 4.598 3.84 9.012 8.988 9.012 1.93 0 3.84-0.617 5.414-1.801 11.938-8.953 25.195-23.445 25.195-44.09 0-82.211-27-123.589-27-205.199 0-8.918 2.524-15.39 6.442-20.988 2.969-4.238 6.898-8.047 11.332-11.594 1.848-1.476 3.379-4.207 3.379-7.019 0-4.594-3.844-9.008-8.992-9.008-2.02 0-4.016 0.679-5.633 1.969-12.492 9.996-24.524 24.433-24.524 46.621 0 42.629 7.039 74.75 13.821 105.718 6.718 30.68 13.179 60.219 13.179 99.481 0 13.801-9.531 23.355-18.004 29.711-1.957 1.465-3.597 4.254-3.597 7.187zm-217.801-143.078c0 56.707 21.148 104.129 48.094 122.992 8.769 6.145 17.996 9.301 27.515 9.301 17.051 0 33.809-10.394 47.551-30.015 16.817-24.02 28.043-60.922 28.043-102.297 0-56.711-21.152-104.129-48.094-122.993-8.773-6.144-18-9.3-27.519-9.3-17.047 0-33.809 10.394-47.547 30.015-16.82 24.02-28.043 60.922-28.043 102.297zm-18-0.019c0-44.512 11.781-84.727 31.297-112.602 15.801-22.562 37.391-37.687 62.312-37.687 13.657 0 26.5 4.625 37.825 12.55 34.117 23.891 55.765 77.317 55.765 137.758 0 44.508-11.777 84.727-31.297 112.602-15.797 22.562-37.39 37.687-62.312 37.687-13.656 0-26.5-4.625-37.82-12.551-34.122-23.89-55.77-77.316-55.77-137.757z"
      fill="#32cd32" fill-opacity=".07000002" />
    <path
      d="m14.852 166.5c0-77.852 37.796-141.301 84.597-141.301s84.602 63.449 84.602 141.301-37.801 141.301-84.602 141.301-84.597-63.449-84.597-141.301zm733.949 141.738c0 4.598 3.84 9.012 8.988 9.012 1.93 0 3.84-0.617 5.414-1.801 11.938-8.953 25.195-23.445 25.195-44.09 0-82.211-27-123.589-27-205.199 0-8.918 2.524-15.39 6.442-20.988 2.969-4.238 6.898-8.047 11.332-11.594 1.848-1.476 3.379-4.207 3.379-7.019 0-4.594-3.844-9.008-8.992-9.008-2.02 0-4.016 0.679-5.633 1.969-12.492 9.996-24.524 24.433-24.524 46.621 0 42.629 7.039 74.75 13.821 105.718 6.718 30.68 13.179 60.219 13.179 99.481 0 13.801-9.531 23.355-18.004 29.711-1.957 1.465-3.597 4.254-3.597 7.187zm-217.801-143.078c0 56.707 21.148 104.129 48.094 122.992 8.769 6.145 17.996 9.301 27.515 9.301 17.051 0 33.809-10.394 47.551-30.015 16.817-24.02 28.043-60.922 28.043-102.297 0-56.711-21.152-104.129-48.094-122.993-8.773-6.144-18-9.3-27.519-9.3-17.047 0-33.809 10.394-47.547 30.015-16.82 24.02-28.043 60.922-28.043 102.297zm-18-0.019c0-44.512 11.781-84.727 31.297-112.602 15.801-22.562 37.391-37.687 62.312-37.687 13.657 0 26.5 4.625 37.825 12.55 34.117 23.891 55.765 77.317 55.765 137.758 0 44.508-11.777 84.727-31.297 112.602-15.797 22.562-37.39 37.687-62.312 37.687-13.656 0-26.5-4.625-37.82-12.551-34.122-23.89-55.77-77.316-55.77-137.757z"
      fill="none" stroke="#000" stroke-width="1.5" />
    <path
      d="m250.648 309.602c10.801-8.102 21.602-20.227 21.602-36.903 0-81-27-122.398-27-205.199 0-18.906 9.898-30.602 21.148-39.602"
      fill="none" stroke="#600" stroke-width="1.5" /><text transform="translate(90.199219,351)" fill="#000000"
      font-family="'DejaVu Sans'" font-size="15px">
      <tspan
        x="0 9.5100002 18.674999 28.17 34.035 42.27 56.279999 66.75 75.915001 85.410004 91.290001 100.455 109.995 116.16 285.84961 297.06961 301.22461 505.95703 517.76202 527.25702 533.13702 542.64703 552.14203 562.83704 573.30701 582.47205 591.96704 597.84705 607.01202 616.55206 622.71704"
        y="0">SourceContoursNibOutputContours</tspan>
    </text>
  </g>
</svg>