<?xml version="1.0" encoding="UTF-8"?>
<svg width="1413" height="615" version="1.1" viewBox="0 0 1413 615" xml:space="preserve"
  xmlns="http://www.w3.org/2000/svg" xmlns:cc="http://creativecommons.org/ns#"
  xmlns:dc="http://purl.org/dc/elements/1.1/" xmlns:rdf="http://www.w3.org/1999/02/22-rdf-syntax-ns#">
    <g transform="matrix(1.3333333,0,0,1.3333333,0,1.5375e-5)">
    <path d="m154.406 377.758-46.105-41.18" stroke="#00708f" stroke-width=".75" />
    <path d="m102.301 330.578 12 12" stroke="#00708f" stroke-width=".75" />
    <path d="m102.301 342.578 12-12" stroke="#00708f" stroke-width=".75" />
    <path d="m90.973 266.348v32.062" fill="none" stroke="#c0c" stroke-width=".75" />
    <path d="m84.973 292.41 12 12" stroke="#c0c" stroke-width=".75" />
    <path d="m84.973 304.41 12-12" stroke="#c0c" stroke-width=".75" />
    <path d="m90.973 266.348v-26.453" fill="none" stroke="#00708f" stroke-width=".75" />
    <path d="m84.973 233.895 12 12" stroke="#00708f" stroke-width=".75" />
    <path d="m84.973 245.895 12-12" stroke="#00708f" stroke-width=".75" />
    <path d="m133.062 177.574-30.445 32.266" stroke="#c0c" stroke-width=".75" />
    <path d="m96.617 203.84 12 12" stroke="#c0c" stroke-width=".75" />
    <path d="m96.617 215.84 12-12" stroke="#c0c" stroke-width=".75" />
    <path d="m372.383 301.668 5.156 2.672" stroke="#00708f" stroke-width=".75" />
    <path d="m371.539 298.34 12 12" stroke="#00708f" stroke-width=".75" />
    <path d="m371.539 310.34 12-12" stroke="#00708f" stroke-width=".75" />
    <path d="m389.699 305.852h-6.289" fill="none" stroke="#c0c" stroke-width=".75" />
    <path d="m377.41 299.852 12 12" stroke="#c0c" stroke-width=".75" />
    <path d="m377.41 311.852 12-12" stroke="#c0c" stroke-width=".75" />
    <path d="m389.699 305.852h21.449" fill="none" stroke="#00708f" stroke-width=".75" />
    <path d="m405.148 299.852 12 12" stroke="#00708f" stroke-width=".75" />
    <path d="m405.148 311.852 12-12" stroke="#00708f" stroke-width=".75" />
    <path d="m427.727 266.852v21.449" fill="none" stroke="#c0c" stroke-width=".75" />
    <path d="m421.727 282.301 12 12" stroke="#c0c" stroke-width=".75" />
    <path d="m421.727 294.301 12-12" stroke="#c0c" stroke-width=".75" />
    <path d="m427.727 266.852v-15.161" fill="none" stroke="#00708f" stroke-width=".75" />
    <path d="m421.727 245.691 12 12" stroke="#00708f" stroke-width=".75" />
    <path d="m421.727 257.691 12-12" stroke="#00708f" stroke-width=".75" />
    <path d="m407.016 232.031 12.429 6.446" stroke="#c0c" stroke-width=".75" />
    <path d="m413.445 232.477 12 12" stroke="#c0c" stroke-width=".75" />
    <path d="m413.445 244.477 12-12" stroke="#c0c" stroke-width=".75" />
    <path d="m143.766 95.531-5.157-2.672" stroke="#00708f" stroke-width=".75" />
    <path d="m132.609 86.859 12 12" stroke="#00708f" stroke-width=".75" />
    <path d="m132.609 98.859 12-12" stroke="#00708f" stroke-width=".75" />
    <path d="m126.449 91.352h6.289" fill="none" stroke="#c0c" stroke-width=".75" />
    <path d="m126.738 85.352 12 12" stroke="#c0c" stroke-width=".75" />
    <path d="m126.738 97.352 12-12" stroke="#c0c" stroke-width=".75" />
    <path d="m126.449 91.352h-9.617" fill="none" stroke="#00708f" stroke-width=".75" />
    <path d="m110.832 85.352 12 12" stroke="#00708f" stroke-width=".75" />
    <path d="m110.832 97.352 12-12" stroke="#00708f" stroke-width=".75" />
    <path d="m101.594 100.703 6.601-5.824" stroke="#c0c" stroke-width=".75" />
    <path d="m102.195 88.879 12 12" stroke="#c0c" stroke-width=".75" />
    <path d="m102.195 100.879 12-12" stroke="#c0c" stroke-width=".75" />
    <path d="m101.594 100.703-54.106 47.738" stroke="#00708f" stroke-width=".75" />
    <path d="m41.488 142.441 12 12" stroke="#00708f" stroke-width=".75" />
    <path d="m41.488 154.441 12-12" stroke="#00708f" stroke-width=".75" />
    <path d="m14.922 266.348v-61.727" fill="none" stroke="#c0c" stroke-width=".75" />
    <path d="m8.922 198.621 12 12" stroke="#c0c" stroke-width=".75" />
    <path d="m8.922 210.621 12-12" stroke="#c0c" stroke-width=".75" />
    <path d="m14.922 266.348v63.16" fill="none" stroke="#00708f" stroke-width=".75" />
    <path d="m8.922 323.508 12 12" stroke="#00708f" stroke-width=".75" />
    <path d="m8.922 335.508 12-12" stroke="#00708f" stroke-width=".75" />
    <path d="m104.344 436.742-55.547-49.613" stroke="#c0c" stroke-width=".75" />
    <path d="m42.797 381.129 12 12" stroke="#c0c" stroke-width=".75" />
    <path d="m42.797 393.129 12-12" stroke="#c0c" stroke-width=".75" />
    <path d="m104.344 436.742 6.625 5.918" stroke="#00708f" stroke-width=".75" />
    <path d="m104.969 436.66 12 12" stroke="#00708f" stroke-width=".75" />
    <path d="m104.969 448.66 12-12" stroke="#00708f" stroke-width=".75" />
    <path d="m129.375 446.25h-9.703" fill="none" stroke="#c0c" stroke-width=".75" />
    <path d="m113.672 440.25 12 12" stroke="#c0c" stroke-width=".75" />
    <path d="m113.672 452.25 12-12" stroke="#c0c" stroke-width=".75" />
    <path d="m129.375 446.25h21.449" fill="none" stroke="#00708f" stroke-width=".75" />
    <path d="m144.824 440.25 12 12" stroke="#00708f" stroke-width=".75" />
    <path d="m144.824 452.25 12-12" stroke="#00708f" stroke-width=".75" />
    <path d="m167.398 407.25v21.449" fill="none" stroke="#c0c" stroke-width=".75" />
    <path d="m161.398 422.699 12 12" stroke="#c0c" stroke-width=".75" />
    <path d="m161.398 434.699 12-12" stroke="#c0c" stroke-width=".75" />
    <path d="m167.398 407.25v-11.75" fill="none" stroke="#00708f" stroke-width=".75" />
    <path d="m161.398 389.5 12 12" stroke="#00708f" stroke-width=".75" />
    <path d="m161.398 401.5 12-12" stroke="#00708f" stroke-width=".75" />
    <path d="m154.406 377.758 8.024 7.164" stroke="#c0c" stroke-width=".75" />
    <path d="m156.43 378.922 12 12" stroke="#c0c" stroke-width=".75" />
    <path d="m156.43 390.922 12-12" stroke="#c0c" stroke-width=".75" />
    <path d="m729.656 301.707-46.105-41.18" stroke="#00708f" stroke-width=".75" />
    <path d="m677.551 254.527 12 12" stroke="#00708f" stroke-width=".75" />
    <path d="m677.551 266.527 12-12" stroke="#00708f" stroke-width=".75" />
    <path d="m666.223 190.297v32.062" fill="none" stroke="#c0c" stroke-width=".75" />
    <path d="m660.223 216.359 12 12" stroke="#c0c" stroke-width=".75" />
    <path d="m660.223 228.359 12-12" stroke="#c0c" stroke-width=".75" />
    <path d="m666.223 190.297v-26.453" fill="none" stroke="#00708f" stroke-width=".75" />
    <path d="m660.223 157.844 12 12" stroke="#00708f" stroke-width=".75" />
    <path d="m660.223 169.844 12-12" stroke="#00708f" stroke-width=".75" />
    <path d="m708.312 101.523-30.445 32.27" stroke="#c0c" stroke-width=".75" />
    <path d="m671.867 127.793 12 12" stroke="#c0c" stroke-width=".75" />
    <path d="m671.867 139.793 12-12" stroke="#c0c" stroke-width=".75" />
    <path d="m947.633 225.617 5.156 2.676" stroke="#00708f" stroke-width=".75" />
    <path d="m946.789 222.293 12 12" stroke="#00708f" stroke-width=".75" />
    <path d="m946.789 234.293 12-12" stroke="#00708f" stroke-width=".75" />
    <path d="m964.949 229.801h-6.289" fill="none" stroke="#c0c" stroke-width=".75" />
    <path d="m952.66 223.801 12 12" stroke="#c0c" stroke-width=".75" />
    <path d="m952.66 235.801 12-12" stroke="#c0c" stroke-width=".75" />
    <path d="m964.949 229.801h21.449" fill="none" stroke="#00708f" stroke-width=".75" />
    <path d="m980.398 223.801 12 12" stroke="#00708f" stroke-width=".75" />
    <path d="m980.398 235.801 12-12" stroke="#00708f" stroke-width=".75" />
    <path d="m1002.977 190.801v21.449" fill="none" stroke="#c0c" stroke-width=".75" />
    <path d="m996.977 206.25 12 12" stroke="#c0c" stroke-width=".75" />
    <path d="m996.977 218.25 12-12" stroke="#c0c" stroke-width=".75" />
    <path d="m1002.977 190.801v-15.16" fill="none" stroke="#00708f" stroke-width=".75" />
    <path d="m996.977 169.641 12 12" stroke="#00708f" stroke-width=".75" />
    <path d="m996.977 181.641 12-12" stroke="#00708f" stroke-width=".75" />
    <path d="m982.266 155.984 12.429 6.442" stroke="#c0c" stroke-width=".75" />
    <path d="m988.695 156.426 12 12" stroke="#c0c" stroke-width=".75" />
    <path d="m988.695 168.426 12-12" stroke="#c0c" stroke-width=".75" />
    <path d="m719.016 19.484-5.157-2.675" stroke="#00708f" stroke-width=".75" />
    <path d="m707.859 10.809 12 12" stroke="#00708f" stroke-width=".75" />
    <path d="m707.859 22.809 12-12" stroke="#00708f" stroke-width=".75" />
    <path d="m701.699 15.301h6.289" fill="none" stroke="#c0c" stroke-width=".75" />
    <path d="m701.988 9.301 12 12" stroke="#c0c" stroke-width=".75" />
    <path d="m701.988 21.301 12-12" stroke="#c0c" stroke-width=".75" />
    <path d="m701.699 15.301h-9.617" fill="none" stroke="#00708f" stroke-width=".75" />
    <path d="m686.082 9.301 12 12" stroke="#00708f" stroke-width=".75" />
    <path d="m686.082 21.301 12-12" stroke="#00708f" stroke-width=".75" />
    <path d="m676.844 24.652 6.601-5.824" stroke="#c0c" stroke-width=".75" />
    <path d="m677.445 12.828 12 12" stroke="#c0c" stroke-width=".75" />
    <path d="m677.445 24.828 12-12" stroke="#c0c" stroke-width=".75" />
    <path d="m676.844 24.652-54.106 47.739" stroke="#00708f" stroke-width=".75" />
    <path d="m616.738 66.391 12 12" stroke="#00708f" stroke-width=".75" />
    <path d="m616.738 78.391 12-12" stroke="#00708f" stroke-width=".75" />
    <path d="m590.172 190.297v-61.727" fill="none" stroke="#c0c" stroke-width=".75" />
    <path d="m584.172 122.57 12 12" stroke="#c0c" stroke-width=".75" />
    <path d="m584.172 134.57 12-12" stroke="#c0c" stroke-width=".75" />
    <path d="m590.172 190.297v63.16" fill="none" stroke="#00708f" stroke-width=".75" />
    <path d="m584.172 247.457 12 12" stroke="#00708f" stroke-width=".75" />
    <path d="m584.172 259.457 12-12" stroke="#00708f" stroke-width=".75" />
    <path d="m679.594 360.691-55.547-49.613" stroke="#c0c" stroke-width=".75" />
    <path d="m618.047 305.078 12 12" stroke="#c0c" stroke-width=".75" />
    <path d="m618.047 317.078 12-12" stroke="#c0c" stroke-width=".75" />
    <path d="m679.594 360.691 6.625 5.918" stroke="#00708f" stroke-width=".75" />
    <path d="m680.219 360.609 12 12" stroke="#00708f" stroke-width=".75" />
    <path d="m680.219 372.609 12-12" stroke="#00708f" stroke-width=".75" />
    <path d="m704.625 370.199h-9.703" fill="none" stroke="#c0c" stroke-width=".75" />
    <path d="m688.922 364.199 12 12" stroke="#c0c" stroke-width=".75" />
    <path d="m688.922 376.199 12-12" stroke="#c0c" stroke-width=".75" />
    <path d="m704.625 370.199h21.449" fill="none" stroke="#00708f" stroke-width=".75" />
    <path d="m720.074 364.199 12 12" stroke="#00708f" stroke-width=".75" />
    <path d="m720.074 376.199 12-12" stroke="#00708f" stroke-width=".75" />
    <path d="m742.648 331.199v21.449" fill="none" stroke="#c0c" stroke-width=".75" />
    <path d="m736.648 346.648 12 12" stroke="#c0c" stroke-width=".75" />
    <path d="m736.648 358.648 12-12" stroke="#c0c" stroke-width=".75" />
    <path d="m742.648 331.199v-11.746" fill="none" stroke="#00708f" stroke-width=".75" />
    <path d="m736.648 313.453 12 12" stroke="#00708f" stroke-width=".75" />
    <path d="m736.648 325.453 12-12" stroke="#00708f" stroke-width=".75" />
    <path d="m729.656 301.707 8.024 7.164" stroke="#c0c" stroke-width=".75" />
    <path d="m731.68 302.871 12 12" stroke="#c0c" stroke-width=".75" />
    <path d="m731.68 314.871 12-12" stroke="#c0c" stroke-width=".75" />
    <path
      d="m159.656 377.758c0 2.898-2.351 5.25-5.25 5.25-2.902 0-5.25-2.352-5.25-5.25 0-2.903 2.348-5.25 5.25-5.25 2.899 0 5.25 2.347 5.25 5.25z"
      fill="#707070" />
    <g transform="matrix(-1 -.893192 .893192 -1 0 0)">
      <path d="m-273.567-139.004h5.594" fill="none" stroke="#707070" stroke-width=".55936003" />
    </g>
    <g transform="matrix(-1 -.893192 .893192 -1 0 0)">
      <path d="m-267.973-139.004-1.678 1.678" fill="none" stroke="#707070" stroke-width=".55936003" />
    </g>
    <g transform="matrix(-1 -.893192 .893192 -1 0 0)">
      <path d="m-267.973-139.004-1.678-1.677" fill="none" stroke="#707070" stroke-width=".55936003" />
    </g>
    <path
      d="m96.223 266.348c0 2.898-2.352 5.25-5.25 5.25-2.899 0-5.25-2.352-5.25-5.25 0-2.899 2.351-5.25 5.25-5.25 2.898 0 5.25 2.351 5.25 5.25z"
      fill="#bf0080" />
    <path d="m128.562 173.074h9v9h-9z" fill="#bf0080" />
    <path d="m375.492 295.676 2.883 9.097-9.098 2.887z" fill="#f00" />
    <path
      d="m394.949 305.852c0 2.898-2.351 5.25-5.25 5.25-2.898 0-5.25-2.352-5.25-5.25 0-2.903 2.352-5.25 5.25-5.25 2.899 0 5.25 2.347 5.25 5.25z"
      fill="#bf0080" />
    <path
      d="m432.977 266.852c0 2.898-2.352 5.25-5.25 5.25-2.903 0-5.25-2.352-5.25-5.25 0-2.903 2.347-5.25 5.25-5.25 2.898 0 5.25 2.347 5.25 5.25z"
      fill="#bf0080" />
    <path d="m410.125 226.039 2.883 9.102-9.098 2.882z" fill="#f00" />
    <path d="m140.66 101.523-2.887-9.097 9.102-2.887z" fill="#f00" />
    <path
      d="m131.699 91.352c0 2.898-2.351 5.25-5.25 5.25-2.898 0-5.25-2.352-5.25-5.25 0-2.903 2.352-5.25 5.25-5.25 2.899 0 5.25 2.347 5.25 5.25z"
      fill="#bf0080" />
    <path
      d="m106.844 100.703c0 2.902-2.352 5.25-5.25 5.25-2.903 0-5.25-2.348-5.25-5.25 0-2.898 2.347-5.25 5.25-5.25 2.898 0 5.25 2.352 5.25 5.25z"
      fill="#f00" />
    <path
      d="m20.172 266.348c0 2.898-2.348 5.25-5.25 5.25-2.899 0-5.25-2.352-5.25-5.25 0-2.899 2.351-5.25 5.25-5.25 2.902 0 5.25 2.351 5.25 5.25z"
      fill="#bf0080" />
    <path
      d="m109.594 436.742c0 2.903-2.348 5.25-5.25 5.25-2.899 0-5.25-2.347-5.25-5.25 0-2.898 2.351-5.25 5.25-5.25 2.902 0 5.25 2.352 5.25 5.25z"
      fill="#f00" />
    <path
      d="m134.625 446.25c0 2.898-2.352 5.25-5.25 5.25s-5.25-2.352-5.25-5.25 2.352-5.25 5.25-5.25 5.25 2.352 5.25 5.25z"
      fill="#bf0080" />
    <path
      d="m172.648 407.25c0 2.898-2.347 5.25-5.25 5.25-2.898 0-5.25-2.352-5.25-5.25s2.352-5.25 5.25-5.25c2.903 0 5.25 2.352 5.25 5.25z"
      fill="#bf0080" />
    <path
      d="m159.656 377.758c0 2.898-2.351 5.25-5.25 5.25-2.902 0-5.25-2.352-5.25-5.25 0-2.903 2.348-5.25 5.25-5.25 2.899 0 5.25 2.347 5.25 5.25z"
      fill="#707070" />
    <g transform="matrix(-1 -.893192 .893192 -1 0 0)">
      <path d="m-273.567-139.004h5.594" fill="none" stroke="#707070" stroke-width=".55936003" />
    </g>
    <g transform="matrix(-1 -.893192 .893192 -1 0 0)">
      <path d="m-267.973-139.004-1.678 1.678" fill="none" stroke="#707070" stroke-width=".55936003" />
    </g>
    <g transform="matrix(-1 -.893192 .893192 -1 0 0)">
      <path d="m-267.973-139.004-1.678-1.677" fill="none" stroke="#707070" stroke-width=".55936003" />
    </g>
    <path
      d="m734.906 301.707c0 2.898-2.351 5.25-5.25 5.25-2.902 0-5.25-2.352-5.25-5.25s2.348-5.25 5.25-5.25c2.899 0 5.25 2.352 5.25 5.25z"
      fill="#707070" />
    <g transform="matrix(-1 -.893208 .893208 -1 0 0)">
      <path d="m-555.753 189.102h5.594" fill="none" stroke="#707070" stroke-width=".55935597" />
    </g>
    <g transform="matrix(-1 -.893208 .893208 -1 0 0)">
      <path d="m-550.159 189.102-1.677 1.678" fill="none" stroke="#707070" stroke-width=".55935597" />
    </g>
    <g transform="matrix(-1 -.893208 .893208 -1 0 0)">
      <path d="m-550.159 189.102-1.678-1.677" fill="none" stroke="#707070" stroke-width=".55935597" />
    </g>
    <path
      d="m671.473 190.297c0 2.902-2.352 5.25-5.25 5.25-2.899 0-5.25-2.348-5.25-5.25 0-2.899 2.351-5.25 5.25-5.25 2.898 0 5.25 2.351 5.25 5.25z"
      fill="#bf0080" />
    <path d="m703.812 97.023h9v9h-9z" fill="#bf0080" />
    <path d="m950.742 219.625 2.883 9.102-9.098 2.882z" fill="#f00" />
    <path
      d="m970.199 229.801c0 2.898-2.351 5.25-5.25 5.25-2.898 0-5.25-2.352-5.25-5.25 0-2.899 2.352-5.25 5.25-5.25 2.899 0 5.25 2.351 5.25 5.25z"
      fill="#bf0080" />
    <path
      d="m1008.227 190.801c0 2.898-2.352 5.25-5.25 5.25-2.903 0-5.25-2.352-5.25-5.25 0-2.899 2.347-5.25 5.25-5.25 2.898 0 5.25 2.351 5.25 5.25z"
      fill="#bf0080" />
    <path d="m985.375 149.988 2.883 9.102-9.098 2.887z" fill="#f00" />
    <path d="m715.91 25.477-2.887-9.102 9.102-2.887z" fill="#f00" />
    <path
      d="m706.949 15.301c0 2.898-2.351 5.25-5.25 5.25-2.898 0-5.25-2.352-5.25-5.25 0-2.899 2.352-5.25 5.25-5.25 2.899 0 5.25 2.351 5.25 5.25z"
      fill="#bf0080" />
    <path
      d="m682.094 24.652c0 2.903-2.352 5.25-5.25 5.25-2.903 0-5.25-2.347-5.25-5.25 0-2.898 2.347-5.25 5.25-5.25 2.898 0 5.25 2.352 5.25 5.25z"
      fill="#f00" />
    <path
      d="m595.422 190.297c0 2.902-2.348 5.25-5.25 5.25-2.899 0-5.25-2.348-5.25-5.25 0-2.899 2.351-5.25 5.25-5.25 2.902 0 5.25 2.351 5.25 5.25z"
      fill="#bf0080" />
    <path
      d="m684.844 360.691c0 2.903-2.348 5.25-5.25 5.25-2.899 0-5.25-2.347-5.25-5.25 0-2.898 2.351-5.25 5.25-5.25 2.902 0 5.25 2.352 5.25 5.25z"
      fill="#f00" />
    <path
      d="m709.875 370.199c0 2.899-2.352 5.25-5.25 5.25s-5.25-2.351-5.25-5.25c0-2.898 2.352-5.25 5.25-5.25s5.25 2.352 5.25 5.25z"
      fill="#bf0080" />
    <path
      d="m747.898 331.199c0 2.899-2.347 5.25-5.25 5.25-2.898 0-5.25-2.351-5.25-5.25 0-2.898 2.352-5.25 5.25-5.25 2.903 0 5.25 2.352 5.25 5.25z"
      fill="#bf0080" />
    <path
      d="m734.906 301.707c0 2.898-2.351 5.25-5.25 5.25-2.902 0-5.25-2.352-5.25-5.25s2.348-5.25 5.25-5.25c2.899 0 5.25 2.352 5.25 5.25z"
      fill="#707070" />
    <g transform="matrix(-1 -.893208 .893208 -1 0 0)">
      <path d="m-555.753 189.102h5.594" fill="none" stroke="#707070" stroke-width=".55935597" />
    </g>
    <g transform="matrix(-1 -.893208 .893208 -1 0 0)">
      <path d="m-550.159 189.102-1.677 1.678" fill="none" stroke="#707070" stroke-width=".55935597" />
    </g>
    <g transform="matrix(-1 -.893208 .893208 -1 0 0)">
      <path d="m-550.159 189.102-1.678-1.677" fill="none" stroke="#707070" stroke-width=".55935597" />
    </g>
    <path
      d="m784.574 407.25c-100.426-89.699-102.375-189.148-2.926-276.898l263.25 136.5m-915.523 140.398c-100.426-89.699-102.375-189.148-2.926-276.898l263.25 136.5"
      fill="none" stroke="#008000" stroke-width="1.5" />
    <path
      d="m154.406 377.758c-46.105-41.18-63.433-79.348-63.433-111.41 0-26.453 11.644-56.508 42.089-88.774l239.321 124.094c5.156 2.672 11.027 4.184 17.316 4.184 21.449 0 38.028-17.551 38.028-39 0-15.161-8.282-28.375-20.711-34.821l-263.25-136.5c-5.157-2.672-11.028-4.179-17.317-4.179-9.617 0-18.254 3.527-24.855 9.351-54.106 47.738-86.672 103.918-86.672 165.645 0 63.16 33.875 120.781 89.422 170.394 6.625 5.918 15.328 9.508 25.031 9.508 21.449 0 38.023-17.551 38.023-39 0-11.75-4.968-22.328-12.992-29.492zm575.25-76.051c-46.105-41.18-63.433-79.348-63.433-111.41 0-26.453 11.644-56.504 42.089-88.774l239.321 124.094c5.156 2.676 11.027 4.184 17.316 4.184 21.449 0 38.028-17.551 38.028-39 0-15.16-8.282-28.375-20.711-34.817l-263.25-136.5c-5.157-2.675-11.028-4.183-17.317-4.183-9.617 0-18.254 3.527-24.855 9.351-54.106 47.739-86.672 103.918-86.672 165.645 0 63.16 33.875 120.781 89.422 170.394 6.625 5.918 15.328 9.508 25.031 9.508 21.449 0 38.023-17.551 38.023-39 0-11.746-4.968-22.328-12.992-29.492z"
      fill="#32cd32" fill-opacity=".07000002" />
    <path
      d="m154.406 377.758c-46.105-41.18-63.433-79.348-63.433-111.41 0-26.453 11.644-56.508 42.089-88.774l239.321 124.094c5.156 2.672 11.027 4.184 17.316 4.184 21.449 0 38.028-17.551 38.028-39 0-15.161-8.282-28.375-20.711-34.821l-263.25-136.5c-5.157-2.672-11.028-4.179-17.317-4.179-9.617 0-18.254 3.527-24.855 9.351-54.106 47.738-86.672 103.918-86.672 165.645 0 63.16 33.875 120.781 89.422 170.394 6.625 5.918 15.328 9.508 25.031 9.508 21.449 0 38.023-17.551 38.023-39 0-11.75-4.968-22.328-12.992-29.492zm575.25-76.051c-46.105-41.18-63.433-79.348-63.433-111.41 0-26.453 11.644-56.504 42.089-88.774l239.321 124.094c5.156 2.676 11.027 4.184 17.316 4.184 21.449 0 38.028-17.551 38.028-39 0-15.16-8.282-28.375-20.711-34.817l-263.25-136.5c-5.157-2.675-11.028-4.183-17.317-4.183-9.617 0-18.254 3.527-24.855 9.351-54.106 47.739-86.672 103.918-86.672 165.645 0 63.16 33.875 120.781 89.422 170.394 6.625 5.918 15.328 9.508 25.031 9.508 21.449 0 38.023-17.551 38.023-39 0-11.746-4.968-22.328-12.992-29.492z"
      fill="none" stroke="#000" stroke-width="1.5" />
  </g>
</svg>