<?xml version="1.0" encoding="UTF-8"?>
<svg xmlns="http://www.w3.org/2000/svg" viewBox="0 0 18 18">
  <path d="M8.5,9l6.391-3.364c.145-.076.145-.26,0-.337l-6.161-3.243c-.142-.075-.319-.075-.46,0l-6.161,3.243c-.145.076-.145.26,0,.337l6.391,3.364ZM8.5,2.958l4.768,2.509-4.768,2.51-4.768-2.51,4.768-2.509ZM8.5,10.356l.5-.263v3.06l-.27.162c-.142.085-.319.085-.46,0l-6.161-3.697c-.145-.087-.145-.297,0-.384l1.991-1.195,4.4,2.316ZM16,9h-5c-.552,0-1,.448-1,1v5c0,.552.448,1,1,1h5c.552,0,1-.448,1-1v-5c0-.552-.448-1-1-1ZM15.25,15.038l-1.75-1.75-1.75,1.75-.787-.787,1.769-1.732-1.764-1.764.778-.705,1.754,1.717,1.754-1.717.778.705-1.764,1.764,1.769,1.732-.787.787Z" fill-rule="evenodd"/>
</svg>