<?xml version="1.0" encoding="UTF-8"?>
<svg xmlns="http://www.w3.org/2000/svg" viewBox="0 0 18 15">
  <path d="M13.25,2l-3,3h-3.25v4h1.25v4h1.25v-4h1.5v-3.25l3-3v-.75h-.75ZM10,8h-2v-2h2v2ZM6.164,4.083c-.189.488-.519.927-.979,1.252s-1.018.515-1.623.515c-1.273,0-2.562-.846-2.562-2.464,0-1.149.679-2.386,2.168-2.386,1.288,0,1.865.785,1.865,1.563,0,.417-.182,1.386-1.865,1.386v-.8c1.064,0,1.064-.411,1.064-.586,0-.478-.397-.763-1.064-.763-.944,0-1.367.796-1.367,1.586,0,1.144.913,1.665,1.762,1.665.456,0,.876-.15,1.215-.404.297-.222.514-.511.646-.831l.74.268Z"/>
</svg>