<?xml version="1.0" encoding="UTF-8"?>
<svg xmlns="http://www.w3.org/2000/svg" viewBox="0 0 18 15">
  <path d="M4.122,10.313l3.646,2.772c.111.084.269.062.352-.05l5.966-8.001c.082-.11.06-.265-.049-.348l-3.646-2.772c-.111-.084-.269-.062-.352.05l-5.966,8.001c-.082.11-.06.265.049.348ZM8.685,5.269l2.812,2.097-.554.743-2.812-2.097.554-.743ZM5.746,9.21l2.812,2.097-.554.743-2.812-2.097.554-.743ZM8.131,7.944l1.886,1.406-.554.743-1.886-1.406.554-.743ZM11.185,3.85l1.886,1.406-.554.743-1.886-1.406.554-.743Z"/>
</svg>