<?xml version="1.0" encoding="UTF-8" standalone="no"?>
<svg
   version="1.1"
   viewBox="-271 0 1802.0934 1824.981"
   id="svg4"
   width="1802.0934"
   height="1824.981"
   xmlns="http://www.w3.org/2000/svg"
   xmlns:svg="http://www.w3.org/2000/svg"
   xmlns:rdf="http://www.w3.org/1999/02/22-rdf-syntax-ns#"
   xmlns:cc="http://creativecommons.org/ns#"
   xmlns:dc="http://purl.org/dc/elements/1.1/">
  <defs
     id="defs8" />
  <path
     fill="currentColor"
     d="m 545.04667,727.00062 q 20.7207,0 35.5244,14.8037 14.8027,14.8037 14.8027,33.6914 0,7.32422 -2.25098,15.2363 l -165,579.99998 q -17.3486,60.9854 -59.6807,103.317 -85.9316,85.9316 -267.396,85.9316 -60.3379,0 -149.104,-23.2109 l -52.8955,107.995 q 98.8145,30.2354 207.999,30.2354 284.119,0 395.158,-156.864 43.166,-60.2588 77.7646,-181.886 l 163,-572.99998 q 3.53613,-12.4297 12.7217,-21.6152 14.6348,-14.6348 35.3555,-14.6348 h 278.40201 l 32.0957,-111.02 H 852.04509 q -20.7207,0 -35.5234,-14.8027 -14.8027,-14.8027 -14.8027,-33.6943 0,-7.30762 2.24121,-15.2031 l 21,-74 q 20.4854,-72.1885 68.7939,-120.497 88.7832,-88.7832 263.291,-88.7832 53.5947,0 148.409,27.2412 l 55.5918,-114.554 q -104.686,-31.707 -209.001,-31.707 -62.1172,0 -116.284,8.40527 -54.1768,8.40625 -93.3691,20.877 -39.1923,12.47075 -73.6221,33.9326 -48.376,30.1562 -72.2578,54.0391 -14.3096,14.3096 -32.416,39.2061 -18.1064,24.8965 -30.5088,46.1562 -12.4014,21.2607 -25.8672,55.6211 -13.4658,34.3604 -19.6143,54.2266 -6.14941,19.8662 -34,117.342 -3.54102,12.3955 -12.7051,21.5596 -14.6348,14.6348 -35.3555,14.6348 H 415.643 l -32.0957,111.02 h 161.498 z M 1152.0467,50.00042 q 131.157,0 261.866,43.5693 l 33,11 q 11.1357,3.71289 21.0391,13.6152 13.1416,13.1416 13.1416,34.2998 0,11.2461 -5.0625,21.3555 l -99,204 q -3.6563,7.5332 -9.6289,13.5059 -14.9844,14.9834 -33.8496,14.9834 -7.4326,0 -15.4678,-2.32617 l -38,-11 q -82.9883,-24.0225 -123.038,-24.0225 -133.066,0 -192.58004,59.5137 -29.9131,29.9131 -43.335,77.2061 l -2.92285,10.2998 h 249.83799 q 20.7207,0 35.5293,14.8086 14.8086,14.8096 14.8086,33.6758 0,7.42578 -2.3203,15.4521 l -61,211 q -3.5566,12.3037 -12.6621,21.4092 -14.6348,14.6348 -35.3555,14.6348 h -278.235 l -152.688,536.74995 q -39.332,138.265 -92.2354,212.114 -140.961,199.136 -476.842,199.136 -138.034,0 -262.308,-42.7188 l -32,-11 q -10.8682,-3.7363 -19.0479,-11.916 Q -221,1694.6557 -221,1673.4936 q 0,-11.3389 5.14062,-21.5146 l 96,-196 q 3.64258,-7.4365 9.5498,-13.3438 14.9248,-14.9248 33.9141,-14.9248 6.84863,0 14.2266,1.9424 l 38,10 q 77.3232,20.3477 125.215,20.3477 140.022,0 196.685,-56.6621 23.9609,-23.9609 34.2393,-60.0889 l 146.869,-516.26897 h -161.793 q -20.7207,0 -35.5293,-14.8086 -14.8086,-14.8096 -14.8086,-33.6758 0,-7.42578 2.32031,-15.4521 l 61,-211 q 3.55664,-12.3037 12.6621,-21.4092 14.6348,-14.6348 35.3555,-14.6348 h 190.28 q 17.8086,-62.3301 24.6592,-84.4639 6.85156,-22.1338 22.3857,-61.7734 15.53414,-39.6396 31.1328,-66.3789 15.5977,-26.7402 37.4912,-56.8438 31.2842,-43.0146 61.5195,-68.1162 30.2353,-25.1016 72.8066,-51.6387 42.5703,-26.5381 91.3779,-42.0674 48.8076,-15.5293 110.63097,-25.123 Q 1082.1634,50 1152.0464,50 Z"
     id="path2" />
  <metadata
     id="metadata822">
    <rdf:RDF>
      <cc:Work
         rdf:about="">
        <dc:creator>
          <cc:Agent>
            <dc:title>Adapted from Cantarell-BoldOblique.ttf (author: Dave Crossland)</dc:title>
          </cc:Agent>
        </dc:creator>
      </cc:Work>
    </rdf:RDF>
  </metadata>
</svg>
