<?xml version="1.0" encoding="utf-8" ?>
<?xml-stylesheet href="../ff_svg_fig.css" type="text/css" title="FontForge SVG stylesheet" alternate="no" media="screen"?>
<svg baseProfile="full" height="100%" version="1.1" viewBox="-474,2392,959,454" width="100%" xmlns="http://www.w3.org/2000/svg" xmlns:ev="http://www.w3.org/2001/xml-events" xmlns:xlink="http://www.w3.org/1999/xlink">
  <defs/>
  <g class="ff_offp">
    <line class="ff_offp_post" x1="-266.05078125" x2="-266.05078125" y1="2604.26953125" y2="2656.8076171875"/>
    <g class="ff_offp_post" transform="translate(-266.05078125,2656.8076171875)">
      <line class="ff_off_curve_x" x1="-8" x2="8" y1="-8" y2="8"/>
      <line class="ff_off_curve_x" x1="-8" x2="8" y1="8" y2="-8"/>
    </g>
  </g>
  <g class="ff_offp">
    <line class="ff_offp_pre" x1="-363.78125" x2="-309.9013671875" y1="2700.1474609375" y2="2700.1474609375"/>
    <g class="ff_offp_pre" transform="translate(-309.9013671875,2700.1474609375)">
      <line class="ff_off_curve_x" x1="-8" x2="8" y1="-8" y2="8"/>
      <line class="ff_off_curve_x" x1="-8" x2="8" y1="8" y2="-8"/>
    </g>
  </g>
  <g class="ff_offp">
    <line class="ff_offp_post" x1="-363.78125" x2="-376.46484375" y1="2700.1474609375" y2="2700.1474609375"/>
    <g class="ff_offp_post" transform="translate(-376.46484375,2700.1474609375)">
      <line class="ff_off_curve_x" x1="-8" x2="8" y1="-8" y2="8"/>
      <line class="ff_off_curve_x" x1="-8" x2="8" y1="8" y2="-8"/>
    </g>
  </g>
  <g class="ff_offp">
    <line class="ff_offp_pre" x1="-399.69921875" x2="-388.58203125" y1="2693.3671875" y2="2697.7451171875"/>
    <g class="ff_offp_pre" transform="translate(-388.58203125,2697.7451171875)">
      <line class="ff_off_curve_x" x1="-8" x2="8" y1="-8" y2="8"/>
      <line class="ff_off_curve_x" x1="-8" x2="8" y1="8" y2="-8"/>
    </g>
  </g>
  <g class="ff_offp">
    <line class="ff_offp_post" x1="-399.69921875" x2="-396.8779296875" y1="2693.3671875" y2="2699.892578125"/>
    <g class="ff_offp_post" transform="translate(-396.8779296875,2699.892578125)">
      <line class="ff_off_curve_x" x1="-8" x2="8" y1="-8" y2="8"/>
      <line class="ff_off_curve_x" x1="-8" x2="8" y1="8" y2="-8"/>
    </g>
  </g>
  <g class="ff_offp">
    <line class="ff_offp_pre" x1="-390.3193359375" x2="-393.7509765625" y1="2713.193359375" y2="2706.580078125"/>
    <g class="ff_offp_pre" transform="translate(-393.7509765625,2706.580078125)">
      <line class="ff_off_curve_x" x1="-8" x2="8" y1="-8" y2="8"/>
      <line class="ff_off_curve_x" x1="-8" x2="8" y1="8" y2="-8"/>
    </g>
  </g>
  <g class="ff_offp">
    <line class="ff_offp_post" x1="-390.3193359375" x2="-374.6728515625" y1="2713.193359375" y2="2743.3427734375"/>
    <g class="ff_offp_post" transform="translate(-374.6728515625,2743.3427734375)">
      <line class="ff_off_curve_x" x1="-8" x2="8" y1="-8" y2="8"/>
      <line class="ff_off_curve_x" x1="-8" x2="8" y1="8" y2="-8"/>
    </g>
  </g>
  <g class="ff_offp">
    <line class="ff_offp_pre" x1="-345.26953125" x2="-356.673828125" y1="2760.19140625" y2="2760.19140625"/>
    <g class="ff_offp_pre" transform="translate(-356.673828125,2760.19140625)">
      <line class="ff_off_curve_x" x1="-8" x2="8" y1="-8" y2="8"/>
      <line class="ff_off_curve_x" x1="-8" x2="8" y1="8" y2="-8"/>
    </g>
  </g>
  <g class="ff_offp">
    <line class="ff_offp_post" x1="-210.044921875" x2="-195.623046875" y1="2760.1640625" y2="2760.1640625"/>
    <g class="ff_offp_post" transform="translate(-195.623046875,2760.1640625)">
      <line class="ff_off_curve_x" x1="-8" x2="8" y1="-8" y2="8"/>
      <line class="ff_off_curve_x" x1="-8" x2="8" y1="8" y2="-8"/>
    </g>
  </g>
  <g class="ff_offp">
    <line class="ff_offp_pre" x1="-163.125" x2="-172.95703125" y1="2732.24609375" y2="2750.1259765625"/>
    <g class="ff_offp_pre" transform="translate(-172.95703125,2750.1259765625)">
      <line class="ff_off_curve_x" x1="-8" x2="8" y1="-8" y2="8"/>
      <line class="ff_off_curve_x" x1="-8" x2="8" y1="8" y2="-8"/>
    </g>
  </g>
  <g class="ff_offp">
    <line class="ff_offp_post" x1="-163.125" x2="-157.9794921875" y1="2732.24609375" y2="2722.8916015625"/>
    <g class="ff_offp_post" transform="translate(-157.9794921875,2722.8916015625)">
      <line class="ff_off_curve_x" x1="-8" x2="8" y1="-8" y2="8"/>
      <line class="ff_off_curve_x" x1="-8" x2="8" y1="8" y2="-8"/>
    </g>
  </g>
  <g class="ff_offp">
    <line class="ff_offp_pre" x1="-155.150390625" x2="-155.150390625" y1="2701.248046875" y2="2712.2451171875"/>
    <g class="ff_offp_pre" transform="translate(-155.150390625,2712.2451171875)">
      <line class="ff_off_curve_x" x1="-8" x2="8" y1="-8" y2="8"/>
      <line class="ff_off_curve_x" x1="-8" x2="8" y1="8" y2="-8"/>
    </g>
  </g>
  <g class="ff_offp">
    <line class="ff_offp_post" x1="-155.150390625" x2="-155.150390625" y1="2701.248046875" y2="2674.400390625"/>
    <g class="ff_offp_post" transform="translate(-155.150390625,2674.400390625)">
      <line class="ff_off_curve_x" x1="-8" x2="8" y1="-8" y2="8"/>
      <line class="ff_off_curve_x" x1="-8" x2="8" y1="8" y2="-8"/>
    </g>
  </g>
  <g class="ff_offp">
    <line class="ff_offp_pre" x1="-221.7275390625" x2="-171.7158203125" y1="2618.9462890625" y2="2641.9345703125"/>
    <g class="ff_offp_pre" transform="translate(-171.7158203125,2641.9345703125)">
      <line class="ff_off_curve_x" x1="-8" x2="8" y1="-8" y2="8"/>
      <line class="ff_off_curve_x" x1="-8" x2="8" y1="8" y2="-8"/>
    </g>
  </g>
  <g class="ff_offp">
    <line class="ff_offp_post" x1="-221.7275390625" x2="-227.748046875" y1="2618.9462890625" y2="2616.1787109375"/>
    <g class="ff_offp_post" transform="translate(-227.748046875,2616.1787109375)">
      <line class="ff_off_curve_x" x1="-8" x2="8" y1="-8" y2="8"/>
      <line class="ff_off_curve_x" x1="-8" x2="8" y1="8" y2="-8"/>
    </g>
  </g>
  <g class="ff_offp">
    <line class="ff_offp_pre" x1="-231.93359375" x2="-231.93359375" y1="2603.0361328125" y2="2610.091796875"/>
    <g class="ff_offp_pre" transform="translate(-231.93359375,2610.091796875)">
      <line class="ff_off_curve_x" x1="-8" x2="8" y1="-8" y2="8"/>
      <line class="ff_off_curve_x" x1="-8" x2="8" y1="8" y2="-8"/>
    </g>
  </g>
  <g class="ff_offp">
    <line class="ff_offp_post" x1="-231.93359375" x2="-231.93359375" y1="2603.0361328125" y2="2596.3388671875"/>
    <g class="ff_offp_post" transform="translate(-231.93359375,2596.3388671875)">
      <line class="ff_off_curve_x" x1="-8" x2="8" y1="-8" y2="8"/>
      <line class="ff_off_curve_x" x1="-8" x2="8" y1="8" y2="-8"/>
    </g>
  </g>
  <g class="ff_offp">
    <line class="ff_offp_pre" x1="-222.6318359375" x2="-228.1630859375" y1="2587.57421875" y2="2590.515625"/>
    <g class="ff_offp_pre" transform="translate(-228.1630859375,2590.515625)">
      <line class="ff_off_curve_x" x1="-8" x2="8" y1="-8" y2="8"/>
      <line class="ff_off_curve_x" x1="-8" x2="8" y1="8" y2="-8"/>
    </g>
  </g>
  <g class="ff_offp">
    <line class="ff_offp_post" x1="-222.6318359375" x2="-188.5791015625" y1="2587.57421875" y2="2569.466796875"/>
    <g class="ff_offp_post" transform="translate(-188.5791015625,2569.466796875)">
      <line class="ff_off_curve_x" x1="-8" x2="8" y1="-8" y2="8"/>
      <line class="ff_off_curve_x" x1="-8" x2="8" y1="8" y2="-8"/>
    </g>
  </g>
  <g class="ff_offp">
    <line class="ff_offp_pre" x1="-168.8916015625" x2="-180.517578125" y1="2514.7158203125" y2="2546.6904296875"/>
    <g class="ff_offp_pre" transform="translate(-180.517578125,2546.6904296875)">
      <line class="ff_off_curve_x" x1="-8" x2="8" y1="-8" y2="8"/>
      <line class="ff_off_curve_x" x1="-8" x2="8" y1="8" y2="-8"/>
    </g>
  </g>
  <g class="ff_offp">
    <line class="ff_offp_post" x1="-168.8916015625" x2="-161.3515625" y1="2514.7158203125" y2="2493.9814453125"/>
    <g class="ff_offp_post" transform="translate(-161.3515625,2493.9814453125)">
      <line class="ff_off_curve_x" x1="-8" x2="8" y1="-8" y2="8"/>
      <line class="ff_off_curve_x" x1="-8" x2="8" y1="8" y2="-8"/>
    </g>
  </g>
  <g class="ff_offp">
    <line class="ff_offp_pre" x1="-134.041015625" x2="-152.5302734375" y1="2446.5" y2="2469.8916015625"/>
    <g class="ff_offp_pre" transform="translate(-152.5302734375,2469.8916015625)">
      <line class="ff_off_curve_x" x1="-8" x2="8" y1="-8" y2="8"/>
      <line class="ff_off_curve_x" x1="-8" x2="8" y1="8" y2="-8"/>
    </g>
  </g>
  <g class="ff_offp">
    <line class="ff_offp_post" x1="-345.26953125" x2="-355.138671875" y1="2446.5" y2="2446.60546875"/>
    <g class="ff_offp_post" transform="translate(-355.138671875,2446.60546875)">
      <line class="ff_off_curve_x" x1="-8" x2="8" y1="-8" y2="8"/>
      <line class="ff_off_curve_x" x1="-8" x2="8" y1="8" y2="-8"/>
    </g>
  </g>
  <g class="ff_offp">
    <line class="ff_offp_pre" x1="-385.3173828125" x2="-370.7421875" y1="2484.62109375" y2="2459.3896484375"/>
    <g class="ff_offp_pre" transform="translate(-370.7421875,2459.3896484375)">
      <line class="ff_off_curve_x" x1="-8" x2="8" y1="-8" y2="8"/>
      <line class="ff_off_curve_x" x1="-8" x2="8" y1="8" y2="-8"/>
    </g>
  </g>
  <g class="ff_offp">
    <line class="ff_offp_post" x1="-385.3173828125" x2="-390.5244140625" y1="2484.62109375" y2="2493.634765625"/>
    <g class="ff_offp_post" transform="translate(-390.5244140625,2493.634765625)">
      <line class="ff_off_curve_x" x1="-8" x2="8" y1="-8" y2="8"/>
      <line class="ff_off_curve_x" x1="-8" x2="8" y1="8" y2="-8"/>
    </g>
  </g>
  <g class="ff_offp">
    <line class="ff_offp_pre" x1="-399.48828125" x2="-395.2841796875" y1="2513.23828125" y2="2503.486328125"/>
    <g class="ff_offp_pre" transform="translate(-395.2841796875,2503.486328125)">
      <line class="ff_off_curve_x" x1="-8" x2="8" y1="-8" y2="8"/>
      <line class="ff_off_curve_x" x1="-8" x2="8" y1="8" y2="-8"/>
    </g>
  </g>
  <g class="ff_offp">
    <line class="ff_offp_post" x1="-399.48828125" x2="-388.4287109375" y1="2513.23828125" y2="2508.912109375"/>
    <g class="ff_offp_post" transform="translate(-388.4287109375,2508.912109375)">
      <line class="ff_off_curve_x" x1="-8" x2="8" y1="-8" y2="8"/>
      <line class="ff_off_curve_x" x1="-8" x2="8" y1="8" y2="-8"/>
    </g>
  </g>
  <g class="ff_offp">
    <line class="ff_offp_pre" x1="-363.78125" x2="-376.384765625" y1="2506.5400390625" y2="2506.5400390625"/>
    <g class="ff_offp_pre" transform="translate(-376.384765625,2506.5400390625)">
      <line class="ff_off_curve_x" x1="-8" x2="8" y1="-8" y2="8"/>
      <line class="ff_off_curve_x" x1="-8" x2="8" y1="8" y2="-8"/>
    </g>
  </g>
  <g class="ff_offp">
    <line class="ff_offp_post" x1="-363.78125" x2="-309.712890625" y1="2506.5400390625" y2="2506.5400390625"/>
    <g class="ff_offp_post" transform="translate(-309.712890625,2506.5400390625)">
      <line class="ff_off_curve_x" x1="-8" x2="8" y1="-8" y2="8"/>
      <line class="ff_off_curve_x" x1="-8" x2="8" y1="8" y2="-8"/>
    </g>
  </g>
  <g class="ff_offp">
    <line class="ff_offp_pre" x1="-266.05078125" x2="-266.05078125" y1="2604.26953125" y2="2550.201171875"/>
    <g class="ff_offp_pre" transform="translate(-266.05078125,2550.201171875)">
      <line class="ff_off_curve_x" x1="-8" x2="8" y1="-8" y2="8"/>
      <line class="ff_off_curve_x" x1="-8" x2="8" y1="8" y2="-8"/>
    </g>
  </g>
  <g class="ff_offp">
    <line class="ff_offp_post" x1="-454.3212890625" x2="-454.3212890625" y1="2635.0546875" y2="2627.978515625"/>
    <g class="ff_offp_post" transform="translate(-454.3212890625,2627.978515625)">
      <line class="ff_off_curve_x" x1="-8" x2="8" y1="-8" y2="8"/>
      <line class="ff_off_curve_x" x1="-8" x2="8" y1="8" y2="-8"/>
    </g>
  </g>
  <g class="ff_offp">
    <line class="ff_offp_pre" x1="-436.611328125" x2="-447.1748046875" y1="2618.9619140625" y2="2618.9619140625"/>
    <g class="ff_offp_pre" transform="translate(-447.1748046875,2618.9619140625)">
      <line class="ff_off_curve_x" x1="-8" x2="8" y1="-8" y2="8"/>
      <line class="ff_off_curve_x" x1="-8" x2="8" y1="8" y2="-8"/>
    </g>
  </g>
  <g class="ff_offp">
    <line class="ff_offp_post" x1="-436.611328125" x2="-424.849609375" y1="2618.9619140625" y2="2618.9619140625"/>
    <g class="ff_offp_post" transform="translate(-424.849609375,2618.9619140625)">
      <line class="ff_off_curve_x" x1="-8" x2="8" y1="-8" y2="8"/>
      <line class="ff_off_curve_x" x1="-8" x2="8" y1="8" y2="-8"/>
    </g>
  </g>
  <g class="ff_offp">
    <line class="ff_offp_pre" x1="-420.443359375" x2="-422.3173828125" y1="2629.4765625" y2="2625.5380859375"/>
    <g class="ff_offp_pre" transform="translate(-422.3173828125,2625.5380859375)">
      <line class="ff_off_curve_x" x1="-8" x2="8" y1="-8" y2="8"/>
      <line class="ff_off_curve_x" x1="-8" x2="8" y1="8" y2="-8"/>
    </g>
  </g>
  <g class="ff_offp">
    <line class="ff_offp_post" x1="-420.443359375" x2="-410.396484375" y1="2629.4765625" y2="2650.59375"/>
    <g class="ff_offp_post" transform="translate(-410.396484375,2650.59375)">
      <line class="ff_off_curve_x" x1="-8" x2="8" y1="-8" y2="8"/>
      <line class="ff_off_curve_x" x1="-8" x2="8" y1="8" y2="-8"/>
    </g>
  </g>
  <g class="ff_offp">
    <line class="ff_offp_pre" x1="-363.78125" x2="-388.9130859375" y1="2665.1474609375" y2="2665.1474609375"/>
    <g class="ff_offp_pre" transform="translate(-388.9130859375,2665.1474609375)">
      <line class="ff_off_curve_x" x1="-8" x2="8" y1="-8" y2="8"/>
      <line class="ff_off_curve_x" x1="-8" x2="8" y1="8" y2="-8"/>
    </g>
  </g>
  <g class="ff_offp">
    <line class="ff_offp_post" x1="-363.78125" x2="-328.7939453125" y1="2665.1474609375" y2="2665.1474609375"/>
    <g class="ff_offp_post" transform="translate(-328.7939453125,2665.1474609375)">
      <line class="ff_off_curve_x" x1="-8" x2="8" y1="-8" y2="8"/>
      <line class="ff_off_curve_x" x1="-8" x2="8" y1="8" y2="-8"/>
    </g>
  </g>
  <g class="ff_offp">
    <line class="ff_offp_pre" x1="-301.05078125" x2="-301.05078125" y1="2604.26953125" y2="2636.9013671875"/>
    <g class="ff_offp_pre" transform="translate(-301.05078125,2636.9013671875)">
      <line class="ff_off_curve_x" x1="-8" x2="8" y1="-8" y2="8"/>
      <line class="ff_off_curve_x" x1="-8" x2="8" y1="8" y2="-8"/>
    </g>
  </g>
  <g class="ff_offp">
    <line class="ff_offp_post" x1="-301.05078125" x2="-301.05078125" y1="2604.26953125" y2="2569.4716796875"/>
    <g class="ff_offp_post" transform="translate(-301.05078125,2569.4716796875)">
      <line class="ff_off_curve_x" x1="-8" x2="8" y1="-8" y2="8"/>
      <line class="ff_off_curve_x" x1="-8" x2="8" y1="8" y2="-8"/>
    </g>
  </g>
  <g class="ff_offp">
    <line class="ff_offp_pre" x1="-363.78125" x2="-328.982421875" y1="2541.5400390625" y2="2541.5400390625"/>
    <g class="ff_offp_pre" transform="translate(-328.982421875,2541.5400390625)">
      <line class="ff_off_curve_x" x1="-8" x2="8" y1="-8" y2="8"/>
      <line class="ff_off_curve_x" x1="-8" x2="8" y1="8" y2="-8"/>
    </g>
  </g>
  <g class="ff_offp">
    <line class="ff_offp_post" x1="-363.78125" x2="-388.912109375" y1="2541.5400390625" y2="2541.5400390625"/>
    <g class="ff_offp_post" transform="translate(-388.912109375,2541.5400390625)">
      <line class="ff_off_curve_x" x1="-8" x2="8" y1="-8" y2="8"/>
      <line class="ff_off_curve_x" x1="-8" x2="8" y1="8" y2="-8"/>
    </g>
  </g>
  <g class="ff_offp">
    <line class="ff_offp_pre" x1="-420.4423828125" x2="-410.3955078125" y1="2577.2119140625" y2="2556.095703125"/>
    <g class="ff_offp_pre" transform="translate(-410.3955078125,2556.095703125)">
      <line class="ff_off_curve_x" x1="-8" x2="8" y1="-8" y2="8"/>
      <line class="ff_off_curve_x" x1="-8" x2="8" y1="8" y2="-8"/>
    </g>
  </g>
  <g class="ff_offp">
    <line class="ff_offp_post" x1="-420.4423828125" x2="-422.306640625" y1="2577.2119140625" y2="2581.130859375"/>
    <g class="ff_offp_post" transform="translate(-422.306640625,2581.130859375)">
      <line class="ff_off_curve_x" x1="-8" x2="8" y1="-8" y2="8"/>
      <line class="ff_off_curve_x" x1="-8" x2="8" y1="8" y2="-8"/>
    </g>
  </g>
  <g class="ff_offp">
    <line class="ff_offp_pre" x1="-436.6123046875" x2="-424.8330078125" y1="2587.7314453125" y2="2587.7314453125"/>
    <g class="ff_offp_pre" transform="translate(-424.8330078125,2587.7314453125)">
      <line class="ff_off_curve_x" x1="-8" x2="8" y1="-8" y2="8"/>
      <line class="ff_off_curve_x" x1="-8" x2="8" y1="8" y2="-8"/>
    </g>
  </g>
  <g class="ff_offp">
    <line class="ff_offp_post" x1="-436.6123046875" x2="-447.154296875" y1="2587.7314453125" y2="2587.7314453125"/>
    <g class="ff_offp_post" transform="translate(-447.154296875,2587.7314453125)">
      <line class="ff_off_curve_x" x1="-8" x2="8" y1="-8" y2="8"/>
      <line class="ff_off_curve_x" x1="-8" x2="8" y1="8" y2="-8"/>
    </g>
  </g>
  <g class="ff_offp">
    <line class="ff_offp_pre" x1="-454.3212890625" x2="-454.3212890625" y1="2571.6435546875" y2="2578.7490234375"/>
    <g class="ff_offp_pre" transform="translate(-454.3212890625,2578.7490234375)">
      <line class="ff_off_curve_x" x1="-8" x2="8" y1="-8" y2="8"/>
      <line class="ff_off_curve_x" x1="-8" x2="8" y1="8" y2="-8"/>
    </g>
  </g>
  <g class="ff_offp">
    <line class="ff_offp_post" x1="-454.3212890625" x2="-454.3212890625" y1="2571.6435546875" y2="2570.849609375"/>
    <g class="ff_offp_post" transform="translate(-454.3212890625,2570.849609375)">
      <line class="ff_off_curve_x" x1="-8" x2="8" y1="-8" y2="8"/>
      <line class="ff_off_curve_x" x1="-8" x2="8" y1="8" y2="-8"/>
    </g>
  </g>
  <g class="ff_offp">
    <line class="ff_offp_pre" x1="-454.1923828125" x2="-454.1923828125" y1="2569.947265625" y2="2570.328125"/>
    <g class="ff_offp_pre" transform="translate(-454.1923828125,2570.328125)">
      <line class="ff_off_curve_x" x1="-8" x2="8" y1="-8" y2="8"/>
      <line class="ff_off_curve_x" x1="-8" x2="8" y1="8" y2="-8"/>
    </g>
  </g>
  <g class="ff_offp">
    <line class="ff_offp_post" x1="-454.1923828125" x2="-454.1923828125" y1="2569.947265625" y2="2557.9140625"/>
    <g class="ff_offp_post" transform="translate(-454.1923828125,2557.9140625)">
      <line class="ff_off_curve_x" x1="-8" x2="8" y1="-8" y2="8"/>
      <line class="ff_off_curve_x" x1="-8" x2="8" y1="8" y2="-8"/>
    </g>
  </g>
  <g class="ff_offp">
    <line class="ff_offp_pre" x1="-421.4013671875" x2="-442.390625" y1="2477.6640625" y2="2518.0576171875"/>
    <g class="ff_offp_pre" transform="translate(-442.390625,2518.0576171875)">
      <line class="ff_off_curve_x" x1="-8" x2="8" y1="-8" y2="8"/>
      <line class="ff_off_curve_x" x1="-8" x2="8" y1="8" y2="-8"/>
    </g>
  </g>
  <g class="ff_offp">
    <line class="ff_offp_post" x1="-421.4013671875" x2="-405.8818359375" y1="2477.6640625" y2="2447.796875"/>
    <g class="ff_offp_post" transform="translate(-405.8818359375,2447.796875)">
      <line class="ff_off_curve_x" x1="-8" x2="8" y1="-8" y2="8"/>
      <line class="ff_off_curve_x" x1="-8" x2="8" y1="8" y2="-8"/>
    </g>
  </g>
  <g class="ff_offp">
    <line class="ff_offp_pre" x1="-345.26953125" x2="-382.435546875" y1="2411.5" y2="2411.8935546875"/>
    <g class="ff_offp_pre" transform="translate(-382.435546875,2411.8935546875)">
      <line class="ff_off_curve_x" x1="-8" x2="8" y1="-8" y2="8"/>
      <line class="ff_off_curve_x" x1="-8" x2="8" y1="8" y2="-8"/>
    </g>
  </g>
  <g class="ff_offp">
    <line class="ff_offp_post" x1="-91.0" x2="-81.341796875" y1="2411.5" y2="2411.5"/>
    <g class="ff_offp_post" transform="translate(-81.341796875,2411.5)">
      <line class="ff_off_curve_x" x1="-8" x2="8" y1="-8" y2="8"/>
      <line class="ff_off_curve_x" x1="-8" x2="8" y1="8" y2="-8"/>
    </g>
  </g>
  <g class="ff_offp">
    <line class="ff_offp_pre" x1="-73.5" x2="-73.5" y1="2429.0" y2="2419.341796875"/>
    <g class="ff_offp_pre" transform="translate(-73.5,2419.341796875)">
      <line class="ff_off_curve_x" x1="-8" x2="8" y1="-8" y2="8"/>
      <line class="ff_off_curve_x" x1="-8" x2="8" y1="8" y2="-8"/>
    </g>
  </g>
  <g class="ff_offp">
    <line class="ff_offp_post" x1="-73.5" x2="-73.5" y1="2429.0" y2="2434.7275390625"/>
    <g class="ff_offp_post" transform="translate(-73.5,2434.7275390625)">
      <line class="ff_off_curve_x" x1="-8" x2="8" y1="-8" y2="8"/>
      <line class="ff_off_curve_x" x1="-8" x2="8" y1="8" y2="-8"/>
    </g>
  </g>
  <g class="ff_offp">
    <line class="ff_offp_pre" x1="-80.515625" x2="-76.2568359375" y1="2443.0087890625" y2="2439.8154296875"/>
    <g class="ff_offp_pre" transform="translate(-76.2568359375,2439.8154296875)">
      <line class="ff_off_curve_x" x1="-8" x2="8" y1="-8" y2="8"/>
      <line class="ff_off_curve_x" x1="-8" x2="8" y1="8" y2="-8"/>
    </g>
  </g>
  <g class="ff_offp">
    <line class="ff_offp_post" x1="-80.515625" x2="-115.142578125" y1="2443.0087890625" y2="2468.9765625"/>
    <g class="ff_offp_post" transform="translate(-115.142578125,2468.9765625)">
      <line class="ff_off_curve_x" x1="-8" x2="8" y1="-8" y2="8"/>
      <line class="ff_off_curve_x" x1="-8" x2="8" y1="8" y2="-8"/>
    </g>
  </g>
  <g class="ff_offp">
    <line class="ff_offp_pre" x1="-135.986328125" x2="-124.9296875" y1="2526.6630859375" y2="2496.255859375"/>
    <g class="ff_offp_pre" transform="translate(-124.9296875,2496.255859375)">
      <line class="ff_off_curve_x" x1="-8" x2="8" y1="-8" y2="8"/>
      <line class="ff_off_curve_x" x1="-8" x2="8" y1="8" y2="-8"/>
    </g>
  </g>
  <g class="ff_offp">
    <line class="ff_offp_post" x1="-135.986328125" x2="-144.96484375" y1="2526.6630859375" y2="2551.3525390625"/>
    <g class="ff_offp_post" transform="translate(-144.96484375,2551.3525390625)">
      <line class="ff_off_curve_x" x1="-8" x2="8" y1="-8" y2="8"/>
      <line class="ff_off_curve_x" x1="-8" x2="8" y1="8" y2="-8"/>
    </g>
  </g>
  <g class="ff_offp">
    <line class="ff_offp_pre" x1="-181.095703125" x2="-155.15234375" y1="2601.423828125" y2="2578.99609375"/>
    <g class="ff_offp_pre" transform="translate(-155.15234375,2578.99609375)">
      <line class="ff_off_curve_x" x1="-8" x2="8" y1="-8" y2="8"/>
      <line class="ff_off_curve_x" x1="-8" x2="8" y1="8" y2="-8"/>
    </g>
  </g>
  <g class="ff_offp">
    <line class="ff_offp_post" x1="-181.095703125" x2="-139.79296875" y1="2601.423828125" y2="2628.3916015625"/>
    <g class="ff_offp_post" transform="translate(-139.79296875,2628.3916015625)">
      <line class="ff_off_curve_x" x1="-8" x2="8" y1="-8" y2="8"/>
      <line class="ff_off_curve_x" x1="-8" x2="8" y1="8" y2="-8"/>
    </g>
  </g>
  <g class="ff_offp">
    <line class="ff_offp_pre" x1="-120.150390625" x2="-120.150390625" y1="2701.248046875" y2="2665.203125"/>
    <g class="ff_offp_pre" transform="translate(-120.150390625,2665.203125)">
      <line class="ff_off_curve_x" x1="-8" x2="8" y1="-8" y2="8"/>
      <line class="ff_off_curve_x" x1="-8" x2="8" y1="8" y2="-8"/>
    </g>
  </g>
  <g class="ff_offp">
    <line class="ff_offp_post" x1="-120.150390625" x2="-120.150390625" y1="2701.248046875" y2="2718.3291015625"/>
    <g class="ff_offp_post" transform="translate(-120.150390625,2718.3291015625)">
      <line class="ff_off_curve_x" x1="-8" x2="8" y1="-8" y2="8"/>
      <line class="ff_off_curve_x" x1="-8" x2="8" y1="8" y2="-8"/>
    </g>
  </g>
  <g class="ff_offp">
    <line class="ff_offp_pre" x1="-132.43359375" x2="-124.513671875" y1="2749.0751953125" y2="2734.6748046875"/>
    <g class="ff_offp_pre" transform="translate(-124.513671875,2734.6748046875)">
      <line class="ff_off_curve_x" x1="-8" x2="8" y1="-8" y2="8"/>
      <line class="ff_off_curve_x" x1="-8" x2="8" y1="8" y2="-8"/>
    </g>
  </g>
  <g class="ff_offp">
    <line class="ff_offp_post" x1="-132.43359375" x2="-149.7236328125" y1="2749.0751953125" y2="2780.5166015625"/>
    <g class="ff_offp_post" transform="translate(-149.7236328125,2780.5166015625)">
      <line class="ff_off_curve_x" x1="-8" x2="8" y1="-8" y2="8"/>
      <line class="ff_off_curve_x" x1="-8" x2="8" y1="8" y2="-8"/>
    </g>
  </g>
  <g class="ff_offp">
    <line class="ff_offp_pre" x1="-210.1220703125" x2="-183.7412109375" y1="2795.1640625" y2="2795.1640625"/>
    <g class="ff_offp_pre" transform="translate(-183.7412109375,2795.1640625)">
      <line class="ff_off_curve_x" x1="-8" x2="8" y1="-8" y2="8"/>
      <line class="ff_off_curve_x" x1="-8" x2="8" y1="8" y2="-8"/>
    </g>
  </g>
  <g class="ff_offp">
    <line class="ff_offp_post" x1="-210.1220703125" x2="-255.169921875" y1="2795.1640625" y2="2795.1640625"/>
    <g class="ff_offp_post" transform="translate(-255.169921875,2795.1640625)">
      <line class="ff_off_curve_x" x1="-8" x2="8" y1="-8" y2="8"/>
      <line class="ff_off_curve_x" x1="-8" x2="8" y1="8" y2="-8"/>
    </g>
  </g>
  <g class="ff_offp">
    <line class="ff_offp_pre" x1="-345.26953125" x2="-300.2177734375" y1="2795.19140625" y2="2795.19140625"/>
    <g class="ff_offp_pre" transform="translate(-300.2177734375,2795.19140625)">
      <line class="ff_off_curve_x" x1="-8" x2="8" y1="-8" y2="8"/>
      <line class="ff_off_curve_x" x1="-8" x2="8" y1="8" y2="-8"/>
    </g>
  </g>
  <g class="ff_offp">
    <line class="ff_offp_post" x1="-345.26953125" x2="-382.3974609375" y1="2795.19140625" y2="2795.19140625"/>
    <g class="ff_offp_post" transform="translate(-382.3974609375,2795.19140625)">
      <line class="ff_off_curve_x" x1="-8" x2="8" y1="-8" y2="8"/>
      <line class="ff_off_curve_x" x1="-8" x2="8" y1="8" y2="-8"/>
    </g>
  </g>
  <g class="ff_offp">
    <line class="ff_offp_pre" x1="-421.40625" x2="-405.908203125" y1="2729.2802734375" y2="2759.142578125"/>
    <g class="ff_offp_pre" transform="translate(-405.908203125,2759.142578125)">
      <line class="ff_off_curve_x" x1="-8" x2="8" y1="-8" y2="8"/>
      <line class="ff_off_curve_x" x1="-8" x2="8" y1="8" y2="-8"/>
    </g>
  </g>
  <g class="ff_offp">
    <line class="ff_offp_post" x1="-421.40625" x2="-442.3974609375" y1="2729.2802734375" y2="2688.830078125"/>
    <g class="ff_offp_post" transform="translate(-442.3974609375,2688.830078125)">
      <line class="ff_off_curve_x" x1="-8" x2="8" y1="-8" y2="8"/>
      <line class="ff_off_curve_x" x1="-8" x2="8" y1="8" y2="-8"/>
    </g>
  </g>
  <g class="ff_offp">
    <line class="ff_offp_pre" x1="-454.1923828125" x2="-454.1923828125" y1="2636.75" y2="2648.7841796875"/>
    <g class="ff_offp_pre" transform="translate(-454.1923828125,2648.7841796875)">
      <line class="ff_off_curve_x" x1="-8" x2="8" y1="-8" y2="8"/>
      <line class="ff_off_curve_x" x1="-8" x2="8" y1="8" y2="-8"/>
    </g>
  </g>
  <g class="ff_offp">
    <line class="ff_offp_post" x1="-454.1923828125" x2="-454.1923828125" y1="2636.75" y2="2636.3671875"/>
    <g class="ff_offp_post" transform="translate(-454.1923828125,2636.3671875)">
      <line class="ff_off_curve_x" x1="-8" x2="8" y1="-8" y2="8"/>
      <line class="ff_off_curve_x" x1="-8" x2="8" y1="8" y2="-8"/>
    </g>
  </g>
  <g class="ff_offp">
    <line class="ff_offp_pre" x1="-454.3212890625" x2="-454.3212890625" y1="2635.0546875" y2="2635.84765625"/>
    <g class="ff_offp_pre" transform="translate(-454.3212890625,2635.84765625)">
      <line class="ff_off_curve_x" x1="-8" x2="8" y1="-8" y2="8"/>
      <line class="ff_off_curve_x" x1="-8" x2="8" y1="8" y2="-8"/>
    </g>
  </g>
  <g class="ff_offp">
    <line class="ff_offp_post" x1="101.6953125" x2="126.6162109375" y1="2619.48046875" y2="2619.48046875"/>
    <g class="ff_offp_post" transform="translate(126.6162109375,2619.48046875)">
      <line class="ff_off_curve_x" x1="-8" x2="8" y1="-8" y2="8"/>
      <line class="ff_off_curve_x" x1="-8" x2="8" y1="8" y2="-8"/>
    </g>
  </g>
  <g class="ff_offp">
    <line class="ff_offp_pre" x1="174.166015625" x2="137.15234375" y1="2665.1474609375" y2="2665.1474609375"/>
    <g class="ff_offp_pre" transform="translate(137.15234375,2665.1474609375)">
      <line class="ff_off_curve_x" x1="-8" x2="8" y1="-8" y2="8"/>
      <line class="ff_off_curve_x" x1="-8" x2="8" y1="8" y2="-8"/>
    </g>
  </g>
  <g class="ff_offp">
    <line class="ff_offp_post" x1="174.166015625" x2="209.15625" y1="2665.1474609375" y2="2665.1474609375"/>
    <g class="ff_offp_post" transform="translate(209.15625,2665.1474609375)">
      <line class="ff_off_curve_x" x1="-8" x2="8" y1="-8" y2="8"/>
      <line class="ff_off_curve_x" x1="-8" x2="8" y1="8" y2="-8"/>
    </g>
  </g>
  <g class="ff_offp">
    <line class="ff_offp_pre" x1="236.896484375" x2="236.896484375" y1="2604.26953125" y2="2636.90234375"/>
    <g class="ff_offp_pre" transform="translate(236.896484375,2636.90234375)">
      <line class="ff_off_curve_x" x1="-8" x2="8" y1="-8" y2="8"/>
      <line class="ff_off_curve_x" x1="-8" x2="8" y1="8" y2="-8"/>
    </g>
  </g>
  <g class="ff_offp">
    <line class="ff_offp_post" x1="236.896484375" x2="236.896484375" y1="2604.26953125" y2="2569.470703125"/>
    <g class="ff_offp_post" transform="translate(236.896484375,2569.470703125)">
      <line class="ff_off_curve_x" x1="-8" x2="8" y1="-8" y2="8"/>
      <line class="ff_off_curve_x" x1="-8" x2="8" y1="8" y2="-8"/>
    </g>
  </g>
  <g class="ff_offp">
    <line class="ff_offp_pre" x1="174.166015625" x2="208.9677734375" y1="2541.5400390625" y2="2541.5400390625"/>
    <g class="ff_offp_pre" transform="translate(208.9677734375,2541.5400390625)">
      <line class="ff_off_curve_x" x1="-8" x2="8" y1="-8" y2="8"/>
      <line class="ff_off_curve_x" x1="-8" x2="8" y1="8" y2="-8"/>
    </g>
  </g>
  <g class="ff_offp">
    <line class="ff_offp_post" x1="174.166015625" x2="137.3994140625" y1="2541.5400390625" y2="2541.5400390625"/>
    <g class="ff_offp_post" transform="translate(137.3994140625,2541.5400390625)">
      <line class="ff_off_curve_x" x1="-8" x2="8" y1="-8" y2="8"/>
      <line class="ff_off_curve_x" x1="-8" x2="8" y1="8" y2="-8"/>
    </g>
  </g>
  <g class="ff_offp">
    <line class="ff_offp_pre" x1="101.6953125" x2="126.3388671875" y1="2587.2109375" y2="2587.2109375"/>
    <g class="ff_offp_pre" transform="translate(126.3388671875,2587.2109375)">
      <line class="ff_off_curve_x" x1="-8" x2="8" y1="-8" y2="8"/>
      <line class="ff_off_curve_x" x1="-8" x2="8" y1="8" y2="-8"/>
    </g>
  </g>
  <g class="ff_offp">
    <line class="ff_offp_post" x1="101.6953125" x2="92.0361328125" y1="2587.2109375" y2="2587.2109375"/>
    <g class="ff_offp_post" transform="translate(92.0361328125,2587.2109375)">
      <line class="ff_off_curve_x" x1="-8" x2="8" y1="-8" y2="8"/>
      <line class="ff_off_curve_x" x1="-8" x2="8" y1="8" y2="-8"/>
    </g>
  </g>
  <g class="ff_offp">
    <line class="ff_offp_pre" x1="84.1953125" x2="84.1953125" y1="2569.7109375" y2="2579.369140625"/>
    <g class="ff_offp_pre" transform="translate(84.1953125,2579.369140625)">
      <line class="ff_off_curve_x" x1="-8" x2="8" y1="-8" y2="8"/>
      <line class="ff_off_curve_x" x1="-8" x2="8" y1="8" y2="-8"/>
    </g>
  </g>
  <g class="ff_offp">
    <line class="ff_offp_post" x1="84.1953125" x2="84.1953125" y1="2569.7109375" y2="2567.4765625"/>
    <g class="ff_offp_post" transform="translate(84.1953125,2567.4765625)">
      <line class="ff_off_curve_x" x1="-8" x2="8" y1="-8" y2="8"/>
      <line class="ff_off_curve_x" x1="-8" x2="8" y1="8" y2="-8"/>
    </g>
  </g>
  <g class="ff_offp">
    <line class="ff_offp_pre" x1="192.681640625" x2="110.3515625" y1="2411.5" y2="2412.3720703125"/>
    <g class="ff_offp_pre" transform="translate(110.3515625,2412.3720703125)">
      <line class="ff_off_curve_x" x1="-8" x2="8" y1="-8" y2="8"/>
      <line class="ff_off_curve_x" x1="-8" x2="8" y1="8" y2="-8"/>
    </g>
  </g>
  <g class="ff_offp">
    <line class="ff_offp_post" x1="446.9501953125" x2="456.609375" y1="2411.5" y2="2411.5"/>
    <g class="ff_offp_post" transform="translate(456.609375,2411.5)">
      <line class="ff_off_curve_x" x1="-8" x2="8" y1="-8" y2="8"/>
      <line class="ff_off_curve_x" x1="-8" x2="8" y1="8" y2="-8"/>
    </g>
  </g>
  <g class="ff_offp">
    <line class="ff_offp_pre" x1="464.4501953125" x2="464.4501953125" y1="2429.0" y2="2419.341796875"/>
    <g class="ff_offp_pre" transform="translate(464.4501953125,2419.341796875)">
      <line class="ff_off_curve_x" x1="-8" x2="8" y1="-8" y2="8"/>
      <line class="ff_off_curve_x" x1="-8" x2="8" y1="8" y2="-8"/>
    </g>
  </g>
  <g class="ff_offp">
    <line class="ff_offp_post" x1="464.4501953125" x2="464.4501953125" y1="2429.0" y2="2434.7275390625"/>
    <g class="ff_offp_post" transform="translate(464.4501953125,2434.7275390625)">
      <line class="ff_off_curve_x" x1="-8" x2="8" y1="-8" y2="8"/>
      <line class="ff_off_curve_x" x1="-8" x2="8" y1="8" y2="-8"/>
    </g>
  </g>
  <g class="ff_offp">
    <line class="ff_offp_pre" x1="457.435546875" x2="461.693359375" y1="2443.0087890625" y2="2439.8154296875"/>
    <g class="ff_offp_pre" transform="translate(461.693359375,2439.8154296875)">
      <line class="ff_off_curve_x" x1="-8" x2="8" y1="-8" y2="8"/>
      <line class="ff_off_curve_x" x1="-8" x2="8" y1="8" y2="-8"/>
    </g>
  </g>
  <g class="ff_offp">
    <line class="ff_offp_post" x1="457.435546875" x2="393.826171875" y1="2443.0087890625" y2="2490.7109375"/>
    <g class="ff_offp_post" transform="translate(393.826171875,2490.7109375)">
      <line class="ff_off_curve_x" x1="-8" x2="8" y1="-8" y2="8"/>
      <line class="ff_off_curve_x" x1="-8" x2="8" y1="8" y2="-8"/>
    </g>
  </g>
  <g class="ff_offp">
    <line class="ff_offp_pre" x1="356.8544921875" x2="414.630859375" y1="2601.423828125" y2="2551.478515625"/>
    <g class="ff_offp_pre" transform="translate(414.630859375,2551.478515625)">
      <line class="ff_off_curve_x" x1="-8" x2="8" y1="-8" y2="8"/>
      <line class="ff_off_curve_x" x1="-8" x2="8" y1="8" y2="-8"/>
    </g>
  </g>
  <g class="ff_offp">
    <line class="ff_offp_post" x1="356.8544921875" x2="398.1572265625" y1="2601.423828125" y2="2628.3916015625"/>
    <g class="ff_offp_post" transform="translate(398.1572265625,2628.3916015625)">
      <line class="ff_off_curve_x" x1="-8" x2="8" y1="-8" y2="8"/>
      <line class="ff_off_curve_x" x1="-8" x2="8" y1="8" y2="-8"/>
    </g>
  </g>
  <g class="ff_offp">
    <line class="ff_offp_pre" x1="417.80078125" x2="417.80078125" y1="2701.248046875" y2="2665.203125"/>
    <g class="ff_offp_pre" transform="translate(417.80078125,2665.203125)">
      <line class="ff_off_curve_x" x1="-8" x2="8" y1="-8" y2="8"/>
      <line class="ff_off_curve_x" x1="-8" x2="8" y1="8" y2="-8"/>
    </g>
  </g>
  <g class="ff_offp">
    <line class="ff_offp_post" x1="417.80078125" x2="417.80078125" y1="2701.248046875" y2="2757.0947265625"/>
    <g class="ff_offp_post" transform="translate(417.80078125,2757.0947265625)">
      <line class="ff_off_curve_x" x1="-8" x2="8" y1="-8" y2="8"/>
      <line class="ff_off_curve_x" x1="-8" x2="8" y1="8" y2="-8"/>
    </g>
  </g>
  <g class="ff_offp">
    <line class="ff_offp_pre" x1="327.8291015625" x2="370.447265625" y1="2795.1640625" y2="2795.1640625"/>
    <g class="ff_offp_pre" transform="translate(370.447265625,2795.1640625)">
      <line class="ff_off_curve_x" x1="-8" x2="8" y1="-8" y2="8"/>
      <line class="ff_off_curve_x" x1="-8" x2="8" y1="8" y2="-8"/>
    </g>
  </g>
  <g class="ff_offp">
    <line class="ff_offp_post" x1="327.8291015625" x2="282.7802734375" y1="2795.1640625" y2="2795.1640625"/>
    <g class="ff_offp_post" transform="translate(282.7802734375,2795.1640625)">
      <line class="ff_off_curve_x" x1="-8" x2="8" y1="-8" y2="8"/>
      <line class="ff_off_curve_x" x1="-8" x2="8" y1="8" y2="-8"/>
    </g>
  </g>
  <g class="ff_offp">
    <line class="ff_offp_pre" x1="192.681640625" x2="237.732421875" y1="2795.19140625" y2="2795.19140625"/>
    <g class="ff_offp_pre" transform="translate(237.732421875,2795.19140625)">
      <line class="ff_off_curve_x" x1="-8" x2="8" y1="-8" y2="8"/>
      <line class="ff_off_curve_x" x1="-8" x2="8" y1="8" y2="-8"/>
    </g>
  </g>
  <g class="ff_offp">
    <line class="ff_offp_post" x1="192.681640625" x2="110.3525390625" y1="2795.19140625" y2="2795.19140625"/>
    <g class="ff_offp_post" transform="translate(110.3525390625,2795.19140625)">
      <line class="ff_off_curve_x" x1="-8" x2="8" y1="-8" y2="8"/>
      <line class="ff_off_curve_x" x1="-8" x2="8" y1="8" y2="-8"/>
    </g>
  </g>
  <g class="ff_offp">
    <line class="ff_offp_pre" x1="84.1953125" x2="84.1953125" y1="2636.98046875" y2="2639.1484375"/>
    <g class="ff_offp_pre" transform="translate(84.1953125,2639.1484375)">
      <line class="ff_off_curve_x" x1="-8" x2="8" y1="-8" y2="8"/>
      <line class="ff_off_curve_x" x1="-8" x2="8" y1="8" y2="-8"/>
    </g>
  </g>
  <g class="ff_offp">
    <line class="ff_offp_post" x1="84.1953125" x2="84.1953125" y1="2636.98046875" y2="2627.3212890625"/>
    <g class="ff_offp_post" transform="translate(84.1953125,2627.3212890625)">
      <line class="ff_off_curve_x" x1="-8" x2="8" y1="-8" y2="8"/>
      <line class="ff_off_curve_x" x1="-8" x2="8" y1="8" y2="-8"/>
    </g>
  </g>
  <g class="ff_offp">
    <line class="ff_offp_pre" x1="101.6953125" x2="92.0361328125" y1="2619.48046875" y2="2619.48046875"/>
    <g class="ff_offp_pre" transform="translate(92.0361328125,2619.48046875)">
      <line class="ff_off_curve_x" x1="-8" x2="8" y1="-8" y2="8"/>
      <line class="ff_off_curve_x" x1="-8" x2="8" y1="8" y2="-8"/>
    </g>
  </g>
  <g class="ff_offp">
    <line class="ff_offp_post" x1="327.9052734375" x2="354.05078125" y1="2760.1640625" y2="2760.1640625"/>
    <g class="ff_offp_post" transform="translate(354.05078125,2760.1640625)">
      <line class="ff_off_curve_x" x1="-8" x2="8" y1="-8" y2="8"/>
      <line class="ff_off_curve_x" x1="-8" x2="8" y1="8" y2="-8"/>
    </g>
  </g>
  <g class="ff_offp">
    <line class="ff_offp_pre" x1="382.80078125" x2="382.80078125" y1="2701.248046875" y2="2735.1318359375"/>
    <g class="ff_offp_pre" transform="translate(382.80078125,2735.1318359375)">
      <line class="ff_off_curve_x" x1="-8" x2="8" y1="-8" y2="8"/>
      <line class="ff_off_curve_x" x1="-8" x2="8" y1="8" y2="-8"/>
    </g>
  </g>
  <g class="ff_offp">
    <line class="ff_offp_post" x1="382.80078125" x2="382.80078125" y1="2701.248046875" y2="2674.400390625"/>
    <g class="ff_offp_post" transform="translate(382.80078125,2674.400390625)">
      <line class="ff_off_curve_x" x1="-8" x2="8" y1="-8" y2="8"/>
      <line class="ff_off_curve_x" x1="-8" x2="8" y1="8" y2="-8"/>
    </g>
  </g>
  <g class="ff_offp">
    <line class="ff_offp_pre" x1="316.2236328125" x2="366.2353515625" y1="2618.9462890625" y2="2641.9345703125"/>
    <g class="ff_offp_pre" transform="translate(366.2353515625,2641.9345703125)">
      <line class="ff_off_curve_x" x1="-8" x2="8" y1="-8" y2="8"/>
      <line class="ff_off_curve_x" x1="-8" x2="8" y1="8" y2="-8"/>
    </g>
  </g>
  <g class="ff_offp">
    <line class="ff_offp_post" x1="316.2236328125" x2="310.2021484375" y1="2618.9462890625" y2="2616.1787109375"/>
    <g class="ff_offp_post" transform="translate(310.2021484375,2616.1787109375)">
      <line class="ff_off_curve_x" x1="-8" x2="8" y1="-8" y2="8"/>
      <line class="ff_off_curve_x" x1="-8" x2="8" y1="8" y2="-8"/>
    </g>
  </g>
  <g class="ff_offp">
    <line class="ff_offp_pre" x1="306.017578125" x2="306.017578125" y1="2603.0361328125" y2="2610.091796875"/>
    <g class="ff_offp_pre" transform="translate(306.017578125,2610.091796875)">
      <line class="ff_off_curve_x" x1="-8" x2="8" y1="-8" y2="8"/>
      <line class="ff_off_curve_x" x1="-8" x2="8" y1="8" y2="-8"/>
    </g>
  </g>
  <g class="ff_offp">
    <line class="ff_offp_post" x1="306.017578125" x2="306.017578125" y1="2603.0361328125" y2="2596.3388671875"/>
    <g class="ff_offp_post" transform="translate(306.017578125,2596.3388671875)">
      <line class="ff_off_curve_x" x1="-8" x2="8" y1="-8" y2="8"/>
      <line class="ff_off_curve_x" x1="-8" x2="8" y1="8" y2="-8"/>
    </g>
  </g>
  <g class="ff_offp">
    <line class="ff_offp_pre" x1="315.3193359375" x2="309.7880859375" y1="2587.57421875" y2="2590.515625"/>
    <g class="ff_offp_pre" transform="translate(309.7880859375,2590.515625)">
      <line class="ff_off_curve_x" x1="-8" x2="8" y1="-8" y2="8"/>
      <line class="ff_off_curve_x" x1="-8" x2="8" y1="8" y2="-8"/>
    </g>
  </g>
  <g class="ff_offp">
    <line class="ff_offp_post" x1="315.3193359375" x2="373.5380859375" y1="2587.57421875" y2="2556.6162109375"/>
    <g class="ff_offp_post" transform="translate(373.5380859375,2556.6162109375)">
      <line class="ff_off_curve_x" x1="-8" x2="8" y1="-8" y2="8"/>
      <line class="ff_off_curve_x" x1="-8" x2="8" y1="8" y2="-8"/>
    </g>
  </g>
  <g class="ff_offp">
    <line class="ff_offp_pre" x1="403.91015625" x2="363.9287109375" y1="2446.5" y2="2497.08203125"/>
    <g class="ff_offp_pre" transform="translate(363.9287109375,2497.08203125)">
      <line class="ff_off_curve_x" x1="-8" x2="8" y1="-8" y2="8"/>
      <line class="ff_off_curve_x" x1="-8" x2="8" y1="8" y2="-8"/>
    </g>
  </g>
  <g class="ff_offp">
    <line class="ff_offp_post" x1="192.681640625" x2="173.6015625" y1="2446.5" y2="2446.703125"/>
    <g class="ff_offp_post" transform="translate(173.6015625,2446.703125)">
      <line class="ff_off_curve_x" x1="-8" x2="8" y1="-8" y2="8"/>
      <line class="ff_off_curve_x" x1="-8" x2="8" y1="8" y2="-8"/>
    </g>
  </g>
  <g class="ff_offp">
    <line class="ff_offp_pre" x1="140.64453125" x2="154.609375" y1="2512.4140625" y2="2479.935546875"/>
    <g class="ff_offp_pre" transform="translate(154.609375,2479.935546875)">
      <line class="ff_off_curve_x" x1="-8" x2="8" y1="-8" y2="8"/>
      <line class="ff_off_curve_x" x1="-8" x2="8" y1="8" y2="-8"/>
    </g>
  </g>
  <g class="ff_offp">
    <line class="ff_offp_post" x1="140.64453125" x2="151.0986328125" y1="2512.4140625" y2="2508.6123046875"/>
    <g class="ff_offp_post" transform="translate(151.0986328125,2508.6123046875)">
      <line class="ff_off_curve_x" x1="-8" x2="8" y1="-8" y2="8"/>
      <line class="ff_off_curve_x" x1="-8" x2="8" y1="8" y2="-8"/>
    </g>
  </g>
  <g class="ff_offp">
    <line class="ff_offp_pre" x1="174.166015625" x2="162.3876953125" y1="2506.5400390625" y2="2506.5400390625"/>
    <g class="ff_offp_pre" transform="translate(162.3876953125,2506.5400390625)">
      <line class="ff_off_curve_x" x1="-8" x2="8" y1="-8" y2="8"/>
      <line class="ff_off_curve_x" x1="-8" x2="8" y1="8" y2="-8"/>
    </g>
  </g>
  <g class="ff_offp">
    <line class="ff_offp_post" x1="174.166015625" x2="228.23828125" y1="2506.5400390625" y2="2506.5400390625"/>
    <g class="ff_offp_post" transform="translate(228.23828125,2506.5400390625)">
      <line class="ff_off_curve_x" x1="-8" x2="8" y1="-8" y2="8"/>
      <line class="ff_off_curve_x" x1="-8" x2="8" y1="8" y2="-8"/>
    </g>
  </g>
  <g class="ff_offp">
    <line class="ff_offp_pre" x1="271.896484375" x2="271.896484375" y1="2604.26953125" y2="2550.2021484375"/>
    <g class="ff_offp_pre" transform="translate(271.896484375,2550.2021484375)">
      <line class="ff_off_curve_x" x1="-8" x2="8" y1="-8" y2="8"/>
      <line class="ff_off_curve_x" x1="-8" x2="8" y1="8" y2="-8"/>
    </g>
  </g>
  <g class="ff_offp">
    <line class="ff_offp_post" x1="271.896484375" x2="271.896484375" y1="2604.26953125" y2="2656.806640625"/>
    <g class="ff_offp_post" transform="translate(271.896484375,2656.806640625)">
      <line class="ff_off_curve_x" x1="-8" x2="8" y1="-8" y2="8"/>
      <line class="ff_off_curve_x" x1="-8" x2="8" y1="8" y2="-8"/>
    </g>
  </g>
  <g class="ff_offp">
    <line class="ff_offp_pre" x1="174.166015625" x2="228.0498046875" y1="2700.1474609375" y2="2700.1474609375"/>
    <g class="ff_offp_pre" transform="translate(228.0498046875,2700.1474609375)">
      <line class="ff_off_curve_x" x1="-8" x2="8" y1="-8" y2="8"/>
      <line class="ff_off_curve_x" x1="-8" x2="8" y1="8" y2="-8"/>
    </g>
  </g>
  <g class="ff_offp">
    <line class="ff_offp_post" x1="174.166015625" x2="162.3603515625" y1="2700.1474609375" y2="2700.1474609375"/>
    <g class="ff_offp_post" transform="translate(162.3603515625,2700.1474609375)">
      <line class="ff_off_curve_x" x1="-8" x2="8" y1="-8" y2="8"/>
      <line class="ff_off_curve_x" x1="-8" x2="8" y1="8" y2="-8"/>
    </g>
  </g>
  <g class="ff_offp">
    <line class="ff_offp_pre" x1="140.5693359375" x2="151.044921875" y1="2694.24609375" y2="2698.0654296875"/>
    <g class="ff_offp_pre" transform="translate(151.044921875,2698.0654296875)">
      <line class="ff_off_curve_x" x1="-8" x2="8" y1="-8" y2="8"/>
      <line class="ff_off_curve_x" x1="-8" x2="8" y1="8" y2="-8"/>
    </g>
  </g>
  <g class="ff_offp">
    <line class="ff_offp_post" x1="140.5693359375" x2="154.5458984375" y1="2694.24609375" y2="2726.8330078125"/>
    <g class="ff_offp_post" transform="translate(154.5458984375,2726.8330078125)">
      <line class="ff_off_curve_x" x1="-8" x2="8" y1="-8" y2="8"/>
      <line class="ff_off_curve_x" x1="-8" x2="8" y1="8" y2="-8"/>
    </g>
  </g>
  <g class="ff_offp">
    <line class="ff_offp_pre" x1="192.681640625" x2="173.5751953125" y1="2760.19140625" y2="2760.19140625"/>
    <g class="ff_offp_pre" transform="translate(173.5751953125,2760.19140625)">
      <line class="ff_off_curve_x" x1="-8" x2="8" y1="-8" y2="8"/>
      <line class="ff_off_curve_x" x1="-8" x2="8" y1="8" y2="-8"/>
    </g>
  </g>
  <g>
    <circle class="ff_onp ff_curve ff_first ff_extremum" cx="0" cy="0" r="7" transform="translate(-266.05078125,2604.26953125)"/>
    <g transform="translate(-266.05078125,2604.26953125) rotate(90.0)">
      <line class="ff_arrow" x1="0" x2="10" y1="-10" y2="-10"/>
      <line class="ff_arrow" x1="10" x2="7" y1="-10" y2="-7"/>
      <line class="ff_arrow" x1="10" x2="7" y1="-10" y2="-13"/>
    </g>
  </g>
  <circle class="ff_onp ff_curve ff_extremum" cx="0" cy="0" r="7" transform="translate(-363.78125,2700.1474609375)"/>
  <rect class="ff_onp ff_corner ff_extremum" height="12" transform="translate(-399.69921875,2693.3671875)" width="12" x="-6" y="-6"/>
  <circle class="ff_onp ff_curve" cx="0" cy="0" r="7" transform="translate(-390.3193359375,2713.193359375)"/>
  <polygon class="ff_onp ff_tangent ff_extremum" points="0,-9 9,0 0,9" transform="translate(-345.26953125,2760.19140625) rotate(180.0)"/>
  <polygon class="ff_onp ff_tangent" points="0,-9 9,0 0,9" transform="translate(-210.044921875,2760.1640625) rotate(360.0)"/>
  <circle class="ff_onp ff_curve" cx="0" cy="0" r="7" transform="translate(-163.125,2732.24609375)"/>
  <circle class="ff_onp ff_curve ff_extremum" cx="0" cy="0" r="7" transform="translate(-155.150390625,2701.248046875)"/>
  <circle class="ff_onp ff_curve" cx="0" cy="0" r="7" transform="translate(-221.7275390625,2618.9462890625)"/>
  <circle class="ff_onp ff_curve ff_extremum" cx="0" cy="0" r="7" transform="translate(-231.93359375,2603.0361328125)"/>
  <circle class="ff_onp ff_curve" cx="0" cy="0" r="7" transform="translate(-222.6318359375,2587.57421875)"/>
  <circle class="ff_onp ff_curve" cx="0" cy="0" r="7" transform="translate(-168.8916015625,2514.7158203125)"/>
  <rect class="ff_onp ff_corner ff_extremum" height="12" transform="translate(-134.041015625,2446.5)" width="12" x="-6" y="-6"/>
  <polygon class="ff_onp ff_tangent ff_extremum" points="0,-9 9,0 0,9" transform="translate(-345.26953125,2446.5) rotate(179.38771931162006)"/>
  <circle class="ff_onp ff_curve" cx="0" cy="0" r="7" transform="translate(-385.3173828125,2484.62109375)"/>
  <rect class="ff_onp ff_corner ff_extremum" height="12" transform="translate(-399.48828125,2513.23828125)" width="12" x="-6" y="-6"/>
  <circle class="ff_onp ff_curve ff_extremum" cx="0" cy="0" r="7" transform="translate(-363.78125,2506.5400390625)"/>
  <g>
    <circle class="ff_onp ff_curve ff_first ff_extremum" cx="0" cy="0" r="7" transform="translate(-266.05078125,2604.26953125)"/>
    <g transform="translate(-266.05078125,2604.26953125) rotate(90.0)">
      <line class="ff_arrow" x1="0" x2="10" y1="-10" y2="-10"/>
      <line class="ff_arrow" x1="10" x2="7" y1="-10" y2="-7"/>
      <line class="ff_arrow" x1="10" x2="7" y1="-10" y2="-13"/>
    </g>
  </g>
  <g>
    <circle class="ff_onp ff_curve ff_first ff_extremum" cx="0" cy="0" r="7" transform="translate(-454.3212890625,2635.0546875)"/>
    <g transform="translate(-454.3212890625,2635.0546875) rotate(-90.0)">
      <line class="ff_arrow" x1="0" x2="10" y1="-10" y2="-10"/>
      <line class="ff_arrow" x1="10" x2="7" y1="-10" y2="-7"/>
      <line class="ff_arrow" x1="10" x2="7" y1="-10" y2="-13"/>
    </g>
  </g>
  <circle class="ff_onp ff_curve ff_extremum" cx="0" cy="0" r="7" transform="translate(-436.611328125,2618.9619140625)"/>
  <circle class="ff_onp ff_curve" cx="0" cy="0" r="7" transform="translate(-420.443359375,2629.4765625)"/>
  <circle class="ff_onp ff_curve ff_extremum" cx="0" cy="0" r="7" transform="translate(-363.78125,2665.1474609375)"/>
  <circle class="ff_onp ff_curve ff_extremum" cx="0" cy="0" r="7" transform="translate(-301.05078125,2604.26953125)"/>
  <circle class="ff_onp ff_curve ff_extremum" cx="0" cy="0" r="7" transform="translate(-363.78125,2541.5400390625)"/>
  <circle class="ff_onp ff_curve" cx="0" cy="0" r="7" transform="translate(-420.4423828125,2577.2119140625)"/>
  <circle class="ff_onp ff_curve ff_extremum" cx="0" cy="0" r="7" transform="translate(-436.6123046875,2587.7314453125)"/>
  <circle class="ff_onp ff_curve ff_extremum" cx="0" cy="0" r="7" transform="translate(-454.3212890625,2571.6435546875)"/>
  <circle class="ff_onp ff_curve ff_extremum" cx="0" cy="0" r="7" transform="translate(-454.1923828125,2569.947265625)"/>
  <circle class="ff_onp ff_curve" cx="0" cy="0" r="7" transform="translate(-421.4013671875,2477.6640625)"/>
  <polygon class="ff_onp ff_tangent" points="0,-9 9,0 0,9" transform="translate(-345.26953125,2411.5) rotate(179.39331188779198)"/>
  <polygon class="ff_onp ff_tangent ff_extremum" points="0,-9 9,0 0,9" transform="translate(-91.0,2411.5) rotate(360.0)"/>
  <circle class="ff_onp ff_curve ff_extremum" cx="0" cy="0" r="7" transform="translate(-73.5,2429.0)"/>
  <circle class="ff_onp ff_curve" cx="0" cy="0" r="7" transform="translate(-80.515625,2443.0087890625)"/>
  <circle class="ff_onp ff_curve" cx="0" cy="0" r="7" transform="translate(-135.986328125,2526.6630859375)"/>
  <rect class="ff_onp ff_corner ff_extremum" height="12" transform="translate(-181.095703125,2601.423828125)" width="12" x="-6" y="-6"/>
  <circle class="ff_onp ff_curve ff_extremum" cx="0" cy="0" r="7" transform="translate(-120.150390625,2701.248046875)"/>
  <circle class="ff_onp ff_curve" cx="0" cy="0" r="7" transform="translate(-132.43359375,2749.0751953125)"/>
  <circle class="ff_onp ff_curve ff_extremum" cx="0" cy="0" r="7" transform="translate(-210.1220703125,2795.1640625)"/>
  <circle class="ff_onp ff_curve ff_extremum" cx="0" cy="0" r="7" transform="translate(-345.26953125,2795.19140625)"/>
  <circle class="ff_onp ff_curve" cx="0" cy="0" r="7" transform="translate(-421.40625,2729.2802734375)"/>
  <circle class="ff_onp ff_curve ff_extremum" cx="0" cy="0" r="7" transform="translate(-454.1923828125,2636.75)"/>
  <g>
    <circle class="ff_onp ff_curve ff_first ff_extremum" cx="0" cy="0" r="7" transform="translate(-454.3212890625,2635.0546875)"/>
    <g transform="translate(-454.3212890625,2635.0546875) rotate(-90.0)">
      <line class="ff_arrow" x1="0" x2="10" y1="-10" y2="-10"/>
      <line class="ff_arrow" x1="10" x2="7" y1="-10" y2="-7"/>
      <line class="ff_arrow" x1="10" x2="7" y1="-10" y2="-13"/>
    </g>
  </g>
  <g>
    <circle class="ff_onp ff_curve ff_first ff_extremum" cx="0" cy="0" r="7" transform="translate(101.6953125,2619.48046875)"/>
    <g transform="translate(101.6953125,2619.48046875) rotate(0.0)">
      <line class="ff_arrow" x1="0" x2="10" y1="-10" y2="-10"/>
      <line class="ff_arrow" x1="10" x2="7" y1="-10" y2="-7"/>
      <line class="ff_arrow" x1="10" x2="7" y1="-10" y2="-13"/>
    </g>
  </g>
  <circle class="ff_onp ff_curve ff_extremum" cx="0" cy="0" r="7" transform="translate(174.166015625,2665.1474609375)"/>
  <circle class="ff_onp ff_curve ff_extremum" cx="0" cy="0" r="7" transform="translate(236.896484375,2604.26953125)"/>
  <circle class="ff_onp ff_curve ff_extremum" cx="0" cy="0" r="7" transform="translate(174.166015625,2541.5400390625)"/>
  <circle class="ff_onp ff_curve ff_extremum" cx="0" cy="0" r="7" transform="translate(101.6953125,2587.2109375)"/>
  <circle class="ff_onp ff_curve ff_extremum" cx="0" cy="0" r="7" transform="translate(84.1953125,2569.7109375)"/>
  <polygon class="ff_onp ff_tangent" points="0,-9 9,0 0,9" transform="translate(192.681640625,2411.5) rotate(179.3931248346675)"/>
  <polygon class="ff_onp ff_tangent ff_extremum" points="0,-9 9,0 0,9" transform="translate(446.9501953125,2411.5) rotate(360.0)"/>
  <circle class="ff_onp ff_curve ff_extremum" cx="0" cy="0" r="7" transform="translate(464.4501953125,2429.0)"/>
  <circle class="ff_onp ff_curve" cx="0" cy="0" r="7" transform="translate(457.435546875,2443.0087890625)"/>
  <rect class="ff_onp ff_corner ff_extremum" height="12" transform="translate(356.8544921875,2601.423828125)" width="12" x="-6" y="-6"/>
  <circle class="ff_onp ff_curve ff_extremum" cx="0" cy="0" r="7" transform="translate(417.80078125,2701.248046875)"/>
  <circle class="ff_onp ff_curve ff_extremum" cx="0" cy="0" r="7" transform="translate(327.8291015625,2795.1640625)"/>
  <circle class="ff_onp ff_curve ff_extremum" cx="0" cy="0" r="7" transform="translate(192.681640625,2795.19140625)"/>
  <circle class="ff_onp ff_curve ff_extremum" cx="0" cy="0" r="7" transform="translate(84.1953125,2636.98046875)"/>
  <g>
    <circle class="ff_onp ff_curve ff_first ff_extremum" cx="0" cy="0" r="7" transform="translate(101.6953125,2619.48046875)"/>
    <g transform="translate(101.6953125,2619.48046875) rotate(0.0)">
      <line class="ff_arrow" x1="0" x2="10" y1="-10" y2="-10"/>
      <line class="ff_arrow" x1="10" x2="7" y1="-10" y2="-7"/>
      <line class="ff_arrow" x1="10" x2="7" y1="-10" y2="-13"/>
    </g>
  </g>
  <g>
    <polygon class="ff_onp ff_tangent ff_first" points="0,-9 9,0 0,9" transform="translate(327.9052734375,2760.1640625) rotate(360.0)"/>
    <g transform="translate(327.9052734375,2760.1640625) rotate(0.0)">
      <line class="ff_arrow" x1="0" x2="10" y1="-10" y2="-10"/>
      <line class="ff_arrow" x1="10" x2="7" y1="-10" y2="-7"/>
      <line class="ff_arrow" x1="10" x2="7" y1="-10" y2="-13"/>
    </g>
  </g>
  <circle class="ff_onp ff_curve ff_extremum" cx="0" cy="0" r="7" transform="translate(382.80078125,2701.248046875)"/>
  <circle class="ff_onp ff_curve" cx="0" cy="0" r="7" transform="translate(316.2236328125,2618.9462890625)"/>
  <circle class="ff_onp ff_curve ff_extremum" cx="0" cy="0" r="7" transform="translate(306.017578125,2603.0361328125)"/>
  <circle class="ff_onp ff_curve" cx="0" cy="0" r="7" transform="translate(315.3193359375,2587.57421875)"/>
  <rect class="ff_onp ff_corner ff_extremum" height="12" transform="translate(403.91015625,2446.5)" width="12" x="-6" y="-6"/>
  <polygon class="ff_onp ff_tangent ff_extremum" points="0,-9 9,0 0,9" transform="translate(192.681640625,2446.5) rotate(179.39005671293316)"/>
  <rect class="ff_onp ff_corner ff_extremum" height="12" transform="translate(140.64453125,2512.4140625)" width="12" x="-6" y="-6"/>
  <circle class="ff_onp ff_curve ff_extremum" cx="0" cy="0" r="7" transform="translate(174.166015625,2506.5400390625)"/>
  <circle class="ff_onp ff_curve ff_extremum" cx="0" cy="0" r="7" transform="translate(271.896484375,2604.26953125)"/>
  <circle class="ff_onp ff_curve ff_extremum" cx="0" cy="0" r="7" transform="translate(174.166015625,2700.1474609375)"/>
  <rect class="ff_onp ff_corner ff_extremum" height="12" transform="translate(140.5693359375,2694.24609375)" width="12" x="-6" y="-6"/>
  <polygon class="ff_onp ff_tangent ff_extremum" points="0,-9 9,0 0,9" transform="translate(192.681640625,2760.19140625) rotate(180.0)"/>
  <path class="ff_main_background" d="M-283.55078125 2604.26953125C-283.55078125 2646.8544921875 -319.34765625 2682.6474609375 -363.78125 2682.6474609375C-395.8310546875 2682.6474609375 -423.3837890625 2664.033203125 -436.255859375 2636.98046875C-441.2294921875 2626.5244140625 -403.2822265625 2777.69140625 -345.26953125 2777.69140625L-210.11328125 2777.6640625C-189.7451171875 2777.69140625 -161.35546875 2765.3486328125 -147.779296875 2740.66015625C-125.01171875 2699.265625 -137.904296875 2638.2138671875 -214.43359375 2603.0361328125C-136.6708984375 2561.685546875 -170.0 2488.244140625 -91.0 2429.0L-345.26953125 2429.0C-403.2822265625 2429.615234375 -441.2294921875 2580.166015625 -436.255859375 2569.7109375C-423.3837890625 2542.658203125 -395.8310546875 2524.0400390625 -363.78125 2524.0400390625C-319.34765625 2524.0400390625 -283.55078125 2559.8359375 -283.55078125 2604.26953125 zM254.396484375 2604.26953125C254.396484375 2646.8544921875 218.603515625 2682.6474609375 174.166015625 2682.6474609375C142.119140625 2682.6474609375 114.56640625 2664.033203125 101.6953125 2636.98046875C96.71875 2626.5244140625 134.66796875 2777.69140625 192.681640625 2777.69140625L327.837890625 2777.6640625C348.2021484375 2777.69140625 376.5947265625 2765.3486328125 390.1708984375 2740.66015625C412.9384765625 2699.265625 400.0458984375 2638.2138671875 323.517578125 2603.0361328125C401.2802734375 2561.685546875 367.951171875 2488.244140625 446.9501953125 2429.0L192.681640625 2429.0C134.66796875 2429.615234375 96.71875 2580.166015625 101.6953125 2569.7109375C114.56640625 2542.658203125 142.119140625 2524.0400390625 174.166015625 2524.0400390625C218.603515625 2524.0400390625 254.396484375 2559.8359375 254.396484375 2604.26953125 z"/>
  <path class="ff_main_closed" d="M-266.05078125 2604.26953125C-266.05078125 2656.8076171875 -309.9013671875 2700.1474609375 -363.78125 2700.1474609375C-376.46484375 2700.1474609375 -388.58203125 2697.7451171875 -399.69921875 2693.3671875C-396.8779296875 2699.892578125 -393.7509765625 2706.580078125 -390.3193359375 2713.193359375C-374.6728515625 2743.3427734375 -356.673828125 2760.19140625 -345.26953125 2760.19140625L-210.044921875 2760.1640625C-195.623046875 2760.1640625 -172.95703125 2750.1259765625 -163.125 2732.24609375C-157.9794921875 2722.8916015625 -155.150390625 2712.2451171875 -155.150390625 2701.248046875C-155.150390625 2674.400390625 -171.7158203125 2641.9345703125 -221.7275390625 2618.9462890625C-227.748046875 2616.1787109375 -231.93359375 2610.091796875 -231.93359375 2603.0361328125C-231.93359375 2596.3388671875 -228.1630859375 2590.515625 -222.6318359375 2587.57421875C-188.5791015625 2569.466796875 -180.517578125 2546.6904296875 -168.8916015625 2514.7158203125C-161.3515625 2493.9814453125 -152.5302734375 2469.8916015625 -134.041015625 2446.5L-345.26953125 2446.5C-355.138671875 2446.60546875 -370.7421875 2459.3896484375 -385.3173828125 2484.62109375C-390.5244140625 2493.634765625 -395.2841796875 2503.486328125 -399.48828125 2513.23828125C-388.4287109375 2508.912109375 -376.384765625 2506.5400390625 -363.78125 2506.5400390625C-309.712890625 2506.5400390625 -266.05078125 2550.201171875 -266.05078125 2604.26953125 zM-454.3212890625 2635.0546875C-454.3212890625 2627.978515625 -447.1748046875 2618.9619140625 -436.611328125 2618.9619140625C-424.849609375 2618.9619140625 -422.3173828125 2625.5380859375 -420.443359375 2629.4765625C-410.396484375 2650.59375 -388.9130859375 2665.1474609375 -363.78125 2665.1474609375C-328.7939453125 2665.1474609375 -301.05078125 2636.9013671875 -301.05078125 2604.26953125C-301.05078125 2569.4716796875 -328.982421875 2541.5400390625 -363.78125 2541.5400390625C-388.912109375 2541.5400390625 -410.3955078125 2556.095703125 -420.4423828125 2577.2119140625C-422.306640625 2581.130859375 -424.8330078125 2587.7314453125 -436.6123046875 2587.7314453125C-447.154296875 2587.7314453125 -454.3212890625 2578.7490234375 -454.3212890625 2571.6435546875C-454.3212890625 2570.849609375 -454.1923828125 2570.328125 -454.1923828125 2569.947265625C-454.1923828125 2557.9140625 -442.390625 2518.0576171875 -421.4013671875 2477.6640625C-405.8818359375 2447.796875 -382.435546875 2411.8935546875 -345.26953125 2411.5L-91.0 2411.5C-81.341796875 2411.5 -73.5 2419.341796875 -73.5 2429.0C-73.5 2434.7275390625 -76.2568359375 2439.8154296875 -80.515625 2443.0087890625C-115.142578125 2468.9765625 -124.9296875 2496.255859375 -135.986328125 2526.6630859375C-144.96484375 2551.3525390625 -155.15234375 2578.99609375 -181.095703125 2601.423828125C-139.79296875 2628.3916015625 -120.150390625 2665.203125 -120.150390625 2701.248046875C-120.150390625 2718.3291015625 -124.513671875 2734.6748046875 -132.43359375 2749.0751953125C-149.7236328125 2780.5166015625 -183.7412109375 2795.1640625 -210.1220703125 2795.1640625C-255.169921875 2795.1640625 -300.2177734375 2795.19140625 -345.26953125 2795.19140625C-382.3974609375 2795.19140625 -405.908203125 2759.142578125 -421.40625 2729.2802734375C-442.3974609375 2688.830078125 -454.1923828125 2648.7841796875 -454.1923828125 2636.75C-454.1923828125 2636.3671875 -454.3212890625 2635.84765625 -454.3212890625 2635.0546875 zM101.6953125 2619.48046875C126.6162109375 2619.48046875 137.15234375 2665.1474609375 174.166015625 2665.1474609375C209.15625 2665.1474609375 236.896484375 2636.90234375 236.896484375 2604.26953125C236.896484375 2569.470703125 208.9677734375 2541.5400390625 174.166015625 2541.5400390625C137.3994140625 2541.5400390625 126.3388671875 2587.2109375 101.6953125 2587.2109375C92.0361328125 2587.2109375 84.1953125 2579.369140625 84.1953125 2569.7109375C84.1953125 2567.4765625 110.3515625 2412.3720703125 192.681640625 2411.5L446.9501953125 2411.5C456.609375 2411.5 464.4501953125 2419.341796875 464.4501953125 2429.0C464.4501953125 2434.7275390625 461.693359375 2439.8154296875 457.435546875 2443.0087890625C393.826171875 2490.7109375 414.630859375 2551.478515625 356.8544921875 2601.423828125C398.1572265625 2628.3916015625 417.80078125 2665.203125 417.80078125 2701.248046875C417.80078125 2757.0947265625 370.447265625 2795.1640625 327.8291015625 2795.1640625C282.7802734375 2795.1640625 237.732421875 2795.19140625 192.681640625 2795.19140625C110.3525390625 2795.19140625 84.1953125 2639.1484375 84.1953125 2636.98046875C84.1953125 2627.3212890625 92.0361328125 2619.48046875 101.6953125 2619.48046875 zM327.9052734375 2760.1640625C354.05078125 2760.1640625 382.80078125 2735.1318359375 382.80078125 2701.248046875C382.80078125 2674.400390625 366.2353515625 2641.9345703125 316.2236328125 2618.9462890625C310.2021484375 2616.1787109375 306.017578125 2610.091796875 306.017578125 2603.0361328125C306.017578125 2596.3388671875 309.7880859375 2590.515625 315.3193359375 2587.57421875C373.5380859375 2556.6162109375 363.9287109375 2497.08203125 403.91015625 2446.5L192.681640625 2446.5C173.6015625 2446.703125 154.609375 2479.935546875 140.64453125 2512.4140625C151.0986328125 2508.6123046875 162.3876953125 2506.5400390625 174.166015625 2506.5400390625C228.23828125 2506.5400390625 271.896484375 2550.2021484375 271.896484375 2604.26953125C271.896484375 2656.806640625 228.0498046875 2700.1474609375 174.166015625 2700.1474609375C162.3603515625 2700.1474609375 151.044921875 2698.0654296875 140.5693359375 2694.24609375C154.5458984375 2726.8330078125 173.5751953125 2760.19140625 192.681640625 2760.19140625 z"/>
  <text class="ff_label" y="2835" x="-270">Accuracy Target: .25 em</text>
  <text class="ff_label" y="2835" x="270">Accuracy Target: 3 em</text>
</svg>
