<?xml version="1.0" encoding="utf-8" ?>
<?xml-stylesheet href="../ff_svg_fig.css" type="text/css" title="FontForge SVG stylesheet" alternate="no" media="screen"?>
<svg baseProfile="full" height="100%" version="1.1" viewBox="-380,117,1239,611" width="100%" xmlns="http://www.w3.org/2000/svg" xmlns:ev="http://www.w3.org/2001/xml-events" xmlns:xlink="http://www.w3.org/1999/xlink">
  <defs/>
  <g class="ff_offp">
    <line class="ff_offp_post" x1="777.01171875" x2="673.34375" y1="577.5390625" y2="503.59375"/>
    <g class="ff_offp_post" transform="translate(673.34375,503.59375)">
      <line class="ff_off_curve_x" x1="-8" x2="8" y1="-8" y2="8"/>
      <line class="ff_off_curve_x" x1="-8" x2="8" y1="8" y2="-8"/>
    </g>
  </g>
  <g class="ff_offp">
    <line class="ff_offp_pre" x1="416.53125" x2="543.55859375" y1="476.07421875" y2="467.0234375"/>
    <g class="ff_offp_pre" transform="translate(543.55859375,467.0234375)">
      <line class="ff_off_curve_x" x1="-8" x2="8" y1="-8" y2="8"/>
      <line class="ff_off_curve_x" x1="-8" x2="8" y1="8" y2="-8"/>
    </g>
  </g>
  <g class="ff_offp">
    <line class="ff_offp_post" x1="416.53125" x2="254.203125" y1="476.07421875" y2="487.63671875"/>
    <g class="ff_offp_post" transform="translate(254.203125,487.63671875)">
      <line class="ff_off_curve_x" x1="-8" x2="8" y1="-8" y2="8"/>
      <line class="ff_off_curve_x" x1="-8" x2="8" y1="8" y2="-8"/>
    </g>
  </g>
  <g class="ff_offp">
    <line class="ff_offp_pre" x1="4.79296875" x2="99.1953125" y1="707.8828125" y2="575.53125"/>
    <g class="ff_offp_pre" transform="translate(99.1953125,575.53125)">
      <line class="ff_off_curve_x" x1="-8" x2="8" y1="-8" y2="8"/>
      <line class="ff_off_curve_x" x1="-8" x2="8" y1="8" y2="-8"/>
    </g>
  </g>
  <g class="ff_offp">
    <line class="ff_offp_post" x1="-359.91015625" x2="-354.71484375" y1="483.53125" y2="475.3125"/>
    <g class="ff_offp_post" transform="translate(-354.71484375,475.3125)">
      <line class="ff_off_curve_x" x1="-8" x2="8" y1="-8" y2="8"/>
      <line class="ff_off_curve_x" x1="-8" x2="8" y1="8" y2="-8"/>
    </g>
  </g>
  <g class="ff_offp">
    <line class="ff_offp_pre" x1="-343.6484375" x2="-349.2890625" y1="459.33984375" y2="467.24609375"/>
    <g class="ff_offp_pre" transform="translate(-349.2890625,467.24609375)">
      <line class="ff_off_curve_x" x1="-8" x2="8" y1="-8" y2="8"/>
      <line class="ff_off_curve_x" x1="-8" x2="8" y1="8" y2="-8"/>
    </g>
  </g>
  <g class="ff_offp">
    <line class="ff_offp_post" x1="-285.578125" x2="-191.17578125" y1="377.9296875" y2="245.578125"/>
    <g class="ff_offp_post" transform="translate(-191.17578125,245.578125)">
      <line class="ff_off_curve_x" x1="-8" x2="8" y1="-8" y2="8"/>
      <line class="ff_off_curve_x" x1="-8" x2="8" y1="8" y2="-8"/>
    </g>
  </g>
  <g class="ff_offp">
    <line class="ff_offp_pre" x1="126.16015625" x2="-36.16796875" y1="146.12109375" y2="157.6875"/>
    <g class="ff_offp_pre" transform="translate(-36.16796875,157.6875)">
      <line class="ff_off_curve_x" x1="-8" x2="8" y1="-8" y2="8"/>
      <line class="ff_off_curve_x" x1="-8" x2="8" y1="8" y2="-8"/>
    </g>
  </g>
  <g class="ff_offp">
    <line class="ff_offp_post" x1="126.16015625" x2="253.1875" y1="146.12109375" y2="137.0703125"/>
    <g class="ff_offp_post" transform="translate(253.1875,137.0703125)">
      <line class="ff_off_curve_x" x1="-8" x2="8" y1="-8" y2="8"/>
      <line class="ff_off_curve_x" x1="-8" x2="8" y1="8" y2="-8"/>
    </g>
  </g>
  <g class="ff_offp">
    <line class="ff_offp_pre" x1="486.640625" x2="382.97265625" y1="247.5859375" y2="173.640625"/>
    <g class="ff_offp_pre" transform="translate(382.97265625,173.640625)">
      <line class="ff_off_curve_x" x1="-8" x2="8" y1="-8" y2="8"/>
      <line class="ff_off_curve_x" x1="-8" x2="8" y1="8" y2="-8"/>
    </g>
  </g>
  <g class="ff_offp">
    <line class="ff_offp_post" x1="835.08203125" x2="836.2578125" y1="496.12890625" y2="496.96875"/>
    <g class="ff_offp_post" transform="translate(836.2578125,496.96875)">
      <line class="ff_off_curve_x" x1="-8" x2="8" y1="-8" y2="8"/>
      <line class="ff_off_curve_x" x1="-8" x2="8" y1="8" y2="-8"/>
    </g>
  </g>
  <g class="ff_offp">
    <line class="ff_offp_pre" x1="838.6015625" x2="837.4296875" y1="498.66015625" y2="497.8125"/>
    <g class="ff_offp_pre" transform="translate(837.4296875,497.8125)">
      <line class="ff_off_curve_x" x1="-8" x2="8" y1="-8" y2="8"/>
      <line class="ff_off_curve_x" x1="-8" x2="8" y1="8" y2="-8"/>
    </g>
  </g>
  <g>
    <rect class="ff_onp ff_corner ff_first ff_extremum" height="12" transform="translate(432.16015625,331.5625)" width="12" x="-6" y="-6"/>
    <g transform="translate(432.16015625,331.5625) rotate(35.499596248117015)">
      <line class="ff_arrow" x1="0" x2="10" y1="-10" y2="-10"/>
      <line class="ff_arrow" x1="10" x2="7" y1="-10" y2="-7"/>
      <line class="ff_arrow" x1="10" x2="7" y1="-10" y2="-13"/>
    </g>
  </g>
  <rect class="ff_onp ff_corner ff_extremum" height="12" transform="translate(777.01171875,577.5390625)" width="12" x="-6" y="-6"/>
  <circle class="ff_onp ff_curve" cx="0" cy="0" r="7" transform="translate(416.53125,476.07421875)"/>
  <rect class="ff_onp ff_corner ff_extremum" height="12" transform="translate(4.79296875,707.8828125)" width="12" x="-6" y="-6"/>
  <rect class="ff_onp ff_corner ff_extremum" height="12" transform="translate(45.83203125,650.34375)" width="12" x="-6" y="-6"/>
  <rect class="ff_onp ff_corner ff_extremum" height="12" transform="translate(-359.91015625,483.53125)" width="12" x="-6" y="-6"/>
  <polygon class="ff_onp ff_tangent" points="0,-9 9,0 0,9" transform="translate(-343.6484375,459.33984375) rotate(125.50553129477912)"/>
  <polygon class="ff_onp ff_tangent" points="0,-9 9,0 0,9" transform="translate(-285.578125,377.9296875) rotate(305.49910814490715)"/>
  <circle class="ff_onp ff_curve" cx="0" cy="0" r="7" transform="translate(126.16015625,146.12109375)"/>
  <polygon class="ff_onp ff_tangent" points="0,-9 9,0 0,9" transform="translate(486.640625,247.5859375) rotate(215.49987876096708)"/>
  <polygon class="ff_onp ff_tangent" points="0,-9 9,0 0,9" transform="translate(835.08203125,496.12890625) rotate(35.537677791974374)"/>
  <rect class="ff_onp ff_corner ff_extremum" height="12" transform="translate(838.6015625,498.66015625)" width="12" x="-6" y="-6"/>
  <path class="ff_main_background" d="M-168.75 555.0C-76.578125 409.23046875 87.22265625 311.2578125 259.25 299.0C387.71875 289.84765625 519.0078125 327.359375 623.25 403.0"/>
  <path class="ff_main_closed" d="M432.16015625 331.5625L777.01171875 577.5390625C673.34375 503.59375 543.55859375 467.0234375 416.53125 476.07421875C254.203125 487.63671875 99.1953125 575.53125 4.79296875 707.8828125L45.83203125 650.34375L-359.91015625 483.53125C-354.71484375 475.3125 -349.2890625 467.24609375 -343.6484375 459.33984375L-285.578125 377.9296875C-191.17578125 245.578125 -36.16796875 157.6875 126.16015625 146.12109375C253.1875 137.0703125 382.97265625 173.640625 486.640625 247.5859375L835.08203125 496.12890625C836.2578125 496.96875 837.4296875 497.8125 838.6015625 498.66015625 z"/>
</svg>
