<?xml version="1.0" encoding="utf-8" ?>
<?xml-stylesheet href="../ff_svg_fig.css" type="text/css" title="FontForge SVG stylesheet" alternate="no" media="screen"?>
<svg baseProfile="full" height="100%" version="1.1" viewBox="573,-133,763,530" width="100%" xmlns="http://www.w3.org/2000/svg" xmlns:ev="http://www.w3.org/2001/xml-events" xmlns:xlink="http://www.w3.org/1999/xlink">
  <defs/>
  <g class="ff_offp">
    <line class="ff_offp_post" x1="727.291015625" x2="878.12109375" y1="-112.8583984375" y2="-112.8583984375"/>
    <g class="ff_offp_post" transform="translate(878.12109375,-112.8583984375)">
      <line class="ff_off_curve_x" x1="-8" x2="8" y1="-8" y2="8"/>
      <line class="ff_off_curve_x" x1="-8" x2="8" y1="8" y2="-8"/>
    </g>
  </g>
  <g class="ff_offp">
    <line class="ff_offp_pre" x1="1133.47265625" x2="1013.2216796875" y1="-69.2734375" y2="-100.2470703125"/>
    <g class="ff_offp_pre" transform="translate(1013.2216796875,-100.2470703125)">
      <line class="ff_off_curve_x" x1="-8" x2="8" y1="-8" y2="8"/>
      <line class="ff_off_curve_x" x1="-8" x2="8" y1="8" y2="-8"/>
    </g>
  </g>
  <g class="ff_offp">
    <line class="ff_offp_post" x1="1133.47265625" x2="1226.90234375" y1="-69.2734375" y2="-45.2080078125"/>
    <g class="ff_offp_post" transform="translate(1226.90234375,-45.2080078125)">
      <line class="ff_off_curve_x" x1="-8" x2="8" y1="-8" y2="8"/>
      <line class="ff_off_curve_x" x1="-8" x2="8" y1="8" y2="-8"/>
    </g>
  </g>
  <g class="ff_offp">
    <line class="ff_offp_pre" x1="1316.48046875" x2="1316.48046875" y1="152.212890625" y2="35.4384765625"/>
    <g class="ff_offp_pre" transform="translate(1316.48046875,35.4384765625)">
      <line class="ff_off_curve_x" x1="-8" x2="8" y1="-8" y2="8"/>
      <line class="ff_off_curve_x" x1="-8" x2="8" y1="8" y2="-8"/>
    </g>
  </g>
  <g class="ff_offp">
    <line class="ff_offp_post" x1="1316.48046875" x2="1316.48046875" y1="152.212890625" y2="215.10546875"/>
    <g class="ff_offp_post" transform="translate(1316.48046875,215.10546875)">
      <line class="ff_off_curve_x" x1="-8" x2="8" y1="-8" y2="8"/>
      <line class="ff_off_curve_x" x1="-8" x2="8" y1="8" y2="-8"/>
    </g>
  </g>
  <g class="ff_offp">
    <line class="ff_offp_pre" x1="1242.4072265625" x2="1287.1748046875" y1="314.611328125" y2="274.248046875"/>
    <g class="ff_offp_pre" transform="translate(1287.1748046875,274.248046875)">
      <line class="ff_off_curve_x" x1="-8" x2="8" y1="-8" y2="8"/>
      <line class="ff_off_curve_x" x1="-8" x2="8" y1="8" y2="-8"/>
    </g>
  </g>
  <g class="ff_offp">
    <line class="ff_offp_post" x1="1242.4072265625" x2="1207.0244140625" y1="314.611328125" y2="346.513671875"/>
    <g class="ff_offp_post" transform="translate(1207.0244140625,346.513671875)">
      <line class="ff_off_curve_x" x1="-8" x2="8" y1="-8" y2="8"/>
      <line class="ff_off_curve_x" x1="-8" x2="8" y1="8" y2="-8"/>
    </g>
  </g>
  <g class="ff_offp">
    <line class="ff_offp_pre" x1="1121.6142578125" x2="1165.2001953125" y1="377.236328125" y2="365.9638671875"/>
    <g class="ff_offp_pre" transform="translate(1165.2001953125,365.9638671875)">
      <line class="ff_off_curve_x" x1="-8" x2="8" y1="-8" y2="8"/>
      <line class="ff_off_curve_x" x1="-8" x2="8" y1="8" y2="-8"/>
    </g>
  </g>
  <g class="ff_offp">
    <line class="ff_offp_post" x1="1058.52734375" x2="972.134765625" y1="221.2734375" y2="199.0205078125"/>
    <g class="ff_offp_post" transform="translate(972.134765625,199.0205078125)">
      <line class="ff_off_curve_x" x1="-8" x2="8" y1="-8" y2="8"/>
      <line class="ff_off_curve_x" x1="-8" x2="8" y1="8" y2="-8"/>
    </g>
  </g>
  <g class="ff_offp">
    <line class="ff_offp_pre" x1="727.291015625" x2="860.6728515625" y1="187.1416015625" y2="187.1416015625"/>
    <g class="ff_offp_pre" transform="translate(860.6728515625,187.1416015625)">
      <line class="ff_off_curve_x" x1="-8" x2="8" y1="-8" y2="8"/>
      <line class="ff_off_curve_x" x1="-8" x2="8" y1="8" y2="-8"/>
    </g>
  </g>
  <g class="ff_offp">
    <line class="ff_offp_post" x1="727.291015625" x2="688.9365234375" y1="187.1416015625" y2="187.1416015625"/>
    <g class="ff_offp_post" transform="translate(688.9365234375,187.1416015625)">
      <line class="ff_off_curve_x" x1="-8" x2="8" y1="-8" y2="8"/>
      <line class="ff_off_curve_x" x1="-8" x2="8" y1="8" y2="-8"/>
    </g>
  </g>
  <g class="ff_offp">
    <line class="ff_offp_pre" x1="606.8359375" x2="648.7568359375" y1="189.978515625" y2="188.09375"/>
    <g class="ff_offp_pre" transform="translate(648.7568359375,188.09375)">
      <line class="ff_off_curve_x" x1="-8" x2="8" y1="-8" y2="8"/>
      <line class="ff_off_curve_x" x1="-8" x2="8" y1="8" y2="-8"/>
    </g>
  </g>
  <g class="ff_offp">
    <line class="ff_offp_post" x1="593.1640625" x2="639.1826171875" y1="-109.71484375" y2="-111.783203125"/>
    <g class="ff_offp_post" transform="translate(639.1826171875,-111.783203125)">
      <line class="ff_off_curve_x" x1="-8" x2="8" y1="-8" y2="8"/>
      <line class="ff_off_curve_x" x1="-8" x2="8" y1="8" y2="-8"/>
    </g>
  </g>
  <g class="ff_offp">
    <line class="ff_offp_pre" x1="727.291015625" x2="683.8818359375" y1="-112.8583984375" y2="-112.8583984375"/>
    <g class="ff_offp_pre" transform="translate(683.8818359375,-112.8583984375)">
      <line class="ff_off_curve_x" x1="-8" x2="8" y1="-8" y2="8"/>
      <line class="ff_off_curve_x" x1="-8" x2="8" y1="8" y2="-8"/>
    </g>
  </g>
  <g>
    <circle class="ff_onp ff_curve ff_first ff_extremum" cx="0" cy="0" r="7" transform="translate(727.291015625,-112.8583984375)"/>
    <g transform="translate(727.291015625,-112.8583984375) rotate(0.0)">
      <line class="ff_arrow" x1="0" x2="10" y1="-10" y2="-10"/>
      <line class="ff_arrow" x1="10" x2="7" y1="-10" y2="-7"/>
      <line class="ff_arrow" x1="10" x2="7" y1="-10" y2="-13"/>
    </g>
  </g>
  <circle class="ff_onp ff_curve" cx="0" cy="0" r="7" transform="translate(1133.47265625,-69.2734375)"/>
  <circle class="ff_onp ff_curve ff_extremum" cx="0" cy="0" r="7" transform="translate(1316.48046875,152.212890625)"/>
  <circle class="ff_onp ff_curve" cx="0" cy="0" r="7" transform="translate(1242.4072265625,314.611328125)"/>
  <rect class="ff_onp ff_corner ff_extremum" height="12" transform="translate(1121.6142578125,377.236328125)" width="12" x="-6" y="-6"/>
  <rect class="ff_onp ff_corner ff_extremum" height="12" transform="translate(1047.41796875,90.75)" width="12" x="-6" y="-6"/>
  <rect class="ff_onp ff_corner ff_extremum" height="12" transform="translate(1016.48046875,152.212890625)" width="12" x="-6" y="-6"/>
  <rect class="ff_onp ff_corner ff_extremum" height="12" transform="translate(1058.52734375,221.2734375)" width="12" x="-6" y="-6"/>
  <circle class="ff_onp ff_curve ff_extremum" cx="0" cy="0" r="7" transform="translate(727.291015625,187.1416015625)"/>
  <rect class="ff_onp ff_corner ff_extremum" height="12" transform="translate(606.8359375,189.978515625)" width="12" x="-6" y="-6"/>
  <rect class="ff_onp ff_corner ff_extremum" height="12" transform="translate(593.1640625,-109.71484375)" width="12" x="-6" y="-6"/>
  <g>
    <circle class="ff_onp ff_curve ff_first ff_extremum" cx="0" cy="0" r="7" transform="translate(727.291015625,-112.8583984375)"/>
    <g transform="translate(727.291015625,-112.8583984375) rotate(0.0)">
      <line class="ff_arrow" x1="0" x2="10" y1="-10" y2="-10"/>
      <line class="ff_arrow" x1="10" x2="7" y1="-10" y2="-7"/>
      <line class="ff_arrow" x1="10" x2="7" y1="-10" y2="-13"/>
    </g>
  </g>
  <path class="ff_main_background" d="M600.0 40.1318359375C796.8134765625 31.28515625 962.955078125 41.73046875 1096.0 76.0C1183.9267578125 98.6474609375 1200.0 202.0 1084.0 232.0"/>
  <path class="ff_main_closed" d="M727.291015625 -112.8583984375C878.12109375 -112.8583984375 1013.2216796875 -100.2470703125 1133.47265625 -69.2734375C1226.90234375 -45.2080078125 1316.48046875 35.4384765625 1316.48046875 152.212890625C1316.48046875 215.10546875 1287.1748046875 274.248046875 1242.4072265625 314.611328125C1207.0244140625 346.513671875 1165.2001953125 365.9638671875 1121.6142578125 377.236328125L1047.41796875 90.75L1016.48046875 152.212890625L1058.52734375 221.2734375C972.134765625 199.0205078125 860.6728515625 187.1416015625 727.291015625 187.1416015625C688.9365234375 187.1416015625 648.7568359375 188.09375 606.8359375 189.978515625L593.1640625 -109.71484375C639.1826171875 -111.783203125 683.8818359375 -112.8583984375 727.291015625 -112.8583984375 z"/>
</svg>
