<?xml version="1.0" encoding="utf-8" ?>
<?xml-stylesheet href="../ff_svg_fig.css" type="text/css" title="FontForge SVG stylesheet" alternate="no" media="screen"?>
<svg baseProfile="full" height="100%" version="1.1" viewBox="-71,-90,1120,748" width="100%" xmlns="http://www.w3.org/2000/svg" xmlns:ev="http://www.w3.org/2001/xml-events" xmlns:xlink="http://www.w3.org/1999/xlink">
  <defs/>
  <g class="ff_offp">
    <line class="ff_offp_post" x1="222.6005859375" x2="127.3134765625" y1="515.783203125" y2="430.671875"/>
    <g class="ff_offp_post" transform="translate(127.3134765625,430.671875)">
      <line class="ff_off_curve_x" x1="-8" x2="8" y1="-8" y2="8"/>
      <line class="ff_off_curve_x" x1="-8" x2="8" y1="8" y2="-8"/>
    </g>
  </g>
  <g class="ff_offp">
    <line class="ff_offp_pre" x1="89.2275390625" x2="89.2275390625" y1="278.9697265625" y2="350.01953125"/>
    <g class="ff_offp_pre" transform="translate(89.2275390625,350.01953125)">
      <line class="ff_off_curve_x" x1="-8" x2="8" y1="-8" y2="8"/>
      <line class="ff_off_curve_x" x1="-8" x2="8" y1="8" y2="-8"/>
    </g>
  </g>
  <g class="ff_offp">
    <line class="ff_offp_post" x1="89.2275390625" x2="89.2275390625" y1="278.9697265625" y2="209.7734375"/>
    <g class="ff_offp_post" transform="translate(89.2275390625,209.7734375)">
      <line class="ff_off_curve_x" x1="-8" x2="8" y1="-8" y2="8"/>
      <line class="ff_off_curve_x" x1="-8" x2="8" y1="8" y2="-8"/>
    </g>
  </g>
  <g class="ff_offp">
    <line class="ff_offp_pre" x1="216.2802734375" x2="124.9833984375" y1="52.5009765625" y2="133.056640625"/>
    <g class="ff_offp_pre" transform="translate(124.9833984375,133.056640625)">
      <line class="ff_off_curve_x" x1="-8" x2="8" y1="-8" y2="8"/>
      <line class="ff_off_curve_x" x1="-8" x2="8" y1="8" y2="-8"/>
    </g>
  </g>
  <g class="ff_offp">
    <line class="ff_offp_post" x1="123.7197265625" x2="13.50390625" y1="-52.5009765625" y2="44.748046875"/>
    <g class="ff_offp_post" transform="translate(13.50390625,44.748046875)">
      <line class="ff_off_curve_x" x1="-8" x2="8" y1="-8" y2="8"/>
      <line class="ff_off_curve_x" x1="-8" x2="8" y1="8" y2="-8"/>
    </g>
  </g>
  <g class="ff_offp">
    <line class="ff_offp_pre" x1="-50.7724609375" x2="-50.7724609375" y1="278.9697265625" y2="157.5458984375"/>
    <g class="ff_offp_pre" transform="translate(-50.7724609375,157.5458984375)">
      <line class="ff_off_curve_x" x1="-8" x2="8" y1="-8" y2="8"/>
      <line class="ff_off_curve_x" x1="-8" x2="8" y1="8" y2="-8"/>
    </g>
  </g>
  <g class="ff_offp">
    <line class="ff_offp_post" x1="-50.7724609375" x2="-50.7724609375" y1="278.9697265625" y2="403.248046875"/>
    <g class="ff_offp_post" transform="translate(-50.7724609375,403.248046875)">
      <line class="ff_off_curve_x" x1="-8" x2="8" y1="-8" y2="8"/>
      <line class="ff_off_curve_x" x1="-8" x2="8" y1="8" y2="-8"/>
    </g>
  </g>
  <g class="ff_offp">
    <line class="ff_offp_pre" x1="129.3994140625" x2="16.1748046875" y1="620.216796875" y2="519.083984375"/>
    <g class="ff_offp_pre" transform="translate(16.1748046875,519.083984375)">
      <line class="ff_off_curve_x" x1="-8" x2="8" y1="-8" y2="8"/>
      <line class="ff_off_curve_x" x1="-8" x2="8" y1="8" y2="-8"/>
    </g>
  </g>
  <g class="ff_offp">
    <line class="ff_offp_post" x1="755.400390625" x2="850.6875" y1="515.783203125" y2="430.671875"/>
    <g class="ff_offp_post" transform="translate(850.6875,430.671875)">
      <line class="ff_off_curve_x" x1="-8" x2="8" y1="-8" y2="8"/>
      <line class="ff_off_curve_x" x1="-8" x2="8" y1="8" y2="-8"/>
    </g>
  </g>
  <g class="ff_offp">
    <line class="ff_offp_pre" x1="888.7734375" x2="888.7734375" y1="278.970703125" y2="350.01953125"/>
    <g class="ff_offp_pre" transform="translate(888.7734375,350.01953125)">
      <line class="ff_off_curve_x" x1="-8" x2="8" y1="-8" y2="8"/>
      <line class="ff_off_curve_x" x1="-8" x2="8" y1="8" y2="-8"/>
    </g>
  </g>
  <g class="ff_offp">
    <line class="ff_offp_post" x1="888.7734375" x2="888.7734375" y1="278.970703125" y2="209.7734375"/>
    <g class="ff_offp_post" transform="translate(888.7734375,209.7734375)">
      <line class="ff_off_curve_x" x1="-8" x2="8" y1="-8" y2="8"/>
      <line class="ff_off_curve_x" x1="-8" x2="8" y1="8" y2="-8"/>
    </g>
  </g>
  <g class="ff_offp">
    <line class="ff_offp_pre" x1="761.71875" x2="853.015625" y1="52.5" y2="133.056640625"/>
    <g class="ff_offp_pre" transform="translate(853.015625,133.056640625)">
      <line class="ff_off_curve_x" x1="-8" x2="8" y1="-8" y2="8"/>
      <line class="ff_off_curve_x" x1="-8" x2="8" y1="8" y2="-8"/>
    </g>
  </g>
  <g class="ff_offp">
    <line class="ff_offp_post" x1="761.669921875" x2="747.197265625" y1="52.45703125" y2="39.65234375"/>
    <g class="ff_offp_post" transform="translate(747.197265625,39.65234375)">
      <line class="ff_off_curve_x" x1="-8" x2="8" y1="-8" y2="8"/>
      <line class="ff_off_curve_x" x1="-8" x2="8" y1="8" y2="-8"/>
    </g>
  </g>
  <g class="ff_offp">
    <line class="ff_offp_pre" x1="738.021484375" x2="738.021484375" y1="-0.009765625" y2="20.884765625"/>
    <g class="ff_offp_pre" transform="translate(738.021484375,20.884765625)">
      <line class="ff_off_curve_x" x1="-8" x2="8" y1="-8" y2="8"/>
      <line class="ff_off_curve_x" x1="-8" x2="8" y1="8" y2="-8"/>
    </g>
  </g>
  <g class="ff_offp">
    <line class="ff_offp_post" x1="738.021484375" x2="738.021484375" y1="-0.009765625" y2="-38.63671875"/>
    <g class="ff_offp_post" transform="translate(738.021484375,-38.63671875)">
      <line class="ff_off_curve_x" x1="-8" x2="8" y1="-8" y2="8"/>
      <line class="ff_off_curve_x" x1="-8" x2="8" y1="8" y2="-8"/>
    </g>
  </g>
  <g class="ff_offp">
    <line class="ff_offp_pre" x1="808.0078125" x2="769.380859375" y1="-69.99609375" y2="-69.99609375"/>
    <g class="ff_offp_pre" transform="translate(769.380859375,-69.99609375)">
      <line class="ff_off_curve_x" x1="-8" x2="8" y1="-8" y2="8"/>
      <line class="ff_off_curve_x" x1="-8" x2="8" y1="8" y2="-8"/>
    </g>
  </g>
  <g class="ff_offp">
    <line class="ff_offp_post" x1="808.0078125" x2="825.740234375" y1="-69.99609375" y2="-69.99609375"/>
    <g class="ff_offp_post" transform="translate(825.740234375,-69.99609375)">
      <line class="ff_off_curve_x" x1="-8" x2="8" y1="-8" y2="8"/>
      <line class="ff_off_curve_x" x1="-8" x2="8" y1="8" y2="-8"/>
    </g>
  </g>
  <g class="ff_offp">
    <line class="ff_offp_pre" x1="854.28125" x2="841.94140625" y1="-52.5" y2="-63.388671875"/>
    <g class="ff_offp_pre" transform="translate(841.94140625,-63.388671875)">
      <line class="ff_off_curve_x" x1="-8" x2="8" y1="-8" y2="8"/>
      <line class="ff_off_curve_x" x1="-8" x2="8" y1="8" y2="-8"/>
    </g>
  </g>
  <g class="ff_offp">
    <line class="ff_offp_post" x1="854.28125" x2="964.49609375" y1="-52.5" y2="44.748046875"/>
    <g class="ff_offp_post" transform="translate(964.49609375,44.748046875)">
      <line class="ff_off_curve_x" x1="-8" x2="8" y1="-8" y2="8"/>
      <line class="ff_off_curve_x" x1="-8" x2="8" y1="8" y2="-8"/>
    </g>
  </g>
  <g class="ff_offp">
    <line class="ff_offp_pre" x1="1028.7734375" x2="1028.7734375" y1="278.970703125" y2="157.546875"/>
    <g class="ff_offp_pre" transform="translate(1028.7734375,157.546875)">
      <line class="ff_off_curve_x" x1="-8" x2="8" y1="-8" y2="8"/>
      <line class="ff_off_curve_x" x1="-8" x2="8" y1="8" y2="-8"/>
    </g>
  </g>
  <g class="ff_offp">
    <line class="ff_offp_post" x1="1028.7734375" x2="1028.7734375" y1="278.970703125" y2="403.248046875"/>
    <g class="ff_offp_post" transform="translate(1028.7734375,403.248046875)">
      <line class="ff_off_curve_x" x1="-8" x2="8" y1="-8" y2="8"/>
      <line class="ff_off_curve_x" x1="-8" x2="8" y1="8" y2="-8"/>
    </g>
  </g>
  <g class="ff_offp">
    <line class="ff_offp_pre" x1="848.599609375" x2="961.82421875" y1="620.216796875" y2="519.083984375"/>
    <g class="ff_offp_pre" transform="translate(961.82421875,519.083984375)">
      <line class="ff_off_curve_x" x1="-8" x2="8" y1="-8" y2="8"/>
      <line class="ff_off_curve_x" x1="-8" x2="8" y1="8" y2="-8"/>
    </g>
  </g>
  <g class="ff_offp">
    <line class="ff_offp_post" x1="848.599609375" x2="836.22265625" y1="620.216796875" y2="631.2734375"/>
    <g class="ff_offp_post" transform="translate(836.22265625,631.2734375)">
      <line class="ff_off_curve_x" x1="-8" x2="8" y1="-8" y2="8"/>
      <line class="ff_off_curve_x" x1="-8" x2="8" y1="8" y2="-8"/>
    </g>
  </g>
  <g class="ff_offp">
    <line class="ff_offp_pre" x1="802.0078125" x2="819.89453125" y1="637.99609375" y2="637.99609375"/>
    <g class="ff_offp_pre" transform="translate(819.89453125,637.99609375)">
      <line class="ff_off_curve_x" x1="-8" x2="8" y1="-8" y2="8"/>
      <line class="ff_off_curve_x" x1="-8" x2="8" y1="8" y2="-8"/>
    </g>
  </g>
  <g class="ff_offp">
    <line class="ff_offp_post" x1="802.0078125" x2="763.380859375" y1="637.99609375" y2="637.99609375"/>
    <g class="ff_offp_post" transform="translate(763.380859375,637.99609375)">
      <line class="ff_off_curve_x" x1="-8" x2="8" y1="-8" y2="8"/>
      <line class="ff_off_curve_x" x1="-8" x2="8" y1="8" y2="-8"/>
    </g>
  </g>
  <g class="ff_offp">
    <line class="ff_offp_pre" x1="732.021484375" x2="732.021484375" y1="568.009765625" y2="606.63671875"/>
    <g class="ff_offp_pre" transform="translate(732.021484375,606.63671875)">
      <line class="ff_off_curve_x" x1="-8" x2="8" y1="-8" y2="8"/>
      <line class="ff_off_curve_x" x1="-8" x2="8" y1="8" y2="-8"/>
    </g>
  </g>
  <g class="ff_offp">
    <line class="ff_offp_post" x1="732.021484375" x2="732.021484375" y1="568.009765625" y2="547.26953125"/>
    <g class="ff_offp_post" transform="translate(732.021484375,547.26953125)">
      <line class="ff_off_curve_x" x1="-8" x2="8" y1="-8" y2="8"/>
      <line class="ff_off_curve_x" x1="-8" x2="8" y1="8" y2="-8"/>
    </g>
  </g>
  <g class="ff_offp">
    <line class="ff_offp_pre" x1="755.35546875" x2="741.0625" y1="515.822265625" y2="528.623046875"/>
    <g class="ff_offp_pre" transform="translate(741.0625,528.623046875)">
      <line class="ff_off_curve_x" x1="-8" x2="8" y1="-8" y2="8"/>
      <line class="ff_off_curve_x" x1="-8" x2="8" y1="8" y2="-8"/>
    </g>
  </g>
  <g>
    <polygon class="ff_onp ff_tangent ff_first" points="0,-9 9,0 0,9" transform="translate(222.6005859375,515.783203125) rotate(221.7715233680462)"/>
    <g transform="translate(222.6005859375,515.783203125) rotate(-138.22847663195384)">
      <line class="ff_arrow" x1="0" x2="10" y1="-10" y2="-10"/>
      <line class="ff_arrow" x1="10" x2="7" y1="-10" y2="-7"/>
      <line class="ff_arrow" x1="10" x2="7" y1="-10" y2="-13"/>
    </g>
  </g>
  <circle class="ff_onp ff_curve ff_extremum" cx="0" cy="0" r="7" transform="translate(89.2275390625,278.9697265625)"/>
  <polygon class="ff_onp ff_tangent" points="0,-9 9,0 0,9" transform="translate(216.2802734375,52.5009765625) rotate(138.57647626492093)"/>
  <rect class="ff_onp ff_corner ff_extremum" height="12" transform="translate(216.330078125,52.45703125)" width="12" x="-6" y="-6"/>
  <rect class="ff_onp ff_corner ff_extremum" height="12" transform="translate(123.7197265625,-52.5009765625)" width="12" x="-6" y="-6"/>
  <circle class="ff_onp ff_curve ff_extremum" cx="0" cy="0" r="7" transform="translate(-50.7724609375,278.9697265625)"/>
  <rect class="ff_onp ff_corner ff_extremum" height="12" transform="translate(129.3994140625,620.216796875)" width="12" x="-6" y="-6"/>
  <rect class="ff_onp ff_corner ff_extremum" height="12" transform="translate(222.64453125,515.822265625)" width="12" x="-6" y="-6"/>
  <g>
    <polygon class="ff_onp ff_tangent ff_first" points="0,-9 9,0 0,9" transform="translate(755.400390625,515.783203125) rotate(318.22847663195387)"/>
    <g transform="translate(755.400390625,515.783203125) rotate(-41.77152336804619)">
      <line class="ff_arrow" x1="0" x2="10" y1="-10" y2="-10"/>
      <line class="ff_arrow" x1="10" x2="7" y1="-10" y2="-7"/>
      <line class="ff_arrow" x1="10" x2="7" y1="-10" y2="-13"/>
    </g>
  </g>
  <circle class="ff_onp ff_curve ff_extremum" cx="0" cy="0" r="7" transform="translate(888.7734375,278.970703125)"/>
  <polygon class="ff_onp ff_tangent" points="0,-9 9,0 0,9" transform="translate(761.71875,52.5) rotate(41.42386832381783)"/>
  <polygon class="ff_onp ff_tangent" points="0,-9 9,0 0,9" transform="translate(761.669921875,52.45703125) rotate(221.50080581027277)"/>
  <circle class="ff_onp ff_curve ff_extremum" cx="0" cy="0" r="7" transform="translate(738.021484375,-0.009765625)"/>
  <circle class="ff_onp ff_curve ff_extremum" cx="0" cy="0" r="7" transform="translate(808.0078125,-69.99609375)"/>
  <circle class="ff_onp ff_curve" cx="0" cy="0" r="7" transform="translate(854.28125,-52.5)"/>
  <circle class="ff_onp ff_curve ff_extremum" cx="0" cy="0" r="7" transform="translate(1028.7734375,278.970703125)"/>
  <circle class="ff_onp ff_curve" cx="0" cy="0" r="7" transform="translate(848.599609375,620.216796875)"/>
  <circle class="ff_onp ff_curve ff_extremum" cx="0" cy="0" r="7" transform="translate(802.0078125,637.99609375)"/>
  <circle class="ff_onp ff_curve ff_extremum" cx="0" cy="0" r="7" transform="translate(732.021484375,568.009765625)"/>
  <polygon class="ff_onp ff_tangent" points="0,-9 9,0 0,9" transform="translate(755.35546875,515.822265625) rotate(138.15237865849127)"/>
  <path class="ff_main_background" d="M176.0 568.0C-30.0 384.0 -34.0 180.0 170.0 0.0M802.0 568.0C1008.0 384.0 1012.0 180.0 808.0 0.0"/>
  <path class="ff_main_closed" d="M222.6005859375 515.783203125C127.3134765625 430.671875 89.2275390625 350.01953125 89.2275390625 278.9697265625C89.2275390625 209.7734375 124.9833984375 133.056640625 216.2802734375 52.5009765625L216.330078125 52.45703125L123.7197265625 -52.5009765625C13.50390625 44.748046875 -50.7724609375 157.5458984375 -50.7724609375 278.9697265625C-50.7724609375 403.248046875 16.1748046875 519.083984375 129.3994140625 620.216796875L222.64453125 515.822265625 zM755.400390625 515.783203125C850.6875 430.671875 888.7734375 350.01953125 888.7734375 278.970703125C888.7734375 209.7734375 853.015625 133.056640625 761.71875 52.5L761.669921875 52.45703125C747.197265625 39.65234375 738.021484375 20.884765625 738.021484375 -0.009765625C738.021484375 -38.63671875 769.380859375 -69.99609375 808.0078125 -69.99609375C825.740234375 -69.99609375 841.94140625 -63.388671875 854.28125 -52.5C964.49609375 44.748046875 1028.7734375 157.546875 1028.7734375 278.970703125C1028.7734375 403.248046875 961.82421875 519.083984375 848.599609375 620.216796875C836.22265625 631.2734375 819.89453125 637.99609375 802.0078125 637.99609375C763.380859375 637.99609375 732.021484375 606.63671875 732.021484375 568.009765625C732.021484375 547.26953125 741.0625 528.623046875 755.35546875 515.822265625 z"/>
  <text class="ff_label" y="600" x="240">Butt Cap</text>
  <text class="ff_label" y="640" x="650">Round Cap</text>
</svg>
