<?xml version="1.0" encoding="utf-8" ?>
<?xml-stylesheet href="../ff_svg_fig.css" type="text/css" title="FontForge SVG stylesheet" alternate="no" media="screen"?>
<svg baseProfile="full" height="100%" version="1.1" viewBox="43,350,1273,668" width="100%" xmlns="http://www.w3.org/2000/svg" xmlns:ev="http://www.w3.org/2001/xml-events" xmlns:xlink="http://www.w3.org/1999/xlink">
  <defs/>
  <g>
    <rect class="ff_onp ff_corner ff_first" height="12" transform="translate(714.0,586.599609375)" width="12" x="-6" y="-6"/>
    <g transform="translate(714.0,586.599609375) rotate(-90.56716194292103)">
      <line class="ff_arrow" x1="0" x2="10" y1="-10" y2="-10"/>
      <line class="ff_arrow" x1="10" x2="7" y1="-10" y2="-7"/>
      <line class="ff_arrow" x1="10" x2="7" y1="-10" y2="-13"/>
    </g>
  </g>
  <rect class="ff_onp ff_corner ff_extremum" height="12" transform="translate(711.900390625,374.5)" width="12" x="-6" y="-6"/>
  <rect class="ff_onp ff_corner ff_extremum" height="12" transform="translate(869.400390625,372.400390625)" width="12" x="-6" y="-6"/>
  <rect class="ff_onp ff_corner ff_extremum" height="12" transform="translate(787.5,477.400390625)" width="12" x="-6" y="-6"/>
  <rect class="ff_onp ff_corner ff_extremum" height="12" transform="translate(865.2001953125,586.599609375)" width="12" x="-6" y="-6"/>
  <g>
    <rect class="ff_onp ff_corner ff_first ff_extremum" height="12" transform="translate(1119.2998046875,977.2001953125)" width="12" x="-6" y="-6"/>
    <g transform="translate(1119.2998046875,977.2001953125) rotate(-90.65093997357971)">
      <line class="ff_arrow" x1="0" x2="10" y1="-10" y2="-10"/>
      <line class="ff_arrow" x1="10" x2="7" y1="-10" y2="-7"/>
      <line class="ff_arrow" x1="10" x2="7" y1="-10" y2="-13"/>
    </g>
  </g>
  <rect class="ff_onp ff_corner ff_extremum" height="12" transform="translate(1117.2001953125,792.400390625)" width="12" x="-6" y="-6"/>
  <rect class="ff_onp ff_corner" height="12" transform="translate(1293.599609375,792.400390625)" width="12" x="-6" y="-6"/>
  <rect class="ff_onp ff_corner" height="12" transform="translate(1293.599609375,973.0)" width="12" x="-6" y="-6"/>
  <g>
    <rect class="ff_onp ff_corner ff_first ff_extremum" height="12" transform="translate(1295.7001953125,370.2998046875)" width="12" x="-6" y="-6"/>
    <g transform="translate(1295.7001953125,370.2998046875) rotate(180.0)">
      <line class="ff_arrow" x1="0" x2="10" y1="-10" y2="-10"/>
      <line class="ff_arrow" x1="10" x2="7" y1="-10" y2="-7"/>
      <line class="ff_arrow" x1="10" x2="7" y1="-10" y2="-13"/>
    </g>
  </g>
  <rect class="ff_onp ff_corner ff_extremum" height="12" transform="translate(1163.400390625,370.2998046875)" width="12" x="-6" y="-6"/>
  <rect class="ff_onp ff_corner ff_extremum" height="12" transform="translate(1228.5,561.400390625)" width="12" x="-6" y="-6"/>
  <rect class="ff_onp ff_corner ff_first ff_extremum" height="12" transform="translate(984.900390625,401.7998046875)" width="12" x="-6" y="-6"/>
  <g>
    <rect class="ff_onp ff_corner ff_first ff_extremum" height="12" transform="translate(772.7998046875,998.2001953125)" width="12" x="-6" y="-6"/>
    <g transform="translate(772.7998046875,998.2001953125) rotate(-69.49186970136562)">
      <line class="ff_arrow" x1="0" x2="10" y1="-10" y2="-10"/>
      <line class="ff_arrow" x1="10" x2="7" y1="-10" y2="-7"/>
      <line class="ff_arrow" x1="10" x2="7" y1="-10" y2="-13"/>
    </g>
  </g>
  <rect class="ff_onp ff_corner ff_extremum" height="12" transform="translate(875.7001953125,723.099609375)" width="12" x="-6" y="-6"/>
  <rect class="ff_onp ff_corner ff_extremum" height="12" transform="translate(976.5,994.0)" width="12" x="-6" y="-6"/>
  <rect class="ff_onp ff_corner ff_extremum" height="12" transform="translate(737.099609375,828.099609375)" width="12" x="-6" y="-6"/>
  <rect class="ff_onp ff_corner ff_extremum" height="12" transform="translate(999.599609375,828.099609375)" width="12" x="-6" y="-6"/>
  <g>
    <rect class="ff_onp ff_corner ff_first ff_extremum" height="12" transform="translate(974.400390625,525.7001953125)" width="12" x="-6" y="-6"/>
    <g transform="translate(974.400390625,525.7001953125) rotate(-49.5540997363863)">
      <line class="ff_arrow" x1="0" x2="10" y1="-10" y2="-10"/>
      <line class="ff_arrow" x1="10" x2="7" y1="-10" y2="-7"/>
      <line class="ff_arrow" x1="10" x2="7" y1="-10" y2="-13"/>
    </g>
  </g>
  <rect class="ff_onp ff_corner ff_extremum" height="12" transform="translate(1083.599609375,397.599609375)" width="12" x="-6" y="-6"/>
  <g>
    <rect class="ff_onp ff_corner ff_first ff_extremum" height="12" transform="translate(123.900390625,952.7001953125)" width="12" x="-6" y="-6"/>
    <g transform="translate(123.900390625,952.7001953125) rotate(-109.17909788805808)">
      <line class="ff_arrow" x1="0" x2="10" y1="-10" y2="-10"/>
      <line class="ff_arrow" x1="10" x2="7" y1="-10" y2="-7"/>
      <line class="ff_arrow" x1="10" x2="7" y1="-10" y2="-13"/>
    </g>
  </g>
  <rect class="ff_onp ff_corner ff_extremum" height="12" transform="translate(73.5,807.7998046875)" width="12" x="-6" y="-6"/>
  <rect class="ff_onp ff_corner ff_extremum" height="12" transform="translate(552.2998046875,755.2998046875)" width="12" x="-6" y="-6"/>
  <rect class="ff_onp ff_corner" height="12" transform="translate(550.2001953125,786.7998046875)" width="12" x="-6" y="-6"/>
  <g>
    <rect class="ff_onp ff_corner ff_first ff_extremum" height="12" transform="translate(392.7001953125,438.900390625)" width="12" x="-6" y="-6"/>
    <g transform="translate(392.7001953125,438.900390625) rotate(0.3954057334135011)">
      <line class="ff_arrow" x1="0" x2="10" y1="-10" y2="-10"/>
      <line class="ff_arrow" x1="10" x2="7" y1="-10" y2="-7"/>
      <line class="ff_arrow" x1="10" x2="7" y1="-10" y2="-13"/>
    </g>
  </g>
  <rect class="ff_onp ff_corner" height="12" transform="translate(498.970703125,439.6337890625)" width="12" x="-6" y="-6"/>
  <rect class="ff_onp ff_corner ff_extremum" height="12" transform="translate(551.470703125,532.033203125)" width="12" x="-6" y="-6"/>
  <rect class="ff_onp ff_corner ff_extremum" height="12" transform="translate(497.7001953125,623.7001953125)" width="12" x="-6" y="-6"/>
  <rect class="ff_onp ff_corner" height="12" transform="translate(391.4287109375,622.966796875)" width="12" x="-6" y="-6"/>
  <rect class="ff_onp ff_corner ff_extremum" height="12" transform="translate(338.9287109375,530.56640625)" width="12" x="-6" y="-6"/>
  <g>
    <rect class="ff_onp ff_corner ff_first ff_extremum" height="12" transform="translate(63.0,588.0)" width="12" x="-6" y="-6"/>
    <g transform="translate(63.0,588.0) rotate(-47.17484642855533)">
      <line class="ff_arrow" x1="0" x2="10" y1="-10" y2="-10"/>
      <line class="ff_arrow" x1="10" x2="7" y1="-10" y2="-7"/>
      <line class="ff_arrow" x1="10" x2="7" y1="-10" y2="-13"/>
    </g>
  </g>
  <rect class="ff_onp ff_corner ff_extremum" height="12" transform="translate(222.599609375,415.7998046875)" width="12" x="-6" y="-6"/>
  <rect class="ff_onp ff_corner ff_extremum" height="12" transform="translate(260.400390625,646.7998046875)" width="12" x="-6" y="-6"/>
  <path class="ff_main_closed" d="M714.0 586.599609375L711.900390625 374.5L869.400390625 372.400390625L787.5 477.400390625L865.2001953125 586.599609375 zM1295.7001953125 370.2998046875L1163.400390625 370.2998046875L1228.5 561.400390625 zM772.7998046875 998.2001953125L875.7001953125 723.099609375L976.5 994.0L737.099609375 828.099609375L999.599609375 828.099609375 zM974.400390625 525.7001953125L1083.599609375 397.599609375 zM123.900390625 952.7001953125L73.5 807.7998046875L552.2998046875 755.2998046875L550.2001953125 786.7998046875 zM392.7001953125 438.900390625L498.970703125 439.6337890625L551.470703125 532.033203125L497.7001953125 623.7001953125L391.4287109375 622.966796875L338.9287109375 530.56640625 zM63.0 588.0L222.599609375 415.7998046875L260.400390625 646.7998046875 z"/>
  <path class="ff_main_open" d="M1119.2998046875 977.2001953125L1117.2001953125 792.400390625L1293.599609375 792.400390625L1293.599609375 973.0M984.900390625 401.7998046875"/>
  <text class="ff_label" y="720" x="300">Convex Polygons</text>
  <text class="ff_label ff_err" y="485" x="835">angle</text>
  <text class="ff_label ff_err" y="560" x="1020">too few points</text>
  <text class="ff_label ff_err" y="600" x="1230">counterclockwise</text>
  <text class="ff_label ff_err" y="700" x="875">self-intersecting</text>
  <text class="ff_label ff_err" y="770" x="1200">open</text>
</svg>
