<?xml version="1.0" encoding="utf-8" ?>
<?xml-stylesheet href="../ff_svg_fig.css" type="text/css" title="FontForge SVG stylesheet" alternate="no" media="screen"?>
<svg baseProfile="full" height="100%" version="1.1" viewBox="-640,51,1308,569" width="100%" xmlns="http://www.w3.org/2000/svg" xmlns:ev="http://www.w3.org/2001/xml-events" xmlns:xlink="http://www.w3.org/1999/xlink">
  <defs/>
  <g class="ff_offp">
    <line class="ff_offp_post" x1="292.7109375" x2="300.3681640625" y1="600.0" y2="558.740234375"/>
    <g class="ff_offp_post" transform="translate(300.3681640625,558.740234375)">
      <line class="ff_off_curve_x" x1="-8" x2="8" y1="-8" y2="8"/>
      <line class="ff_off_curve_x" x1="-8" x2="8" y1="8" y2="-8"/>
    </g>
  </g>
  <g class="ff_offp">
    <line class="ff_offp_pre" x1="318.390625" x2="308.986328125" y1="484.98828125" y2="520.2216796875"/>
    <g class="ff_offp_pre" transform="translate(308.986328125,520.2216796875)">
      <line class="ff_off_curve_x" x1="-8" x2="8" y1="-8" y2="8"/>
      <line class="ff_off_curve_x" x1="-8" x2="8" y1="8" y2="-8"/>
    </g>
  </g>
  <g class="ff_offp">
    <line class="ff_offp_post" x1="318.390625" x2="335.548828125" y1="484.98828125" y2="420.703125"/>
    <g class="ff_offp_post" transform="translate(335.548828125,420.703125)">
      <line class="ff_off_curve_x" x1="-8" x2="8" y1="-8" y2="8"/>
      <line class="ff_off_curve_x" x1="-8" x2="8" y1="8" y2="-8"/>
    </g>
  </g>
  <g class="ff_offp">
    <line class="ff_offp_pre" x1="373.3525390625" x2="355.326171875" y1="331.6875" y2="367.86328125"/>
    <g class="ff_offp_pre" transform="translate(355.326171875,367.86328125)">
      <line class="ff_off_curve_x" x1="-8" x2="8" y1="-8" y2="8"/>
      <line class="ff_off_curve_x" x1="-8" x2="8" y1="8" y2="-8"/>
    </g>
  </g>
  <g class="ff_offp">
    <line class="ff_offp_post" x1="373.3525390625" x2="387.794921875" y1="331.6875" y2="302.705078125"/>
    <g class="ff_offp_post" transform="translate(387.794921875,302.705078125)">
      <line class="ff_off_curve_x" x1="-8" x2="8" y1="-8" y2="8"/>
      <line class="ff_off_curve_x" x1="-8" x2="8" y1="8" y2="-8"/>
    </g>
  </g>
  <g class="ff_offp">
    <line class="ff_offp_pre" x1="405.3935546875" x2="401.0888671875" y1="280.869140625" y2="285.421875"/>
    <g class="ff_offp_pre" transform="translate(401.0888671875,285.421875)">
      <line class="ff_off_curve_x" x1="-8" x2="8" y1="-8" y2="8"/>
      <line class="ff_off_curve_x" x1="-8" x2="8" y1="8" y2="-8"/>
    </g>
  </g>
  <g class="ff_offp">
    <line class="ff_offp_post" x1="405.3935546875" x2="408.853515625" y1="280.869140625" y2="277.208984375"/>
    <g class="ff_offp_post" transform="translate(408.853515625,277.208984375)">
      <line class="ff_off_curve_x" x1="-8" x2="8" y1="-8" y2="8"/>
      <line class="ff_off_curve_x" x1="-8" x2="8" y1="8" y2="-8"/>
    </g>
  </g>
  <g class="ff_offp">
    <line class="ff_offp_pre" x1="404.455078125" x2="404.455078125" y1="281.306640625" y2="281.306640625"/>
    <g class="ff_offp_pre" transform="translate(404.455078125,281.306640625)">
      <line class="ff_off_curve_x" x1="-8" x2="8" y1="-8" y2="8"/>
      <line class="ff_off_curve_x" x1="-8" x2="8" y1="8" y2="-8"/>
    </g>
  </g>
  <g class="ff_offp">
    <line class="ff_offp_post" x1="404.455078125" x2="404.455078125" y1="281.306640625" y2="281.306640625"/>
    <g class="ff_offp_post" transform="translate(404.455078125,281.306640625)">
      <line class="ff_off_curve_x" x1="-8" x2="8" y1="-8" y2="8"/>
      <line class="ff_off_curve_x" x1="-8" x2="8" y1="8" y2="-8"/>
    </g>
  </g>
  <g class="ff_offp">
    <line class="ff_offp_pre" x1="398.392578125" x2="398.392578125" y1="285.0439453125" y2="285.0439453125"/>
    <g class="ff_offp_pre" transform="translate(398.392578125,285.0439453125)">
      <line class="ff_off_curve_x" x1="-8" x2="8" y1="-8" y2="8"/>
      <line class="ff_off_curve_x" x1="-8" x2="8" y1="8" y2="-8"/>
    </g>
  </g>
  <g class="ff_offp">
    <line class="ff_offp_post" x1="308.658203125" x2="314.06640625" y1="285.775390625" y2="291.5302734375"/>
    <g class="ff_offp_post" transform="translate(314.06640625,291.5302734375)">
      <line class="ff_off_curve_x" x1="-8" x2="8" y1="-8" y2="8"/>
      <line class="ff_off_curve_x" x1="-8" x2="8" y1="8" y2="-8"/>
    </g>
  </g>
  <g class="ff_offp">
    <line class="ff_offp_pre" x1="341.529296875" x2="327.267578125" y1="337.576171875" y2="308.939453125"/>
    <g class="ff_offp_pre" transform="translate(327.267578125,308.939453125)">
      <line class="ff_off_curve_x" x1="-8" x2="8" y1="-8" y2="8"/>
      <line class="ff_off_curve_x" x1="-8" x2="8" y1="8" y2="-8"/>
    </g>
  </g>
  <g class="ff_offp">
    <line class="ff_offp_post" x1="341.529296875" x2="359.328125" y1="337.576171875" y2="373.3125"/>
    <g class="ff_offp_post" transform="translate(359.328125,373.3125)">
      <line class="ff_off_curve_x" x1="-8" x2="8" y1="-8" y2="8"/>
      <line class="ff_off_curve_x" x1="-8" x2="8" y1="8" y2="-8"/>
    </g>
  </g>
  <g class="ff_offp">
    <line class="ff_offp_pre" x1="395.240234375" x2="378.6064453125" y1="488.400390625" y2="425.1259765625"/>
    <g class="ff_offp_pre" transform="translate(378.6064453125,425.1259765625)">
      <line class="ff_off_curve_x" x1="-8" x2="8" y1="-8" y2="8"/>
      <line class="ff_off_curve_x" x1="-8" x2="8" y1="8" y2="-8"/>
    </g>
  </g>
  <g class="ff_offp">
    <line class="ff_offp_post" x1="395.240234375" x2="404.22265625" y1="488.400390625" y2="522.572265625"/>
    <g class="ff_offp_post" transform="translate(404.22265625,522.572265625)">
      <line class="ff_off_curve_x" x1="-8" x2="8" y1="-8" y2="8"/>
      <line class="ff_off_curve_x" x1="-8" x2="8" y1="8" y2="-8"/>
    </g>
  </g>
  <g class="ff_offp">
    <line class="ff_offp_pre" x1="419.7109375" x2="412.4267578125" y1="600.0" y2="559.9287109375"/>
    <g class="ff_offp_pre" transform="translate(412.4267578125,559.9287109375)">
      <line class="ff_off_curve_x" x1="-8" x2="8" y1="-8" y2="8"/>
      <line class="ff_off_curve_x" x1="-8" x2="8" y1="8" y2="-8"/>
    </g>
  </g>
  <g>
    <rect class="ff_onp ff_corner ff_selected ff_first ff_extremum" height="12" transform="translate(292.7109375,600.0)" width="12" x="-6" y="-6"/>
    <g transform="translate(292.7109375,600.0) rotate(-79.48633216689284)">
      <line class="ff_arrow" x1="0" x2="10" y1="-10" y2="-10"/>
      <line class="ff_arrow" x1="10" x2="7" y1="-10" y2="-7"/>
      <line class="ff_arrow" x1="10" x2="7" y1="-10" y2="-13"/>
    </g>
  </g>
  <circle class="ff_onp ff_curve ff_selected" cx="0" cy="0" r="7" transform="translate(318.390625,484.98828125)"/>
  <circle class="ff_onp ff_curve ff_selected" cx="0" cy="0" r="7" transform="translate(373.3525390625,331.6875)"/>
  <circle class="ff_onp ff_curve ff_selected" cx="0" cy="0" r="7" transform="translate(405.3935546875,280.869140625)"/>
  <rect class="ff_onp ff_corner ff_selected ff_extremum" height="12" transform="translate(404.455078125,281.306640625)" width="12" x="-6" y="-6"/>
  <rect class="ff_onp ff_corner ff_selected" height="12" transform="translate(398.392578125,285.0439453125)" width="12" x="-6" y="-6"/>
  <rect class="ff_onp ff_corner ff_selected ff_extremum" height="12" transform="translate(351.0,296.25)" width="12" x="-6" y="-6"/>
  <rect class="ff_onp ff_corner ff_selected ff_extremum" height="12" transform="translate(308.658203125,285.775390625)" width="12" x="-6" y="-6"/>
  <circle class="ff_onp ff_curve ff_selected" cx="0" cy="0" r="7" transform="translate(341.529296875,337.576171875)"/>
  <circle class="ff_onp ff_curve ff_selected" cx="0" cy="0" r="7" transform="translate(395.240234375,488.400390625)"/>
  <rect class="ff_onp ff_corner ff_selected ff_extremum" height="12" transform="translate(419.7109375,600.0)" width="12" x="-6" y="-6"/>
  <path class="ff_main_background" d="M-391.2890625 600.0C-383.62890625 558.740234375 -375.013671875 520.2216796875 -365.609375 484.98828125C-348.451171875 420.703125 -328.673828125 367.86328125 -310.6474609375 331.6875C-296.205078125 302.705078125 -282.9111328125 285.421875 -278.6064453125 280.869140625C-278.8837890625 281.1240234375 -279.544921875 281.306640625 -279.544921875 281.306640625C-291.6123046875 288.7421875 -307.791015625 296.25 -333.0 296.25C-358.015625 296.25 -376.3896484375 284.5146484375 -377.560546875 283.5693359375C-376.7939453125 284.3076171875 -375.341796875 285.775390625 -375.341796875 285.775390625C-369.93359375 291.5302734375 -356.732421875 308.939453125 -342.470703125 337.576171875C-324.671875 373.3125 -305.3935546875 425.1259765625 -288.759765625 488.400390625C-279.77734375 522.5751953125 -271.5732421875 559.9287109375 -264.2890625 600.0M64.1162109375 600.0C116.177734375 286.6787109375 222.046875 71.25 351.0 71.25C490.041015625 71.25 596.8388671875 284.064453125 648.16015625 600.0M-619.8837890625 600.0C-567.822265625 286.6787109375 -461.953125 71.25 -333.0 71.25C-193.958984375 71.25 -87.1611328125 284.064453125 -35.83984375 600.0"/>
  <path class="ff_main_open" d="M292.7109375 600.0C300.3681640625 558.740234375 308.986328125 520.2216796875 318.390625 484.98828125C335.548828125 420.703125 355.326171875 367.86328125 373.3525390625 331.6875C387.794921875 302.705078125 401.0888671875 285.421875 405.3935546875 280.869140625C408.853515625 277.208984375 404.455078125 281.306640625 404.455078125 281.306640625C404.455078125 281.306640625 398.392578125 285.0439453125 398.392578125 285.0439453125L351.0 296.25L308.658203125 285.775390625C314.06640625 291.5302734375 327.267578125 308.939453125 341.529296875 337.576171875C359.328125 373.3125 378.6064453125 425.1259765625 395.240234375 488.400390625C404.22265625 522.572265625 412.4267578125 559.9287109375 419.7109375 600.0"/>
</svg>
