<?xml version="1.0" encoding="utf-8" ?>
<?xml-stylesheet href="../ff_svg_fig.css" type="text/css" title="FontForge SVG stylesheet" alternate="no" media="screen"?>
<svg baseProfile="full" height="100%" version="1.1" viewBox="-73,635,878,483" width="100%" xmlns="http://www.w3.org/2000/svg" xmlns:ev="http://www.w3.org/2001/xml-events" xmlns:xlink="http://www.w3.org/1999/xlink">
  <defs/>
  <g class="ff_offp">
    <line class="ff_offp_post" x1="686.7314453125" x2="686.7314453125" y1="1056.5966796875" y2="1057.0126953125"/>
    <g class="ff_offp_post" transform="translate(686.7314453125,1057.0126953125)">
      <line class="ff_off_curve_x" x1="-8" x2="8" y1="-8" y2="8"/>
      <line class="ff_off_curve_x" x1="-8" x2="8" y1="8" y2="-8"/>
    </g>
  </g>
  <g class="ff_offp">
    <line class="ff_offp_pre" x1="686.935546875" x2="686.798828125" y1="1057.78515625" y2="1057.4091796875"/>
    <g class="ff_offp_pre" transform="translate(686.798828125,1057.4091796875)">
      <line class="ff_off_curve_x" x1="-8" x2="8" y1="-8" y2="8"/>
      <line class="ff_off_curve_x" x1="-8" x2="8" y1="8" y2="-8"/>
    </g>
  </g>
  <g class="ff_offp">
    <line class="ff_offp_post" x1="686.935546875" x2="689.3896484375" y1="1057.78515625" y2="1064.52734375"/>
    <g class="ff_offp_post" transform="translate(689.3896484375,1064.52734375)">
      <line class="ff_off_curve_x" x1="-8" x2="8" y1="-8" y2="8"/>
      <line class="ff_off_curve_x" x1="-8" x2="8" y1="8" y2="-8"/>
    </g>
  </g>
  <g class="ff_offp">
    <line class="ff_offp_pre" x1="740.24609375" x2="713.27734375" y1="1052.2158203125" y2="1062.0322265625"/>
    <g class="ff_offp_pre" transform="translate(713.27734375,1062.0322265625)">
      <line class="ff_off_curve_x" x1="-8" x2="8" y1="-8" y2="8"/>
      <line class="ff_off_curve_x" x1="-8" x2="8" y1="8" y2="-8"/>
    </g>
  </g>
  <g class="ff_offp">
    <line class="ff_offp_post" x1="740.24609375" x2="765.7109375" y1="1052.2158203125" y2="1042.947265625"/>
    <g class="ff_offp_post" transform="translate(765.7109375,1042.947265625)">
      <line class="ff_off_curve_x" x1="-8" x2="8" y1="-8" y2="8"/>
      <line class="ff_off_curve_x" x1="-8" x2="8" y1="8" y2="-8"/>
    </g>
  </g>
  <g class="ff_offp">
    <line class="ff_offp_pre" x1="784.8681640625" x2="784.8759765625" y1="1023.4033203125" y2="1030.4453125"/>
    <g class="ff_offp_pre" transform="translate(784.8759765625,1030.4453125)">
      <line class="ff_off_curve_x" x1="-8" x2="8" y1="-8" y2="8"/>
      <line class="ff_off_curve_x" x1="-8" x2="8" y1="8" y2="-8"/>
    </g>
  </g>
  <g class="ff_offp">
    <line class="ff_offp_post" x1="691.8056640625" x2="561.9541015625" y1="702.8134765625" y2="817.3896484375"/>
    <g class="ff_offp_post" transform="translate(561.9541015625,817.3896484375)">
      <line class="ff_off_curve_x" x1="-8" x2="8" y1="-8" y2="8"/>
      <line class="ff_off_curve_x" x1="-8" x2="8" y1="8" y2="-8"/>
    </g>
  </g>
  <g class="ff_offp">
    <line class="ff_offp_pre" x1="434.8408203125" x2="477.1767578125" y1="1054.943359375" y2="935.48828125"/>
    <g class="ff_offp_pre" transform="translate(477.1767578125,935.48828125)">
      <line class="ff_off_curve_x" x1="-8" x2="8" y1="-8" y2="8"/>
      <line class="ff_off_curve_x" x1="-8" x2="8" y1="8" y2="-8"/>
    </g>
  </g>
  <g class="ff_offp">
    <line class="ff_offp_post" x1="434.8408203125" x2="434.47265625" y1="1054.943359375" y2="1055.982421875"/>
    <g class="ff_offp_post" transform="translate(434.47265625,1055.982421875)">
      <line class="ff_off_curve_x" x1="-8" x2="8" y1="-8" y2="8"/>
      <line class="ff_off_curve_x" x1="-8" x2="8" y1="8" y2="-8"/>
    </g>
  </g>
  <g class="ff_offp">
    <line class="ff_offp_pre" x1="434.736328125" x2="434.427734375" y1="1057.78515625" y2="1056.9365234375"/>
    <g class="ff_offp_pre" transform="translate(434.427734375,1056.9365234375)">
      <line class="ff_off_curve_x" x1="-8" x2="8" y1="-8" y2="8"/>
      <line class="ff_off_curve_x" x1="-8" x2="8" y1="8" y2="-8"/>
    </g>
  </g>
  <g class="ff_offp">
    <line class="ff_offp_post" x1="434.736328125" x2="437.1904296875" y1="1057.78515625" y2="1064.52734375"/>
    <g class="ff_offp_post" transform="translate(437.1904296875,1064.52734375)">
      <line class="ff_off_curve_x" x1="-8" x2="8" y1="-8" y2="8"/>
      <line class="ff_off_curve_x" x1="-8" x2="8" y1="8" y2="-8"/>
    </g>
  </g>
  <g class="ff_offp">
    <line class="ff_offp_pre" x1="488.0458984375" x2="461.0771484375" y1="1052.2158203125" y2="1062.0322265625"/>
    <g class="ff_offp_pre" transform="translate(461.0771484375,1062.0322265625)">
      <line class="ff_off_curve_x" x1="-8" x2="8" y1="-8" y2="8"/>
      <line class="ff_off_curve_x" x1="-8" x2="8" y1="8" y2="-8"/>
    </g>
  </g>
  <g class="ff_offp">
    <line class="ff_offp_post" x1="488.0458984375" x2="511.6220703125" y1="1052.2158203125" y2="1043.634765625"/>
    <g class="ff_offp_post" transform="translate(511.6220703125,1043.634765625)">
      <line class="ff_off_curve_x" x1="-8" x2="8" y1="-8" y2="8"/>
      <line class="ff_off_curve_x" x1="-8" x2="8" y1="8" y2="-8"/>
    </g>
  </g>
  <g class="ff_offp">
    <line class="ff_offp_pre" x1="532.359375" x2="529.798828125" y1="1025.056640625" y2="1032.2822265625"/>
    <g class="ff_offp_pre" transform="translate(529.798828125,1032.2822265625)">
      <line class="ff_off_curve_x" x1="-8" x2="8" y1="-8" y2="8"/>
      <line class="ff_off_curve_x" x1="-8" x2="8" y1="8" y2="-8"/>
    </g>
  </g>
  <g class="ff_offp">
    <line class="ff_offp_post" x1="532.359375" x2="562.2890625" y1="1025.056640625" y2="940.607421875"/>
    <g class="ff_offp_post" transform="translate(562.2890625,940.607421875)">
      <line class="ff_off_curve_x" x1="-8" x2="8" y1="-8" y2="8"/>
      <line class="ff_off_curve_x" x1="-8" x2="8" y1="8" y2="-8"/>
    </g>
  </g>
  <g class="ff_offp">
    <line class="ff_offp_pre" x1="686.4326171875" x2="613.876953125" y1="777.06640625" y2="857.474609375"/>
    <g class="ff_offp_pre" transform="translate(613.876953125,857.474609375)">
      <line class="ff_off_curve_x" x1="-8" x2="8" y1="-8" y2="8"/>
      <line class="ff_off_curve_x" x1="-8" x2="8" y1="8" y2="-8"/>
    </g>
  </g>
  <g class="ff_offp">
    <line class="ff_offp_post" x1="200.1904296875" x2="200.197265625" y1="1040.0791015625" y2="1045.9609375"/>
    <g class="ff_offp_post" transform="translate(200.197265625,1045.9609375)">
      <line class="ff_off_curve_x" x1="-8" x2="8" y1="-8" y2="8"/>
      <line class="ff_off_curve_x" x1="-8" x2="8" y1="8" y2="-8"/>
    </g>
  </g>
  <g class="ff_offp">
    <line class="ff_offp_pre" x1="203.3359375" x2="201.208984375" y1="1057.78515625" y2="1051.94140625"/>
    <g class="ff_offp_pre" transform="translate(201.208984375,1051.94140625)">
      <line class="ff_off_curve_x" x1="-8" x2="8" y1="-8" y2="8"/>
      <line class="ff_off_curve_x" x1="-8" x2="8" y1="8" y2="-8"/>
    </g>
  </g>
  <g class="ff_offp">
    <line class="ff_offp_post" x1="203.3359375" x2="213.1513671875" y1="1057.78515625" y2="1084.75390625"/>
    <g class="ff_offp_post" transform="translate(213.1513671875,1084.75390625)">
      <line class="ff_off_curve_x" x1="-8" x2="8" y1="-8" y2="8"/>
      <line class="ff_off_curve_x" x1="-8" x2="8" y1="8" y2="-8"/>
    </g>
  </g>
  <g class="ff_offp">
    <line class="ff_offp_pre" x1="269.9853515625" x2="243.0166015625" y1="1088.8642578125" y2="1098.6796875"/>
    <g class="ff_offp_pre" transform="translate(243.0166015625,1098.6796875)">
      <line class="ff_off_curve_x" x1="-8" x2="8" y1="-8" y2="8"/>
      <line class="ff_off_curve_x" x1="-8" x2="8" y1="8" y2="-8"/>
    </g>
  </g>
  <g class="ff_offp">
    <line class="ff_offp_post" x1="269.9853515625" x2="291.1103515625" y1="1088.8642578125" y2="1081.1748046875"/>
    <g class="ff_offp_post" transform="translate(291.1103515625,1081.1748046875)">
      <line class="ff_off_curve_x" x1="-8" x2="8" y1="-8" y2="8"/>
      <line class="ff_off_curve_x" x1="-8" x2="8" y1="8" y2="-8"/>
    </g>
  </g>
  <g class="ff_offp">
    <line class="ff_offp_pre" x1="304.2099609375" x2="304.232421875" y1="1039.9208984375" y2="1061.1845703125"/>
    <g class="ff_offp_pre" transform="translate(304.232421875,1061.1845703125)">
      <line class="ff_off_curve_x" x1="-8" x2="8" y1="-8" y2="8"/>
      <line class="ff_off_curve_x" x1="-8" x2="8" y1="8" y2="-8"/>
    </g>
  </g>
  <g class="ff_offp">
    <line class="ff_offp_post" x1="217.4453125" x2="86.5634765625" y1="655.3349609375" y2="770.8193359375"/>
    <g class="ff_offp_post" transform="translate(86.5634765625,770.8193359375)">
      <line class="ff_off_curve_x" x1="-8" x2="8" y1="-8" y2="8"/>
      <line class="ff_off_curve_x" x1="-8" x2="8" y1="8" y2="-8"/>
    </g>
  </g>
  <g class="ff_offp">
    <line class="ff_offp_pre" x1="-49.0166015625" x2="-3.3681640625" y1="1022.666015625" y2="893.86328125"/>
    <g class="ff_offp_pre" transform="translate(-3.3681640625,893.86328125)">
      <line class="ff_off_curve_x" x1="-8" x2="8" y1="-8" y2="8"/>
      <line class="ff_off_curve_x" x1="-8" x2="8" y1="8" y2="-8"/>
    </g>
  </g>
  <g class="ff_offp">
    <line class="ff_offp_post" x1="-49.0166015625" x2="-52.9091796875" y1="1022.666015625" y2="1033.6474609375"/>
    <g class="ff_offp_post" transform="translate(-52.9091796875,1033.6474609375)">
      <line class="ff_off_curve_x" x1="-8" x2="8" y1="-8" y2="8"/>
      <line class="ff_off_curve_x" x1="-8" x2="8" y1="8" y2="-8"/>
    </g>
  </g>
  <g class="ff_offp">
    <line class="ff_offp_pre" x1="-48.8642578125" x2="-53.15625" y1="1057.78515625" y2="1045.9931640625"/>
    <g class="ff_offp_pre" transform="translate(-53.15625,1045.9931640625)">
      <line class="ff_off_curve_x" x1="-8" x2="8" y1="-8" y2="8"/>
      <line class="ff_off_curve_x" x1="-8" x2="8" y1="8" y2="-8"/>
    </g>
  </g>
  <g class="ff_offp">
    <line class="ff_offp_post" x1="-48.8642578125" x2="-39.0478515625" y1="1057.78515625" y2="1084.75390625"/>
    <g class="ff_offp_post" transform="translate(-39.0478515625,1084.75390625)">
      <line class="ff_off_curve_x" x1="-8" x2="8" y1="-8" y2="8"/>
      <line class="ff_off_curve_x" x1="-8" x2="8" y1="8" y2="-8"/>
    </g>
  </g>
  <g class="ff_offp">
    <line class="ff_offp_pre" x1="17.78515625" x2="-9.18359375" y1="1088.8642578125" y2="1098.6796875"/>
    <g class="ff_offp_pre" transform="translate(-9.18359375,1098.6796875)">
      <line class="ff_off_curve_x" x1="-8" x2="8" y1="-8" y2="8"/>
      <line class="ff_off_curve_x" x1="-8" x2="8" y1="8" y2="-8"/>
    </g>
  </g>
  <g class="ff_offp">
    <line class="ff_offp_post" x1="17.78515625" x2="32.9619140625" y1="1088.8642578125" y2="1083.33984375"/>
    <g class="ff_offp_post" transform="translate(32.9619140625,1083.33984375)">
      <line class="ff_off_curve_x" x1="-8" x2="8" y1="-8" y2="8"/>
      <line class="ff_off_curve_x" x1="-8" x2="8" y1="8" y2="-8"/>
    </g>
  </g>
  <g class="ff_offp">
    <line class="ff_offp_pre" x1="49.0166015625" x2="44.0078125" y1="1057.333984375" y2="1071.466796875"/>
    <g class="ff_offp_pre" transform="translate(44.0078125,1071.466796875)">
      <line class="ff_off_curve_x" x1="-8" x2="8" y1="-8" y2="8"/>
      <line class="ff_off_curve_x" x1="-8" x2="8" y1="8" y2="-8"/>
    </g>
  </g>
  <g class="ff_offp">
    <line class="ff_offp_post" x1="49.0166015625" x2="77.15625" y1="1057.333984375" y2="977.9345703125"/>
    <g class="ff_offp_post" transform="translate(77.15625,977.9345703125)">
      <line class="ff_off_curve_x" x1="-8" x2="8" y1="-8" y2="8"/>
      <line class="ff_off_curve_x" x1="-8" x2="8" y1="8" y2="-8"/>
    </g>
  </g>
  <g class="ff_offp">
    <line class="ff_offp_pre" x1="199.953125" x2="126.912109375" y1="817.7021484375" y2="897.5068359375"/>
    <g class="ff_offp_pre" transform="translate(126.912109375,897.5068359375)">
      <line class="ff_off_curve_x" x1="-8" x2="8" y1="-8" y2="8"/>
      <line class="ff_off_curve_x" x1="-8" x2="8" y1="8" y2="-8"/>
    </g>
  </g>
  <g>
    <rect class="ff_onp ff_corner ff_first ff_extremum" height="12" transform="translate(686.4326171875,777.06640625)" width="12" x="-6" y="-6"/>
    <g transform="translate(686.4326171875,777.06640625) rotate(89.93874873147244)">
      <line class="ff_arrow" x1="0" x2="10" y1="-10" y2="-10"/>
      <line class="ff_arrow" x1="10" x2="7" y1="-10" y2="-7"/>
      <line class="ff_arrow" x1="10" x2="7" y1="-10" y2="-13"/>
    </g>
  </g>
  <polygon class="ff_onp ff_tangent" points="0,-9 9,0 0,9" transform="translate(686.7314453125,1056.5966796875) rotate(90.0)"/>
  <circle class="ff_onp ff_curve" cx="0" cy="0" r="7" transform="translate(686.935546875,1057.78515625)"/>
  <circle class="ff_onp ff_curve" cx="0" cy="0" r="7" transform="translate(740.24609375,1052.2158203125)"/>
  <polygon class="ff_onp ff_tangent" points="0,-9 9,0 0,9" transform="translate(784.8681640625,1023.4033203125) rotate(89.93643516182891)"/>
  <rect class="ff_onp ff_corner ff_extremum" height="12" transform="translate(784.4990234375,677.7587890625)" width="12" x="-6" y="-6"/>
  <rect class="ff_onp ff_corner" height="12" transform="translate(691.8056640625,702.8134765625)" width="12" x="-6" y="-6"/>
  <circle class="ff_onp ff_curve" cx="0" cy="0" r="7" transform="translate(434.8408203125,1054.943359375)"/>
  <circle class="ff_onp ff_curve" cx="0" cy="0" r="7" transform="translate(434.736328125,1057.78515625)"/>
  <circle class="ff_onp ff_curve" cx="0" cy="0" r="7" transform="translate(488.0458984375,1052.2158203125)"/>
  <circle class="ff_onp ff_curve" cx="0" cy="0" r="7" transform="translate(532.359375,1025.056640625)"/>
  <g>
    <rect class="ff_onp ff_corner ff_first ff_extremum" height="12" transform="translate(686.4326171875,777.06640625)" width="12" x="-6" y="-6"/>
    <g transform="translate(686.4326171875,777.06640625) rotate(89.93874873147244)">
      <line class="ff_arrow" x1="0" x2="10" y1="-10" y2="-10"/>
      <line class="ff_arrow" x1="10" x2="7" y1="-10" y2="-7"/>
      <line class="ff_arrow" x1="10" x2="7" y1="-10" y2="-13"/>
    </g>
  </g>
  <g>
    <rect class="ff_onp ff_corner ff_first ff_extremum" height="12" transform="translate(199.953125,817.7021484375)" width="12" x="-6" y="-6"/>
    <g transform="translate(199.953125,817.7021484375) rotate(89.9388580889329)">
      <line class="ff_arrow" x1="0" x2="10" y1="-10" y2="-10"/>
      <line class="ff_arrow" x1="10" x2="7" y1="-10" y2="-7"/>
      <line class="ff_arrow" x1="10" x2="7" y1="-10" y2="-13"/>
    </g>
  </g>
  <polygon class="ff_onp ff_tangent" points="0,-9 9,0 0,9" transform="translate(200.1904296875,1040.0791015625) rotate(89.93341021484116)"/>
  <circle class="ff_onp ff_curve" cx="0" cy="0" r="7" transform="translate(203.3359375,1057.78515625)"/>
  <circle class="ff_onp ff_curve" cx="0" cy="0" r="7" transform="translate(269.9853515625,1088.8642578125)"/>
  <polygon class="ff_onp ff_tangent" points="0,-9 9,0 0,9" transform="translate(304.2099609375,1039.9208984375) rotate(89.93947816484456)"/>
  <rect class="ff_onp ff_corner" height="12" transform="translate(303.83984375,694.275390625)" width="12" x="-6" y="-6"/>
  <rect class="ff_onp ff_corner ff_extremum" height="12" transform="translate(217.4453125,655.3349609375)" width="12" x="-6" y="-6"/>
  <circle class="ff_onp ff_curve" cx="0" cy="0" r="7" transform="translate(-49.0166015625,1022.666015625)"/>
  <circle class="ff_onp ff_curve" cx="0" cy="0" r="7" transform="translate(-48.8642578125,1057.78515625)"/>
  <circle class="ff_onp ff_curve" cx="0" cy="0" r="7" transform="translate(17.78515625,1088.8642578125)"/>
  <circle class="ff_onp ff_curve" cx="0" cy="0" r="7" transform="translate(49.0166015625,1057.333984375)"/>
  <g>
    <rect class="ff_onp ff_corner ff_first ff_extremum" height="12" transform="translate(199.953125,817.7021484375)" width="12" x="-6" y="-6"/>
    <g transform="translate(199.953125,817.7021484375) rotate(89.9388580889329)">
      <line class="ff_arrow" x1="0" x2="10" y1="-10" y2="-10"/>
      <line class="ff_arrow" x1="10" x2="7" y1="-10" y2="-7"/>
      <line class="ff_arrow" x1="10" x2="7" y1="-10" y2="-13"/>
    </g>
  </g>
  <path class="ff_main_background" d="M0.0 1040.0C41.8681640625 921.865234375 125.677734375 805.6669921875 251.830078125 694.3544921875L252.2001953125 1040.0M483.599609375 1040.0C525.4677734375 921.865234375 609.27734375 805.6669921875 735.4306640625 694.3544921875L735.7998046875 1040.0"/>
  <path class="ff_main_closed" d="M686.4326171875 777.06640625L686.7314453125 1056.5966796875C686.7314453125 1057.0126953125 686.798828125 1057.4091796875 686.935546875 1057.78515625C689.3896484375 1064.52734375 713.27734375 1062.0322265625 740.24609375 1052.2158203125C765.7109375 1042.947265625 784.8759765625 1030.4453125 784.8681640625 1023.4033203125L784.4990234375 677.7587890625L691.8056640625 702.8134765625C561.9541015625 817.3896484375 477.1767578125 935.48828125 434.8408203125 1054.943359375C434.47265625 1055.982421875 434.427734375 1056.9365234375 434.736328125 1057.78515625C437.1904296875 1064.52734375 461.0771484375 1062.0322265625 488.0458984375 1052.2158203125C511.6220703125 1043.634765625 529.798828125 1032.2822265625 532.359375 1025.056640625C562.2890625 940.607421875 613.876953125 857.474609375 686.4326171875 777.06640625 zM199.953125 817.7021484375L200.1904296875 1040.0791015625C200.197265625 1045.9609375 201.208984375 1051.94140625 203.3359375 1057.78515625C213.1513671875 1084.75390625 243.0166015625 1098.6796875 269.9853515625 1088.8642578125C291.1103515625 1081.1748046875 304.232421875 1061.1845703125 304.2099609375 1039.9208984375L303.83984375 694.275390625L217.4453125 655.3349609375C86.5634765625 770.8193359375 -3.3681640625 893.86328125 -49.0166015625 1022.666015625C-52.9091796875 1033.6474609375 -53.15625 1045.9931640625 -48.8642578125 1057.78515625C-39.0478515625 1084.75390625 -9.18359375 1098.6796875 17.78515625 1088.8642578125C32.9619140625 1083.33984375 44.0078125 1071.466796875 49.0166015625 1057.333984375C77.15625 977.9345703125 126.912109375 897.5068359375 199.953125 817.7021484375 z"/>
</svg>
