<?xml version="1.0" encoding="utf-8" ?>
<?xml-stylesheet href="../ff_svg_fig.css" type="text/css" title="FontForge SVG stylesheet" alternate="no" media="screen"?>
<svg baseProfile="full" height="100%" version="1.1" viewBox="-65,686,935,454" width="100%" xmlns="http://www.w3.org/2000/svg" xmlns:ev="http://www.w3.org/2001/xml-events" xmlns:xlink="http://www.w3.org/1999/xlink">
  <defs/>
  <g class="ff_offp">
    <line class="ff_offp_post" x1="-39.5771484375" x2="0.91796875" y1="1105.9267578125" y2="991.6669921875"/>
    <g class="ff_offp_post" transform="translate(0.91796875,991.6669921875)">
      <line class="ff_off_curve_x" x1="-8" x2="8" y1="-8" y2="8"/>
      <line class="ff_off_curve_x" x1="-8" x2="8" y1="8" y2="-8"/>
    </g>
  </g>
  <g class="ff_offp">
    <line class="ff_offp_pre" x1="180.5205078125" x2="74.7802734375" y1="775.2705078125" y2="881.01171875"/>
    <g class="ff_offp_pre" transform="translate(74.7802734375,881.01171875)">
      <line class="ff_off_curve_x" x1="-8" x2="8" y1="-8" y2="8"/>
      <line class="ff_off_curve_x" x1="-8" x2="8" y1="8" y2="-8"/>
    </g>
  </g>
  <g class="ff_offp">
    <line class="ff_offp_post" x1="180.5205078125" x2="200.37109375" y1="775.2705078125" y2="755.419921875"/>
    <g class="ff_offp_post" transform="translate(200.37109375,755.419921875)">
      <line class="ff_off_curve_x" x1="-8" x2="8" y1="-8" y2="8"/>
      <line class="ff_off_curve_x" x1="-8" x2="8" y1="8" y2="-8"/>
    </g>
  </g>
  <g class="ff_offp">
    <line class="ff_offp_pre" x1="243.439453125" x2="221.3447265625" y1="716.25" y2="735.7451171875"/>
    <g class="ff_offp_pre" transform="translate(221.3447265625,735.7451171875)">
      <line class="ff_off_curve_x" x1="-8" x2="8" y1="-8" y2="8"/>
      <line class="ff_off_curve_x" x1="-8" x2="8" y1="8" y2="-8"/>
    </g>
  </g>
  <g class="ff_offp">
    <line class="ff_offp_post" x1="243.439453125" x2="249.9169921875" y1="716.25" y2="710.5341796875"/>
    <g class="ff_offp_post" transform="translate(249.9169921875,710.5341796875)">
      <line class="ff_off_curve_x" x1="-8" x2="8" y1="-8" y2="8"/>
      <line class="ff_off_curve_x" x1="-8" x2="8" y1="8" y2="-8"/>
    </g>
  </g>
  <g class="ff_offp">
    <line class="ff_offp_pre" x1="271.1630859375" x2="259.7451171875" y1="705.767578125" y2="705.767578125"/>
    <g class="ff_offp_pre" transform="translate(259.7451171875,705.767578125)">
      <line class="ff_off_curve_x" x1="-8" x2="8" y1="-8" y2="8"/>
      <line class="ff_off_curve_x" x1="-8" x2="8" y1="8" y2="-8"/>
    </g>
  </g>
  <g class="ff_offp">
    <line class="ff_offp_post" x1="271.1630859375" x2="292.125" y1="705.767578125" y2="705.767578125"/>
    <g class="ff_offp_post" transform="translate(292.125,705.767578125)">
      <line class="ff_off_curve_x" x1="-8" x2="8" y1="-8" y2="8"/>
      <line class="ff_off_curve_x" x1="-8" x2="8" y1="8" y2="-8"/>
    </g>
  </g>
  <g class="ff_offp">
    <line class="ff_offp_pre" x1="313.1884765625" x2="313.1611328125" y1="747.7197265625" y2="722.2392578125"/>
    <g class="ff_offp_pre" transform="translate(313.1611328125,722.2392578125)">
      <line class="ff_off_curve_x" x1="-8" x2="8" y1="-8" y2="8"/>
      <line class="ff_off_curve_x" x1="-8" x2="8" y1="8" y2="-8"/>
    </g>
  </g>
  <g class="ff_offp">
    <line class="ff_offp_post" x1="468.3798828125" x2="515.1005859375" y1="1120.0" y2="997.9150390625"/>
    <g class="ff_offp_post" transform="translate(515.1005859375,997.9150390625)">
      <line class="ff_off_curve_x" x1="-8" x2="8" y1="-8" y2="8"/>
      <line class="ff_off_curve_x" x1="-8" x2="8" y1="8" y2="-8"/>
    </g>
  </g>
  <g class="ff_offp">
    <line class="ff_offp_pre" x1="734.0849609375" x2="603.541015625" y1="762.6845703125" y2="877.87109375"/>
    <g class="ff_offp_pre" transform="translate(603.541015625,877.87109375)">
      <line class="ff_off_curve_x" x1="-8" x2="8" y1="-8" y2="8"/>
      <line class="ff_off_curve_x" x1="-8" x2="8" y1="8" y2="-8"/>
    </g>
  </g>
  <g class="ff_offp">
    <line class="ff_offp_post" x1="734.0849609375" x2="739.8388671875" y1="762.6845703125" y2="757.607421875"/>
    <g class="ff_offp_post" transform="translate(739.8388671875,757.607421875)">
      <line class="ff_off_curve_x" x1="-8" x2="8" y1="-8" y2="8"/>
      <line class="ff_off_curve_x" x1="-8" x2="8" y1="8" y2="-8"/>
    </g>
  </g>
  <g class="ff_offp">
    <line class="ff_offp_pre" x1="752.8857421875" x2="746.1337890625" y1="747.7958984375" y2="752.6025390625"/>
    <g class="ff_offp_pre" transform="translate(746.1337890625,752.6025390625)">
      <line class="ff_off_curve_x" x1="-8" x2="8" y1="-8" y2="8"/>
      <line class="ff_off_curve_x" x1="-8" x2="8" y1="8" y2="-8"/>
    </g>
  </g>
  <g class="ff_offp">
    <line class="ff_offp_post" x1="752.8857421875" x2="781.0849609375" y1="747.7958984375" y2="727.720703125"/>
    <g class="ff_offp_post" transform="translate(781.0849609375,727.720703125)">
      <line class="ff_off_curve_x" x1="-8" x2="8" y1="-8" y2="8"/>
      <line class="ff_off_curve_x" x1="-8" x2="8" y1="8" y2="-8"/>
    </g>
  </g>
  <g class="ff_offp">
    <line class="ff_offp_pre" x1="828.8017578125" x2="809.9404296875" y1="716.3115234375" y2="716.3115234375"/>
    <g class="ff_offp_pre" transform="translate(809.9404296875,716.3115234375)">
      <line class="ff_off_curve_x" x1="-8" x2="8" y1="-8" y2="8"/>
      <line class="ff_off_curve_x" x1="-8" x2="8" y1="8" y2="-8"/>
    </g>
  </g>
  <g class="ff_offp">
    <line class="ff_offp_post" x1="828.8017578125" x2="840.888671875" y1="716.3115234375" y2="716.3115234375"/>
    <g class="ff_offp_post" transform="translate(840.888671875,716.3115234375)">
      <line class="ff_off_curve_x" x1="-8" x2="8" y1="-8" y2="8"/>
      <line class="ff_off_curve_x" x1="-8" x2="8" y1="8" y2="-8"/>
    </g>
  </g>
  <g class="ff_offp">
    <line class="ff_offp_pre" x1="849.919921875" x2="850.0302734375" y1="732.8486328125" y2="721.05859375"/>
    <g class="ff_offp_pre" transform="translate(850.0302734375,721.05859375)">
      <line class="ff_off_curve_x" x1="-8" x2="8" y1="-8" y2="8"/>
      <line class="ff_off_curve_x" x1="-8" x2="8" y1="8" y2="-8"/>
    </g>
  </g>
  <g class="ff_offp">
    <line class="ff_offp_post" x1="229.314453125" x2="140.8984375" y1="845.40625" y2="936.1083984375"/>
    <g class="ff_offp_post" transform="translate(140.8984375,936.1083984375)">
      <line class="ff_off_curve_x" x1="-8" x2="8" y1="-8" y2="8"/>
      <line class="ff_off_curve_x" x1="-8" x2="8" y1="8" y2="-8"/>
    </g>
  </g>
  <g class="ff_offp">
    <line class="ff_offp_pre" x1="44.765625" x2="79.8984375" y1="1120.0" y2="1028.2763671875"/>
    <g class="ff_offp_pre" transform="translate(79.8984375,1028.2763671875)">
      <line class="ff_off_curve_x" x1="-8" x2="8" y1="-8" y2="8"/>
      <line class="ff_off_curve_x" x1="-8" x2="8" y1="8" y2="-8"/>
    </g>
  </g>
  <g class="ff_offp">
    <line class="ff_offp_post" x1="734.1767578125" x2="661.248046875" y1="848.65234375" y2="932.486328125"/>
    <g class="ff_offp_post" transform="translate(661.248046875,932.486328125)">
      <line class="ff_off_curve_x" x1="-8" x2="8" y1="-8" y2="8"/>
      <line class="ff_off_curve_x" x1="-8" x2="8" y1="8" y2="-8"/>
    </g>
  </g>
  <g class="ff_offp">
    <line class="ff_offp_pre" x1="578.7177734375" x2="609.474609375" y1="1105.08203125" y2="1018.298828125"/>
    <g class="ff_offp_pre" transform="translate(609.474609375,1018.298828125)">
      <line class="ff_off_curve_x" x1="-8" x2="8" y1="-8" y2="8"/>
      <line class="ff_off_curve_x" x1="-8" x2="8" y1="8" y2="-8"/>
    </g>
  </g>
  <g>
    <rect class="ff_onp ff_corner ff_first ff_extremum" height="12" transform="translate(-44.564453125,1120.0)" width="12" x="-6" y="-6"/>
    <g transform="translate(-44.564453125,1120.0) rotate(-70.4865861039095)">
      <line class="ff_arrow" x1="0" x2="10" y1="-10" y2="-10"/>
      <line class="ff_arrow" x1="10" x2="7" y1="-10" y2="-7"/>
      <line class="ff_arrow" x1="10" x2="7" y1="-10" y2="-13"/>
    </g>
  </g>
  <polygon class="ff_onp ff_tangent" points="0,-9 9,0 0,9" transform="translate(-39.5771484375,1105.9267578125) rotate(289.51497537386444)"/>
  <circle class="ff_onp ff_curve" cx="0" cy="0" r="7" transform="translate(180.5205078125,775.2705078125)"/>
  <circle class="ff_onp ff_curve" cx="0" cy="0" r="7" transform="translate(243.439453125,716.25)"/>
  <circle class="ff_onp ff_curve ff_extremum" cx="0" cy="0" r="7" transform="translate(271.1630859375,705.767578125)"/>
  <polygon class="ff_onp ff_tangent" points="0,-9 9,0 0,9" transform="translate(313.1884765625,747.7197265625) rotate(269.93851444080417)"/>
  <rect class="ff_onp ff_corner ff_extremum" height="12" transform="translate(313.591796875,1120.0)" width="12" x="-6" y="-6"/>
  <g>
    <rect class="ff_onp ff_corner ff_first ff_extremum" height="12" transform="translate(468.3798828125,1120.0)" width="12" x="-6" y="-6"/>
    <g transform="translate(468.3798828125,1120.0) rotate(-69.05864744110022)">
      <line class="ff_arrow" x1="0" x2="10" y1="-10" y2="-10"/>
      <line class="ff_arrow" x1="10" x2="7" y1="-10" y2="-7"/>
      <line class="ff_arrow" x1="10" x2="7" y1="-10" y2="-13"/>
    </g>
  </g>
  <circle class="ff_onp ff_curve" cx="0" cy="0" r="7" transform="translate(734.0849609375,762.6845703125)"/>
  <circle class="ff_onp ff_curve" cx="0" cy="0" r="7" transform="translate(752.8857421875,747.7958984375)"/>
  <circle class="ff_onp ff_curve ff_extremum" cx="0" cy="0" r="7" transform="translate(828.8017578125,716.3115234375)"/>
  <polygon class="ff_onp ff_tangent ff_extremum" points="0,-9 9,0 0,9" transform="translate(849.919921875,732.8486328125) rotate(270.53625727093674)"/>
  <rect class="ff_onp ff_corner ff_extremum" height="12" transform="translate(850.333984375,1120.0)" width="12" x="-6" y="-6"/>
  <g>
    <rect class="ff_onp ff_corner ff_first ff_extremum" height="12" transform="translate(229.6083984375,1120.0)" width="12" x="-6" y="-6"/>
    <g transform="translate(229.6083984375,1120.0) rotate(-90.06133358600049)">
      <line class="ff_arrow" x1="0" x2="10" y1="-10" y2="-10"/>
      <line class="ff_arrow" x1="10" x2="7" y1="-10" y2="-7"/>
      <line class="ff_arrow" x1="10" x2="7" y1="-10" y2="-13"/>
    </g>
  </g>
  <rect class="ff_onp ff_corner ff_extremum" height="12" transform="translate(229.314453125,845.40625)" width="12" x="-6" y="-6"/>
  <rect class="ff_onp ff_corner ff_extremum" height="12" transform="translate(44.765625,1120.0)" width="12" x="-6" y="-6"/>
  <g>
    <rect class="ff_onp ff_corner ff_first ff_extremum" height="12" transform="translate(734.466796875,1120.0)" width="12" x="-6" y="-6"/>
    <g transform="translate(734.466796875,1120.0) rotate(-90.06124249634614)">
      <line class="ff_arrow" x1="0" x2="10" y1="-10" y2="-10"/>
      <line class="ff_arrow" x1="10" x2="7" y1="-10" y2="-7"/>
      <line class="ff_arrow" x1="10" x2="7" y1="-10" y2="-13"/>
    </g>
  </g>
  <rect class="ff_onp ff_corner ff_extremum" height="12" transform="translate(734.1767578125,848.65234375)" width="12" x="-6" y="-6"/>
  <polygon class="ff_onp ff_tangent" points="0,-9 9,0 0,9" transform="translate(578.7177734375,1105.08203125) rotate(289.5148361818962)"/>
  <rect class="ff_onp ff_corner ff_extremum" height="12" transform="translate(573.4306640625,1120.0)" width="12" x="-6" y="-6"/>
  <path class="ff_main_background" d="M0.0 1120.0C45.0888671875 992.77734375 135.3447265625 867.6416015625 271.2021484375 747.7666015625L271.599609375 1120.0M520.7998046875 1120.0C565.888671875 992.77734375 656.14453125 867.6416015625 792.001953125 747.7666015625L792.400390625 1120.0"/>
  <path class="ff_main_closed" d="M-44.564453125 1120.0L-39.5771484375 1105.9267578125C0.91796875 991.6669921875 74.7802734375 881.01171875 180.5205078125 775.2705078125C200.37109375 755.419921875 221.3447265625 735.7451171875 243.439453125 716.25C249.9169921875 710.5341796875 259.7451171875 705.767578125 271.1630859375 705.767578125C292.125 705.767578125 313.1611328125 722.2392578125 313.1884765625 747.7197265625L313.591796875 1120.0M468.3798828125 1120.0C515.1005859375 997.9150390625 603.541015625 877.87109375 734.0849609375 762.6845703125C739.8388671875 757.607421875 746.1337890625 752.6025390625 752.8857421875 747.7958984375C781.0849609375 727.720703125 809.9404296875 716.3115234375 828.8017578125 716.3115234375C840.888671875 716.3115234375 850.0302734375 721.05859375 849.919921875 732.8486328125L850.333984375 1120.0M229.6083984375 1120.0L229.314453125 845.40625C140.8984375 936.1083984375 79.8984375 1028.2763671875 44.765625 1120.0M734.466796875 1120.0L734.1767578125 848.65234375C661.248046875 932.486328125 609.474609375 1018.298828125 578.7177734375 1105.08203125L573.4306640625 1120.0"/>
</svg>
