<?xml version="1.0" encoding="utf-8" ?>
<?xml-stylesheet href="../ff_svg_fig.css" type="text/css" title="FontForge SVG stylesheet" alternate="no" media="screen"?>
<svg baseProfile="full" height="100%" version="1.1" viewBox="-50,629,1207,229" width="100%" xmlns="http://www.w3.org/2000/svg" xmlns:ev="http://www.w3.org/2001/xml-events" xmlns:xlink="http://www.w3.org/1999/xlink">
  <defs/>
  <g class="ff_offp">
    <line class="ff_offp_post" x1="464.5419921875" x2="494.4580078125" y1="790.921875" y2="757.4287109375"/>
    <g class="ff_offp_post" transform="translate(494.4580078125,757.4287109375)">
      <line class="ff_off_curve_x" x1="-8" x2="8" y1="-8" y2="8"/>
      <line class="ff_off_curve_x" x1="-8" x2="8" y1="8" y2="-8"/>
    </g>
  </g>
  <g class="ff_offp">
    <line class="ff_offp_pre" x1="519.23046875" x2="519.23046875" y1="745.1591796875" y2="745.1591796875"/>
    <g class="ff_offp_pre" transform="translate(519.23046875,745.1591796875)">
      <line class="ff_off_curve_x" x1="-8" x2="8" y1="-8" y2="8"/>
      <line class="ff_off_curve_x" x1="-8" x2="8" y1="8" y2="-8"/>
    </g>
  </g>
  <g class="ff_offp">
    <line class="ff_offp_post" x1="519.3916015625" x2="526.3642578125" y1="745.173828125" y2="743.7529296875"/>
    <g class="ff_offp_post" transform="translate(526.3642578125,743.7529296875)">
      <line class="ff_off_curve_x" x1="-8" x2="8" y1="-8" y2="8"/>
      <line class="ff_off_curve_x" x1="-8" x2="8" y1="8" y2="-8"/>
    </g>
  </g>
  <g class="ff_offp">
    <line class="ff_offp_pre" x1="587.3798828125" x2="557.30859375" y1="759.474609375" y2="744.189453125"/>
    <g class="ff_offp_pre" transform="translate(557.30859375,744.189453125)">
      <line class="ff_off_curve_x" x1="-8" x2="8" y1="-8" y2="8"/>
      <line class="ff_off_curve_x" x1="-8" x2="8" y1="8" y2="-8"/>
    </g>
  </g>
  <g class="ff_offp">
    <line class="ff_offp_post" x1="587.3798828125" x2="611.171875" y1="759.474609375" y2="771.568359375"/>
    <g class="ff_offp_post" transform="translate(611.171875,771.568359375)">
      <line class="ff_off_curve_x" x1="-8" x2="8" y1="-8" y2="8"/>
      <line class="ff_off_curve_x" x1="-8" x2="8" y1="8" y2="-8"/>
    </g>
  </g>
  <g class="ff_offp">
    <line class="ff_offp_pre" x1="658.9443359375" x2="635.4228515625" y1="817.6455078125" y2="790.9873046875"/>
    <g class="ff_offp_pre" transform="translate(635.4228515625,790.9873046875)">
      <line class="ff_off_curve_x" x1="-8" x2="8" y1="-8" y2="8"/>
      <line class="ff_off_curve_x" x1="-8" x2="8" y1="8" y2="-8"/>
    </g>
  </g>
  <g class="ff_offp">
    <line class="ff_offp_post" x1="751.0556640625" x2="723.7939453125" y1="780.3544921875" y2="749.4580078125"/>
    <g class="ff_offp_post" transform="translate(723.7939453125,749.4580078125)">
      <line class="ff_off_curve_x" x1="-8" x2="8" y1="-8" y2="8"/>
      <line class="ff_off_curve_x" x1="-8" x2="8" y1="8" y2="-8"/>
    </g>
  </g>
  <g class="ff_offp">
    <line class="ff_offp_pre" x1="665.0556640625" x2="695.3525390625" y1="714.18359375" y2="727.37109375"/>
    <g class="ff_offp_pre" transform="translate(695.3525390625,727.37109375)">
      <line class="ff_off_curve_x" x1="-8" x2="8" y1="-8" y2="8"/>
      <line class="ff_off_curve_x" x1="-8" x2="8" y1="8" y2="-8"/>
    </g>
  </g>
  <g class="ff_offp">
    <line class="ff_offp_post" x1="665.0556640625" x2="629.3408203125" y1="714.18359375" y2="698.6376953125"/>
    <g class="ff_offp_post" transform="translate(629.3408203125,698.6376953125)">
      <line class="ff_off_curve_x" x1="-8" x2="8" y1="-8" y2="8"/>
      <line class="ff_off_curve_x" x1="-8" x2="8" y1="8" y2="-8"/>
    </g>
  </g>
  <g class="ff_offp">
    <line class="ff_offp_pre" x1="508.9697265625" x2="586.2744140625" y1="716.96875" y2="688.83203125"/>
    <g class="ff_offp_pre" transform="translate(586.2744140625,688.83203125)">
      <line class="ff_off_curve_x" x1="-8" x2="8" y1="-8" y2="8"/>
      <line class="ff_off_curve_x" x1="-8" x2="8" y1="8" y2="-8"/>
    </g>
  </g>
  <g class="ff_offp">
    <line class="ff_offp_post" x1="508.9697265625" x2="443.046875" y1="716.96875" y2="740.962890625"/>
    <g class="ff_offp_post" transform="translate(443.046875,740.962890625)">
      <line class="ff_off_curve_x" x1="-8" x2="8" y1="-8" y2="8"/>
      <line class="ff_off_curve_x" x1="-8" x2="8" y1="8" y2="-8"/>
    </g>
  </g>
  <g class="ff_offp">
    <line class="ff_offp_pre" x1="377.4580078125" x2="409.2548828125" y1="807.078125" y2="771.4794921875"/>
    <g class="ff_offp_pre" transform="translate(409.2548828125,771.4794921875)">
      <line class="ff_off_curve_x" x1="-8" x2="8" y1="-8" y2="8"/>
      <line class="ff_off_curve_x" x1="-8" x2="8" y1="8" y2="-8"/>
    </g>
  </g>
  <g class="ff_offp">
    <line class="ff_offp_post" x1="29.8017578125" x2="56.8486328125" y1="826.68359375" y2="796.40234375"/>
    <g class="ff_offp_post" transform="translate(56.8486328125,796.40234375)">
      <line class="ff_off_curve_x" x1="-8" x2="8" y1="-8" y2="8"/>
      <line class="ff_off_curve_x" x1="-8" x2="8" y1="8" y2="-8"/>
    </g>
  </g>
  <g class="ff_offp">
    <line class="ff_offp_pre" x1="106.78125" x2="83.2041015625" y1="769.65234375" y2="778.2333984375"/>
    <g class="ff_offp_pre" transform="translate(83.2041015625,778.2333984375)">
      <line class="ff_off_curve_x" x1="-8" x2="8" y1="-8" y2="8"/>
      <line class="ff_off_curve_x" x1="-8" x2="8" y1="8" y2="-8"/>
    </g>
  </g>
  <g class="ff_offp">
    <line class="ff_offp_post" x1="106.78125" x2="152.1669921875" y1="769.65234375" y2="753.1328125"/>
    <g class="ff_offp_post" transform="translate(152.1669921875,753.1328125)">
      <line class="ff_off_curve_x" x1="-8" x2="8" y1="-8" y2="8"/>
      <line class="ff_off_curve_x" x1="-8" x2="8" y1="8" y2="-8"/>
    </g>
  </g>
  <g class="ff_offp">
    <line class="ff_offp_pre" x1="253.984375" x2="199.951171875" y1="826.4501953125" y2="765.212890625"/>
    <g class="ff_offp_pre" transform="translate(199.951171875,765.212890625)">
      <line class="ff_off_curve_x" x1="-8" x2="8" y1="-8" y2="8"/>
      <line class="ff_off_curve_x" x1="-8" x2="8" y1="8" y2="-8"/>
    </g>
  </g>
  <g class="ff_offp">
    <line class="ff_offp_post" x1="314.015625" x2="247.1640625" y1="773.5498046875" y2="697.78515625"/>
    <g class="ff_offp_post" transform="translate(247.1640625,697.78515625)">
      <line class="ff_off_curve_x" x1="-8" x2="8" y1="-8" y2="8"/>
      <line class="ff_off_curve_x" x1="-8" x2="8" y1="8" y2="-8"/>
    </g>
  </g>
  <g class="ff_offp">
    <line class="ff_offp_pre" x1="79.419921875" x2="163.2392578125" y1="694.4765625" y2="663.96875"/>
    <g class="ff_offp_pre" transform="translate(163.2392578125,663.96875)">
      <line class="ff_off_curve_x" x1="-8" x2="8" y1="-8" y2="8"/>
      <line class="ff_off_curve_x" x1="-8" x2="8" y1="8" y2="-8"/>
    </g>
  </g>
  <g class="ff_offp">
    <line class="ff_offp_post" x1="79.419921875" x2="39.8115234375" y1="694.4765625" y2="708.892578125"/>
    <g class="ff_offp_post" transform="translate(39.8115234375,708.892578125)">
      <line class="ff_off_curve_x" x1="-8" x2="8" y1="-8" y2="8"/>
      <line class="ff_off_curve_x" x1="-8" x2="8" y1="8" y2="-8"/>
    </g>
  </g>
  <g class="ff_offp">
    <line class="ff_offp_pre" x1="-29.8017578125" x2="3.580078125" y1="773.31640625" y2="735.943359375"/>
    <g class="ff_offp_pre" transform="translate(3.580078125,735.943359375)">
      <line class="ff_off_curve_x" x1="-8" x2="8" y1="-8" y2="8"/>
      <line class="ff_off_curve_x" x1="-8" x2="8" y1="8" y2="-8"/>
    </g>
  </g>
  <g class="ff_offp">
    <line class="ff_offp_post" x1="853.5546875" x2="940.576171875" y1="838.2353515625" y2="740.80859375"/>
    <g class="ff_offp_post" transform="translate(940.576171875,740.80859375)">
      <line class="ff_off_curve_x" x1="-8" x2="8" y1="-8" y2="8"/>
      <line class="ff_off_curve_x" x1="-8" x2="8" y1="8" y2="-8"/>
    </g>
  </g>
  <g class="ff_offp">
    <line class="ff_offp_pre" x1="1116.384765625" x2="1031.3515625" y1="838.1669921875" y2="741.7958984375"/>
    <g class="ff_offp_pre" transform="translate(1031.3515625,741.7958984375)">
      <line class="ff_off_curve_x" x1="-8" x2="8" y1="-8" y2="8"/>
      <line class="ff_off_curve_x" x1="-8" x2="8" y1="8" y2="-8"/>
    </g>
  </g>
  <g class="ff_offp">
    <line class="ff_offp_post" x1="1137.615234375" x2="1042.6484375" y1="757.8330078125" y2="650.2041015625"/>
    <g class="ff_offp_post" transform="translate(1042.6484375,650.2041015625)">
      <line class="ff_off_curve_x" x1="-8" x2="8" y1="-8" y2="8"/>
      <line class="ff_off_curve_x" x1="-8" x2="8" y1="8" y2="-8"/>
    </g>
  </g>
  <g class="ff_offp">
    <line class="ff_offp_pre" x1="832.4453125" x2="929.423828125" y1="757.7646484375" y2="649.19140625"/>
    <g class="ff_offp_pre" transform="translate(929.423828125,649.19140625)">
      <line class="ff_off_curve_x" x1="-8" x2="8" y1="-8" y2="8"/>
      <line class="ff_off_curve_x" x1="-8" x2="8" y1="8" y2="-8"/>
    </g>
  </g>
  <g>
    <rect class="ff_onp ff_corner ff_first" height="12" transform="translate(464.5419921875,790.921875)" width="12" x="-6" y="-6"/>
    <g transform="translate(464.5419921875,790.921875) rotate(-48.22884634597413)">
      <line class="ff_arrow" x1="0" x2="10" y1="-10" y2="-10"/>
      <line class="ff_arrow" x1="10" x2="7" y1="-10" y2="-7"/>
      <line class="ff_arrow" x1="10" x2="7" y1="-10" y2="-13"/>
    </g>
  </g>
  <rect class="ff_onp ff_corner ff_extremum" height="12" transform="translate(519.23046875,745.1591796875)" width="12" x="-6" y="-6"/>
  <polygon class="ff_onp ff_tangent ff_extremum" points="0,-9 9,0 0,9" transform="translate(519.3916015625,745.173828125) rotate(348.4818883792643)"/>
  <circle class="ff_onp ff_curve" cx="0" cy="0" r="7" transform="translate(587.3798828125,759.474609375)"/>
  <rect class="ff_onp ff_corner ff_extremum" height="12" transform="translate(658.9443359375,817.6455078125)" width="12" x="-6" y="-6"/>
  <rect class="ff_onp ff_corner ff_extremum" height="12" transform="translate(751.0556640625,780.3544921875)" width="12" x="-6" y="-6"/>
  <circle class="ff_onp ff_curve" cx="0" cy="0" r="7" transform="translate(665.0556640625,714.18359375)"/>
  <circle class="ff_onp ff_curve" cx="0" cy="0" r="7" transform="translate(508.9697265625,716.96875)"/>
  <rect class="ff_onp ff_corner ff_extremum" height="12" transform="translate(377.4580078125,807.078125)" width="12" x="-6" y="-6"/>
  <g>
    <rect class="ff_onp ff_corner ff_first ff_extremum" height="12" transform="translate(29.8017578125,826.68359375)" width="12" x="-6" y="-6"/>
    <g transform="translate(29.8017578125,826.68359375) rotate(-48.22912684323171)">
      <line class="ff_arrow" x1="0" x2="10" y1="-10" y2="-10"/>
      <line class="ff_arrow" x1="10" x2="7" y1="-10" y2="-7"/>
      <line class="ff_arrow" x1="10" x2="7" y1="-10" y2="-13"/>
    </g>
  </g>
  <circle class="ff_onp ff_curve" cx="0" cy="0" r="7" transform="translate(106.78125,769.65234375)"/>
  <rect class="ff_onp ff_corner ff_extremum" height="12" transform="translate(253.984375,826.4501953125)" width="12" x="-6" y="-6"/>
  <rect class="ff_onp ff_corner ff_extremum" height="12" transform="translate(314.015625,773.5498046875)" width="12" x="-6" y="-6"/>
  <circle class="ff_onp ff_curve" cx="0" cy="0" r="7" transform="translate(79.419921875,694.4765625)"/>
  <rect class="ff_onp ff_corner ff_extremum" height="12" transform="translate(-29.8017578125,773.31640625)" width="12" x="-6" y="-6"/>
  <g>
    <rect class="ff_onp ff_corner ff_first ff_extremum" height="12" transform="translate(853.5546875,838.2353515625)" width="12" x="-6" y="-6"/>
    <g transform="translate(853.5546875,838.2353515625) rotate(-48.228802941745435)">
      <line class="ff_arrow" x1="0" x2="10" y1="-10" y2="-10"/>
      <line class="ff_arrow" x1="10" x2="7" y1="-10" y2="-7"/>
      <line class="ff_arrow" x1="10" x2="7" y1="-10" y2="-13"/>
    </g>
  </g>
  <rect class="ff_onp ff_corner ff_extremum" height="12" transform="translate(1116.384765625,838.1669921875)" width="12" x="-6" y="-6"/>
  <rect class="ff_onp ff_corner ff_extremum" height="12" transform="translate(1137.615234375,757.8330078125)" width="12" x="-6" y="-6"/>
  <rect class="ff_onp ff_corner ff_extremum" height="12" transform="translate(832.4453125,757.7646484375)" width="12" x="-6" y="-6"/>
  <path class="ff_main_background" d="M843.0 800.0C935.0 697.0 1037.0 698.0 1127.0 800.0M421.0 799.0C513.0 696.0 615.0 697.0 705.0 799.0M0.0 800.0C92.0 697.0 194.0 698.0 284.0 800.0"/>
  <path class="ff_main_closed" d="M464.5419921875 790.921875C494.4580078125 757.4287109375 519.23046875 745.1591796875 519.23046875 745.1591796875L519.3916015625 745.173828125C526.3642578125 743.7529296875 557.30859375 744.189453125 587.3798828125 759.474609375C611.171875 771.568359375 635.4228515625 790.9873046875 658.9443359375 817.6455078125L751.0556640625 780.3544921875C723.7939453125 749.4580078125 695.3525390625 727.37109375 665.0556640625 714.18359375C629.3408203125 698.6376953125 586.2744140625 688.83203125 508.9697265625 716.96875C443.046875 740.962890625 409.2548828125 771.4794921875 377.4580078125 807.078125 zM29.8017578125 826.68359375C56.8486328125 796.40234375 83.2041015625 778.2333984375 106.78125 769.65234375C152.1669921875 753.1328125 199.951171875 765.212890625 253.984375 826.4501953125L314.015625 773.5498046875C247.1640625 697.78515625 163.2392578125 663.96875 79.419921875 694.4765625C39.8115234375 708.892578125 3.580078125 735.943359375 -29.8017578125 773.31640625 zM853.5546875 838.2353515625C940.576171875 740.80859375 1031.3515625 741.7958984375 1116.384765625 838.1669921875L1137.615234375 757.8330078125C1042.6484375 650.2041015625 929.423828125 649.19140625 832.4453125 757.7646484375 z"/>
</svg>
