<?xml version="1.0" encoding="utf-8" ?>
<?xml-stylesheet href="../ff_svg_fig.css" type="text/css" title="FontForge SVG stylesheet" alternate="no" media="screen"?>
<svg baseProfile="full" height="100%" version="1.1" viewBox="-542,-143,855,697" width="100%" xmlns="http://www.w3.org/2000/svg" xmlns:ev="http://www.w3.org/2001/xml-events" xmlns:xlink="http://www.w3.org/1999/xlink">
  <defs/>
  <g class="ff_offp">
    <line class="ff_offp_post" x1="-490.400390625" x2="-490.400390625" y1="0.7998046875" y2="-33.599609375"/>
    <g class="ff_offp_post" transform="translate(-490.400390625,-33.599609375)">
      <line class="ff_off_curve_x" x1="-8" x2="8" y1="-8" y2="8"/>
      <line class="ff_off_curve_x" x1="-8" x2="8" y1="8" y2="-8"/>
    </g>
  </g>
  <g class="ff_offp">
    <line class="ff_offp_pre" x1="-429.599609375" x2="-463.2001953125" y1="-61.599609375" y2="-61.599609375"/>
    <g class="ff_offp_pre" transform="translate(-463.2001953125,-61.599609375)">
      <line class="ff_off_curve_x" x1="-8" x2="8" y1="-8" y2="8"/>
      <line class="ff_off_curve_x" x1="-8" x2="8" y1="8" y2="-8"/>
    </g>
  </g>
  <g class="ff_offp">
    <line class="ff_offp_post" x1="-429.599609375" x2="-396.0" y1="-61.599609375" y2="-61.599609375"/>
    <g class="ff_offp_post" transform="translate(-396.0,-61.599609375)">
      <line class="ff_off_curve_x" x1="-8" x2="8" y1="-8" y2="8"/>
      <line class="ff_off_curve_x" x1="-8" x2="8" y1="8" y2="-8"/>
    </g>
  </g>
  <g class="ff_offp">
    <line class="ff_offp_pre" x1="-368.7998046875" x2="-368.7998046875" y1="0.7998046875" y2="-32.7998046875"/>
    <g class="ff_offp_pre" transform="translate(-368.7998046875,-32.7998046875)">
      <line class="ff_off_curve_x" x1="-8" x2="8" y1="-8" y2="8"/>
      <line class="ff_off_curve_x" x1="-8" x2="8" y1="8" y2="-8"/>
    </g>
  </g>
  <g class="ff_offp">
    <line class="ff_offp_post" x1="-368.7998046875" x2="-368.7998046875" y1="0.7998046875" y2="34.400390625"/>
    <g class="ff_offp_post" transform="translate(-368.7998046875,34.400390625)">
      <line class="ff_off_curve_x" x1="-8" x2="8" y1="-8" y2="8"/>
      <line class="ff_off_curve_x" x1="-8" x2="8" y1="8" y2="-8"/>
    </g>
  </g>
  <g class="ff_offp">
    <line class="ff_offp_pre" x1="-429.599609375" x2="-396.0" y1="63.2001953125" y2="63.2001953125"/>
    <g class="ff_offp_pre" transform="translate(-396.0,63.2001953125)">
      <line class="ff_off_curve_x" x1="-8" x2="8" y1="-8" y2="8"/>
      <line class="ff_off_curve_x" x1="-8" x2="8" y1="8" y2="-8"/>
    </g>
  </g>
  <g class="ff_offp">
    <line class="ff_offp_post" x1="-429.599609375" x2="-463.2001953125" y1="63.2001953125" y2="63.2001953125"/>
    <g class="ff_offp_post" transform="translate(-463.2001953125,63.2001953125)">
      <line class="ff_off_curve_x" x1="-8" x2="8" y1="-8" y2="8"/>
      <line class="ff_off_curve_x" x1="-8" x2="8" y1="8" y2="-8"/>
    </g>
  </g>
  <g class="ff_offp">
    <line class="ff_offp_pre" x1="-490.400390625" x2="-490.400390625" y1="0.7998046875" y2="35.2001953125"/>
    <g class="ff_offp_pre" transform="translate(-490.400390625,35.2001953125)">
      <line class="ff_off_curve_x" x1="-8" x2="8" y1="-8" y2="8"/>
      <line class="ff_off_curve_x" x1="-8" x2="8" y1="8" y2="-8"/>
    </g>
  </g>
  <g class="ff_offp">
    <line class="ff_offp_post" x1="46.216796875" x2="46.216796875" y1="53.392578125" y2="42.9892578125"/>
    <g class="ff_offp_post" transform="translate(46.216796875,42.9892578125)">
      <line class="ff_off_curve_x" x1="-8" x2="8" y1="-8" y2="8"/>
      <line class="ff_off_curve_x" x1="-8" x2="8" y1="8" y2="-8"/>
    </g>
  </g>
  <g class="ff_offp">
    <line class="ff_offp_pre" x1="53.103515625" x2="48.7041015625" y1="24.537109375" y2="33.171875"/>
    <g class="ff_offp_pre" transform="translate(48.7041015625,33.171875)">
      <line class="ff_off_curve_x" x1="-8" x2="8" y1="-8" y2="8"/>
      <line class="ff_off_curve_x" x1="-8" x2="8" y1="8" y2="-8"/>
    </g>
  </g>
  <g class="ff_offp">
    <line class="ff_offp_post" x1="111.21484375" x2="121.36328125" y1="-89.51171875" y2="-109.4306640625"/>
    <g class="ff_offp_post" transform="translate(121.36328125,-109.4306640625)">
      <line class="ff_off_curve_x" x1="-8" x2="8" y1="-8" y2="8"/>
      <line class="ff_off_curve_x" x1="-8" x2="8" y1="8" y2="-8"/>
    </g>
  </g>
  <g class="ff_offp">
    <line class="ff_offp_pre" x1="165.126953125" x2="141.6884765625" y1="-123.056640625" y2="-123.056640625"/>
    <g class="ff_offp_pre" transform="translate(141.6884765625,-123.056640625)">
      <line class="ff_off_curve_x" x1="-8" x2="8" y1="-8" y2="8"/>
      <line class="ff_off_curve_x" x1="-8" x2="8" y1="8" y2="-8"/>
    </g>
  </g>
  <g class="ff_offp">
    <line class="ff_offp_post" x1="165.126953125" x2="174.8203125" y1="-123.056640625" y2="-123.056640625"/>
    <g class="ff_offp_post" transform="translate(174.8203125,-123.056640625)">
      <line class="ff_off_curve_x" x1="-8" x2="8" y1="-8" y2="8"/>
      <line class="ff_off_curve_x" x1="-8" x2="8" y1="8" y2="-8"/>
    </g>
  </g>
  <g class="ff_offp">
    <line class="ff_offp_pre" x1="192.1083984375" x2="183.98046875" y1="-116.5849609375" y2="-120.7265625"/>
    <g class="ff_offp_pre" transform="translate(183.98046875,-120.7265625)">
      <line class="ff_off_curve_x" x1="-8" x2="8" y1="-8" y2="8"/>
      <line class="ff_off_curve_x" x1="-8" x2="8" y1="8" y2="-8"/>
    </g>
  </g>
  <g class="ff_offp">
    <line class="ff_offp_post" x1="206.3642578125" x2="226.4130859375" y1="-109.3212890625" y2="-99.10546875"/>
    <g class="ff_offp_post" transform="translate(226.4130859375,-99.10546875)">
      <line class="ff_off_curve_x" x1="-8" x2="8" y1="-8" y2="8"/>
      <line class="ff_off_curve_x" x1="-8" x2="8" y1="8" y2="-8"/>
    </g>
  </g>
  <g class="ff_offp">
    <line class="ff_offp_pre" x1="240.18359375" x2="240.18359375" y1="-53.392578125" y2="-77.869140625"/>
    <g class="ff_offp_pre" transform="translate(240.18359375,-77.869140625)">
      <line class="ff_off_curve_x" x1="-8" x2="8" y1="-8" y2="8"/>
      <line class="ff_off_curve_x" x1="-8" x2="8" y1="8" y2="-8"/>
    </g>
  </g>
  <g class="ff_offp">
    <line class="ff_offp_post" x1="240.18359375" x2="240.18359375" y1="-53.392578125" y2="-42.9892578125"/>
    <g class="ff_offp_post" transform="translate(240.18359375,-42.9892578125)">
      <line class="ff_off_curve_x" x1="-8" x2="8" y1="-8" y2="8"/>
      <line class="ff_off_curve_x" x1="-8" x2="8" y1="8" y2="-8"/>
    </g>
  </g>
  <g class="ff_offp">
    <line class="ff_offp_pre" x1="233.296875" x2="237.6962890625" y1="-24.537109375" y2="-33.171875"/>
    <g class="ff_offp_pre" transform="translate(237.6962890625,-33.171875)">
      <line class="ff_off_curve_x" x1="-8" x2="8" y1="-8" y2="8"/>
      <line class="ff_off_curve_x" x1="-8" x2="8" y1="8" y2="-8"/>
    </g>
  </g>
  <g class="ff_offp">
    <line class="ff_offp_post" x1="175.185546875" x2="165.0361328125" y1="89.51171875" y2="109.4306640625"/>
    <g class="ff_offp_post" transform="translate(165.0361328125,109.4306640625)">
      <line class="ff_off_curve_x" x1="-8" x2="8" y1="-8" y2="8"/>
      <line class="ff_off_curve_x" x1="-8" x2="8" y1="8" y2="-8"/>
    </g>
  </g>
  <g class="ff_offp">
    <line class="ff_offp_pre" x1="121.2724609375" x2="144.7119140625" y1="123.056640625" y2="123.056640625"/>
    <g class="ff_offp_pre" transform="translate(144.7119140625,123.056640625)">
      <line class="ff_off_curve_x" x1="-8" x2="8" y1="-8" y2="8"/>
      <line class="ff_off_curve_x" x1="-8" x2="8" y1="8" y2="-8"/>
    </g>
  </g>
  <g class="ff_offp">
    <line class="ff_offp_post" x1="121.2724609375" x2="111.580078125" y1="123.056640625" y2="123.056640625"/>
    <g class="ff_offp_post" transform="translate(111.580078125,123.056640625)">
      <line class="ff_off_curve_x" x1="-8" x2="8" y1="-8" y2="8"/>
      <line class="ff_off_curve_x" x1="-8" x2="8" y1="8" y2="-8"/>
    </g>
  </g>
  <g class="ff_offp">
    <line class="ff_offp_pre" x1="94.2919921875" x2="102.419921875" y1="116.5849609375" y2="120.7265625"/>
    <g class="ff_offp_pre" transform="translate(102.419921875,120.7265625)">
      <line class="ff_off_curve_x" x1="-8" x2="8" y1="-8" y2="8"/>
      <line class="ff_off_curve_x" x1="-8" x2="8" y1="8" y2="-8"/>
    </g>
  </g>
  <g class="ff_offp">
    <line class="ff_offp_post" x1="80.03515625" x2="59.9873046875" y1="109.3212890625" y2="99.10546875"/>
    <g class="ff_offp_post" transform="translate(59.9873046875,99.10546875)">
      <line class="ff_off_curve_x" x1="-8" x2="8" y1="-8" y2="8"/>
      <line class="ff_off_curve_x" x1="-8" x2="8" y1="8" y2="-8"/>
    </g>
  </g>
  <g class="ff_offp">
    <line class="ff_offp_pre" x1="46.216796875" x2="46.216796875" y1="53.392578125" y2="77.869140625"/>
    <g class="ff_offp_pre" transform="translate(46.216796875,77.869140625)">
      <line class="ff_off_curve_x" x1="-8" x2="8" y1="-8" y2="8"/>
      <line class="ff_off_curve_x" x1="-8" x2="8" y1="8" y2="-8"/>
    </g>
  </g>
  <g>
    <circle class="ff_onp ff_curve ff_first ff_extremum" cx="0" cy="0" r="7" transform="translate(-490.400390625,0.7998046875)"/>
    <g transform="translate(-490.400390625,0.7998046875) rotate(-90.0)">
      <line class="ff_arrow" x1="0" x2="10" y1="-10" y2="-10"/>
      <line class="ff_arrow" x1="10" x2="7" y1="-10" y2="-7"/>
      <line class="ff_arrow" x1="10" x2="7" y1="-10" y2="-13"/>
    </g>
  </g>
  <circle class="ff_onp ff_curve ff_extremum" cx="0" cy="0" r="7" transform="translate(-429.599609375,-61.599609375)"/>
  <circle class="ff_onp ff_curve ff_extremum" cx="0" cy="0" r="7" transform="translate(-368.7998046875,0.7998046875)"/>
  <circle class="ff_onp ff_curve ff_extremum" cx="0" cy="0" r="7" transform="translate(-429.599609375,63.2001953125)"/>
  <g>
    <circle class="ff_onp ff_curve ff_first ff_extremum" cx="0" cy="0" r="7" transform="translate(-490.400390625,0.7998046875)"/>
    <g transform="translate(-490.400390625,0.7998046875) rotate(-90.0)">
      <line class="ff_arrow" x1="0" x2="10" y1="-10" y2="-10"/>
      <line class="ff_arrow" x1="10" x2="7" y1="-10" y2="-7"/>
      <line class="ff_arrow" x1="10" x2="7" y1="-10" y2="-13"/>
    </g>
  </g>
  <g>
    <rect class="ff_onp ff_corner ff_first ff_extremum" height="12" transform="translate(-429.599609375,444.0)" width="12" x="-6" y="-6"/>
    <g transform="translate(-429.599609375,444.0) rotate(-114.89148428683536)">
      <line class="ff_arrow" x1="0" x2="10" y1="-10" y2="-10"/>
      <line class="ff_arrow" x1="10" x2="7" y1="-10" y2="-7"/>
      <line class="ff_arrow" x1="10" x2="7" y1="-10" y2="-13"/>
    </g>
  </g>
  <rect class="ff_onp ff_corner ff_extremum" height="12" transform="translate(-522.400390625,244.0)" width="12" x="-6" y="-6"/>
  <rect class="ff_onp ff_corner ff_extremum" height="12" transform="translate(-316.0,242.400390625)" width="12" x="-6" y="-6"/>
  <rect class="ff_onp ff_corner" height="12" transform="translate(-399.2001953125,405.599609375)" width="12" x="-6" y="-6"/>
  <g>
    <circle class="ff_onp ff_curve ff_first ff_extremum" cx="0" cy="0" r="7" transform="translate(46.216796875,53.392578125)"/>
    <g transform="translate(46.216796875,53.392578125) rotate(-90.0)">
      <line class="ff_arrow" x1="0" x2="10" y1="-10" y2="-10"/>
      <line class="ff_arrow" x1="10" x2="7" y1="-10" y2="-7"/>
      <line class="ff_arrow" x1="10" x2="7" y1="-10" y2="-13"/>
    </g>
  </g>
  <polygon class="ff_onp ff_tangent" points="0,-9 9,0 0,9" transform="translate(53.103515625,24.537109375) rotate(116.99884751914024)"/>
  <polygon class="ff_onp ff_tangent" points="0,-9 9,0 0,9" transform="translate(111.21484375,-89.51171875) rotate(296.9982368954584)"/>
  <circle class="ff_onp ff_curve ff_extremum" cx="0" cy="0" r="7" transform="translate(165.126953125,-123.056640625)"/>
  <polygon class="ff_onp ff_tangent" points="0,-9 9,0 0,9" transform="translate(192.1083984375,-116.5849609375) rotate(207.0012005991058)"/>
  <polygon class="ff_onp ff_tangent" points="0,-9 9,0 0,9" transform="translate(206.3642578125,-109.3212890625) rotate(27.000980452171262)"/>
  <circle class="ff_onp ff_curve ff_extremum" cx="0" cy="0" r="7" transform="translate(240.18359375,-53.392578125)"/>
  <polygon class="ff_onp ff_tangent" points="0,-9 9,0 0,9" transform="translate(233.296875,-24.537109375) rotate(296.9988475191402)"/>
  <polygon class="ff_onp ff_tangent" points="0,-9 9,0 0,9" transform="translate(175.185546875,89.51171875) rotate(117.00046698915548)"/>
  <circle class="ff_onp ff_curve ff_extremum" cx="0" cy="0" r="7" transform="translate(121.2724609375,123.056640625)"/>
  <polygon class="ff_onp ff_tangent" points="0,-9 9,0 0,9" transform="translate(94.2919921875,116.5849609375) rotate(27.001200599105772)"/>
  <polygon class="ff_onp ff_tangent" points="0,-9 9,0 0,9" transform="translate(80.03515625,109.3212890625) rotate(207.0021094391281)"/>
  <g>
    <circle class="ff_onp ff_curve ff_first ff_extremum" cx="0" cy="0" r="7" transform="translate(46.216796875,53.392578125)"/>
    <g transform="translate(46.216796875,53.392578125) rotate(-90.0)">
      <line class="ff_arrow" x1="0" x2="10" y1="-10" y2="-10"/>
      <line class="ff_arrow" x1="10" x2="7" y1="-10" y2="-7"/>
      <line class="ff_arrow" x1="10" x2="7" y1="-10" y2="-13"/>
    </g>
  </g>
  <g>
    <rect class="ff_onp ff_corner ff_first ff_extremum" height="12" transform="translate(216.8095703125,302.396484375)" width="12" x="-6" y="-6"/>
    <g transform="translate(216.8095703125,302.396484375) rotate(117.00652221424923)">
      <line class="ff_arrow" x1="0" x2="10" y1="-10" y2="-10"/>
      <line class="ff_arrow" x1="10" x2="7" y1="-10" y2="-7"/>
      <line class="ff_arrow" x1="10" x2="7" y1="-10" y2="-13"/>
    </g>
  </g>
  <rect class="ff_onp ff_corner ff_extremum" height="12" transform="translate(175.98828125,382.490234375)" width="12" x="-6" y="-6"/>
  <rect class="ff_onp ff_corner ff_extremum" height="12" transform="translate(139.1044921875,302.9990234375)" width="12" x="-6" y="-6"/>
  <g>
    <rect class="ff_onp ff_corner ff_first ff_extremum" height="12" transform="translate(143.0712890625,461.07421875)" width="12" x="-6" y="-6"/>
    <g transform="translate(143.0712890625,461.07421875) rotate(27.000515600567095)">
      <line class="ff_arrow" x1="0" x2="10" y1="-10" y2="-10"/>
      <line class="ff_arrow" x1="10" x2="7" y1="-10" y2="-7"/>
      <line class="ff_arrow" x1="10" x2="7" y1="-10" y2="-13"/>
    </g>
  </g>
  <rect class="ff_onp ff_corner ff_extremum" height="12" transform="translate(151.6728515625,465.45703125)" width="12" x="-6" y="-6"/>
  <rect class="ff_onp ff_corner ff_extremum" height="12" transform="translate(292.9833984375,188.20703125)" width="12" x="-6" y="-6"/>
  <rect class="ff_onp ff_corner ff_extremum" height="12" transform="translate(278.7275390625,180.943359375)" width="12" x="-6" y="-6"/>
  <rect class="ff_onp ff_corner" height="12" transform="translate(72.3271484375,182.54296875)" width="12" x="-6" y="-6"/>
  <rect class="ff_onp ff_corner ff_extremum" height="12" transform="translate(14.216796875,296.5927734375)" width="12" x="-6" y="-6"/>
  <rect class="ff_onp ff_corner" height="12" transform="translate(107.0166015625,496.5927734375)" width="12" x="-6" y="-6"/>
  <rect class="ff_onp ff_corner ff_extremum" height="12" transform="translate(121.2724609375,503.8564453125)" width="12" x="-6" y="-6"/>
  <path class="ff_main_background" d="M-127.4892578125 383.55078125L-185.599609375 497.599609375L-199.8564453125 490.3359375L-141.7451171875 376.287109375 z"/>
  <path class="ff_main_closed" d="M-490.400390625 0.7998046875C-490.400390625 -33.599609375 -463.2001953125 -61.599609375 -429.599609375 -61.599609375C-396.0 -61.599609375 -368.7998046875 -32.7998046875 -368.7998046875 0.7998046875C-368.7998046875 34.400390625 -396.0 63.2001953125 -429.599609375 63.2001953125C-463.2001953125 63.2001953125 -490.400390625 35.2001953125 -490.400390625 0.7998046875 zM46.216796875 53.392578125C46.216796875 42.9892578125 48.7041015625 33.171875 53.103515625 24.537109375L111.21484375 -89.51171875C121.36328125 -109.4306640625 141.6884765625 -123.056640625 165.126953125 -123.056640625C174.8203125 -123.056640625 183.98046875 -120.7265625 192.1083984375 -116.5849609375L206.3642578125 -109.3212890625C226.4130859375 -99.10546875 240.18359375 -77.869140625 240.18359375 -53.392578125C240.18359375 -42.9892578125 237.6962890625 -33.171875 233.296875 -24.537109375L175.185546875 89.51171875C165.0361328125 109.4306640625 144.7119140625 123.056640625 121.2724609375 123.056640625C111.580078125 123.056640625 102.419921875 120.7265625 94.2919921875 116.5849609375L80.03515625 109.3212890625C59.9873046875 99.10546875 46.216796875 77.869140625 46.216796875 53.392578125 zM216.8095703125 302.396484375L175.98828125 382.490234375L139.1044921875 302.9990234375 zM143.0712890625 461.07421875L151.6728515625 465.45703125L292.9833984375 188.20703125L278.7275390625 180.943359375L72.3271484375 182.54296875L14.216796875 296.5927734375L107.0166015625 496.5927734375L121.2724609375 503.8564453125 z"/>
  <path class="ff_main_open" d="M-429.599609375 444.0L-522.400390625 244.0L-316.0 242.400390625L-399.2001953125 405.599609375"/>
<text class="ff_label" y="550" x="-410">Source Contours</text>
<text class="ff_label" y="550" x="-153">Nib</text>
<text class="ff_label" y="550" x="150">Output Contours</text>
</svg>
