<?xml version="1.0" encoding="utf-8" ?>
<?xml-stylesheet href="../ff_svg_fig.css" type="text/css" title="FontForge SVG stylesheet" alternate="no" media="screen"?>
<svg baseProfile="full" height="100%" version="1.1" viewBox="-110,829,1241,614" width="100%" xmlns="http://www.w3.org/2000/svg" xmlns:ev="http://www.w3.org/2001/xml-events" xmlns:xlink="http://www.w3.org/1999/xlink">
  <defs/>
  <g class="ff_offp">
    <line class="ff_offp_post" x1="926.9609375" x2="930.203125" y1="1348.314453125" y2="1351.763671875"/>
    <g class="ff_offp_post" transform="translate(930.203125,1351.763671875)">
      <line class="ff_off_curve_x" x1="-8" x2="8" y1="-8" y2="8"/>
      <line class="ff_off_curve_x" x1="-8" x2="8" y1="8" y2="-8"/>
    </g>
  </g>
  <g class="ff_offp">
    <line class="ff_offp_pre" x1="936.654296875" x2="933.4345703125" y1="1358.9619140625" y2="1355.3134765625"/>
    <g class="ff_offp_pre" transform="translate(933.4345703125,1355.3134765625)">
      <line class="ff_off_curve_x" x1="-8" x2="8" y1="-8" y2="8"/>
      <line class="ff_off_curve_x" x1="-8" x2="8" y1="8" y2="-8"/>
    </g>
  </g>
  <g class="ff_offp">
    <line class="ff_offp_post" x1="1065.345703125" x2="1059.1064453125" y1="1267.0380859375" y2="1259.96484375"/>
    <g class="ff_offp_post" transform="translate(1059.1064453125,1259.96484375)">
      <line class="ff_off_curve_x" x1="-8" x2="8" y1="-8" y2="8"/>
      <line class="ff_off_curve_x" x1="-8" x2="8" y1="8" y2="-8"/>
    </g>
  </g>
  <g class="ff_offp">
    <line class="ff_offp_pre" x1="1046.49609375" x2="1052.8212890625" y1="1246.9423828125" y2="1253.267578125"/>
    <g class="ff_offp_pre" transform="translate(1052.8212890625,1253.267578125)">
      <line class="ff_off_curve_x" x1="-8" x2="8" y1="-8" y2="8"/>
      <line class="ff_off_curve_x" x1="-8" x2="8" y1="8" y2="-8"/>
    </g>
  </g>
  <g class="ff_offp">
    <line class="ff_offp_post" x1="1028.1123046875" x2="921.6064453125" y1="1228.556640625" y2="1122.05078125"/>
    <g class="ff_offp_post" transform="translate(921.6064453125,1122.05078125)">
      <line class="ff_off_curve_x" x1="-8" x2="8" y1="-8" y2="8"/>
      <line class="ff_off_curve_x" x1="-8" x2="8" y1="8" y2="-8"/>
    </g>
  </g>
  <g class="ff_offp">
    <line class="ff_offp_pre" x1="695.25390625" x2="803.7451171875" y1="1230.1240234375" y2="1121.630859375"/>
    <g class="ff_offp_pre" transform="translate(803.7451171875,1121.630859375)">
      <line class="ff_off_curve_x" x1="-8" x2="8" y1="-8" y2="8"/>
      <line class="ff_off_curve_x" x1="-8" x2="8" y1="8" y2="-8"/>
    </g>
  </g>
  <g class="ff_offp">
    <line class="ff_offp_post" x1="584.9453125" x2="579.0869140625" y1="1340.431640625" y2="1346.291015625"/>
    <g class="ff_offp_post" transform="translate(579.0869140625,1346.291015625)">
      <line class="ff_off_curve_x" x1="-8" x2="8" y1="-8" y2="8"/>
      <line class="ff_off_curve_x" x1="-8" x2="8" y1="8" y2="-8"/>
    </g>
  </g>
  <g class="ff_offp">
    <line class="ff_offp_pre" x1="567.4541015625" x2="573.25390625" y1="1358.9619140625" y2="1352.466796875"/>
    <g class="ff_offp_pre" transform="translate(573.25390625,1352.466796875)">
      <line class="ff_off_curve_x" x1="-8" x2="8" y1="-8" y2="8"/>
      <line class="ff_off_curve_x" x1="-8" x2="8" y1="8" y2="-8"/>
    </g>
  </g>
  <g class="ff_offp">
    <line class="ff_offp_post" x1="648.7568359375" x2="740.9697265625" y1="1320.09375" y2="1254.72265625"/>
    <g class="ff_offp_post" transform="translate(740.9697265625,1254.72265625)">
      <line class="ff_off_curve_x" x1="-8" x2="8" y1="-8" y2="8"/>
      <line class="ff_off_curve_x" x1="-8" x2="8" y1="8" y2="-8"/>
    </g>
  </g>
  <g class="ff_offp">
    <line class="ff_offp_pre" x1="926.9609375" x2="837.69921875" y1="1348.314453125" y2="1264.673828125"/>
    <g class="ff_offp_pre" transform="translate(837.69921875,1264.673828125)">
      <line class="ff_off_curve_x" x1="-8" x2="8" y1="-8" y2="8"/>
      <line class="ff_off_curve_x" x1="-8" x2="8" y1="8" y2="-8"/>
    </g>
  </g>
  <g class="ff_offp">
    <line class="ff_offp_post" x1="38.7607421875" x2="92.3701171875" y1="1074.650390625" y2="1014.630859375"/>
    <g class="ff_offp_post" transform="translate(92.3701171875,1014.630859375)">
      <line class="ff_off_curve_x" x1="-8" x2="8" y1="-8" y2="8"/>
      <line class="ff_off_curve_x" x1="-8" x2="8" y1="8" y2="-8"/>
    </g>
  </g>
  <g class="ff_offp">
    <line class="ff_offp_pre" x1="185.1162109375" x2="142.0634765625" y1="992.0615234375" y2="992.0615234375"/>
    <g class="ff_offp_pre" transform="translate(142.0634765625,992.0615234375)">
      <line class="ff_off_curve_x" x1="-8" x2="8" y1="-8" y2="8"/>
      <line class="ff_off_curve_x" x1="-8" x2="8" y1="8" y2="-8"/>
    </g>
  </g>
  <g class="ff_offp">
    <line class="ff_offp_post" x1="185.1162109375" x2="228.35546875" y1="992.0615234375" y2="992.0615234375"/>
    <g class="ff_offp_post" transform="translate(228.35546875,992.0615234375)">
      <line class="ff_off_curve_x" x1="-8" x2="8" y1="-8" y2="8"/>
      <line class="ff_off_curve_x" x1="-8" x2="8" y1="8" y2="-8"/>
    </g>
  </g>
  <g class="ff_offp">
    <line class="ff_offp_pre" x1="330.19921875" x2="277.638671875" y1="1074.3798828125" y2="1014.810546875"/>
    <g class="ff_offp_pre" transform="translate(277.638671875,1014.810546875)">
      <line class="ff_off_curve_x" x1="-8" x2="8" y1="-8" y2="8"/>
      <line class="ff_off_curve_x" x1="-8" x2="8" y1="8" y2="-8"/>
    </g>
  </g>
  <g class="ff_offp">
    <line class="ff_offp_post" x1="408.2001953125" x2="343.4765625" y1="1005.6201171875" y2="932.265625"/>
    <g class="ff_offp_post" transform="translate(343.4765625,932.265625)">
      <line class="ff_off_curve_x" x1="-8" x2="8" y1="-8" y2="8"/>
      <line class="ff_off_curve_x" x1="-8" x2="8" y1="8" y2="-8"/>
    </g>
  </g>
  <g class="ff_offp">
    <line class="ff_offp_pre" x1="185.1162109375" x2="267.6357421875" y1="888.0615234375" y2="888.0615234375"/>
    <g class="ff_offp_pre" transform="translate(267.6357421875,888.0615234375)">
      <line class="ff_off_curve_x" x1="-8" x2="8" y1="-8" y2="8"/>
      <line class="ff_off_curve_x" x1="-8" x2="8" y1="8" y2="-8"/>
    </g>
  </g>
  <g class="ff_offp">
    <line class="ff_offp_post" x1="185.1162109375" x2="103.021484375" y1="888.0615234375" y2="888.0615234375"/>
    <g class="ff_offp_post" transform="translate(103.021484375,888.0615234375)">
      <line class="ff_off_curve_x" x1="-8" x2="8" y1="-8" y2="8"/>
      <line class="ff_off_curve_x" x1="-8" x2="8" y1="8" y2="-8"/>
    </g>
  </g>
  <g class="ff_offp">
    <line class="ff_offp_pre" x1="-38.7900390625" x2="26.9384765625" y1="1005.3828125" y2="931.7958984375"/>
    <g class="ff_offp_pre" transform="translate(26.9384765625,931.7958984375)">
      <line class="ff_off_curve_x" x1="-8" x2="8" y1="-8" y2="8"/>
      <line class="ff_off_curve_x" x1="-8" x2="8" y1="8" y2="-8"/>
    </g>
  </g>
  <g class="ff_offp">
    <line class="ff_offp_post" x1="926.9609375" x2="930.203125" y1="1075.314453125" y2="1078.763671875"/>
    <g class="ff_offp_post" transform="translate(930.203125,1078.763671875)">
      <line class="ff_off_curve_x" x1="-8" x2="8" y1="-8" y2="8"/>
      <line class="ff_off_curve_x" x1="-8" x2="8" y1="8" y2="-8"/>
    </g>
  </g>
  <g class="ff_offp">
    <line class="ff_offp_pre" x1="936.654296875" x2="933.4345703125" y1="1085.9619140625" y2="1082.3134765625"/>
    <g class="ff_offp_pre" transform="translate(933.4345703125,1082.3134765625)">
      <line class="ff_off_curve_x" x1="-8" x2="8" y1="-8" y2="8"/>
      <line class="ff_off_curve_x" x1="-8" x2="8" y1="8" y2="-8"/>
    </g>
  </g>
  <g class="ff_offp">
    <line class="ff_offp_post" x1="1065.345703125" x2="1059.1064453125" y1="994.0380859375" y2="986.96484375"/>
    <g class="ff_offp_post" transform="translate(1059.1064453125,986.96484375)">
      <line class="ff_off_curve_x" x1="-8" x2="8" y1="-8" y2="8"/>
      <line class="ff_off_curve_x" x1="-8" x2="8" y1="8" y2="-8"/>
    </g>
  </g>
  <g class="ff_offp">
    <line class="ff_offp_pre" x1="1046.49609375" x2="1052.8212890625" y1="973.9423828125" y2="980.267578125"/>
    <g class="ff_offp_pre" transform="translate(1052.8212890625,980.267578125)">
      <line class="ff_off_curve_x" x1="-8" x2="8" y1="-8" y2="8"/>
      <line class="ff_off_curve_x" x1="-8" x2="8" y1="8" y2="-8"/>
    </g>
  </g>
  <g class="ff_offp">
    <line class="ff_offp_post" x1="1028.1123046875" x2="921.6064453125" y1="955.556640625" y2="849.05078125"/>
    <g class="ff_offp_post" transform="translate(921.6064453125,849.05078125)">
      <line class="ff_off_curve_x" x1="-8" x2="8" y1="-8" y2="8"/>
      <line class="ff_off_curve_x" x1="-8" x2="8" y1="8" y2="-8"/>
    </g>
  </g>
  <g class="ff_offp">
    <line class="ff_offp_pre" x1="695.25390625" x2="803.7451171875" y1="957.1240234375" y2="848.630859375"/>
    <g class="ff_offp_pre" transform="translate(803.7451171875,848.630859375)">
      <line class="ff_off_curve_x" x1="-8" x2="8" y1="-8" y2="8"/>
      <line class="ff_off_curve_x" x1="-8" x2="8" y1="8" y2="-8"/>
    </g>
  </g>
  <g class="ff_offp">
    <line class="ff_offp_post" x1="584.9453125" x2="579.0869140625" y1="1067.431640625" y2="1073.291015625"/>
    <g class="ff_offp_post" transform="translate(579.0869140625,1073.291015625)">
      <line class="ff_off_curve_x" x1="-8" x2="8" y1="-8" y2="8"/>
      <line class="ff_off_curve_x" x1="-8" x2="8" y1="8" y2="-8"/>
    </g>
  </g>
  <g class="ff_offp">
    <line class="ff_offp_pre" x1="567.4541015625" x2="573.25390625" y1="1085.9619140625" y2="1079.466796875"/>
    <g class="ff_offp_pre" transform="translate(573.25390625,1079.466796875)">
      <line class="ff_off_curve_x" x1="-8" x2="8" y1="-8" y2="8"/>
      <line class="ff_off_curve_x" x1="-8" x2="8" y1="8" y2="-8"/>
    </g>
  </g>
  <g class="ff_offp">
    <line class="ff_offp_post" x1="648.7568359375" x2="740.9697265625" y1="1047.09375" y2="981.72265625"/>
    <g class="ff_offp_post" transform="translate(740.9697265625,981.72265625)">
      <line class="ff_off_curve_x" x1="-8" x2="8" y1="-8" y2="8"/>
      <line class="ff_off_curve_x" x1="-8" x2="8" y1="8" y2="-8"/>
    </g>
  </g>
  <g class="ff_offp">
    <line class="ff_offp_pre" x1="926.9609375" x2="837.69921875" y1="1075.314453125" y2="991.673828125"/>
    <g class="ff_offp_pre" transform="translate(837.69921875,991.673828125)">
      <line class="ff_off_curve_x" x1="-8" x2="8" y1="-8" y2="8"/>
      <line class="ff_off_curve_x" x1="-8" x2="8" y1="8" y2="-8"/>
    </g>
  </g>
  <g class="ff_offp">
    <line class="ff_offp_post" x1="38.7890625" x2="92.3701171875" y1="1346.3173828125" y2="1286.3310546875"/>
    <g class="ff_offp_post" transform="translate(92.3701171875,1286.3310546875)">
      <line class="ff_off_curve_x" x1="-8" x2="8" y1="-8" y2="8"/>
      <line class="ff_off_curve_x" x1="-8" x2="8" y1="8" y2="-8"/>
    </g>
  </g>
  <g class="ff_offp">
    <line class="ff_offp_pre" x1="185.115234375" x2="142.0634765625" y1="1263.7626953125" y2="1263.7626953125"/>
    <g class="ff_offp_pre" transform="translate(142.0634765625,1263.7626953125)">
      <line class="ff_off_curve_x" x1="-8" x2="8" y1="-8" y2="8"/>
      <line class="ff_off_curve_x" x1="-8" x2="8" y1="8" y2="-8"/>
    </g>
  </g>
  <g class="ff_offp">
    <line class="ff_offp_post" x1="185.115234375" x2="228.35546875" y1="1263.7626953125" y2="1263.7626953125"/>
    <g class="ff_offp_post" transform="translate(228.35546875,1263.7626953125)">
      <line class="ff_off_curve_x" x1="-8" x2="8" y1="-8" y2="8"/>
      <line class="ff_off_curve_x" x1="-8" x2="8" y1="8" y2="-8"/>
    </g>
  </g>
  <g class="ff_offp">
    <line class="ff_offp_pre" x1="330.2001953125" x2="277.638671875" y1="1346.080078125" y2="1286.51171875"/>
    <g class="ff_offp_pre" transform="translate(277.638671875,1286.51171875)">
      <line class="ff_off_curve_x" x1="-8" x2="8" y1="-8" y2="8"/>
      <line class="ff_off_curve_x" x1="-8" x2="8" y1="8" y2="-8"/>
    </g>
  </g>
  <g class="ff_offp">
    <line class="ff_offp_post" x1="408.2001953125" x2="343.4765625" y1="1277.3203125" y2="1203.966796875"/>
    <g class="ff_offp_post" transform="translate(343.4765625,1203.966796875)">
      <line class="ff_off_curve_x" x1="-8" x2="8" y1="-8" y2="8"/>
      <line class="ff_off_curve_x" x1="-8" x2="8" y1="8" y2="-8"/>
    </g>
  </g>
  <g class="ff_offp">
    <line class="ff_offp_pre" x1="185.115234375" x2="267.63671875" y1="1159.7626953125" y2="1159.7626953125"/>
    <g class="ff_offp_pre" transform="translate(267.63671875,1159.7626953125)">
      <line class="ff_off_curve_x" x1="-8" x2="8" y1="-8" y2="8"/>
      <line class="ff_off_curve_x" x1="-8" x2="8" y1="8" y2="-8"/>
    </g>
  </g>
  <g class="ff_offp">
    <line class="ff_offp_post" x1="185.115234375" x2="103.021484375" y1="1159.7626953125" y2="1159.7626953125"/>
    <g class="ff_offp_post" transform="translate(103.021484375,1159.7626953125)">
      <line class="ff_off_curve_x" x1="-8" x2="8" y1="-8" y2="8"/>
      <line class="ff_off_curve_x" x1="-8" x2="8" y1="8" y2="-8"/>
    </g>
  </g>
  <g class="ff_offp">
    <line class="ff_offp_pre" x1="-38.7890625" x2="26.9384765625" y1="1277.08203125" y2="1203.4951171875"/>
    <g class="ff_offp_pre" transform="translate(26.9384765625,1203.4951171875)">
      <line class="ff_off_curve_x" x1="-8" x2="8" y1="-8" y2="8"/>
      <line class="ff_off_curve_x" x1="-8" x2="8" y1="8" y2="-8"/>
    </g>
  </g>
  <g>
    <circle class="ff_onp ff_curve ff_first" cx="0" cy="0" r="7" transform="translate(926.9609375,1348.314453125)"/>
    <g transform="translate(926.9609375,1348.314453125) rotate(46.77215872247167)">
      <line class="ff_arrow" x1="0" x2="10" y1="-10" y2="-10"/>
      <line class="ff_arrow" x1="10" x2="7" y1="-10" y2="-7"/>
      <line class="ff_arrow" x1="10" x2="7" y1="-10" y2="-13"/>
    </g>
  </g>
  <polygon class="ff_onp ff_tangent" points="0,-9 9,0 0,9" transform="translate(936.654296875,1358.9619140625) rotate(228.57176966127983)"/>
  <rect class="ff_onp ff_corner ff_extremum" height="12" transform="translate(992.7646484375,1422.5556640625)" width="12" x="-6" y="-6"/>
  <rect class="ff_onp ff_corner ff_extremum" height="12" transform="translate(1110.728515625,1318.470703125)" width="12" x="-6" y="-6"/>
  <polygon class="ff_onp ff_tangent" points="0,-9 9,0 0,9" transform="translate(1065.345703125,1267.0380859375) rotate(228.58470766094752)"/>
  <polygon class="ff_onp ff_tangent" points="0,-9 9,0 0,9" transform="translate(1046.49609375,1246.9423828125) rotate(45.0)"/>
  <polygon class="ff_onp ff_tangent" points="0,-9 9,0 0,9" transform="translate(1028.1123046875,1228.556640625) rotate(225.0)"/>
  <polygon class="ff_onp ff_tangent" points="0,-9 9,0 0,9" transform="translate(695.25390625,1230.1240234375) rotate(314.9994842678448)"/>
  <polygon class="ff_onp ff_tangent" points="0,-9 9,0 0,9" transform="translate(584.9453125,1340.431640625) rotate(134.9952249537978)"/>
  <rect class="ff_onp ff_corner ff_extremum" height="12" transform="translate(567.4541015625,1358.9619140625)" width="12" x="-6" y="-6"/>
  <rect class="ff_onp ff_corner ff_extremum" height="12" transform="translate(593.3662109375,1382.107421875)" width="12" x="-6" y="-6"/>
  <rect class="ff_onp ff_corner" height="12" transform="translate(648.7568359375,1320.09375)" width="12" x="-6" y="-6"/>
  <g>
    <circle class="ff_onp ff_curve ff_first" cx="0" cy="0" r="7" transform="translate(926.9609375,1348.314453125)"/>
    <g transform="translate(926.9609375,1348.314453125) rotate(46.77215872247167)">
      <line class="ff_arrow" x1="0" x2="10" y1="-10" y2="-10"/>
      <line class="ff_arrow" x1="10" x2="7" y1="-10" y2="-7"/>
      <line class="ff_arrow" x1="10" x2="7" y1="-10" y2="-13"/>
    </g>
  </g>
  <g>
    <rect class="ff_onp ff_corner ff_first ff_extremum" height="12" transform="translate(38.7607421875,1074.650390625)" width="12" x="-6" y="-6"/>
    <g transform="translate(38.7607421875,1074.650390625) rotate(-48.22880897105302)">
      <line class="ff_arrow" x1="0" x2="10" y1="-10" y2="-10"/>
      <line class="ff_arrow" x1="10" x2="7" y1="-10" y2="-7"/>
      <line class="ff_arrow" x1="10" x2="7" y1="-10" y2="-13"/>
    </g>
  </g>
  <circle class="ff_onp ff_curve ff_extremum" cx="0" cy="0" r="7" transform="translate(185.1162109375,992.0615234375)"/>
  <polygon class="ff_onp ff_tangent ff_extremum" points="0,-9 9,0 0,9" transform="translate(330.19921875,1074.3798828125) rotate(228.5766761030959)"/>
  <rect class="ff_onp ff_corner ff_extremum" height="12" transform="translate(408.2001953125,1005.6201171875)" width="12" x="-6" y="-6"/>
  <circle class="ff_onp ff_curve ff_extremum" cx="0" cy="0" r="7" transform="translate(185.1162109375,888.0615234375)"/>
  <rect class="ff_onp ff_corner ff_extremum" height="12" transform="translate(-38.7900390625,1005.3828125)" width="12" x="-6" y="-6"/>
  <g>
    <circle class="ff_onp ff_curve ff_first" cx="0" cy="0" r="7" transform="translate(926.9609375,1075.314453125)"/>
    <g transform="translate(926.9609375,1075.314453125) rotate(46.77215872247167)">
      <line class="ff_arrow" x1="0" x2="10" y1="-10" y2="-10"/>
      <line class="ff_arrow" x1="10" x2="7" y1="-10" y2="-7"/>
      <line class="ff_arrow" x1="10" x2="7" y1="-10" y2="-13"/>
    </g>
  </g>
  <polygon class="ff_onp ff_tangent" points="0,-9 9,0 0,9" transform="translate(936.654296875,1085.9619140625) rotate(228.57176966127983)"/>
  <rect class="ff_onp ff_corner ff_extremum" height="12" transform="translate(947.3837890625,1098.123046875)" width="12" x="-6" y="-6"/>
  <rect class="ff_onp ff_corner ff_extremum" height="12" transform="translate(1065.345703125,994.0380859375)" width="12" x="-6" y="-6"/>
  <polygon class="ff_onp ff_tangent" points="0,-9 9,0 0,9" transform="translate(1046.49609375,973.9423828125) rotate(45.0)"/>
  <polygon class="ff_onp ff_tangent" points="0,-9 9,0 0,9" transform="translate(1028.1123046875,955.556640625) rotate(225.0)"/>
  <polygon class="ff_onp ff_tangent" points="0,-9 9,0 0,9" transform="translate(695.25390625,957.1240234375) rotate(314.9994842678448)"/>
  <polygon class="ff_onp ff_tangent" points="0,-9 9,0 0,9" transform="translate(584.9453125,1067.431640625) rotate(134.9952249537978)"/>
  <rect class="ff_onp ff_corner ff_extremum" height="12" transform="translate(567.4541015625,1085.9619140625)" width="12" x="-6" y="-6"/>
  <rect class="ff_onp ff_corner ff_extremum" height="12" transform="translate(593.3662109375,1109.107421875)" width="12" x="-6" y="-6"/>
  <rect class="ff_onp ff_corner" height="12" transform="translate(648.7568359375,1047.09375)" width="12" x="-6" y="-6"/>
  <g>
    <circle class="ff_onp ff_curve ff_first" cx="0" cy="0" r="7" transform="translate(926.9609375,1075.314453125)"/>
    <g transform="translate(926.9609375,1075.314453125) rotate(46.77215872247167)">
      <line class="ff_arrow" x1="0" x2="10" y1="-10" y2="-10"/>
      <line class="ff_arrow" x1="10" x2="7" y1="-10" y2="-7"/>
      <line class="ff_arrow" x1="10" x2="7" y1="-10" y2="-13"/>
    </g>
  </g>
  <g>
    <polygon class="ff_onp ff_tangent ff_first" points="0,-9 9,0 0,9" transform="translate(38.7890625,1346.3173828125) rotate(311.7719011797293)"/>
    <g transform="translate(38.7890625,1346.3173828125) rotate(-48.22809882027066)">
      <line class="ff_arrow" x1="0" x2="10" y1="-10" y2="-10"/>
      <line class="ff_arrow" x1="10" x2="7" y1="-10" y2="-7"/>
      <line class="ff_arrow" x1="10" x2="7" y1="-10" y2="-13"/>
    </g>
  </g>
  <circle class="ff_onp ff_curve ff_extremum" cx="0" cy="0" r="7" transform="translate(185.115234375,1263.7626953125)"/>
  <polygon class="ff_onp ff_tangent" points="0,-9 9,0 0,9" transform="translate(330.2001953125,1346.080078125) rotate(228.57568198428356)"/>
  <rect class="ff_onp ff_corner ff_extremum" height="12" transform="translate(380.9619140625,1403.6103515625)" width="12" x="-6" y="-6"/>
  <rect class="ff_onp ff_corner ff_extremum" height="12" transform="translate(458.9306640625,1334.814453125)" width="12" x="-6" y="-6"/>
  <polygon class="ff_onp ff_tangent" points="0,-9 9,0 0,9" transform="translate(408.2001953125,1277.3203125) rotate(228.5763596032815)"/>
  <circle class="ff_onp ff_curve ff_extremum" cx="0" cy="0" r="7" transform="translate(185.115234375,1159.7626953125)"/>
  <polygon class="ff_onp ff_tangent" points="0,-9 9,0 0,9" transform="translate(-38.7890625,1277.08203125) rotate(311.77110165106967)"/>
  <rect class="ff_onp ff_corner ff_extremum" height="12" transform="translate(-89.869140625,1334.26953125)" width="12" x="-6" y="-6"/>
  <rect class="ff_onp ff_corner ff_extremum" height="12" transform="translate(-12.3193359375,1403.5380859375)" width="12" x="-6" y="-6"/>
  <path class="ff_main_background" d="M631.7998046875 1040.0C751.400390625 906.099609375 884.0 907.400390625 1001.0 1040.0M0.0 1040.0C119.599609375 906.099609375 252.2001953125 907.400390625 369.2001953125 1040.0M0.0 1311.7001953125C119.599609375 1177.7998046875 252.2001953125 1179.099609375 369.2001953125 1311.7001953125M631.7998046875 1313.0C751.400390625 1179.099609375 884.0 1180.400390625 1001.0 1313.0"/>
  <path class="ff_main_closed" d="M926.9609375 1348.314453125C930.203125 1351.763671875 933.4345703125 1355.3134765625 936.654296875 1358.9619140625L992.7646484375 1422.5556640625L1110.728515625 1318.470703125L1065.345703125 1267.0380859375C1059.1064453125 1259.96484375 1052.8212890625 1253.267578125 1046.49609375 1246.9423828125L1028.1123046875 1228.556640625C921.6064453125 1122.05078125 803.7451171875 1121.630859375 695.25390625 1230.1240234375L584.9453125 1340.431640625C579.0869140625 1346.291015625 573.25390625 1352.466796875 567.4541015625 1358.9619140625L593.3662109375 1382.107421875L648.7568359375 1320.09375C740.9697265625 1254.72265625 837.69921875 1264.673828125 926.9609375 1348.314453125 zM38.7607421875 1074.650390625C92.3701171875 1014.630859375 142.0634765625 992.0615234375 185.1162109375 992.0615234375C228.35546875 992.0615234375 277.638671875 1014.810546875 330.19921875 1074.3798828125L408.2001953125 1005.6201171875C343.4765625 932.265625 267.6357421875 888.0615234375 185.1162109375 888.0615234375C103.021484375 888.0615234375 26.9384765625 931.7958984375 -38.7900390625 1005.3828125 zM926.9609375 1075.314453125C930.203125 1078.763671875 933.4345703125 1082.3134765625 936.654296875 1085.9619140625L947.3837890625 1098.123046875L1065.345703125 994.0380859375C1059.1064453125 986.96484375 1052.8212890625 980.267578125 1046.49609375 973.9423828125L1028.1123046875 955.556640625C921.6064453125 849.05078125 803.7451171875 848.630859375 695.25390625 957.1240234375L584.9453125 1067.431640625C579.0869140625 1073.291015625 573.25390625 1079.466796875 567.4541015625 1085.9619140625L593.3662109375 1109.107421875L648.7568359375 1047.09375C740.9697265625 981.72265625 837.69921875 991.673828125 926.9609375 1075.314453125 zM38.7890625 1346.3173828125C92.3701171875 1286.3310546875 142.0634765625 1263.7626953125 185.115234375 1263.7626953125C228.35546875 1263.7626953125 277.638671875 1286.51171875 330.2001953125 1346.080078125L380.9619140625 1403.6103515625L458.9306640625 1334.814453125L408.2001953125 1277.3203125C343.4765625 1203.966796875 267.63671875 1159.7626953125 185.115234375 1159.7626953125C103.021484375 1159.7626953125 26.9384765625 1203.4951171875 -38.7890625 1277.08203125L-89.869140625 1334.26953125L-12.3193359375 1403.5380859375 z"/>
  <text class="ff_label" y="950" x="515">Join Limit: 0 em</text>
  <text class="ff_label" y="1230" x="515">Join Limit: 60 em</text>
</svg>
