<?xml version="1.0" encoding="utf-8" ?>
<?xml-stylesheet href="../ff_svg_fig.css" type="text/css" title="FontForge SVG stylesheet" alternate="no" media="screen"?>
<svg baseProfile="full" height="100%" version="1.1" viewBox="-41,-127,1000,428" width="100%" xmlns="http://www.w3.org/2000/svg" xmlns:ev="http://www.w3.org/2001/xml-events" xmlns:xlink="http://www.w3.org/1999/xlink">
  <defs/>
  <g class="ff_offp">
    <line class="ff_offp_post" x1="59.2275390625" x2="59.2275390625" y1="278.9697265625" y2="198.58203125"/>
    <g class="ff_offp_post" transform="translate(59.2275390625,198.58203125)">
      <line class="ff_off_curve_x" x1="-8" x2="8" y1="-8" y2="8"/>
      <line class="ff_off_curve_x" x1="-8" x2="8" y1="8" y2="-8"/>
    </g>
  </g>
  <g class="ff_offp">
    <line class="ff_offp_pre" x1="196.4462890625" x2="101.0947265625" y1="30.0" y2="114.1337890625"/>
    <g class="ff_offp_pre" transform="translate(101.0947265625,114.1337890625)">
      <line class="ff_off_curve_x" x1="-8" x2="8" y1="-8" y2="8"/>
      <line class="ff_off_curve_x" x1="-8" x2="8" y1="8" y2="-8"/>
    </g>
  </g>
  <g class="ff_offp">
    <line class="ff_offp_post" x1="143.5537109375" x2="37.392578125" y1="-30.0" y2="63.6708984375"/>
    <g class="ff_offp_post" transform="translate(37.392578125,63.6708984375)">
      <line class="ff_off_curve_x" x1="-8" x2="8" y1="-8" y2="8"/>
      <line class="ff_off_curve_x" x1="-8" x2="8" y1="8" y2="-8"/>
    </g>
  </g>
  <g class="ff_offp">
    <line class="ff_offp_pre" x1="-20.7724609375" x2="-20.7724609375" y1="278.9697265625" y2="168.7373046875"/>
    <g class="ff_offp_pre" transform="translate(-20.7724609375,168.7373046875)">
      <line class="ff_off_curve_x" x1="-8" x2="8" y1="-8" y2="8"/>
      <line class="ff_off_curve_x" x1="-8" x2="8" y1="8" y2="-8"/>
    </g>
  </g>
  <g class="ff_offp">
    <line class="ff_offp_post" x1="689.2275390625" x2="689.2275390625" y1="280.9697265625" y2="200.58203125"/>
    <g class="ff_offp_post" transform="translate(689.2275390625,200.58203125)">
      <line class="ff_off_curve_x" x1="-8" x2="8" y1="-8" y2="8"/>
      <line class="ff_off_curve_x" x1="-8" x2="8" y1="8" y2="-8"/>
    </g>
  </g>
  <g class="ff_offp">
    <line class="ff_offp_pre" x1="826.4462890625" x2="731.0947265625" y1="32.0" y2="116.1337890625"/>
    <g class="ff_offp_pre" transform="translate(731.0947265625,116.1337890625)">
      <line class="ff_off_curve_x" x1="-8" x2="8" y1="-8" y2="8"/>
      <line class="ff_off_curve_x" x1="-8" x2="8" y1="8" y2="-8"/>
    </g>
  </g>
  <g class="ff_offp">
    <line class="ff_offp_post" x1="773.5537109375" x2="667.392578125" y1="-28.0" y2="65.6708984375"/>
    <g class="ff_offp_post" transform="translate(667.392578125,65.6708984375)">
      <line class="ff_off_curve_x" x1="-8" x2="8" y1="-8" y2="8"/>
      <line class="ff_off_curve_x" x1="-8" x2="8" y1="8" y2="-8"/>
    </g>
  </g>
  <g class="ff_offp">
    <line class="ff_offp_pre" x1="609.2275390625" x2="609.2275390625" y1="280.9697265625" y2="170.7373046875"/>
    <g class="ff_offp_pre" transform="translate(609.2275390625,170.7373046875)">
      <line class="ff_off_curve_x" x1="-8" x2="8" y1="-8" y2="8"/>
      <line class="ff_off_curve_x" x1="-8" x2="8" y1="8" y2="-8"/>
    </g>
  </g>
  <g class="ff_offp">
    <line class="ff_offp_post" x1="375.2275390625" x2="375.2275390625" y1="280.9697265625" y2="200.58203125"/>
    <g class="ff_offp_post" transform="translate(375.2275390625,200.58203125)">
      <line class="ff_off_curve_x" x1="-8" x2="8" y1="-8" y2="8"/>
      <line class="ff_off_curve_x" x1="-8" x2="8" y1="8" y2="-8"/>
    </g>
  </g>
  <g class="ff_offp">
    <line class="ff_offp_pre" x1="512.4462890625" x2="417.0947265625" y1="32.0" y2="116.1337890625"/>
    <g class="ff_offp_pre" transform="translate(417.0947265625,116.1337890625)">
      <line class="ff_off_curve_x" x1="-8" x2="8" y1="-8" y2="8"/>
      <line class="ff_off_curve_x" x1="-8" x2="8" y1="8" y2="-8"/>
    </g>
  </g>
  <g class="ff_offp">
    <line class="ff_offp_post" x1="459.5537109375" x2="353.392578125" y1="-28.0" y2="65.6708984375"/>
    <g class="ff_offp_post" transform="translate(353.392578125,65.6708984375)">
      <line class="ff_off_curve_x" x1="-8" x2="8" y1="-8" y2="8"/>
      <line class="ff_off_curve_x" x1="-8" x2="8" y1="8" y2="-8"/>
    </g>
  </g>
  <g class="ff_offp">
    <line class="ff_offp_pre" x1="295.2275390625" x2="295.2275390625" y1="280.9697265625" y2="170.7373046875"/>
    <g class="ff_offp_pre" transform="translate(295.2275390625,170.7373046875)">
      <line class="ff_off_curve_x" x1="-8" x2="8" y1="-8" y2="8"/>
      <line class="ff_off_curve_x" x1="-8" x2="8" y1="8" y2="-8"/>
    </g>
  </g>
  <g>
    <circle class="ff_onp ff_curve ff_first ff_extremum" cx="0" cy="0" r="7" transform="translate(59.2275390625,278.9697265625)"/>
    <g transform="translate(59.2275390625,278.9697265625) rotate(-90.0)">
      <line class="ff_arrow" x1="0" x2="10" y1="-10" y2="-10"/>
      <line class="ff_arrow" x1="10" x2="7" y1="-10" y2="-7"/>
      <line class="ff_arrow" x1="10" x2="7" y1="-10" y2="-13"/>
    </g>
  </g>
  <polygon class="ff_onp ff_tangent" points="0,-9 9,0 0,9" transform="translate(196.4462890625,30.0) rotate(138.5763149670085)"/>
  <rect class="ff_onp ff_corner ff_extremum" height="12" transform="translate(196.4736328125,29.9755859375)" width="12" x="-6" y="-6"/>
  <rect class="ff_onp ff_corner ff_extremum" height="12" transform="translate(143.5537109375,-30.0)" width="12" x="-6" y="-6"/>
  <circle class="ff_onp ff_curve ff_extremum" cx="0" cy="0" r="7" transform="translate(-20.7724609375,278.9697265625)"/>
  <g>
    <circle class="ff_onp ff_curve ff_first ff_extremum" cx="0" cy="0" r="7" transform="translate(689.2275390625,280.9697265625)"/>
    <g transform="translate(689.2275390625,280.9697265625) rotate(-90.0)">
      <line class="ff_arrow" x1="0" x2="10" y1="-10" y2="-10"/>
      <line class="ff_arrow" x1="10" x2="7" y1="-10" y2="-7"/>
      <line class="ff_arrow" x1="10" x2="7" y1="-10" y2="-13"/>
    </g>
  </g>
  <polygon class="ff_onp ff_tangent" points="0,-9 9,0 0,9" transform="translate(826.4462890625,32.0) rotate(138.5763149670085)"/>
  <rect class="ff_onp ff_corner ff_extremum" height="12" transform="translate(916.423828125,-47.392578125)" width="12" x="-6" y="-6"/>
  <rect class="ff_onp ff_corner ff_extremum" height="12" transform="translate(863.50390625,-107.3681640625)" width="12" x="-6" y="-6"/>
  <polygon class="ff_onp ff_tangent" points="0,-9 9,0 0,9" transform="translate(773.5537109375,-28.0) rotate(138.57654355760815)"/>
  <circle class="ff_onp ff_curve ff_extremum" cx="0" cy="0" r="7" transform="translate(609.2275390625,280.9697265625)"/>
  <g>
    <circle class="ff_onp ff_curve ff_first ff_extremum" cx="0" cy="0" r="7" transform="translate(375.2275390625,280.9697265625)"/>
    <g transform="translate(375.2275390625,280.9697265625) rotate(-90.0)">
      <line class="ff_arrow" x1="0" x2="10" y1="-10" y2="-10"/>
      <line class="ff_arrow" x1="10" x2="7" y1="-10" y2="-7"/>
      <line class="ff_arrow" x1="10" x2="7" y1="-10" y2="-13"/>
    </g>
  </g>
  <polygon class="ff_onp ff_tangent" points="0,-9 9,0 0,9" transform="translate(512.4462890625,32.0) rotate(138.5763149670085)"/>
  <rect class="ff_onp ff_corner ff_extremum" height="12" transform="translate(542.4482421875,5.5283203125)" width="12" x="-6" y="-6"/>
  <rect class="ff_onp ff_corner ff_extremum" height="12" transform="translate(489.5283203125,-54.4482421875)" width="12" x="-6" y="-6"/>
  <polygon class="ff_onp ff_tangent" points="0,-9 9,0 0,9" transform="translate(459.5537109375,-28.0) rotate(138.57654355760815)"/>
  <circle class="ff_onp ff_curve ff_extremum" cx="0" cy="0" r="7" transform="translate(295.2275390625,280.9697265625)"/>
  <path class="ff_main_background" d="M19.2431640625 276.0C20.271484375 181.69140625 70.2900390625 87.9794921875 170.0 0.0M649.228515625 280.0C649.5673828125 185.0166015625 699.5859375 90.6005859375 800.0 2.0M335.228515625 280.0C335.5673828125 185.0166015625 385.5859375 90.6005859375 486.0 2.0"/>
  <path class="ff_main_closed" d="M59.2275390625 278.9697265625C59.2275390625 198.58203125 101.0947265625 114.1337890625 196.4462890625 30.0L196.4736328125 29.9755859375L143.5537109375 -30.0C37.392578125 63.6708984375 -20.7724609375 168.7373046875 -20.7724609375 278.9697265625M689.2275390625 280.9697265625C689.2275390625 200.58203125 731.0947265625 116.1337890625 826.4462890625 32.0L916.423828125 -47.392578125L863.50390625 -107.3681640625L773.5537109375 -28.0C667.392578125 65.6708984375 609.2275390625 170.7373046875 609.2275390625 280.9697265625M375.2275390625 280.9697265625C375.2275390625 200.58203125 417.0947265625 116.1337890625 512.4462890625 32.0L542.4482421875 5.5283203125L489.5283203125 -54.4482421875L459.5537109375 -28.0C353.392578125 65.6708984375 295.2275390625 170.7373046875 295.2275390625 280.9697265625"/>
  <text class="ff_label" y="120" x="221">Extend Cap: 0</text>
  <text class="ff_label" y="120" x="540">Extend Cap: 1</text>
  <text class="ff_label" y="120" x="855">Extend Cap: 3</text>

</svg>
