<?xml version="1.0" encoding="utf-8" ?>
<?xml-stylesheet href="../ff_svg_fig.css" type="text/css" title="FontForge SVG stylesheet" alternate="no" media="screen"?>
<svg baseProfile="full" height="100%" version="1.1" viewBox="-107,859,1256,609" width="100%" xmlns="http://www.w3.org/2000/svg" xmlns:ev="http://www.w3.org/2001/xml-events" xmlns:xlink="http://www.w3.org/1999/xlink">
  <defs/>
  <g class="ff_offp">
    <line class="ff_offp_post" x1="632.4013671875" x2="632.9951171875" y1="1059.16796875" y2="1058.50390625"/>
    <g class="ff_offp_post" transform="translate(632.9951171875,1058.50390625)">
      <line class="ff_off_curve_x" x1="-8" x2="8" y1="-8" y2="8"/>
      <line class="ff_off_curve_x" x1="-8" x2="8" y1="8" y2="-8"/>
    </g>
  </g>
  <g class="ff_offp">
    <line class="ff_offp_pre" x1="688.046875" x2="657.2783203125" y1="1019.65625" y2="1034.6669921875"/>
    <g class="ff_offp_pre" transform="translate(657.2783203125,1034.6669921875)">
      <line class="ff_off_curve_x" x1="-8" x2="8" y1="-8" y2="8"/>
      <line class="ff_off_curve_x" x1="-8" x2="8" y1="8" y2="-8"/>
    </g>
  </g>
  <g class="ff_offp">
    <line class="ff_offp_post" x1="688.046875" x2="712.224609375" y1="1019.65625" y2="1007.8603515625"/>
    <g class="ff_offp_post" transform="translate(712.224609375,1007.8603515625)">
      <line class="ff_off_curve_x" x1="-8" x2="8" y1="-8" y2="8"/>
      <line class="ff_off_curve_x" x1="-8" x2="8" y1="8" y2="-8"/>
    </g>
  </g>
  <g class="ff_offp">
    <line class="ff_offp_pre" x1="764.986328125" x2="738.5048828125" y1="1000.4404296875" y2="1001.0029296875"/>
    <g class="ff_offp_pre" transform="translate(738.5048828125,1001.0029296875)">
      <line class="ff_off_curve_x" x1="-8" x2="8" y1="-8" y2="8"/>
      <line class="ff_off_curve_x" x1="-8" x2="8" y1="8" y2="-8"/>
    </g>
  </g>
  <g class="ff_offp">
    <line class="ff_offp_post" x1="764.986328125" x2="812.7919921875" y1="1000.4404296875" y2="999.423828125"/>
    <g class="ff_offp_post" transform="translate(812.7919921875,999.423828125)">
      <line class="ff_off_curve_x" x1="-8" x2="8" y1="-8" y2="8"/>
      <line class="ff_off_curve_x" x1="-8" x2="8" y1="8" y2="-8"/>
    </g>
  </g>
  <g class="ff_offp">
    <line class="ff_offp_pre" x1="908.0400390625" x2="861.2705078125" y1="1057.62890625" y2="1018.384765625"/>
    <g class="ff_offp_pre" transform="translate(861.2705078125,1018.384765625)">
      <line class="ff_off_curve_x" x1="-8" x2="8" y1="-8" y2="8"/>
      <line class="ff_off_curve_x" x1="-8" x2="8" y1="8" y2="-8"/>
    </g>
  </g>
  <g class="ff_offp">
    <line class="ff_offp_post" x1="908.0400390625" x2="922.4130859375" y1="1057.62890625" y2="1069.689453125"/>
    <g class="ff_offp_post" transform="translate(922.4130859375,1069.689453125)">
      <line class="ff_off_curve_x" x1="-8" x2="8" y1="-8" y2="8"/>
      <line class="ff_off_curve_x" x1="-8" x2="8" y1="8" y2="-8"/>
    </g>
  </g>
  <g class="ff_offp">
    <line class="ff_offp_pre" x1="950.6240234375" x2="936.6259765625" y1="1099.5185546875" y2="1083.654296875"/>
    <g class="ff_offp_pre" transform="translate(936.6259765625,1083.654296875)">
      <line class="ff_off_curve_x" x1="-8" x2="8" y1="-8" y2="8"/>
      <line class="ff_off_curve_x" x1="-8" x2="8" y1="8" y2="-8"/>
    </g>
  </g>
  <g class="ff_offp">
    <line class="ff_offp_post" x1="977.552734375" x2="991.66796875" y1="1130.037109375" y2="1145.9921875"/>
    <g class="ff_offp_post" transform="translate(991.66796875,1145.9921875)">
      <line class="ff_off_curve_x" x1="-8" x2="8" y1="-8" y2="8"/>
      <line class="ff_off_curve_x" x1="-8" x2="8" y1="8" y2="-8"/>
    </g>
  </g>
  <g class="ff_offp">
    <line class="ff_offp_pre" x1="1035.390625" x2="1012.357421875" y1="1156.107421875" y2="1156.107421875"/>
    <g class="ff_offp_pre" transform="translate(1012.357421875,1156.107421875)">
      <line class="ff_off_curve_x" x1="-8" x2="8" y1="-8" y2="8"/>
      <line class="ff_off_curve_x" x1="-8" x2="8" y1="8" y2="-8"/>
    </g>
  </g>
  <g class="ff_offp">
    <line class="ff_offp_post" x1="1035.390625" x2="1077.97265625" y1="1156.107421875" y2="1156.107421875"/>
    <g class="ff_offp_post" transform="translate(1077.97265625,1156.107421875)">
      <line class="ff_off_curve_x" x1="-8" x2="8" y1="-8" y2="8"/>
      <line class="ff_off_curve_x" x1="-8" x2="8" y1="8" y2="-8"/>
    </g>
  </g>
  <g class="ff_offp">
    <line class="ff_offp_pre" x1="1112.5439453125" x2="1112.5439453125" y1="1078.955078125" y2="1121.537109375"/>
    <g class="ff_offp_pre" transform="translate(1112.5439453125,1121.537109375)">
      <line class="ff_off_curve_x" x1="-8" x2="8" y1="-8" y2="8"/>
      <line class="ff_off_curve_x" x1="-8" x2="8" y1="8" y2="-8"/>
    </g>
  </g>
  <g class="ff_offp">
    <line class="ff_offp_post" x1="1112.5439453125" x2="1112.5439453125" y1="1078.955078125" y2="1059.4072265625"/>
    <g class="ff_offp_post" transform="translate(1112.5439453125,1059.4072265625)">
      <line class="ff_off_curve_x" x1="-8" x2="8" y1="-8" y2="8"/>
      <line class="ff_off_curve_x" x1="-8" x2="8" y1="8" y2="-8"/>
    </g>
  </g>
  <g class="ff_offp">
    <line class="ff_offp_pre" x1="1093.255859375" x2="1105.2578125" y1="1027.9453125" y2="1041.5478515625"/>
    <g class="ff_offp_pre" transform="translate(1105.2578125,1041.5478515625)">
      <line class="ff_off_curve_x" x1="-8" x2="8" y1="-8" y2="8"/>
      <line class="ff_off_curve_x" x1="-8" x2="8" y1="8" y2="-8"/>
    </g>
  </g>
  <g class="ff_offp">
    <line class="ff_offp_post" x1="1051.3759765625" x2="1037.2431640625" y1="980.4814453125" y2="964.46484375"/>
    <g class="ff_offp_post" transform="translate(1037.2431640625,964.46484375)">
      <line class="ff_off_curve_x" x1="-8" x2="8" y1="-8" y2="8"/>
      <line class="ff_off_curve_x" x1="-8" x2="8" y1="8" y2="-8"/>
    </g>
  </g>
  <g class="ff_offp">
    <line class="ff_offp_pre" x1="1008.3154296875" x2="1022.875" y1="938.1259765625" y2="950.34375"/>
    <g class="ff_offp_pre" transform="translate(1022.875,950.34375)">
      <line class="ff_off_curve_x" x1="-8" x2="8" y1="-8" y2="8"/>
      <line class="ff_off_curve_x" x1="-8" x2="8" y1="8" y2="-8"/>
    </g>
  </g>
  <g class="ff_offp">
    <line class="ff_offp_post" x1="1008.3154296875" x2="960.9775390625" y1="938.1259765625" y2="898.4052734375"/>
    <g class="ff_offp_post" transform="translate(960.9775390625,898.4052734375)">
      <line class="ff_off_curve_x" x1="-8" x2="8" y1="-8" y2="8"/>
      <line class="ff_off_curve_x" x1="-8" x2="8" y1="8" y2="-8"/>
    </g>
  </g>
  <g class="ff_offp">
    <line class="ff_offp_pre" x1="861.30859375" x2="911.6298828125" y1="879.763671875" y2="878.693359375"/>
    <g class="ff_offp_pre" transform="translate(911.6298828125,878.693359375)">
      <line class="ff_off_curve_x" x1="-8" x2="8" y1="-8" y2="8"/>
      <line class="ff_off_curve_x" x1="-8" x2="8" y1="8" y2="-8"/>
    </g>
  </g>
  <g class="ff_offp">
    <line class="ff_offp_post" x1="861.30859375" x2="833.2763671875" y1="879.763671875" y2="880.3603515625"/>
    <g class="ff_offp_post" transform="translate(833.2763671875,880.3603515625)">
      <line class="ff_off_curve_x" x1="-8" x2="8" y1="-8" y2="8"/>
      <line class="ff_off_curve_x" x1="-8" x2="8" y1="8" y2="-8"/>
    </g>
  </g>
  <g class="ff_offp">
    <line class="ff_offp_pre" x1="775.0146484375" x2="804.94921875" y1="901.845703125" y2="887.2421875"/>
    <g class="ff_offp_pre" transform="translate(804.94921875,887.2421875)">
      <line class="ff_off_curve_x" x1="-8" x2="8" y1="-8" y2="8"/>
      <line class="ff_off_curve_x" x1="-8" x2="8" y1="8" y2="-8"/>
    </g>
  </g>
  <g class="ff_offp">
    <line class="ff_offp_post" x1="775.0146484375" x2="738.142578125" y1="901.845703125" y2="919.833984375"/>
    <g class="ff_offp_post" transform="translate(738.142578125,919.833984375)">
      <line class="ff_off_curve_x" x1="-8" x2="8" y1="-8" y2="8"/>
      <line class="ff_off_curve_x" x1="-8" x2="8" y1="8" y2="-8"/>
    </g>
  </g>
  <g class="ff_offp">
    <line class="ff_offp_pre" x1="631.1982421875" x2="695.5576171875" y1="1020.83203125" y2="948.7783203125"/>
    <g class="ff_offp_pre" transform="translate(695.5576171875,948.7783203125)">
      <line class="ff_off_curve_x" x1="-8" x2="8" y1="-8" y2="8"/>
      <line class="ff_off_curve_x" x1="-8" x2="8" y1="8" y2="-8"/>
    </g>
  </g>
  <g class="ff_offp">
    <line class="ff_offp_post" x1="587.3017578125" x2="585.2138671875" y1="1069.9775390625" y2="1072.314453125"/>
    <g class="ff_offp_post" transform="translate(585.2138671875,1072.314453125)">
      <line class="ff_off_curve_x" x1="-8" x2="8" y1="-8" y2="8"/>
      <line class="ff_off_curve_x" x1="-8" x2="8" y1="8" y2="-8"/>
    </g>
  </g>
  <g class="ff_offp">
    <line class="ff_offp_pre" x1="583.9443359375" x2="583.9443359375" y1="1078.7763671875" y2="1075.3984375"/>
    <g class="ff_offp_pre" transform="translate(583.9443359375,1075.3984375)">
      <line class="ff_off_curve_x" x1="-8" x2="8" y1="-8" y2="8"/>
      <line class="ff_off_curve_x" x1="-8" x2="8" y1="8" y2="-8"/>
    </g>
  </g>
  <g class="ff_offp">
    <line class="ff_offp_post" x1="583.9443359375" x2="583.9443359375" y1="1078.7763671875" y2="1086.0712890625"/>
    <g class="ff_offp_post" transform="translate(583.9443359375,1086.0712890625)">
      <line class="ff_off_curve_x" x1="-8" x2="8" y1="-8" y2="8"/>
      <line class="ff_off_curve_x" x1="-8" x2="8" y1="8" y2="-8"/>
    </g>
  </g>
  <g class="ff_offp">
    <line class="ff_offp_pre" x1="597.1611328125" x2="589.8662109375" y1="1091.994140625" y2="1091.994140625"/>
    <g class="ff_offp_pre" transform="translate(589.8662109375,1091.994140625)">
      <line class="ff_off_curve_x" x1="-8" x2="8" y1="-8" y2="8"/>
      <line class="ff_off_curve_x" x1="-8" x2="8" y1="8" y2="-8"/>
    </g>
  </g>
  <g class="ff_offp">
    <line class="ff_offp_post" x1="597.1611328125" x2="601.0791015625" y1="1091.994140625" y2="1091.994140625"/>
    <g class="ff_offp_post" transform="translate(601.0791015625,1091.994140625)">
      <line class="ff_off_curve_x" x1="-8" x2="8" y1="-8" y2="8"/>
      <line class="ff_off_curve_x" x1="-8" x2="8" y1="8" y2="-8"/>
    </g>
  </g>
  <g class="ff_offp">
    <line class="ff_offp_pre" x1="607.017578125" x2="604.599609375" y1="1087.5869140625" y2="1090.2861328125"/>
    <g class="ff_offp_pre" transform="translate(604.599609375,1090.2861328125)">
      <line class="ff_off_curve_x" x1="-8" x2="8" y1="-8" y2="8"/>
      <line class="ff_off_curve_x" x1="-8" x2="8" y1="8" y2="-8"/>
    </g>
  </g>
  <g class="ff_offp">
    <line class="ff_offp_post" x1="38.7900390625" x2="92.3701171875" y1="1074.6171875" y2="1014.630859375"/>
    <g class="ff_offp_post" transform="translate(92.3701171875,1014.630859375)">
      <line class="ff_off_curve_x" x1="-8" x2="8" y1="-8" y2="8"/>
      <line class="ff_off_curve_x" x1="-8" x2="8" y1="8" y2="-8"/>
    </g>
  </g>
  <g class="ff_offp">
    <line class="ff_offp_pre" x1="185.1162109375" x2="142.0634765625" y1="992.0615234375" y2="992.0615234375"/>
    <g class="ff_offp_pre" transform="translate(142.0634765625,992.0615234375)">
      <line class="ff_off_curve_x" x1="-8" x2="8" y1="-8" y2="8"/>
      <line class="ff_off_curve_x" x1="-8" x2="8" y1="8" y2="-8"/>
    </g>
  </g>
  <g class="ff_offp">
    <line class="ff_offp_post" x1="185.1162109375" x2="228.35546875" y1="992.0615234375" y2="992.0615234375"/>
    <g class="ff_offp_post" transform="translate(228.35546875,992.0615234375)">
      <line class="ff_off_curve_x" x1="-8" x2="8" y1="-8" y2="8"/>
      <line class="ff_off_curve_x" x1="-8" x2="8" y1="8" y2="-8"/>
    </g>
  </g>
  <g class="ff_offp">
    <line class="ff_offp_pre" x1="330.19921875" x2="277.638671875" y1="1074.3798828125" y2="1014.810546875"/>
    <g class="ff_offp_pre" transform="translate(277.638671875,1014.810546875)">
      <line class="ff_off_curve_x" x1="-8" x2="8" y1="-8" y2="8"/>
      <line class="ff_off_curve_x" x1="-8" x2="8" y1="8" y2="-8"/>
    </g>
  </g>
  <g class="ff_offp">
    <line class="ff_offp_post" x1="364.6201171875" x2="374.1318359375" y1="1113.3896484375" y2="1124.140625"/>
    <g class="ff_offp_post" transform="translate(374.1318359375,1124.140625)">
      <line class="ff_off_curve_x" x1="-8" x2="8" y1="-8" y2="8"/>
      <line class="ff_off_curve_x" x1="-8" x2="8" y1="8" y2="-8"/>
    </g>
  </g>
  <g class="ff_offp">
    <line class="ff_offp_pre" x1="403.595703125" x2="388.0732421875" y1="1130.9580078125" y2="1130.9580078125"/>
    <g class="ff_offp_pre" transform="translate(388.0732421875,1130.9580078125)">
      <line class="ff_off_curve_x" x1="-8" x2="8" y1="-8" y2="8"/>
      <line class="ff_off_curve_x" x1="-8" x2="8" y1="8" y2="-8"/>
    </g>
  </g>
  <g class="ff_offp">
    <line class="ff_offp_post" x1="403.595703125" x2="432.2900390625" y1="1130.9580078125" y2="1130.9580078125"/>
    <g class="ff_offp_post" transform="translate(432.2900390625,1130.9580078125)">
      <line class="ff_off_curve_x" x1="-8" x2="8" y1="-8" y2="8"/>
      <line class="ff_off_curve_x" x1="-8" x2="8" y1="8" y2="-8"/>
    </g>
  </g>
  <g class="ff_offp">
    <line class="ff_offp_pre" x1="455.5859375" x2="455.5859375" y1="1078.966796875" y2="1107.6611328125"/>
    <g class="ff_offp_pre" transform="translate(455.5859375,1107.6611328125)">
      <line class="ff_off_curve_x" x1="-8" x2="8" y1="-8" y2="8"/>
      <line class="ff_off_curve_x" x1="-8" x2="8" y1="8" y2="-8"/>
    </g>
  </g>
  <g class="ff_offp">
    <line class="ff_offp_post" x1="455.5859375" x2="455.5859375" y1="1078.966796875" y2="1065.7939453125"/>
    <g class="ff_offp_post" transform="translate(455.5859375,1065.7939453125)">
      <line class="ff_off_curve_x" x1="-8" x2="8" y1="-8" y2="8"/>
      <line class="ff_off_curve_x" x1="-8" x2="8" y1="8" y2="-8"/>
    </g>
  </g>
  <g class="ff_offp">
    <line class="ff_offp_pre" x1="442.5888671875" x2="450.6767578125" y1="1044.59375" y2="1053.759765625"/>
    <g class="ff_offp_pre" transform="translate(450.6767578125,1053.759765625)">
      <line class="ff_off_curve_x" x1="-8" x2="8" y1="-8" y2="8"/>
      <line class="ff_off_curve_x" x1="-8" x2="8" y1="8" y2="-8"/>
    </g>
  </g>
  <g class="ff_offp">
    <line class="ff_offp_post" x1="408.2001953125" x2="343.4765625" y1="1005.6201171875" y2="932.265625"/>
    <g class="ff_offp_post" transform="translate(343.4765625,932.265625)">
      <line class="ff_off_curve_x" x1="-8" x2="8" y1="-8" y2="8"/>
      <line class="ff_off_curve_x" x1="-8" x2="8" y1="8" y2="-8"/>
    </g>
  </g>
  <g class="ff_offp">
    <line class="ff_offp_pre" x1="185.1162109375" x2="267.6357421875" y1="888.0615234375" y2="888.0615234375"/>
    <g class="ff_offp_pre" transform="translate(267.6357421875,888.0615234375)">
      <line class="ff_off_curve_x" x1="-8" x2="8" y1="-8" y2="8"/>
      <line class="ff_off_curve_x" x1="-8" x2="8" y1="8" y2="-8"/>
    </g>
  </g>
  <g class="ff_offp">
    <line class="ff_offp_post" x1="185.1162109375" x2="103.021484375" y1="888.0615234375" y2="888.0615234375"/>
    <g class="ff_offp_post" transform="translate(103.021484375,888.0615234375)">
      <line class="ff_off_curve_x" x1="-8" x2="8" y1="-8" y2="8"/>
      <line class="ff_off_curve_x" x1="-8" x2="8" y1="8" y2="-8"/>
    </g>
  </g>
  <g class="ff_offp">
    <line class="ff_offp_pre" x1="-38.7900390625" x2="26.9384765625" y1="1005.3828125" y2="931.7958984375"/>
    <g class="ff_offp_pre" transform="translate(26.9384765625,931.7958984375)">
      <line class="ff_off_curve_x" x1="-8" x2="8" y1="-8" y2="8"/>
      <line class="ff_off_curve_x" x1="-8" x2="8" y1="8" y2="-8"/>
    </g>
  </g>
  <g class="ff_offp">
    <line class="ff_offp_post" x1="-73.4150390625" x2="-81.6279296875" y1="1044.1484375" y2="1053.3427734375"/>
    <g class="ff_offp_post" transform="translate(-81.6279296875,1053.3427734375)">
      <line class="ff_off_curve_x" x1="-8" x2="8" y1="-8" y2="8"/>
      <line class="ff_off_curve_x" x1="-8" x2="8" y1="8" y2="-8"/>
    </g>
  </g>
  <g class="ff_offp">
    <line class="ff_offp_pre" x1="-86.623046875" x2="-86.623046875" y1="1078.759765625" y2="1065.47265625"/>
    <g class="ff_offp_pre" transform="translate(-86.623046875,1065.47265625)">
      <line class="ff_off_curve_x" x1="-8" x2="8" y1="-8" y2="8"/>
      <line class="ff_off_curve_x" x1="-8" x2="8" y1="8" y2="-8"/>
    </g>
  </g>
  <g class="ff_offp">
    <line class="ff_offp_post" x1="-86.623046875" x2="-86.623046875" y1="1078.759765625" y2="1107.453125"/>
    <g class="ff_offp_post" transform="translate(-86.623046875,1107.453125)">
      <line class="ff_off_curve_x" x1="-8" x2="8" y1="-8" y2="8"/>
      <line class="ff_off_curve_x" x1="-8" x2="8" y1="8" y2="-8"/>
    </g>
  </g>
  <g class="ff_offp">
    <line class="ff_offp_pre" x1="-34.6328125" x2="-63.3271484375" y1="1130.75" y2="1130.75"/>
    <g class="ff_offp_pre" transform="translate(-63.3271484375,1130.75)">
      <line class="ff_off_curve_x" x1="-8" x2="8" y1="-8" y2="8"/>
      <line class="ff_off_curve_x" x1="-8" x2="8" y1="8" y2="-8"/>
    </g>
  </g>
  <g class="ff_offp">
    <line class="ff_offp_post" x1="-34.6328125" x2="-19.2255859375" y1="1130.75" y2="1130.75"/>
    <g class="ff_offp_post" transform="translate(-19.2255859375,1130.75)">
      <line class="ff_off_curve_x" x1="-8" x2="8" y1="-8" y2="8"/>
      <line class="ff_off_curve_x" x1="-8" x2="8" y1="8" y2="-8"/>
    </g>
  </g>
  <g class="ff_offp">
    <line class="ff_offp_pre" x1="4.134765625" x2="-5.3740234375" y1="1113.416015625" y2="1124.033203125"/>
    <g class="ff_offp_pre" transform="translate(-5.3740234375,1124.033203125)">
      <line class="ff_off_curve_x" x1="-8" x2="8" y1="-8" y2="8"/>
      <line class="ff_off_curve_x" x1="-8" x2="8" y1="8" y2="-8"/>
    </g>
  </g>
  <g class="ff_offp">
    <line class="ff_offp_post" x1="38.7900390625" x2="92.3701171875" y1="1346.3173828125" y2="1286.3310546875"/>
    <g class="ff_offp_post" transform="translate(92.3701171875,1286.3310546875)">
      <line class="ff_off_curve_x" x1="-8" x2="8" y1="-8" y2="8"/>
      <line class="ff_off_curve_x" x1="-8" x2="8" y1="8" y2="-8"/>
    </g>
  </g>
  <g class="ff_offp">
    <line class="ff_offp_pre" x1="185.1162109375" x2="142.0634765625" y1="1263.76171875" y2="1263.76171875"/>
    <g class="ff_offp_pre" transform="translate(142.0634765625,1263.76171875)">
      <line class="ff_off_curve_x" x1="-8" x2="8" y1="-8" y2="8"/>
      <line class="ff_off_curve_x" x1="-8" x2="8" y1="8" y2="-8"/>
    </g>
  </g>
  <g class="ff_offp">
    <line class="ff_offp_post" x1="185.1162109375" x2="228.35546875" y1="1263.76171875" y2="1263.76171875"/>
    <g class="ff_offp_post" transform="translate(228.35546875,1263.76171875)">
      <line class="ff_off_curve_x" x1="-8" x2="8" y1="-8" y2="8"/>
      <line class="ff_off_curve_x" x1="-8" x2="8" y1="8" y2="-8"/>
    </g>
  </g>
  <g class="ff_offp">
    <line class="ff_offp_pre" x1="330.19921875" x2="277.638671875" y1="1346.080078125" y2="1286.5107421875"/>
    <g class="ff_offp_pre" transform="translate(277.638671875,1286.5107421875)">
      <line class="ff_off_curve_x" x1="-8" x2="8" y1="-8" y2="8"/>
      <line class="ff_off_curve_x" x1="-8" x2="8" y1="8" y2="-8"/>
    </g>
  </g>
  <g class="ff_offp">
    <line class="ff_offp_post" x1="364.61328125" x2="374.125" y1="1385.0830078125" y2="1395.833984375"/>
    <g class="ff_offp_post" transform="translate(374.125,1395.833984375)">
      <line class="ff_off_curve_x" x1="-8" x2="8" y1="-8" y2="8"/>
      <line class="ff_off_curve_x" x1="-8" x2="8" y1="8" y2="-8"/>
    </g>
  </g>
  <g class="ff_offp">
    <line class="ff_offp_pre" x1="403.5888671875" x2="388.0673828125" y1="1402.650390625" y2="1402.650390625"/>
    <g class="ff_offp_pre" transform="translate(388.0673828125,1402.650390625)">
      <line class="ff_off_curve_x" x1="-8" x2="8" y1="-8" y2="8"/>
      <line class="ff_off_curve_x" x1="-8" x2="8" y1="8" y2="-8"/>
    </g>
  </g>
  <g class="ff_offp">
    <line class="ff_offp_post" x1="403.5888671875" x2="432.283203125" y1="1402.650390625" y2="1402.650390625"/>
    <g class="ff_offp_post" transform="translate(432.283203125,1402.650390625)">
      <line class="ff_off_curve_x" x1="-8" x2="8" y1="-8" y2="8"/>
      <line class="ff_off_curve_x" x1="-8" x2="8" y1="8" y2="-8"/>
    </g>
  </g>
  <g class="ff_offp">
    <line class="ff_offp_pre" x1="455.580078125" x2="455.580078125" y1="1350.66015625" y2="1379.3544921875"/>
    <g class="ff_offp_pre" transform="translate(455.580078125,1379.3544921875)">
      <line class="ff_off_curve_x" x1="-8" x2="8" y1="-8" y2="8"/>
      <line class="ff_off_curve_x" x1="-8" x2="8" y1="8" y2="-8"/>
    </g>
  </g>
  <g class="ff_offp">
    <line class="ff_offp_post" x1="455.580078125" x2="455.580078125" y1="1350.66015625" y2="1337.4873046875"/>
    <g class="ff_offp_post" transform="translate(455.580078125,1337.4873046875)">
      <line class="ff_off_curve_x" x1="-8" x2="8" y1="-8" y2="8"/>
      <line class="ff_off_curve_x" x1="-8" x2="8" y1="8" y2="-8"/>
    </g>
  </g>
  <g class="ff_offp">
    <line class="ff_offp_pre" x1="442.5830078125" x2="450.669921875" y1="1316.2861328125" y2="1325.4521484375"/>
    <g class="ff_offp_pre" transform="translate(450.669921875,1325.4521484375)">
      <line class="ff_off_curve_x" x1="-8" x2="8" y1="-8" y2="8"/>
      <line class="ff_off_curve_x" x1="-8" x2="8" y1="8" y2="-8"/>
    </g>
  </g>
  <g class="ff_offp">
    <line class="ff_offp_post" x1="408.2001953125" x2="343.4765625" y1="1277.3203125" y2="1203.9658203125"/>
    <g class="ff_offp_post" transform="translate(343.4765625,1203.9658203125)">
      <line class="ff_off_curve_x" x1="-8" x2="8" y1="-8" y2="8"/>
      <line class="ff_off_curve_x" x1="-8" x2="8" y1="8" y2="-8"/>
    </g>
  </g>
  <g class="ff_offp">
    <line class="ff_offp_pre" x1="185.1162109375" x2="267.6357421875" y1="1159.76171875" y2="1159.76171875"/>
    <g class="ff_offp_pre" transform="translate(267.6357421875,1159.76171875)">
      <line class="ff_off_curve_x" x1="-8" x2="8" y1="-8" y2="8"/>
      <line class="ff_off_curve_x" x1="-8" x2="8" y1="8" y2="-8"/>
    </g>
  </g>
  <g class="ff_offp">
    <line class="ff_offp_post" x1="185.1162109375" x2="103.021484375" y1="1159.76171875" y2="1159.76171875"/>
    <g class="ff_offp_post" transform="translate(103.021484375,1159.76171875)">
      <line class="ff_off_curve_x" x1="-8" x2="8" y1="-8" y2="8"/>
      <line class="ff_off_curve_x" x1="-8" x2="8" y1="8" y2="-8"/>
    </g>
  </g>
  <g class="ff_offp">
    <line class="ff_offp_pre" x1="-38.7900390625" x2="26.9384765625" y1="1277.08203125" y2="1203.4951171875"/>
    <g class="ff_offp_pre" transform="translate(26.9384765625,1203.4951171875)">
      <line class="ff_off_curve_x" x1="-8" x2="8" y1="-8" y2="8"/>
      <line class="ff_off_curve_x" x1="-8" x2="8" y1="8" y2="-8"/>
    </g>
  </g>
  <g class="ff_offp">
    <line class="ff_offp_post" x1="-73.4091796875" x2="-81.6220703125" y1="1315.8408203125" y2="1325.0361328125"/>
    <g class="ff_offp_post" transform="translate(-81.6220703125,1325.0361328125)">
      <line class="ff_off_curve_x" x1="-8" x2="8" y1="-8" y2="8"/>
      <line class="ff_off_curve_x" x1="-8" x2="8" y1="8" y2="-8"/>
    </g>
  </g>
  <g class="ff_offp">
    <line class="ff_offp_pre" x1="-86.6171875" x2="-86.6171875" y1="1350.4521484375" y2="1337.1650390625"/>
    <g class="ff_offp_pre" transform="translate(-86.6171875,1337.1650390625)">
      <line class="ff_off_curve_x" x1="-8" x2="8" y1="-8" y2="8"/>
      <line class="ff_off_curve_x" x1="-8" x2="8" y1="8" y2="-8"/>
    </g>
  </g>
  <g class="ff_offp">
    <line class="ff_offp_post" x1="-86.6171875" x2="-86.6171875" y1="1350.4521484375" y2="1379.146484375"/>
    <g class="ff_offp_post" transform="translate(-86.6171875,1379.146484375)">
      <line class="ff_off_curve_x" x1="-8" x2="8" y1="-8" y2="8"/>
      <line class="ff_off_curve_x" x1="-8" x2="8" y1="8" y2="-8"/>
    </g>
  </g>
  <g class="ff_offp">
    <line class="ff_offp_pre" x1="-34.6259765625" x2="-63.3203125" y1="1402.4423828125" y2="1402.4423828125"/>
    <g class="ff_offp_pre" transform="translate(-63.3203125,1402.4423828125)">
      <line class="ff_off_curve_x" x1="-8" x2="8" y1="-8" y2="8"/>
      <line class="ff_off_curve_x" x1="-8" x2="8" y1="8" y2="-8"/>
    </g>
  </g>
  <g class="ff_offp">
    <line class="ff_offp_post" x1="-34.6259765625" x2="-19.21875" y1="1402.4423828125" y2="1402.4423828125"/>
    <g class="ff_offp_post" transform="translate(-19.21875,1402.4423828125)">
      <line class="ff_off_curve_x" x1="-8" x2="8" y1="-8" y2="8"/>
      <line class="ff_off_curve_x" x1="-8" x2="8" y1="8" y2="-8"/>
    </g>
  </g>
  <g class="ff_offp">
    <line class="ff_offp_pre" x1="4.140625" x2="-5.3681640625" y1="1385.1083984375" y2="1395.7255859375"/>
    <g class="ff_offp_pre" transform="translate(-5.3681640625,1395.7255859375)">
      <line class="ff_off_curve_x" x1="-8" x2="8" y1="-8" y2="8"/>
      <line class="ff_off_curve_x" x1="-8" x2="8" y1="8" y2="-8"/>
    </g>
  </g>
  <g class="ff_offp">
    <line class="ff_offp_post" x1="632.4013671875" x2="632.9951171875" y1="1332.16796875" y2="1331.50390625"/>
    <g class="ff_offp_post" transform="translate(632.9951171875,1331.50390625)">
      <line class="ff_off_curve_x" x1="-8" x2="8" y1="-8" y2="8"/>
      <line class="ff_off_curve_x" x1="-8" x2="8" y1="8" y2="-8"/>
    </g>
  </g>
  <g class="ff_offp">
    <line class="ff_offp_pre" x1="688.046875" x2="657.2783203125" y1="1292.65625" y2="1307.6669921875"/>
    <g class="ff_offp_pre" transform="translate(657.2783203125,1307.6669921875)">
      <line class="ff_off_curve_x" x1="-8" x2="8" y1="-8" y2="8"/>
      <line class="ff_off_curve_x" x1="-8" x2="8" y1="8" y2="-8"/>
    </g>
  </g>
  <g class="ff_offp">
    <line class="ff_offp_post" x1="688.046875" x2="712.224609375" y1="1292.65625" y2="1280.8603515625"/>
    <g class="ff_offp_post" transform="translate(712.224609375,1280.8603515625)">
      <line class="ff_off_curve_x" x1="-8" x2="8" y1="-8" y2="8"/>
      <line class="ff_off_curve_x" x1="-8" x2="8" y1="8" y2="-8"/>
    </g>
  </g>
  <g class="ff_offp">
    <line class="ff_offp_pre" x1="764.986328125" x2="738.5048828125" y1="1273.4404296875" y2="1274.0029296875"/>
    <g class="ff_offp_pre" transform="translate(738.5048828125,1274.0029296875)">
      <line class="ff_off_curve_x" x1="-8" x2="8" y1="-8" y2="8"/>
      <line class="ff_off_curve_x" x1="-8" x2="8" y1="8" y2="-8"/>
    </g>
  </g>
  <g class="ff_offp">
    <line class="ff_offp_post" x1="764.986328125" x2="812.7919921875" y1="1273.4404296875" y2="1272.423828125"/>
    <g class="ff_offp_post" transform="translate(812.7919921875,1272.423828125)">
      <line class="ff_off_curve_x" x1="-8" x2="8" y1="-8" y2="8"/>
      <line class="ff_off_curve_x" x1="-8" x2="8" y1="8" y2="-8"/>
    </g>
  </g>
  <g class="ff_offp">
    <line class="ff_offp_pre" x1="908.0400390625" x2="861.2705078125" y1="1330.62890625" y2="1291.384765625"/>
    <g class="ff_offp_pre" transform="translate(861.2705078125,1291.384765625)">
      <line class="ff_off_curve_x" x1="-8" x2="8" y1="-8" y2="8"/>
      <line class="ff_off_curve_x" x1="-8" x2="8" y1="8" y2="-8"/>
    </g>
  </g>
  <g class="ff_offp">
    <line class="ff_offp_post" x1="908.0400390625" x2="922.4130859375" y1="1330.62890625" y2="1342.689453125"/>
    <g class="ff_offp_post" transform="translate(922.4130859375,1342.689453125)">
      <line class="ff_off_curve_x" x1="-8" x2="8" y1="-8" y2="8"/>
      <line class="ff_off_curve_x" x1="-8" x2="8" y1="8" y2="-8"/>
    </g>
  </g>
  <g class="ff_offp">
    <line class="ff_offp_pre" x1="950.6240234375" x2="936.6259765625" y1="1372.5185546875" y2="1356.654296875"/>
    <g class="ff_offp_pre" transform="translate(936.6259765625,1356.654296875)">
      <line class="ff_off_curve_x" x1="-8" x2="8" y1="-8" y2="8"/>
      <line class="ff_off_curve_x" x1="-8" x2="8" y1="8" y2="-8"/>
    </g>
  </g>
  <g class="ff_offp">
    <line class="ff_offp_post" x1="994.1943359375" x2="1008.30859375" y1="1421.8974609375" y2="1437.8525390625"/>
    <g class="ff_offp_post" transform="translate(1008.30859375,1437.8525390625)">
      <line class="ff_off_curve_x" x1="-8" x2="8" y1="-8" y2="8"/>
      <line class="ff_off_curve_x" x1="-8" x2="8" y1="8" y2="-8"/>
    </g>
  </g>
  <g class="ff_offp">
    <line class="ff_offp_pre" x1="1052.0322265625" x2="1028.9990234375" y1="1447.96875" y2="1447.96875"/>
    <g class="ff_offp_pre" transform="translate(1028.9990234375,1447.96875)">
      <line class="ff_off_curve_x" x1="-8" x2="8" y1="-8" y2="8"/>
      <line class="ff_off_curve_x" x1="-8" x2="8" y1="8" y2="-8"/>
    </g>
  </g>
  <g class="ff_offp">
    <line class="ff_offp_post" x1="1052.0322265625" x2="1094.6142578125" y1="1447.96875" y2="1447.96875"/>
    <g class="ff_offp_post" transform="translate(1094.6142578125,1447.96875)">
      <line class="ff_off_curve_x" x1="-8" x2="8" y1="-8" y2="8"/>
      <line class="ff_off_curve_x" x1="-8" x2="8" y1="8" y2="-8"/>
    </g>
  </g>
  <g class="ff_offp">
    <line class="ff_offp_pre" x1="1129.185546875" x2="1129.185546875" y1="1370.8154296875" y2="1413.3974609375"/>
    <g class="ff_offp_pre" transform="translate(1129.185546875,1413.3974609375)">
      <line class="ff_off_curve_x" x1="-8" x2="8" y1="-8" y2="8"/>
      <line class="ff_off_curve_x" x1="-8" x2="8" y1="8" y2="-8"/>
    </g>
  </g>
  <g class="ff_offp">
    <line class="ff_offp_post" x1="1129.185546875" x2="1129.185546875" y1="1370.8154296875" y2="1351.267578125"/>
    <g class="ff_offp_post" transform="translate(1129.185546875,1351.267578125)">
      <line class="ff_off_curve_x" x1="-8" x2="8" y1="-8" y2="8"/>
      <line class="ff_off_curve_x" x1="-8" x2="8" y1="8" y2="-8"/>
    </g>
  </g>
  <g class="ff_offp">
    <line class="ff_offp_pre" x1="1109.8974609375" x2="1121.8994140625" y1="1319.8056640625" y2="1333.408203125"/>
    <g class="ff_offp_pre" transform="translate(1121.8994140625,1333.408203125)">
      <line class="ff_off_curve_x" x1="-8" x2="8" y1="-8" y2="8"/>
      <line class="ff_off_curve_x" x1="-8" x2="8" y1="8" y2="-8"/>
    </g>
  </g>
  <g class="ff_offp">
    <line class="ff_offp_post" x1="1051.3759765625" x2="1037.2431640625" y1="1253.4814453125" y2="1237.46484375"/>
    <g class="ff_offp_post" transform="translate(1037.2431640625,1237.46484375)">
      <line class="ff_off_curve_x" x1="-8" x2="8" y1="-8" y2="8"/>
      <line class="ff_off_curve_x" x1="-8" x2="8" y1="8" y2="-8"/>
    </g>
  </g>
  <g class="ff_offp">
    <line class="ff_offp_pre" x1="1008.3154296875" x2="1022.875" y1="1211.1259765625" y2="1223.34375"/>
    <g class="ff_offp_pre" transform="translate(1022.875,1223.34375)">
      <line class="ff_off_curve_x" x1="-8" x2="8" y1="-8" y2="8"/>
      <line class="ff_off_curve_x" x1="-8" x2="8" y1="8" y2="-8"/>
    </g>
  </g>
  <g class="ff_offp">
    <line class="ff_offp_post" x1="1008.3154296875" x2="960.9775390625" y1="1211.1259765625" y2="1171.4052734375"/>
    <g class="ff_offp_post" transform="translate(960.9775390625,1171.4052734375)">
      <line class="ff_off_curve_x" x1="-8" x2="8" y1="-8" y2="8"/>
      <line class="ff_off_curve_x" x1="-8" x2="8" y1="8" y2="-8"/>
    </g>
  </g>
  <g class="ff_offp">
    <line class="ff_offp_pre" x1="861.30859375" x2="911.6298828125" y1="1152.763671875" y2="1151.693359375"/>
    <g class="ff_offp_pre" transform="translate(911.6298828125,1151.693359375)">
      <line class="ff_off_curve_x" x1="-8" x2="8" y1="-8" y2="8"/>
      <line class="ff_off_curve_x" x1="-8" x2="8" y1="8" y2="-8"/>
    </g>
  </g>
  <g class="ff_offp">
    <line class="ff_offp_post" x1="861.30859375" x2="833.2763671875" y1="1152.763671875" y2="1153.3603515625"/>
    <g class="ff_offp_post" transform="translate(833.2763671875,1153.3603515625)">
      <line class="ff_off_curve_x" x1="-8" x2="8" y1="-8" y2="8"/>
      <line class="ff_off_curve_x" x1="-8" x2="8" y1="8" y2="-8"/>
    </g>
  </g>
  <g class="ff_offp">
    <line class="ff_offp_pre" x1="775.0146484375" x2="804.94921875" y1="1174.845703125" y2="1160.2421875"/>
    <g class="ff_offp_pre" transform="translate(804.94921875,1160.2421875)">
      <line class="ff_off_curve_x" x1="-8" x2="8" y1="-8" y2="8"/>
      <line class="ff_off_curve_x" x1="-8" x2="8" y1="8" y2="-8"/>
    </g>
  </g>
  <g class="ff_offp">
    <line class="ff_offp_post" x1="775.0146484375" x2="738.142578125" y1="1174.845703125" y2="1192.833984375"/>
    <g class="ff_offp_post" transform="translate(738.142578125,1192.833984375)">
      <line class="ff_off_curve_x" x1="-8" x2="8" y1="-8" y2="8"/>
      <line class="ff_off_curve_x" x1="-8" x2="8" y1="8" y2="-8"/>
    </g>
  </g>
  <g class="ff_offp">
    <line class="ff_offp_pre" x1="631.1982421875" x2="695.5576171875" y1="1293.83203125" y2="1221.7783203125"/>
    <g class="ff_offp_pre" transform="translate(695.5576171875,1221.7783203125)">
      <line class="ff_off_curve_x" x1="-8" x2="8" y1="-8" y2="8"/>
      <line class="ff_off_curve_x" x1="-8" x2="8" y1="8" y2="-8"/>
    </g>
  </g>
  <g class="ff_offp">
    <line class="ff_offp_post" x1="612.6865234375" x2="610.59765625" y1="1314.5576171875" y2="1316.8955078125"/>
    <g class="ff_offp_post" transform="translate(610.59765625,1316.8955078125)">
      <line class="ff_off_curve_x" x1="-8" x2="8" y1="-8" y2="8"/>
      <line class="ff_off_curve_x" x1="-8" x2="8" y1="8" y2="-8"/>
    </g>
  </g>
  <g class="ff_offp">
    <line class="ff_offp_pre" x1="609.328125" x2="609.328125" y1="1323.357421875" y2="1319.9794921875"/>
    <g class="ff_offp_pre" transform="translate(609.328125,1319.9794921875)">
      <line class="ff_off_curve_x" x1="-8" x2="8" y1="-8" y2="8"/>
      <line class="ff_off_curve_x" x1="-8" x2="8" y1="8" y2="-8"/>
    </g>
  </g>
  <g class="ff_offp">
    <line class="ff_offp_post" x1="609.328125" x2="609.328125" y1="1323.357421875" y2="1330.65234375"/>
    <g class="ff_offp_post" transform="translate(609.328125,1330.65234375)">
      <line class="ff_off_curve_x" x1="-8" x2="8" y1="-8" y2="8"/>
      <line class="ff_off_curve_x" x1="-8" x2="8" y1="8" y2="-8"/>
    </g>
  </g>
  <g class="ff_offp">
    <line class="ff_offp_pre" x1="622.5458984375" x2="615.2509765625" y1="1336.57421875" y2="1336.57421875"/>
    <g class="ff_offp_pre" transform="translate(615.2509765625,1336.57421875)">
      <line class="ff_off_curve_x" x1="-8" x2="8" y1="-8" y2="8"/>
      <line class="ff_off_curve_x" x1="-8" x2="8" y1="8" y2="-8"/>
    </g>
  </g>
  <g class="ff_offp">
    <line class="ff_offp_post" x1="622.5458984375" x2="626.462890625" y1="1336.57421875" y2="1336.57421875"/>
    <g class="ff_offp_post" transform="translate(626.462890625,1336.57421875)">
      <line class="ff_off_curve_x" x1="-8" x2="8" y1="-8" y2="8"/>
      <line class="ff_off_curve_x" x1="-8" x2="8" y1="8" y2="-8"/>
    </g>
  </g>
  <g class="ff_offp">
    <line class="ff_offp_pre" x1="632.4013671875" x2="629.984375" y1="1332.16796875" y2="1334.8671875"/>
    <g class="ff_offp_pre" transform="translate(629.984375,1334.8671875)">
      <line class="ff_off_curve_x" x1="-8" x2="8" y1="-8" y2="8"/>
      <line class="ff_off_curve_x" x1="-8" x2="8" y1="8" y2="-8"/>
    </g>
  </g>
  <g>
    <polygon class="ff_onp ff_tangent ff_first" points="0,-9 9,0 0,9" transform="translate(632.4013671875,1059.16796875) rotate(311.8004602904374)"/>
    <g transform="translate(632.4013671875,1059.16796875) rotate(-48.19953970956257)">
      <line class="ff_arrow" x1="0" x2="10" y1="-10" y2="-10"/>
      <line class="ff_arrow" x1="10" x2="7" y1="-10" y2="-7"/>
      <line class="ff_arrow" x1="10" x2="7" y1="-10" y2="-13"/>
    </g>
  </g>
  <circle class="ff_onp ff_curve" cx="0" cy="0" r="7" transform="translate(688.046875,1019.65625)"/>
  <circle class="ff_onp ff_curve" cx="0" cy="0" r="7" transform="translate(764.986328125,1000.4404296875)"/>
  <circle class="ff_onp ff_curve" cx="0" cy="0" r="7" transform="translate(908.0400390625,1057.62890625)"/>
  <polygon class="ff_onp ff_tangent" points="0,-9 9,0 0,9" transform="translate(950.6240234375,1099.5185546875) rotate(228.57598442367953)"/>
  <polygon class="ff_onp ff_tangent" points="0,-9 9,0 0,9" transform="translate(977.552734375,1130.037109375) rotate(48.501261695912234)"/>
  <circle class="ff_onp ff_curve ff_extremum" cx="0" cy="0" r="7" transform="translate(1035.390625,1156.107421875)"/>
  <circle class="ff_onp ff_curve ff_extremum" cx="0" cy="0" r="7" transform="translate(1112.5439453125,1078.955078125)"/>
  <polygon class="ff_onp ff_tangent" points="0,-9 9,0 0,9" transform="translate(1093.255859375,1027.9453125) rotate(48.57701461638223)"/>
  <polygon class="ff_onp ff_tangent" points="0,-9 9,0 0,9" transform="translate(1051.3759765625,980.4814453125) rotate(228.57529451789887)"/>
  <circle class="ff_onp ff_curve" cx="0" cy="0" r="7" transform="translate(1008.3154296875,938.1259765625)"/>
  <circle class="ff_onp ff_curve" cx="0" cy="0" r="7" transform="translate(861.30859375,879.763671875)"/>
  <circle class="ff_onp ff_curve" cx="0" cy="0" r="7" transform="translate(775.0146484375,901.845703125)"/>
  <polygon class="ff_onp ff_tangent" points="0,-9 9,0 0,9" transform="translate(631.1982421875,1020.83203125) rotate(311.771670840572)"/>
  <polygon class="ff_onp ff_tangent" points="0,-9 9,0 0,9" transform="translate(587.3017578125,1069.9775390625) rotate(131.77885064718683)"/>
  <circle class="ff_onp ff_curve ff_extremum" cx="0" cy="0" r="7" transform="translate(583.9443359375,1078.7763671875)"/>
  <circle class="ff_onp ff_curve ff_extremum" cx="0" cy="0" r="7" transform="translate(597.1611328125,1091.994140625)"/>
  <polygon class="ff_onp ff_tangent" points="0,-9 9,0 0,9" transform="translate(607.017578125,1087.5869140625) rotate(131.85408417150657)"/>
  <g>
    <polygon class="ff_onp ff_tangent ff_first" points="0,-9 9,0 0,9" transform="translate(38.7900390625,1074.6171875) rotate(311.7713823535097)"/>
    <g transform="translate(38.7900390625,1074.6171875) rotate(-48.22861764649034)">
      <line class="ff_arrow" x1="0" x2="10" y1="-10" y2="-10"/>
      <line class="ff_arrow" x1="10" x2="7" y1="-10" y2="-7"/>
      <line class="ff_arrow" x1="10" x2="7" y1="-10" y2="-13"/>
    </g>
  </g>
  <circle class="ff_onp ff_curve ff_extremum" cx="0" cy="0" r="7" transform="translate(185.1162109375,992.0615234375)"/>
  <polygon class="ff_onp ff_tangent" points="0,-9 9,0 0,9" transform="translate(330.19921875,1074.3798828125) rotate(228.5766761030959)"/>
  <polygon class="ff_onp ff_tangent" points="0,-9 9,0 0,9" transform="translate(364.6201171875,1113.3896484375) rotate(48.49982611631961)"/>
  <circle class="ff_onp ff_curve ff_extremum" cx="0" cy="0" r="7" transform="translate(403.595703125,1130.9580078125)"/>
  <circle class="ff_onp ff_curve ff_extremum" cx="0" cy="0" r="7" transform="translate(455.5859375,1078.966796875)"/>
  <polygon class="ff_onp ff_tangent" points="0,-9 9,0 0,9" transform="translate(442.5888671875,1044.59375) rotate(48.575526800724504)"/>
  <polygon class="ff_onp ff_tangent" points="0,-9 9,0 0,9" transform="translate(408.2001953125,1005.6201171875) rotate(228.57673802452211)"/>
  <circle class="ff_onp ff_curve ff_extremum" cx="0" cy="0" r="7" transform="translate(185.1162109375,888.0615234375)"/>
  <polygon class="ff_onp ff_tangent" points="0,-9 9,0 0,9" transform="translate(-38.7900390625,1005.3828125) rotate(311.77152459038103)"/>
  <polygon class="ff_onp ff_tangent" points="0,-9 9,0 0,9" transform="translate(-73.4150390625,1044.1484375) rotate(131.77299528865828)"/>
  <circle class="ff_onp ff_curve ff_extremum" cx="0" cy="0" r="7" transform="translate(-86.623046875,1078.759765625)"/>
  <circle class="ff_onp ff_curve ff_extremum" cx="0" cy="0" r="7" transform="translate(-34.6328125,1130.75)"/>
  <polygon class="ff_onp ff_tangent" points="0,-9 9,0 0,9" transform="translate(4.134765625,1113.416015625) rotate(131.8477324343668)"/>
  <g>
    <polygon class="ff_onp ff_tangent ff_first" points="0,-9 9,0 0,9" transform="translate(38.7900390625,1346.3173828125) rotate(311.7713823535097)"/>
    <g transform="translate(38.7900390625,1346.3173828125) rotate(-48.22861764649034)">
      <line class="ff_arrow" x1="0" x2="10" y1="-10" y2="-10"/>
      <line class="ff_arrow" x1="10" x2="7" y1="-10" y2="-7"/>
      <line class="ff_arrow" x1="10" x2="7" y1="-10" y2="-13"/>
    </g>
  </g>
  <circle class="ff_onp ff_curve ff_extremum" cx="0" cy="0" r="7" transform="translate(185.1162109375,1263.76171875)"/>
  <polygon class="ff_onp ff_tangent" points="0,-9 9,0 0,9" transform="translate(330.19921875,1346.080078125) rotate(228.5766761030959)"/>
  <polygon class="ff_onp ff_tangent" points="0,-9 9,0 0,9" transform="translate(364.61328125,1385.0830078125) rotate(48.49982611631961)"/>
  <circle class="ff_onp ff_curve ff_extremum" cx="0" cy="0" r="7" transform="translate(403.5888671875,1402.650390625)"/>
  <circle class="ff_onp ff_curve ff_extremum" cx="0" cy="0" r="7" transform="translate(455.580078125,1350.66015625)"/>
  <polygon class="ff_onp ff_tangent" points="0,-9 9,0 0,9" transform="translate(442.5830078125,1316.2861328125) rotate(48.578959130115436)"/>
  <polygon class="ff_onp ff_tangent" points="0,-9 9,0 0,9" transform="translate(408.2001953125,1277.3203125) rotate(228.57673802452211)"/>
  <circle class="ff_onp ff_curve ff_extremum" cx="0" cy="0" r="7" transform="translate(185.1162109375,1159.76171875)"/>
  <polygon class="ff_onp ff_tangent" points="0,-9 9,0 0,9" transform="translate(-38.7900390625,1277.08203125) rotate(311.77152459038103)"/>
  <polygon class="ff_onp ff_tangent" points="0,-9 9,0 0,9" transform="translate(-73.4091796875,1315.8408203125) rotate(131.76997195893483)"/>
  <circle class="ff_onp ff_curve ff_extremum" cx="0" cy="0" r="7" transform="translate(-86.6171875,1350.4521484375)"/>
  <circle class="ff_onp ff_curve ff_extremum" cx="0" cy="0" r="7" transform="translate(-34.6259765625,1402.4423828125)"/>
  <polygon class="ff_onp ff_tangent" points="0,-9 9,0 0,9" transform="translate(4.140625,1385.1083984375) rotate(131.8477324343668)"/>
  <g>
    <circle class="ff_onp ff_curve ff_first" cx="0" cy="0" r="7" transform="translate(632.4013671875,1332.16796875)"/>
    <g transform="translate(632.4013671875,1332.16796875) rotate(-48.19953970956257)">
      <line class="ff_arrow" x1="0" x2="10" y1="-10" y2="-10"/>
      <line class="ff_arrow" x1="10" x2="7" y1="-10" y2="-7"/>
      <line class="ff_arrow" x1="10" x2="7" y1="-10" y2="-13"/>
    </g>
  </g>
  <circle class="ff_onp ff_curve" cx="0" cy="0" r="7" transform="translate(688.046875,1292.65625)"/>
  <circle class="ff_onp ff_curve" cx="0" cy="0" r="7" transform="translate(764.986328125,1273.4404296875)"/>
  <circle class="ff_onp ff_curve" cx="0" cy="0" r="7" transform="translate(908.0400390625,1330.62890625)"/>
  <polygon class="ff_onp ff_tangent" points="0,-9 9,0 0,9" transform="translate(950.6240234375,1372.5185546875) rotate(228.57598442367953)"/>
  <polygon class="ff_onp ff_tangent" points="0,-9 9,0 0,9" transform="translate(994.1943359375,1421.8974609375) rotate(48.50322897574142)"/>
  <circle class="ff_onp ff_curve ff_extremum" cx="0" cy="0" r="7" transform="translate(1052.0322265625,1447.96875)"/>
  <circle class="ff_onp ff_curve ff_extremum" cx="0" cy="0" r="7" transform="translate(1129.185546875,1370.8154296875)"/>
  <polygon class="ff_onp ff_tangent" points="0,-9 9,0 0,9" transform="translate(1109.8974609375,1319.8056640625) rotate(48.57701461638223)"/>
  <polygon class="ff_onp ff_tangent" points="0,-9 9,0 0,9" transform="translate(1051.3759765625,1253.4814453125) rotate(228.57529451789887)"/>
  <circle class="ff_onp ff_curve" cx="0" cy="0" r="7" transform="translate(1008.3154296875,1211.1259765625)"/>
  <circle class="ff_onp ff_curve" cx="0" cy="0" r="7" transform="translate(861.30859375,1152.763671875)"/>
  <circle class="ff_onp ff_curve" cx="0" cy="0" r="7" transform="translate(775.0146484375,1174.845703125)"/>
  <polygon class="ff_onp ff_tangent" points="0,-9 9,0 0,9" transform="translate(631.1982421875,1293.83203125) rotate(311.771670840572)"/>
  <polygon class="ff_onp ff_tangent" points="0,-9 9,0 0,9" transform="translate(612.6865234375,1314.5576171875) rotate(131.78026885624678)"/>
  <circle class="ff_onp ff_curve ff_extremum" cx="0" cy="0" r="7" transform="translate(609.328125,1323.357421875)"/>
  <circle class="ff_onp ff_curve ff_extremum" cx="0" cy="0" r="7" transform="translate(622.5458984375,1336.57421875)"/>
  <g>
    <circle class="ff_onp ff_curve ff_first" cx="0" cy="0" r="7" transform="translate(632.4013671875,1332.16796875)"/>
    <g transform="translate(632.4013671875,1332.16796875) rotate(-48.19953970956257)">
      <line class="ff_arrow" x1="0" x2="10" y1="-10" y2="-10"/>
      <line class="ff_arrow" x1="10" x2="7" y1="-10" y2="-7"/>
      <line class="ff_arrow" x1="10" x2="7" y1="-10" y2="-13"/>
    </g>
  </g>
  <path class="ff_main_background" d="M631.7998046875 1040.0C751.400390625 906.099609375 884.0 907.400390625 1001.0 1040.0M0.0 1040.0C119.599609375 906.099609375 252.2001953125 907.400390625 369.2001953125 1040.0M0.0 1311.7001953125C119.599609375 1177.7998046875 252.2001953125 1179.099609375 369.2001953125 1311.7001953125M631.7998046875 1313.0C751.400390625 1179.099609375 884.0 1180.400390625 1001.0 1313.0"/>
  <path class="ff_main_closed" d="M632.4013671875 1059.16796875C632.9951171875 1058.50390625 657.2783203125 1034.6669921875 688.046875 1019.65625C712.224609375 1007.8603515625 738.5048828125 1001.0029296875 764.986328125 1000.4404296875C812.7919921875 999.423828125 861.2705078125 1018.384765625 908.0400390625 1057.62890625C922.4130859375 1069.689453125 936.6259765625 1083.654296875 950.6240234375 1099.5185546875L977.552734375 1130.037109375C991.66796875 1145.9921875 1012.357421875 1156.107421875 1035.390625 1156.107421875C1077.97265625 1156.107421875 1112.5439453125 1121.537109375 1112.5439453125 1078.955078125C1112.5439453125 1059.4072265625 1105.2578125 1041.5478515625 1093.255859375 1027.9453125L1051.3759765625 980.4814453125C1037.2431640625 964.46484375 1022.875 950.34375 1008.3154296875 938.1259765625C960.9775390625 898.4052734375 911.6298828125 878.693359375 861.30859375 879.763671875C833.2763671875 880.3603515625 804.94921875 887.2421875 775.0146484375 901.845703125C738.142578125 919.833984375 695.5576171875 948.7783203125 631.1982421875 1020.83203125L587.3017578125 1069.9775390625C585.2138671875 1072.314453125 583.9443359375 1075.3984375 583.9443359375 1078.7763671875C583.9443359375 1086.0712890625 589.8662109375 1091.994140625 597.1611328125 1091.994140625C601.0791015625 1091.994140625 604.599609375 1090.2861328125 607.017578125 1087.5869140625 zM38.7900390625 1074.6171875C92.3701171875 1014.630859375 142.0634765625 992.0615234375 185.1162109375 992.0615234375C228.35546875 992.0615234375 277.638671875 1014.810546875 330.19921875 1074.3798828125L364.6201171875 1113.3896484375C374.1318359375 1124.140625 388.0732421875 1130.9580078125 403.595703125 1130.9580078125C432.2900390625 1130.9580078125 455.5859375 1107.6611328125 455.5859375 1078.966796875C455.5859375 1065.7939453125 450.6767578125 1053.759765625 442.5888671875 1044.59375L408.2001953125 1005.6201171875C343.4765625 932.265625 267.6357421875 888.0615234375 185.1162109375 888.0615234375C103.021484375 888.0615234375 26.9384765625 931.7958984375 -38.7900390625 1005.3828125L-73.4150390625 1044.1484375C-81.6279296875 1053.3427734375 -86.623046875 1065.47265625 -86.623046875 1078.759765625C-86.623046875 1107.453125 -63.3271484375 1130.75 -34.6328125 1130.75C-19.2255859375 1130.75 -5.3740234375 1124.033203125 4.134765625 1113.416015625 zM38.7900390625 1346.3173828125C92.3701171875 1286.3310546875 142.0634765625 1263.76171875 185.1162109375 1263.76171875C228.35546875 1263.76171875 277.638671875 1286.5107421875 330.19921875 1346.080078125L364.61328125 1385.0830078125C374.125 1395.833984375 388.0673828125 1402.650390625 403.5888671875 1402.650390625C432.283203125 1402.650390625 455.580078125 1379.3544921875 455.580078125 1350.66015625C455.580078125 1337.4873046875 450.669921875 1325.4521484375 442.5830078125 1316.2861328125L408.2001953125 1277.3203125C343.4765625 1203.9658203125 267.6357421875 1159.76171875 185.1162109375 1159.76171875C103.021484375 1159.76171875 26.9384765625 1203.4951171875 -38.7900390625 1277.08203125L-73.4091796875 1315.8408203125C-81.6220703125 1325.0361328125 -86.6171875 1337.1650390625 -86.6171875 1350.4521484375C-86.6171875 1379.146484375 -63.3203125 1402.4423828125 -34.6259765625 1402.4423828125C-19.21875 1402.4423828125 -5.3681640625 1395.7255859375 4.140625 1385.1083984375 zM632.4013671875 1332.16796875C632.9951171875 1331.50390625 657.2783203125 1307.6669921875 688.046875 1292.65625C712.224609375 1280.8603515625 738.5048828125 1274.0029296875 764.986328125 1273.4404296875C812.7919921875 1272.423828125 861.2705078125 1291.384765625 908.0400390625 1330.62890625C922.4130859375 1342.689453125 936.6259765625 1356.654296875 950.6240234375 1372.5185546875L994.1943359375 1421.8974609375C1008.30859375 1437.8525390625 1028.9990234375 1447.96875 1052.0322265625 1447.96875C1094.6142578125 1447.96875 1129.185546875 1413.3974609375 1129.185546875 1370.8154296875C1129.185546875 1351.267578125 1121.8994140625 1333.408203125 1109.8974609375 1319.8056640625L1051.3759765625 1253.4814453125C1037.2431640625 1237.46484375 1022.875 1223.34375 1008.3154296875 1211.1259765625C960.9775390625 1171.4052734375 911.6298828125 1151.693359375 861.30859375 1152.763671875C833.2763671875 1153.3603515625 804.94921875 1160.2421875 775.0146484375 1174.845703125C738.142578125 1192.833984375 695.5576171875 1221.7783203125 631.1982421875 1293.83203125L612.6865234375 1314.5576171875C610.59765625 1316.8955078125 609.328125 1319.9794921875 609.328125 1323.357421875C609.328125 1330.65234375 615.2509765625 1336.57421875 622.5458984375 1336.57421875C626.462890625 1336.57421875 629.984375 1334.8671875 632.4013671875 1332.16796875 z"/>
  <text class="ff_label" y="950" x="515">Extend Cap: 40 em</text>
  <text class="ff_label" y="1210" x="515">Extend Cap: 1 Cap-width</text>

</svg>
