<?xml version="1.0" encoding="utf-8" ?>
<?xml-stylesheet href="../ff_svg_fig.css" type="text/css" title="FontForge SVG stylesheet" alternate="no" media="screen"?>
<svg baseProfile="full" height="100%" version="1.1" viewBox="-194,719,1035,513" width="100%" xmlns="http://www.w3.org/2000/svg" xmlns:ev="http://www.w3.org/2001/xml-events" xmlns:xlink="http://www.w3.org/1999/xlink">
  <defs/>
  <g class="ff_offp">
    <line class="ff_offp_post" x1="-174.134765625" x2="-174.134765625" y1="1001.998046875" y2="933.5859375"/>
    <g class="ff_offp_post" transform="translate(-174.134765625,933.5859375)">
      <line class="ff_off_curve_x" x1="-8" x2="8" y1="-8" y2="8"/>
      <line class="ff_off_curve_x" x1="-8" x2="8" y1="8" y2="-8"/>
    </g>
  </g>
  <g class="ff_offp">
    <line class="ff_offp_pre" x1="-113.44921875" x2="-147.921875" y1="844.3828125" y2="878.85546875"/>
    <g class="ff_offp_pre" transform="translate(-147.921875,878.85546875)">
      <line class="ff_off_curve_x" x1="-8" x2="8" y1="-8" y2="8"/>
      <line class="ff_off_curve_x" x1="-8" x2="8" y1="8" y2="-8"/>
    </g>
  </g>
  <g class="ff_offp">
    <line class="ff_offp_post" x1="-45.5673828125" x2="-21.6806640625" y1="776.5" y2="752.61328125"/>
    <g class="ff_offp_post" transform="translate(-21.6806640625,752.61328125)">
      <line class="ff_off_curve_x" x1="-8" x2="8" y1="-8" y2="8"/>
      <line class="ff_off_curve_x" x1="-8" x2="8" y1="8" y2="-8"/>
    </g>
  </g>
  <g class="ff_offp">
    <line class="ff_offp_pre" x1="36.3408203125" x2="7.021484375" y1="738.5869140625" y2="738.5869140625"/>
    <g class="ff_offp_pre" transform="translate(7.021484375,738.5869140625)">
      <line class="ff_off_curve_x" x1="-8" x2="8" y1="-8" y2="8"/>
      <line class="ff_off_curve_x" x1="-8" x2="8" y1="8" y2="-8"/>
    </g>
  </g>
  <g class="ff_offp">
    <line class="ff_offp_post" x1="48.3408203125" x2="78.16796875" y1="738.5869140625" y2="738.5869140625"/>
    <g class="ff_offp_post" transform="translate(78.16796875,738.5869140625)">
      <line class="ff_off_curve_x" x1="-8" x2="8" y1="-8" y2="8"/>
      <line class="ff_off_curve_x" x1="-8" x2="8" y1="8" y2="-8"/>
    </g>
  </g>
  <g class="ff_offp">
    <line class="ff_offp_pre" x1="116.3515625" x2="98.6845703125" y1="767.9755859375" y2="750.30859375"/>
    <g class="ff_offp_pre" transform="translate(98.6845703125,750.30859375)">
      <line class="ff_off_curve_x" x1="-8" x2="8" y1="-8" y2="8"/>
      <line class="ff_off_curve_x" x1="-8" x2="8" y1="8" y2="-8"/>
    </g>
  </g>
  <g class="ff_offp">
    <line class="ff_offp_post" x1="129.080078125" x2="157.25" y1="780.7041015625" y2="808.8740234375"/>
    <g class="ff_offp_post" transform="translate(157.25,808.8740234375)">
      <line class="ff_off_curve_x" x1="-8" x2="8" y1="-8" y2="8"/>
      <line class="ff_off_curve_x" x1="-8" x2="8" y1="8" y2="-8"/>
    </g>
  </g>
  <g class="ff_offp">
    <line class="ff_offp_pre" x1="174.134765625" x2="174.134765625" y1="906.001953125" y2="854.6025390625"/>
    <g class="ff_offp_pre" transform="translate(174.134765625,854.6025390625)">
      <line class="ff_off_curve_x" x1="-8" x2="8" y1="-8" y2="8"/>
      <line class="ff_off_curve_x" x1="-8" x2="8" y1="8" y2="-8"/>
    </g>
  </g>
  <g class="ff_offp">
    <line class="ff_offp_post" x1="174.134765625" x2="174.134765625" y1="918.001953125" y2="986.4140625"/>
    <g class="ff_offp_post" transform="translate(174.134765625,986.4140625)">
      <line class="ff_off_curve_x" x1="-8" x2="8" y1="-8" y2="8"/>
      <line class="ff_off_curve_x" x1="-8" x2="8" y1="8" y2="-8"/>
    </g>
  </g>
  <g class="ff_offp">
    <line class="ff_offp_pre" x1="113.44921875" x2="147.921875" y1="1075.6171875" y2="1041.14453125"/>
    <g class="ff_offp_pre" transform="translate(147.921875,1041.14453125)">
      <line class="ff_off_curve_x" x1="-8" x2="8" y1="-8" y2="8"/>
      <line class="ff_off_curve_x" x1="-8" x2="8" y1="8" y2="-8"/>
    </g>
  </g>
  <g class="ff_offp">
    <line class="ff_offp_post" x1="45.5673828125" x2="21.6806640625" y1="1143.5" y2="1167.38671875"/>
    <g class="ff_offp_post" transform="translate(21.6806640625,1167.38671875)">
      <line class="ff_off_curve_x" x1="-8" x2="8" y1="-8" y2="8"/>
      <line class="ff_off_curve_x" x1="-8" x2="8" y1="8" y2="-8"/>
    </g>
  </g>
  <g class="ff_offp">
    <line class="ff_offp_pre" x1="-36.3408203125" x2="-7.021484375" y1="1181.4130859375" y2="1181.4130859375"/>
    <g class="ff_offp_pre" transform="translate(-7.021484375,1181.4130859375)">
      <line class="ff_off_curve_x" x1="-8" x2="8" y1="-8" y2="8"/>
      <line class="ff_off_curve_x" x1="-8" x2="8" y1="8" y2="-8"/>
    </g>
  </g>
  <g class="ff_offp">
    <line class="ff_offp_post" x1="-48.3408203125" x2="-78.16796875" y1="1181.4130859375" y2="1181.4130859375"/>
    <g class="ff_offp_post" transform="translate(-78.16796875,1181.4130859375)">
      <line class="ff_off_curve_x" x1="-8" x2="8" y1="-8" y2="8"/>
      <line class="ff_off_curve_x" x1="-8" x2="8" y1="8" y2="-8"/>
    </g>
  </g>
  <g class="ff_offp">
    <line class="ff_offp_pre" x1="-116.3515625" x2="-98.6845703125" y1="1152.0244140625" y2="1169.69140625"/>
    <g class="ff_offp_pre" transform="translate(-98.6845703125,1169.69140625)">
      <line class="ff_off_curve_x" x1="-8" x2="8" y1="-8" y2="8"/>
      <line class="ff_off_curve_x" x1="-8" x2="8" y1="8" y2="-8"/>
    </g>
  </g>
  <g class="ff_offp">
    <line class="ff_offp_post" x1="-129.080078125" x2="-157.25" y1="1139.2958984375" y2="1111.1259765625"/>
    <g class="ff_offp_post" transform="translate(-157.25,1111.1259765625)">
      <line class="ff_off_curve_x" x1="-8" x2="8" y1="-8" y2="8"/>
      <line class="ff_off_curve_x" x1="-8" x2="8" y1="8" y2="-8"/>
    </g>
  </g>
  <g class="ff_offp">
    <line class="ff_offp_pre" x1="-174.134765625" x2="-174.134765625" y1="1013.998046875" y2="1065.3974609375"/>
    <g class="ff_offp_pre" transform="translate(-174.134765625,1065.3974609375)">
      <line class="ff_off_curve_x" x1="-8" x2="8" y1="-8" y2="8"/>
      <line class="ff_off_curve_x" x1="-8" x2="8" y1="8" y2="-8"/>
    </g>
  </g>
  <g class="ff_offp">
    <line class="ff_offp_post" x1="12.599609375" x2="25.86328125" y1="1088.62109375" y2="1087.7900390625"/>
    <g class="ff_offp_post" transform="translate(25.86328125,1087.7900390625)">
      <line class="ff_off_curve_x" x1="-8" x2="8" y1="-8" y2="8"/>
      <line class="ff_off_curve_x" x1="-8" x2="8" y1="8" y2="-8"/>
    </g>
  </g>
  <g class="ff_offp">
    <line class="ff_offp_pre" x1="51.4443359375" x2="38.9423828125" y1="1078.017578125" y2="1084.1259765625"/>
    <g class="ff_offp_pre" transform="translate(38.9423828125,1084.1259765625)">
      <line class="ff_off_curve_x" x1="-8" x2="8" y1="-8" y2="8"/>
      <line class="ff_off_curve_x" x1="-8" x2="8" y1="8" y2="-8"/>
    </g>
  </g>
  <g class="ff_offp">
    <line class="ff_offp_post" x1="51.4443359375" x2="68.3271484375" y1="1078.017578125" y2="1048.12890625"/>
    <g class="ff_offp_post" transform="translate(68.3271484375,1048.12890625)">
      <line class="ff_off_curve_x" x1="-8" x2="8" y1="-8" y2="8"/>
      <line class="ff_off_curve_x" x1="-8" x2="8" y1="8" y2="-8"/>
    </g>
  </g>
  <g class="ff_offp">
    <line class="ff_offp_pre" x1="81.455078125" x2="80.4423828125" y1="967.158203125" y2="1011.267578125"/>
    <g class="ff_offp_pre" transform="translate(80.4423828125,1011.267578125)">
      <line class="ff_off_curve_x" x1="-8" x2="8" y1="-8" y2="8"/>
      <line class="ff_off_curve_x" x1="-8" x2="8" y1="8" y2="-8"/>
    </g>
  </g>
  <g class="ff_offp">
    <line class="ff_offp_post" x1="81.455078125" x2="79.9384765625" y1="967.158203125" y2="901.0927734375"/>
    <g class="ff_offp_post" transform="translate(79.9384765625,901.0927734375)">
      <line class="ff_off_curve_x" x1="-8" x2="8" y1="-8" y2="8"/>
      <line class="ff_off_curve_x" x1="-8" x2="8" y1="8" y2="-8"/>
    </g>
  </g>
  <g class="ff_offp">
    <line class="ff_offp_pre" x1="-12.599609375" x2="53.15625" y1="831.37890625" y2="835.26953125"/>
    <g class="ff_offp_pre" transform="translate(53.15625,835.26953125)">
      <line class="ff_off_curve_x" x1="-8" x2="8" y1="-8" y2="8"/>
      <line class="ff_off_curve_x" x1="-8" x2="8" y1="8" y2="-8"/>
    </g>
  </g>
  <g class="ff_offp">
    <line class="ff_offp_post" x1="-12.599609375" x2="-25.86328125" y1="831.37890625" y2="832.2099609375"/>
    <g class="ff_offp_post" transform="translate(-25.86328125,832.2099609375)">
      <line class="ff_off_curve_x" x1="-8" x2="8" y1="-8" y2="8"/>
      <line class="ff_off_curve_x" x1="-8" x2="8" y1="8" y2="-8"/>
    </g>
  </g>
  <g class="ff_offp">
    <line class="ff_offp_pre" x1="-51.4443359375" x2="-38.9423828125" y1="841.982421875" y2="835.8740234375"/>
    <g class="ff_offp_pre" transform="translate(-38.9423828125,835.8740234375)">
      <line class="ff_off_curve_x" x1="-8" x2="8" y1="-8" y2="8"/>
      <line class="ff_off_curve_x" x1="-8" x2="8" y1="8" y2="-8"/>
    </g>
  </g>
  <g class="ff_offp">
    <line class="ff_offp_post" x1="-51.4443359375" x2="-68.3271484375" y1="841.982421875" y2="871.87109375"/>
    <g class="ff_offp_post" transform="translate(-68.3271484375,871.87109375)">
      <line class="ff_off_curve_x" x1="-8" x2="8" y1="-8" y2="8"/>
      <line class="ff_off_curve_x" x1="-8" x2="8" y1="8" y2="-8"/>
    </g>
  </g>
  <g class="ff_offp">
    <line class="ff_offp_pre" x1="-81.455078125" x2="-80.4423828125" y1="952.841796875" y2="908.732421875"/>
    <g class="ff_offp_pre" transform="translate(-80.4423828125,908.732421875)">
      <line class="ff_off_curve_x" x1="-8" x2="8" y1="-8" y2="8"/>
      <line class="ff_off_curve_x" x1="-8" x2="8" y1="8" y2="-8"/>
    </g>
  </g>
  <g class="ff_offp">
    <line class="ff_offp_post" x1="-81.455078125" x2="-79.9384765625" y1="952.841796875" y2="1018.9072265625"/>
    <g class="ff_offp_post" transform="translate(-79.9384765625,1018.9072265625)">
      <line class="ff_off_curve_x" x1="-8" x2="8" y1="-8" y2="8"/>
      <line class="ff_off_curve_x" x1="-8" x2="8" y1="8" y2="-8"/>
    </g>
  </g>
  <g class="ff_offp">
    <line class="ff_offp_pre" x1="12.599609375" x2="-53.15625" y1="1088.62109375" y2="1084.73046875"/>
    <g class="ff_offp_pre" transform="translate(-53.15625,1084.73046875)">
      <line class="ff_off_curve_x" x1="-8" x2="8" y1="-8" y2="8"/>
      <line class="ff_off_curve_x" x1="-8" x2="8" y1="8" y2="-8"/>
    </g>
  </g>
  <g class="ff_offp">
    <line class="ff_offp_post" x1="695.4072265625" x2="668.0947265625" y1="750.765625" y2="752.4609375"/>
    <g class="ff_offp_post" transform="translate(668.0947265625,752.4609375)">
      <line class="ff_off_curve_x" x1="-8" x2="8" y1="-8" y2="8"/>
      <line class="ff_off_curve_x" x1="-8" x2="8" y1="8" y2="-8"/>
    </g>
  </g>
  <g class="ff_offp">
    <line class="ff_offp_pre" x1="619.232421875" x2="641.560546875" y1="788.5009765625" y2="766.1728515625"/>
    <g class="ff_offp_pre" transform="translate(641.560546875,766.1728515625)">
      <line class="ff_off_curve_x" x1="-8" x2="8" y1="-8" y2="8"/>
      <line class="ff_off_curve_x" x1="-8" x2="8" y1="8" y2="-8"/>
    </g>
  </g>
  <g class="ff_offp">
    <line class="ff_offp_post" x1="551.3505859375" x2="517.9248046875" y1="856.3828125" y2="889.8076171875"/>
    <g class="ff_offp_post" transform="translate(517.9248046875,889.8076171875)">
      <line class="ff_off_curve_x" x1="-8" x2="8" y1="-8" y2="8"/>
      <line class="ff_off_curve_x" x1="-8" x2="8" y1="8" y2="-8"/>
    </g>
  </g>
  <g class="ff_offp">
    <line class="ff_offp_pre" x1="490.7373046875" x2="492.265625" y1="1007.80078125" y2="942.279296875"/>
    <g class="ff_offp_pre" transform="translate(492.265625,942.279296875)">
      <line class="ff_off_curve_x" x1="-8" x2="8" y1="-8" y2="8"/>
      <line class="ff_off_curve_x" x1="-8" x2="8" y1="8" y2="-8"/>
    </g>
  </g>
  <g class="ff_offp">
    <line class="ff_offp_post" x1="490.7373046875" x2="491.9580078125" y1="1007.80078125" y2="1056.8291015625"/>
    <g class="ff_offp_post" transform="translate(491.9580078125,1056.8291015625)">
      <line class="ff_off_curve_x" x1="-8" x2="8" y1="-8" y2="8"/>
      <line class="ff_off_curve_x" x1="-8" x2="8" y1="8" y2="-8"/>
    </g>
  </g>
  <g class="ff_offp">
    <line class="ff_offp_pre" x1="535.720703125" x2="508.6142578125" y1="1127.296875" y2="1100.19140625"/>
    <g class="ff_offp_pre" transform="translate(508.6142578125,1100.19140625)">
      <line class="ff_off_curve_x" x1="-8" x2="8" y1="-8" y2="8"/>
      <line class="ff_off_curve_x" x1="-8" x2="8" y1="8" y2="-8"/>
    </g>
  </g>
  <g class="ff_offp">
    <line class="ff_offp_post" x1="548.4482421875" x2="564.8505859375" y1="1140.0244140625" y2="1156.4267578125"/>
    <g class="ff_offp_post" transform="translate(564.8505859375,1156.4267578125)">
      <line class="ff_off_curve_x" x1="-8" x2="8" y1="-8" y2="8"/>
      <line class="ff_off_curve_x" x1="-8" x2="8" y1="8" y2="-8"/>
    </g>
  </g>
  <g class="ff_offp">
    <line class="ff_offp_pre" x1="610.193359375" x2="583.708984375" y1="1169.234375" y2="1167.7041015625"/>
    <g class="ff_offp_pre" transform="translate(583.708984375,1167.7041015625)">
      <line class="ff_off_curve_x" x1="-8" x2="8" y1="-8" y2="8"/>
      <line class="ff_off_curve_x" x1="-8" x2="8" y1="8" y2="-8"/>
    </g>
  </g>
  <g class="ff_offp">
    <line class="ff_offp_post" x1="610.193359375" x2="637.5048828125" y1="1169.234375" y2="1167.5390625"/>
    <g class="ff_offp_post" transform="translate(637.5048828125,1167.5390625)">
      <line class="ff_off_curve_x" x1="-8" x2="8" y1="-8" y2="8"/>
      <line class="ff_off_curve_x" x1="-8" x2="8" y1="8" y2="-8"/>
    </g>
  </g>
  <g class="ff_offp">
    <line class="ff_offp_pre" x1="686.3671875" x2="664.0390625" y1="1131.4990234375" y2="1153.8271484375"/>
    <g class="ff_offp_pre" transform="translate(664.0390625,1153.8271484375)">
      <line class="ff_off_curve_x" x1="-8" x2="8" y1="-8" y2="8"/>
      <line class="ff_off_curve_x" x1="-8" x2="8" y1="8" y2="-8"/>
    </g>
  </g>
  <g class="ff_offp">
    <line class="ff_offp_post" x1="754.2490234375" x2="787.6748046875" y1="1063.6171875" y2="1030.1923828125"/>
    <g class="ff_offp_post" transform="translate(787.6748046875,1030.1923828125)">
      <line class="ff_off_curve_x" x1="-8" x2="8" y1="-8" y2="8"/>
      <line class="ff_off_curve_x" x1="-8" x2="8" y1="8" y2="-8"/>
    </g>
  </g>
  <g class="ff_offp">
    <line class="ff_offp_pre" x1="814.8623046875" x2="813.3349609375" y1="912.19921875" y2="977.720703125"/>
    <g class="ff_offp_pre" transform="translate(813.3349609375,977.720703125)">
      <line class="ff_off_curve_x" x1="-8" x2="8" y1="-8" y2="8"/>
      <line class="ff_off_curve_x" x1="-8" x2="8" y1="8" y2="-8"/>
    </g>
  </g>
  <g class="ff_offp">
    <line class="ff_offp_post" x1="814.8623046875" x2="813.642578125" y1="912.19921875" y2="863.1708984375"/>
    <g class="ff_offp_post" transform="translate(813.642578125,863.1708984375)">
      <line class="ff_off_curve_x" x1="-8" x2="8" y1="-8" y2="8"/>
      <line class="ff_off_curve_x" x1="-8" x2="8" y1="8" y2="-8"/>
    </g>
  </g>
  <g class="ff_offp">
    <line class="ff_offp_pre" x1="769.8798828125" x2="796.9853515625" y1="792.703125" y2="819.80859375"/>
    <g class="ff_offp_pre" transform="translate(796.9853515625,819.80859375)">
      <line class="ff_off_curve_x" x1="-8" x2="8" y1="-8" y2="8"/>
      <line class="ff_off_curve_x" x1="-8" x2="8" y1="8" y2="-8"/>
    </g>
  </g>
  <g class="ff_offp">
    <line class="ff_offp_post" x1="757.15234375" x2="740.75" y1="779.9755859375" y2="763.5732421875"/>
    <g class="ff_offp_post" transform="translate(740.75,763.5732421875)">
      <line class="ff_off_curve_x" x1="-8" x2="8" y1="-8" y2="8"/>
      <line class="ff_off_curve_x" x1="-8" x2="8" y1="8" y2="-8"/>
    </g>
  </g>
  <g class="ff_offp">
    <line class="ff_offp_pre" x1="695.4072265625" x2="721.8916015625" y1="750.765625" y2="752.2958984375"/>
    <g class="ff_offp_pre" transform="translate(721.8916015625,752.2958984375)">
      <line class="ff_off_curve_x" x1="-8" x2="8" y1="-8" y2="8"/>
      <line class="ff_off_curve_x" x1="-8" x2="8" y1="8" y2="-8"/>
    </g>
  </g>
  <g class="ff_offp">
    <line class="ff_offp_post" x1="746.32421875" x2="746.32421875" y1="973.15625" y2="1019.93359375"/>
    <g class="ff_offp_post" transform="translate(746.32421875,1019.93359375)">
      <line class="ff_off_curve_x" x1="-8" x2="8" y1="-8" y2="8"/>
      <line class="ff_off_curve_x" x1="-8" x2="8" y1="8" y2="-8"/>
    </g>
  </g>
  <g class="ff_offp">
    <line class="ff_offp_pre" x1="716.2451171875" x2="733.88671875" y1="1090.0185546875" y2="1058.783203125"/>
    <g class="ff_offp_pre" transform="translate(733.88671875,1058.783203125)">
      <line class="ff_off_curve_x" x1="-8" x2="8" y1="-8" y2="8"/>
      <line class="ff_off_curve_x" x1="-8" x2="8" y1="8" y2="-8"/>
    </g>
  </g>
  <g class="ff_offp">
    <line class="ff_offp_post" x1="716.2451171875" x2="701.927734375" y1="1090.0185546875" y2="1097.01171875"/>
    <g class="ff_offp_post" transform="translate(701.927734375,1097.01171875)">
      <line class="ff_off_curve_x" x1="-8" x2="8" y1="-8" y2="8"/>
      <line class="ff_off_curve_x" x1="-8" x2="8" y1="8" y2="-8"/>
    </g>
  </g>
  <g class="ff_offp">
    <line class="ff_offp_pre" x1="671.6142578125" x2="686.8544921875" y1="1100.802734375" y2="1100.802734375"/>
    <g class="ff_offp_pre" transform="translate(686.8544921875,1100.802734375)">
      <line class="ff_off_curve_x" x1="-8" x2="8" y1="-8" y2="8"/>
      <line class="ff_off_curve_x" x1="-8" x2="8" y1="8" y2="-8"/>
    </g>
  </g>
  <g class="ff_offp">
    <line class="ff_offp_post" x1="659.6142578125" x2="587.26171875" y1="1100.802734375" y2="1100.802734375"/>
    <g class="ff_offp_post" transform="translate(587.26171875,1100.802734375)">
      <line class="ff_off_curve_x" x1="-8" x2="8" y1="-8" y2="8"/>
      <line class="ff_off_curve_x" x1="-8" x2="8" y1="8" y2="-8"/>
    </g>
  </g>
  <g class="ff_offp">
    <line class="ff_offp_pre" x1="559.2763671875" x2="559.2763671875" y1="958.84375" y2="1028.9072265625"/>
    <g class="ff_offp_pre" transform="translate(559.2763671875,1028.9072265625)">
      <line class="ff_off_curve_x" x1="-8" x2="8" y1="-8" y2="8"/>
      <line class="ff_off_curve_x" x1="-8" x2="8" y1="8" y2="-8"/>
    </g>
  </g>
  <g class="ff_offp">
    <line class="ff_offp_post" x1="559.2763671875" x2="559.2763671875" y1="946.84375" y2="900.06640625"/>
    <g class="ff_offp_post" transform="translate(559.2763671875,900.06640625)">
      <line class="ff_off_curve_x" x1="-8" x2="8" y1="-8" y2="8"/>
      <line class="ff_off_curve_x" x1="-8" x2="8" y1="8" y2="-8"/>
    </g>
  </g>
  <g class="ff_offp">
    <line class="ff_offp_pre" x1="589.3544921875" x2="571.712890625" y1="829.9814453125" y2="861.216796875"/>
    <g class="ff_offp_pre" transform="translate(571.712890625,861.216796875)">
      <line class="ff_off_curve_x" x1="-8" x2="8" y1="-8" y2="8"/>
      <line class="ff_off_curve_x" x1="-8" x2="8" y1="8" y2="-8"/>
    </g>
  </g>
  <g class="ff_offp">
    <line class="ff_offp_post" x1="589.3544921875" x2="603.6728515625" y1="829.9814453125" y2="822.98828125"/>
    <g class="ff_offp_post" transform="translate(603.6728515625,822.98828125)">
      <line class="ff_off_curve_x" x1="-8" x2="8" y1="-8" y2="8"/>
      <line class="ff_off_curve_x" x1="-8" x2="8" y1="8" y2="-8"/>
    </g>
  </g>
  <g class="ff_offp">
    <line class="ff_offp_pre" x1="633.9853515625" x2="618.7451171875" y1="819.197265625" y2="819.197265625"/>
    <g class="ff_offp_pre" transform="translate(618.7451171875,819.197265625)">
      <line class="ff_off_curve_x" x1="-8" x2="8" y1="-8" y2="8"/>
      <line class="ff_off_curve_x" x1="-8" x2="8" y1="8" y2="-8"/>
    </g>
  </g>
  <g class="ff_offp">
    <line class="ff_offp_post" x1="645.9853515625" x2="718.337890625" y1="819.197265625" y2="819.197265625"/>
    <g class="ff_offp_post" transform="translate(718.337890625,819.197265625)">
      <line class="ff_off_curve_x" x1="-8" x2="8" y1="-8" y2="8"/>
      <line class="ff_off_curve_x" x1="-8" x2="8" y1="8" y2="-8"/>
    </g>
  </g>
  <g class="ff_offp">
    <line class="ff_offp_pre" x1="746.32421875" x2="746.32421875" y1="961.15625" y2="891.0927734375"/>
    <g class="ff_offp_pre" transform="translate(746.32421875,891.0927734375)">
      <line class="ff_off_curve_x" x1="-8" x2="8" y1="-8" y2="8"/>
      <line class="ff_off_curve_x" x1="-8" x2="8" y1="8" y2="-8"/>
    </g>
  </g>
  <g>
    <polygon class="ff_onp ff_tangent ff_first" points="0,-9 9,0 0,9" transform="translate(-174.134765625,1001.998046875) rotate(270.0)"/>
    <g transform="translate(-174.134765625,1001.998046875) rotate(-90.0)">
      <line class="ff_arrow" x1="0" x2="10" y1="-10" y2="-10"/>
      <line class="ff_arrow" x1="10" x2="7" y1="-10" y2="-7"/>
      <line class="ff_arrow" x1="10" x2="7" y1="-10" y2="-13"/>
    </g>
  </g>
  <polygon class="ff_onp ff_tangent" points="0,-9 9,0 0,9" transform="translate(-113.44921875,844.3828125) rotate(135.0)"/>
  <polygon class="ff_onp ff_tangent" points="0,-9 9,0 0,9" transform="translate(-45.5673828125,776.5) rotate(315.0)"/>
  <polygon class="ff_onp ff_tangent" points="0,-9 9,0 0,9" transform="translate(36.3408203125,738.5869140625) rotate(180.0)"/>
  <polygon class="ff_onp ff_tangent" points="0,-9 9,0 0,9" transform="translate(48.3408203125,738.5869140625) rotate(360.0)"/>
  <polygon class="ff_onp ff_tangent" points="0,-9 9,0 0,9" transform="translate(116.3515625,767.9755859375) rotate(225.0)"/>
  <polygon class="ff_onp ff_tangent" points="0,-9 9,0 0,9" transform="translate(129.080078125,780.7041015625) rotate(45.0)"/>
  <polygon class="ff_onp ff_tangent" points="0,-9 9,0 0,9" transform="translate(174.134765625,906.001953125) rotate(270.0)"/>
  <polygon class="ff_onp ff_tangent" points="0,-9 9,0 0,9" transform="translate(174.134765625,918.001953125) rotate(90.0)"/>
  <polygon class="ff_onp ff_tangent" points="0,-9 9,0 0,9" transform="translate(113.44921875,1075.6171875) rotate(315.0)"/>
  <polygon class="ff_onp ff_tangent" points="0,-9 9,0 0,9" transform="translate(45.5673828125,1143.5) rotate(135.0)"/>
  <polygon class="ff_onp ff_tangent" points="0,-9 9,0 0,9" transform="translate(-36.3408203125,1181.4130859375) rotate(360.0)"/>
  <polygon class="ff_onp ff_tangent" points="0,-9 9,0 0,9" transform="translate(-48.3408203125,1181.4130859375) rotate(180.0)"/>
  <polygon class="ff_onp ff_tangent" points="0,-9 9,0 0,9" transform="translate(-116.3515625,1152.0244140625) rotate(45.0)"/>
  <polygon class="ff_onp ff_tangent" points="0,-9 9,0 0,9" transform="translate(-129.080078125,1139.2958984375) rotate(225.0)"/>
  <polygon class="ff_onp ff_tangent" points="0,-9 9,0 0,9" transform="translate(-174.134765625,1013.998046875) rotate(90.0)"/>
  <g>
    <circle class="ff_onp ff_curve ff_first ff_extremum" cx="0" cy="0" r="7" transform="translate(12.599609375,1088.62109375)"/>
    <g transform="translate(12.599609375,1088.62109375) rotate(-3.5852637373900262)">
      <line class="ff_arrow" x1="0" x2="10" y1="-10" y2="-10"/>
      <line class="ff_arrow" x1="10" x2="7" y1="-10" y2="-7"/>
      <line class="ff_arrow" x1="10" x2="7" y1="-10" y2="-13"/>
    </g>
  </g>
  <rect class="ff_onp ff_corner" height="12" transform="translate(51.4443359375,1078.017578125)" width="12" x="-6" y="-6"/>
  <circle class="ff_onp ff_curve ff_extremum" cx="0" cy="0" r="7" transform="translate(81.455078125,967.158203125)"/>
  <circle class="ff_onp ff_curve ff_extremum" cx="0" cy="0" r="7" transform="translate(-12.599609375,831.37890625)"/>
  <rect class="ff_onp ff_corner" height="12" transform="translate(-51.4443359375,841.982421875)" width="12" x="-6" y="-6"/>
  <circle class="ff_onp ff_curve ff_extremum" cx="0" cy="0" r="7" transform="translate(-81.455078125,952.841796875)"/>
  <g>
    <circle class="ff_onp ff_curve ff_first ff_extremum" cx="0" cy="0" r="7" transform="translate(12.599609375,1088.62109375)"/>
    <g transform="translate(12.599609375,1088.62109375) rotate(-3.5852637373900262)">
      <line class="ff_arrow" x1="0" x2="10" y1="-10" y2="-10"/>
      <line class="ff_arrow" x1="10" x2="7" y1="-10" y2="-7"/>
      <line class="ff_arrow" x1="10" x2="7" y1="-10" y2="-13"/>
    </g>
  </g>
  <g>
    <circle class="ff_onp ff_curve ff_first ff_extremum" cx="0" cy="0" r="7" transform="translate(695.4072265625,750.765625)"/>
    <g transform="translate(695.4072265625,750.765625) rotate(176.4481540517044)">
      <line class="ff_arrow" x1="0" x2="10" y1="-10" y2="-10"/>
      <line class="ff_arrow" x1="10" x2="7" y1="-10" y2="-7"/>
      <line class="ff_arrow" x1="10" x2="7" y1="-10" y2="-13"/>
    </g>
  </g>
  <polygon class="ff_onp ff_tangent" points="0,-9 9,0 0,9" transform="translate(619.232421875,788.5009765625) rotate(315.0)"/>
  <polygon class="ff_onp ff_tangent" points="0,-9 9,0 0,9" transform="translate(551.3505859375,856.3828125) rotate(135.00083698458124)"/>
  <circle class="ff_onp ff_curve ff_extremum" cx="0" cy="0" r="7" transform="translate(490.7373046875,1007.80078125)"/>
  <polygon class="ff_onp ff_tangent" points="0,-9 9,0 0,9" transform="translate(535.720703125,1127.296875) rotate(224.99896788536907)"/>
  <polygon class="ff_onp ff_tangent" points="0,-9 9,0 0,9" transform="translate(548.4482421875,1140.0244140625) rotate(45.0)"/>
  <circle class="ff_onp ff_curve ff_extremum" cx="0" cy="0" r="7" transform="translate(610.193359375,1169.234375)"/>
  <polygon class="ff_onp ff_tangent" points="0,-9 9,0 0,9" transform="translate(686.3671875,1131.4990234375) rotate(135.0)"/>
  <polygon class="ff_onp ff_tangent" points="0,-9 9,0 0,9" transform="translate(754.2490234375,1063.6171875) rotate(315.00083698458127)"/>
  <circle class="ff_onp ff_curve ff_extremum" cx="0" cy="0" r="7" transform="translate(814.8623046875,912.19921875)"/>
  <polygon class="ff_onp ff_tangent" points="0,-9 9,0 0,9" transform="translate(769.8798828125,792.703125) rotate(45.0)"/>
  <polygon class="ff_onp ff_tangent" points="0,-9 9,0 0,9" transform="translate(757.15234375,779.9755859375) rotate(225.0)"/>
  <g>
    <circle class="ff_onp ff_curve ff_first ff_extremum" cx="0" cy="0" r="7" transform="translate(695.4072265625,750.765625)"/>
    <g transform="translate(695.4072265625,750.765625) rotate(176.4481540517044)">
      <line class="ff_arrow" x1="0" x2="10" y1="-10" y2="-10"/>
      <line class="ff_arrow" x1="10" x2="7" y1="-10" y2="-7"/>
      <line class="ff_arrow" x1="10" x2="7" y1="-10" y2="-13"/>
    </g>
  </g>
  <g>
    <polygon class="ff_onp ff_tangent ff_first" points="0,-9 9,0 0,9" transform="translate(746.32421875,973.15625) rotate(90.0)"/>
    <g transform="translate(746.32421875,973.15625) rotate(90.0)">
      <line class="ff_arrow" x1="0" x2="10" y1="-10" y2="-10"/>
      <line class="ff_arrow" x1="10" x2="7" y1="-10" y2="-7"/>
      <line class="ff_arrow" x1="10" x2="7" y1="-10" y2="-13"/>
    </g>
  </g>
  <rect class="ff_onp ff_corner" height="12" transform="translate(716.2451171875,1090.0185546875)" width="12" x="-6" y="-6"/>
  <polygon class="ff_onp ff_tangent" points="0,-9 9,0 0,9" transform="translate(671.6142578125,1100.802734375) rotate(360.0)"/>
  <polygon class="ff_onp ff_tangent" points="0,-9 9,0 0,9" transform="translate(659.6142578125,1100.802734375) rotate(180.0)"/>
  <polygon class="ff_onp ff_tangent" points="0,-9 9,0 0,9" transform="translate(559.2763671875,958.84375) rotate(90.0)"/>
  <polygon class="ff_onp ff_tangent" points="0,-9 9,0 0,9" transform="translate(559.2763671875,946.84375) rotate(270.0)"/>
  <rect class="ff_onp ff_corner" height="12" transform="translate(589.3544921875,829.9814453125)" width="12" x="-6" y="-6"/>
  <polygon class="ff_onp ff_tangent" points="0,-9 9,0 0,9" transform="translate(633.9853515625,819.197265625) rotate(180.0)"/>
  <polygon class="ff_onp ff_tangent" points="0,-9 9,0 0,9" transform="translate(645.9853515625,819.197265625) rotate(360.0)"/>
  <polygon class="ff_onp ff_tangent" points="0,-9 9,0 0,9" transform="translate(746.32421875,961.15625) rotate(270.0)"/>
  <path class="ff_main_background" d="M-168.134765625 1007.998046875C-168.134765625 939.5859375 -141.921875 884.85546875 -107.44921875 850.3828125L-39.5673828125 782.5C-15.6806640625 758.61328125 13.021484375 744.5869140625 42.3408203125 744.5869140625C72.16796875 744.5869140625 92.6845703125 756.30859375 110.3515625 773.9755859375L123.080078125 786.7041015625C151.25 814.8740234375 168.134765625 860.6025390625 168.134765625 912.001953125C168.134765625 980.4140625 141.921875 1035.14453125 107.44921875 1069.6171875L39.5673828125 1137.5C15.6806640625 1161.38671875 -13.021484375 1175.4130859375 -42.3408203125 1175.4130859375C-72.16796875 1175.4130859375 -92.6845703125 1163.69140625 -110.3515625 1146.0244140625L-123.080078125 1133.2958984375C-151.25 1105.1259765625 -168.134765625 1059.3974609375 -168.134765625 1007.998046875 zM87.5244140625 967.15625C87.5244140625 897.091796875 59.5380859375 825.197265625 -12.8134765625 825.197265625C-28.0537109375 825.197265625 -43.1279296875 828.9873046875 -57.4443359375 835.982421875C-75.0869140625 867.216796875 -87.5244140625 906.06640625 -87.5244140625 952.84375C-87.5244140625 1022.908203125 -59.5380859375 1094.802734375 12.8134765625 1094.802734375C28.0537109375 1094.802734375 43.1279296875 1091.0126953125 57.4443359375 1084.017578125C75.0869140625 1052.783203125 87.5244140625 1013.93359375 87.5244140625 967.15625 zM484.6650390625 1007.998046875C484.6650390625 939.5859375 510.8779296875 884.8544921875 545.3505859375 850.3828125L613.232421875 782.5009765625C637.1201171875 758.61328125 665.822265625 744.5869140625 695.1396484375 744.5869140625C724.9677734375 744.5869140625 745.484375 756.30859375 763.15234375 773.9755859375L775.8798828125 786.703125C804.05078125 814.8740234375 820.9345703125 860.6025390625 820.9345703125 912.001953125C820.9345703125 980.4140625 794.72265625 1035.1455078125 760.2490234375 1069.6171875L692.3671875 1137.4990234375C668.4794921875 1161.38671875 639.7783203125 1175.4130859375 610.4599609375 1175.4130859375C580.6328125 1175.4130859375 560.115234375 1163.69140625 542.4482421875 1146.0244140625L529.720703125 1133.296875C501.5498046875 1105.1259765625 484.6650390625 1059.3974609375 484.6650390625 1007.998046875 zM740.32421875 967.15625C740.32421875 897.0927734375 712.337890625 825.197265625 639.9853515625 825.197265625C624.7451171875 825.197265625 609.6728515625 828.98828125 595.3544921875 835.9814453125C577.712890625 867.216796875 565.2763671875 906.06640625 565.2763671875 952.84375C565.2763671875 1022.9072265625 593.26171875 1094.802734375 665.6142578125 1094.802734375C680.8544921875 1094.802734375 695.927734375 1091.01171875 710.2451171875 1084.0185546875C727.88671875 1052.783203125 740.32421875 1013.93359375 740.32421875 967.15625 z"/>
  <path class="ff_main_closed" d="M-174.134765625 1001.998046875C-174.134765625 933.5859375 -147.921875 878.85546875 -113.44921875 844.3828125L-45.5673828125 776.5C-21.6806640625 752.61328125 7.021484375 738.5869140625 36.3408203125 738.5869140625L48.3408203125 738.5869140625C78.16796875 738.5869140625 98.6845703125 750.30859375 116.3515625 767.9755859375L129.080078125 780.7041015625C157.25 808.8740234375 174.134765625 854.6025390625 174.134765625 906.001953125L174.134765625 918.001953125C174.134765625 986.4140625 147.921875 1041.14453125 113.44921875 1075.6171875L45.5673828125 1143.5C21.6806640625 1167.38671875 -7.021484375 1181.4130859375 -36.3408203125 1181.4130859375L-48.3408203125 1181.4130859375C-78.16796875 1181.4130859375 -98.6845703125 1169.69140625 -116.3515625 1152.0244140625L-129.080078125 1139.2958984375C-157.25 1111.1259765625 -174.134765625 1065.3974609375 -174.134765625 1013.998046875 zM12.599609375 1088.62109375C25.86328125 1087.7900390625 38.9423828125 1084.1259765625 51.4443359375 1078.017578125C68.3271484375 1048.12890625 80.4423828125 1011.267578125 81.455078125 967.158203125C79.9384765625 901.0927734375 53.15625 835.26953125 -12.599609375 831.37890625C-25.86328125 832.2099609375 -38.9423828125 835.8740234375 -51.4443359375 841.982421875C-68.3271484375 871.87109375 -80.4423828125 908.732421875 -81.455078125 952.841796875C-79.9384765625 1018.9072265625 -53.15625 1084.73046875 12.599609375 1088.62109375 zM695.4072265625 750.765625C668.0947265625 752.4609375 641.560546875 766.1728515625 619.232421875 788.5009765625L551.3505859375 856.3828125C517.9248046875 889.8076171875 492.265625 942.279296875 490.7373046875 1007.80078125C491.9580078125 1056.8291015625 508.6142578125 1100.19140625 535.720703125 1127.296875L548.4482421875 1140.0244140625C564.8505859375 1156.4267578125 583.708984375 1167.7041015625 610.193359375 1169.234375C637.5048828125 1167.5390625 664.0390625 1153.8271484375 686.3671875 1131.4990234375L754.2490234375 1063.6171875C787.6748046875 1030.1923828125 813.3349609375 977.720703125 814.8623046875 912.19921875C813.642578125 863.1708984375 796.9853515625 819.80859375 769.8798828125 792.703125L757.15234375 779.9755859375C740.75 763.5732421875 721.8916015625 752.2958984375 695.4072265625 750.765625 zM746.32421875 973.15625C746.32421875 1019.93359375 733.88671875 1058.783203125 716.2451171875 1090.0185546875C701.927734375 1097.01171875 686.8544921875 1100.802734375 671.6142578125 1100.802734375L659.6142578125 1100.802734375C587.26171875 1100.802734375 559.2763671875 1028.9072265625 559.2763671875 958.84375L559.2763671875 946.84375C559.2763671875 900.06640625 571.712890625 861.216796875 589.3544921875 829.9814453125C603.6728515625 822.98828125 618.7451171875 819.197265625 633.9853515625 819.197265625L645.9853515625 819.197265625C718.337890625 819.197265625 746.32421875 891.0927734375 746.32421875 961.15625 z"/>
<text class="ff_label" y="1220" x="20">External Only</text>
<text class="ff_label" y="1220" x="660">Internal Only</text>
</svg>
