<?xml version="1.0" encoding="utf-8" ?>
<?xml-stylesheet href="../ff_svg_fig.css" type="text/css" title="FontForge SVG stylesheet" alternate="no" media="screen"?>
<svg baseProfile="full" height="100%" version="1.1" viewBox="-1027,400,877,348" width="100%" xmlns="http://www.w3.org/2000/svg" xmlns:ev="http://www.w3.org/2001/xml-events" xmlns:xlink="http://www.w3.org/1999/xlink">
  <defs/>
  <g class="ff_offp">
    <line class="ff_offp_post" x1="-826.1630859375" x2="-928.7509765625" y1="427.349609375" y2="517.8681640625"/>
    <g class="ff_offp_post" transform="translate(-928.7509765625,517.8681640625)">
      <line class="ff_off_curve_x" x1="-8" x2="8" y1="-8" y2="8"/>
      <line class="ff_off_curve_x" x1="-8" x2="8" y1="8" y2="-8"/>
    </g>
  </g>
  <g class="ff_offp">
    <line class="ff_offp_pre" x1="-1007.1923828125" x2="-992.1796875" y1="726.0" y2="618.9638671875"/>
    <g class="ff_offp_pre" transform="translate(-992.1796875,618.9638671875)">
      <line class="ff_off_curve_x" x1="-8" x2="8" y1="-8" y2="8"/>
      <line class="ff_off_curve_x" x1="-8" x2="8" y1="8" y2="-8"/>
    </g>
  </g>
  <g class="ff_offp">
    <line class="ff_offp_post" x1="-895.6337890625" x2="-883.138671875" y1="726.0" y2="664.3779296875"/>
    <g class="ff_offp_post" transform="translate(-883.138671875,664.3779296875)">
      <line class="ff_off_curve_x" x1="-8" x2="8" y1="-8" y2="8"/>
      <line class="ff_off_curve_x" x1="-8" x2="8" y1="8" y2="-8"/>
    </g>
  </g>
  <g class="ff_offp">
    <line class="ff_offp_pre" x1="-780.8583984375" x2="-846.7900390625" y1="535.3759765625" y2="600.28515625"/>
    <g class="ff_offp_pre" transform="translate(-846.7900390625,600.28515625)">
      <line class="ff_off_curve_x" x1="-8" x2="8" y1="-8" y2="8"/>
      <line class="ff_off_curve_x" x1="-8" x2="8" y1="8" y2="-8"/>
    </g>
  </g>
  <rect class="ff_onp ff_corner ff_extremum" height="12" transform="translate(-780.8955078125,535.17578125)" width="12" x="-6" y="-6"/>
  <rect class="ff_onp ff_corner ff_extremum" height="12" transform="translate(-413.599609375,725.625)" width="12" x="-6" y="-6"/>
  <g>
    <rect class="ff_onp ff_corner ff_first ff_extremum" height="12" transform="translate(-170.5380859375,727.740234375)" width="12" x="-6" y="-6"/>
    <g transform="translate(-170.5380859375,727.740234375) rotate(-152.5924245621816)">
      <line class="ff_arrow" x1="0" x2="10" y1="-10" y2="-10"/>
      <line class="ff_arrow" x1="10" x2="7" y1="-10" y2="-7"/>
      <line class="ff_arrow" x1="10" x2="7" y1="-10" y2="-13"/>
    </g>
  </g>
  <rect class="ff_onp ff_corner ff_extremum" height="12" transform="translate(-764.5380859375,419.740234375)" width="12" x="-6" y="-6"/>
  <g>
    <rect class="ff_onp ff_corner ff_first ff_extremum" height="12" transform="translate(-826.1630859375,427.349609375)" width="12" x="-6" y="-6"/>
    <g transform="translate(-826.1630859375,427.349609375) rotate(138.5763884920324)">
      <line class="ff_arrow" x1="0" x2="10" y1="-10" y2="-10"/>
      <line class="ff_arrow" x1="10" x2="7" y1="-10" y2="-7"/>
      <line class="ff_arrow" x1="10" x2="7" y1="-10" y2="-13"/>
    </g>
  </g>
  <rect class="ff_onp ff_corner ff_extremum" height="12" transform="translate(-1007.1923828125,726.0)" width="12" x="-6" y="-6"/>
  <g>
    <rect class="ff_onp ff_corner ff_first ff_extremum" height="12" transform="translate(-895.6337890625,726.0)" width="12" x="-6" y="-6"/>
    <g transform="translate(-895.6337890625,726.0) rotate(-78.53753510748317)">
      <line class="ff_arrow" x1="0" x2="10" y1="-10" y2="-10"/>
      <line class="ff_arrow" x1="10" x2="7" y1="-10" y2="-7"/>
      <line class="ff_arrow" x1="10" x2="7" y1="-10" y2="-13"/>
    </g>
  </g>
  <path class="ff_main_background" d="M-951.552734375 726.0C-936.935546875 637.9541015625 -883.1767578125 550.9912109375 -789.7998046875 468.599609375L-297.0 724.1259765625"/>
  <path class="ff_main_open" d="M-780.8955078125 535.17578125L-413.599609375 725.625M-170.5380859375 727.740234375L-764.5380859375 419.740234375M-826.1630859375 427.349609375C-928.7509765625 517.8681640625 -992.1796875 618.9638671875 -1007.1923828125 726.0M-895.6337890625 726.0C-883.138671875 664.3779296875 -846.7900390625 600.28515625 -780.8583984375 535.3759765625"/>
  <path class="ff_main_deleted" d="M-815.0615234375 517.4599609375L-780.8955078125 535.17578125M-780.8583984375 535.3759765625C-772.2294921875 526.880859375 -763.0927734375 518.37109375 -753.4365234375 509.8505859375"/>
</svg>
