<?xml version="1.0" encoding="utf-8" ?>
<?xml-stylesheet href="../ff_svg_fig.css" type="text/css" title="FontForge SVG stylesheet" alternate="no" media="screen"?>
<svg baseProfile="full" height="100%" version="1.1" viewBox="-76,779,1682,521" width="100%" xmlns="http://www.w3.org/2000/svg" xmlns:ev="http://www.w3.org/2001/xml-events" xmlns:xlink="http://www.w3.org/1999/xlink">
  <defs/>
  <g class="ff_offp">
    <line class="ff_offp_post" x1="788.7998046875" x2="788.7998046875" y1="1280.0" y2="1210.5029296875"/>
    <g class="ff_offp_post" transform="translate(788.7998046875,1210.5029296875)">
      <line class="ff_off_curve_x" x1="-8" x2="8" y1="-8" y2="8"/>
      <line class="ff_off_curve_x" x1="-8" x2="8" y1="8" y2="-8"/>
    </g>
  </g>
  <g class="ff_offp">
    <line class="ff_offp_pre" x1="832.146484375" x2="804.138671875" y1="1056.037109375" y2="1131.19140625"/>
    <g class="ff_offp_pre" transform="translate(804.138671875,1131.19140625)">
      <line class="ff_off_curve_x" x1="-8" x2="8" y1="-8" y2="8"/>
      <line class="ff_off_curve_x" x1="-8" x2="8" y1="8" y2="-8"/>
    </g>
  </g>
  <g class="ff_offp">
    <line class="ff_offp_post" x1="832.146484375" x2="854.5390625" y1="1056.037109375" y2="995.951171875"/>
    <g class="ff_offp_post" transform="translate(854.5390625,995.951171875)">
      <line class="ff_off_curve_x" x1="-8" x2="8" y1="-8" y2="8"/>
      <line class="ff_off_curve_x" x1="-8" x2="8" y1="8" y2="-8"/>
    </g>
  </g>
  <g class="ff_offp">
    <line class="ff_offp_pre" x1="925.6201171875" x2="885.1337890625" y1="891.58203125" y2="938.23046875"/>
    <g class="ff_offp_pre" transform="translate(885.1337890625,938.23046875)">
      <line class="ff_off_curve_x" x1="-8" x2="8" y1="-8" y2="8"/>
      <line class="ff_off_curve_x" x1="-8" x2="8" y1="8" y2="-8"/>
    </g>
  </g>
  <g class="ff_offp">
    <line class="ff_offp_post" x1="925.6201171875" x2="970.7568359375" y1="891.58203125" y2="839.5771484375"/>
    <g class="ff_offp_post" transform="translate(970.7568359375,839.5771484375)">
      <line class="ff_off_curve_x" x1="-8" x2="8" y1="-8" y2="8"/>
      <line class="ff_off_curve_x" x1="-8" x2="8" y1="8" y2="-8"/>
    </g>
  </g>
  <g class="ff_offp">
    <line class="ff_offp_pre" x1="1106.7451171875" x2="1031.861328125" y1="798.5908203125" y2="798.5908203125"/>
    <g class="ff_offp_pre" transform="translate(1031.861328125,798.5908203125)">
      <line class="ff_off_curve_x" x1="-8" x2="8" y1="-8" y2="8"/>
      <line class="ff_off_curve_x" x1="-8" x2="8" y1="8" y2="-8"/>
    </g>
  </g>
  <g class="ff_offp">
    <line class="ff_offp_post" x1="1050.82421875" x2="1037.333984375" y1="928.5517578125" y2="937.2880859375"/>
    <g class="ff_offp_post" transform="translate(1037.333984375,937.2880859375)">
      <line class="ff_off_curve_x" x1="-8" x2="8" y1="-8" y2="8"/>
      <line class="ff_off_curve_x" x1="-8" x2="8" y1="8" y2="-8"/>
    </g>
  </g>
  <g class="ff_offp">
    <line class="ff_offp_pre" x1="1010.228515625" x2="1023.7744140625" y1="964.9375" y2="949.330078125"/>
    <g class="ff_offp_pre" transform="translate(1023.7744140625,949.330078125)">
      <line class="ff_off_curve_x" x1="-8" x2="8" y1="-8" y2="8"/>
      <line class="ff_off_curve_x" x1="-8" x2="8" y1="8" y2="-8"/>
    </g>
  </g>
  <g class="ff_offp">
    <line class="ff_offp_post" x1="1010.228515625" x2="981.7255859375" y1="964.9375" y2="997.7783203125"/>
    <g class="ff_offp_post" transform="translate(981.7255859375,997.7783203125)">
      <line class="ff_off_curve_x" x1="-8" x2="8" y1="-8" y2="8"/>
      <line class="ff_off_curve_x" x1="-8" x2="8" y1="8" y2="-8"/>
    </g>
  </g>
  <g class="ff_offp">
    <line class="ff_offp_pre" x1="937.134765625" x2="956.0126953125" y1="1095.1005859375" y2="1044.4443359375"/>
    <g class="ff_offp_pre" transform="translate(956.0126953125,1044.4443359375)">
      <line class="ff_off_curve_x" x1="-8" x2="8" y1="-8" y2="8"/>
      <line class="ff_off_curve_x" x1="-8" x2="8" y1="8" y2="-8"/>
    </g>
  </g>
  <g class="ff_offp">
    <line class="ff_offp_post" x1="937.134765625" x2="913.5546875" y1="1095.1005859375" y2="1158.3759765625"/>
    <g class="ff_offp_post" transform="translate(913.5546875,1158.3759765625)">
      <line class="ff_off_curve_x" x1="-8" x2="8" y1="-8" y2="8"/>
      <line class="ff_off_curve_x" x1="-8" x2="8" y1="8" y2="-8"/>
    </g>
  </g>
  <g class="ff_offp">
    <line class="ff_offp_pre" x1="900.7998046875" x2="900.7998046875" y1="1280.0" y2="1227.4228515625"/>
    <g class="ff_offp_pre" transform="translate(900.7998046875,1227.4228515625)">
      <line class="ff_off_curve_x" x1="-8" x2="8" y1="-8" y2="8"/>
      <line class="ff_off_curve_x" x1="-8" x2="8" y1="8" y2="-8"/>
    </g>
  </g>
  <g class="ff_offp">
    <line class="ff_offp_post" x1="-56.0" x2="-56.0" y1="1280.0" y2="1210.5029296875"/>
    <g class="ff_offp_post" transform="translate(-56.0,1210.5029296875)">
      <line class="ff_off_curve_x" x1="-8" x2="8" y1="-8" y2="8"/>
      <line class="ff_off_curve_x" x1="-8" x2="8" y1="8" y2="-8"/>
    </g>
  </g>
  <g class="ff_offp">
    <line class="ff_offp_pre" x1="-12.6533203125" x2="-40.6611328125" y1="1056.037109375" y2="1131.19140625"/>
    <g class="ff_offp_pre" transform="translate(-40.6611328125,1131.19140625)">
      <line class="ff_off_curve_x" x1="-8" x2="8" y1="-8" y2="8"/>
      <line class="ff_off_curve_x" x1="-8" x2="8" y1="8" y2="-8"/>
    </g>
  </g>
  <g class="ff_offp">
    <line class="ff_offp_post" x1="-12.6533203125" x2="9.7392578125" y1="1056.037109375" y2="995.951171875"/>
    <g class="ff_offp_post" transform="translate(9.7392578125,995.951171875)">
      <line class="ff_off_curve_x" x1="-8" x2="8" y1="-8" y2="8"/>
      <line class="ff_off_curve_x" x1="-8" x2="8" y1="8" y2="-8"/>
    </g>
  </g>
  <g class="ff_offp">
    <line class="ff_offp_pre" x1="80.8203125" x2="40.333984375" y1="891.58203125" y2="938.23046875"/>
    <g class="ff_offp_pre" transform="translate(40.333984375,938.23046875)">
      <line class="ff_off_curve_x" x1="-8" x2="8" y1="-8" y2="8"/>
      <line class="ff_off_curve_x" x1="-8" x2="8" y1="8" y2="-8"/>
    </g>
  </g>
  <g class="ff_offp">
    <line class="ff_offp_post" x1="80.8203125" x2="125.95703125" y1="891.58203125" y2="839.5771484375"/>
    <g class="ff_offp_post" transform="translate(125.95703125,839.5771484375)">
      <line class="ff_off_curve_x" x1="-8" x2="8" y1="-8" y2="8"/>
      <line class="ff_off_curve_x" x1="-8" x2="8" y1="8" y2="-8"/>
    </g>
  </g>
  <g class="ff_offp">
    <line class="ff_offp_pre" x1="261.9453125" x2="187.0615234375" y1="798.5908203125" y2="798.5908203125"/>
    <g class="ff_offp_pre" transform="translate(187.0615234375,798.5908203125)">
      <line class="ff_off_curve_x" x1="-8" x2="8" y1="-8" y2="8"/>
      <line class="ff_off_curve_x" x1="-8" x2="8" y1="8" y2="-8"/>
    </g>
  </g>
  <g class="ff_offp">
    <line class="ff_offp_post" x1="206.0244140625" x2="192.5341796875" y1="928.5517578125" y2="937.2880859375"/>
    <g class="ff_offp_post" transform="translate(192.5341796875,937.2880859375)">
      <line class="ff_off_curve_x" x1="-8" x2="8" y1="-8" y2="8"/>
      <line class="ff_off_curve_x" x1="-8" x2="8" y1="8" y2="-8"/>
    </g>
  </g>
  <g class="ff_offp">
    <line class="ff_offp_pre" x1="165.4287109375" x2="178.974609375" y1="964.9375" y2="949.330078125"/>
    <g class="ff_offp_pre" transform="translate(178.974609375,949.330078125)">
      <line class="ff_off_curve_x" x1="-8" x2="8" y1="-8" y2="8"/>
      <line class="ff_off_curve_x" x1="-8" x2="8" y1="8" y2="-8"/>
    </g>
  </g>
  <g class="ff_offp">
    <line class="ff_offp_post" x1="165.4287109375" x2="136.92578125" y1="964.9375" y2="997.7783203125"/>
    <g class="ff_offp_post" transform="translate(136.92578125,997.7783203125)">
      <line class="ff_off_curve_x" x1="-8" x2="8" y1="-8" y2="8"/>
      <line class="ff_off_curve_x" x1="-8" x2="8" y1="8" y2="-8"/>
    </g>
  </g>
  <g class="ff_offp">
    <line class="ff_offp_pre" x1="92.3349609375" x2="111.212890625" y1="1095.1005859375" y2="1044.4443359375"/>
    <g class="ff_offp_pre" transform="translate(111.212890625,1044.4443359375)">
      <line class="ff_off_curve_x" x1="-8" x2="8" y1="-8" y2="8"/>
      <line class="ff_off_curve_x" x1="-8" x2="8" y1="8" y2="-8"/>
    </g>
  </g>
  <g class="ff_offp">
    <line class="ff_offp_post" x1="92.3349609375" x2="68.75390625" y1="1095.1005859375" y2="1158.3759765625"/>
    <g class="ff_offp_post" transform="translate(68.75390625,1158.3759765625)">
      <line class="ff_off_curve_x" x1="-8" x2="8" y1="-8" y2="8"/>
      <line class="ff_off_curve_x" x1="-8" x2="8" y1="8" y2="-8"/>
    </g>
  </g>
  <g class="ff_offp">
    <line class="ff_offp_pre" x1="56.0" x2="56.0" y1="1280.0" y2="1227.4228515625"/>
    <g class="ff_offp_pre" transform="translate(56.0,1227.4228515625)">
      <line class="ff_off_curve_x" x1="-8" x2="8" y1="-8" y2="8"/>
      <line class="ff_off_curve_x" x1="-8" x2="8" y1="8" y2="-8"/>
    </g>
  </g>
  <g class="ff_offp">
    <line class="ff_offp_post" x1="366.400390625" x2="366.400390625" y1="1280.0" y2="1210.5029296875"/>
    <g class="ff_offp_post" transform="translate(366.400390625,1210.5029296875)">
      <line class="ff_off_curve_x" x1="-8" x2="8" y1="-8" y2="8"/>
      <line class="ff_off_curve_x" x1="-8" x2="8" y1="8" y2="-8"/>
    </g>
  </g>
  <g class="ff_offp">
    <line class="ff_offp_pre" x1="409.7470703125" x2="381.7392578125" y1="1056.037109375" y2="1131.19140625"/>
    <g class="ff_offp_pre" transform="translate(381.7392578125,1131.19140625)">
      <line class="ff_off_curve_x" x1="-8" x2="8" y1="-8" y2="8"/>
      <line class="ff_off_curve_x" x1="-8" x2="8" y1="8" y2="-8"/>
    </g>
  </g>
  <g class="ff_offp">
    <line class="ff_offp_post" x1="409.7470703125" x2="432.138671875" y1="1056.037109375" y2="995.951171875"/>
    <g class="ff_offp_post" transform="translate(432.138671875,995.951171875)">
      <line class="ff_off_curve_x" x1="-8" x2="8" y1="-8" y2="8"/>
      <line class="ff_off_curve_x" x1="-8" x2="8" y1="8" y2="-8"/>
    </g>
  </g>
  <g class="ff_offp">
    <line class="ff_offp_pre" x1="503.220703125" x2="462.7333984375" y1="891.58203125" y2="938.23046875"/>
    <g class="ff_offp_pre" transform="translate(462.7333984375,938.23046875)">
      <line class="ff_off_curve_x" x1="-8" x2="8" y1="-8" y2="8"/>
      <line class="ff_off_curve_x" x1="-8" x2="8" y1="8" y2="-8"/>
    </g>
  </g>
  <g class="ff_offp">
    <line class="ff_offp_post" x1="503.220703125" x2="548.3564453125" y1="891.58203125" y2="839.5771484375"/>
    <g class="ff_offp_post" transform="translate(548.3564453125,839.5771484375)">
      <line class="ff_off_curve_x" x1="-8" x2="8" y1="-8" y2="8"/>
      <line class="ff_off_curve_x" x1="-8" x2="8" y1="8" y2="-8"/>
    </g>
  </g>
  <g class="ff_offp">
    <line class="ff_offp_pre" x1="684.345703125" x2="609.4619140625" y1="798.5908203125" y2="798.5908203125"/>
    <g class="ff_offp_pre" transform="translate(609.4619140625,798.5908203125)">
      <line class="ff_off_curve_x" x1="-8" x2="8" y1="-8" y2="8"/>
      <line class="ff_off_curve_x" x1="-8" x2="8" y1="8" y2="-8"/>
    </g>
  </g>
  <g class="ff_offp">
    <line class="ff_offp_post" x1="684.345703125" x2="715.228515625" y1="798.5908203125" y2="798.5908203125"/>
    <g class="ff_offp_post" transform="translate(715.228515625,798.5908203125)">
      <line class="ff_off_curve_x" x1="-8" x2="8" y1="-8" y2="8"/>
      <line class="ff_off_curve_x" x1="-8" x2="8" y1="8" y2="-8"/>
    </g>
  </g>
  <g class="ff_offp">
    <line class="ff_offp_pre" x1="740.3447265625" x2="740.3115234375" y1="854.529296875" y2="823.646484375"/>
    <g class="ff_offp_pre" transform="translate(740.3115234375,823.646484375)">
      <line class="ff_off_curve_x" x1="-8" x2="8" y1="-8" y2="8"/>
      <line class="ff_off_curve_x" x1="-8" x2="8" y1="8" y2="-8"/>
    </g>
  </g>
  <g class="ff_offp">
    <line class="ff_offp_post" x1="628.4248046875" x2="614.9345703125" y1="928.5517578125" y2="937.2880859375"/>
    <g class="ff_offp_post" transform="translate(614.9345703125,937.2880859375)">
      <line class="ff_off_curve_x" x1="-8" x2="8" y1="-8" y2="8"/>
      <line class="ff_off_curve_x" x1="-8" x2="8" y1="8" y2="-8"/>
    </g>
  </g>
  <g class="ff_offp">
    <line class="ff_offp_pre" x1="587.8291015625" x2="601.3740234375" y1="964.9375" y2="949.330078125"/>
    <g class="ff_offp_pre" transform="translate(601.3740234375,949.330078125)">
      <line class="ff_off_curve_x" x1="-8" x2="8" y1="-8" y2="8"/>
      <line class="ff_off_curve_x" x1="-8" x2="8" y1="8" y2="-8"/>
    </g>
  </g>
  <g class="ff_offp">
    <line class="ff_offp_post" x1="587.8291015625" x2="559.326171875" y1="964.9375" y2="997.7783203125"/>
    <g class="ff_offp_post" transform="translate(559.326171875,997.7783203125)">
      <line class="ff_off_curve_x" x1="-8" x2="8" y1="-8" y2="8"/>
      <line class="ff_off_curve_x" x1="-8" x2="8" y1="8" y2="-8"/>
    </g>
  </g>
  <g class="ff_offp">
    <line class="ff_offp_pre" x1="514.734375" x2="533.61328125" y1="1095.1005859375" y2="1044.4443359375"/>
    <g class="ff_offp_pre" transform="translate(533.61328125,1044.4443359375)">
      <line class="ff_off_curve_x" x1="-8" x2="8" y1="-8" y2="8"/>
      <line class="ff_off_curve_x" x1="-8" x2="8" y1="8" y2="-8"/>
    </g>
  </g>
  <g class="ff_offp">
    <line class="ff_offp_post" x1="514.734375" x2="491.154296875" y1="1095.1005859375" y2="1158.3759765625"/>
    <g class="ff_offp_post" transform="translate(491.154296875,1158.3759765625)">
      <line class="ff_off_curve_x" x1="-8" x2="8" y1="-8" y2="8"/>
      <line class="ff_off_curve_x" x1="-8" x2="8" y1="8" y2="-8"/>
    </g>
  </g>
  <g class="ff_offp">
    <line class="ff_offp_pre" x1="478.400390625" x2="478.400390625" y1="1280.0" y2="1227.4228515625"/>
    <g class="ff_offp_pre" transform="translate(478.400390625,1227.4228515625)">
      <line class="ff_off_curve_x" x1="-8" x2="8" y1="-8" y2="8"/>
      <line class="ff_off_curve_x" x1="-8" x2="8" y1="8" y2="-8"/>
    </g>
  </g>
  <g class="ff_offp">
    <line class="ff_offp_post" x1="1211.2001953125" x2="1211.2001953125" y1="1280.0" y2="1210.5029296875"/>
    <g class="ff_offp_post" transform="translate(1211.2001953125,1210.5029296875)">
      <line class="ff_off_curve_x" x1="-8" x2="8" y1="-8" y2="8"/>
      <line class="ff_off_curve_x" x1="-8" x2="8" y1="8" y2="-8"/>
    </g>
  </g>
  <g class="ff_offp">
    <line class="ff_offp_pre" x1="1254.546875" x2="1226.5390625" y1="1056.037109375" y2="1131.19140625"/>
    <g class="ff_offp_pre" transform="translate(1226.5390625,1131.19140625)">
      <line class="ff_off_curve_x" x1="-8" x2="8" y1="-8" y2="8"/>
      <line class="ff_off_curve_x" x1="-8" x2="8" y1="8" y2="-8"/>
    </g>
  </g>
  <g class="ff_offp">
    <line class="ff_offp_post" x1="1254.546875" x2="1276.939453125" y1="1056.037109375" y2="995.951171875"/>
    <g class="ff_offp_post" transform="translate(1276.939453125,995.951171875)">
      <line class="ff_off_curve_x" x1="-8" x2="8" y1="-8" y2="8"/>
      <line class="ff_off_curve_x" x1="-8" x2="8" y1="8" y2="-8"/>
    </g>
  </g>
  <g class="ff_offp">
    <line class="ff_offp_pre" x1="1348.0205078125" x2="1307.533203125" y1="891.58203125" y2="938.23046875"/>
    <g class="ff_offp_pre" transform="translate(1307.533203125,938.23046875)">
      <line class="ff_off_curve_x" x1="-8" x2="8" y1="-8" y2="8"/>
      <line class="ff_off_curve_x" x1="-8" x2="8" y1="8" y2="-8"/>
    </g>
  </g>
  <g class="ff_offp">
    <line class="ff_offp_post" x1="1348.0205078125" x2="1393.15625" y1="891.58203125" y2="839.5771484375"/>
    <g class="ff_offp_post" transform="translate(1393.15625,839.5771484375)">
      <line class="ff_off_curve_x" x1="-8" x2="8" y1="-8" y2="8"/>
      <line class="ff_off_curve_x" x1="-8" x2="8" y1="8" y2="-8"/>
    </g>
  </g>
  <g class="ff_offp">
    <line class="ff_offp_pre" x1="1529.1455078125" x2="1454.26171875" y1="798.5908203125" y2="798.5908203125"/>
    <g class="ff_offp_pre" transform="translate(1454.26171875,798.5908203125)">
      <line class="ff_off_curve_x" x1="-8" x2="8" y1="-8" y2="8"/>
      <line class="ff_off_curve_x" x1="-8" x2="8" y1="8" y2="-8"/>
    </g>
  </g>
  <g class="ff_offp">
    <line class="ff_offp_post" x1="1529.1455078125" x2="1548.5537109375" y1="798.5908203125" y2="798.5908203125"/>
    <g class="ff_offp_post" transform="translate(1548.5537109375,798.5908203125)">
      <line class="ff_off_curve_x" x1="-8" x2="8" y1="-8" y2="8"/>
      <line class="ff_off_curve_x" x1="-8" x2="8" y1="8" y2="-8"/>
    </g>
  </g>
  <g class="ff_offp">
    <line class="ff_offp_pre" x1="1585.09375" x2="1567.2958984375" y1="806.380859375" y2="801.326171875"/>
    <g class="ff_offp_pre" transform="translate(1567.2958984375,801.326171875)">
      <line class="ff_off_curve_x" x1="-8" x2="8" y1="-8" y2="8"/>
      <line class="ff_off_curve_x" x1="-8" x2="8" y1="8" y2="-8"/>
    </g>
  </g>
  <g class="ff_offp">
    <line class="ff_offp_post" x1="1473.224609375" x2="1459.734375" y1="928.5517578125" y2="937.2880859375"/>
    <g class="ff_offp_post" transform="translate(1459.734375,937.2880859375)">
      <line class="ff_off_curve_x" x1="-8" x2="8" y1="-8" y2="8"/>
      <line class="ff_off_curve_x" x1="-8" x2="8" y1="8" y2="-8"/>
    </g>
  </g>
  <g class="ff_offp">
    <line class="ff_offp_pre" x1="1432.62890625" x2="1446.1748046875" y1="964.9375" y2="949.330078125"/>
    <g class="ff_offp_pre" transform="translate(1446.1748046875,949.330078125)">
      <line class="ff_off_curve_x" x1="-8" x2="8" y1="-8" y2="8"/>
      <line class="ff_off_curve_x" x1="-8" x2="8" y1="8" y2="-8"/>
    </g>
  </g>
  <g class="ff_offp">
    <line class="ff_offp_post" x1="1432.62890625" x2="1404.1259765625" y1="964.9375" y2="997.7783203125"/>
    <g class="ff_offp_post" transform="translate(1404.1259765625,997.7783203125)">
      <line class="ff_off_curve_x" x1="-8" x2="8" y1="-8" y2="8"/>
      <line class="ff_off_curve_x" x1="-8" x2="8" y1="8" y2="-8"/>
    </g>
  </g>
  <g class="ff_offp">
    <line class="ff_offp_pre" x1="1359.53515625" x2="1378.4130859375" y1="1095.1005859375" y2="1044.4443359375"/>
    <g class="ff_offp_pre" transform="translate(1378.4130859375,1044.4443359375)">
      <line class="ff_off_curve_x" x1="-8" x2="8" y1="-8" y2="8"/>
      <line class="ff_off_curve_x" x1="-8" x2="8" y1="8" y2="-8"/>
    </g>
  </g>
  <g class="ff_offp">
    <line class="ff_offp_post" x1="1359.53515625" x2="1335.9541015625" y1="1095.1005859375" y2="1158.3759765625"/>
    <g class="ff_offp_post" transform="translate(1335.9541015625,1158.3759765625)">
      <line class="ff_off_curve_x" x1="-8" x2="8" y1="-8" y2="8"/>
      <line class="ff_off_curve_x" x1="-8" x2="8" y1="8" y2="-8"/>
    </g>
  </g>
  <g class="ff_offp">
    <line class="ff_offp_pre" x1="1323.2001953125" x2="1323.2001953125" y1="1280.0" y2="1227.4228515625"/>
    <g class="ff_offp_pre" transform="translate(1323.2001953125,1227.4228515625)">
      <line class="ff_off_curve_x" x1="-8" x2="8" y1="-8" y2="8"/>
      <line class="ff_off_curve_x" x1="-8" x2="8" y1="8" y2="-8"/>
    </g>
  </g>
  <g>
    <rect class="ff_onp ff_corner ff_first ff_extremum" height="12" transform="translate(788.7998046875,1280.0)" width="12" x="-6" y="-6"/>
    <g transform="translate(788.7998046875,1280.0) rotate(-90.0)">
      <line class="ff_arrow" x1="0" x2="10" y1="-10" y2="-10"/>
      <line class="ff_arrow" x1="10" x2="7" y1="-10" y2="-7"/>
      <line class="ff_arrow" x1="10" x2="7" y1="-10" y2="-13"/>
    </g>
  </g>
  <circle class="ff_onp ff_curve" cx="0" cy="0" r="7" transform="translate(832.146484375,1056.037109375)"/>
  <circle class="ff_onp ff_curve" cx="0" cy="0" r="7" transform="translate(925.6201171875,891.58203125)"/>
  <polygon class="ff_onp ff_tangent" points="0,-9 9,0 0,9" transform="translate(1106.7451171875,798.5908203125) rotate(180.0)"/>
  <rect class="ff_onp ff_corner" height="12" transform="translate(1162.685546875,798.5908203125)" width="12" x="-6" y="-6"/>
  <rect class="ff_onp ff_corner ff_extremum" height="12" transform="translate(1163.2001953125,1279.939453125)" width="12" x="-6" y="-6"/>
  <g>
    <rect class="ff_onp ff_corner ff_first ff_extremum" height="12" transform="translate(1051.2001953125,1280.060546875)" width="12" x="-6" y="-6"/>
    <g transform="translate(1051.2001953125,1280.060546875) rotate(-90.06128399255529)">
      <line class="ff_arrow" x1="0" x2="10" y1="-10" y2="-10"/>
      <line class="ff_arrow" x1="10" x2="7" y1="-10" y2="-7"/>
      <line class="ff_arrow" x1="10" x2="7" y1="-10" y2="-13"/>
    </g>
  </g>
  <rect class="ff_onp ff_corner ff_extremum" height="12" transform="translate(1050.82421875,928.5517578125)" width="12" x="-6" y="-6"/>
  <circle class="ff_onp ff_curve" cx="0" cy="0" r="7" transform="translate(1010.228515625,964.9375)"/>
  <circle class="ff_onp ff_curve" cx="0" cy="0" r="7" transform="translate(937.134765625,1095.1005859375)"/>
  <rect class="ff_onp ff_corner ff_extremum" height="12" transform="translate(900.7998046875,1280.0)" width="12" x="-6" y="-6"/>
  <g>
    <rect class="ff_onp ff_corner ff_first ff_extremum" height="12" transform="translate(-56.0,1280.0)" width="12" x="-6" y="-6"/>
    <g transform="translate(-56.0,1280.0) rotate(-90.0)">
      <line class="ff_arrow" x1="0" x2="10" y1="-10" y2="-10"/>
      <line class="ff_arrow" x1="10" x2="7" y1="-10" y2="-7"/>
      <line class="ff_arrow" x1="10" x2="7" y1="-10" y2="-13"/>
    </g>
  </g>
  <circle class="ff_onp ff_curve" cx="0" cy="0" r="7" transform="translate(-12.6533203125,1056.037109375)"/>
  <circle class="ff_onp ff_curve" cx="0" cy="0" r="7" transform="translate(80.8203125,891.58203125)"/>
  <rect class="ff_onp ff_corner ff_extremum" height="12" transform="translate(261.9453125,798.5908203125)" width="12" x="-6" y="-6"/>
  <rect class="ff_onp ff_corner" height="12" transform="translate(317.9453125,854.529296875)" width="12" x="-6" y="-6"/>
  <rect class="ff_onp ff_corner ff_extremum" height="12" transform="translate(318.400390625,1279.939453125)" width="12" x="-6" y="-6"/>
  <g>
    <rect class="ff_onp ff_corner ff_first ff_extremum" height="12" transform="translate(206.400390625,1280.060546875)" width="12" x="-6" y="-6"/>
    <g transform="translate(206.400390625,1280.060546875) rotate(-90.06128399255529)">
      <line class="ff_arrow" x1="0" x2="10" y1="-10" y2="-10"/>
      <line class="ff_arrow" x1="10" x2="7" y1="-10" y2="-7"/>
      <line class="ff_arrow" x1="10" x2="7" y1="-10" y2="-13"/>
    </g>
  </g>
  <rect class="ff_onp ff_corner ff_extremum" height="12" transform="translate(206.0244140625,928.5517578125)" width="12" x="-6" y="-6"/>
  <circle class="ff_onp ff_curve" cx="0" cy="0" r="7" transform="translate(165.4287109375,964.9375)"/>
  <circle class="ff_onp ff_curve" cx="0" cy="0" r="7" transform="translate(92.3349609375,1095.1005859375)"/>
  <rect class="ff_onp ff_corner ff_extremum" height="12" transform="translate(56.0,1280.0)" width="12" x="-6" y="-6"/>
  <g>
    <rect class="ff_onp ff_corner ff_first ff_extremum" height="12" transform="translate(366.400390625,1280.0)" width="12" x="-6" y="-6"/>
    <g transform="translate(366.400390625,1280.0) rotate(-90.0)">
      <line class="ff_arrow" x1="0" x2="10" y1="-10" y2="-10"/>
      <line class="ff_arrow" x1="10" x2="7" y1="-10" y2="-7"/>
      <line class="ff_arrow" x1="10" x2="7" y1="-10" y2="-13"/>
    </g>
  </g>
  <circle class="ff_onp ff_curve" cx="0" cy="0" r="7" transform="translate(409.7470703125,1056.037109375)"/>
  <circle class="ff_onp ff_curve" cx="0" cy="0" r="7" transform="translate(503.220703125,891.58203125)"/>
  <circle class="ff_onp ff_curve ff_extremum" cx="0" cy="0" r="7" transform="translate(684.345703125,798.5908203125)"/>
  <polygon class="ff_onp ff_tangent" points="0,-9 9,0 0,9" transform="translate(740.3447265625,854.529296875) rotate(269.93839945127587)"/>
  <rect class="ff_onp ff_corner ff_extremum" height="12" transform="translate(740.7998046875,1279.939453125)" width="12" x="-6" y="-6"/>
  <g>
    <rect class="ff_onp ff_corner ff_first ff_extremum" height="12" transform="translate(628.7998046875,1280.060546875)" width="12" x="-6" y="-6"/>
    <g transform="translate(628.7998046875,1280.060546875) rotate(-90.06112481347478)">
      <line class="ff_arrow" x1="0" x2="10" y1="-10" y2="-10"/>
      <line class="ff_arrow" x1="10" x2="7" y1="-10" y2="-7"/>
      <line class="ff_arrow" x1="10" x2="7" y1="-10" y2="-13"/>
    </g>
  </g>
  <rect class="ff_onp ff_corner ff_extremum" height="12" transform="translate(628.4248046875,928.5517578125)" width="12" x="-6" y="-6"/>
  <circle class="ff_onp ff_curve" cx="0" cy="0" r="7" transform="translate(587.8291015625,964.9375)"/>
  <circle class="ff_onp ff_curve" cx="0" cy="0" r="7" transform="translate(514.734375,1095.1005859375)"/>
  <rect class="ff_onp ff_corner ff_extremum" height="12" transform="translate(478.400390625,1280.0)" width="12" x="-6" y="-6"/>
  <g>
    <rect class="ff_onp ff_corner ff_first ff_extremum" height="12" transform="translate(1211.2001953125,1280.0)" width="12" x="-6" y="-6"/>
    <g transform="translate(1211.2001953125,1280.0) rotate(-90.0)">
      <line class="ff_arrow" x1="0" x2="10" y1="-10" y2="-10"/>
      <line class="ff_arrow" x1="10" x2="7" y1="-10" y2="-7"/>
      <line class="ff_arrow" x1="10" x2="7" y1="-10" y2="-13"/>
    </g>
  </g>
  <circle class="ff_onp ff_curve" cx="0" cy="0" r="7" transform="translate(1254.546875,1056.037109375)"/>
  <circle class="ff_onp ff_curve" cx="0" cy="0" r="7" transform="translate(1348.0205078125,891.58203125)"/>
  <circle class="ff_onp ff_curve ff_extremum" cx="0" cy="0" r="7" transform="translate(1529.1455078125,798.5908203125)"/>
  <rect class="ff_onp ff_corner" height="12" transform="translate(1585.09375,806.380859375)" width="12" x="-6" y="-6"/>
  <rect class="ff_onp ff_corner ff_extremum" height="12" transform="translate(1585.599609375,1279.939453125)" width="12" x="-6" y="-6"/>
  <g>
    <rect class="ff_onp ff_corner ff_first ff_extremum" height="12" transform="translate(1473.599609375,1280.060546875)" width="12" x="-6" y="-6"/>
    <g transform="translate(1473.599609375,1280.060546875) rotate(-90.06112481347478)">
      <line class="ff_arrow" x1="0" x2="10" y1="-10" y2="-10"/>
      <line class="ff_arrow" x1="10" x2="7" y1="-10" y2="-7"/>
      <line class="ff_arrow" x1="10" x2="7" y1="-10" y2="-13"/>
    </g>
  </g>
  <rect class="ff_onp ff_corner ff_extremum" height="12" transform="translate(1473.224609375,928.5517578125)" width="12" x="-6" y="-6"/>
  <circle class="ff_onp ff_curve" cx="0" cy="0" r="7" transform="translate(1432.62890625,964.9375)"/>
  <circle class="ff_onp ff_curve" cx="0" cy="0" r="7" transform="translate(1359.53515625,1095.1005859375)"/>
  <rect class="ff_onp ff_corner ff_extremum" height="12" transform="translate(1323.2001953125,1280.0)" width="12" x="-6" y="-6"/>
  <path class="ff_main_background" d="M1267.2001953125 1280.0C1267.2001953125 1115.2001953125 1369.599609375 854.5908203125 1529.1455078125 854.5908203125L1529.599609375 1280.0M844.7998046875 1280.0C844.7998046875 1115.2001953125 947.2001953125 854.5908203125 1106.7451171875 854.5908203125L1107.2001953125 1280.0M422.400390625 1280.0C422.400390625 1115.2001953125 524.7998046875 854.5908203125 684.345703125 854.5908203125L684.7998046875 1280.0M0.0 1280.0C0.0 1115.2001953125 102.400390625 854.5908203125 261.9453125 854.5908203125L262.400390625 1280.0"/>
  <path class="ff_main_closed" d="M788.7998046875 1280.0C788.7998046875 1210.5029296875 804.138671875 1131.19140625 832.146484375 1056.037109375C854.5390625 995.951171875 885.1337890625 938.23046875 925.6201171875 891.58203125C970.7568359375 839.5771484375 1031.861328125 798.5908203125 1106.7451171875 798.5908203125L1162.685546875 798.5908203125L1163.2001953125 1279.939453125M1051.2001953125 1280.060546875L1050.82421875 928.5517578125C1037.333984375 937.2880859375 1023.7744140625 949.330078125 1010.228515625 964.9375C981.7255859375 997.7783203125 956.0126953125 1044.4443359375 937.134765625 1095.1005859375C913.5546875 1158.3759765625 900.7998046875 1227.4228515625 900.7998046875 1280.0M-56.0 1280.0C-56.0 1210.5029296875 -40.6611328125 1131.19140625 -12.6533203125 1056.037109375C9.7392578125 995.951171875 40.333984375 938.23046875 80.8203125 891.58203125C125.95703125 839.5771484375 187.0615234375 798.5908203125 261.9453125 798.5908203125L317.9453125 854.529296875L318.400390625 1279.939453125M206.400390625 1280.060546875L206.0244140625 928.5517578125C192.5341796875 937.2880859375 178.974609375 949.330078125 165.4287109375 964.9375C136.92578125 997.7783203125 111.212890625 1044.4443359375 92.3349609375 1095.1005859375C68.75390625 1158.3759765625 56.0 1227.4228515625 56.0 1280.0M366.400390625 1280.0C366.400390625 1210.5029296875 381.7392578125 1131.19140625 409.7470703125 1056.037109375C432.138671875 995.951171875 462.7333984375 938.23046875 503.220703125 891.58203125C548.3564453125 839.5771484375 609.4619140625 798.5908203125 684.345703125 798.5908203125C715.228515625 798.5908203125 740.3115234375 823.646484375 740.3447265625 854.529296875L740.7998046875 1279.939453125M628.7998046875 1280.060546875L628.4248046875 928.5517578125C614.9345703125 937.2880859375 601.3740234375 949.330078125 587.8291015625 964.9375C559.326171875 997.7783203125 533.61328125 1044.4443359375 514.734375 1095.1005859375C491.154296875 1158.3759765625 478.400390625 1227.4228515625 478.400390625 1280.0M1211.2001953125 1280.0C1211.2001953125 1210.5029296875 1226.5390625 1131.19140625 1254.546875 1056.037109375C1276.939453125 995.951171875 1307.533203125 938.23046875 1348.0205078125 891.58203125C1393.15625 839.5771484375 1454.26171875 798.5908203125 1529.1455078125 798.5908203125C1548.5537109375 798.5908203125 1567.2958984375 801.326171875 1585.09375 806.380859375L1585.599609375 1279.939453125M1473.599609375 1280.060546875L1473.224609375 928.5517578125C1459.734375 937.2880859375 1446.1748046875 949.330078125 1432.62890625 964.9375C1404.1259765625 997.7783203125 1378.4130859375 1044.4443359375 1359.53515625 1095.1005859375C1335.9541015625 1158.3759765625 1323.2001953125 1227.4228515625 1323.2001953125 1280.0"/>
  <text class="ff_label" y="840" x="230">Bevel Join</text>
  <text class="ff_label" y="845" x="655">Nib/Round Join</text>
  <text class="ff_label" y="840" x="1100">Miter Join</text>
  <text class="ff_label" y="840" x="1520">Arcs Join</text>
</svg>
