<?xml version="1.0" encoding="utf-8" ?>
<?xml-stylesheet href="../ff_svg_fig.css" type="text/css" title="FontForge SVG stylesheet" alternate="no" media="screen"?>
<svg baseProfile="full" height="100%" version="1.1" viewBox="-9,470,692,595" width="100%" xmlns="http://www.w3.org/2000/svg" xmlns:ev="http://www.w3.org/2001/xml-events" xmlns:xlink="http://www.w3.org/1999/xlink">
  <defs/>
  <g class="ff_offp">
    <line class="ff_offp_post" x1="136.71875" x2="128.390625" y1="766.439453125" y2="725.515625"/>
    <g class="ff_offp_post" transform="translate(128.390625,725.515625)">
      <line class="ff_off_curve_x" x1="-8" x2="8" y1="-8" y2="8"/>
      <line class="ff_off_curve_x" x1="-8" x2="8" y1="8" y2="-8"/>
    </g>
  </g>
  <g class="ff_offp">
    <line class="ff_offp_pre" x1="141.8017578125" x2="129.978515625" y1="642.4765625" y2="682.5458984375"/>
    <g class="ff_offp_pre" transform="translate(129.978515625,682.5458984375)">
      <line class="ff_off_curve_x" x1="-8" x2="8" y1="-8" y2="8"/>
      <line class="ff_off_curve_x" x1="-8" x2="8" y1="8" y2="-8"/>
    </g>
  </g>
  <g class="ff_offp">
    <line class="ff_offp_post" x1="141.8017578125" x2="147.1689453125" y1="642.4765625" y2="624.2890625"/>
    <g class="ff_offp_post" transform="translate(147.1689453125,624.2890625)">
      <line class="ff_off_curve_x" x1="-8" x2="8" y1="-8" y2="8"/>
      <line class="ff_off_curve_x" x1="-8" x2="8" y1="8" y2="-8"/>
    </g>
  </g>
  <g class="ff_offp">
    <line class="ff_offp_pre" x1="163.9130859375" x2="154.630859375" y1="590.2138671875" y2="606.744140625"/>
    <g class="ff_offp_pre" transform="translate(154.630859375,606.744140625)">
      <line class="ff_off_curve_x" x1="-8" x2="8" y1="-8" y2="8"/>
      <line class="ff_off_curve_x" x1="-8" x2="8" y1="8" y2="-8"/>
    </g>
  </g>
  <g class="ff_offp">
    <line class="ff_offp_post" x1="239.31640625" x2="237.2431640625" y1="490.392578125" y2="491.75390625"/>
    <g class="ff_offp_post" transform="translate(237.2431640625,491.75390625)">
      <line class="ff_off_curve_x" x1="-8" x2="8" y1="-8" y2="8"/>
      <line class="ff_off_curve_x" x1="-8" x2="8" y1="8" y2="-8"/>
    </g>
  </g>
  <g class="ff_offp">
    <line class="ff_offp_pre" x1="233.16015625" x2="235.1904296875" y1="494.5673828125" y2="493.1455078125"/>
    <g class="ff_offp_pre" transform="translate(235.1904296875,493.1455078125)">
      <line class="ff_off_curve_x" x1="-8" x2="8" y1="-8" y2="8"/>
      <line class="ff_off_curve_x" x1="-8" x2="8" y1="8" y2="-8"/>
    </g>
  </g>
  <g class="ff_offp">
    <line class="ff_offp_post" x1="126.669921875" x2="79.6162109375" y1="569.1328125" y2="602.080078125"/>
    <g class="ff_offp_post" transform="translate(79.6162109375,602.080078125)">
      <line class="ff_off_curve_x" x1="-8" x2="8" y1="-8" y2="8"/>
      <line class="ff_off_curve_x" x1="-8" x2="8" y1="8" y2="-8"/>
    </g>
  </g>
  <g class="ff_offp">
    <line class="ff_offp_pre" x1="27.85546875" x2="44.1171875" y1="706.392578125" y2="651.2841796875"/>
    <g class="ff_offp_pre" transform="translate(44.1171875,651.2841796875)">
      <line class="ff_off_curve_x" x1="-8" x2="8" y1="-8" y2="8"/>
      <line class="ff_off_curve_x" x1="-8" x2="8" y1="8" y2="-8"/>
    </g>
  </g>
  <g class="ff_offp">
    <line class="ff_offp_post" x1="27.85546875" x2="10.892578125" y1="706.392578125" y2="763.8798828125"/>
    <g class="ff_offp_post" transform="translate(10.892578125,763.8798828125)">
      <line class="ff_off_curve_x" x1="-8" x2="8" y1="-8" y2="8"/>
      <line class="ff_off_curve_x" x1="-8" x2="8" y1="8" y2="-8"/>
    </g>
  </g>
  <g class="ff_offp">
    <line class="ff_offp_pre" x1="39.2265625" x2="14.998046875" y1="882.158203125" y2="827.3359375"/>
    <g class="ff_offp_pre" transform="translate(14.998046875,827.3359375)">
      <line class="ff_off_curve_x" x1="-8" x2="8" y1="-8" y2="8"/>
      <line class="ff_off_curve_x" x1="-8" x2="8" y1="8" y2="-8"/>
    </g>
  </g>
  <g class="ff_offp">
    <line class="ff_offp_post" x1="39.2265625" x2="45.9033203125" y1="882.158203125" y2="897.265625"/>
    <g class="ff_offp_post" transform="translate(45.9033203125,897.265625)">
      <line class="ff_off_curve_x" x1="-8" x2="8" y1="-8" y2="8"/>
      <line class="ff_off_curve_x" x1="-8" x2="8" y1="8" y2="-8"/>
    </g>
  </g>
  <g class="ff_offp">
    <line class="ff_offp_pre" x1="63.548828125" x2="54.076171875" y1="925.2294921875" y2="911.701171875"/>
    <g class="ff_offp_pre" transform="translate(54.076171875,911.701171875)">
      <line class="ff_off_curve_x" x1="-8" x2="8" y1="-8" y2="8"/>
      <line class="ff_off_curve_x" x1="-8" x2="8" y1="8" y2="-8"/>
    </g>
  </g>
  <g class="ff_offp">
    <line class="ff_offp_post" x1="71.005859375" x2="88.6484375" y1="935.87890625" y2="961.0751953125"/>
    <g class="ff_offp_post" transform="translate(88.6484375,961.0751953125)">
      <line class="ff_off_curve_x" x1="-8" x2="8" y1="-8" y2="8"/>
      <line class="ff_off_curve_x" x1="-8" x2="8" y1="8" y2="-8"/>
    </g>
  </g>
  <g class="ff_offp">
    <line class="ff_offp_pre" x1="136.1865234375" x2="110.798828125" y1="1000.494140625" y2="983.1220703125"/>
    <g class="ff_offp_pre" transform="translate(110.798828125,983.1220703125)">
      <line class="ff_off_curve_x" x1="-8" x2="8" y1="-8" y2="8"/>
      <line class="ff_off_curve_x" x1="-8" x2="8" y1="8" y2="-8"/>
    </g>
  </g>
  <g class="ff_offp">
    <line class="ff_offp_post" x1="136.1865234375" x2="175.20703125" y1="1000.494140625" y2="1027.1923828125"/>
    <g class="ff_offp_post" transform="translate(175.20703125,1027.1923828125)">
      <line class="ff_off_curve_x" x1="-8" x2="8" y1="-8" y2="8"/>
      <line class="ff_off_curve_x" x1="-8" x2="8" y1="8" y2="-8"/>
    </g>
  </g>
  <g class="ff_offp">
    <line class="ff_offp_pre" x1="268.9833984375" x2="221.7529296875" y1="1044.9072265625" y2="1042.7587890625"/>
    <g class="ff_offp_pre" transform="translate(221.7529296875,1042.7587890625)">
      <line class="ff_off_curve_x" x1="-8" x2="8" y1="-8" y2="8"/>
      <line class="ff_off_curve_x" x1="-8" x2="8" y1="8" y2="-8"/>
    </g>
  </g>
  <g class="ff_offp">
    <line class="ff_offp_post" x1="361.8544921875" x2="316.7490234375" y1="959.3369140625" y2="956.1689453125"/>
    <g class="ff_offp_post" transform="translate(316.7490234375,956.1689453125)">
      <line class="ff_off_curve_x" x1="-8" x2="8" y1="-8" y2="8"/>
      <line class="ff_off_curve_x" x1="-8" x2="8" y1="8" y2="-8"/>
    </g>
  </g>
  <g class="ff_offp">
    <line class="ff_offp_pre" x1="235.2197265625" x2="272.5419921875" y1="915.279296875" y2="940.81640625"/>
    <g class="ff_offp_pre" transform="translate(272.5419921875,940.81640625)">
      <line class="ff_off_curve_x" x1="-8" x2="8" y1="-8" y2="8"/>
      <line class="ff_off_curve_x" x1="-8" x2="8" y1="8" y2="-8"/>
    </g>
  </g>
  <g class="ff_offp">
    <line class="ff_offp_post" x1="235.2197265625" x2="211.62109375" y1="915.279296875" y2="899.1328125"/>
    <g class="ff_offp_post" transform="translate(211.62109375,899.1328125)">
      <line class="ff_off_curve_x" x1="-8" x2="8" y1="-8" y2="8"/>
      <line class="ff_off_curve_x" x1="-8" x2="8" y1="8" y2="-8"/>
    </g>
  </g>
  <g class="ff_offp">
    <line class="ff_offp_pre" x1="173.8359375" x2="190.8193359375" y1="855.9443359375" y2="878.9453125"/>
    <g class="ff_offp_pre" transform="translate(190.8193359375,878.9453125)">
      <line class="ff_off_curve_x" x1="-8" x2="8" y1="-8" y2="8"/>
      <line class="ff_off_curve_x" x1="-8" x2="8" y1="8" y2="-8"/>
    </g>
  </g>
  <g class="ff_offp">
    <line class="ff_offp_post" x1="173.8359375" x2="165.904296875" y1="855.9443359375" y2="843.9873046875"/>
    <g class="ff_offp_post" transform="translate(165.904296875,843.9873046875)">
      <line class="ff_off_curve_x" x1="-8" x2="8" y1="-8" y2="8"/>
      <line class="ff_off_curve_x" x1="-8" x2="8" y1="8" y2="-8"/>
    </g>
  </g>
  <g class="ff_offp">
    <line class="ff_offp_pre" x1="153.1728515625" x2="158.9736328125" y1="818.2421875" y2="831.3681640625"/>
    <g class="ff_offp_pre" transform="translate(158.9736328125,831.3681640625)">
      <line class="ff_off_curve_x" x1="-8" x2="8" y1="-8" y2="8"/>
      <line class="ff_off_curve_x" x1="-8" x2="8" y1="8" y2="-8"/>
    </g>
  </g>
  <g class="ff_offp">
    <line class="ff_offp_post" x1="153.1728515625" x2="148.5458984375" y1="818.2421875" y2="807.7734375"/>
    <g class="ff_offp_post" transform="translate(148.5458984375,807.7734375)">
      <line class="ff_off_curve_x" x1="-8" x2="8" y1="-8" y2="8"/>
      <line class="ff_off_curve_x" x1="-8" x2="8" y1="8" y2="-8"/>
    </g>
  </g>
  <g class="ff_offp">
    <line class="ff_offp_pre" x1="141.5009765625" x2="144.6533203125" y1="785.9921875" y2="796.9892578125"/>
    <g class="ff_offp_pre" transform="translate(144.6533203125,796.9892578125)">
      <line class="ff_off_curve_x" x1="-8" x2="8" y1="-8" y2="8"/>
      <line class="ff_off_curve_x" x1="-8" x2="8" y1="8" y2="-8"/>
    </g>
  </g>
  <g>
    <rect class="ff_onp ff_corner ff_first ff_extremum" height="12" transform="translate(271.6064453125,656.7890625)" width="12" x="-6" y="-6"/>
    <g transform="translate(271.6064453125,656.7890625) rotate(140.89229207262116)">
      <line class="ff_arrow" x1="0" x2="10" y1="-10" y2="-10"/>
      <line class="ff_arrow" x1="10" x2="7" y1="-10" y2="-7"/>
      <line class="ff_arrow" x1="10" x2="7" y1="-10" y2="-13"/>
    </g>
  </g>
  <rect class="ff_onp ff_corner ff_extremum" height="12" transform="translate(136.71875,766.439453125)" width="12" x="-6" y="-6"/>
  <circle class="ff_onp ff_curve" cx="0" cy="0" r="7" transform="translate(141.8017578125,642.4765625)"/>
  <rect class="ff_onp ff_corner ff_extremum" height="12" transform="translate(163.9130859375,590.2138671875)" width="12" x="-6" y="-6"/>
  <g>
    <rect class="ff_onp ff_corner ff_first" height="12" transform="translate(188.2734375,753.2421875)" width="12" x="-6" y="-6"/>
    <g transform="translate(188.2734375,753.2421875) rotate(-39.10773894336044)">
      <line class="ff_arrow" x1="0" x2="10" y1="-10" y2="-10"/>
      <line class="ff_arrow" x1="10" x2="7" y1="-10" y2="-7"/>
      <line class="ff_arrow" x1="10" x2="7" y1="-10" y2="-13"/>
    </g>
  </g>
  <rect class="ff_onp ff_corner ff_extremum" height="12" transform="translate(389.7734375,589.4423828125)" width="12" x="-6" y="-6"/>
  <rect class="ff_onp ff_corner" height="12" transform="translate(382.31640625,578.79296875)" width="12" x="-6" y="-6"/>
  <polygon class="ff_onp ff_tangent ff_extremum" points="0,-9 9,0 0,9" transform="translate(239.31640625,490.392578125) rotate(146.71037696263707)"/>
  <polygon class="ff_onp ff_tangent" points="0,-9 9,0 0,9" transform="translate(233.16015625,494.5673828125) rotate(324.9950345283871)"/>
  <polygon class="ff_onp ff_tangent" points="0,-9 9,0 0,9" transform="translate(126.669921875,569.1328125) rotate(145.00007964303398)"/>
  <circle class="ff_onp ff_curve" cx="0" cy="0" r="7" transform="translate(27.85546875,706.392578125)"/>
  <circle class="ff_onp ff_curve" cx="0" cy="0" r="7" transform="translate(39.2265625,882.158203125)"/>
  <polygon class="ff_onp ff_tangent" points="0,-9 9,0 0,9" transform="translate(63.548828125,925.2294921875) rotate(234.9999306923247)"/>
  <polygon class="ff_onp ff_tangent" points="0,-9 9,0 0,9" transform="translate(71.005859375,935.87890625) rotate(55.000081498587136)"/>
  <circle class="ff_onp ff_curve" cx="0" cy="0" r="7" transform="translate(136.1865234375,1000.494140625)"/>
  <rect class="ff_onp ff_corner ff_extremum" height="12" transform="translate(268.9833984375,1044.9072265625)" width="12" x="-6" y="-6"/>
  <rect class="ff_onp ff_corner" height="12" transform="translate(375.47265625,970.341796875)" width="12" x="-6" y="-6"/>
  <rect class="ff_onp ff_corner ff_extremum" height="12" transform="translate(417.0732421875,936.5419921875)" width="12" x="-6" y="-6"/>
  <rect class="ff_onp ff_corner ff_extremum" height="12" transform="translate(409.6162109375,925.892578125)" width="12" x="-6" y="-6"/>
  <rect class="ff_onp ff_corner ff_extremum" height="12" transform="translate(361.8544921875,959.3369140625)" width="12" x="-6" y="-6"/>
  <circle class="ff_onp ff_curve" cx="0" cy="0" r="7" transform="translate(235.2197265625,915.279296875)"/>
  <circle class="ff_onp ff_curve" cx="0" cy="0" r="7" transform="translate(173.8359375,855.9443359375)"/>
  <circle class="ff_onp ff_curve" cx="0" cy="0" r="7" transform="translate(153.1728515625,818.2421875)"/>
  <rect class="ff_onp ff_corner ff_extremum" height="12" transform="translate(141.5009765625,785.9921875)" width="12" x="-6" y="-6"/>
  <path class="ff_main_background" d="M131.2998046875 785.2001953125L332.7998046875 621.400390625L189.7998046875 533.0C139.689453125 565.8857421875 101.7919921875 616.947265625 84.8291015625 674.4345703125C67.865234375 731.921875 71.970703125 795.3779296875 96.2001953125 850.2001953125C115.3115234375 893.4443359375 146.6845703125 931.1884765625 185.703125 957.88671875C224.7236328125 984.5849609375 271.26953125 1000.15234375 318.5 1002.2998046875L360.099609375 968.5M662.7734375 664.841796875L556.283203125 739.4072265625L548.8271484375 728.7578125L655.31640625 654.193359375 z"/>
  <path class="ff_main_closed" d="M271.6064453125 656.7890625L136.71875 766.439453125C128.390625 725.515625 129.978515625 682.5458984375 141.8017578125 642.4765625C147.1689453125 624.2890625 154.630859375 606.744140625 163.9130859375 590.2138671875 zM188.2734375 753.2421875L389.7734375 589.4423828125L382.31640625 578.79296875L239.31640625 490.392578125C237.2431640625 491.75390625 235.1904296875 493.1455078125 233.16015625 494.5673828125L126.669921875 569.1328125C79.6162109375 602.080078125 44.1171875 651.2841796875 27.85546875 706.392578125C10.892578125 763.8798828125 14.998046875 827.3359375 39.2265625 882.158203125C45.9033203125 897.265625 54.076171875 911.701171875 63.548828125 925.2294921875L71.005859375 935.87890625C88.6484375 961.0751953125 110.798828125 983.1220703125 136.1865234375 1000.494140625C175.20703125 1027.1923828125 221.7529296875 1042.7587890625 268.9833984375 1044.9072265625L375.47265625 970.341796875L417.0732421875 936.5419921875L409.6162109375 925.892578125L361.8544921875 959.3369140625C316.7490234375 956.1689453125 272.5419921875 940.81640625 235.2197265625 915.279296875C211.62109375 899.1328125 190.8193359375 878.9453125 173.8359375 855.9443359375C165.904296875 843.9873046875 158.9736328125 831.3681640625 153.1728515625 818.2421875C148.5458984375 807.7734375 144.6533203125 796.9892578125 141.5009765625 785.9921875 z"/>
</svg>
