<?xml version="1.0" encoding="utf-8" ?>
<?xml-stylesheet href="../ff_svg_fig.css" type="text/css" title="FontForge SVG stylesheet" alternate="no" media="screen"?>
<svg baseProfile="full" height="100%" version="1.1" viewBox="-850,323,730,625" width="100%" xmlns="http://www.w3.org/2000/svg" xmlns:ev="http://www.w3.org/2001/xml-events" xmlns:xlink="http://www.w3.org/1999/xlink">
  <defs/>
  <g class="ff_offp">
    <line class="ff_offp_post" x1="-675.9521484375" x2="-772.712890625" y1="349.6494140625" y2="435.02734375"/>
    <g class="ff_offp_post" transform="translate(-772.712890625,435.02734375)">
      <line class="ff_off_curve_x" x1="-8" x2="8" y1="-8" y2="8"/>
      <line class="ff_off_curve_x" x1="-8" x2="8" y1="8" y2="-8"/>
    </g>
  </g>
  <g class="ff_offp">
    <line class="ff_offp_pre" x1="-826.8955078125" x2="-826.8955078125" y1="634.47265625" y2="531.90625"/>
    <g class="ff_offp_pre" transform="translate(-826.8955078125,531.90625)">
      <line class="ff_off_curve_x" x1="-8" x2="8" y1="-8" y2="8"/>
      <line class="ff_off_curve_x" x1="-8" x2="8" y1="8" y2="-8"/>
    </g>
  </g>
  <g class="ff_offp">
    <line class="ff_offp_post" x1="-826.8955078125" x2="-826.8955078125" y1="634.47265625" y2="739.4794921875"/>
    <g class="ff_offp_post" transform="translate(-826.8955078125,739.4794921875)">
      <line class="ff_off_curve_x" x1="-8" x2="8" y1="-8" y2="8"/>
      <line class="ff_off_curve_x" x1="-8" x2="8" y1="8" y2="-8"/>
    </g>
  </g>
  <g class="ff_offp">
    <line class="ff_offp_pre" x1="-670.7578125" x2="-770.353515625" y1="928.16796875" y2="839.2080078125"/>
    <g class="ff_offp_pre" transform="translate(-770.353515625,839.2080078125)">
      <line class="ff_off_curve_x" x1="-8" x2="8" y1="-8" y2="8"/>
      <line class="ff_off_curve_x" x1="-8" x2="8" y1="8" y2="-8"/>
    </g>
  </g>
  <g class="ff_offp">
    <line class="ff_offp_post" x1="-610.8427734375" x2="-698.9072265625" y1="861.0322265625" y2="782.3720703125"/>
    <g class="ff_offp_post" transform="translate(-698.9072265625,782.3720703125)">
      <line class="ff_off_curve_x" x1="-8" x2="8" y1="-8" y2="8"/>
      <line class="ff_off_curve_x" x1="-8" x2="8" y1="8" y2="-8"/>
    </g>
  </g>
  <g class="ff_offp">
    <line class="ff_offp_pre" x1="-736.8955078125" x2="-736.8955078125" y1="634.47265625" y2="705.2607421875"/>
    <g class="ff_offp_pre" transform="translate(-736.8955078125,705.2607421875)">
      <line class="ff_off_curve_x" x1="-8" x2="8" y1="-8" y2="8"/>
      <line class="ff_off_curve_x" x1="-8" x2="8" y1="8" y2="-8"/>
    </g>
  </g>
  <g class="ff_offp">
    <line class="ff_offp_post" x1="-736.8955078125" x2="-736.8955078125" y1="634.47265625" y2="565.48046875"/>
    <g class="ff_offp_post" transform="translate(-736.8955078125,565.48046875)">
      <line class="ff_off_curve_x" x1="-8" x2="8" y1="-8" y2="8"/>
      <line class="ff_off_curve_x" x1="-8" x2="8" y1="8" y2="-8"/>
    </g>
  </g>
  <g class="ff_offp">
    <line class="ff_offp_pre" x1="-616.4482421875" x2="-701.0478515625" y1="417.150390625" y2="491.796875"/>
    <g class="ff_offp_pre" transform="translate(-701.0478515625,491.796875)">
      <line class="ff_off_curve_x" x1="-8" x2="8" y1="-8" y2="8"/>
      <line class="ff_off_curve_x" x1="-8" x2="8" y1="8" y2="-8"/>
    </g>
  </g>
  <g>
    <rect class="ff_onp ff_corner ff_first ff_extremum" height="12" transform="translate(-666.869140625,423.3759765625)" width="12" x="-6" y="-6"/>
    <g transform="translate(-666.869140625,423.3759765625) rotate(27.407575437818405)">
      <line class="ff_arrow" x1="0" x2="10" y1="-10" y2="-10"/>
      <line class="ff_arrow" x1="10" x2="7" y1="-10" y2="-7"/>
      <line class="ff_arrow" x1="10" x2="7" y1="-10" y2="-13"/>
    </g>
  </g>
  <rect class="ff_onp ff_corner ff_extremum" height="12" transform="translate(-180.869140625,675.3759765625)" width="12" x="-6" y="-6"/>
  <g>
    <rect class="ff_onp ff_corner ff_first ff_extremum" height="12" transform="translate(-139.53125,595.423828125)" width="12" x="-6" y="-6"/>
    <g transform="translate(-139.53125,595.423828125) rotate(-152.5924245621816)">
      <line class="ff_arrow" x1="0" x2="10" y1="-10" y2="-10"/>
      <line class="ff_arrow" x1="10" x2="7" y1="-10" y2="-7"/>
      <line class="ff_arrow" x1="10" x2="7" y1="-10" y2="-13"/>
    </g>
  </g>
  <rect class="ff_onp ff_corner ff_extremum" height="12" transform="translate(-625.53125,343.423828125)" width="12" x="-6" y="-6"/>
  <g>
    <rect class="ff_onp ff_corner ff_first ff_extremum" height="12" transform="translate(-675.9521484375,349.6494140625)" width="12" x="-6" y="-6"/>
    <g transform="translate(-675.9521484375,349.6494140625) rotate(138.57606662126577)">
      <line class="ff_arrow" x1="0" x2="10" y1="-10" y2="-10"/>
      <line class="ff_arrow" x1="10" x2="7" y1="-10" y2="-7"/>
      <line class="ff_arrow" x1="10" x2="7" y1="-10" y2="-13"/>
    </g>
  </g>
  <circle class="ff_onp ff_curve ff_extremum" cx="0" cy="0" r="7" transform="translate(-826.8955078125,634.47265625)"/>
  <rect class="ff_onp ff_corner ff_extremum" height="12" transform="translate(-670.7578125,928.16796875)" width="12" x="-6" y="-6"/>
  <g>
    <rect class="ff_onp ff_corner ff_first ff_extremum" height="12" transform="translate(-610.8427734375,861.0322265625)" width="12" x="-6" y="-6"/>
    <g transform="translate(-610.8427734375,861.0322265625) rotate(-138.22841455199168)">
      <line class="ff_arrow" x1="0" x2="10" y1="-10" y2="-10"/>
      <line class="ff_arrow" x1="10" x2="7" y1="-10" y2="-7"/>
      <line class="ff_arrow" x1="10" x2="7" y1="-10" y2="-13"/>
    </g>
  </g>
  <circle class="ff_onp ff_curve ff_extremum" cx="0" cy="0" r="7" transform="translate(-736.8955078125,634.47265625)"/>
  <rect class="ff_onp ff_corner ff_extremum" height="12" transform="translate(-616.4482421875,417.150390625)" width="12" x="-6" y="-6"/>
  <path class="ff_main_background" d="M-640.7998046875 894.599609375C-826.2001953125 729.0 -829.7998046875 545.400390625 -646.2001953125 383.400390625L-160.2001953125 635.400390625"/>
  <path class="ff_main_open" d="M-666.869140625 423.3759765625L-180.869140625 675.3759765625M-139.53125 595.423828125L-625.53125 343.423828125M-675.9521484375 349.6494140625C-772.712890625 435.02734375 -826.8955078125 531.90625 -826.8955078125 634.47265625C-826.8955078125 739.4794921875 -770.353515625 839.2080078125 -670.7578125 928.16796875M-610.8427734375 861.0322265625C-698.9072265625 782.3720703125 -736.8955078125 705.2607421875 -736.8955078125 634.47265625C-736.8955078125 565.48046875 -701.0478515625 491.796875 -616.4482421875 417.150390625"/>
</svg>
