<?xml version="1.0" encoding="utf-8" ?>
<?xml-stylesheet href="../ff_svg_fig.css" type="text/css" title="FontForge SVG stylesheet" alternate="no" media="screen"?>
<svg baseProfile="full" height="100%" version="1.1" viewBox="-304,278,1155,625" width="100%" xmlns="http://www.w3.org/2000/svg" xmlns:ev="http://www.w3.org/2001/xml-events" xmlns:xlink="http://www.w3.org/1999/xlink">
  <defs/>
  <g class="ff_offp">
    <line class="ff_offp_post" x1="-211.884765625" x2="-262.90234375" y1="746.4072265625" y2="695.390625"/>
    <g class="ff_offp_post" transform="translate(-262.90234375,695.390625)">
      <line class="ff_off_curve_x" x1="-8" x2="8" y1="-8" y2="8"/>
      <line class="ff_off_curve_x" x1="-8" x2="8" y1="8" y2="-8"/>
    </g>
  </g>
  <g class="ff_offp">
    <line class="ff_offp_pre" x1="-275.234375" x2="-284.2626953125" y1="562.5966796875" y2="628.314453125"/>
    <g class="ff_offp_pre" transform="translate(-284.2626953125,628.314453125)">
      <line class="ff_off_curve_x" x1="-8" x2="8" y1="-8" y2="8"/>
      <line class="ff_off_curve_x" x1="-8" x2="8" y1="8" y2="-8"/>
    </g>
  </g>
  <g class="ff_offp">
    <line class="ff_offp_post" x1="-275.234375" x2="-268.052734375" y1="562.5966796875" y2="510.32421875"/>
    <g class="ff_offp_post" transform="translate(-268.052734375,510.32421875)">
      <line class="ff_off_curve_x" x1="-8" x2="8" y1="-8" y2="8"/>
      <line class="ff_off_curve_x" x1="-8" x2="8" y1="8" y2="-8"/>
    </g>
  </g>
  <g class="ff_offp">
    <line class="ff_offp_pre" x1="-201.1005859375" x2="-242.318359375" y1="419.220703125" y2="460.4365234375"/>
    <g class="ff_offp_pre" transform="translate(-242.318359375,460.4365234375)">
      <line class="ff_off_curve_x" x1="-8" x2="8" y1="-8" y2="8"/>
      <line class="ff_off_curve_x" x1="-8" x2="8" y1="8" y2="-8"/>
    </g>
  </g>
  <g class="ff_offp">
    <line class="ff_offp_post" x1="-201.1005859375" x2="-79.5322265625" y1="419.220703125" y2="297.65234375"/>
    <g class="ff_offp_post" transform="translate(-79.5322265625,297.65234375)">
      <line class="ff_off_curve_x" x1="-8" x2="8" y1="-8" y2="8"/>
      <line class="ff_off_curve_x" x1="-8" x2="8" y1="8" y2="-8"/>
    </g>
  </g>
  <g class="ff_offp">
    <line class="ff_offp_pre" x1="147.5068359375" x2="60.296875" y1="330.7431640625" y2="318.080078125"/>
    <g class="ff_offp_pre" transform="translate(60.296875,318.080078125)">
      <line class="ff_off_curve_x" x1="-8" x2="8" y1="-8" y2="8"/>
      <line class="ff_off_curve_x" x1="-8" x2="8" y1="8" y2="-8"/>
    </g>
  </g>
  <g class="ff_offp">
    <line class="ff_offp_post" x1="147.5068359375" x2="165.904296875" y1="330.7431640625" y2="333.4150390625"/>
    <g class="ff_offp_post" transform="translate(165.904296875,333.4150390625)">
      <line class="ff_off_curve_x" x1="-8" x2="8" y1="-8" y2="8"/>
      <line class="ff_off_curve_x" x1="-8" x2="8" y1="8" y2="-8"/>
    </g>
  </g>
  <g class="ff_offp">
    <line class="ff_offp_pre" x1="195.36328125" x2="182.2236328125" y1="336.6962890625" y2="335.7294921875"/>
    <g class="ff_offp_pre" transform="translate(182.2236328125,335.7294921875)">
      <line class="ff_off_curve_x" x1="-8" x2="8" y1="-8" y2="8"/>
      <line class="ff_off_curve_x" x1="-8" x2="8" y1="8" y2="-8"/>
    </g>
  </g>
  <g class="ff_offp">
    <line class="ff_offp_post" x1="373.958984375" x2="402.2734375" y1="349.8291015625" y2="351.91015625"/>
    <g class="ff_offp_post" transform="translate(402.2734375,351.91015625)">
      <line class="ff_off_curve_x" x1="-8" x2="8" y1="-8" y2="8"/>
      <line class="ff_off_curve_x" x1="-8" x2="8" y1="8" y2="-8"/>
    </g>
  </g>
  <g class="ff_offp">
    <line class="ff_offp_pre" x1="454.0712890625" x2="431.1494140625" y1="348.7060546875" y2="351.7841796875"/>
    <g class="ff_offp_pre" transform="translate(431.1494140625,351.7841796875)">
      <line class="ff_off_curve_x" x1="-8" x2="8" y1="-8" y2="8"/>
      <line class="ff_off_curve_x" x1="-8" x2="8" y1="8" y2="-8"/>
    </g>
  </g>
  <g class="ff_offp">
    <line class="ff_offp_post" x1="454.0712890625" x2="459.177734375" y1="348.7060546875" y2="348.0205078125"/>
    <g class="ff_offp_post" transform="translate(459.177734375,348.0205078125)">
      <line class="ff_off_curve_x" x1="-8" x2="8" y1="-8" y2="8"/>
      <line class="ff_off_curve_x" x1="-8" x2="8" y1="8" y2="-8"/>
    </g>
  </g>
  <g class="ff_offp">
    <line class="ff_offp_pre" x1="470.1025390625" x2="464.53515625" y1="346.5087890625" y2="347.2783203125"/>
    <g class="ff_offp_pre" transform="translate(464.53515625,347.2783203125)">
      <line class="ff_off_curve_x" x1="-8" x2="8" y1="-8" y2="8"/>
      <line class="ff_off_curve_x" x1="-8" x2="8" y1="8" y2="-8"/>
    </g>
  </g>
  <g class="ff_offp">
    <line class="ff_offp_post" x1="470.1025390625" x2="516.2802734375" y1="346.5087890625" y2="340.119140625"/>
    <g class="ff_offp_post" transform="translate(516.2802734375,340.119140625)">
      <line class="ff_off_curve_x" x1="-8" x2="8" y1="-8" y2="8"/>
      <line class="ff_off_curve_x" x1="-8" x2="8" y1="8" y2="-8"/>
    </g>
  </g>
  <g class="ff_offp">
    <line class="ff_offp_pre" x1="635.3310546875" x2="576.0283203125" y1="336.9970703125" y2="331.36328125"/>
    <g class="ff_offp_pre" transform="translate(576.0283203125,331.36328125)">
      <line class="ff_off_curve_x" x1="-8" x2="8" y1="-8" y2="8"/>
      <line class="ff_off_curve_x" x1="-8" x2="8" y1="8" y2="-8"/>
    </g>
  </g>
  <g class="ff_offp">
    <line class="ff_offp_post" x1="635.3310546875" x2="682.4248046875" y1="336.9970703125" y2="341.47265625"/>
    <g class="ff_offp_post" transform="translate(682.4248046875,341.47265625)">
      <line class="ff_off_curve_x" x1="-8" x2="8" y1="-8" y2="8"/>
      <line class="ff_off_curve_x" x1="-8" x2="8" y1="8" y2="-8"/>
    </g>
  </g>
  <g class="ff_offp">
    <line class="ff_offp_pre" x1="770.5478515625" x2="732.3818359375" y1="393.6533203125" y2="355.486328125"/>
    <g class="ff_offp_pre" transform="translate(732.3818359375,355.486328125)">
      <line class="ff_off_curve_x" x1="-8" x2="8" y1="-8" y2="8"/>
      <line class="ff_off_curve_x" x1="-8" x2="8" y1="8" y2="-8"/>
    </g>
  </g>
  <g class="ff_offp">
    <line class="ff_offp_post" x1="770.5478515625" x2="800.609375" y1="393.6533203125" y2="423.7138671875"/>
    <g class="ff_offp_post" transform="translate(800.609375,423.7138671875)">
      <line class="ff_off_curve_x" x1="-8" x2="8" y1="-8" y2="8"/>
      <line class="ff_off_curve_x" x1="-8" x2="8" y1="8" y2="-8"/>
    </g>
  </g>
  <g class="ff_offp">
    <line class="ff_offp_pre" x1="824.5302734375" x2="819.3076171875" y1="518.0751953125" y2="465.8486328125"/>
    <g class="ff_offp_pre" transform="translate(819.3076171875,465.8486328125)">
      <line class="ff_off_curve_x" x1="-8" x2="8" y1="-8" y2="8"/>
      <line class="ff_off_curve_x" x1="-8" x2="8" y1="8" y2="-8"/>
    </g>
  </g>
  <g class="ff_offp">
    <line class="ff_offp_post" x1="824.5302734375" x2="831.16796875" y1="518.0751953125" y2="584.4599609375"/>
    <g class="ff_offp_post" transform="translate(831.16796875,584.4599609375)">
      <line class="ff_off_curve_x" x1="-8" x2="8" y1="-8" y2="8"/>
      <line class="ff_off_curve_x" x1="-8" x2="8" y1="8" y2="-8"/>
    </g>
  </g>
  <g class="ff_offp">
    <line class="ff_offp_pre" x1="765.3779296875" x2="806.2998046875" y1="684.0751953125" y2="643.1533203125"/>
    <g class="ff_offp_pre" transform="translate(806.2998046875,643.1533203125)">
      <line class="ff_off_curve_x" x1="-8" x2="8" y1="-8" y2="8"/>
      <line class="ff_off_curve_x" x1="-8" x2="8" y1="8" y2="-8"/>
    </g>
  </g>
  <g class="ff_offp">
    <line class="ff_offp_post" x1="765.3779296875" x2="712.146484375" y1="684.0751953125" y2="737.3095703125"/>
    <g class="ff_offp_post" transform="translate(712.146484375,737.3095703125)">
      <line class="ff_off_curve_x" x1="-8" x2="8" y1="-8" y2="8"/>
      <line class="ff_off_curve_x" x1="-8" x2="8" y1="8" y2="-8"/>
    </g>
  </g>
  <g class="ff_offp">
    <line class="ff_offp_pre" x1="553.64453125" x2="631.7666015625" y1="743.2802734375" y2="762.349609375"/>
    <g class="ff_offp_pre" transform="translate(631.7666015625,762.349609375)">
      <line class="ff_off_curve_x" x1="-8" x2="8" y1="-8" y2="8"/>
      <line class="ff_off_curve_x" x1="-8" x2="8" y1="8" y2="-8"/>
    </g>
  </g>
  <g class="ff_offp">
    <line class="ff_offp_post" x1="553.64453125" x2="475.240234375" y1="743.2802734375" y2="724.1435546875"/>
    <g class="ff_offp_post" transform="translate(475.240234375,724.1435546875)">
      <line class="ff_off_curve_x" x1="-8" x2="8" y1="-8" y2="8"/>
      <line class="ff_off_curve_x" x1="-8" x2="8" y1="8" y2="-8"/>
    </g>
  </g>
  <g class="ff_offp">
    <line class="ff_offp_pre" x1="397.884765625" x2="428.69921875" y1="672.7451171875" y2="693.4609375"/>
    <g class="ff_offp_pre" transform="translate(428.69921875,693.4609375)">
      <line class="ff_off_curve_x" x1="-8" x2="8" y1="-8" y2="8"/>
      <line class="ff_off_curve_x" x1="-8" x2="8" y1="8" y2="-8"/>
    </g>
  </g>
  <g class="ff_offp">
    <line class="ff_offp_post" x1="397.884765625" x2="366.94140625" y1="672.7451171875" y2="651.9423828125"/>
    <g class="ff_offp_post" transform="translate(366.94140625,651.9423828125)">
      <line class="ff_off_curve_x" x1="-8" x2="8" y1="-8" y2="8"/>
      <line class="ff_off_curve_x" x1="-8" x2="8" y1="8" y2="-8"/>
    </g>
  </g>
  <g class="ff_offp">
    <line class="ff_offp_pre" x1="340.54296875" x2="360.177734375" y1="649.7578125" y2="647.5390625"/>
    <g class="ff_offp_pre" transform="translate(360.177734375,647.5390625)">
      <line class="ff_off_curve_x" x1="-8" x2="8" y1="-8" y2="8"/>
      <line class="ff_off_curve_x" x1="-8" x2="8" y1="8" y2="-8"/>
    </g>
  </g>
  <g class="ff_offp">
    <line class="ff_offp_post" x1="340.54296875" x2="322.5009765625" y1="649.7578125" y2="651.794921875"/>
    <g class="ff_offp_post" transform="translate(322.5009765625,651.794921875)">
      <line class="ff_off_curve_x" x1="-8" x2="8" y1="-8" y2="8"/>
      <line class="ff_off_curve_x" x1="-8" x2="8" y1="8" y2="-8"/>
    </g>
  </g>
  <g class="ff_offp">
    <line class="ff_offp_pre" x1="230.6025390625" x2="288.283203125" y1="696.5048828125" y2="663.728515625"/>
    <g class="ff_offp_pre" transform="translate(288.283203125,663.728515625)">
      <line class="ff_off_curve_x" x1="-8" x2="8" y1="-8" y2="8"/>
      <line class="ff_off_curve_x" x1="-8" x2="8" y1="8" y2="-8"/>
    </g>
  </g>
  <g class="ff_offp">
    <line class="ff_offp_post" x1="230.6025390625" x2="216.20703125" y1="696.5048828125" y2="704.6826171875"/>
    <g class="ff_offp_post" transform="translate(216.20703125,704.6826171875)">
      <line class="ff_off_curve_x" x1="-8" x2="8" y1="-8" y2="8"/>
      <line class="ff_off_curve_x" x1="-8" x2="8" y1="8" y2="-8"/>
    </g>
  </g>
  <g class="ff_offp">
    <line class="ff_offp_pre" x1="185.9365234375" x2="201.283203125" y1="722.7734375" y2="713.599609375"/>
    <g class="ff_offp_pre" transform="translate(201.283203125,713.599609375)">
      <line class="ff_off_curve_x" x1="-8" x2="8" y1="-8" y2="8"/>
      <line class="ff_off_curve_x" x1="-8" x2="8" y1="8" y2="-8"/>
    </g>
  </g>
  <g class="ff_offp">
    <line class="ff_offp_post" x1="185.9365234375" x2="79.9013671875" y1="722.7734375" y2="786.1513671875"/>
    <g class="ff_offp_post" transform="translate(79.9013671875,786.1513671875)">
      <line class="ff_off_curve_x" x1="-8" x2="8" y1="-8" y2="8"/>
      <line class="ff_off_curve_x" x1="-8" x2="8" y1="8" y2="-8"/>
    </g>
  </g>
  <g class="ff_offp">
    <line class="ff_offp_pre" x1="-211.884765625" x2="-75.537109375" y1="746.4072265625" y2="882.7578125"/>
    <g class="ff_offp_pre" transform="translate(-75.537109375,882.7578125)">
      <line class="ff_off_curve_x" x1="-8" x2="8" y1="-8" y2="8"/>
      <line class="ff_off_curve_x" x1="-8" x2="8" y1="8" y2="-8"/>
    </g>
  </g>
  <g class="ff_offp">
    <line class="ff_offp_post" x1="-148.2451171875" x2="-66.1376953125" y1="682.767578125" y2="764.876953125"/>
    <g class="ff_offp_post" transform="translate(-66.1376953125,764.876953125)">
      <line class="ff_off_curve_x" x1="-8" x2="8" y1="-8" y2="8"/>
      <line class="ff_off_curve_x" x1="-8" x2="8" y1="8" y2="-8"/>
    </g>
  </g>
  <g class="ff_offp">
    <line class="ff_offp_pre" x1="139.78125" x2="20.6845703125" y1="645.48828125" y2="716.67578125"/>
    <g class="ff_offp_pre" transform="translate(20.6845703125,716.67578125)">
      <line class="ff_off_curve_x" x1="-8" x2="8" y1="-8" y2="8"/>
      <line class="ff_off_curve_x" x1="-8" x2="8" y1="8" y2="-8"/>
    </g>
  </g>
  <g class="ff_offp">
    <line class="ff_offp_post" x1="139.78125" x2="155.1318359375" y1="645.48828125" y2="636.314453125"/>
    <g class="ff_offp_post" transform="translate(155.1318359375,636.314453125)">
      <line class="ff_off_curve_x" x1="-8" x2="8" y1="-8" y2="8"/>
      <line class="ff_off_curve_x" x1="-8" x2="8" y1="8" y2="-8"/>
    </g>
  </g>
  <g class="ff_offp">
    <line class="ff_offp_pre" x1="186.1484375" x2="170.5849609375" y1="618.2294921875" y2="627.0712890625"/>
    <g class="ff_offp_pre" transform="translate(170.5849609375,627.0712890625)">
      <line class="ff_off_curve_x" x1="-8" x2="8" y1="-8" y2="8"/>
      <line class="ff_off_curve_x" x1="-8" x2="8" y1="8" y2="-8"/>
    </g>
  </g>
  <g class="ff_offp">
    <line class="ff_offp_post" x1="186.1484375" x2="262.138671875" y1="618.2294921875" y2="575.048828125"/>
    <g class="ff_offp_post" transform="translate(262.138671875,575.048828125)">
      <line class="ff_off_curve_x" x1="-8" x2="8" y1="-8" y2="8"/>
      <line class="ff_off_curve_x" x1="-8" x2="8" y1="8" y2="-8"/>
    </g>
  </g>
  <g class="ff_offp">
    <line class="ff_offp_pre" x1="359.7099609375" x2="311.5546875" y1="559.9091796875" y2="555.5849609375"/>
    <g class="ff_offp_pre" transform="translate(311.5546875,555.5849609375)">
      <line class="ff_off_curve_x" x1="-8" x2="8" y1="-8" y2="8"/>
      <line class="ff_off_curve_x" x1="-8" x2="8" y1="8" y2="-8"/>
    </g>
  </g>
  <g class="ff_offp">
    <line class="ff_offp_post" x1="359.7099609375" x2="398.6279296875" y1="559.9091796875" y2="563.4052734375"/>
    <g class="ff_offp_post" transform="translate(398.6279296875,563.4052734375)">
      <line class="ff_off_curve_x" x1="-8" x2="8" y1="-8" y2="8"/>
      <line class="ff_off_curve_x" x1="-8" x2="8" y1="8" y2="-8"/>
    </g>
  </g>
  <g class="ff_offp">
    <line class="ff_offp_pre" x1="448.046875" x2="425.2939453125" y1="598.00390625" y2="582.7080078125"/>
    <g class="ff_offp_pre" transform="translate(425.2939453125,582.7080078125)">
      <line class="ff_off_curve_x" x1="-8" x2="8" y1="-8" y2="8"/>
      <line class="ff_off_curve_x" x1="-8" x2="8" y1="8" y2="-8"/>
    </g>
  </g>
  <g class="ff_offp">
    <line class="ff_offp_post" x1="448.046875" x2="478.076171875" y1="598.00390625" y2="618.19140625"/>
    <g class="ff_offp_post" transform="translate(478.076171875,618.19140625)">
      <line class="ff_off_curve_x" x1="-8" x2="8" y1="-8" y2="8"/>
      <line class="ff_off_curve_x" x1="-8" x2="8" y1="8" y2="-8"/>
    </g>
  </g>
  <g class="ff_offp">
    <line class="ff_offp_pre" x1="575.0947265625" x2="509.361328125" y1="655.875" y2="639.8310546875"/>
    <g class="ff_offp_pre" transform="translate(509.361328125,639.8310546875)">
      <line class="ff_off_curve_x" x1="-8" x2="8" y1="-8" y2="8"/>
      <line class="ff_off_curve_x" x1="-8" x2="8" y1="8" y2="-8"/>
    </g>
  </g>
  <g class="ff_offp">
    <line class="ff_offp_post" x1="575.0947265625" x2="621.0126953125" y1="655.875" y2="667.0830078125"/>
    <g class="ff_offp_post" transform="translate(621.0126953125,667.0830078125)">
      <line class="ff_off_curve_x" x1="-8" x2="8" y1="-8" y2="8"/>
      <line class="ff_off_curve_x" x1="-8" x2="8" y1="8" y2="-8"/>
    </g>
  </g>
  <g class="ff_offp">
    <line class="ff_offp_pre" x1="701.73828125" x2="670.3486328125" y1="620.435546875" y2="651.8271484375"/>
    <g class="ff_offp_pre" transform="translate(670.3486328125,651.8271484375)">
      <line class="ff_off_curve_x" x1="-8" x2="8" y1="-8" y2="8"/>
      <line class="ff_off_curve_x" x1="-8" x2="8" y1="8" y2="-8"/>
    </g>
  </g>
  <g class="ff_offp">
    <line class="ff_offp_post" x1="701.73828125" x2="725.359375" y1="620.435546875" y2="596.814453125"/>
    <g class="ff_offp_post" transform="translate(725.359375,596.814453125)">
      <line class="ff_off_curve_x" x1="-8" x2="8" y1="-8" y2="8"/>
      <line class="ff_off_curve_x" x1="-8" x2="8" y1="8" y2="-8"/>
    </g>
  </g>
  <g class="ff_offp">
    <line class="ff_offp_pre" x1="734.99609375" x2="738.8046875" y1="527.0927734375" y2="565.1767578125"/>
    <g class="ff_offp_pre" transform="translate(738.8046875,565.1767578125)">
      <line class="ff_off_curve_x" x1="-8" x2="8" y1="-8" y2="8"/>
      <line class="ff_off_curve_x" x1="-8" x2="8" y1="8" y2="-8"/>
    </g>
  </g>
  <g class="ff_offp">
    <line class="ff_offp_post" x1="734.99609375" x2="731.369140625" y1="527.0927734375" y2="490.814453125"/>
    <g class="ff_offp_post" transform="translate(731.369140625,490.814453125)">
      <line class="ff_off_curve_x" x1="-8" x2="8" y1="-8" y2="8"/>
      <line class="ff_off_curve_x" x1="-8" x2="8" y1="8" y2="-8"/>
    </g>
  </g>
  <g class="ff_offp">
    <line class="ff_offp_pre" x1="706.9091796875" x2="720.17578125" y1="457.29296875" y2="470.5615234375"/>
    <g class="ff_offp_pre" transform="translate(720.17578125,470.5615234375)">
      <line class="ff_off_curve_x" x1="-8" x2="8" y1="-8" y2="8"/>
      <line class="ff_off_curve_x" x1="-8" x2="8" y1="8" y2="-8"/>
    </g>
  </g>
  <g class="ff_offp">
    <line class="ff_offp_post" x1="706.9091796875" x2="689.8603515625" y1="457.29296875" y2="440.244140625"/>
    <g class="ff_offp_post" transform="translate(689.8603515625,440.244140625)">
      <line class="ff_off_curve_x" x1="-8" x2="8" y1="-8" y2="8"/>
      <line class="ff_off_curve_x" x1="-8" x2="8" y1="8" y2="-8"/>
    </g>
  </g>
  <g class="ff_offp">
    <line class="ff_offp_pre" x1="626.7568359375" x2="662.779296875" y1="426.5732421875" y2="429.998046875"/>
    <g class="ff_offp_pre" transform="translate(662.779296875,429.998046875)">
      <line class="ff_off_curve_x" x1="-8" x2="8" y1="-8" y2="8"/>
      <line class="ff_off_curve_x" x1="-8" x2="8" y1="8" y2="-8"/>
    </g>
  </g>
  <g class="ff_offp">
    <line class="ff_offp_post" x1="626.7568359375" x2="582.1611328125" y1="426.5732421875" y2="422.3359375"/>
    <g class="ff_offp_post" transform="translate(582.1611328125,422.3359375)">
      <line class="ff_off_curve_x" x1="-8" x2="8" y1="-8" y2="8"/>
      <line class="ff_off_curve_x" x1="-8" x2="8" y1="8" y2="-8"/>
    </g>
  </g>
  <g class="ff_offp">
    <line class="ff_offp_pre" x1="482.521484375" x2="528.5078125" y1="435.634765625" y2="429.271484375"/>
    <g class="ff_offp_pre" transform="translate(528.5078125,429.271484375)">
      <line class="ff_off_curve_x" x1="-8" x2="8" y1="-8" y2="8"/>
      <line class="ff_off_curve_x" x1="-8" x2="8" y1="8" y2="-8"/>
    </g>
  </g>
  <g class="ff_offp">
    <line class="ff_offp_post" x1="482.521484375" x2="476.9521484375" y1="435.634765625" y2="436.4072265625"/>
    <g class="ff_offp_post" transform="translate(476.9521484375,436.4072265625)">
      <line class="ff_off_curve_x" x1="-8" x2="8" y1="-8" y2="8"/>
      <line class="ff_off_curve_x" x1="-8" x2="8" y1="8" y2="-8"/>
    </g>
  </g>
  <g class="ff_offp">
    <line class="ff_offp_pre" x1="466.1298828125" x2="471.484375" y1="437.8818359375" y2="437.1630859375"/>
    <g class="ff_offp_pre" transform="translate(471.484375,437.1630859375)">
      <line class="ff_off_curve_x" x1="-8" x2="8" y1="-8" y2="8"/>
      <line class="ff_off_curve_x" x1="-8" x2="8" y1="8" y2="-8"/>
    </g>
  </g>
  <g class="ff_offp">
    <line class="ff_offp_post" x1="466.1298828125" x2="434.2216796875" y1="437.8818359375" y2="442.1669921875"/>
    <g class="ff_offp_post" transform="translate(434.2216796875,442.1669921875)">
      <line class="ff_off_curve_x" x1="-8" x2="8" y1="-8" y2="8"/>
      <line class="ff_off_curve_x" x1="-8" x2="8" y1="8" y2="-8"/>
    </g>
  </g>
  <g class="ff_offp">
    <line class="ff_offp_pre" x1="367.310546875" x2="400.1259765625" y1="439.5673828125" y2="441.98046875"/>
    <g class="ff_offp_pre" transform="translate(400.1259765625,441.98046875)">
      <line class="ff_off_curve_x" x1="-8" x2="8" y1="-8" y2="8"/>
      <line class="ff_off_curve_x" x1="-8" x2="8" y1="8" y2="-8"/>
    </g>
  </g>
  <g class="ff_offp">
    <line class="ff_offp_post" x1="188.71484375" x2="170.8642578125" y1="426.4345703125" y2="425.1220703125"/>
    <g class="ff_offp_post" transform="translate(170.8642578125,425.1220703125)">
      <line class="ff_off_curve_x" x1="-8" x2="8" y1="-8" y2="8"/>
      <line class="ff_off_curve_x" x1="-8" x2="8" y1="8" y2="-8"/>
    </g>
  </g>
  <g class="ff_offp">
    <line class="ff_offp_pre" x1="134.48828125" x2="152.91015625" y1="419.78515625" y2="422.4599609375"/>
    <g class="ff_offp_pre" transform="translate(152.91015625,422.4599609375)">
      <line class="ff_off_curve_x" x1="-8" x2="8" y1="-8" y2="8"/>
      <line class="ff_off_curve_x" x1="-8" x2="8" y1="8" y2="-8"/>
    </g>
  </g>
  <g class="ff_offp">
    <line class="ff_offp_post" x1="134.48828125" x2="45.9208984375" y1="419.78515625" y2="406.9267578125"/>
    <g class="ff_offp_post" transform="translate(45.9208984375,406.9267578125)">
      <line class="ff_off_curve_x" x1="-8" x2="8" y1="-8" y2="8"/>
      <line class="ff_off_curve_x" x1="-8" x2="8" y1="8" y2="-8"/>
    </g>
  </g>
  <g class="ff_offp">
    <line class="ff_offp_pre" x1="-137.4609375" x2="-48.0126953125" y1="482.8603515625" y2="393.4111328125"/>
    <g class="ff_offp_pre" transform="translate(-48.0126953125,393.4111328125)">
      <line class="ff_off_curve_x" x1="-8" x2="8" y1="-8" y2="8"/>
      <line class="ff_off_curve_x" x1="-8" x2="8" y1="8" y2="-8"/>
    </g>
  </g>
  <g class="ff_offp">
    <line class="ff_offp_post" x1="-137.4609375" x2="-166.126953125" y1="482.8603515625" y2="511.525390625"/>
    <g class="ff_offp_post" transform="translate(-166.126953125,511.525390625)">
      <line class="ff_off_curve_x" x1="-8" x2="8" y1="-8" y2="8"/>
      <line class="ff_off_curve_x" x1="-8" x2="8" y1="8" y2="-8"/>
    </g>
  </g>
  <g class="ff_offp">
    <line class="ff_offp_pre" x1="-186.0947265625" x2="-181.8564453125" y1="574.927734375" y2="544.08203125"/>
    <g class="ff_offp_pre" transform="translate(-181.8564453125,544.08203125)">
      <line class="ff_off_curve_x" x1="-8" x2="8" y1="-8" y2="8"/>
      <line class="ff_off_curve_x" x1="-8" x2="8" y1="8" y2="-8"/>
    </g>
  </g>
  <g class="ff_offp">
    <line class="ff_offp_post" x1="-186.0947265625" x2="-191.33984375" y1="574.927734375" y2="613.107421875"/>
    <g class="ff_offp_post" transform="translate(-191.33984375,613.107421875)">
      <line class="ff_off_curve_x" x1="-8" x2="8" y1="-8" y2="8"/>
      <line class="ff_off_curve_x" x1="-8" x2="8" y1="8" y2="-8"/>
    </g>
  </g>
  <g class="ff_offp">
    <line class="ff_offp_pre" x1="-148.2451171875" x2="-180.0263671875" y1="682.767578125" y2="650.986328125"/>
    <g class="ff_offp_pre" transform="translate(-180.0263671875,650.986328125)">
      <line class="ff_off_curve_x" x1="-8" x2="8" y1="-8" y2="8"/>
      <line class="ff_off_curve_x" x1="-8" x2="8" y1="8" y2="-8"/>
    </g>
  </g>
  <g>
    <circle class="ff_onp ff_curve ff_first" cx="0" cy="0" r="7" transform="translate(-211.884765625,746.4072265625)"/>
    <g transform="translate(-211.884765625,746.4072265625) rotate(-135.0005483741806)">
      <line class="ff_arrow" x1="0" x2="10" y1="-10" y2="-10"/>
      <line class="ff_arrow" x1="10" x2="7" y1="-10" y2="-7"/>
      <line class="ff_arrow" x1="10" x2="7" y1="-10" y2="-13"/>
    </g>
  </g>
  <circle class="ff_onp ff_curve" cx="0" cy="0" r="7" transform="translate(-275.234375,562.5966796875)"/>
  <circle class="ff_onp ff_curve" cx="0" cy="0" r="7" transform="translate(-201.1005859375,419.220703125)"/>
  <circle class="ff_onp ff_curve" cx="0" cy="0" r="7" transform="translate(147.5068359375,330.7431640625)"/>
  <polygon class="ff_onp ff_tangent" points="0,-9 9,0 0,9" transform="translate(195.36328125,336.6962890625) rotate(184.2081598477837)"/>
  <polygon class="ff_onp ff_tangent" points="0,-9 9,0 0,9" transform="translate(373.958984375,349.8291015625) rotate(4.20356492517692)"/>
  <circle class="ff_onp ff_curve" cx="0" cy="0" r="7" transform="translate(454.0712890625,348.7060546875)"/>
  <circle class="ff_onp ff_curve" cx="0" cy="0" r="7" transform="translate(470.1025390625,346.5087890625)"/>
  <circle class="ff_onp ff_curve" cx="0" cy="0" r="7" transform="translate(635.3310546875,336.9970703125)"/>
  <circle class="ff_onp ff_curve" cx="0" cy="0" r="7" transform="translate(770.5478515625,393.6533203125)"/>
  <circle class="ff_onp ff_curve" cx="0" cy="0" r="7" transform="translate(824.5302734375,518.0751953125)"/>
  <circle class="ff_onp ff_curve" cx="0" cy="0" r="7" transform="translate(765.3779296875,684.0751953125)"/>
  <circle class="ff_onp ff_curve" cx="0" cy="0" r="7" transform="translate(553.64453125,743.2802734375)"/>
  <circle class="ff_onp ff_curve" cx="0" cy="0" r="7" transform="translate(397.884765625,672.7451171875)"/>
  <circle class="ff_onp ff_curve" cx="0" cy="0" r="7" transform="translate(340.54296875,649.7578125)"/>
  <circle class="ff_onp ff_curve" cx="0" cy="0" r="7" transform="translate(230.6025390625,696.5048828125)"/>
  <circle class="ff_onp ff_curve" cx="0" cy="0" r="7" transform="translate(185.9365234375,722.7734375)"/>
  <g>
    <circle class="ff_onp ff_curve ff_first" cx="0" cy="0" r="7" transform="translate(-211.884765625,746.4072265625)"/>
    <g transform="translate(-211.884765625,746.4072265625) rotate(-135.0005483741806)">
      <line class="ff_arrow" x1="0" x2="10" y1="-10" y2="-10"/>
      <line class="ff_arrow" x1="10" x2="7" y1="-10" y2="-7"/>
      <line class="ff_arrow" x1="10" x2="7" y1="-10" y2="-13"/>
    </g>
  </g>
  <g>
    <circle class="ff_onp ff_curve ff_first" cx="0" cy="0" r="7" transform="translate(-148.2451171875,682.767578125)"/>
    <g transform="translate(-148.2451171875,682.767578125) rotate(45.0006814517241)">
      <line class="ff_arrow" x1="0" x2="10" y1="-10" y2="-10"/>
      <line class="ff_arrow" x1="10" x2="7" y1="-10" y2="-7"/>
      <line class="ff_arrow" x1="10" x2="7" y1="-10" y2="-13"/>
    </g>
  </g>
  <circle class="ff_onp ff_curve" cx="0" cy="0" r="7" transform="translate(139.78125,645.48828125)"/>
  <circle class="ff_onp ff_curve" cx="0" cy="0" r="7" transform="translate(186.1484375,618.2294921875)"/>
  <circle class="ff_onp ff_curve" cx="0" cy="0" r="7" transform="translate(359.7099609375,559.9091796875)"/>
  <circle class="ff_onp ff_curve" cx="0" cy="0" r="7" transform="translate(448.046875,598.00390625)"/>
  <circle class="ff_onp ff_curve" cx="0" cy="0" r="7" transform="translate(575.0947265625,655.875)"/>
  <circle class="ff_onp ff_curve" cx="0" cy="0" r="7" transform="translate(701.73828125,620.435546875)"/>
  <circle class="ff_onp ff_curve" cx="0" cy="0" r="7" transform="translate(734.99609375,527.0927734375)"/>
  <circle class="ff_onp ff_curve" cx="0" cy="0" r="7" transform="translate(706.9091796875,457.29296875)"/>
  <circle class="ff_onp ff_curve" cx="0" cy="0" r="7" transform="translate(626.7568359375,426.5732421875)"/>
  <circle class="ff_onp ff_curve" cx="0" cy="0" r="7" transform="translate(482.521484375,435.634765625)"/>
  <circle class="ff_onp ff_curve" cx="0" cy="0" r="7" transform="translate(466.1298828125,437.8818359375)"/>
  <polygon class="ff_onp ff_tangent" points="0,-9 9,0 0,9" transform="translate(367.310546875,439.5673828125) rotate(4.205681219705696)"/>
  <polygon class="ff_onp ff_tangent" points="0,-9 9,0 0,9" transform="translate(188.71484375,426.4345703125) rotate(184.20521945794698)"/>
  <circle class="ff_onp ff_curve" cx="0" cy="0" r="7" transform="translate(134.48828125,419.78515625)"/>
  <circle class="ff_onp ff_curve" cx="0" cy="0" r="7" transform="translate(-137.4609375,482.8603515625)"/>
  <circle class="ff_onp ff_curve" cx="0" cy="0" r="7" transform="translate(-186.0947265625,574.927734375)"/>
  <g>
    <circle class="ff_onp ff_curve ff_first" cx="0" cy="0" r="7" transform="translate(-148.2451171875,682.767578125)"/>
    <g transform="translate(-148.2451171875,682.767578125) rotate(45.0006814517241)">
      <line class="ff_arrow" x1="0" x2="10" y1="-10" y2="-10"/>
      <line class="ff_arrow" x1="10" x2="7" y1="-10" y2="-7"/>
      <line class="ff_arrow" x1="10" x2="7" y1="-10" y2="-13"/>
    </g>
  </g>
  <path class="ff_main_background" d="M-180.0654296875 714.587890625C-254.583984375 640.068359375 -247.8994140625 529.6572265625 -169.28125 451.041015625C-41.6728515625 323.4326171875 102.572265625 374.9853515625 192.0390625 381.564453125L370.634765625 394.697265625C401.19921875 396.9453125 432.685546875 396.9755859375 460.1005859375 393.29296875C570.4326171875 378.478515625 761.80078125 342.93359375 779.76171875 522.583984375C791.8330078125 643.3046875 673.6953125 726.26171875 564.3681640625 699.578125C365.958984375 651.1484375 418.849609375 537.76953125 208.375 657.3671875C83.546875 728.29296875 -55.9423828125 838.7099609375 -180.0654296875 714.587890625 z"/>
  <path class="ff_main_closed" d="M-211.884765625 746.4072265625C-262.90234375 695.390625 -284.2626953125 628.314453125 -275.234375 562.5966796875C-268.052734375 510.32421875 -242.318359375 460.4365234375 -201.1005859375 419.220703125C-79.5322265625 297.65234375 60.296875 318.080078125 147.5068359375 330.7431640625C165.904296875 333.4150390625 182.2236328125 335.7294921875 195.36328125 336.6962890625L373.958984375 349.8291015625C402.2734375 351.91015625 431.1494140625 351.7841796875 454.0712890625 348.7060546875C459.177734375 348.0205078125 464.53515625 347.2783203125 470.1025390625 346.5087890625C516.2802734375 340.119140625 576.0283203125 331.36328125 635.3310546875 336.9970703125C682.4248046875 341.47265625 732.3818359375 355.486328125 770.5478515625 393.6533203125C800.609375 423.7138671875 819.3076171875 465.8486328125 824.5302734375 518.0751953125C831.16796875 584.4599609375 806.2998046875 643.1533203125 765.3779296875 684.0751953125C712.146484375 737.3095703125 631.7666015625 762.349609375 553.64453125 743.2802734375C475.240234375 724.1435546875 428.69921875 693.4609375 397.884765625 672.7451171875C366.94140625 651.9423828125 360.177734375 647.5390625 340.54296875 649.7578125C322.5009765625 651.794921875 288.283203125 663.728515625 230.6025390625 696.5048828125C216.20703125 704.6826171875 201.283203125 713.599609375 185.9365234375 722.7734375C79.9013671875 786.1513671875 -75.537109375 882.7578125 -211.884765625 746.4072265625 zM-148.2451171875 682.767578125C-66.1376953125 764.876953125 20.6845703125 716.67578125 139.78125 645.48828125C155.1318359375 636.314453125 170.5849609375 627.0712890625 186.1484375 618.2294921875C262.138671875 575.048828125 311.5546875 555.5849609375 359.7099609375 559.9091796875C398.6279296875 563.4052734375 425.2939453125 582.7080078125 448.046875 598.00390625C478.076171875 618.19140625 509.361328125 639.8310546875 575.0947265625 655.875C621.0126953125 667.0830078125 670.3486328125 651.8271484375 701.73828125 620.435546875C725.359375 596.814453125 738.8046875 565.1767578125 734.99609375 527.0927734375C731.369140625 490.814453125 720.17578125 470.5615234375 706.9091796875 457.29296875C689.8603515625 440.244140625 662.779296875 429.998046875 626.7568359375 426.5732421875C582.1611328125 422.3359375 528.5078125 429.271484375 482.521484375 435.634765625C476.9521484375 436.4072265625 471.484375 437.1630859375 466.1298828125 437.8818359375C434.2216796875 442.1669921875 400.1259765625 441.98046875 367.310546875 439.5673828125L188.71484375 426.4345703125C170.8642578125 425.1220703125 152.91015625 422.4599609375 134.48828125 419.78515625C45.9208984375 406.9267578125 -48.0126953125 393.4111328125 -137.4609375 482.8603515625C-166.126953125 511.525390625 -181.8564453125 544.08203125 -186.0947265625 574.927734375C-191.33984375 613.107421875 -180.0263671875 650.986328125 -148.2451171875 682.767578125 z"/>
</svg>
