<?xml version="1.0" encoding="utf-8" ?>
<?xml-stylesheet href="../ff_svg_fig.css" type="text/css" title="FontForge SVG stylesheet" alternate="no" media="screen"?>
<svg baseProfile="full" height="100%" version="1.1" viewBox="-423,-101,862,361" width="100%" xmlns="http://www.w3.org/2000/svg" xmlns:ev="http://www.w3.org/2001/xml-events" xmlns:xlink="http://www.w3.org/1999/xlink">
  <defs/>
  <g class="ff_offp">
    <line class="ff_offp_post" x1="-291.5537109375" x2="-183.734375" y1="239.9287109375" y2="119.21875"/>
    <g class="ff_offp_post" transform="translate(-183.734375,119.21875)">
      <line class="ff_off_curve_x" x1="-8" x2="8" y1="-8" y2="8"/>
      <line class="ff_off_curve_x" x1="-8" x2="8" y1="8" y2="-8"/>
    </g>
  </g>
  <g class="ff_offp">
    <line class="ff_offp_pre" x1="13.787109375" x2="-79.7763671875" y1="69.0341796875" y2="69.0341796875"/>
    <g class="ff_offp_pre" transform="translate(-79.7763671875,69.0341796875)">
      <line class="ff_off_curve_x" x1="-8" x2="8" y1="-8" y2="8"/>
      <line class="ff_off_curve_x" x1="-8" x2="8" y1="8" y2="-8"/>
    </g>
  </g>
  <g class="ff_offp">
    <line class="ff_offp_post" x1="13.787109375" x2="104.9462890625" y1="69.0341796875" y2="69.0341796875"/>
    <g class="ff_offp_post" transform="translate(104.9462890625,69.0341796875)">
      <line class="ff_off_curve_x" x1="-8" x2="8" y1="-8" y2="8"/>
      <line class="ff_off_curve_x" x1="-8" x2="8" y1="8" y2="-8"/>
    </g>
  </g>
  <g class="ff_offp">
    <line class="ff_offp_pre" x1="306.2490234375" x2="204.0634765625" y1="232.0859375" y2="116.275390625"/>
    <g class="ff_offp_pre" transform="translate(204.0634765625,116.275390625)">
      <line class="ff_off_curve_x" x1="-8" x2="8" y1="-8" y2="8"/>
      <line class="ff_off_curve_x" x1="-8" x2="8" y1="8" y2="-8"/>
    </g>
  </g>
  <g class="ff_offp">
    <line class="ff_offp_post" x1="418.7509765625" x2="298.6806640625" y1="132.9140625" y2="-3.166015625"/>
    <g class="ff_offp_post" transform="translate(298.6806640625,-3.166015625)">
      <line class="ff_off_curve_x" x1="-8" x2="8" y1="-8" y2="8"/>
      <line class="ff_off_curve_x" x1="-8" x2="8" y1="8" y2="-8"/>
    </g>
  </g>
  <g class="ff_offp">
    <line class="ff_offp_pre" x1="13.787109375" x2="160.904296875" y1="-80.9658203125" y2="-80.9658203125"/>
    <g class="ff_offp_pre" transform="translate(160.904296875,-80.9658203125)">
      <line class="ff_off_curve_x" x1="-8" x2="8" y1="-8" y2="8"/>
      <line class="ff_off_curve_x" x1="-8" x2="8" y1="8" y2="-8"/>
    </g>
  </g>
  <g class="ff_offp">
    <line class="ff_offp_post" x1="13.787109375" x2="-136.8076171875" y1="-80.9658203125" y2="-80.9658203125"/>
    <g class="ff_offp_post" transform="translate(-136.8076171875,-80.9658203125)">
      <line class="ff_off_curve_x" x1="-8" x2="8" y1="-8" y2="8"/>
      <line class="ff_off_curve_x" x1="-8" x2="8" y1="8" y2="-8"/>
    </g>
  </g>
  <g class="ff_offp">
    <line class="ff_offp_pre" x1="-403.4462890625" x2="-278.4609375" y1="140.0712890625" y2="0.1416015625"/>
    <g class="ff_offp_pre" transform="translate(-278.4609375,0.1416015625)">
      <line class="ff_off_curve_x" x1="-8" x2="8" y1="-8" y2="8"/>
      <line class="ff_off_curve_x" x1="-8" x2="8" y1="8" y2="-8"/>
    </g>
  </g>
  <g>
    <rect class="ff_onp ff_corner ff_first ff_extremum" height="12" transform="translate(-291.5537109375,239.9287109375)" width="12" x="-6" y="-6"/>
    <g transform="translate(-291.5537109375,239.9287109375) rotate(-48.22845512282411)">
      <line class="ff_arrow" x1="0" x2="10" y1="-10" y2="-10"/>
      <line class="ff_arrow" x1="10" x2="7" y1="-10" y2="-7"/>
      <line class="ff_arrow" x1="10" x2="7" y1="-10" y2="-13"/>
    </g>
  </g>
  <circle class="ff_onp ff_curve ff_extremum" cx="0" cy="0" r="7" transform="translate(13.787109375,69.0341796875)"/>
  <rect class="ff_onp ff_corner ff_extremum" height="12" transform="translate(306.2490234375,232.0859375)" width="12" x="-6" y="-6"/>
  <g>
    <rect class="ff_onp ff_corner ff_first ff_extremum" height="12" transform="translate(418.7509765625,132.9140625)" width="12" x="-6" y="-6"/>
    <g transform="translate(418.7509765625,132.9140625) rotate(-131.4235840295935)">
      <line class="ff_arrow" x1="0" x2="10" y1="-10" y2="-10"/>
      <line class="ff_arrow" x1="10" x2="7" y1="-10" y2="-7"/>
      <line class="ff_arrow" x1="10" x2="7" y1="-10" y2="-13"/>
    </g>
  </g>
  <circle class="ff_onp ff_curve ff_extremum" cx="0" cy="0" r="7" transform="translate(13.787109375,-80.9658203125)"/>
  <rect class="ff_onp ff_corner ff_extremum" height="12" transform="translate(-403.4462890625,140.0712890625)" width="12" x="-6" y="-6"/>
  <path class="ff_main_background" d="M-347.5 190.0C-117.5 -67.5 137.5 -72.5 362.5 182.5"/>
  <path class="ff_main_open" d="M-291.5537109375 239.9287109375C-183.734375 119.21875 -79.7763671875 69.0341796875 13.787109375 69.0341796875C104.9462890625 69.0341796875 204.0634765625 116.275390625 306.2490234375 232.0859375M418.7509765625 132.9140625C298.6806640625 -3.166015625 160.904296875 -80.9658203125 13.787109375 -80.9658203125C-136.8076171875 -80.9658203125 -278.4609375 0.1416015625 -403.4462890625 140.0712890625"/>
</svg>
