<?xml version="1.0" encoding="utf-8" ?>
<?xml-stylesheet href="../ff_svg_fig.css" type="text/css" title="FontForge SVG stylesheet" alternate="no" media="screen"?>
<svg baseProfile="full" height="100%" version="1.1" viewBox="-439,720,870,720" width="100%" xmlns="http://www.w3.org/2000/svg" xmlns:ev="http://www.w3.org/2001/xml-events" xmlns:xlink="http://www.w3.org/1999/xlink">
  <defs/>
  <path class="ff_main_background" d="M-240.0 900.0L-360.0 900.0L-360.0 780.0L-240.0 780.0 zM240.0 840.0C240.0 806.884765625 266.884765625 780.0 300.0 780.0C333.115234375 780.0 360.0 806.884765625 360.0 840.0C360.0 873.115234375 333.115234375 900.0 300.0 900.0C266.884765625 900.0 240.0 873.115234375 240.0 840.0 zM-246.6865234375 1086.1357421875L-336.896484375 1118.9697265625L-353.3134765625 1073.8642578125L-263.103515625 1041.0302734375 zM254.89453125 1096.4169921875C250.3642578125 1083.970703125 266.896484375 1066.5078125 291.791015625 1057.447265625C316.6865234375 1048.38671875 340.5751953125 1051.1357421875 345.10546875 1063.5830078125C349.6357421875 1076.029296875 333.103515625 1093.4921875 308.208984375 1102.552734375C283.3134765625 1111.61328125 259.4248046875 1108.8642578125 254.89453125 1096.4169921875 zM-181.2060546875 1235.146484375L-384.853515625 1438.7939453125L-418.7939453125 1404.853515625L-215.146484375 1201.2060546875 zM198.1767578125 1421.8232421875C188.810546875 1412.45703125 226.83203125 1359.2275390625 283.029296875 1303.029296875C339.2275390625 1246.83203125 392.45703125 1208.810546875 401.8232421875 1218.1767578125C411.189453125 1227.54296875 373.16796875 1280.7724609375 316.970703125 1336.970703125C260.7724609375 1393.16796875 207.54296875 1431.189453125 198.1767578125 1421.8232421875 z"/>
  <text class="ff_label" y="750" x="-300">Calligraphic</text>
  <text class="ff_label" y="750" x="300">Elliptical</text>
  <text class="ff_label" y="850" x="0">Width: 50, Height: 50, Angle: 0°</text>
  <text class="ff_label" y="1085" x="0">Width: 40, Height: 20, Angle: 25°</text>
  <text class="ff_label" y="1320" x="0">Width: 120, Height: 20, Angle: 45°</text>
</svg>
