<?xml version="1.0" encoding="utf-8" ?>
<?xml-stylesheet href="../ff_svg_fig.css" type="text/css" title="FontForge SVG stylesheet" alternate="no" media="screen"?>
<svg baseProfile="full" height="100%" version="1.1" viewBox="-298,669,804,516" width="100%" xmlns="http://www.w3.org/2000/svg" xmlns:ev="http://www.w3.org/2001/xml-events" xmlns:xlink="http://www.w3.org/1999/xlink">
  <defs/>
  <g class="ff_offp">
    <line class="ff_offp_post" x1="88.5986328125" x2="104.921875" y1="1145.0" y2="1049.658203125"/>
    <g class="ff_offp_post" transform="translate(104.921875,1049.658203125)">
      <line class="ff_off_curve_x" x1="-8" x2="8" y1="-8" y2="8"/>
      <line class="ff_off_curve_x" x1="-8" x2="8" y1="8" y2="-8"/>
    </g>
  </g>
  <g class="ff_offp">
    <line class="ff_offp_pre" x1="168.80859375" x2="132.080078125" y1="870.87890625" y2="957.8857421875"/>
    <g class="ff_offp_pre" transform="translate(132.080078125,957.8857421875)">
      <line class="ff_off_curve_x" x1="-8" x2="8" y1="-8" y2="8"/>
      <line class="ff_off_curve_x" x1="-8" x2="8" y1="8" y2="-8"/>
    </g>
  </g>
  <g>
    <rect class="ff_onp ff_corner ff_first ff_extremum" height="12" transform="translate(88.5986328125,1145.0)" width="12" x="-6" y="-6"/>
    <g transform="translate(88.5986328125,1145.0) rotate(-80.28472003584558)">
      <line class="ff_arrow" x1="0" x2="10" y1="-10" y2="-10"/>
      <line class="ff_arrow" x1="10" x2="7" y1="-10" y2="-7"/>
      <line class="ff_arrow" x1="10" x2="7" y1="-10" y2="-13"/>
    </g>
  </g>
  <rect class="ff_onp ff_corner ff_extremum" height="12" transform="translate(168.80859375,870.87890625)" width="12" x="-6" y="-6"/>
  <rect class="ff_onp ff_corner ff_extremum" height="12" transform="translate(25.05859375,1095.0)" width="12" x="-6" y="-6"/>
  <rect class="ff_onp ff_corner ff_extremum" height="12" transform="translate(204.8291015625,765.0)" width="12" x="-6" y="-6"/>
  <path class="ff_main_background" d="M243.9560546875 1022.955078125L354.4326171875 820.146484375C366.201171875 798.5283203125 389.28515625 783.7451171875 415.79296875 783.7451171875C454.3857421875 783.7451171875 485.716796875 815.0771484375 485.716796875 853.6689453125C485.716796875 865.751953125 482.6455078125 877.1240234375 477.2412109375 887.044921875C448.826171875 939.2080078125 411.8427734375 999.3330078125 368.109375 1060.6435546875C365.2236328125 1064.6904296875 362.326171875 1068.7177734375 359.4189453125 1072.7236328125C348.0498046875 1088.3916015625 329.591796875 1098.587890625 308.771484375 1098.587890625C274.2568359375 1098.587890625 246.2353515625 1070.56640625 246.2353515625 1036.0517578125C246.2353515625 1027.4462890625 247.9775390625 1019.2431640625 251.1435546875 1011.7509765625 zM-250.0 1145.0C-278.0810546875 1124.9658203125 -231.279296875 1011.123046875 -145.5419921875 890.927734375C-59.8095703125 770.732421875 32.5927734375 689.4140625 60.6787109375 709.443359375C88.759765625 729.4775390625 41.953125 843.3203125 -43.779296875 963.515625C-129.51171875 1083.7109375 -221.9189453125 1165.029296875 -250.0 1145.0 zM360.5986328125 955.0C346.685546875 980.541015625 331.15234375 1005.1982421875 314.0615234375 1028.75"/>
  <path class="ff_main_open" d="M88.5986328125 1145.0C104.921875 1049.658203125 132.080078125 957.8857421875 168.80859375 870.87890625L25.05859375 1095.0L204.8291015625 765.0"/>
</svg>
