<?xml version="1.0" encoding="utf-8" ?>
<?xml-stylesheet href="../ff_svg_fig.css" type="text/css" title="FontForge SVG stylesheet" alternate="no" media="screen"?>
<svg baseProfile="full" height="100%" version="1.1" viewBox="-447,-39,1071,483" width="100%" xmlns="http://www.w3.org/2000/svg" xmlns:ev="http://www.w3.org/2001/xml-events" xmlns:xlink="http://www.w3.org/1999/xlink">
  <defs/>
  <g class="ff_offp">
    <line class="ff_offp_post" x1="-112.7998046875" x2="-98.400390625" y1="373.7998046875" y2="363.0"/>
    <g class="ff_offp_post" transform="translate(-98.400390625,363.0)">
      <line class="ff_off_curve_x" x1="-8" x2="8" y1="-8" y2="8"/>
      <line class="ff_off_curve_x" x1="-8" x2="8" y1="8" y2="-8"/>
    </g>
  </g>
  <g class="ff_offp">
    <line class="ff_offp_pre" x1="-84.0" x2="-84.0" y1="324.599609375" y2="346.83203125"/>
    <g class="ff_offp_pre" transform="translate(-84.0,346.83203125)">
      <line class="ff_off_curve_x" x1="-8" x2="8" y1="-8" y2="8"/>
      <line class="ff_off_curve_x" x1="-8" x2="8" y1="8" y2="-8"/>
    </g>
  </g>
  <g class="ff_offp">
    <line class="ff_offp_post" x1="-84.0" x2="-84.0" y1="324.599609375" y2="216.599609375"/>
    <g class="ff_offp_post" transform="translate(-84.0,216.599609375)">
      <line class="ff_off_curve_x" x1="-8" x2="8" y1="-8" y2="8"/>
      <line class="ff_off_curve_x" x1="-8" x2="8" y1="8" y2="-8"/>
    </g>
  </g>
  <g class="ff_offp">
    <line class="ff_offp_pre" x1="-120.0" x2="-120.0" y1="51.0" y2="161.400390625"/>
    <g class="ff_offp_pre" transform="translate(-120.0,161.400390625)">
      <line class="ff_off_curve_x" x1="-8" x2="8" y1="-8" y2="8"/>
      <line class="ff_off_curve_x" x1="-8" x2="8" y1="8" y2="-8"/>
    </g>
  </g>
  <g class="ff_offp">
    <line class="ff_offp_post" x1="-120.0" x2="-120.0" y1="51.0" y2="25.79296875"/>
    <g class="ff_offp_post" transform="translate(-120.0,25.79296875)">
      <line class="ff_off_curve_x" x1="-8" x2="8" y1="-8" y2="8"/>
      <line class="ff_off_curve_x" x1="-8" x2="8" y1="8" y2="-8"/>
    </g>
  </g>
  <g class="ff_offp">
    <line class="ff_offp_pre" x1="-91.7998046875" x2="-106.7998046875" y1="-1.7998046875" y2="10.2001953125"/>
    <g class="ff_offp_pre" transform="translate(-106.7998046875,10.2001953125)">
      <line class="ff_off_curve_x" x1="-8" x2="8" y1="-8" y2="8"/>
      <line class="ff_off_curve_x" x1="-8" x2="8" y1="8" y2="-8"/>
    </g>
  </g>
  <g class="ff_offp">
    <line class="ff_offp_post" x1="-427.2001953125" x2="-427.2001953125" y1="183.0" y2="79.2001953125"/>
    <g class="ff_offp_post" transform="translate(-427.2001953125,79.2001953125)">
      <line class="ff_off_curve_x" x1="-8" x2="8" y1="-8" y2="8"/>
      <line class="ff_off_curve_x" x1="-8" x2="8" y1="8" y2="-8"/>
    </g>
  </g>
  <g class="ff_offp">
    <line class="ff_offp_pre" x1="-314.400390625" x2="-376.7998046875" y1="-5.400390625" y2="-5.400390625"/>
    <g class="ff_offp_pre" transform="translate(-376.7998046875,-5.400390625)">
      <line class="ff_off_curve_x" x1="-8" x2="8" y1="-8" y2="8"/>
      <line class="ff_off_curve_x" x1="-8" x2="8" y1="8" y2="-8"/>
    </g>
  </g>
  <g class="ff_offp">
    <line class="ff_offp_post" x1="-314.400390625" x2="-252.0" y1="-5.400390625" y2="-5.400390625"/>
    <g class="ff_offp_post" transform="translate(-252.0,-5.400390625)">
      <line class="ff_off_curve_x" x1="-8" x2="8" y1="-8" y2="8"/>
      <line class="ff_off_curve_x" x1="-8" x2="8" y1="8" y2="-8"/>
    </g>
  </g>
  <g class="ff_offp">
    <line class="ff_offp_pre" x1="-201.599609375" x2="-201.599609375" y1="183.0" y2="79.2001953125"/>
    <g class="ff_offp_pre" transform="translate(-201.599609375,79.2001953125)">
      <line class="ff_off_curve_x" x1="-8" x2="8" y1="-8" y2="8"/>
      <line class="ff_off_curve_x" x1="-8" x2="8" y1="8" y2="-8"/>
    </g>
  </g>
  <g class="ff_offp">
    <line class="ff_offp_post" x1="-201.599609375" x2="-201.599609375" y1="183.0" y2="286.7998046875"/>
    <g class="ff_offp_post" transform="translate(-201.599609375,286.7998046875)">
      <line class="ff_off_curve_x" x1="-8" x2="8" y1="-8" y2="8"/>
      <line class="ff_off_curve_x" x1="-8" x2="8" y1="8" y2="-8"/>
    </g>
  </g>
  <g class="ff_offp">
    <line class="ff_offp_pre" x1="-314.400390625" x2="-252.0" y1="371.400390625" y2="371.400390625"/>
    <g class="ff_offp_pre" transform="translate(-252.0,371.400390625)">
      <line class="ff_off_curve_x" x1="-8" x2="8" y1="-8" y2="8"/>
      <line class="ff_off_curve_x" x1="-8" x2="8" y1="8" y2="-8"/>
    </g>
  </g>
  <g class="ff_offp">
    <line class="ff_offp_post" x1="-314.400390625" x2="-376.7998046875" y1="371.400390625" y2="371.400390625"/>
    <g class="ff_offp_post" transform="translate(-376.7998046875,371.400390625)">
      <line class="ff_off_curve_x" x1="-8" x2="8" y1="-8" y2="8"/>
      <line class="ff_off_curve_x" x1="-8" x2="8" y1="8" y2="-8"/>
    </g>
  </g>
  <g class="ff_offp">
    <line class="ff_offp_pre" x1="-427.2001953125" x2="-427.2001953125" y1="183.0" y2="286.7998046875"/>
    <g class="ff_offp_pre" transform="translate(-427.2001953125,286.7998046875)">
      <line class="ff_off_curve_x" x1="-8" x2="8" y1="-8" y2="8"/>
      <line class="ff_off_curve_x" x1="-8" x2="8" y1="8" y2="-8"/>
    </g>
  </g>
  <g class="ff_offp">
    <line class="ff_offp_post" x1="551.4013671875" x2="551.4013671875" y1="371.986328125" y2="378.115234375"/>
    <g class="ff_offp_post" transform="translate(551.4013671875,378.115234375)">
      <line class="ff_off_curve_x" x1="-8" x2="8" y1="-8" y2="8"/>
      <line class="ff_off_curve_x" x1="-8" x2="8" y1="8" y2="-8"/>
    </g>
  </g>
  <g class="ff_offp">
    <line class="ff_offp_pre" x1="563.38671875" x2="556.521484375" y1="383.9990234375" y2="383.9990234375"/>
    <g class="ff_offp_pre" transform="translate(556.521484375,383.9990234375)">
      <line class="ff_off_curve_x" x1="-8" x2="8" y1="-8" y2="8"/>
      <line class="ff_off_curve_x" x1="-8" x2="8" y1="8" y2="-8"/>
    </g>
  </g>
  <g class="ff_offp">
    <line class="ff_offp_post" x1="563.38671875" x2="565.958984375" y1="383.9990234375" y2="383.9990234375"/>
    <g class="ff_offp_post" transform="translate(565.958984375,383.9990234375)">
      <line class="ff_off_curve_x" x1="-8" x2="8" y1="-8" y2="8"/>
      <line class="ff_off_curve_x" x1="-8" x2="8" y1="8" y2="-8"/>
    </g>
  </g>
  <g class="ff_offp">
    <line class="ff_offp_pre" x1="570.603515625" x2="568.50390625" y1="381.6005859375" y2="383.1748046875"/>
    <g class="ff_offp_pre" transform="translate(568.50390625,383.1748046875)">
      <line class="ff_off_curve_x" x1="-8" x2="8" y1="-8" y2="8"/>
      <line class="ff_off_curve_x" x1="-8" x2="8" y1="8" y2="-8"/>
    </g>
  </g>
  <g class="ff_offp">
    <line class="ff_offp_post" x1="570.603515625" x2="586.5224609375" y1="381.6005859375" y2="369.6611328125"/>
    <g class="ff_offp_post" transform="translate(586.5224609375,369.6611328125)">
      <line class="ff_off_curve_x" x1="-8" x2="8" y1="-8" y2="8"/>
      <line class="ff_off_curve_x" x1="-8" x2="8" y1="8" y2="-8"/>
    </g>
  </g>
  <g class="ff_offp">
    <line class="ff_offp_pre" x1="604.19921875" x2="604.19921875" y1="322.8134765625" y2="350.3369140625"/>
    <g class="ff_offp_pre" transform="translate(604.19921875,350.3369140625)">
      <line class="ff_off_curve_x" x1="-8" x2="8" y1="-8" y2="8"/>
      <line class="ff_off_curve_x" x1="-8" x2="8" y1="8" y2="-8"/>
    </g>
  </g>
  <g class="ff_offp">
    <line class="ff_offp_post" x1="604.19921875" x2="604.19921875" y1="322.8134765625" y2="213.1962890625"/>
    <g class="ff_offp_post" transform="translate(604.19921875,213.1962890625)">
      <line class="ff_off_curve_x" x1="-8" x2="8" y1="-8" y2="8"/>
      <line class="ff_off_curve_x" x1="-8" x2="8" y1="8" y2="-8"/>
    </g>
  </g>
  <g class="ff_offp">
    <line class="ff_offp_pre" x1="568.19921875" x2="568.19921875" y1="49.2138671875" y2="158.0283203125"/>
    <g class="ff_offp_pre" transform="translate(568.19921875,158.0283203125)">
      <line class="ff_off_curve_x" x1="-8" x2="8" y1="-8" y2="8"/>
      <line class="ff_off_curve_x" x1="-8" x2="8" y1="8" y2="-8"/>
    </g>
  </g>
  <g class="ff_offp">
    <line class="ff_offp_post" x1="568.19921875" x2="568.19921875" y1="49.2138671875" y2="37.32421875"/>
    <g class="ff_offp_post" transform="translate(568.19921875,37.32421875)">
      <line class="ff_off_curve_x" x1="-8" x2="8" y1="-8" y2="8"/>
      <line class="ff_off_curve_x" x1="-8" x2="8" y1="8" y2="-8"/>
    </g>
  </g>
  <g class="ff_offp">
    <line class="ff_offp_pre" x1="576.787109375" x2="571.5634765625" y1="21.2314453125" y2="28.6923828125"/>
    <g class="ff_offp_pre" transform="translate(571.5634765625,28.6923828125)">
      <line class="ff_off_curve_x" x1="-8" x2="8" y1="-8" y2="8"/>
      <line class="ff_off_curve_x" x1="-8" x2="8" y1="8" y2="-8"/>
    </g>
  </g>
  <g class="ff_offp">
    <line class="ff_offp_post" x1="576.787109375" x2="580.7451171875" y1="21.2314453125" y2="15.578125"/>
    <g class="ff_offp_post" transform="translate(580.7451171875,15.578125)">
      <line class="ff_off_curve_x" x1="-8" x2="8" y1="-8" y2="8"/>
      <line class="ff_off_curve_x" x1="-8" x2="8" y1="8" y2="-8"/>
    </g>
  </g>
  <g class="ff_offp">
    <line class="ff_offp_pre" x1="591.8974609375" x2="585.986328125" y1="5.7724609375" y2="10.501953125"/>
    <g class="ff_offp_pre" transform="translate(585.986328125,10.501953125)">
      <line class="ff_off_curve_x" x1="-8" x2="8" y1="-8" y2="8"/>
      <line class="ff_off_curve_x" x1="-8" x2="8" y1="8" y2="-8"/>
    </g>
  </g>
  <g class="ff_offp">
    <line class="ff_offp_post" x1="591.8974609375" x2="594.361328125" y1="5.7724609375" y2="3.8017578125"/>
    <g class="ff_offp_post" transform="translate(594.361328125,3.8017578125)">
      <line class="ff_off_curve_x" x1="-8" x2="8" y1="-8" y2="8"/>
      <line class="ff_off_curve_x" x1="-8" x2="8" y1="8" y2="-8"/>
    </g>
  </g>
  <g class="ff_offp">
    <line class="ff_offp_pre" x1="596.3984375" x2="596.3984375" y1="-3.5869140625" y2="0.16015625"/>
    <g class="ff_offp_pre" transform="translate(596.3984375,0.16015625)">
      <line class="ff_off_curve_x" x1="-8" x2="8" y1="-8" y2="8"/>
      <line class="ff_off_curve_x" x1="-8" x2="8" y1="8" y2="-8"/>
    </g>
  </g>
  <g class="ff_offp">
    <line class="ff_offp_post" x1="596.3984375" x2="596.3984375" y1="-3.5869140625" y2="-9.71484375"/>
    <g class="ff_offp_post" transform="translate(596.3984375,-9.71484375)">
      <line class="ff_off_curve_x" x1="-8" x2="8" y1="-8" y2="8"/>
      <line class="ff_off_curve_x" x1="-8" x2="8" y1="8" y2="-8"/>
    </g>
  </g>
  <g class="ff_offp">
    <line class="ff_offp_pre" x1="584.4130859375" x2="591.2783203125" y1="-15.5986328125" y2="-15.5986328125"/>
    <g class="ff_offp_pre" transform="translate(591.2783203125,-15.5986328125)">
      <line class="ff_off_curve_x" x1="-8" x2="8" y1="-8" y2="8"/>
      <line class="ff_off_curve_x" x1="-8" x2="8" y1="8" y2="-8"/>
    </g>
  </g>
  <g class="ff_offp">
    <line class="ff_offp_post" x1="584.4130859375" x2="581.7197265625" y1="-15.5986328125" y2="-15.5986328125"/>
    <g class="ff_offp_post" transform="translate(581.7197265625,-15.5986328125)">
      <line class="ff_off_curve_x" x1="-8" x2="8" y1="-8" y2="8"/>
      <line class="ff_off_curve_x" x1="-8" x2="8" y1="8" y2="-8"/>
    </g>
  </g>
  <g class="ff_offp">
    <line class="ff_offp_pre" x1="576.9033203125" x2="579.056640625" y1="-12.97265625" y2="-14.6953125"/>
    <g class="ff_offp_pre" transform="translate(579.056640625,-14.6953125)">
      <line class="ff_off_curve_x" x1="-8" x2="8" y1="-8" y2="8"/>
      <line class="ff_off_curve_x" x1="-8" x2="8" y1="8" y2="-8"/>
    </g>
  </g>
  <g class="ff_offp">
    <line class="ff_offp_post" x1="576.9033203125" x2="560.24609375" y1="-12.97265625" y2="0.3525390625"/>
    <g class="ff_offp_post" transform="translate(560.24609375,0.3525390625)">
      <line class="ff_off_curve_x" x1="-8" x2="8" y1="-8" y2="8"/>
      <line class="ff_off_curve_x" x1="-8" x2="8" y1="8" y2="-8"/>
    </g>
  </g>
  <g class="ff_offp">
    <line class="ff_offp_pre" x1="544.201171875" x2="544.201171875" y1="49.1865234375" y2="19.6064453125"/>
    <g class="ff_offp_pre" transform="translate(544.201171875,19.6064453125)">
      <line class="ff_off_curve_x" x1="-8" x2="8" y1="-8" y2="8"/>
      <line class="ff_off_curve_x" x1="-8" x2="8" y1="8" y2="-8"/>
    </g>
  </g>
  <g class="ff_offp">
    <line class="ff_offp_post" x1="544.201171875" x2="544.201171875" y1="49.1865234375" y2="106.0263671875"/>
    <g class="ff_offp_post" transform="translate(544.201171875,106.0263671875)">
      <line class="ff_off_curve_x" x1="-8" x2="8" y1="-8" y2="8"/>
      <line class="ff_off_curve_x" x1="-8" x2="8" y1="8" y2="-8"/>
    </g>
  </g>
  <g class="ff_offp">
    <line class="ff_offp_pre" x1="562.62890625" x2="553.5859375" y1="190.1474609375" y2="148.853515625"/>
    <g class="ff_offp_pre" transform="translate(553.5859375,148.853515625)">
      <line class="ff_off_curve_x" x1="-8" x2="8" y1="-8" y2="8"/>
      <line class="ff_off_curve_x" x1="-8" x2="8" y1="8" y2="-8"/>
    </g>
  </g>
  <g class="ff_offp">
    <line class="ff_offp_post" x1="562.62890625" x2="571.5859375" y1="190.1474609375" y2="231.05078125"/>
    <g class="ff_offp_post" transform="translate(571.5859375,231.05078125)">
      <line class="ff_off_curve_x" x1="-8" x2="8" y1="-8" y2="8"/>
      <line class="ff_off_curve_x" x1="-8" x2="8" y1="8" y2="-8"/>
    </g>
  </g>
  <g class="ff_offp">
    <line class="ff_offp_pre" x1="580.201171875" x2="580.201171875" y1="322.7861328125" y2="270.4375"/>
    <g class="ff_offp_pre" transform="translate(580.201171875,270.4375)">
      <line class="ff_off_curve_x" x1="-8" x2="8" y1="-8" y2="8"/>
      <line class="ff_off_curve_x" x1="-8" x2="8" y1="8" y2="-8"/>
    </g>
  </g>
  <g class="ff_offp">
    <line class="ff_offp_post" x1="580.201171875" x2="580.201171875" y1="322.7861328125" y2="341.1875"/>
    <g class="ff_offp_post" transform="translate(580.201171875,341.1875)">
      <line class="ff_off_curve_x" x1="-8" x2="8" y1="-8" y2="8"/>
      <line class="ff_off_curve_x" x1="-8" x2="8" y1="8" y2="-8"/>
    </g>
  </g>
  <g class="ff_offp">
    <line class="ff_offp_pre" x1="556.1962890625" x2="567.494140625" y1="362.3994140625" y2="353.92578125"/>
    <g class="ff_offp_pre" transform="translate(567.494140625,353.92578125)">
      <line class="ff_off_curve_x" x1="-8" x2="8" y1="-8" y2="8"/>
      <line class="ff_off_curve_x" x1="-8" x2="8" y1="8" y2="-8"/>
    </g>
  </g>
  <g class="ff_offp">
    <line class="ff_offp_post" x1="556.1962890625" x2="553.587890625" y1="362.3994140625" y2="364.3564453125"/>
    <g class="ff_offp_post" transform="translate(553.587890625,364.3564453125)">
      <line class="ff_off_curve_x" x1="-8" x2="8" y1="-8" y2="8"/>
      <line class="ff_off_curve_x" x1="-8" x2="8" y1="8" y2="-8"/>
    </g>
  </g>
  <g class="ff_offp">
    <line class="ff_offp_pre" x1="551.4013671875" x2="551.4013671875" y1="371.986328125" y2="368.0751953125"/>
    <g class="ff_offp_pre" transform="translate(551.4013671875,368.0751953125)">
      <line class="ff_off_curve_x" x1="-8" x2="8" y1="-8" y2="8"/>
      <line class="ff_off_curve_x" x1="-8" x2="8" y1="8" y2="-8"/>
    </g>
  </g>
  <g class="ff_offp">
    <line class="ff_offp_post" x1="260.9990234375" x2="260.9990234375" y1="181.2138671875" y2="256.8251953125"/>
    <g class="ff_offp_post" transform="translate(260.9990234375,256.8251953125)">
      <line class="ff_off_curve_x" x1="-8" x2="8" y1="-8" y2="8"/>
      <line class="ff_off_curve_x" x1="-8" x2="8" y1="8" y2="-8"/>
    </g>
  </g>
  <g class="ff_offp">
    <line class="ff_offp_pre" x1="325.123046875" x2="289.2001953125" y1="345.2041015625" y2="320.0517578125"/>
    <g class="ff_offp_pre" transform="translate(289.2001953125,320.0517578125)">
      <line class="ff_off_curve_x" x1="-8" x2="8" y1="-8" y2="8"/>
      <line class="ff_off_curve_x" x1="-8" x2="8" y1="8" y2="-8"/>
    </g>
  </g>
  <g class="ff_offp">
    <line class="ff_offp_post" x1="325.123046875" x2="336.8193359375" y1="345.2041015625" y2="353.39453125"/>
    <g class="ff_offp_post" transform="translate(336.8193359375,353.39453125)">
      <line class="ff_off_curve_x" x1="-8" x2="8" y1="-8" y2="8"/>
      <line class="ff_off_curve_x" x1="-8" x2="8" y1="8" y2="-8"/>
    </g>
  </g>
  <g class="ff_offp">
    <line class="ff_offp_pre" x1="361.8134765625" x2="349.1201171875" y1="357.6015625" y2="357.6015625"/>
    <g class="ff_offp_pre" transform="translate(349.1201171875,357.6015625)">
      <line class="ff_off_curve_x" x1="-8" x2="8" y1="-8" y2="8"/>
      <line class="ff_off_curve_x" x1="-8" x2="8" y1="8" y2="-8"/>
    </g>
  </g>
  <g class="ff_offp">
    <line class="ff_offp_post" x1="361.8134765625" x2="384.5458984375" y1="357.6015625" y2="357.6015625"/>
    <g class="ff_offp_post" transform="translate(384.5458984375,357.6015625)">
      <line class="ff_off_curve_x" x1="-8" x2="8" y1="-8" y2="8"/>
      <line class="ff_off_curve_x" x1="-8" x2="8" y1="8" y2="-8"/>
    </g>
  </g>
  <g class="ff_offp">
    <line class="ff_offp_pre" x1="425.2109375" x2="406.890625" y1="317.5830078125" y2="343.74609375"/>
    <g class="ff_offp_pre" transform="translate(406.890625,343.74609375)">
      <line class="ff_off_curve_x" x1="-8" x2="8" y1="-8" y2="8"/>
      <line class="ff_off_curve_x" x1="-8" x2="8" y1="8" y2="-8"/>
    </g>
  </g>
  <g class="ff_offp">
    <line class="ff_offp_post" x1="425.2109375" x2="447.63671875" y1="317.5830078125" y2="285.5546875"/>
    <g class="ff_offp_post" transform="translate(447.63671875,285.5546875)">
      <line class="ff_off_curve_x" x1="-8" x2="8" y1="-8" y2="8"/>
      <line class="ff_off_curve_x" x1="-8" x2="8" y1="8" y2="-8"/>
    </g>
  </g>
  <g class="ff_offp">
    <line class="ff_offp_pre" x1="462.6015625" x2="462.6015625" y1="181.1865234375" y2="236.3515625"/>
    <g class="ff_offp_pre" transform="translate(462.6015625,236.3515625)">
      <line class="ff_off_curve_x" x1="-8" x2="8" y1="-8" y2="8"/>
      <line class="ff_off_curve_x" x1="-8" x2="8" y1="8" y2="-8"/>
    </g>
  </g>
  <g class="ff_offp">
    <line class="ff_offp_post" x1="462.6015625" x2="462.6015625" y1="181.1865234375" y2="105.5751953125"/>
    <g class="ff_offp_post" transform="translate(462.6015625,105.5751953125)">
      <line class="ff_off_curve_x" x1="-8" x2="8" y1="-8" y2="8"/>
      <line class="ff_off_curve_x" x1="-8" x2="8" y1="8" y2="-8"/>
    </g>
  </g>
  <g class="ff_offp">
    <line class="ff_offp_pre" x1="398.4775390625" x2="434.3994140625" y1="17.1962890625" y2="42.3486328125"/>
    <g class="ff_offp_pre" transform="translate(434.3994140625,42.3486328125)">
      <line class="ff_off_curve_x" x1="-8" x2="8" y1="-8" y2="8"/>
      <line class="ff_off_curve_x" x1="-8" x2="8" y1="8" y2="-8"/>
    </g>
  </g>
  <g class="ff_offp">
    <line class="ff_offp_post" x1="398.4775390625" x2="386.7802734375" y1="17.1962890625" y2="9.005859375"/>
    <g class="ff_offp_post" transform="translate(386.7802734375,9.005859375)">
      <line class="ff_off_curve_x" x1="-8" x2="8" y1="-8" y2="8"/>
      <line class="ff_off_curve_x" x1="-8" x2="8" y1="8" y2="-8"/>
    </g>
  </g>
  <g class="ff_offp">
    <line class="ff_offp_pre" x1="361.7861328125" x2="374.48046875" y1="4.798828125" y2="4.798828125"/>
    <g class="ff_offp_pre" transform="translate(374.48046875,4.798828125)">
      <line class="ff_off_curve_x" x1="-8" x2="8" y1="-8" y2="8"/>
      <line class="ff_off_curve_x" x1="-8" x2="8" y1="8" y2="-8"/>
    </g>
  </g>
  <g class="ff_offp">
    <line class="ff_offp_post" x1="361.7861328125" x2="339.0546875" y1="4.798828125" y2="4.798828125"/>
    <g class="ff_offp_post" transform="translate(339.0546875,4.798828125)">
      <line class="ff_off_curve_x" x1="-8" x2="8" y1="-8" y2="8"/>
      <line class="ff_off_curve_x" x1="-8" x2="8" y1="8" y2="-8"/>
    </g>
  </g>
  <g class="ff_offp">
    <line class="ff_offp_pre" x1="298.388671875" x2="316.708984375" y1="44.8173828125" y2="18.654296875"/>
    <g class="ff_offp_pre" transform="translate(316.708984375,18.654296875)">
      <line class="ff_off_curve_x" x1="-8" x2="8" y1="-8" y2="8"/>
      <line class="ff_off_curve_x" x1="-8" x2="8" y1="8" y2="-8"/>
    </g>
  </g>
  <g class="ff_offp">
    <line class="ff_offp_post" x1="298.388671875" x2="275.962890625" y1="44.8173828125" y2="76.8447265625"/>
    <g class="ff_offp_post" transform="translate(275.962890625,76.8447265625)">
      <line class="ff_off_curve_x" x1="-8" x2="8" y1="-8" y2="8"/>
      <line class="ff_off_curve_x" x1="-8" x2="8" y1="8" y2="-8"/>
    </g>
  </g>
  <g class="ff_offp">
    <line class="ff_offp_pre" x1="260.9990234375" x2="260.9990234375" y1="181.2138671875" y2="126.048828125"/>
    <g class="ff_offp_pre" transform="translate(260.9990234375,126.048828125)">
      <line class="ff_off_curve_x" x1="-8" x2="8" y1="-8" y2="8"/>
      <line class="ff_off_curve_x" x1="-8" x2="8" y1="8" y2="-8"/>
    </g>
  </g>
  <g class="ff_offp">
    <line class="ff_offp_post" x1="237.0009765625" x2="237.0009765625" y1="181.1865234375" y2="121.8408203125"/>
    <g class="ff_offp_post" transform="translate(237.0009765625,121.8408203125)">
      <line class="ff_off_curve_x" x1="-8" x2="8" y1="-8" y2="8"/>
      <line class="ff_off_curve_x" x1="-8" x2="8" y1="8" y2="-8"/>
    </g>
  </g>
  <g class="ff_offp">
    <line class="ff_offp_pre" x1="278.7294921875" x2="252.7060546875" y1="31.0517578125" y2="68.216796875"/>
    <g class="ff_offp_pre" transform="translate(252.7060546875,68.216796875)">
      <line class="ff_off_curve_x" x1="-8" x2="8" y1="-8" y2="8"/>
      <line class="ff_off_curve_x" x1="-8" x2="8" y1="8" y2="-8"/>
    </g>
  </g>
  <g class="ff_offp">
    <line class="ff_offp_post" x1="278.7294921875" x2="299.794921875" y1="31.0517578125" y2="0.966796875"/>
    <g class="ff_offp_post" transform="translate(299.794921875,0.966796875)">
      <line class="ff_off_curve_x" x1="-8" x2="8" y1="-8" y2="8"/>
      <line class="ff_off_curve_x" x1="-8" x2="8" y1="8" y2="-8"/>
    </g>
  </g>
  <g class="ff_offp">
    <line class="ff_offp_pre" x1="361.8134765625" x2="328.583984375" y1="-19.19921875" y2="-19.19921875"/>
    <g class="ff_offp_pre" transform="translate(328.583984375,-19.19921875)">
      <line class="ff_off_curve_x" x1="-8" x2="8" y1="-8" y2="8"/>
      <line class="ff_off_curve_x" x1="-8" x2="8" y1="8" y2="-8"/>
    </g>
  </g>
  <g class="ff_offp">
    <line class="ff_offp_post" x1="361.8134765625" x2="380.01953125" y1="-19.19921875" y2="-19.19921875"/>
    <g class="ff_offp_post" transform="translate(380.01953125,-19.19921875)">
      <line class="ff_off_curve_x" x1="-8" x2="8" y1="-8" y2="8"/>
      <line class="ff_off_curve_x" x1="-8" x2="8" y1="8" y2="-8"/>
    </g>
  </g>
  <g class="ff_offp">
    <line class="ff_offp_pre" x1="412.2431640625" x2="397.1474609375" y1="-2.4638671875" y2="-13.033203125"/>
    <g class="ff_offp_pre" transform="translate(397.1474609375,-13.033203125)">
      <line class="ff_off_curve_x" x1="-8" x2="8" y1="-8" y2="8"/>
      <line class="ff_off_curve_x" x1="-8" x2="8" y1="8" y2="-8"/>
    </g>
  </g>
  <g class="ff_offp">
    <line class="ff_offp_post" x1="412.2431640625" x2="457.736328125" y1="-2.4638671875" y2="29.3916015625"/>
    <g class="ff_offp_post" transform="translate(457.736328125,29.3916015625)">
      <line class="ff_off_curve_x" x1="-8" x2="8" y1="-8" y2="8"/>
      <line class="ff_off_curve_x" x1="-8" x2="8" y1="8" y2="-8"/>
    </g>
  </g>
  <g class="ff_offp">
    <line class="ff_offp_pre" x1="486.5986328125" x2="486.5986328125" y1="181.2138671875" y2="100.625"/>
    <g class="ff_offp_pre" transform="translate(486.5986328125,100.625)">
      <line class="ff_off_curve_x" x1="-8" x2="8" y1="-8" y2="8"/>
      <line class="ff_off_curve_x" x1="-8" x2="8" y1="8" y2="-8"/>
    </g>
  </g>
  <g class="ff_offp">
    <line class="ff_offp_post" x1="486.5986328125" x2="486.5986328125" y1="181.2138671875" y2="240.5595703125"/>
    <g class="ff_offp_post" transform="translate(486.5986328125,240.5595703125)">
      <line class="ff_off_curve_x" x1="-8" x2="8" y1="-8" y2="8"/>
      <line class="ff_off_curve_x" x1="-8" x2="8" y1="8" y2="-8"/>
    </g>
  </g>
  <g class="ff_offp">
    <line class="ff_offp_pre" x1="444.87109375" x2="470.8935546875" y1="331.3486328125" y2="294.18359375"/>
    <g class="ff_offp_pre" transform="translate(470.8935546875,294.18359375)">
      <line class="ff_off_curve_x" x1="-8" x2="8" y1="-8" y2="8"/>
      <line class="ff_off_curve_x" x1="-8" x2="8" y1="8" y2="-8"/>
    </g>
  </g>
  <g class="ff_offp">
    <line class="ff_offp_post" x1="444.87109375" x2="423.8046875" y1="331.3486328125" y2="361.43359375"/>
    <g class="ff_offp_post" transform="translate(423.8046875,361.43359375)">
      <line class="ff_off_curve_x" x1="-8" x2="8" y1="-8" y2="8"/>
      <line class="ff_off_curve_x" x1="-8" x2="8" y1="8" y2="-8"/>
    </g>
  </g>
  <g class="ff_offp">
    <line class="ff_offp_pre" x1="361.7861328125" x2="395.015625" y1="381.5986328125" y2="381.5986328125"/>
    <g class="ff_offp_pre" transform="translate(395.015625,381.5986328125)">
      <line class="ff_off_curve_x" x1="-8" x2="8" y1="-8" y2="8"/>
      <line class="ff_off_curve_x" x1="-8" x2="8" y1="8" y2="-8"/>
    </g>
  </g>
  <g class="ff_offp">
    <line class="ff_offp_post" x1="361.7861328125" x2="343.580078125" y1="381.5986328125" y2="381.5986328125"/>
    <g class="ff_offp_post" transform="translate(343.580078125,381.5986328125)">
      <line class="ff_off_curve_x" x1="-8" x2="8" y1="-8" y2="8"/>
      <line class="ff_off_curve_x" x1="-8" x2="8" y1="8" y2="-8"/>
    </g>
  </g>
  <g class="ff_offp">
    <line class="ff_offp_pre" x1="311.357421875" x2="326.4521484375" y1="364.8642578125" y2="375.43359375"/>
    <g class="ff_offp_pre" transform="translate(326.4521484375,375.43359375)">
      <line class="ff_off_curve_x" x1="-8" x2="8" y1="-8" y2="8"/>
      <line class="ff_off_curve_x" x1="-8" x2="8" y1="8" y2="-8"/>
    </g>
  </g>
  <g class="ff_offp">
    <line class="ff_offp_post" x1="311.357421875" x2="265.86328125" y1="364.8642578125" y2="333.0087890625"/>
    <g class="ff_offp_post" transform="translate(265.86328125,333.0087890625)">
      <line class="ff_off_curve_x" x1="-8" x2="8" y1="-8" y2="8"/>
      <line class="ff_off_curve_x" x1="-8" x2="8" y1="8" y2="-8"/>
    </g>
  </g>
  <g class="ff_offp">
    <line class="ff_offp_pre" x1="237.0009765625" x2="237.0009765625" y1="181.1865234375" y2="261.7744140625"/>
    <g class="ff_offp_pre" transform="translate(237.0009765625,261.7744140625)">
      <line class="ff_off_curve_x" x1="-8" x2="8" y1="-8" y2="8"/>
      <line class="ff_off_curve_x" x1="-8" x2="8" y1="8" y2="-8"/>
    </g>
  </g>
  <g>
    <circle class="ff_onp ff_curve ff_first ff_extremum" cx="0" cy="0" r="7" transform="translate(-112.7998046875,373.7998046875)"/>
    <g transform="translate(-112.7998046875,373.7998046875) rotate(-36.87051936507871)">
      <line class="ff_arrow" x1="0" x2="10" y1="-10" y2="-10"/>
      <line class="ff_arrow" x1="10" x2="7" y1="-10" y2="-7"/>
      <line class="ff_arrow" x1="10" x2="7" y1="-10" y2="-13"/>
    </g>
  </g>
  <circle class="ff_onp ff_curve ff_extremum" cx="0" cy="0" r="7" transform="translate(-84.0,324.599609375)"/>
  <circle class="ff_onp ff_curve ff_extremum" cx="0" cy="0" r="7" transform="translate(-120.0,51.0)"/>
  <circle class="ff_onp ff_curve ff_extremum" cx="0" cy="0" r="7" transform="translate(-91.7998046875,-1.7998046875)"/>
  <g>
    <circle class="ff_onp ff_curve ff_first ff_extremum" cx="0" cy="0" r="7" transform="translate(-427.2001953125,183.0)"/>
    <g transform="translate(-427.2001953125,183.0) rotate(-90.0)">
      <line class="ff_arrow" x1="0" x2="10" y1="-10" y2="-10"/>
      <line class="ff_arrow" x1="10" x2="7" y1="-10" y2="-7"/>
      <line class="ff_arrow" x1="10" x2="7" y1="-10" y2="-13"/>
    </g>
  </g>
  <circle class="ff_onp ff_curve ff_extremum" cx="0" cy="0" r="7" transform="translate(-314.400390625,-5.400390625)"/>
  <circle class="ff_onp ff_curve ff_extremum" cx="0" cy="0" r="7" transform="translate(-201.599609375,183.0)"/>
  <circle class="ff_onp ff_curve ff_extremum" cx="0" cy="0" r="7" transform="translate(-314.400390625,371.400390625)"/>
  <g>
    <circle class="ff_onp ff_curve ff_first ff_extremum" cx="0" cy="0" r="7" transform="translate(-427.2001953125,183.0)"/>
    <g transform="translate(-427.2001953125,183.0) rotate(-90.0)">
      <line class="ff_arrow" x1="0" x2="10" y1="-10" y2="-10"/>
      <line class="ff_arrow" x1="10" x2="7" y1="-10" y2="-7"/>
      <line class="ff_arrow" x1="10" x2="7" y1="-10" y2="-13"/>
    </g>
  </g>
  <g>
    <circle class="ff_onp ff_curve ff_first ff_extremum" cx="0" cy="0" r="7" transform="translate(551.4013671875,371.986328125)"/>
    <g transform="translate(551.4013671875,371.986328125) rotate(90.0)">
      <line class="ff_arrow" x1="0" x2="10" y1="-10" y2="-10"/>
      <line class="ff_arrow" x1="10" x2="7" y1="-10" y2="-7"/>
      <line class="ff_arrow" x1="10" x2="7" y1="-10" y2="-13"/>
    </g>
  </g>
  <circle class="ff_onp ff_curve ff_extremum" cx="0" cy="0" r="7" transform="translate(563.38671875,383.9990234375)"/>
  <circle class="ff_onp ff_curve" cx="0" cy="0" r="7" transform="translate(570.603515625,381.6005859375)"/>
  <circle class="ff_onp ff_curve ff_extremum" cx="0" cy="0" r="7" transform="translate(604.19921875,322.8134765625)"/>
  <circle class="ff_onp ff_curve ff_extremum" cx="0" cy="0" r="7" transform="translate(568.19921875,49.2138671875)"/>
  <circle class="ff_onp ff_curve" cx="0" cy="0" r="7" transform="translate(576.787109375,21.2314453125)"/>
  <circle class="ff_onp ff_curve" cx="0" cy="0" r="7" transform="translate(591.8974609375,5.7724609375)"/>
  <circle class="ff_onp ff_curve ff_extremum" cx="0" cy="0" r="7" transform="translate(596.3984375,-3.5869140625)"/>
  <circle class="ff_onp ff_curve ff_extremum" cx="0" cy="0" r="7" transform="translate(584.4130859375,-15.5986328125)"/>
  <circle class="ff_onp ff_curve" cx="0" cy="0" r="7" transform="translate(576.9033203125,-12.97265625)"/>
  <circle class="ff_onp ff_curve ff_extremum" cx="0" cy="0" r="7" transform="translate(544.201171875,49.1865234375)"/>
  <circle class="ff_onp ff_curve" cx="0" cy="0" r="7" transform="translate(562.62890625,190.1474609375)"/>
  <circle class="ff_onp ff_curve ff_extremum" cx="0" cy="0" r="7" transform="translate(580.201171875,322.7861328125)"/>
  <circle class="ff_onp ff_curve" cx="0" cy="0" r="7" transform="translate(556.1962890625,362.3994140625)"/>
  <g>
    <circle class="ff_onp ff_curve ff_first ff_extremum" cx="0" cy="0" r="7" transform="translate(551.4013671875,371.986328125)"/>
    <g transform="translate(551.4013671875,371.986328125) rotate(90.0)">
      <line class="ff_arrow" x1="0" x2="10" y1="-10" y2="-10"/>
      <line class="ff_arrow" x1="10" x2="7" y1="-10" y2="-7"/>
      <line class="ff_arrow" x1="10" x2="7" y1="-10" y2="-13"/>
    </g>
  </g>
  <g>
    <circle class="ff_onp ff_curve ff_first ff_extremum" cx="0" cy="0" r="7" transform="translate(260.9990234375,181.2138671875)"/>
    <g transform="translate(260.9990234375,181.2138671875) rotate(90.0)">
      <line class="ff_arrow" x1="0" x2="10" y1="-10" y2="-10"/>
      <line class="ff_arrow" x1="10" x2="7" y1="-10" y2="-7"/>
      <line class="ff_arrow" x1="10" x2="7" y1="-10" y2="-13"/>
    </g>
  </g>
  <circle class="ff_onp ff_curve" cx="0" cy="0" r="7" transform="translate(325.123046875,345.2041015625)"/>
  <circle class="ff_onp ff_curve ff_extremum" cx="0" cy="0" r="7" transform="translate(361.8134765625,357.6015625)"/>
  <circle class="ff_onp ff_curve" cx="0" cy="0" r="7" transform="translate(425.2109375,317.5830078125)"/>
  <circle class="ff_onp ff_curve ff_extremum" cx="0" cy="0" r="7" transform="translate(462.6015625,181.1865234375)"/>
  <circle class="ff_onp ff_curve" cx="0" cy="0" r="7" transform="translate(398.4775390625,17.1962890625)"/>
  <circle class="ff_onp ff_curve ff_extremum" cx="0" cy="0" r="7" transform="translate(361.7861328125,4.798828125)"/>
  <circle class="ff_onp ff_curve" cx="0" cy="0" r="7" transform="translate(298.388671875,44.8173828125)"/>
  <g>
    <circle class="ff_onp ff_curve ff_first ff_extremum" cx="0" cy="0" r="7" transform="translate(260.9990234375,181.2138671875)"/>
    <g transform="translate(260.9990234375,181.2138671875) rotate(90.0)">
      <line class="ff_arrow" x1="0" x2="10" y1="-10" y2="-10"/>
      <line class="ff_arrow" x1="10" x2="7" y1="-10" y2="-7"/>
      <line class="ff_arrow" x1="10" x2="7" y1="-10" y2="-13"/>
    </g>
  </g>
  <g>
    <circle class="ff_onp ff_curve ff_first ff_extremum" cx="0" cy="0" r="7" transform="translate(237.0009765625,181.1865234375)"/>
    <g transform="translate(237.0009765625,181.1865234375) rotate(-90.0)">
      <line class="ff_arrow" x1="0" x2="10" y1="-10" y2="-10"/>
      <line class="ff_arrow" x1="10" x2="7" y1="-10" y2="-7"/>
      <line class="ff_arrow" x1="10" x2="7" y1="-10" y2="-13"/>
    </g>
  </g>
  <circle class="ff_onp ff_curve" cx="0" cy="0" r="7" transform="translate(278.7294921875,31.0517578125)"/>
  <circle class="ff_onp ff_curve ff_extremum" cx="0" cy="0" r="7" transform="translate(361.8134765625,-19.19921875)"/>
  <circle class="ff_onp ff_curve" cx="0" cy="0" r="7" transform="translate(412.2431640625,-2.4638671875)"/>
  <circle class="ff_onp ff_curve ff_extremum" cx="0" cy="0" r="7" transform="translate(486.5986328125,181.2138671875)"/>
  <circle class="ff_onp ff_curve" cx="0" cy="0" r="7" transform="translate(444.87109375,331.3486328125)"/>
  <circle class="ff_onp ff_curve ff_extremum" cx="0" cy="0" r="7" transform="translate(361.7861328125,381.5986328125)"/>
  <circle class="ff_onp ff_curve" cx="0" cy="0" r="7" transform="translate(311.357421875,364.8642578125)"/>
  <g>
    <circle class="ff_onp ff_curve ff_first ff_extremum" cx="0" cy="0" r="7" transform="translate(237.0009765625,181.1865234375)"/>
    <g transform="translate(237.0009765625,181.1865234375) rotate(-90.0)">
      <line class="ff_arrow" x1="0" x2="10" y1="-10" y2="-10"/>
      <line class="ff_arrow" x1="10" x2="7" y1="-10" y2="-7"/>
      <line class="ff_arrow" x1="10" x2="7" y1="-10" y2="-13"/>
    </g>
  </g>
  <path class="ff_main_background" d="M68.400390625 375.0C61.5400390625 375.0 56.4140625 369.1162109375 56.4140625 362.9873046875C56.4140625 356.1279296875 62.2978515625 351.001953125 68.4267578125 351.001953125C75.2861328125 351.001953125 80.412109375 356.884765625 80.412109375 363.013671875C80.412109375 369.8740234375 74.529296875 375.0 68.400390625 375.0 z"/>
  <path class="ff_main_closed" d="M-427.2001953125 183.0C-427.2001953125 79.2001953125 -376.7998046875 -5.400390625 -314.400390625 -5.400390625C-252.0 -5.400390625 -201.599609375 79.2001953125 -201.599609375 183.0C-201.599609375 286.7998046875 -252.0 371.400390625 -314.400390625 371.400390625C-376.7998046875 371.400390625 -427.2001953125 286.7998046875 -427.2001953125 183.0 zM551.4013671875 371.986328125C551.4013671875 378.115234375 556.521484375 383.9990234375 563.38671875 383.9990234375C565.958984375 383.9990234375 568.50390625 383.1748046875 570.603515625 381.6005859375C586.5224609375 369.6611328125 604.19921875 350.3369140625 604.19921875 322.8134765625C604.19921875 213.1962890625 568.19921875 158.0283203125 568.19921875 49.2138671875C568.19921875 37.32421875 571.5634765625 28.6923828125 576.787109375 21.2314453125C580.7451171875 15.578125 585.986328125 10.501953125 591.8974609375 5.7724609375C594.361328125 3.8017578125 596.3984375 0.16015625 596.3984375 -3.5869140625C596.3984375 -9.71484375 591.2783203125 -15.5986328125 584.4130859375 -15.5986328125C581.7197265625 -15.5986328125 579.056640625 -14.6953125 576.9033203125 -12.97265625C560.24609375 0.3525390625 544.201171875 19.6064453125 544.201171875 49.1865234375C544.201171875 106.0263671875 553.5859375 148.853515625 562.62890625 190.1474609375C571.5859375 231.05078125 580.201171875 270.4375 580.201171875 322.7861328125C580.201171875 341.1875 567.494140625 353.92578125 556.1962890625 362.3994140625C553.587890625 364.3564453125 551.4013671875 368.0751953125 551.4013671875 371.986328125 zM260.9990234375 181.2138671875C260.9990234375 256.8251953125 289.2001953125 320.0517578125 325.123046875 345.2041015625C336.8193359375 353.39453125 349.1201171875 357.6015625 361.8134765625 357.6015625C384.5458984375 357.6015625 406.890625 343.74609375 425.2109375 317.5830078125C447.63671875 285.5546875 462.6015625 236.3515625 462.6015625 181.1865234375C462.6015625 105.5751953125 434.3994140625 42.3486328125 398.4775390625 17.1962890625C386.7802734375 9.005859375 374.48046875 4.798828125 361.7861328125 4.798828125C339.0546875 4.798828125 316.708984375 18.654296875 298.388671875 44.8173828125C275.962890625 76.8447265625 260.9990234375 126.048828125 260.9990234375 181.2138671875 zM237.0009765625 181.1865234375C237.0009765625 121.8408203125 252.7060546875 68.216796875 278.7294921875 31.0517578125C299.794921875 0.966796875 328.583984375 -19.19921875 361.8134765625 -19.19921875C380.01953125 -19.19921875 397.1474609375 -13.033203125 412.2431640625 -2.4638671875C457.736328125 29.3916015625 486.5986328125 100.625 486.5986328125 181.2138671875C486.5986328125 240.5595703125 470.8935546875 294.18359375 444.87109375 331.3486328125C423.8046875 361.43359375 395.015625 381.5986328125 361.7861328125 381.5986328125C343.580078125 381.5986328125 326.4521484375 375.43359375 311.357421875 364.8642578125C265.86328125 333.0087890625 237.0009765625 261.7744140625 237.0009765625 181.1865234375 z"/>
  <path class="ff_main_open" d="M-112.7998046875 373.7998046875C-98.400390625 363.0 -84.0 346.83203125 -84.0 324.599609375C-84.0 216.599609375 -120.0 161.400390625 -120.0 51.0C-120.0 25.79296875 -106.7998046875 10.2001953125 -91.7998046875 -1.7998046875"/>
<text class="ff_label" y="429" x="-244">Source Contours</text>
<text class="ff_label" y="429" x="71">Nib</text>
<text class="ff_label" y="429" x="431">Output Contours</text>
</svg>
