<?xml version="1.0" encoding="utf-8" ?>
<?xml-stylesheet href="../ff_svg_fig.css" type="text/css" title="FontForge SVG stylesheet" alternate="no" media="screen"?>
<svg baseProfile="full" height="100%" version="1.1" viewBox="-777,497,1413,615" width="100%" xmlns="http://www.w3.org/2000/svg" xmlns:ev="http://www.w3.org/2001/xml-events" xmlns:xlink="http://www.w3.org/1999/xlink">
  <defs/>
  <g class="ff_offp">
    <line class="ff_offp_post" x1="-571.126953125" x2="-632.5966796875" y1="1000.67578125" y2="945.771484375"/>
    <g class="ff_offp_post" transform="translate(-632.5966796875,945.771484375)">
      <line class="ff_off_curve_x" x1="-8" x2="8" y1="-8" y2="8"/>
      <line class="ff_off_curve_x" x1="-8" x2="8" y1="8" y2="-8"/>
    </g>
  </g>
  <g class="ff_offp">
    <line class="ff_offp_pre" x1="-655.7021484375" x2="-655.7021484375" y1="852.130859375" y2="894.8798828125"/>
    <g class="ff_offp_pre" transform="translate(-655.7021484375,894.8798828125)">
      <line class="ff_off_curve_x" x1="-8" x2="8" y1="-8" y2="8"/>
      <line class="ff_off_curve_x" x1="-8" x2="8" y1="8" y2="-8"/>
    </g>
  </g>
  <g class="ff_offp">
    <line class="ff_offp_post" x1="-655.7021484375" x2="-655.7021484375" y1="852.130859375" y2="816.8603515625"/>
    <g class="ff_offp_post" transform="translate(-655.7021484375,816.8603515625)">
      <line class="ff_off_curve_x" x1="-8" x2="8" y1="-8" y2="8"/>
      <line class="ff_off_curve_x" x1="-8" x2="8" y1="8" y2="-8"/>
    </g>
  </g>
  <g class="ff_offp">
    <line class="ff_offp_pre" x1="-599.5859375" x2="-640.1748046875" y1="733.765625" y2="776.7880859375"/>
    <g class="ff_offp_pre" transform="translate(-640.1748046875,776.7880859375)">
      <line class="ff_off_curve_x" x1="-8" x2="8" y1="-8" y2="8"/>
      <line class="ff_off_curve_x" x1="-8" x2="8" y1="8" y2="-8"/>
    </g>
  </g>
  <g class="ff_offp">
    <line class="ff_offp_post" x1="-280.48828125" x2="-273.61328125" y1="899.2236328125" y2="902.7880859375"/>
    <g class="ff_offp_post" transform="translate(-273.61328125,902.7880859375)">
      <line class="ff_off_curve_x" x1="-8" x2="8" y1="-8" y2="8"/>
      <line class="ff_off_curve_x" x1="-8" x2="8" y1="8" y2="-8"/>
    </g>
  </g>
  <g class="ff_offp">
    <line class="ff_offp_pre" x1="-257.400390625" x2="-265.7861328125" y1="904.7998046875" y2="904.7998046875"/>
    <g class="ff_offp_pre" transform="translate(-265.7861328125,904.7998046875)">
      <line class="ff_off_curve_x" x1="-8" x2="8" y1="-8" y2="8"/>
      <line class="ff_off_curve_x" x1="-8" x2="8" y1="8" y2="-8"/>
    </g>
  </g>
  <g class="ff_offp">
    <line class="ff_offp_post" x1="-257.400390625" x2="-228.7998046875" y1="904.7998046875" y2="904.7998046875"/>
    <g class="ff_offp_post" transform="translate(-228.7998046875,904.7998046875)">
      <line class="ff_off_curve_x" x1="-8" x2="8" y1="-8" y2="8"/>
      <line class="ff_off_curve_x" x1="-8" x2="8" y1="8" y2="-8"/>
    </g>
  </g>
  <g class="ff_offp">
    <line class="ff_offp_pre" x1="-206.7001953125" x2="-206.7001953125" y1="852.7998046875" y2="881.400390625"/>
    <g class="ff_offp_pre" transform="translate(-206.7001953125,881.400390625)">
      <line class="ff_off_curve_x" x1="-8" x2="8" y1="-8" y2="8"/>
      <line class="ff_off_curve_x" x1="-8" x2="8" y1="8" y2="-8"/>
    </g>
  </g>
  <g class="ff_offp">
    <line class="ff_offp_post" x1="-206.7001953125" x2="-206.7001953125" y1="852.7998046875" y2="832.5859375"/>
    <g class="ff_offp_post" transform="translate(-206.7001953125,832.5859375)">
      <line class="ff_off_curve_x" x1="-8" x2="8" y1="-8" y2="8"/>
      <line class="ff_off_curve_x" x1="-8" x2="8" y1="8" y2="-8"/>
    </g>
  </g>
  <g class="ff_offp">
    <line class="ff_offp_pre" x1="-234.3115234375" x2="-217.740234375" y1="806.376953125" y2="814.9697265625"/>
    <g class="ff_offp_pre" transform="translate(-217.740234375,814.9697265625)">
      <line class="ff_off_curve_x" x1="-8" x2="8" y1="-8" y2="8"/>
      <line class="ff_off_curve_x" x1="-8" x2="8" y1="8" y2="-8"/>
    </g>
  </g>
  <g class="ff_offp">
    <line class="ff_offp_post" x1="-585.3115234375" x2="-592.1865234375" y1="624.376953125" y2="620.8115234375"/>
    <g class="ff_offp_post" transform="translate(-592.1865234375,620.8115234375)">
      <line class="ff_off_curve_x" x1="-8" x2="8" y1="-8" y2="8"/>
      <line class="ff_off_curve_x" x1="-8" x2="8" y1="8" y2="-8"/>
    </g>
  </g>
  <g class="ff_offp">
    <line class="ff_offp_pre" x1="-608.400390625" x2="-600.013671875" y1="618.7998046875" y2="618.7998046875"/>
    <g class="ff_offp_pre" transform="translate(-600.013671875,618.7998046875)">
      <line class="ff_off_curve_x" x1="-8" x2="8" y1="-8" y2="8"/>
      <line class="ff_off_curve_x" x1="-8" x2="8" y1="8" y2="-8"/>
    </g>
  </g>
  <g class="ff_offp">
    <line class="ff_offp_post" x1="-608.400390625" x2="-621.2236328125" y1="618.7998046875" y2="618.7998046875"/>
    <g class="ff_offp_post" transform="translate(-621.2236328125,618.7998046875)">
      <line class="ff_off_curve_x" x1="-8" x2="8" y1="-8" y2="8"/>
      <line class="ff_off_curve_x" x1="-8" x2="8" y1="8" y2="-8"/>
    </g>
  </g>
  <g class="ff_offp">
    <line class="ff_offp_pre" x1="-641.5439453125" x2="-632.740234375" y1="631.2724609375" y2="623.50390625"/>
    <g class="ff_offp_pre" transform="translate(-632.740234375,623.50390625)">
      <line class="ff_off_curve_x" x1="-8" x2="8" y1="-8" y2="8"/>
      <line class="ff_off_curve_x" x1="-8" x2="8" y1="8" y2="-8"/>
    </g>
  </g>
  <g class="ff_offp">
    <line class="ff_offp_post" x1="-641.5439453125" x2="-713.6806640625" y1="631.2724609375" y2="694.9228515625"/>
    <g class="ff_offp_post" transform="translate(-713.6806640625,694.9228515625)">
      <line class="ff_off_curve_x" x1="-8" x2="8" y1="-8" y2="8"/>
      <line class="ff_off_curve_x" x1="-8" x2="8" y1="8" y2="-8"/>
    </g>
  </g>
  <g class="ff_offp">
    <line class="ff_offp_pre" x1="-757.1025390625" x2="-757.1025390625" y1="852.130859375" y2="769.8271484375"/>
    <g class="ff_offp_pre" transform="translate(-757.1025390625,769.8271484375)">
      <line class="ff_off_curve_x" x1="-8" x2="8" y1="-8" y2="8"/>
      <line class="ff_off_curve_x" x1="-8" x2="8" y1="8" y2="-8"/>
    </g>
  </g>
  <g class="ff_offp">
    <line class="ff_offp_post" x1="-757.1025390625" x2="-757.1025390625" y1="852.130859375" y2="936.34375"/>
    <g class="ff_offp_post" transform="translate(-757.1025390625,936.34375)">
      <line class="ff_off_curve_x" x1="-8" x2="8" y1="-8" y2="8"/>
      <line class="ff_off_curve_x" x1="-8" x2="8" y1="8" y2="-8"/>
    </g>
  </g>
  <g class="ff_offp">
    <line class="ff_offp_pre" x1="-637.873046875" x2="-711.9365234375" y1="1079.32421875" y2="1013.1708984375"/>
    <g class="ff_offp_pre" transform="translate(-711.9365234375,1013.1708984375)">
      <line class="ff_off_curve_x" x1="-8" x2="8" y1="-8" y2="8"/>
      <line class="ff_off_curve_x" x1="-8" x2="8" y1="8" y2="-8"/>
    </g>
  </g>
  <g class="ff_offp">
    <line class="ff_offp_post" x1="-637.873046875" x2="-629.041015625" y1="1079.32421875" y2="1087.2138671875"/>
    <g class="ff_offp_post" transform="translate(-629.041015625,1087.2138671875)">
      <line class="ff_off_curve_x" x1="-8" x2="8" y1="-8" y2="8"/>
      <line class="ff_off_curve_x" x1="-8" x2="8" y1="8" y2="-8"/>
    </g>
  </g>
  <g class="ff_offp">
    <line class="ff_offp_pre" x1="-604.5" x2="-617.435546875" y1="1092.0" y2="1092.0"/>
    <g class="ff_offp_pre" transform="translate(-617.435546875,1092.0)">
      <line class="ff_off_curve_x" x1="-8" x2="8" y1="-8" y2="8"/>
      <line class="ff_off_curve_x" x1="-8" x2="8" y1="8" y2="-8"/>
    </g>
  </g>
  <g class="ff_offp">
    <line class="ff_offp_post" x1="-604.5" x2="-575.900390625" y1="1092.0" y2="1092.0"/>
    <g class="ff_offp_post" transform="translate(-575.900390625,1092.0)">
      <line class="ff_off_curve_x" x1="-8" x2="8" y1="-8" y2="8"/>
      <line class="ff_off_curve_x" x1="-8" x2="8" y1="8" y2="-8"/>
    </g>
  </g>
  <g class="ff_offp">
    <line class="ff_offp_pre" x1="-553.7998046875" x2="-553.7998046875" y1="1040.0" y2="1068.599609375"/>
    <g class="ff_offp_pre" transform="translate(-553.7998046875,1068.599609375)">
      <line class="ff_off_curve_x" x1="-8" x2="8" y1="-8" y2="8"/>
      <line class="ff_off_curve_x" x1="-8" x2="8" y1="8" y2="-8"/>
    </g>
  </g>
  <g class="ff_offp">
    <line class="ff_offp_post" x1="-553.7998046875" x2="-553.7998046875" y1="1040.0" y2="1024.3349609375"/>
    <g class="ff_offp_post" transform="translate(-553.7998046875,1024.3349609375)">
      <line class="ff_off_curve_x" x1="-8" x2="8" y1="-8" y2="8"/>
      <line class="ff_off_curve_x" x1="-8" x2="8" y1="8" y2="-8"/>
    </g>
  </g>
  <g class="ff_offp">
    <line class="ff_offp_pre" x1="-571.126953125" x2="-560.4296875" y1="1000.67578125" y2="1010.23046875"/>
    <g class="ff_offp_pre" transform="translate(-560.4296875,1010.23046875)">
      <line class="ff_off_curve_x" x1="-8" x2="8" y1="-8" y2="8"/>
      <line class="ff_off_curve_x" x1="-8" x2="8" y1="8" y2="-8"/>
    </g>
  </g>
  <g class="ff_offp">
    <line class="ff_offp_post" x1="195.873046875" x2="134.4033203125" y1="899.2763671875" y2="844.37109375"/>
    <g class="ff_offp_post" transform="translate(134.4033203125,844.37109375)">
      <line class="ff_off_curve_x" x1="-8" x2="8" y1="-8" y2="8"/>
      <line class="ff_off_curve_x" x1="-8" x2="8" y1="8" y2="-8"/>
    </g>
  </g>
  <g class="ff_offp">
    <line class="ff_offp_pre" x1="111.2978515625" x2="111.2978515625" y1="750.73046875" y2="793.48046875"/>
    <g class="ff_offp_pre" transform="translate(111.2978515625,793.48046875)">
      <line class="ff_off_curve_x" x1="-8" x2="8" y1="-8" y2="8"/>
      <line class="ff_off_curve_x" x1="-8" x2="8" y1="8" y2="-8"/>
    </g>
  </g>
  <g class="ff_offp">
    <line class="ff_offp_post" x1="111.2978515625" x2="111.2978515625" y1="750.73046875" y2="715.4599609375"/>
    <g class="ff_offp_post" transform="translate(111.2978515625,715.4599609375)">
      <line class="ff_off_curve_x" x1="-8" x2="8" y1="-8" y2="8"/>
      <line class="ff_off_curve_x" x1="-8" x2="8" y1="8" y2="-8"/>
    </g>
  </g>
  <g class="ff_offp">
    <line class="ff_offp_pre" x1="167.4140625" x2="126.8251953125" y1="632.365234375" y2="675.388671875"/>
    <g class="ff_offp_pre" transform="translate(126.8251953125,675.388671875)">
      <line class="ff_off_curve_x" x1="-8" x2="8" y1="-8" y2="8"/>
      <line class="ff_off_curve_x" x1="-8" x2="8" y1="8" y2="-8"/>
    </g>
  </g>
  <g class="ff_offp">
    <line class="ff_offp_post" x1="486.51171875" x2="493.38671875" y1="797.8232421875" y2="801.388671875"/>
    <g class="ff_offp_post" transform="translate(493.38671875,801.388671875)">
      <line class="ff_off_curve_x" x1="-8" x2="8" y1="-8" y2="8"/>
      <line class="ff_off_curve_x" x1="-8" x2="8" y1="8" y2="-8"/>
    </g>
  </g>
  <g class="ff_offp">
    <line class="ff_offp_pre" x1="509.599609375" x2="501.2138671875" y1="803.400390625" y2="803.400390625"/>
    <g class="ff_offp_pre" transform="translate(501.2138671875,803.400390625)">
      <line class="ff_off_curve_x" x1="-8" x2="8" y1="-8" y2="8"/>
      <line class="ff_off_curve_x" x1="-8" x2="8" y1="8" y2="-8"/>
    </g>
  </g>
  <g class="ff_offp">
    <line class="ff_offp_post" x1="509.599609375" x2="538.2001953125" y1="803.400390625" y2="803.400390625"/>
    <g class="ff_offp_post" transform="translate(538.2001953125,803.400390625)">
      <line class="ff_off_curve_x" x1="-8" x2="8" y1="-8" y2="8"/>
      <line class="ff_off_curve_x" x1="-8" x2="8" y1="8" y2="-8"/>
    </g>
  </g>
  <g class="ff_offp">
    <line class="ff_offp_pre" x1="560.2998046875" x2="560.2998046875" y1="751.400390625" y2="780.0"/>
    <g class="ff_offp_pre" transform="translate(560.2998046875,780.0)">
      <line class="ff_off_curve_x" x1="-8" x2="8" y1="-8" y2="8"/>
      <line class="ff_off_curve_x" x1="-8" x2="8" y1="8" y2="-8"/>
    </g>
  </g>
  <g class="ff_offp">
    <line class="ff_offp_post" x1="560.2998046875" x2="560.2998046875" y1="751.400390625" y2="731.185546875"/>
    <g class="ff_offp_post" transform="translate(560.2998046875,731.185546875)">
      <line class="ff_off_curve_x" x1="-8" x2="8" y1="-8" y2="8"/>
      <line class="ff_off_curve_x" x1="-8" x2="8" y1="8" y2="-8"/>
    </g>
  </g>
  <g class="ff_offp">
    <line class="ff_offp_pre" x1="532.6884765625" x2="549.259765625" y1="704.9765625" y2="713.5693359375"/>
    <g class="ff_offp_pre" transform="translate(549.259765625,713.5693359375)">
      <line class="ff_off_curve_x" x1="-8" x2="8" y1="-8" y2="8"/>
      <line class="ff_off_curve_x" x1="-8" x2="8" y1="8" y2="-8"/>
    </g>
  </g>
  <g class="ff_offp">
    <line class="ff_offp_post" x1="181.6884765625" x2="174.8134765625" y1="522.9765625" y2="519.412109375"/>
    <g class="ff_offp_post" transform="translate(174.8134765625,519.412109375)">
      <line class="ff_off_curve_x" x1="-8" x2="8" y1="-8" y2="8"/>
      <line class="ff_off_curve_x" x1="-8" x2="8" y1="8" y2="-8"/>
    </g>
  </g>
  <g class="ff_offp">
    <line class="ff_offp_pre" x1="158.599609375" x2="166.986328125" y1="517.400390625" y2="517.400390625"/>
    <g class="ff_offp_pre" transform="translate(166.986328125,517.400390625)">
      <line class="ff_off_curve_x" x1="-8" x2="8" y1="-8" y2="8"/>
      <line class="ff_off_curve_x" x1="-8" x2="8" y1="8" y2="-8"/>
    </g>
  </g>
  <g class="ff_offp">
    <line class="ff_offp_post" x1="158.599609375" x2="145.7763671875" y1="517.400390625" y2="517.400390625"/>
    <g class="ff_offp_post" transform="translate(145.7763671875,517.400390625)">
      <line class="ff_off_curve_x" x1="-8" x2="8" y1="-8" y2="8"/>
      <line class="ff_off_curve_x" x1="-8" x2="8" y1="8" y2="-8"/>
    </g>
  </g>
  <g class="ff_offp">
    <line class="ff_offp_pre" x1="125.4560546875" x2="134.259765625" y1="529.8720703125" y2="522.1044921875"/>
    <g class="ff_offp_pre" transform="translate(134.259765625,522.1044921875)">
      <line class="ff_off_curve_x" x1="-8" x2="8" y1="-8" y2="8"/>
      <line class="ff_off_curve_x" x1="-8" x2="8" y1="8" y2="-8"/>
    </g>
  </g>
  <g class="ff_offp">
    <line class="ff_offp_post" x1="125.4560546875" x2="53.3193359375" y1="529.8720703125" y2="593.5224609375"/>
    <g class="ff_offp_post" transform="translate(53.3193359375,593.5224609375)">
      <line class="ff_off_curve_x" x1="-8" x2="8" y1="-8" y2="8"/>
      <line class="ff_off_curve_x" x1="-8" x2="8" y1="8" y2="-8"/>
    </g>
  </g>
  <g class="ff_offp">
    <line class="ff_offp_pre" x1="9.8974609375" x2="9.8974609375" y1="750.73046875" y2="668.4267578125"/>
    <g class="ff_offp_pre" transform="translate(9.8974609375,668.4267578125)">
      <line class="ff_off_curve_x" x1="-8" x2="8" y1="-8" y2="8"/>
      <line class="ff_off_curve_x" x1="-8" x2="8" y1="8" y2="-8"/>
    </g>
  </g>
  <g class="ff_offp">
    <line class="ff_offp_post" x1="9.8974609375" x2="9.8974609375" y1="750.73046875" y2="834.943359375"/>
    <g class="ff_offp_post" transform="translate(9.8974609375,834.943359375)">
      <line class="ff_off_curve_x" x1="-8" x2="8" y1="-8" y2="8"/>
      <line class="ff_off_curve_x" x1="-8" x2="8" y1="8" y2="-8"/>
    </g>
  </g>
  <g class="ff_offp">
    <line class="ff_offp_pre" x1="129.126953125" x2="55.0634765625" y1="977.923828125" y2="911.7705078125"/>
    <g class="ff_offp_pre" transform="translate(55.0634765625,911.7705078125)">
      <line class="ff_off_curve_x" x1="-8" x2="8" y1="-8" y2="8"/>
      <line class="ff_off_curve_x" x1="-8" x2="8" y1="8" y2="-8"/>
    </g>
  </g>
  <g class="ff_offp">
    <line class="ff_offp_post" x1="129.126953125" x2="137.958984375" y1="977.923828125" y2="985.8134765625"/>
    <g class="ff_offp_post" transform="translate(137.958984375,985.8134765625)">
      <line class="ff_off_curve_x" x1="-8" x2="8" y1="-8" y2="8"/>
      <line class="ff_off_curve_x" x1="-8" x2="8" y1="8" y2="-8"/>
    </g>
  </g>
  <g class="ff_offp">
    <line class="ff_offp_pre" x1="162.5" x2="149.564453125" y1="990.599609375" y2="990.599609375"/>
    <g class="ff_offp_pre" transform="translate(149.564453125,990.599609375)">
      <line class="ff_off_curve_x" x1="-8" x2="8" y1="-8" y2="8"/>
      <line class="ff_off_curve_x" x1="-8" x2="8" y1="8" y2="-8"/>
    </g>
  </g>
  <g class="ff_offp">
    <line class="ff_offp_post" x1="162.5" x2="191.099609375" y1="990.599609375" y2="990.599609375"/>
    <g class="ff_offp_post" transform="translate(191.099609375,990.599609375)">
      <line class="ff_off_curve_x" x1="-8" x2="8" y1="-8" y2="8"/>
      <line class="ff_off_curve_x" x1="-8" x2="8" y1="8" y2="-8"/>
    </g>
  </g>
  <g class="ff_offp">
    <line class="ff_offp_pre" x1="213.2001953125" x2="213.2001953125" y1="938.599609375" y2="967.2001953125"/>
    <g class="ff_offp_pre" transform="translate(213.2001953125,967.2001953125)">
      <line class="ff_off_curve_x" x1="-8" x2="8" y1="-8" y2="8"/>
      <line class="ff_off_curve_x" x1="-8" x2="8" y1="8" y2="-8"/>
    </g>
  </g>
  <g class="ff_offp">
    <line class="ff_offp_post" x1="213.2001953125" x2="213.2001953125" y1="938.599609375" y2="922.935546875"/>
    <g class="ff_offp_post" transform="translate(213.2001953125,922.935546875)">
      <line class="ff_off_curve_x" x1="-8" x2="8" y1="-8" y2="8"/>
      <line class="ff_off_curve_x" x1="-8" x2="8" y1="8" y2="-8"/>
    </g>
  </g>
  <g class="ff_offp">
    <line class="ff_offp_pre" x1="195.873046875" x2="206.5703125" y1="899.2763671875" y2="908.830078125"/>
    <g class="ff_offp_pre" transform="translate(206.5703125,908.830078125)">
      <line class="ff_off_curve_x" x1="-8" x2="8" y1="-8" y2="8"/>
      <line class="ff_off_curve_x" x1="-8" x2="8" y1="8" y2="-8"/>
    </g>
  </g>
  <g>
    <circle class="ff_onp ff_curve ff_first" cx="0" cy="0" r="7" transform="translate(-571.126953125,1000.67578125)"/>
    <g transform="translate(-571.126953125,1000.67578125) rotate(-138.22901162867387)">
      <line class="ff_arrow" x1="0" x2="10" y1="-10" y2="-10"/>
      <line class="ff_arrow" x1="10" x2="7" y1="-10" y2="-7"/>
      <line class="ff_arrow" x1="10" x2="7" y1="-10" y2="-13"/>
    </g>
  </g>
  <circle class="ff_onp ff_curve ff_extremum" cx="0" cy="0" r="7" transform="translate(-655.7021484375,852.130859375)"/>
  <rect class="ff_onp ff_corner ff_extremum" height="12" transform="translate(-599.5859375,733.765625)" width="12" x="-6" y="-6"/>
  <polygon class="ff_onp ff_tangent" points="0,-9 9,0 0,9" transform="translate(-280.48828125,899.2236328125) rotate(27.40519979392255)"/>
  <circle class="ff_onp ff_curve ff_extremum" cx="0" cy="0" r="7" transform="translate(-257.400390625,904.7998046875)"/>
  <circle class="ff_onp ff_curve ff_extremum" cx="0" cy="0" r="7" transform="translate(-206.7001953125,852.7998046875)"/>
  <polygon class="ff_onp ff_tangent" points="0,-9 9,0 0,9" transform="translate(-234.3115234375,806.376953125) rotate(27.40826533400221)"/>
  <polygon class="ff_onp ff_tangent" points="0,-9 9,0 0,9" transform="translate(-585.3115234375,624.376953125) rotate(207.41161379801852)"/>
  <circle class="ff_onp ff_curve ff_extremum" cx="0" cy="0" r="7" transform="translate(-608.400390625,618.7998046875)"/>
  <circle class="ff_onp ff_curve" cx="0" cy="0" r="7" transform="translate(-641.5439453125,631.2724609375)"/>
  <circle class="ff_onp ff_curve ff_extremum" cx="0" cy="0" r="7" transform="translate(-757.1025390625,852.130859375)"/>
  <circle class="ff_onp ff_curve" cx="0" cy="0" r="7" transform="translate(-637.873046875,1079.32421875)"/>
  <circle class="ff_onp ff_curve ff_extremum" cx="0" cy="0" r="7" transform="translate(-604.5,1092.0)"/>
  <circle class="ff_onp ff_curve ff_extremum" cx="0" cy="0" r="7" transform="translate(-553.7998046875,1040.0)"/>
  <g>
    <circle class="ff_onp ff_curve ff_first" cx="0" cy="0" r="7" transform="translate(-571.126953125,1000.67578125)"/>
    <g transform="translate(-571.126953125,1000.67578125) rotate(-138.22901162867387)">
      <line class="ff_arrow" x1="0" x2="10" y1="-10" y2="-10"/>
      <line class="ff_arrow" x1="10" x2="7" y1="-10" y2="-7"/>
      <line class="ff_arrow" x1="10" x2="7" y1="-10" y2="-13"/>
    </g>
  </g>
  <g>
    <circle class="ff_onp ff_curve ff_first" cx="0" cy="0" r="7" transform="translate(195.873046875,899.2763671875)"/>
    <g transform="translate(195.873046875,899.2763671875) rotate(-138.22850531654313)">
      <line class="ff_arrow" x1="0" x2="10" y1="-10" y2="-10"/>
      <line class="ff_arrow" x1="10" x2="7" y1="-10" y2="-7"/>
      <line class="ff_arrow" x1="10" x2="7" y1="-10" y2="-13"/>
    </g>
  </g>
  <circle class="ff_onp ff_curve ff_extremum" cx="0" cy="0" r="7" transform="translate(111.2978515625,750.73046875)"/>
  <rect class="ff_onp ff_corner ff_extremum" height="12" transform="translate(167.4140625,632.365234375)" width="12" x="-6" y="-6"/>
  <polygon class="ff_onp ff_tangent" points="0,-9 9,0 0,9" transform="translate(486.51171875,797.8232421875) rotate(27.41161379801852)"/>
  <circle class="ff_onp ff_curve ff_extremum" cx="0" cy="0" r="7" transform="translate(509.599609375,803.400390625)"/>
  <circle class="ff_onp ff_curve ff_extremum" cx="0" cy="0" r="7" transform="translate(560.2998046875,751.400390625)"/>
  <polygon class="ff_onp ff_tangent" points="0,-9 9,0 0,9" transform="translate(532.6884765625,704.9765625) rotate(27.40826533400221)"/>
  <polygon class="ff_onp ff_tangent" points="0,-9 9,0 0,9" transform="translate(181.6884765625,522.9765625) rotate(207.40519979392255)"/>
  <circle class="ff_onp ff_curve ff_extremum" cx="0" cy="0" r="7" transform="translate(158.599609375,517.400390625)"/>
  <circle class="ff_onp ff_curve" cx="0" cy="0" r="7" transform="translate(125.4560546875,529.8720703125)"/>
  <circle class="ff_onp ff_curve ff_extremum" cx="0" cy="0" r="7" transform="translate(9.8974609375,750.73046875)"/>
  <circle class="ff_onp ff_curve" cx="0" cy="0" r="7" transform="translate(129.126953125,977.923828125)"/>
  <circle class="ff_onp ff_curve ff_extremum" cx="0" cy="0" r="7" transform="translate(162.5,990.599609375)"/>
  <circle class="ff_onp ff_curve ff_extremum" cx="0" cy="0" r="7" transform="translate(213.2001953125,938.599609375)"/>
  <g>
    <circle class="ff_onp ff_curve ff_first" cx="0" cy="0" r="7" transform="translate(195.873046875,899.2763671875)"/>
    <g transform="translate(195.873046875,899.2763671875) rotate(-138.22850531654313)">
      <line class="ff_arrow" x1="0" x2="10" y1="-10" y2="-10"/>
      <line class="ff_arrow" x1="10" x2="7" y1="-10" y2="-7"/>
      <line class="ff_arrow" x1="10" x2="7" y1="-10" y2="-13"/>
    </g>
  </g>
  <path class="ff_main_background" d="M269.099609375 1040.0C135.2001953125 920.400390625 132.599609375 787.7998046875 265.2001953125 670.7998046875L616.2001953125 852.7998046875M-604.5 1040.0C-738.400390625 920.400390625 -741.0 787.7998046875 -608.400390625 670.7998046875L-257.400390625 852.7998046875"/>
  <path class="ff_main_closed" d="M-571.126953125 1000.67578125C-632.5966796875 945.771484375 -655.7021484375 894.8798828125 -655.7021484375 852.130859375C-655.7021484375 816.8603515625 -640.1748046875 776.7880859375 -599.5859375 733.765625L-280.48828125 899.2236328125C-273.61328125 902.7880859375 -265.7861328125 904.7998046875 -257.400390625 904.7998046875C-228.7998046875 904.7998046875 -206.7001953125 881.400390625 -206.7001953125 852.7998046875C-206.7001953125 832.5859375 -217.740234375 814.9697265625 -234.3115234375 806.376953125L-585.3115234375 624.376953125C-592.1865234375 620.8115234375 -600.013671875 618.7998046875 -608.400390625 618.7998046875C-621.2236328125 618.7998046875 -632.740234375 623.50390625 -641.5439453125 631.2724609375C-713.6806640625 694.9228515625 -757.1025390625 769.8271484375 -757.1025390625 852.130859375C-757.1025390625 936.34375 -711.9365234375 1013.1708984375 -637.873046875 1079.32421875C-629.041015625 1087.2138671875 -617.435546875 1092.0 -604.5 1092.0C-575.900390625 1092.0 -553.7998046875 1068.599609375 -553.7998046875 1040.0C-553.7998046875 1024.3349609375 -560.4296875 1010.23046875 -571.126953125 1000.67578125 zM195.873046875 899.2763671875C134.4033203125 844.37109375 111.2978515625 793.48046875 111.2978515625 750.73046875C111.2978515625 715.4599609375 126.8251953125 675.388671875 167.4140625 632.365234375L486.51171875 797.8232421875C493.38671875 801.388671875 501.2138671875 803.400390625 509.599609375 803.400390625C538.2001953125 803.400390625 560.2998046875 780.0 560.2998046875 751.400390625C560.2998046875 731.185546875 549.259765625 713.5693359375 532.6884765625 704.9765625L181.6884765625 522.9765625C174.8134765625 519.412109375 166.986328125 517.400390625 158.599609375 517.400390625C145.7763671875 517.400390625 134.259765625 522.1044921875 125.4560546875 529.8720703125C53.3193359375 593.5224609375 9.8974609375 668.4267578125 9.8974609375 750.73046875C9.8974609375 834.943359375 55.0634765625 911.7705078125 129.126953125 977.923828125C137.958984375 985.8134765625 149.564453125 990.599609375 162.5 990.599609375C191.099609375 990.599609375 213.2001953125 967.2001953125 213.2001953125 938.599609375C213.2001953125 922.935546875 206.5703125 908.830078125 195.873046875 899.2763671875 z"/>
</svg>
