/* XPM */
static char *fontforge[] = {
"32 32 95 2",
"  	c None",
". 	c #BEBEBE",
"+ 	c #0C0C0C",
"@ 	c #4F4F4F",
"# 	c #D4D4D4",
"$ 	c #ABABAB",
"% 	c #9F9F9F",
"& 	c #B3B3B3",
"* 	c #D3D3D3",
"= 	c #D8D8D8",
"- 	c #7E7E7E",
"; 	c #585858",
"> 	c #535353",
", 	c #828282",
"' 	c #B9B9B9",
") 	c #8B8B8B",
"! 	c #FFFFFF",
"~ 	c #8F8F8F",
"{ 	c #CFCFCF",
"] 	c #B6B6B6",
"^ 	c #7C7C7C",
"/ 	c #555555",
"( 	c #606060",
"_ 	c #C9C9C9",
": 	c #868686",
"< 	c #565656",
"[ 	c #3C3C3C",
"} 	c #272727",
"| 	c #121212",
"1 	c #BBBBBB",
"2 	c #AFAFAF",
"3 	c #676767",
"4 	c #595959",
"5 	c #4A4A4A",
"6 	c #353535",
"7 	c #1F1F1F",
"8 	c #0E0E0E",
"9 	c #A5A5A5",
"0 	c #5D5D5D",
"a 	c #616161",
"b 	c #515151",
"c 	c #414141",
"d 	c #2D2D2D",
"e 	c #191919",
"f 	c #0D0D0D",
"g 	c #454545",
"h 	c #AAAAAA",
"i 	c #9B9B9B",
"j 	c #474747",
"k 	c #424242",
"l 	c #4C4C4C",
"m 	c #393939",
"n 	c #2C2C2C",
"o 	c #1D1D1D",
"p 	c #1E1E1E",
"q 	c #161616",
"r 	c #0F0F0F",
"s 	c #131313",
"t 	c #181818",
"u 	c #1A1A1A",
"v 	c #5F5F5F",
"w 	c #383838",
"x 	c #B5B5B5",
"y 	c #1C1C1C",
"z 	c #2A2A2A",
"A 	c #373737",
"B 	c #858585",
"C 	c #C5C5C5",
"D 	c #151515",
"E 	c #111111",
"F 	c #323232",
"G 	c #3A3A3A",
"H 	c #3B3B3B",
"I 	c #636363",
"J 	c #242424",
"K 	c #2F2F2F",
"L 	c #626262",
"M 	c #737373",
"N 	c #232323",
"O 	c #282828",
"P 	c #333333",
"Q 	c #2E2E2E",
"R 	c #2B2B2B",
"S 	c #292929",
"T 	c #363636",
"U 	c #666666",
"V 	c #212121",
"W 	c #A0A0A0",
"X 	c #252525",
"Y 	c #6D6D6D",
"Z 	c #727272",
"` 	c #484848",
" .	c #C1C1C1",
"..	c #979797",
"+.	c #ACACAC",
"                                                                ",
"                                                                ",
"                                                                ",
"            . + @                                               ",
"          . + + + @                                             ",
"          + + + + + @                                           ",
"          @ + + + + + @                                         ",
"        . + + + + + + +                                         ",
"    . + + + + + + + + .                                         ",
". + + + + +     @ + .                                           ",
"+ + + @                                                         ",
"+ @                                   # $ % & *                 ",
"                              = $ - ; > > > > > ; , '           ",
"                        . ) > ! ! > ! ! > > > > > > > ; ~ {     ",
"                  ] ^ / > > ! > > ! > > ! / > > > > > > > > (   ",
"            _ : < > > ! ! ! ! ! ! ! ! > > > > > > > > @ [ } | 1 ",
"        2 3 > > > > > > ! > > ! > 4 > > > > > > 5 6 7 8 + + 5   ",
"    9 0 > > > > > > > ! > ; ! > a > > > b c d e + + + f g h     ",
"i j k j l b > > > ! ! ! ! ! ! ! ! m n o 8 + + + + p ^           ",
"0 q + + + + r s q t e t q | f + + + + + + + + u ~               ",
"    2 v t + + + + + + + + + + + + + + + + f w                   ",
"          x 3 p + + + + + + + + + + r y z A B C                 ",
"                B e D | E E e 7 } F G H H H w A @               ",
"              I J J J J J K H H H H H H H H H H G L             ",
"            M N J J J J O G H H H m P Q R z S S } R             ",
"            A t y N J J T H w K O J J J J J J J J @             ",
"            U t t e V R T R J J J J J J J J J J b               ",
"              W J t t X J J J J J J J J J n Y C                 ",
"                  Z y V J J J J Q ` 3 ~  .                      ",
"                      ..+.C                                     ",
"                                                                ",
"                                                                "};
