<?xml version="1.0" encoding="UTF-8" standalone="no"?>
<!-- Created with Inkscape (http://www.inkscape.org/) -->

<svg xmlns:svg="http://www.w3.org/2000/svg" xmlns="http://www.w3.org/2000/svg" xmlns:xlink="http://www.w3.org/1999/xlink" version="1.1" width="32" height="32" id="svg2">
	<defs id="defs6">
		<linearGradient id="gradient1">
			<stop style="stop-color:#000000;stop-opacity:0.43529412" offset="0" />
			<stop style="stop-color:#000000;stop-opacity:0" offset="1" />
		</linearGradient>
		<linearGradient id="gradient2">
			<stop style="stop-color:#414549" offset="0" />
			<stop style="stop-color:#35322d" offset="1" />
		</linearGradient>
		<linearGradient x1="15" y1="37" x2="15" y2="40" id="gradient3" gradientUnits="userSpaceOnUse">
			<stop style="stop-color:#20190e;stop-opacity:0.87450981" offset="0" />
			<stop style="stop-color:#c7d2df;stop-opacity:0.49803922" offset="1" />
		</linearGradient>
		<linearGradient x1="16" y1="5" x2="16" y2="44" id="gradient4" gradientUnits="userSpaceOnUse">
			<stop style="stop-color:#9da5ad" offset="0" />
			<stop style="stop-color:#877d6f" offset="0.64" />
			<stop style="stop-color:#6f6557" offset="0.67" />
			<stop style="stop-color:#61594d" offset="1" />
		</linearGradient>
		<linearGradient x1="8" y1="2" x2="25" y2="28" id="gradient5" gradientUnits="userSpaceOnUse">
			<stop style="stop-color:#ccd3da" offset="0" />
			<stop style="stop-color:#c2bbb0" offset="1" />
		</linearGradient>
		<linearGradient x1="9" y1="2" x2="24" y2="28" id="gradient6" gradientUnits="userSpaceOnUse">
			<stop style="stop-color:#ffffff;stop-opacity:0.7019608" offset="0" />
			<stop style="stop-color:#ffffff;stop-opacity:0.49803922" offset="1" />
		</linearGradient>
		<linearGradient x1="16" y1="5" x2="16" y2="44" id="gradient7" gradientUnits="userSpaceOnUse">
			<stop style="stop-color:#ffffff;stop-opacity:0.30980393" offset="0" />
			<stop style="stop-color:#ffffff;stop-opacity:0.18431373" offset="0.82" />
			<stop style="stop-color:#ffffff;stop-opacity:0.05882353" offset="0.92" />
			<stop style="stop-color:#ffffff;stop-opacity:0.18431373" offset="1" />
		</linearGradient>
		<linearGradient x1="24" y1="43" x2="24" y2="48" id="gradient10" xlink:href="#gradient1" gradientUnits="userSpaceOnUse" gradientTransform="matrix(0.68687506,0,0,0.6503772,-0.63004368,0.58722851)" />
		<radialGradient cx="8" cy="43" r="5" fx="8" fy="43" id="gradient11" xlink:href="#gradient1" gradientUnits="userSpaceOnUse" gradientTransform="matrix(0.68687506,0,0,0.6503772,-0.63004368,0.58722851)" />
		<radialGradient cx="39" cy="43" r="5" fx="39" fy="43" id="gradient12" xlink:href="#gradient1" gradientUnits="userSpaceOnUse" gradientTransform="matrix(0.68687506,0,0,0.6503772,-0.63004368,0.58722851)" />
		<linearGradient x1="16" y1="5" x2="16" y2="44" id="linearGradient3452" xlink:href="#gradient4" gradientUnits="userSpaceOnUse" />
		<linearGradient x1="14" y1="4" x2="14" y2="45" id="linearGradient3454" xlink:href="#gradient2" gradientUnits="userSpaceOnUse" />
		<linearGradient x1="16" y1="5" x2="16" y2="44" id="linearGradient3458" xlink:href="#gradient7" gradientUnits="userSpaceOnUse" />
		<linearGradient x1="15.475949" y1="36.767544" x2="15.475949" y2="39.842682" id="linearGradient3604" xlink:href="#gradient3" gradientUnits="userSpaceOnUse" />
		<linearGradient x1="9" y1="2" x2="24" y2="28" id="linearGradient3655" xlink:href="#gradient6" gradientUnits="userSpaceOnUse" gradientTransform="matrix(0.68935469,0,0,0.66748663,-0.32364255,0.71817086)" />
		<linearGradient x1="8" y1="1" x2="24" y2="31" id="linearGradient3661" xlink:href="#gradient2" gradientUnits="userSpaceOnUse" gradientTransform="matrix(0.68935469,0,0,0.66748663,-0.38332076,0.31967682)" />
		<linearGradient x1="8" y1="2" x2="25" y2="28" id="linearGradient3063" xlink:href="#gradient5" gradientUnits="userSpaceOnUse" gradientTransform="matrix(0.68935469,0,0,0.66748663,-0.38332076,0.31967682)" />
	</defs>
	<path d="M 1.4305812,25.301563 L 1.4305812,31.805334 L 4.8649567,31.805334 L 4.8649567,25.301563 z" id="path56" style="fill:url(#gradient11)" />
	<path d="M 4.8649567,28.553448 L 4.8649567,31.805334 L 26.158083,31.805334 L 26.158083,28.553448 z" id="path58" style="fill:url(#gradient10)" />
	<path d="M 26.158083,25.301563 L 26.158083,31.805334 L 29.592459,31.805334 L 29.592459,25.301563 z" id="path60" style="fill:url(#gradient12)" />
	<g transform="matrix(0.68687506,0,0,0.6503772,-0.63004368,0.58722851)" id="base">
		<path d="M 23.5,4.5 L 23.5,36.429094 C 23,36.679094 23,39.390907 23.5,40.140907 L 23.5,43 C 23.5,44 23,44.5 22,44.5 L 9,44.5 C 8,44.5 7.5,44 7.5,43 L 7.5,40.140907 C 9,39.390907 8.75,36.679094 7.5,36.429094 L 7.5,30 L 10.75,6 C 10.919693,4.7468799 11.5,4.5 12.5,4.5 z" id="path63" style="fill:url(#linearGradient3452);stroke:url(#linearGradient3454);stroke-width:1.4961617;stroke-linejoin:round;stroke-opacity:1" />
		<path d="M 8.2590953,36.022731 C 9.4350681,36.507275 9.7220817,39.523635 8.2590953,40.54727 L 22.777918,40.54727 C 22.277918,39.54727 22.203891,37.109092 22.777918,36.022731 z" id="path65" style="fill:url(#linearGradient3604)" />
		<path d="M 8.9711064,35.961285 L 8.9711064,30.054452 L 12.116416,6.5445224 C 12.183492,6.0431577 12.366416,6.0445224 12.866416,6.0445224 L 21.976548,6.0445224 L 21.976548,35.94455 M 22.028894,40.586361 L 22.028894,42.457138 C 22.028894,42.957138 22.028894,42.957138 21.528894,42.957138 L 9.4711064,42.957138 C 8.9711064,42.957138 8.9711064,42.957138 8.9711064,42.457138 L 8.9711064,40.586361" id="path67" style="fill:none;stroke:url(#linearGradient3458);stroke-width:1.4961617;stroke-opacity:1" />
		<path d="M 8.4262554,28.421819 L 8.2220817,30.390907 C 8.2077517,30.529109 8.2220817,31.390907 9.2220817,31.390907 L 22.740905,31.390907 L 22.740905,29.921819 L 9.9720817,29.921819 C 8.9720817,29.921819 8.4262554,29.921819 8.4262554,28.421819 z" id="path69" style="fill:#ffffff;fill-opacity:0.37254902" />
	</g>
	<use transform="matrix(-1,0,0,1,31.023041,3.7987314e-8)" id="use73" x="0" y="0" width="48" height="48" xlink:href="#base" />
	<path d="M 5.0174991,20.352781 L 5.0174991,23.94464 C 5.5993866,24.082857 5.0338423,23.659485 5.5647341,23.575124 C 5.8092436,23.53627 5.4083149,23.00006 5.5382302,22.913642 C 5.6423662,22.844372 5.8426007,23.240941 5.8714983,22.893318 C 5.9042153,22.499749 6.1237158,22.112997 6.3141201,22.405535 C 6.5284316,22.734804 6.4814056,22.396501 6.6942538,22.42586 C 6.8365094,22.445481 6.5298339,22.837543 6.8869242,22.730725 C 7.3531367,22.591261 6.6421747,21.99095 6.7411198,21.704346 C 6.9381946,21.133504 7.5598743,22.190392 7.6718176,21.764716 C 7.7129203,21.608419 7.9089473,21.565473 8.0395962,21.867781 C 8.1231898,22.061207 7.7400256,22.386693 8.1418868,22.263264 C 8.3956405,22.185326 8.2391078,22.716368 8.4334964,22.608777 C 8.7332476,22.442869 8.0588371,21.992168 8.3110477,21.951214 C 8.8130425,21.869701 8.686419,22.540618 9.0436458,22.540618 C 9.2508325,22.540618 9.0828731,22.131666 9.3428379,22.131666 C 9.7940145,22.131666 9.4161512,22.629101 9.683252,22.629101 C 9.897914,22.629101 10.193092,21.836348 10.286037,22.115253 C 10.444118,22.589621 10.670679,22.726562 10.646452,22.243151 C 10.63236,21.961981 11.081835,22.082213 10.974665,21.978724 C 10.79877,21.808866 10.964841,21.542839 11.261066,21.86186 C 11.527109,22.148373 11.835218,20.917571 11.974776,22.127097 C 12.075082,22.996439 12.30781,21.677716 12.78339,22.594705 C 13.210006,23.417282 13.367092,21.052642 13.624447,21.803565 C 13.853095,22.470721 14.674483,20.988267 14.416699,21.821211 C 14.281379,22.258457 14.827805,22.090469 14.687479,22.380129 C 14.455664,22.858646 14.945719,22.815293 15.015541,23.604668 L 15.015541,20.352781 C 15.015541,20.67797 14.838491,20.992997 14.349003,21.003159 L 5.6840352,21.003159 C 5.1737184,20.992997 5.0174991,20.67797 5.0174991,20.352781 z M 5.9792184,21.737809 C 6.2804749,21.672807 6.1020887,21.942579 6.1140851,21.987142 C 6.216716,22.368386 5.6030802,21.818968 5.9792184,21.737809 z" id="ink" style="fill:#2f2e30" />
	<use transform="translate(10.990002,3.8538026e-8)" id="use76" x="0" y="0" width="48" height="48" xlink:href="#ink" />
	<path d="M 5.5115148,11.404657 C 5.5115148,12.395102 5.8060968,12.515559 6.5418278,12.725249 C 10.247608,13.781433 8.5745991,21.449773 16.649696,21.449773 C 21.457822,21.449773 21.710843,19.503061 19.997396,18.44071 L 16.501082,18.692392 C 13.43174,9.9966217 14.733047,11.759287 14.733047,10.108546 z" id="path78" style="fill:#161108;fill-opacity:0.2" />
	<path d="M 11.082788,3.5564373 C 12.217227,8.325497 14.173725,5.5803913 15.547475,10.202461 C 16.019223,11.789686 15.576678,12.407558 16.921226,12.843643 C 20.398192,13.971349 18.518179,22.499012 26.880914,20.724125 C 23.217291,9.7794808 24.578546,12.166066 24.578546,10.515325 z" id="path80" style="fill:#161108;fill-opacity:0.2" />
	<g id="g3823">
		<path d="M 4.4421621,0.98716345 C 2.2017593,0.98716345 0.99538862,1.8215217 0.99538862,2.9896233 L 0.99538862,3.65711 C 0.99538862,4.3245966 1.5124046,4.9920832 2.374098,4.9920832 C 4.2698234,4.9920832 5.4754001,6.9945433 5.4761941,8.3295164 L 5.4780009,11.367248 C 5.4786274,12.420664 7.6852449,11.212757 8.9036883,14.720331 C 10.259139,18.622312 12.432999,21.011762 16.850546,21.011762 C 19.607965,21.011762 20.020573,20.3697 20.020573,19.034726 L 20.020573,17.394668 C 20.020573,16.56031 19.458337,16.034271 18.424305,16.034271 C 16.791359,16.034271 17.149304,17.064159 16.338458,17.064159 C 15.451342,17.064159 14.599789,14.591031 14.189171,13.259916 C 13.377971,10.630219 14.819853,11.237929 14.72594,10.399773 L 14.471703,8.1307513 C 14.346782,7.015849 14.437805,7.1614148 11.680386,6.9945431 C 10.216116,2.7379412 7.3719195,0.98716345 4.4421621,0.98716345 z" id="path83" style="fill:url(#linearGradient3661)" />
		<path d="M 4.96875,2 C 3.2057707,2 2,2.3325134 2,3 C 2,3.6642519 2.0765353,3.9375 2.5625,3.9375 C 4.2491594,3.9375 3.4545381,2.9680543 5.125,2.9375 C 6.2633663,2.9166782 7.4824003,4.4696364 8.4157839,8 L 6.0625,8.03125 L 6.09375,9.03125 L 8.8220339,9.0625 C 11.450626,16.216872 13.743186,19 16.84375,19 C 18.835543,19 19.03125,18.510177 19.03125,17.96875 C 19.03125,17.635007 19.064355,17.03125 18.375,17.03125 C 17.24978,17.03125 17.831936,18 16.625,18 C 15.082493,18 14.564816,16.718588 13.625,14.34375 L 11.5,9.03125 L 14,8.96875 L 13.96875,8 L 11.09375,8 C 9.7579717,4.266134 7.6726079,2 4.96875,2 z M 5.53125,5.03125 C 5.3317239,5.0836168 5.1278342,5.2194678 4.9375,5.4375 C 5.6520584,5.8208907 5.8483684,6.3924021 6.03125,7.03125 C 6.2354674,6.9947284 6.5161895,7.0547753 6.96875,7 C 6.7930562,5.6798054 6.1298283,4.8741495 5.53125,5.03125 z M 7.1080509,11.03072 C 7.8449043,11.226074 8.7790547,11.72166 8.9475636,12.106462 L 8.4788136,11.034428 z" id="path85" style="fill:url(#linearGradient3063)" />
		<path d="M 4.737878,2.2090834 C 2.702128,2.2090834 2.231109,2.8180889 2.231109,3.1610863 C 2.231109,3.4948296 2.2562104,3.6533682 2.8270824,3.6533682 C 3.8934274,3.6533682 3.4325249,2.694572 5.2312709,2.694572 C 6.6100219,2.694572 7.7006703,4.6773786 8.8174679,8.2652208 L 6.3484982,8.2948979 L 6.3394263,8.7685037 L 9.0320285,8.8265074 C 11.036237,14.644262 13.710545,18.811986 16.666663,18.811986 C 18.505913,18.811986 18.758479,18.360777 18.758479,18.005805 C 18.758479,17.546221 18.668217,17.277372 18.366625,17.277372 C 17.465792,17.277372 18.138042,18.2429 16.554291,18.2429 C 15.283294,18.2429 14.53979,17.202646 13.581449,14.83512 L 11.142895,8.8108114 L 13.740634,8.7739876 L 13.703106,8.2539164 L 10.921874,8.2613347 C 9.3707065,3.7225704 7.0684884,2.2090834 4.737878,2.2090834 z" id="path87" style="fill:none;stroke:url(#linearGradient3655);stroke-width:0.5;stroke-miterlimit:4;stroke-dasharray:none" />
	</g>
	<use transform="translate(10,0)" id="use3828" x="0" y="0" width="32" height="32" xlink:href="#g3823" />
</svg>
