/* XPM */
static char * fontforge_xpm[] = {
"32 32 195 2",
"  	c None",
". 	c #AAAAAA",
"+ 	c #B2B2B2",
"@ 	c #BEBEBE",
"# 	c #D0D0D0",
"$ 	c #CFCFCF",
"% 	c #BFBFBF",
"& 	c #A5A5A5",
"* 	c #C8C8C8",
"= 	c #F8F8F8",
"- 	c #FFFFFF",
"; 	c #FEFEFE",
"> 	c #FDFDFD",
", 	c #F9F9F9",
"' 	c #C9C9C9",
") 	c #9F9F9F",
"! 	c #C4C4C4",
"~ 	c #FCFCFC",
"{ 	c #C6C6C6",
"] 	c #A0A0A0",
"^ 	c #F0F0F0",
"/ 	c #F2F2F2",
"( 	c #A9A9A9",
"_ 	c #ABABAB",
": 	c #A2A2A2",
"< 	c #C9CBCC",
"[ 	c #989B9E",
"} 	c #C7C9CA",
"| 	c #A4A4A4",
"1 	c #9D9D9D",
"2 	c #EEEEEE",
"3 	c #E6E6E7",
"4 	c #767B7E",
"5 	c #4A5155",
"6 	c #333B40",
"7 	c #575D61",
"8 	c #C2C4C5",
"9 	c #696F72",
"0 	c #495054",
"a 	c #40484C",
"b 	c #232C31",
"c 	c #909597",
"d 	c #C0C0C0",
"e 	c #FBFBFB",
"f 	c #C1C3C5",
"g 	c #323A3F",
"h 	c #686D71",
"i 	c #CDCFD0",
"j 	c #939799",
"k 	c #262F34",
"l 	c #343D40",
"m 	c #D5D7D7",
"n 	c #828789",
"o 	c #FAFAFA",
"p 	c #E7E8E8",
"q 	c #3C4448",
"r 	c #F7F7F7",
"s 	c #7C8184",
"t 	c #7F8587",
"u 	c #CED0D1",
"v 	c #C1C1C1",
"w 	c #6D7376",
"x 	c #808588",
"y 	c #40474B",
"z 	c #BEC0C1",
"A 	c #F0F1F1",
"B 	c #2A3237",
"C 	c #C6C8C9",
"D 	c #C0C2C4",
"E 	c #293136",
"F 	c #F5F5F5",
"G 	c #A6A6A6",
"H 	c #D8D9DA",
"I 	c #3D4548",
"J 	c #323A3E",
"K 	c #353C40",
"L 	c #373F42",
"M 	c #2D3439",
"N 	c #252D32",
"O 	c #41494D",
"P 	c #F9FAFA",
"Q 	c #ADADAD",
"R 	c #EAEBEB",
"S 	c #A7AAAC",
"T 	c #4D5357",
"U 	c #A8ABAD",
"V 	c #2F373B",
"W 	c #A8ABAC",
"X 	c #C8CACB",
"Y 	c #B0B0B0",
"Z 	c #B8B8B8",
"` 	c #41484C",
" .	c #888C8F",
"..	c #E8EAEA",
"+.	c #232B30",
"@.	c #BFC1C2",
"#.	c #BCBCBC",
"$.	c #EBECEC",
"%.	c #222B30",
"&.	c #BCBEC0",
"*.	c #B0B3B6",
"=.	c #F1F1F1",
"-.	c #CDCDCD",
";.	c #B6B9BA",
">.	c #7D8285",
",.	c #484F53",
"'.	c #CCCCCC",
").	c #B5B5B5",
"!.	c #83878A",
"~.	c #464D51",
"{.	c #BABABA",
"].	c #52595D",
"^.	c #757B7D",
"/.	c #F3F3F3",
"(.	c #273035",
"_.	c #EEB79A",
":.	c #F6F6F6",
"<.	c #2A3337",
"[.	c #DEDFDF",
"}.	c #EDAC88",
"|.	c #EC6C29",
"1.	c #ECA27B",
"2.	c #EDEDED",
"3.	c #CACCCD",
"4.	c #252E33",
"5.	c #E6E7E7",
"6.	c #8D9194",
"7.	c #3E464A",
"8.	c #F7ECE6",
"9.	c #EA824A",
"0.	c #E98956",
"a.	c #FAF9F8",
"b.	c #BDBDBD",
"c.	c #95999B",
"d.	c #595F63",
"e.	c #5D6366",
"f.	c #A0928B",
"g.	c #E98047",
"h.	c #F3D5C5",
"i.	c #C3C3C3",
"j.	c #5E6468",
"k.	c #828689",
"l.	c #D9DADA",
"m.	c #283035",
"n.	c #6A4530",
"o.	c #E67B42",
"p.	c #F3DCCF",
"q.	c #BBBBBB",
"r.	c #BBBDBE",
"s.	c #52595C",
"t.	c #B1B3B6",
"u.	c #D2D4D5",
"v.	c #242C31",
"w.	c #6A7073",
"x.	c #919597",
"y.	c #474E52",
"z.	c #964920",
"A.	c #FA5802",
"B.	c #EFC9B6",
"C.	c #949494",
"D.	c #E7E7E7",
"E.	c #8F9395",
"F.	c #C3C5C6",
"G.	c #5A6064",
"H.	c #394045",
"I.	c #4C5357",
"J.	c #A37E6A",
"K.	c #E67D45",
"L.	c #F1BEA3",
"M.	c #F8F7F7",
"N.	c #979797",
"O.	c #A6A9AB",
"P.	c #DCDDDD",
"Q.	c #F0BFA5",
"R.	c #E8854F",
"S.	c #F7F1EE",
"T.	c #A1A1A1",
"U.	c #F1D3C3",
"V.	c #EA8F5E",
"W.	c #EA8C5A",
"X.	c #F5F2F1",
"Y.	c #A3A3A3",
"Z.	c #E4E4E4",
"`.	c #F4EDE9",
" +	c #E5773C",
".+	c #EC6D2A",
"++	c #F1D8CB",
"@+	c #939393",
"#+	c #B9B9B9",
"$+	c #F1CFBD",
"%+	c #F0C9B3",
"&+	c #9C9C9C",
"*+	c #ECECEC",
"=+	c #B3B3B3",
"-+	c #A8A8A8",
"                                                                ",
"                        . + @ # $ % + .                         ",
"                  & * = - ; > - ; - ; - , ' &                   ",
"              ) ! ~ ; ; > ; ; > > ; - ; ; ; ~ { ]               ",
"            & ^ > ; > > > - - > - ; - - > ; ; ; / &             ",
"          ( , ~ ; ~ ; ; > > ; ; - > > > > > > > ; , _           ",
"        : = ; > - ~ ; ~ ; > - > > ~ ~ ; ; > < [ } > , |         ",
"      1 2 > > > ~ > > ~ ~ ~ ~ 3 4 5 6 7 8 9 0 a b c > ^ )       ",
"      d ~ > > ~ ~ ~ ~ ~ ~ e f g h i j k b l / m k n ~ > !       ",
"    : o ~ > > ~ ~ ~ > e o p 6 q r ~ > s b t ~ > u = > > ~ |     ",
"    v > ~ ~ > ~ > > > ~ > w b x ~ ~ e y b z ~ ~ e > e ~ e *     ",
"    / o ~ e ~ e ~ > e ~ A B b C ~ o D b E F e o e e ~ ~ o F     ",
"  G o o e ~ ~ e o o H I J b b K L L M b N L O P e ~ e ~ > o (   ",
"  Q ~ o e e e ~ o e R S T b 0 U U S V b h W X e e e e e e e Y   ",
"  Z o , o , o e o e o o ` b  .e , ..+.b @.e ~ o e o , o ~ o #.  ",
"  { , o , , o o o e o $.%.b &.~ , *.b N =.~ o e o o o , , o -.  ",
"  { e , o , o , o = e ;.b N =.e o >.b ,.o o o o e , , o , e '.  ",
"  ).= o o , o = , o o !.b ~.= o , T b 4 , , o o e o = = o ~ {.  ",
"  _ , , , = o , o o o ].b ^.= , /.(.b S o _.r o , = , o , o Q   ",
"  | , , = , , , , = :.<.b U , , 8 b b [.}.|.1.= o r , , , = &   ",
"    2., r o , o = r 3.b 4.5.r o 6.b 7.8.9.0.a.= r o = r , /.    ",
"    b.= = r = r , , c.b d.r = r e.b f.g.h.= r r r r , = = i.    ",
"    1 F = = , r , = j.b k.= , l.m.n.o.p.= , = = , = = , r ]     ",
"      q., :.r.s.t.u.4.b v.w.x.y.z.A.B.= = o r :.= = r = d       ",
"      C.D.= E.b b b 4 F.G.H.I.J.K.L.M.r r r , = r :.r D.N.      ",
"        1 ^ /.t.O.P.r = r :.Q.R.S.r r = :.= r = r :.=.)         ",
"          T.^ F :.r :.r U.V.W.X.:.:.= :.F r = :.r / Y.          ",
"            1 Z.:.r r `. +.+++:.:.F :.:.:.F r :.D.1             ",
"              @+#+/.F r $+%+:.:.F :.:.F r :.F {.C.              ",
"                  &+q.*+F F F F F F r :.*+b.&+                  ",
"                        : . + i.i.=+-+:                         ",
"                                                                "};
