<?xml version="1.0" standalone="no"?>
<!DOCTYPE svg PUBLIC "-//W3C//DTD SVG 1.1//EN" "http://www.w3.org/Graphics/SVG/1.1/DTD/svg11.dtd">
<svg width="100%" height="100%" viewBox="0 0 48 48" version="1.1" xmlns="http://www.w3.org/2000/svg" xmlns:xlink="http://www.w3.org/1999/xlink" xml:space="preserve" style="fill-rule:evenodd;clip-rule:evenodd;stroke-linejoin:round;stroke-miterlimit:1.41421;">
    <g transform="matrix(0.153333,6.03544e-32,6.04485e-32,0.153333,-7.85311,1.12566)">
        <circle cx="207.738" cy="149.18" r="142.986" style="fill:white;"/>
    </g>
    <g transform="matrix(0.153333,6.03544e-32,6.04485e-32,0.153333,-7.85311,1.12566)">
        <path d="M207.738,292.659L206.81,292.656L205.884,292.647L204.959,292.633L204.035,292.612L203.113,292.586L202.192,292.554L201.273,292.516L200.355,292.472L199.439,292.423L198.524,292.368L197.611,292.307L196.699,292.241L195.789,292.169L194.881,292.091L193.974,292.007L193.069,291.918L192.165,291.824L191.263,291.723L190.363,291.618L189.465,291.506L188.568,291.389L187.673,291.267L186.78,291.139L185.888,291.006L184.998,290.867L184.111,290.723L183.225,290.573L182.34,290.418L181.458,290.258L180.578,290.092L179.699,289.921L178.822,289.744L177.948,289.562L177.075,289.375L176.204,289.183L175.336,288.985L174.469,288.782L173.604,288.574L172.741,288.36L171.881,288.142L171.022,287.918L170.166,287.689L169.311,287.455L168.459,287.216L167.609,286.972L166.761,286.722L165.915,286.468L165.072,286.208L164.231,285.944L163.392,285.674L162.555,285.4L161.72,285.12L160.888,284.836L160.058,284.546L159.23,284.252L158.405,283.953L157.582,283.648L156.762,283.339L155.943,283.025L155.128,282.707L154.314,282.383L153.504,282.055L152.695,281.722L151.889,281.384L151.086,281.041L150.285,280.693L149.487,280.341L148.691,279.984L147.898,279.623L147.107,279.257L146.319,278.886L145.534,278.51L144.751,278.13L143.971,277.745L143.193,277.356L142.419,276.962L141.647,276.564L140.877,276.161L140.111,275.754L139.347,275.342L138.586,274.925L137.828,274.504L137.072,274.079L136.32,273.649L135.57,273.215L134.823,272.777L134.08,272.334L133.339,271.887L132.6,271.435L131.865,270.979L131.133,270.519L130.404,270.055L129.678,269.586L128.954,269.113L128.234,268.636L127.517,268.155L126.803,267.669L126.092,267.18L125.384,266.686L124.679,266.188L123.978,265.686L123.279,265.179L122.584,264.669L121.892,264.155L121.203,263.636L120.517,263.114L119.835,262.587L119.156,262.057L118.48,261.522L117.807,260.984L117.138,260.442L116.472,259.895L115.809,259.345L115.15,258.791L114.494,258.233L113.841,257.671L113.192,257.106L112.547,256.536L111.905,255.963L111.266,255.386L110.631,254.805L109.999,254.22L109.371,253.632L108.746,253.04L108.125,252.444L107.507,251.845L106.893,251.242L106.283,250.635L105.676,250.025L105.073,249.411L104.474,248.793L103.878,248.172L103.286,247.547L102.698,246.919L102.113,246.287L101.532,245.652L100.955,245.013L100.382,244.371L99.812,243.726L99.247,243.077L98.685,242.424L98.127,241.768L97.573,241.109L97.023,240.446L96.476,239.78L95.934,239.111L95.396,238.438L94.861,237.762L94.331,237.083L93.804,236.401L93.282,235.715L92.763,235.026L92.249,234.334L91.739,233.639L91.232,232.94L90.73,232.239L90.232,231.534L89.738,230.826L89.249,230.115L88.763,229.401L88.282,228.684L87.805,227.964L87.332,227.24L86.863,226.514L86.399,225.785L85.939,225.053L85.483,224.318L85.031,223.579L84.584,222.838L84.141,222.095L83.703,221.348L83.269,220.598L82.839,219.846L82.414,219.09L81.993,218.332L81.576,217.571L81.164,216.807L80.757,216.041L80.354,215.271L79.956,214.499L79.562,213.725L79.173,212.947L78.788,212.167L78.408,211.384L78.032,210.599L77.661,209.811L77.295,209.02L76.934,208.227L76.577,207.431L76.225,206.633L75.877,205.832L75.534,205.029L75.196,204.223L74.863,203.414L74.535,202.604L74.211,201.79L73.893,200.975L73.579,200.156L73.27,199.336L72.965,198.513L72.666,197.688L72.372,196.86L72.082,196.03L71.798,195.198L71.518,194.363L71.244,193.526L70.974,192.687L70.71,191.846L70.45,191.003L70.196,190.157L69.946,189.309L69.702,188.459L69.463,187.607L69.229,186.752L69,185.896L68.776,185.037L68.557,184.177L68.344,183.314L68.136,182.449L67.933,181.582L67.735,180.714L67.543,179.843L67.356,178.97L67.174,178.096L66.997,177.219L66.826,176.34L66.66,175.46L66.5,174.578L66.345,173.693L66.195,172.807L66.051,171.92L65.912,171.03L65.779,170.138L65.651,169.245L65.529,168.35L65.412,167.453L65.3,166.555L65.195,165.655L65.094,164.753L65,163.849L64.911,162.944L64.827,162.037L64.749,161.129L64.677,160.219L64.611,159.307L64.55,158.394L64.495,157.479L64.446,156.563L64.402,155.645L64.364,154.726L64.332,153.805L64.306,152.883L64.285,151.959L64.271,151.034L64.262,150.108L64.259,149.18L64.262,148.252L64.271,147.326L64.285,146.401L64.306,145.477L64.332,144.555L64.364,143.634L64.402,142.715L64.446,141.797L64.495,140.881L64.55,139.966L64.611,139.053L64.677,138.141L64.749,137.231L64.827,136.323L64.911,135.416L65,134.511L65.094,133.607L65.195,132.705L65.3,131.805L65.412,130.907L65.529,130.01L65.651,129.115L65.779,128.222L65.912,127.33L66.051,126.44L66.195,125.553L66.345,124.667L66.5,123.782L66.66,122.9L66.826,122.02L66.997,121.141L67.174,120.264L67.356,119.39L67.543,118.517L67.735,117.646L67.933,116.778L68.136,115.911L68.344,115.046L68.557,114.183L68.776,113.323L69,112.464L69.229,111.608L69.463,110.753L69.702,109.901L69.946,109.051L70.196,108.203L70.45,107.357L70.71,106.514L70.974,105.673L71.244,104.834L71.518,103.997L71.798,103.162L72.082,102.33L72.372,101.5L72.666,100.672L72.965,99.847L73.27,99.024L73.579,98.204L73.893,97.385L74.211,96.57L74.535,95.756L74.863,94.946L75.196,94.137L75.534,93.331L75.877,92.528L76.225,91.727L76.577,90.929L76.934,90.133L77.295,89.34L77.661,88.549L78.032,87.761L78.408,86.976L78.788,86.193L79.173,85.413L79.562,84.635L79.956,83.861L80.354,83.089L80.757,82.319L81.164,81.553L81.576,80.789L81.993,80.028L82.414,79.27L82.839,78.514L83.269,77.762L83.703,77.012L84.141,76.265L84.584,75.522L85.031,74.781L85.483,74.042L85.939,73.307L86.399,72.575L86.863,71.846L87.332,71.12L87.805,70.396L88.282,69.676L88.763,68.959L89.249,68.245L89.738,67.534L90.232,66.826L90.73,66.121L91.232,65.42L91.739,64.721L92.249,64.026L92.763,63.334L93.282,62.645L93.804,61.959L94.331,61.277L94.861,60.598L95.396,59.922L95.934,59.249L96.476,58.58L97.023,57.914L97.573,57.251L98.127,56.592L98.685,55.936L99.247,55.283L99.812,54.634L100.382,53.989L100.955,53.347L101.532,52.708L102.113,52.073L102.698,51.441L103.286,50.813L103.878,50.188L104.474,49.567L105.073,48.949L105.676,48.335L106.283,47.725L106.893,47.118L107.507,46.515L108.125,45.916L108.746,45.32L109.371,44.728L109.999,44.14L110.631,43.555L111.266,42.974L111.905,42.397L112.547,41.824L113.192,41.254L113.841,40.689L114.494,40.127L115.15,39.569L115.809,39.015L116.472,38.465L117.138,37.918L117.807,37.376L118.48,36.838L119.156,36.303L119.835,35.773L120.517,35.246L121.203,34.724L121.892,34.205L122.584,33.691L123.279,33.181L123.978,32.674L124.679,32.172L125.384,31.674L126.092,31.18L126.803,30.691L127.517,30.205L128.234,29.724L128.954,29.247L129.678,28.774L130.404,28.305L131.133,27.841L131.865,27.381L132.6,26.925L133.339,26.473L134.08,26.026L134.823,25.583L135.57,25.145L136.32,24.711L137.072,24.281L137.828,23.856L138.586,23.435L139.347,23.018L140.111,22.606L140.877,22.199L141.647,21.796L142.419,21.398L143.193,21.004L143.971,20.615L144.751,20.23L145.534,19.85L146.319,19.474L147.107,19.103L147.898,18.737L148.691,18.376L149.487,18.019L150.285,17.667L151.086,17.319L151.889,16.976L152.695,16.638L153.504,16.305L154.314,15.977L155.128,15.653L155.943,15.335L156.762,15.021L157.582,14.712L158.405,14.407L159.23,14.108L160.058,13.814L160.888,13.524L161.72,13.24L162.555,12.96L163.392,12.686L164.231,12.416L165.072,12.152L165.915,11.892L166.761,11.638L167.609,11.388L168.459,11.144L169.311,10.905L170.166,10.671L171.022,10.442L171.881,10.218L172.741,9.999L173.604,9.786L174.469,9.578L175.336,9.375L176.204,9.177L177.075,8.985L177.948,8.798L178.822,8.616L179.699,8.439L180.578,8.268L181.458,8.102L182.34,7.942L183.225,7.787L184.111,7.637L184.998,7.493L185.888,7.354L186.78,7.221L187.673,7.093L188.568,6.971L189.465,6.854L190.363,6.742L191.263,6.637L192.165,6.536L193.069,6.442L193.974,6.353L194.881,6.269L195.789,6.191L196.699,6.119L197.611,6.053L198.524,5.992L199.439,5.937L200.355,5.888L201.273,5.844L202.192,5.806L203.113,5.774L204.035,5.748L204.959,5.727L205.884,5.713L206.81,5.704L207.738,5.701L208.666,5.704L209.592,5.713L210.517,5.727L211.441,5.748L212.363,5.774L213.284,5.806L214.203,5.844L215.121,5.888L216.037,5.937L216.952,5.992L217.865,6.053L218.777,6.119L219.687,6.191L220.595,6.269L221.502,6.353L222.407,6.442L223.311,6.536L224.213,6.637L225.113,6.742L226.011,6.854L226.908,6.971L227.803,7.093L228.696,7.221L229.588,7.354L230.478,7.493L231.365,7.637L232.251,7.787L233.136,7.942L234.018,8.102L234.898,8.268L235.777,8.439L236.654,8.616L237.528,8.798L238.401,8.985L239.272,9.177L240.14,9.375L241.007,9.578L241.872,9.786L242.735,9.999L243.595,10.218L244.454,10.442L245.31,10.671L246.165,10.905L247.017,11.144L247.867,11.388L248.715,11.638L249.561,11.892L250.404,12.152L251.245,12.416L252.084,12.686L252.921,12.96L253.756,13.24L254.588,13.524L255.418,13.814L256.246,14.108L257.071,14.407L257.894,14.712L258.714,15.021L259.533,15.335L260.348,15.653L261.162,15.977L261.972,16.305L262.781,16.638L263.587,16.976L264.39,17.319L265.191,17.667L265.989,18.019L266.785,18.376L267.578,18.737L268.369,19.103L269.157,19.474L269.942,19.85L270.725,20.23L271.505,20.615L272.283,21.004L273.057,21.398L273.829,21.796L274.599,22.199L275.365,22.606L276.129,23.018L276.89,23.435L277.648,23.856L278.404,24.281L279.156,24.711L279.906,25.145L280.653,25.583L281.396,26.026L282.137,26.473L282.876,26.925L283.611,27.381L284.343,27.841L285.072,28.305L285.798,28.774L286.522,29.247L287.242,29.724L287.959,30.205L288.673,30.691L289.384,31.18L290.092,31.674L290.797,32.172L291.498,32.674L292.197,33.181L292.892,33.691L293.584,34.205L294.273,34.724L294.959,35.246L295.641,35.773L296.32,36.303L296.996,36.838L297.669,37.376L298.338,37.918L299.004,38.465L299.667,39.015L300.326,39.569L300.982,40.127L301.635,40.689L302.284,41.254L302.929,41.824L303.571,42.397L304.21,42.974L304.845,43.555L305.477,44.14L306.105,44.728L306.73,45.32L307.351,45.916L307.969,46.515L308.583,47.118L309.193,47.725L309.8,48.335L310.403,48.949L311.002,49.567L311.598,50.188L312.19,50.813L312.778,51.441L313.363,52.073L313.944,52.708L314.521,53.347L315.094,53.989L315.664,54.634L316.229,55.283L316.791,55.936L317.349,56.592L317.903,57.251L318.453,57.914L319,58.58L319.542,59.249L320.08,59.922L320.615,60.598L321.145,61.277L321.672,61.959L322.194,62.645L322.713,63.334L323.227,64.026L323.737,64.721L324.244,65.42L324.746,66.121L325.244,66.826L325.738,67.534L326.227,68.245L326.713,68.959L327.194,69.676L327.671,70.396L328.144,71.12L328.613,71.846L329.077,72.575L329.537,73.307L329.993,74.042L330.445,74.781L330.892,75.522L331.335,76.265L331.773,77.012L332.207,77.762L332.637,78.514L333.062,79.27L333.483,80.028L333.9,80.789L334.312,81.553L334.719,82.319L335.122,83.089L335.52,83.861L335.914,84.635L336.303,85.413L336.688,86.193L337.068,86.976L337.444,87.761L337.815,88.549L338.181,89.34L338.542,90.133L338.899,90.929L339.251,91.727L339.599,92.528L339.942,93.331L340.28,94.137L340.613,94.946L340.941,95.756L341.265,96.57L341.583,97.385L341.897,98.204L342.206,99.024L342.511,99.847L342.81,100.672L343.104,101.5L343.394,102.33L343.678,103.162L343.958,103.997L344.232,104.834L344.502,105.673L344.766,106.514L345.026,107.357L345.28,108.203L345.53,109.051L345.774,109.901L346.013,110.753L346.247,111.608L346.476,112.464L346.7,113.323L346.919,114.183L347.132,115.046L347.34,115.911L347.543,116.778L347.741,117.646L347.933,118.517L348.12,119.39L348.302,120.264L348.479,121.141L348.65,122.02L348.816,122.9L348.976,123.782L349.131,124.667L349.281,125.553L349.425,126.441L349.564,127.33L349.697,128.222L349.825,129.115L349.947,130.01L350.064,130.907L350.176,131.805L350.281,132.705L350.382,133.607L350.476,134.511L350.565,135.416L350.649,136.323L350.727,137.231L350.799,138.141L350.865,139.053L350.926,139.966L350.981,140.881L351.03,141.797L351.074,142.715L351.112,143.634L351.144,144.555L351.17,145.477L351.191,146.401L351.205,147.326L351.214,148.252L351.217,149.18L351.214,150.108L351.205,151.034L351.191,151.959L351.17,152.883L351.144,153.805L351.112,154.726L351.074,155.645L351.03,156.563L350.981,157.479L350.926,158.394L350.865,159.307L350.799,160.219L350.727,161.129L350.649,162.037L350.565,162.944L350.476,163.849L350.382,164.753L350.281,165.655L350.176,166.555L350.064,167.453L349.947,168.35L349.825,169.245L349.697,170.138L349.564,171.03L349.425,171.92L349.281,172.807L349.131,173.693L348.976,174.578L348.816,175.46L348.65,176.34L348.479,177.219L348.302,178.096L348.12,178.97L347.933,179.843L347.741,180.714L347.543,181.582L347.34,182.449L347.132,183.314L346.919,184.177L346.7,185.037L346.476,185.896L346.247,186.752L346.013,187.607L345.774,188.459L345.53,189.309L345.28,190.157L345.026,191.003L344.766,191.846L344.502,192.687L344.232,193.526L343.958,194.363L343.678,195.198L343.394,196.03L343.104,196.86L342.81,197.688L342.511,198.513L342.206,199.336L341.897,200.156L341.583,200.975L341.265,201.79L340.941,202.604L340.613,203.414L340.28,204.223L339.942,205.029L339.599,205.832L339.251,206.633L338.899,207.431L338.542,208.227L338.181,209.02L337.815,209.811L337.444,210.599L337.068,211.384L336.688,212.167L336.303,212.947L335.914,213.725L335.52,214.499L335.122,215.271L334.719,216.041L334.312,216.807L333.9,217.571L333.483,218.332L333.062,219.09L332.637,219.846L332.207,220.598L331.773,221.348L331.335,222.095L330.892,222.838L330.445,223.579L329.993,224.318L329.537,225.053L329.077,225.785L328.613,226.514L328.144,227.24L327.671,227.964L327.194,228.684L326.713,229.401L326.227,230.115L325.738,230.826L325.244,231.534L324.746,232.239L324.244,232.94L323.737,233.639L323.227,234.334L322.713,235.026L322.194,235.715L321.672,236.401L321.145,237.083L320.615,237.762L320.08,238.438L319.542,239.111L319,239.78L318.453,240.446L317.903,241.109L317.349,241.768L316.791,242.424L316.229,243.077L315.664,243.726L315.094,244.371L314.521,245.013L313.944,245.652L313.363,246.287L312.778,246.919L312.19,247.547L311.598,248.172L311.002,248.793L310.403,249.411L309.8,250.025L309.193,250.635L308.583,251.242L307.969,251.845L307.351,252.444L306.73,253.04L306.105,253.632L305.477,254.22L304.845,254.805L304.21,255.386L303.571,255.963L302.929,256.536L302.284,257.106L301.635,257.671L300.982,258.233L300.326,258.791L299.667,259.345L299.004,259.895L298.338,260.442L297.669,260.984L296.996,261.522L296.32,262.057L295.641,262.587L294.959,263.114L294.273,263.636L293.584,264.155L292.892,264.669L292.197,265.179L291.498,265.686L290.797,266.188L290.092,266.686L289.384,267.18L288.673,267.669L287.959,268.155L287.242,268.636L286.522,269.113L285.798,269.586L285.072,270.055L284.343,270.519L283.611,270.979L282.876,271.435L282.137,271.887L281.396,272.334L280.653,272.777L279.906,273.215L279.156,273.649L278.404,274.079L277.648,274.504L276.89,274.925L276.129,275.342L275.365,275.754L274.599,276.161L273.829,276.564L273.057,276.962L272.283,277.356L271.505,277.745L270.725,278.13L269.942,278.51L269.157,278.886L268.369,279.257L267.578,279.623L266.785,279.984L265.989,280.341L265.191,280.693L264.39,281.041L263.587,281.384L262.781,281.722L261.972,282.055L261.162,282.383L260.348,282.707L259.533,283.025L258.714,283.339L257.894,283.648L257.071,283.953L256.246,284.252L255.418,284.546L254.588,284.836L253.756,285.12L252.921,285.4L252.084,285.674L251.245,285.944L250.404,286.208L249.561,286.468L248.715,286.722L247.867,286.972L247.017,287.216L246.165,287.455L245.31,287.689L244.454,287.918L243.595,288.142L242.735,288.36L241.872,288.574L241.007,288.782L240.14,288.985L239.272,289.183L238.401,289.375L237.528,289.562L236.654,289.744L235.777,289.921L234.898,290.092L234.018,290.258L233.136,290.418L232.251,290.573L231.365,290.723L230.478,290.867L229.588,291.006L228.696,291.139L227.803,291.267L226.908,291.389L226.011,291.506L225.113,291.618L224.213,291.723L223.311,291.824L222.407,291.918L221.502,292.007L220.595,292.091L219.687,292.169L218.777,292.241L217.865,292.307L216.952,292.368L216.037,292.423L215.121,292.472L214.203,292.516L213.284,292.554L212.363,292.586L211.441,292.612L210.517,292.633L209.592,292.647L208.666,292.656L207.738,292.659ZM207.738,292.166L208.663,292.163L209.586,292.154L210.508,292.14L211.429,292.119L212.348,292.093L213.265,292.061L214.181,292.023L215.096,291.98L216.009,291.931L216.921,291.876L217.831,291.815L218.739,291.749L219.646,291.677L220.552,291.6L221.455,291.517L222.357,291.428L223.258,291.333L224.157,291.234L225.054,291.128L225.949,291.017L226.843,290.901L227.735,290.779L228.625,290.651L229.513,290.518L230.4,290.38L231.285,290.236L232.168,290.087L233.049,289.933L233.928,289.773L234.806,289.608L235.681,289.437L236.555,289.261L237.426,289.08L238.296,288.893L239.164,288.702L240.03,288.505L240.893,288.302L241.755,288.095L242.615,287.882L243.472,287.664L244.328,287.441L245.182,287.213L246.033,286.98L246.882,286.742L247.729,286.498L248.574,286.25L249.417,285.996L250.258,285.738L251.096,285.474L251.932,285.205L252.766,284.932L253.598,284.653L254.427,284.37L255.254,284.081L256.079,283.788L256.901,283.49L257.721,283.187L258.539,282.879L259.354,282.566L260.167,282.248L260.978,281.926L261.786,281.598L262.591,281.266L263.395,280.929L264.195,280.588L264.993,280.242L265.789,279.891L266.582,279.535L267.372,279.175L268.16,278.81L268.946,278.44L269.728,278.066L270.508,277.687L271.286,277.304L272.061,276.916L272.833,276.523L273.602,276.126L274.369,275.725L275.132,275.319L275.894,274.908L276.652,274.493L277.408,274.074L278.16,273.65L278.91,273.222L279.657,272.789L280.402,272.352L281.143,271.911L281.881,271.465L282.617,271.015L283.35,270.561L284.079,270.103L284.806,269.64L285.53,269.173L286.25,268.701L286.968,268.226L287.683,267.746L288.394,267.262L289.103,266.774L289.808,266.282L290.511,265.786L291.21,265.285L291.906,264.781L292.599,264.272L293.289,263.76L293.975,263.243L294.659,262.722L295.339,262.198L296.016,261.669L296.689,261.136L297.36,260.6L298.027,260.059L298.69,259.515L299.351,258.967L300.008,258.414L300.661,257.858L301.312,257.298L301.959,256.735L302.602,256.167L303.242,255.596L303.879,255.021L304.512,254.442L305.141,253.859L305.767,253.273L306.39,252.683L307.009,252.089L307.624,251.492L308.236,250.891L308.844,250.286L309.449,249.678L310.05,249.066L310.647,248.451L311.241,247.832L311.831,247.209L312.417,246.583L313,245.954L313.579,245.321L314.154,244.684L314.725,244.044L315.293,243.401L315.856,242.754L316.416,242.103L316.972,241.45L317.525,240.793L318.073,240.132L318.617,239.469L319.158,238.802L319.694,238.131L320.227,237.458L320.756,236.781L321.28,236.101L321.801,235.417L322.318,234.731L322.83,234.041L323.339,233.348L323.843,232.652L324.344,231.953L324.84,231.25L325.332,230.545L325.82,229.836L326.304,229.125L326.784,228.41L327.259,227.692L327.731,226.972L328.198,226.248L328.661,225.521L329.119,224.792L329.573,224.059L330.023,223.323L330.469,222.585L330.91,221.844L331.347,221.099L331.78,220.352L332.208,219.602L332.632,218.85L333.051,218.094L333.466,217.336L333.877,216.574L334.283,215.811L334.684,215.044L335.081,214.275L335.474,213.503L335.862,212.728L336.245,211.95L336.624,211.17L336.998,210.388L337.368,209.602L337.733,208.814L338.093,208.024L338.449,207.231L338.8,206.435L339.146,205.637L339.487,204.837L339.824,204.033L340.156,203.228L340.484,202.42L340.806,201.609L341.124,200.796L341.437,199.981L341.745,199.163L342.048,198.343L342.346,197.521L342.639,196.696L342.928,195.869L343.211,195.04L343.49,194.208L343.763,193.374L344.032,192.538L344.296,191.7L344.554,190.859L344.808,190.016L345.056,189.171L345.3,188.324L345.538,187.475L345.771,186.624L345.999,185.77L346.222,184.914L346.44,184.057L346.653,183.197L346.86,182.335L347.063,181.472L347.26,180.606L347.451,179.738L347.638,178.868L347.819,177.997L347.995,177.123L348.166,176.248L348.331,175.37L348.491,174.491L348.645,173.61L348.794,172.727L348.938,171.842L349.076,170.955L349.209,170.067L349.337,169.177L349.459,168.285L349.575,167.391L349.686,166.496L349.792,165.599L349.891,164.7L349.986,163.799L350.075,162.897L350.158,161.994L350.235,161.088L350.307,160.181L350.373,159.273L350.434,158.363L350.489,157.451L350.538,156.538L350.581,155.623L350.619,154.707L350.651,153.79L350.677,152.871L350.698,151.95L350.712,151.028L350.721,150.105L350.724,149.18L350.721,148.255L350.712,147.332L350.698,146.41L350.677,145.489L350.651,144.57L350.619,143.653L350.581,142.737L350.538,141.822L350.489,140.909L350.434,139.997L350.373,139.087L350.307,138.179L350.235,137.272L350.158,136.366L350.075,135.463L349.986,134.561L349.891,133.66L349.792,132.761L349.686,131.864L349.575,130.969L349.459,130.075L349.337,129.183L349.209,128.293L349.076,127.405L348.938,126.518L348.794,125.633L348.645,124.75L348.491,123.869L348.331,122.99L348.166,122.112L347.995,121.237L347.819,120.363L347.638,119.492L347.451,118.622L347.26,117.754L347.063,116.888L346.86,116.025L346.653,115.163L346.44,114.303L346.222,113.446L345.999,112.59L345.771,111.736L345.538,110.885L345.3,110.036L345.056,109.189L344.808,108.344L344.554,107.501L344.296,106.66L344.032,105.822L343.763,104.986L343.49,104.152L343.211,103.32L342.928,102.491L342.639,101.664L342.346,100.839L342.048,100.017L341.745,99.197L341.437,98.379L341.124,97.564L340.806,96.751L340.484,95.94L340.156,95.132L339.824,94.327L339.487,93.523L339.146,92.723L338.8,91.925L338.449,91.129L338.093,90.336L337.733,89.546L337.368,88.758L336.998,87.972L336.624,87.19L336.245,86.41L335.862,85.632L335.474,84.857L335.081,84.085L334.684,83.316L334.283,82.549L333.877,81.786L333.466,81.024L333.051,80.266L332.632,79.51L332.208,78.758L331.78,78.008L331.347,77.261L330.91,76.516L330.469,75.775L330.023,75.037L329.573,74.301L329.119,73.568L328.661,72.839L328.198,72.112L327.731,71.388L327.259,70.668L326.784,69.95L326.304,69.235L325.82,68.524L325.332,67.815L324.84,67.11L324.344,66.407L323.843,65.708L323.339,65.012L322.83,64.319L322.318,63.629L321.801,62.943L321.28,62.259L320.756,61.579L320.227,60.902L319.694,60.229L319.158,59.558L318.617,58.891L318.073,58.228L317.525,57.567L316.972,56.91L316.416,56.257L315.856,55.606L315.293,54.959L314.725,54.316L314.154,53.676L313.579,53.039L313,52.406L312.417,51.777L311.831,51.151L311.241,50.528L310.647,49.909L310.05,49.294L309.449,48.682L308.844,48.074L308.236,47.469L307.624,46.868L307.009,46.271L306.39,45.677L305.767,45.087L305.141,44.501L304.512,43.918L303.879,43.339L303.242,42.764L302.602,42.193L301.959,41.625L301.312,41.062L300.661,40.502L300.008,39.946L299.351,39.393L298.69,38.845L298.027,38.301L297.36,37.76L296.689,37.224L296.016,36.691L295.339,36.162L294.659,35.638L293.975,35.117L293.289,34.6L292.599,34.088L291.906,33.579L291.21,33.075L290.511,32.574L289.808,32.078L289.103,31.586L288.394,31.098L287.683,30.614L286.968,30.134L286.25,29.659L285.53,29.187L284.806,28.72L284.079,28.257L283.35,27.799L282.617,27.345L281.881,26.895L281.143,26.449L280.402,26.008L279.657,25.571L278.91,25.138L278.16,24.71L277.408,24.286L276.652,23.867L275.894,23.452L275.132,23.041L274.369,22.635L273.602,22.234L272.833,21.837L272.061,21.444L271.286,21.056L270.508,20.673L269.728,20.294L268.946,19.92L268.16,19.55L267.372,19.185L266.582,18.825L265.789,18.469L264.993,18.118L264.195,17.772L263.395,17.431L262.591,17.094L261.786,16.762L260.978,16.434L260.167,16.112L259.354,15.794L258.539,15.481L257.721,15.173L256.901,14.87L256.079,14.572L255.254,14.279L254.427,13.99L253.598,13.707L252.766,13.428L251.932,13.155L251.096,12.886L250.258,12.622L249.417,12.364L248.574,12.11L247.729,11.862L246.882,11.618L246.033,11.38L245.182,11.147L244.328,10.919L243.472,10.696L242.615,10.478L241.755,10.265L240.893,10.058L240.03,9.855L239.164,9.658L238.296,9.467L237.426,9.28L236.555,9.099L235.681,8.923L234.806,8.752L233.928,8.587L233.049,8.427L232.168,8.273L231.285,8.124L230.4,7.98L229.513,7.842L228.625,7.709L227.735,7.581L226.843,7.459L225.949,7.343L225.054,7.232L224.157,7.126L223.258,7.027L222.357,6.932L221.455,6.843L220.552,6.76L219.646,6.683L218.739,6.611L217.831,6.545L216.921,6.484L216.009,6.429L215.096,6.38L214.181,6.337L213.265,6.299L212.348,6.267L211.429,6.241L210.508,6.22L209.586,6.206L208.663,6.197L207.738,6.194L206.813,6.197L205.89,6.206L204.968,6.22L204.047,6.241L203.128,6.267L202.211,6.299L201.295,6.337L200.38,6.38L199.467,6.429L198.555,6.484L197.645,6.545L196.737,6.611L195.83,6.683L194.924,6.76L194.021,6.843L193.119,6.932L192.218,7.027L191.319,7.126L190.422,7.232L189.527,7.343L188.633,7.459L187.741,7.581L186.851,7.709L185.963,7.842L185.076,7.98L184.191,8.124L183.308,8.273L182.427,8.427L181.548,8.587L180.67,8.752L179.795,8.923L178.921,9.099L178.05,9.28L177.18,9.467L176.312,9.658L175.446,9.855L174.583,10.058L173.721,10.265L172.861,10.478L172.004,10.696L171.148,10.919L170.294,11.147L169.443,11.38L168.594,11.618L167.747,11.862L166.902,12.11L166.059,12.364L165.218,12.622L164.38,12.886L163.544,13.155L162.71,13.428L161.878,13.707L161.049,13.99L160.222,14.279L159.397,14.572L158.575,14.87L157.755,15.173L156.937,15.481L156.122,15.794L155.309,16.112L154.498,16.434L153.69,16.762L152.885,17.094L152.081,17.431L151.281,17.772L150.483,18.118L149.687,18.469L148.894,18.825L148.104,19.185L147.316,19.55L146.53,19.92L145.748,20.294L144.968,20.673L144.19,21.056L143.415,21.444L142.643,21.837L141.874,22.234L141.107,22.635L140.344,23.041L139.582,23.452L138.824,23.867L138.068,24.286L137.316,24.71L136.566,25.138L135.819,25.571L135.074,26.008L134.333,26.449L133.595,26.895L132.859,27.345L132.126,27.799L131.397,28.257L130.67,28.72L129.946,29.187L129.226,29.659L128.508,30.134L127.793,30.614L127.082,31.098L126.373,31.586L125.668,32.078L124.965,32.574L124.266,33.075L123.57,33.579L122.877,34.088L122.187,34.6L121.501,35.117L120.817,35.638L120.137,36.162L119.46,36.691L118.787,37.224L118.116,37.76L117.449,38.301L116.786,38.845L116.125,39.393L115.468,39.946L114.815,40.502L114.164,41.062L113.517,41.625L112.874,42.193L112.234,42.764L111.597,43.339L110.964,43.918L110.335,44.501L109.709,45.087L109.086,45.677L108.467,46.271L107.852,46.868L107.24,47.469L106.632,48.074L106.027,48.682L105.426,49.294L104.829,49.909L104.235,50.528L103.645,51.151L103.059,51.777L102.476,52.406L101.897,53.039L101.322,53.676L100.751,54.316L100.183,54.959L99.62,55.606L99.06,56.257L98.504,56.91L97.951,57.567L97.403,58.228L96.859,58.891L96.318,59.558L95.782,60.229L95.249,60.902L94.72,61.579L94.196,62.259L93.675,62.943L93.158,63.629L92.646,64.319L92.137,65.012L91.633,65.708L91.132,66.407L90.636,67.11L90.144,67.815L89.656,68.524L89.172,69.235L88.692,69.95L88.217,70.668L87.745,71.388L87.278,72.112L86.815,72.839L86.357,73.568L85.903,74.301L85.453,75.037L85.007,75.775L84.566,76.516L84.129,77.261L83.696,78.008L83.268,78.758L82.844,79.51L82.425,80.266L82.01,81.024L81.599,81.786L81.193,82.549L80.792,83.316L80.395,84.085L80.002,84.857L79.614,85.632L79.231,86.41L78.852,87.19L78.478,87.972L78.108,88.758L77.743,89.546L77.383,90.336L77.027,91.129L76.676,91.925L76.33,92.723L75.989,93.523L75.652,94.327L75.32,95.132L74.992,95.94L74.67,96.751L74.352,97.564L74.039,98.379L73.731,99.197L73.428,100.017L73.13,100.839L72.837,101.664L72.548,102.491L72.265,103.32L71.986,104.152L71.713,104.986L71.444,105.822L71.18,106.66L70.922,107.501L70.668,108.344L70.42,109.189L70.176,110.036L69.938,110.885L69.705,111.736L69.477,112.59L69.254,113.446L69.036,114.303L68.823,115.163L68.616,116.025L68.413,116.888L68.216,117.754L68.025,118.622L67.838,119.492L67.657,120.363L67.481,121.237L67.31,122.112L67.145,122.99L66.985,123.869L66.831,124.75L66.682,125.633L66.538,126.518L66.4,127.405L66.267,128.293L66.139,129.183L66.017,130.075L65.901,130.969L65.79,131.864L65.684,132.761L65.585,133.66L65.49,134.561L65.401,135.463L65.318,136.366L65.241,137.272L65.169,138.179L65.103,139.087L65.042,139.997L64.987,140.909L64.938,141.822L64.895,142.737L64.857,143.653L64.825,144.57L64.799,145.489L64.778,146.41L64.764,147.332L64.755,148.255L64.752,149.18L64.755,150.105L64.764,151.028L64.778,151.95L64.799,152.871L64.825,153.79L64.857,154.707L64.895,155.623L64.938,156.538L64.987,157.451L65.042,158.363L65.103,159.273L65.169,160.181L65.241,161.088L65.318,161.994L65.401,162.897L65.49,163.799L65.585,164.7L65.684,165.599L65.79,166.496L65.901,167.391L66.017,168.285L66.139,169.177L66.267,170.067L66.4,170.955L66.538,171.842L66.682,172.727L66.831,173.61L66.985,174.491L67.145,175.37L67.31,176.248L67.481,177.123L67.657,177.997L67.838,178.868L68.025,179.738L68.216,180.606L68.413,181.472L68.616,182.335L68.823,183.197L69.036,184.057L69.254,184.914L69.477,185.77L69.705,186.624L69.938,187.475L70.176,188.324L70.42,189.171L70.668,190.016L70.922,190.859L71.18,191.7L71.444,192.538L71.713,193.374L71.986,194.208L72.265,195.04L72.548,195.869L72.837,196.696L73.13,197.521L73.428,198.343L73.731,199.163L74.039,199.981L74.352,200.796L74.67,201.609L74.992,202.42L75.32,203.228L75.652,204.033L75.989,204.837L76.33,205.637L76.676,206.435L77.027,207.231L77.383,208.024L77.743,208.814L78.108,209.602L78.478,210.388L78.852,211.17L79.231,211.95L79.614,212.728L80.002,213.503L80.395,214.275L80.792,215.044L81.193,215.811L81.599,216.574L82.01,217.336L82.425,218.094L82.844,218.85L83.268,219.602L83.696,220.352L84.129,221.099L84.566,221.844L85.007,222.585L85.453,223.323L85.903,224.059L86.357,224.792L86.815,225.521L87.278,226.248L87.745,226.972L88.217,227.692L88.692,228.41L89.172,229.125L89.656,229.836L90.144,230.545L90.636,231.25L91.132,231.953L91.633,232.652L92.137,233.348L92.646,234.041L93.158,234.731L93.675,235.417L94.196,236.101L94.72,236.781L95.249,237.458L95.782,238.131L96.318,238.802L96.859,239.469L97.403,240.132L97.951,240.793L98.504,241.45L99.06,242.103L99.62,242.754L100.183,243.401L100.751,244.044L101.322,244.684L101.897,245.321L102.476,245.954L103.059,246.583L103.645,247.209L104.235,247.832L104.829,248.451L105.426,249.066L106.027,249.678L106.632,250.286L107.24,250.891L107.852,251.492L108.467,252.089L109.086,252.683L109.709,253.273L110.335,253.859L110.964,254.442L111.597,255.021L112.234,255.596L112.874,256.167L113.517,256.735L114.164,257.298L114.815,257.858L115.468,258.414L116.125,258.967L116.786,259.515L117.449,260.059L118.116,260.6L118.787,261.136L119.46,261.669L120.137,262.198L120.817,262.722L121.501,263.243L122.187,263.76L122.877,264.272L123.57,264.781L124.266,265.285L124.965,265.786L125.668,266.282L126.373,266.774L127.082,267.262L127.793,267.746L128.508,268.226L129.226,268.701L129.946,269.173L130.67,269.64L131.397,270.103L132.126,270.561L132.859,271.015L133.595,271.465L134.333,271.911L135.074,272.352L135.819,272.789L136.566,273.222L137.316,273.65L138.068,274.074L138.824,274.493L139.582,274.908L140.344,275.319L141.107,275.725L141.874,276.126L142.643,276.523L143.415,276.916L144.19,277.304L144.968,277.687L145.748,278.066L146.53,278.44L147.316,278.81L148.104,279.175L148.894,279.535L149.687,279.891L150.483,280.242L151.281,280.588L152.081,280.929L152.885,281.266L153.69,281.598L154.498,281.926L155.309,282.248L156.122,282.566L156.937,282.879L157.755,283.187L158.575,283.49L159.397,283.788L160.222,284.081L161.049,284.37L161.878,284.653L162.71,284.932L163.544,285.205L164.38,285.474L165.218,285.738L166.059,285.996L166.902,286.25L167.747,286.498L168.594,286.742L169.443,286.98L170.294,287.213L171.148,287.441L172.004,287.664L172.861,287.882L173.721,288.095L174.583,288.302L175.446,288.505L176.312,288.702L177.18,288.893L178.05,289.08L178.921,289.261L179.795,289.437L180.67,289.608L181.548,289.773L182.427,289.933L183.308,290.087L184.191,290.236L185.076,290.38L185.963,290.518L186.851,290.651L187.741,290.779L188.633,290.901L189.527,291.017L190.422,291.128L191.319,291.234L192.218,291.333L193.119,291.428L194.021,291.517L194.924,291.6L195.83,291.677L196.737,291.749L197.645,291.815L198.555,291.876L199.467,291.931L200.38,291.98L201.295,292.023L202.211,292.061L203.128,292.093L204.047,292.119L204.968,292.14L205.89,292.154L206.813,292.163L207.738,292.166Z" style="fill:black;"/>
    </g>
    <g transform="matrix(0.0142722,-1.42412e-33,1.40058e-33,-0.0142722,15.3938,30.1798)">
        <path d="M822,1290C918,1290 1006,1258 1050,1203C1158,1312 1259,1342 1346,1342C1486,1342 1530,1253 1530,1194C1530,1120 1483,1068 1412,1068C1335,1068 1373,1244 1264,1244C1175,1244 1101,1009 1064,804L1256,804C1278,804 1282,788 1282,771C1282,725 1261,686 1223,686L1034,686C1034,686 947.118,274.809 883,18C796.701,-327.65 532,-424 366,-424C287,-424 203,-396 147,-338C72,-415 -42,-476 -164,-476C-224,-476 -324,-436 -324,-360C-324,-317 -281,-252 -235,-252C-154,-252 -144,-340 -53,-340C-9,-340 21.498,-327.862 58,-196C138,93 259,686 259,686L116,686C93,686 90,700 90,715C90,755 105,804 156,804L289,804C362,1055 524,1290 822,1290ZM744,1190C603,1190 539,956 508,804L842,804C866,896 906,990 949,1067C901,1143 818,1190 744,1190ZM444,-302C522,-302 584,-276 622,-140C712,184 812,686 812,686L482,686C434.075,464.729 381.246,226.205 334.818,47C303.225,-74.948 276.704,-143.428 249,-201C306,-268 380,-302 444,-302Z" style="fill:rgb(35,44,49);fill-rule:nonzero;"/>
    </g>
    <g transform="matrix(0.730257,0.195672,-0.195672,0.730257,10.6234,-6.06039)">
        <path d="M28.079,55.651L28.407,57.106C28.142,57.166 27.877,57.226 27.612,57.285L27.284,55.831L25.829,56.159L25.65,55.364L27.105,55.035L26.776,53.581L27.572,53.401L27.79,54.369L32.059,47.613C31.802,47.327 31.652,46.945 31.669,46.531C31.703,45.687 32.414,45.031 33.257,45.065C33.387,45.07 33.512,45.091 33.63,45.126L37.966,38.264L37.045,38.472L36.866,37.677L38.321,37.349L37.993,35.894L38.788,35.715L39.116,37.169L40.571,36.841L40.75,37.636L39.295,37.965L39.624,39.419C39.358,39.479 39.093,39.539 38.828,39.599L38.633,38.734L34.322,45.558C34.586,45.845 34.74,46.233 34.724,46.653C34.69,47.497 33.979,48.153 33.135,48.119C33,48.114 32.869,48.091 32.745,48.053L28.537,54.712L29.355,54.528L29.534,55.323L28.079,55.651Z" style="fill:rgb(255,89,0);stroke-width:0.13px;stroke:rgb(204,71,0);"/>
    </g>
</svg>
