<?xml version="1.0"?>
<svg width="100%" height="100%" viewBox="0 0 48 48" version="1.1" xmlns="http://www.w3.org/2000/svg">
  <circle cx="24" cy="24" r="21.96" fill="#fff" stroke="#000" stroke-width="0.075"/>
  <path d="M822,1290C918,1290 1006,1258 1050,1203C1158,1312 1259,1342 1346,1342C1486,1342 1530,1253 1530,1194C1530,1120 1483,1068 1412,1068C1335,1068 1373,1244 1264,1244C1175,1244 1101,1009 1064,804L1256,804C1278,804 1282,788 1282,771C1282,725 1261,686 1223,686L1034,686C1034,686 947.118,274.809 883,18C796.701,-327.65 532,-424 366,-424C287,-424 203,-396 147,-338C72,-415 -42,-476 -164,-476C-224,-476 -324,-436 -324,-360C-324,-317 -281,-252 -235,-252C-154,-252 -144,-340 -53,-340C-9,-340 21.498,-327.862 58,-196C138,93 259,686 259,686L116,686C93,686 90,700 90,715C90,755 105,804 156,804L289,804C362,1055 524,1290 822,1290ZM744,1190C603,1190 539,956 508,804L842,804C866,896 906,990 949,1067C901,1143 818,1190 744,1190ZM444,-302C522,-302 584,-276 622,-140C712,184 812,686 812,686L482,686C434.075,464.729 381.246,226.205 334.818,47C303.225,-74.948 276.704,-143.428 249,-201C306,-268 380,-302 444,-302Z" fill="#232C31" transform="matrix(0.0142722,0,0,-0.0142722,15.3938,30.1798)"/>
  <path d="M20.27,39.08 l4.44,-4.1 a1.16,1.16,0,0,1,1.64,-1.51 l4.51,-4.17 h-.73 v-.6 h1.13 v-1.13 h.6 v1.13 h1.13 v.6 h-1.13 v1.13 h-.6 v-.65 l-4.48,4.14 a1.16,1.16,0,0,1,-1.64,1.51 l-4.4,4.07 h.67 v.6 h-1.13 v1.13 h-.6 v-1.13 h-1.13 v-.6 h1.13 v-1.13 h.6 z" fill="#FF5900" stroke-width=".1" stroke="#CC4700"/>
</svg>
