<?xml version="1.0" standalone="no"?>
<!DOCTYPE svg PUBLIC "-//W3C//DTD SVG 1.1//EN" "http://www.w3.org/Graphics/SVG/1.1/DTD/svg11.dtd">
<svg width="100%" height="100%" viewBox="0 0 32 32" version="1.1" xmlns="http://www.w3.org/2000/svg" xmlns:xlink="http://www.w3.org/1999/xlink" xml:space="preserve" style="fill-rule:evenodd;clip-rule:evenodd;stroke-linejoin:round;stroke-miterlimit:1.41421;">
    <g transform="matrix(0.111899,4.32853e-32,4.48381e-32,0.111899,-7.2458,-0.693292)">
        <circle cx="207.738" cy="149.18" r="142.986" style="fill:black;"/>
    </g>
    <g transform="matrix(0.1112,4.30147e-32,4.45578e-32,0.1112,-7.10051,-0.58896)">
        <circle cx="207.738" cy="149.18" r="142.986" style="fill:white;"/>
    </g>
    <g transform="matrix(0.0103798,-9.62965e-34,8.66668e-34,-0.0103798,9.74095,20.3297)">
        <path d="M822,1290C918,1290 1006,1258 1050,1203C1158,1312 1259,1342 1346,1342C1486,1342 1530,1253 1530,1194C1530,1120 1483,1068 1412,1068C1335,1068 1373,1244 1264,1244C1175,1244 1101,1009 1064,804L1256,804C1278,804 1282,788 1282,771C1282,725 1261,686 1223,686L1034,686C1034,686 947.118,274.809 883,18C796.701,-327.65 532,-424 366,-424C287,-424 203,-396 147,-338C72,-415 -42,-476 -164,-476C-224,-476 -324,-436 -324,-360C-324,-317 -281,-252 -235,-252C-154,-252 -144,-340 -53,-340C-9,-340 21.498,-327.862 58,-196C138,93 259,686 259,686L116,686C93,686 90,700 90,715C90,755 105,804 156,804L289,804C362,1055 524,1290 822,1290ZM744,1190C603,1190 539,956 508,804L842,804C866,896 906,990 949,1067C901,1143 818,1190 744,1190ZM444,-302C522,-302 584,-276 622,-140C712,184 812,686 812,686L482,686C434.075,464.729 381.246,226.205 334.818,47C303.225,-74.948 276.704,-143.428 249,-201C306,-268 380,-302 444,-302Z" style="fill:rgb(35,44,49);fill-rule:nonzero;"/>
    </g>
    <g transform="matrix(0.531096,0.142307,-0.142307,0.531096,6.27151,-5.86215)">
        <path d="M28.079,55.651L28.407,57.106C28.142,57.166 27.877,57.226 27.612,57.285L27.284,55.831L25.829,56.159L25.65,55.364L27.105,55.035L26.776,53.581L27.572,53.401L27.79,54.369L32.059,47.613C31.802,47.327 31.652,46.945 31.669,46.531C31.703,45.687 32.414,45.031 33.257,45.065C33.387,45.07 33.512,45.091 33.63,45.126L37.966,38.264L37.045,38.472L36.866,37.677L38.321,37.349L37.993,35.894L38.788,35.715L39.116,37.169L40.571,36.841L40.75,37.636L39.295,37.965L39.624,39.419C39.358,39.479 39.093,39.539 38.828,39.599L38.633,38.734L34.322,45.558C34.586,45.845 34.74,46.233 34.724,46.653C34.69,47.497 33.979,48.153 33.135,48.119C33,48.114 32.869,48.091 32.745,48.053L28.537,54.712L29.355,54.528L29.534,55.323L28.079,55.651Z" style="fill:rgb(255,89,0);stroke-width:0.13px;stroke:rgb(204,71,0);"/>
    </g>
</svg>
