<?xml version="1.0" encoding="UTF-8" standalone="no"?>
<!-- Created with Inkscape (http://www.inkscape.org/) -->

<svg
   xmlns:dc="http://purl.org/dc/elements/1.1/"
   xmlns:cc="http://creativecommons.org/ns#"
   xmlns:rdf="http://www.w3.org/1999/02/22-rdf-syntax-ns#"
   xmlns:svg="http://www.w3.org/2000/svg"
   xmlns="http://www.w3.org/2000/svg"
   xmlns:sodipodi="http://sodipodi.sourceforge.net/DTD/sodipodi-0.dtd"
   xmlns:inkscape="http://www.inkscape.org/namespaces/inkscape"
   width="1024"
   height="1024"
   id="svg2"
   version="1.1"
   inkscape:version="0.48.4 r9939"
   sodipodi:docname="brightness_half.svg">
  <title
     id="title3062">j</title>
  <defs
     id="defs4" />
  <sodipodi:namedview
     id="base"
     pagecolor="#959595"
     bordercolor="#000000"
     borderopacity="0.70196078"
     inkscape:pageopacity="0"
     inkscape:pageshadow="2"
     inkscape:zoom="0.7"
     inkscape:cx="215.7215"
     inkscape:cy="441.21831"
     inkscape:document-units="px"
     inkscape:current-layer="layer1"
     showgrid="true"
     inkscape:showpageshadow="false"
     showborder="true"
     inkscape:window-width="1892"
     inkscape:window-height="1028"
     inkscape:window-x="9"
     inkscape:window-y="42"
     inkscape:window-maximized="0"
     inkscape:object-nodes="true">
    <inkscape:grid
       type="xygrid"
       id="grid2985"
       empspacing="4"
       visible="true"
       enabled="true"
       snapvisiblegridlinesonly="true"
       originx="0px"
       spacingx="64px"
       spacingy="64px" />
  </sodipodi:namedview>
  <metadata
     id="metadata7">
    <rdf:RDF>
      <cc:Work
         rdf:about="">
        <dc:format>image/svg+xml</dc:format>
        <dc:type
           rdf:resource="http://purl.org/dc/dcmitype/StillImage" />
        <dc:title>j</dc:title>
        <cc:license
           rdf:resource="" />
      </cc:Work>
    </rdf:RDF>
  </metadata>
  <g
     inkscape:label="Layer 1"
     inkscape:groupmode="layer"
     id="layer1"
     transform="translate(0,-28.362183)">
    <path
       id="path3547-4"
       style="fill:#000000;fill-opacity:1;fill-rule:nonzero;stroke:none"
       d="m 608,540.36218 c 0,-53.01934 -42.98066,-96 -96,-96 -53.01934,0 -96,42.98066 -96,96 0,53.01934 42.98066,96 96,96 53.01934,0 96,-42.98066 96,-96 z m 96,0 c 0,106.03867 -85.96133,192 -192,192 -106.03868,0 -192,-85.96133 -192,-192 0,-106.03868 85.96132,-192 192,-192 106.03867,0 192,85.96132 192,192 z" />
    <path
       inkscape:connector-curvature="0"
       style="fill:#000000;fill-opacity:1;fill-rule:nonzero;stroke:none"
       d="m 576,220.36218 c 0,35.34622 -28.65378,64 -64,64 -35.34622,0 -64,-28.65378 -64,-64 0,-35.34622 28.65378,-64 64,-64 35.34622,0 64,28.65378 64,64 z"
       id="path3698" />
    <path
       inkscape:connector-curvature="0"
       style="fill:#000000;fill-opacity:1;fill-rule:nonzero;stroke:none"
       d="m 576,860.36218 c 0,35.34622 -28.65378,64 -64,64 -35.34622,0 -64,-28.65378 -64,-64 0,-35.34622 28.65378,-64 64,-64 35.34622,0 64,28.65378 64,64 z"
       id="path3698-4" />
    <path
       inkscape:connector-curvature="0"
       style="fill:#000000;fill-opacity:1;fill-rule:nonzero;stroke:none"
       d="m 256,540.36218 c 0,35.34622 -28.65378,64 -64,64 -35.34622,0 -64,-28.65378 -64,-64 0,-35.34622 28.65378,-64 64,-64 35.34622,0 64,28.65378 64,64 z"
       id="path3698-4-3" />
    <path
       inkscape:connector-curvature="0"
       style="fill:#000000;fill-opacity:1;fill-rule:nonzero;stroke:none"
       d="m 896,540.36218 c 0,35.34622 -28.65378,64 -64,64 -35.34622,0 -64,-28.65378 -64,-64 0,-35.34622 28.65378,-64 64,-64 35.34622,0 64,28.65378 64,64 z"
       id="path3698-4-3-5" />
    <path
       style="fill:#000000;fill-opacity:1;fill-rule:nonzero;stroke:none"
       d="m 330.98067,268.83318 c 24.99355,24.99355 24.99355,65.51611 0,90.50966 -24.99355,24.99356 -65.51612,24.99356 -90.50967,0 -24.99355,-24.99355 -24.99355,-65.51611 0,-90.50966 24.99355,-24.99356 65.51612,-24.99356 90.50967,0 z"
       id="path3698-0"
       inkscape:connector-curvature="0" />
    <path
       inkscape:connector-curvature="0"
       style="fill:#000000;fill-opacity:1;fill-rule:nonzero;stroke:none"
       d="m 783.52901,721.38152 c 24.99355,24.99355 24.99355,65.51611 0,90.50966 -24.99356,24.99356 -65.51612,24.99356 -90.50967,0 -24.99355,-24.99355 -24.99355,-65.51611 0,-90.50966 24.99355,-24.99356 65.51611,-24.99356 90.50967,0 z"
       id="path3698-4-5" />
    <path
       inkscape:connector-curvature="0"
       style="fill:#000000;fill-opacity:1;fill-rule:nonzero;stroke:none"
       d="m 330.98067,721.38152 c 24.99355,24.99355 24.99355,65.51611 0,90.50966 -24.99355,24.99356 -65.51612,24.99356 -90.50967,0 -24.99355,-24.99355 -24.99355,-65.51611 0,-90.50966 24.99355,-24.99356 65.51612,-24.99356 90.50967,0 z"
       id="path3698-4-3-51" />
    <path
       inkscape:connector-curvature="0"
       style="fill:#000000;fill-opacity:1;fill-rule:nonzero;stroke:none"
       d="m 783.52901,268.83318 c 24.99355,24.99355 24.99355,65.51611 0,90.50966 -24.99356,24.99356 -65.51612,24.99356 -90.50967,0 -24.99355,-24.99355 -24.99355,-65.51611 0,-90.50966 24.99355,-24.99356 65.51611,-24.99356 90.50967,0 z"
       id="path3698-4-3-5-2" />
  </g>
</svg>
