<?xml version="1.0" encoding="UTF-8" standalone="no"?>
<!-- Created with Inkscape (http://www.inkscape.org/) -->

<svg
   xmlns:dc="http://purl.org/dc/elements/1.1/"
   xmlns:cc="http://creativecommons.org/ns#"
   xmlns:rdf="http://www.w3.org/1999/02/22-rdf-syntax-ns#"
   xmlns:svg="http://www.w3.org/2000/svg"
   xmlns="http://www.w3.org/2000/svg"
   xmlns:sodipodi="http://sodipodi.sourceforge.net/DTD/sodipodi-0.dtd"
   xmlns:inkscape="http://www.inkscape.org/namespaces/inkscape"
   width="1024"
   height="1024"
   id="svg2"
   version="1.1"
   inkscape:version="0.48.4 r9939"
   sodipodi:docname="New document 1">
  <title
     id="title3052">at</title>
  <defs
     id="defs4" />
  <sodipodi:namedview
     id="base"
     pagecolor="#959595"
     bordercolor="#000000"
     borderopacity="0.70196078"
     inkscape:pageopacity="0"
     inkscape:pageshadow="2"
     inkscape:zoom="0.7"
     inkscape:cx="463.57143"
     inkscape:cy="520"
     inkscape:document-units="px"
     inkscape:current-layer="layer1"
     showgrid="true"
     inkscape:showpageshadow="false"
     showborder="true"
     inkscape:window-width="1694"
     inkscape:window-height="962"
     inkscape:window-x="49"
     inkscape:window-y="39"
     inkscape:window-maximized="0"
     inkscape:snap-bbox="true">
    <inkscape:grid
       type="xygrid"
       id="grid2985"
       empspacing="8"
       visible="true"
       enabled="true"
       snapvisiblegridlinesonly="true"
       originx="0px"
       spacingx="32px"
       spacingy="32px" />
  </sodipodi:namedview>
  <metadata
     id="metadata7">
    <rdf:RDF>
      <cc:Work
         rdf:about="">
        <dc:format>image/svg+xml</dc:format>
        <dc:type
           rdf:resource="http://purl.org/dc/dcmitype/StillImage" />
        <dc:title>at</dc:title>
      </cc:Work>
    </rdf:RDF>
  </metadata>
  <g
     inkscape:label="Layer 1"
     inkscape:groupmode="layer"
     id="layer1"
     transform="translate(0,-28.362183)">
    <path
       style="fill:#000000;fill-opacity:1;fill-rule:nonzero;stroke:none"
       d="M 512 0 C 229.23021 1.5158245e-13 0 229.23021 0 512 C 0 794.76979 229.23021 1024 512 1024 C 794.76979 1024 1024 794.76979 1024 512 C 1024 229.23021 794.76979 -7.5791225e-14 512 0 z M 512 96 C 741.75046 96 928 282.24954 928 512 C 928 741.75046 741.75046 928 512 928 C 282.24954 928 96 741.75046 96 512 C 96 282.24954 282.24954 96 512 96 z M 512 208 C 485.408 208 464 229.408 464 256 L 464 512 C 464 538.592 485.408 560 512 560 L 768 560 C 794.592 560 816 538.592 816 512 C 816 485.408 794.592 464 768 464 L 560 464 L 560 256 C 560 229.408 538.592 208 512 208 z "
       transform="translate(0,28.362183)"
       id="path2983" />
  </g>
</svg>
