<?xml version="1.0" encoding="UTF-8" standalone="no"?>
<!-- Created with Inkscape (http://www.inkscape.org/) -->

<svg
   xmlns:dc="http://purl.org/dc/elements/1.1/"
   xmlns:cc="http://creativecommons.org/ns#"
   xmlns:rdf="http://www.w3.org/1999/02/22-rdf-syntax-ns#"
   xmlns:svg="http://www.w3.org/2000/svg"
   xmlns="http://www.w3.org/2000/svg"
   xmlns:sodipodi="http://sodipodi.sourceforge.net/DTD/sodipodi-0.dtd"
   xmlns:inkscape="http://www.inkscape.org/namespaces/inkscape"
   width="1024"
   height="1024"
   id="svg2"
   version="1.1"
   inkscape:version="0.48.4 r9939"
   sodipodi:docname="volume_full2.svg">
  <title
     id="title3148">C</title>
  <defs
     id="defs4" />
  <sodipodi:namedview
     id="base"
     pagecolor="#959595"
     bordercolor="#000000"
     borderopacity="0.70196078"
     inkscape:pageopacity="0"
     inkscape:pageshadow="2"
     inkscape:zoom="0.7"
     inkscape:cx="215"
     inkscape:cy="520"
     inkscape:document-units="px"
     inkscape:current-layer="layer1"
     showgrid="true"
     inkscape:showpageshadow="false"
     showborder="true"
     inkscape:window-width="1694"
     inkscape:window-height="962"
     inkscape:window-x="49"
     inkscape:window-y="39"
     inkscape:window-maximized="0"
     inkscape:snap-bbox="true">
    <inkscape:grid
       type="xygrid"
       id="grid2985"
       empspacing="4"
       visible="true"
       enabled="true"
       snapvisiblegridlinesonly="true"
       originx="0px"
       spacingx="64px"
       spacingy="64px" />
  </sodipodi:namedview>
  <metadata
     id="metadata7">
    <rdf:RDF>
      <cc:Work
         rdf:about="">
        <dc:format>image/svg+xml</dc:format>
        <dc:type
           rdf:resource="http://purl.org/dc/dcmitype/StillImage" />
        <dc:title>C</dc:title>
        <cc:license
           rdf:resource="" />
      </cc:Work>
    </rdf:RDF>
  </metadata>
  <g
     inkscape:label="Layer 1"
     inkscape:groupmode="layer"
     id="layer1"
     transform="translate(0,-28.362183)">
    <path
       style="color:#000000;fill:#000000;fill-opacity:1;fill-rule:nonzero;stroke:none;stroke-width:1px;marker:none;visibility:visible;display:inline;overflow:visible;enable-background:accumulate"
       d="m 0,384 0,256 192,0 256,256 0,-768 -256,256 z"
       id="path2983"
       inkscape:connector-curvature="0"
       transform="translate(0,28.362183)" />
    <path
       style="fill:#000000;fill-opacity:1;fill-rule:nonzero;stroke:none"
       d="M 822.03125 73.96875 L 753.90625 142.09375 C 860.24238 230.13678 928 363.16078 928 512 C 928 660.83922 860.24238 793.86322 753.90625 881.90625 L 822.03125 950.03125 C 945.63502 844.38529 1024 687.34757 1024 512 C 1024 336.65243 945.63502 179.61471 822.03125 73.96875 z M 685.625 210.375 L 617.125 278.875 C 689.15833 331.22493 736 416.14078 736 512 C 736 607.85922 689.15833 692.77507 617.125 745.125 L 685.625 813.625 C 774.759 743.30497 832 634.34508 832 512 C 832 389.65492 774.759 280.69503 685.625 210.375 z M 547.96875 348.03125 L 475.875 420.125 C 515.30287 432.06715 544 468.67312 544 512 C 544 555.32688 515.30287 591.93285 475.875 603.875 L 547.96875 675.96875 C 603.16406 642.24386 640 581.41782 640 512 C 640 442.58218 603.16406 381.75614 547.96875 348.03125 z "
       transform="translate(0,28.362183)"
       id="path3028" />
  </g>
</svg>
