<?xml version="1.0" encoding="UTF-8" standalone="no"?>
<!-- Created with Inkscape (http://www.inkscape.org/) -->

<svg
   xmlns:dc="http://purl.org/dc/elements/1.1/"
   xmlns:cc="http://creativecommons.org/ns#"
   xmlns:rdf="http://www.w3.org/1999/02/22-rdf-syntax-ns#"
   xmlns:svg="http://www.w3.org/2000/svg"
   xmlns="http://www.w3.org/2000/svg"
   xmlns:sodipodi="http://sodipodi.sourceforge.net/DTD/sodipodi-0.dtd"
   xmlns:inkscape="http://www.inkscape.org/namespaces/inkscape"
   width="1024"
   height="1024"
   id="svg2"
   version="1.1"
   inkscape:version="0.48.4 r9939"
   sodipodi:docname="net_down2.svg">
  <title
     id="title3133">d</title>
  <defs
     id="defs4" />
  <sodipodi:namedview
     id="base"
     pagecolor="#959595"
     bordercolor="#000000"
     borderopacity="0.70196078"
     inkscape:pageopacity="0"
     inkscape:pageshadow="2"
     inkscape:zoom="0.49497475"
     inkscape:cx="407.89471"
     inkscape:cy="731.08617"
     inkscape:document-units="px"
     inkscape:current-layer="layer1"
     showgrid="true"
     inkscape:showpageshadow="false"
     showborder="true"
     inkscape:window-width="1487"
     inkscape:window-height="1033"
     inkscape:window-x="169"
     inkscape:window-y="32"
     inkscape:window-maximized="0"
     inkscape:object-nodes="true"
     inkscape:object-paths="false"
     inkscape:snap-smooth-nodes="false"
     inkscape:snap-intersection-paths="false">
    <inkscape:grid
       type="xygrid"
       id="grid2985"
       empspacing="4"
       visible="true"
       enabled="true"
       snapvisiblegridlinesonly="true"
       originx="0px"
       spacingx="64px"
       spacingy="64px" />
  </sodipodi:namedview>
  <metadata
     id="metadata7">
    <rdf:RDF>
      <cc:Work
         rdf:about="">
        <dc:format>image/svg+xml</dc:format>
        <dc:type
           rdf:resource="http://purl.org/dc/dcmitype/StillImage" />
        <dc:title>d</dc:title>
        <cc:license
           rdf:resource="" />
      </cc:Work>
    </rdf:RDF>
  </metadata>
  <g
     inkscape:label="Layer 1"
     inkscape:groupmode="layer"
     id="layer1"
     transform="translate(0,-28.362183)">
    <path
       id="path3030-1"
       transform="translate(0,28.362183)"
       style="fill:#000000;fill-opacity:1;fill-rule:nonzero;stroke:none"
       d="M 906.25,174.65625 864,247.875 800,358.75 736,469.625 672,580.5 608,691.375 544,802.25 512,857.6875 480,802.25 416,691.375 352,580.5 288,469.625 224,358.75 160,247.875 117.75,174.65625 C 239.09703,123.98789 372.2771,96 512,96 c 139.7229,0 272.90297,27.98789 394.25,78.65625 z M 512,0 C 325.47787,0 150.62066,49.866741 0,137 L 64,247.875 128,358.75 192,469.625 256,580.5 320,691.375 384,802.25 512,1024 640,802.25 704,691.375 768,580.5 832,469.625 896,358.75 960,247.875 1024,137 C 873.37934,49.866741 698.52214,0 512,0 z" />
  </g>
</svg>
