<?xml version="1.0" encoding="UTF-8" standalone="no"?>
<!-- Created with Inkscape (http://www.inkscape.org/) -->

<svg xmlns:svg="http://www.w3.org/2000/svg" xmlns="http://www.w3.org/2000/svg" xmlns:xlink="http://www.w3.org/1999/xlink" version="1.1" width="48" height="48">
	<title>FontForge</title>
	<defs>
		<linearGradient id="gradient1">
			<stop style="stop-color:#000000;stop-opacity:0.43529412" offset="0" />
			<stop style="stop-color:#000000;stop-opacity:0" offset="1" />
		</linearGradient>
		<linearGradient id="gradient2">
			<stop style="stop-color:#414549" offset="0" />
			<stop style="stop-color:#35322d" offset="1" />
		</linearGradient>
		<linearGradient x1="15" y1="37" x2="15" y2="40" id="gradient3" gradientUnits="userSpaceOnUse">
			<stop style="stop-color:#20190e;stop-opacity:0.87450981" offset="0" />
			<stop style="stop-color:#c7d2df;stop-opacity:0.49803922" offset="1" />
		</linearGradient>
		<linearGradient x1="16" y1="5" x2="16" y2="44" id="gradient4" gradientUnits="userSpaceOnUse">
			<stop style="stop-color:#9da5ad" offset="0" />
			<stop style="stop-color:#877d6f" offset="0.64" />
			<stop style="stop-color:#6f6557" offset="0.67" />
			<stop style="stop-color:#61594d" offset="1" />
		</linearGradient>
		<linearGradient x1="8" y1="2" x2="25" y2="28" id="gradient5" gradientUnits="userSpaceOnUse">
			<stop style="stop-color:#ccd3da" offset="0" />
			<stop style="stop-color:#c2bbb0" offset="1" />
		</linearGradient>
		<linearGradient x1="9" y1="2" x2="24" y2="28" id="gradient6" gradientUnits="userSpaceOnUse">
			<stop style="stop-color:#ffffff;stop-opacity:0.7019608" offset="0" />
			<stop style="stop-color:#ffffff;stop-opacity:0.49803922" offset="1" />
		</linearGradient>
		<linearGradient x1="16" y1="5" x2="16" y2="44" id="gradient7" gradientUnits="userSpaceOnUse">
			<stop style="stop-color:#ffffff;stop-opacity:0.30980393" offset="0" />
			<stop style="stop-color:#ffffff;stop-opacity:0.18431373" offset="0.82" />
			<stop style="stop-color:#ffffff;stop-opacity:0.05882353" offset="0.92" />
			<stop style="stop-color:#ffffff;stop-opacity:0.18431373" offset="1" />
		</linearGradient>
		<linearGradient x1="8" y1="1" x2="24" y2="31" id="gradient8" xlink:href="#gradient2" gradientUnits="userSpaceOnUse" />
		<linearGradient x1="14" y1="4" x2="14" y2="45" id="gradient9" xlink:href="#gradient2" gradientUnits="userSpaceOnUse" />
		<linearGradient x1="24" y1="43" x2="24" y2="48" id="gradient10" xlink:href="#gradient1" gradientUnits="userSpaceOnUse" />
		<radialGradient cx="9" cy="43" r="5" fx="9" fy="43" id="gradient11" xlink:href="#gradient1" gradientUnits="userSpaceOnUse" />
		<radialGradient cx="38" cy="43" r="5" fx="38" fy="43" id="gradient12" xlink:href="#gradient1" gradientUnits="userSpaceOnUse" />
	</defs>
	<path d="M 4,38 L 4,48 L 9,48 L 9,38 z" style="fill:url(#gradient11)" />
	<path d="M 9,43 L 9,48 L 38,48 L 38,43 z" style="fill:url(#gradient10)" />
	<path d="M 38,38 L 38,48 L 43,48 L 43,38 z" style="fill:url(#gradient12)" />
	<g id="base">
		<path d="M 23.5,4.5 L 23.5,37.223034 C 23,37.473034 23,39.098875 23.5,39.848875 L 23.5,43 C 23.5,44 23,44.5 22,44.5 L 9,44.5 C 8,44.5 7.5,44 7.5,43 L 7.5,39.75 C 8.9423449,39.132197 8.8284522,37.39695 7.5,37.402542 L 7.5,30 L 10.75,6 C 10.919693,4.7468799 11.5,4.5 12.5,4.5 z" style="fill:url(#gradient4);stroke:url(#gradient9);stroke-width:1;stroke-linejoin:round" />
		<path d="M 8,37 C 9.25,37.25 9.5,39.25 8,40 L 23,40 C 22.5,39 22.491011,37.661796 23,37 z" style="fill:url(#gradient3)" />
		<path d="M 8.5,37 L 8.5,30 L 11.75,6 C 11.817877,5.498752 12,5.5 12.5,5.5 L 22.5,5.5 L 22.5,37 M 22.5,40 L 22.5,43 C 22.5,43.5 22.5,43.5 22,43.5 L 9,43.5 C 8.5,43.5 8.5,43.5 8.5,43 L 8.5,40" style="fill:none;stroke:url(#gradient7);stroke-width:1" />
		<path d="M 8.2041737,28.5 L 8,30 C 7.9812687,30.137613 8,31 9,31 L 23,31 L 23,30 L 9.75,30 C 8.75,30 8.2041737,30 8.2041737,28.5 z" style="fill:#ffffff;fill-opacity:0.37254902" />
		<path d="M 8,40 L 23,40 C 23,40.5 22.75,41 22,41 L 9,41 C 8.25,41 8,40.5 8,40 z" style="fill:#ffffff;fill-opacity:0.43529412" />
	</g>
	<use xlink:href="#base" transform="matrix(-1,0,0,1,47,0)" x="0" y="0" width="48" height="48" />
	<path id="ink" d="M 8,30 C 7.875,30 7.875,30.5 7.875,31 L 7.875,35.5 C 7.875,36 7.875,36.5 8,36.5 C 8.8730023,36.712517 8.0245199,35.084286 8.8210136,34.954575 C 9.1878495,34.894835 8.5863387,34.070374 8.78125,33.9375 C 8.9374845,33.830993 9.2378951,34.440745 9.28125,33.90625 C 9.330335,33.301111 9.6596505,32.706452 9.9453125,33.15625 C 10.266843,33.662525 10.19629,33.14236 10.515625,33.1875 C 10.72905,33.217669 10.268947,33.820493 10.804687,33.65625 C 11.504143,33.441817 10.437491,32.518798 10.585938,32.078125 C 10.881608,31.200414 11.81431,32.825454 11.982258,32.170947 C 12.043924,31.930629 12.338022,31.864598 12.534034,32.329417 C 12.659449,32.626822 12.08459,33.127279 12.6875,32.9375 C 13.068205,32.817665 12.83336,33.634179 13.125,33.46875 C 13.574715,33.213656 12.562901,32.52067 12.941291,32.457701 C 13.694431,32.33237 13.504458,33.363951 14.040403,33.363951 C 14.351242,33.363951 14.099255,32.73516 14.489276,32.73516 C 15.166175,32.73516 14.599268,33.5 15,33.5 C 15.322055,33.5 15.764909,32.281087 15.904354,32.709922 C 16.141525,33.439295 16.481433,33.649853 16.445083,32.906575 C 16.42394,32.474258 17.098285,32.659122 16.9375,32.5 C 16.673603,32.238833 16.922761,31.829797 17.367187,32.320312 C 17.766328,32.760846 18.228584,30.868403 18.43796,32.728134 C 18.588447,34.064805 18.937608,32.03718 19.651119,33.447113 C 20.291168,34.711882 20.526844,31.076083 20.912952,32.230679 C 21.25599,33.256479 22.488311,30.977103 22.101562,32.257812 C 21.898542,32.930107 22.718339,32.671817 22.507812,33.117187 C 22.160021,33.85294 22.895248,33.786282 23,35 C 23.125,35 23.125,34.5 23.125,34 L 23.125,31 C 23.125,30.5 23.125,30 23,30 C 23,30.5 22.734375,30.984375 22,31 L 9,31 C 8.234375,30.984375 8,30.5 8,30 z M 9.4428616,32.129576 C 9.8948348,32.029632 9.6272032,32.444425 9.6452014,32.512944 C 9.7991778,33.099131 8.8785438,32.254363 9.4428616,32.129576 z" style="fill:#2f2e30" />
	<use xlink:href="#ink" transform="translate(16,0)" x="0" y="0" width="48" height="48" />
	<path d="M 9,15 C 9,16.5 9.43934,16.646447 10.5,17 C 15,18.5 13.5,31.5 25,31.5 C 31,31.5 33,30.5 31,28 L 24,28 C 19.309359,13.328854 21.5,17.5 21.5,15 z" style="fill:#161108;fill-opacity:0.2" />
	<path d="M 17,5 C 17.5,9.5 21.5,6 23.5,13 C 24.186803,15.40381 23.487539,16.552786 25.5,17 C 30,18 29,33 40,31 C 34,13 36.5,17.5 36.5,15 z" style="fill:#161108;fill-opacity:0.2" />
	<g id="f">
		<path d="M 7,1 C 3.75,1 2,2.25 2,4 L 2,5 C 2,6 2.75,7 4,7 C 6.75,7 8.5,10 8.5,12 L 8.5,14.75 C 8.5,16.5 11.090311,13.548431 13,18.75 C 15.383516,25.242169 20,31 25,31 C 29,31 31,30 31,28 L 31,26 C 31,24.75 30,24 28.5,24 C 26.5,24 26.25,26 25,26 C 23.75,26 21.37435,19.234835 20.75,17.25 C 19.942051,14.681495 21.5,16 21.5,15 L 21.5,10.75 C 21.5,10.25 21.5,10.25 17.5,10 C 14.75,4 11.25,1 7,1 z" style="fill:url(#gradient8)" />
		<path d="M 7,2 C 4,2 3,3 3,4 C 3,4.5 3.5,5 4.5,5 C 6.5,5 5.5,3 8,3 C 9.5,3 10.5,5.25 12.78125,10.84375 L 9,11 L 9,12 L 13.338339,12.190053 L 15.5,17.5 C 17.75,23 20.75,28 26,28 C 29,28 30,27 30,26 C 30,25.5 29.5,25 28.5,25 C 26.5,25 27.5,27 25,27 C 23.5,27 22.454854,24.519006 21,21 L 17.34375,12.15625 L 21,12 L 21,11 L 16.78125,10.8125 C 15.120675,7.1376742 12.25,2 7,2 z M 8,6 C 6.875,6 6.4375,6.25 6,6.5 C 7.5059731,7.2359764 8.6301717,8.6917492 9.15625,10.1875 C 9.4524943,10.132785 10.046891,10.132909 10.70339,10.050847 C 10.20339,8.0508475 9.25,6 8,6 z M 9.6016953,13.847458 L 9.6016953,14.398305 C 11.101695,14.398305 12.008475,14.79661 12.762712,16.110169 L 12.008475,14.08244 z M 19,14 L 19.838474,16.257712 C 19.338474,14.437485 20.107864,14.643818 20.5,14.5 L 20.5,13.784273 z" style="fill:url(#gradient5)" />
		<path d="M 6.9914976,2.3794417 C 4.0383726,2.3794417 3.3740801,3.37454 3.3740801,3.8884041 C 3.3740801,4.3884041 3.7424175,4.6259199 4.5705425,4.6259199 C 6.1174175,4.6259199 5.3750569,2.65625 7.984375,2.65625 C 9.984436,2.65625 11.099774,5.8330267 13.334149,11.192402 L 9.3774508,11.360371 L 9.379566,11.641689 L 13.593241,11.820542 L 15.953125,17.625 C 18.203125,23.125 21.25,27.640625 25.9375,27.640625 C 28.9375,27.640625 29.625,26.71875 29.625,26 C 29.625,25.5 28.921875,25.375 28.484375,25.375 C 26.8125,25.375 27.703125,27.359375 25,27.359375 C 23.15625,27.359375 22.147923,24.704198 20.6875,21.1875 L 16.78125,11.78125 L 20.623374,11.640663 L 20.621093,11.359375 L 16.534391,11.18658 C 13.830081,4.8519825 10.556757,2.3794417 6.9914976,2.3794417 z" style="fill:none;stroke:url(#gradient6);stroke-width:0.75" />
	</g>
	<use xlink:href="#f" transform="translate(15,0)" x="0" y="0" width="48" height="48" />
</svg>
