/* XPM */
static char * fontforge_xpm[] = {
"32 32 325 2",
"  	c None",
". 	c #404549",
"+ 	c #414549",
"@ 	c #42464A",
"# 	c #414448",
"$ 	c #404548",
"% 	c #A5A8AC",
"& 	c #D1D5D9",
"* 	c #E5E8EB",
"= 	c #E6E8EA",
"- 	c #C6C9CD",
"; 	c #6B6E71",
"> 	c #3F4345",
", 	c #414548",
"' 	c #D4D8DB",
") 	c #B8BCBF",
"! 	c #707377",
"~ 	c #54585A",
"{ 	c #C7CACC",
"] 	c #D9DCDF",
"^ 	c #96999A",
"/ 	c #404246",
"( 	c #44494D",
"_ 	c #404448",
": 	c #404347",
"< 	c #404346",
"[ 	c #3F4245",
"} 	c #4D5052",
"| 	c #D6DADC",
"1 	c #D6D9DC",
"2 	c #777A7C",
"3 	c #828589",
"4 	c #74787B",
"5 	c #43464A",
"6 	c #B9BEC3",
"7 	c #959A9F",
"8 	c #474A4F",
"9 	c #3F4244",
"0 	c #9DA2A5",
"a 	c #6A6D6F",
"b 	c #B6B8BA",
"c 	c #CBCED1",
"d 	c #D2D5D6",
"e 	c #4E5051",
"f 	c #949AA0",
"g 	c #7E8285",
"h 	c #6D7174",
"i 	c #484B4D",
"j 	c #989EA4",
"k 	c #9EA4AA",
"l 	c #B1B6BA",
"m 	c #43474B",
"n 	c #575A5C",
"o 	c #ACAFB1",
"p 	c #6B6E70",
"q 	c #D6D8DA",
"r 	c #CED1D2",
"s 	c #9A9B9C",
"t 	c #909499",
"u 	c #818486",
"v 	c #808283",
"w 	c #999EA3",
"x 	c #B5B9BC",
"y 	c #46494C",
"z 	c #3E3F42",
"A 	c #404243",
"B 	c #3D3F41",
"C 	c #C9CBCB",
"D 	c #CECFCF",
"E 	c #3E4040",
"F 	c #434445",
"G 	c #4A4C4C",
"H 	c #888A8A",
"I 	c #4F5051",
"J 	c #525556",
"K 	c #3D3F42",
"L 	c #E1E3E3",
"M 	c #E9EAEA",
"N 	c #D0D1D1",
"O 	c #E8E8E8",
"P 	c #E8E8E7",
"Q 	c #E6E6E5",
"R 	c #737474",
"S 	c #3A3B3D",
"T 	c #525455",
"U 	c #3D4041",
"V 	c #444546",
"W 	c #484A4A",
"X 	c #525354",
"Y 	c #D4D4D4",
"Z 	c #C7C8C7",
"` 	c #BEBFBE",
" .	c #424343",
"..	c #3F403F",
"+.	c #686968",
"@.	c #3B3D3D",
"#.	c #545454",
"$.	c #3F4042",
"%.	c #3C3D3E",
"&.	c #3C3D3D",
"*.	c #AEAEAE",
"=.	c #C8C8C6",
"-.	c #D4D4D2",
";.	c #545453",
">.	c #3B3B3A",
",.	c #646463",
"'.	c #595958",
").	c #444747",
"!.	c #3F4040",
"~.	c #3D3E3E",
"{.	c #5D5D5D",
"].	c #7F807F",
"^.	c #606160",
"/.	c #D3D2D0",
"(.	c #C9C9C5",
"_.	c #A1A19F",
":.	c #979693",
"<.	c #878684",
"[.	c #434547",
"}.	c #404041",
"|.	c #898784",
"1.	c #51514F",
"2.	c #3C3C3C",
"3.	c #BEBDBC",
"4.	c #C6C5C1",
"5.	c #CCCAC8",
"6.	c #3C3B3A",
"7.	c #92918E",
"8.	c #3D3E3F",
"9.	c #959490",
"0.	c #51514E",
"a.	c #93928F",
"b.	c #404142",
"c.	c #404241",
"d.	c #ABA9A5",
"e.	c #888580",
"f.	c #474644",
"g.	c #3A3A39",
"h.	c #7A7976",
"i.	c #D0CFCA",
"j.	c #CDCBC7",
"k.	c #7D7C7A",
"l.	c #767470",
"m.	c #3C3E3E",
"n.	c #AAA8A4",
"o.	c #8C8983",
"p.	c #7A7874",
"q.	c #424444",
"r.	c #4F504F",
"s.	c #A6A39D",
"t.	c #8F8B84",
"u.	c #73706A",
"v.	c #3A3938",
"w.	c #393937",
"x.	c #BABAB6",
"y.	c #C6C3BD",
"z.	c #BAB7B4",
"A.	c #555350",
"B.	c #3A3B3A",
"C.	c #A9A6A1",
"D.	c #918D86",
"E.	c #74716A",
"F.	c #54524E",
"G.	c #505150",
"H.	c #605F5D",
"I.	c #A09C95",
"J.	c #8D8880",
"K.	c #8C877F",
"L.	c #494844",
"M.	c #393836",
"N.	c #575653",
"O.	c #D0CDC9",
"P.	c #CECAC6",
"Q.	c #656460",
"R.	c #373736",
"S.	c #A7A39D",
"T.	c #8F8A82",
"U.	c #5A5A56",
"V.	c #716F6B",
"W.	c #9B968E",
"X.	c #8C867D",
"Y.	c #6C6760",
"Z.	c #383735",
"`.	c #93918D",
" +	c #CFCBC5",
".+	c #B1AFAA",
"++	c #373632",
"@+	c #94908A",
"#+	c #595650",
"$+	c #423F3B",
"%+	c #514E49",
"&+	c #413F3B",
"*+	c #3B3B38",
"=+	c #363531",
"-+	c #393532",
";+	c #35332F",
">+	c #3F3F3E",
",+	c #7F7B76",
"'+	c #958E85",
")+	c #8A8379",
"!+	c #888177",
"~+	c #474540",
"{+	c #383633",
"]+	c #92918C",
"^+	c #D4D0CA",
"/+	c #97948F",
"(+	c #514E4B",
"_+	c #C4C0BA",
":+	c #393631",
"<+	c #46443F",
"[+	c #373430",
"}+	c #403F3E",
"|+	c #8C877E",
"1+	c #90887D",
"2+	c #898175",
"3+	c #7A7367",
"4+	c #3E3C37",
"5+	c #373532",
"6+	c #373531",
"7+	c #787571",
"8+	c #B5B2AC",
"9+	c #D8D4CF",
"0+	c #CBC6BF",
"a+	c #ACA8A2",
"b+	c #35332E",
"c+	c #726B60",
"d+	c #3D3C3B",
"e+	c #A09890",
"f+	c #8B8175",
"g+	c #887E71",
"h+	c #70675C",
"i+	c #44413B",
"j+	c #363430",
"k+	c #36332F",
"l+	c #383530",
"m+	c #35322D",
"n+	c #3E3A34",
"o+	c #756C5F",
"p+	c #6C655A",
"q+	c #35322C",
"r+	c #3A3A38",
"s+	c #A5A19B",
"t+	c #A9A299",
"u+	c #A8A198",
"v+	c #9D968D",
"w+	c #736D66",
"x+	c #55514B",
"y+	c #34332E",
"z+	c #3A3731",
"A+	c #3F3C36",
"B+	c #4E4A44",
"C+	c #706A63",
"D+	c #9B948B",
"E+	c #746F68",
"F+	c #55514A",
"G+	c #47443F",
"H+	c #34322D",
"I+	c #3A3937",
"J+	c #333133",
"K+	c #343233",
"L+	c #3F3C3A",
"M+	c #2F2E30",
"N+	c #3A3837",
"O+	c #353334",
"P+	c #393736",
"Q+	c #373633",
"R+	c #2E2D2E",
"S+	c #323030",
"T+	c #3D3A38",
"U+	c #2F2E2F",
"V+	c #3A3838",
"W+	c #363536",
"X+	c #534D46",
"Y+	c #6C6355",
"Z+	c #5C554C",
"`+	c #554F47",
" @	c #5E574C",
".@	c #504B44",
"+@	c #645C50",
"@@	c #6B665F",
"#@	c #333233",
"$@	c #5C554B",
"%@	c #544E47",
"&@	c #5E574D",
"*@	c #635C50",
"=@	c #393835",
"-@	c #605C56",
";@	c #6C6255",
">@	c #6B6154",
",@	c #81796F",
"'@	c #383734",
")@	c #5F5A54",
"!@	c #6D6356",
"~@	c #817A6F",
"{@	c #373025",
"]@	c #292217",
"^@	c #2E271B",
"/@	c #362F24",
"(@	c #393734",
"_@	c #534F4C",
":@	c #6F6E6A",
"<@	c #696762",
"[@	c #3A3834",
"}@	c #696661",
"|@	c #55524E",
"1@	c #7E807D",
"2@	c #959695",
"3@	c #90908F",
"4@	c #383532",
"5@	c #8F8F8E",
"6@	c #81817E",
"7@	c #373530",
"8@	c #6F675C",
"9@	c #645B4F",
"0@	c #70685D",
"a@	c #36342F",
"b@	c #70685C",
"c@	c #36332E",
"d@	c #70695F",
"e@	c #787166",
"f@	c #716B61",
"g@	c #716B60",
"h@	c #2D2A26",
"i@	c #34312C",
"j@	c #2E2C27",
"                                                                ",
"    . + @ # $           . + @ # $                               ",
"  . % & * = - ; >     . % & * = - ; >                           ",
"  , ' ) ! ~ { ] ^ / + , ' ) ! ~ { ] ^ / + + + (                 ",
"  _ : < < [ } | 1 2 3 4 5 < < [ } | 1 2 3 6 6 7 8               ",
"        9 0 a b c d e f g h i 0 a b c d e j k l m               ",
"          n o p q r s ! t u v n o p q r s ! w x y               ",
"          z A B C C D E F G H B A B C C D E F I J               ",
"          K L M M D N O P Q R S L M M D N O P Q T               ",
"          U V W X Y Z `  ...+.@.V W X Y Z `  ...#.              ",
"          $.%.&.&.*.=.-.;.>.,.%.%.&.&.*.=.-.;.>.'.).            ",
"          !.~.{.].^./.(._.>.:.%.~.{.].^./.(._.>.<.[.            ",
"          }.|.1.2.>.3.4.5.6.7.8.9.0.2.>.3.4.5.6.a.b.            ",
"          c.d.e.f.g.h.i.j.k.l.m.n.o.f.g.h.i.j.k.p.q.            ",
"          r.s.t.u.v.w.x.y.z.A.B.C.D.E.v.w.x.y.z.F.G.            ",
"          H.I.J.K.L.M.N.O.P.Q.R.S.T.K.L.M.N.O.P.Q.U.            ",
"          V.W.X.X.Y.Z.Z.`. +.+++@+#+$+%+Z.Z.`. +.+&+*+=+-+;+    ",
"        >+,+'+)+)+!+~+{+{+]+^+/+(+/+_+:+<+{+{+]+^+/+(+/+_+[+    ",
"        }+|+1+2+2+2+3+4+5+6+7+8+9+0+a+b+c+4+5+6+7+8+9+0+a+b+    ",
"        d+e+f+g+g+g+g+h+i+j+j+k+l+b+m+n+o+p+i+j+j+k+l+b+m+q+    ",
"        r+s+t+u+u+u+u+u+v+w+x+y+z+A+B+C+D+u+D+E+F+G+m+m+H+      ",
"        I+J+K+L+M+M+M+N+M+O+P+Q+R+S+T+U+M+M+N+M+O+V+M.          ",
"        M.W+X+Y+Z+`+ @Y+.@+@@@Z.#@X+Y+$@%@&@Y+.@*@@@Z.          ",
"        =@-@;@>@>@>@>@>@>@;@,@'@)@!@>@>@>@>@>@>@>@~@'@          ",
"        =@{@]@]@]@]@]@]@]@]@^@'@^@]@]@]@]@]@]@]@]@/@(@          ",
"          _@:@:@:@:@:@:@:@:@<@[@}@:@:@:@:@:@:@:@:@|@            ",
"        -+1@2@2@2@2@2@2@2@2@3@4@5@2@2@2@2@2@2@2@2@6@-+          ",
"        7@8@9@9@9@9@9@9@9@9@0@a@b@9@9@9@9@9@9@9@9@0@a@          ",
"        c@d@e@e@e@e@e@e@e@e@f@c@g@e@e@e@e@e@e@e@e@f@c@          ",
"        h@c@c@c@c@c@c@c@c@c@c@i@c@c@c@c@c@c@c@c@c@c@j@          ",
"                                                                ",
"                                                                "};
