#define fontview2_width 16
#define fontview2_height 16
static unsigned char fontview2_bits[] = {
   0x00, 0x07, 0x80, 0x08, 0x40, 0x17, 0x40, 0x15, 0x60, 0x09, 0x10, 0x02,
   0xa0, 0x01, 0xa0, 0x00, 0xa0, 0x00, 0xa0, 0x00, 0x50, 0x00, 0x52, 0x00,
   0x55, 0x00, 0x5d, 0x00, 0x22, 0x00, 0x1c, 0x00};
