<?xml version="1.0" encoding="UTF-8" standalone="no"?>
<!-- Created with Inkscape (http://www.inkscape.org/) -->

<svg xmlns:dc="http://purl.org/dc/elements/1.1/" xmlns:rdf="http://www.w3.org/1999/02/22-rdf-syntax-ns#" xmlns:svg="http://www.w3.org/2000/svg" xmlns="http://www.w3.org/2000/svg" xmlns:xlink="http://www.w3.org/1999/xlink" version="1.1" width="48" height="48">
	<defs>
		<linearGradient id="linearGradient3216">
			<stop style="stop-color:#3b3f43;stop-opacity:1" offset="0" />
			<stop style="stop-color:#34302a;stop-opacity:1" offset="1" />
		</linearGradient>
		<linearGradient id="linearGradient3226">
			<stop style="stop-color:#ffffff;stop-opacity:0.6667" offset="0" />
			<stop style="stop-color:#ffffff;stop-opacity:0.3922" offset="1" />
		</linearGradient>
		<linearGradient id="linearGradient3232">
			<stop style="stop-color:#a3aab1;stop-opacity:1" offset="0" />
			<stop style="stop-color:#847b6c;stop-opacity:1" offset="0.6375" />
			<stop style="stop-color:#6f6659;stop-opacity:1" offset="0.6625" />
			<stop style="stop-color:#585248;stop-opacity:1" offset="1" />
		</linearGradient>
		<linearGradient id="linearGradient3290">
			<stop style="stop-color:#bbc2cb;stop-opacity:1" offset="0" />
			<stop style="stop-color:#b1a695;stop-opacity:1" offset="1" />
		</linearGradient>
		<linearGradient id="linearGradient3237">
			<stop style="stop-color:#20190e;stop-opacity:0.8745" offset="0" />
			<stop style="stop-color:#cad3dc;stop-opacity:0.498" offset="1" />
		</linearGradient>
		<linearGradient id="linearGradient5060">
			<stop style="stop-color:#000000;stop-opacity:0.4353" offset="0" />
			<stop style="stop-color:#000000;stop-opacity:0" offset="1" />
		</linearGradient>
		<linearGradient x1="15" y1="38" x2="15" y2="41" id="linearGradient3217" xlink:href="#linearGradient3237" gradientUnits="userSpaceOnUse" gradientTransform="translate(0,-1)" />
		<linearGradient x1="-42" y1="4.5" x2="-42" y2="44.5" id="linearGradient3220" xlink:href="#linearGradient3232" gradientUnits="userSpaceOnUse" gradientTransform="translate(57,0)" />
		<linearGradient x1="14" y1="4.5" x2="14" y2="44.5" id="linearGradient3222" xlink:href="#linearGradient3216" gradientUnits="userSpaceOnUse" gradientTransform="translate(1,0)" />
		<linearGradient x1="7" y1="2" x2="24" y2="28" id="linearGradient5675" xlink:href="#linearGradient3290" gradientUnits="userSpaceOnUse" gradientTransform="translate(1,0)" />
		<linearGradient x1="7" y1="1" x2="23" y2="31" id="linearGradient7145" xlink:href="#linearGradient3216" gradientUnits="userSpaceOnUse" gradientTransform="translate(1,0)" />
		<linearGradient x1="8" y1="2" x2="23" y2="28" id="linearGradient7225" xlink:href="#linearGradient3226" gradientUnits="userSpaceOnUse" gradientTransform="translate(1,0)" />
		<radialGradient cx="1.09091" cy="40" r="4" fx="1.09091" fy="40" id="radialGradient3048" xlink:href="#linearGradient5060" gradientUnits="userSpaceOnUse" gradientTransform="matrix(1.5,0,0,1.25,36.3636,-7)" />
		<linearGradient x1="24" y1="42" x2="24" y2="47" id="linearGradient3051" xlink:href="#linearGradient5060" gradientUnits="userSpaceOnUse" gradientTransform="matrix(0.9375,0,0,1,1.5,1)" />
		<radialGradient cx="7.28571" cy="41" r="4" fx="7.28571" fy="41" id="radialGradient3054" xlink:href="#linearGradient5060" gradientUnits="userSpaceOnUse" gradientTransform="matrix(0,-1.25,1.5,0,-52.5,52.1071)" />
	</defs>
	<g id="shadow">
		<path d="M 3,38 L 3,48 L 9,48 L 9,38 z" style="fill:url(#radialGradient3054);fill-opacity:1;stroke:none" />
		<path d="M 9,43 L 9,48 L 38,48 L 38,43 z" style="fill:url(#linearGradient3051);fill-opacity:1;stroke:none" />
		<path d="M 38,38 L 38,48 L 44,48 L 44,38 z" style="fill:url(#radialGradient3048);fill-opacity:1;stroke:none" />
	</g>
	<g id="base">
		<path d="M 23.5,4.5 L 23.5,37.25 C 22.5,37.5 22.5,39 23.5,39.75 L 23.5,43 C 23.5,44 23,44.5 22,44.5 L 9,44.5 C 8,44.5 7.5,44 7.5,43 L 7.5,39.75 C 9,39 8.75,37.5 7.5,37.25 L 7.5,30 L 10.75,6 C 10.9197,4.74688 11.5,4.5 12.5,4.5 z" style="fill:url(#linearGradient3220);fill-opacity:1;stroke:url(#linearGradient3222);stroke-width:1;stroke-linecap:round;stroke-linejoin:round;stroke-miterlimit:4;stroke-opacity:1;stroke-dasharray:none" />
		<path d="M 8,37 C 9.25,37.25 9.5,39.25 8,40 L 23,40 C 22,39 22,37.5 23,37 z" style="fill:url(#linearGradient3217);fill-opacity:1;stroke:none" />
		<path d="M 8.5,36.5 L 8.5,30 L 11.75,6 C 11.8179,5.49875 12,5.5 12.5,5.5 L 22.5,5.5 L 22.5,36.5 M 22.5,40.5 L 22.5,43 C 22.5,43.5 22.5,43.5 22,43.5 L 9,43.5 C 8.5,43.5 8.5,43.5 8.5,43 L 8.5,40.5" style="fill:none;stroke:#ffffff;stroke-width:1;stroke-linecap:round;stroke-linejoin:round;stroke-miterlimit:4;stroke-opacity:0.247059;stroke-dasharray:none" />
		<path d="M 8.25,28.5 C 7.75,30.25 8,31 9,31 L 22,31 C 23,31 23,30.25 23,29 C 22.75,30 22.5,30 21.5,30 L 9.75,30 C 8.75,30 8.25,30 8.25,28.5 z" style="fill:#ffffff;fill-opacity:0.372549;stroke:none" />
		<path d="M 8,40 L 23,40 C 23,40.5 22.75,41 22,41 L 9,41 C 8.25,41 8,40.5 8,40 z" style="fill:#ffffff;fill-opacity:0.435294;stroke:none" />
	</g>
	<use transform="matrix(-1,0,0,1,47,0)" x="0" y="0" width="48" height="48" xlink:href="#base" />
	<path d="M 17,5 C 17.5,9 21.5,6.5 23,12 L 23,5 z" style="fill:#3c3324;fill-opacity:0.247059;stroke:none" />
	<path id="ink" d="M 8,30 L 8,36.5 C 8.873,36.7125 8.04159,35.1637 8.82101,34.9546 C 9.10191,34.8792 8.58634,34.0704 8.78125,33.9375 C 8.93748,33.831 9.19883,34.3236 9.28125,33.9063 C 9.39888,33.3106 9.4248,32.8083 10.0625,33.125 C 10.0306,33.6618 10.3838,33.1424 10.5937,33.1875 C 10.8045,33.2328 10.1518,34.0705 10.6875,33.9063 C 11.387,33.6918 10.4141,32.4719 10.5625,32.0313 C 10.8582,31.1535 11.8906,32.7336 12.0604,32.0694 C 12.0279,31.8423 12.3675,31.83 12.4354,32.0069 C 12.5793,32.0462 12.7879,32.6877 12.5625,32.5625 C 12.5275,32.7165 12.5352,32.8459 12.6875,32.9375 C 13.0686,32.8189 12.7801,33.4617 13.125,33.4688 C 13.4977,33.1394 12.8188,32.8282 12.875,32.4688 C 13.6627,32.5714 13.6437,33.4499 14.0625,33.375 C 14.2133,33.323 14.3008,33.1471 14.3125,32.8125 C 14.6916,32.5483 14.7035,33.4313 14.3125,33.375 C 14.4314,33.6934 14.8365,33.2275 15,33.5 C 15.3258,33.399 15.5762,32.5471 15.9375,32.5 C 15.6685,32.906 16.4845,33.343 16.6875,32.9375 L 16.3125,32.7188 C 16.2417,32.4168 16.8781,32.7183 16.9375,32.5 C 16.7456,32.4181 16.8786,32.0764 17.0625,32.0625 C 17.3781,32.4685 17.4527,32.3934 17.875,32.25 C 18.4675,31.6343 18.8068,32.2859 18.75,33.3125 C 19.3745,32.6635 19.4581,33.8179 19.875,33.8125 C 20.3537,33.241 20.2437,31.2623 20.7576,31.8832 L 21.1326,32.3207 C 21.4669,32.7247 22.1591,31.4004 22.3438,31.8438 L 22.0625,32.1875 C 21.7437,32.5885 22.7878,32.6707 22.5,33.0625 C 22.1661,33.7471 22.8952,33.7863 23,35 L 23,30 C 23,30.5 22.7344,30.9844 22,31 L 9,31 C 8.23437,30.9844 8,30.5 8,30 z M 9.40625,32.2656 C 9.68145,32.2099 9.52257,32.5234 9.53125,32.5938 C 9.69436,33.1775 8.83981,32.3804 9.40625,32.2656 z" style="fill:#0e0e12;fill-opacity:0.623529;stroke:none" />
	<use transform="translate(16,0)" x="0" y="0" width="48" height="48" xlink:href="#ink" />
	<g id="f">
		<path d="M 9,15 C 12,17.5 15.5,28.5 22,30 C 22,25 20.5,16.5 21.5,15 z" style="fill:#3c3324;fill-opacity:0.247059;stroke:none" />
		<path d="M 7,1 C 3.75,1 2,2.25 2,4 L 2,5 C 2,6 2.75,7 4,7 C 6.75,7 8.5,10 8.5,12 L 8.5,14.75 C 8.5,16.5 11.0903,13.5484 13,18.75 C 15.3835,25.2422 20,31 25,31 C 29,31 31,30 31,28 L 31,26 C 31,24.75 30,24 28.5,24 C 26.5,24 26.25,26 25,26 C 23.75,26 21.3743,19.2348 20.75,17.25 C 19.9421,14.6815 21.5,16 21.5,15 L 21.5,10.75 C 21.5,10.25 21.5,10.25 17.5,10 C 14.75,4 11.25,1 7,1 z" style="fill:url(#linearGradient7145);fill-opacity:1;stroke:none" />
		<path d="M 7,2 C 4,2 3,3 3,4 C 3,4.5 3.5,5 4.5,5 C 6.5,5 5.5,3 8,3 C 9.5,3 10.5,5.25 12.7812,10.8437 L 9,11 L 9,12 L 13.375,12.1875 L 15.5,17.5 C 17.75,23 20.75,28 26,28 C 29,28 30,27 30,26 C 30,25.5 29.5,25 28.5,25 C 26.5,25 27.5,27 25,27 C 23.5,27 22.4549,24.519 21,21 L 17.3438,12.1562 L 21,12 L 21,11 L 16.7813,10.8125 C 15.1207,7.13767 12.25,2 7,2 z M 8,6 C 6.875,6 6.4375,6.25 6,6.5 C 7.50597,7.23598 8.63017,8.69175 9.15625,10.1875 C 9.45249,10.1328 9.8435,10.0821 10.5,10 C 10,8 9.25,6 8,6 z M 9.5,14 L 9.5,14.5 C 11,14.5 11.5,15 12,15.5 L 11.5,14 z M 19,14 L 20,16.5 C 19.5,14.5 20,14.5 20.5,14.5 L 20.5,14 z" style="fill:url(#linearGradient5675);fill-opacity:1;stroke:none" />
		<path d="M 6.9915,2.37944 C 4.03837,2.37944 3.37408,3.37454 3.37408,3.8884 C 3.37408,4.3884 3.74242,4.62592 4.57054,4.62592 C 6.11742,4.62592 5.37506,2.65625 7.98437,2.65625 C 9.98444,2.65625 11.0906,5.83303 13.325,11.1924 L 9.35401,11.3643 L 9.36003,11.6573 L 13.6299,11.8205 L 15.9531,17.625 C 18.2031,23.125 21.25,27.6406 25.9375,27.6406 C 28.9375,27.6406 29.625,26.7188 29.625,26 C 29.625,25.5 28.9219,25.375 28.4844,25.375 C 26.8125,25.375 27.7031,27.3594 25,27.3594 C 23.1563,27.3594 22.1479,24.7042 20.6875,21.1875 L 16.7813,11.7812 L 20.6195,11.6407 L 20.6172,11.3594 L 16.5344,11.1866 C 13.8301,4.85198 10.5568,2.37944 6.9915,2.37944 z" style="fill:none;stroke:url(#linearGradient7225);stroke-width:0.75;stroke-miterlimit:4;stroke-dasharray:none" />
	</g>
	<use transform="translate(15,0)" x="0" y="0" width="48" height="48" xlink:href="#f" />
</svg>
