<?xml version="1.0" encoding="UTF-8"?>
<svg
   xmlns:svg="http://www.w3.org/2000/svg"
   xmlns="http://www.w3.org/2000/svg"
   version="1.1"
   width="4415"
   height="4481"
   xml:space="preserve"
   style="stroke:none">
     <path
     d="m 1401,3363 c 0,0 -495,186 -590,305 303,232 1332,813 1332,813 0,0 1252,-514 2018,-919 C 4081,3449 3323,3138 3323,3138 L 1401,3363"
     style="fill:#332e3b" /><path
     d="m 3913,3405 c -407,294 -930,599 -1766,740 C 1964,4175 1561,3716 1261,3419 1107,3484 874,3590 811,3668 1114,3901 2143,4481 2143,4481 c 0,0 1252,-514 2018,-919 -26,-37 -126,-96 -247,-157"
     style="fill:#2d2833" /><path
     d="m 1401,3297 c 0,0 -495,252 -590,372 303,232 1332,813 1332,813 0,0 24,-693 72,-819 -176,-133 -814,-365 -814,-365"
     style="fill:#1e1b20" /><path
     d="m 980,3536 c -76,49 -141,97 -169,133 303,232 1332,813 1332,813 0,0 -5,-174 8,-346 -365,-35 -941,-460 -1171,-599"
     style="fill:#1a1719" /><path
     d="M 1372,3350 C 1075,3054 220,2392 220,2392 L 4416,2347 c 0,0 -775,593 -1061,810 -342,228 -1146,604 -1146,604 0,0 -610,-296 -838,-410"
     style="fill:#27232a" /><path
     d="M 1372,3350 C 1075,3054 220,2392 220,2392 l 1908,357 c 0,0 167,129 -106,426 37,395 188,585 188,585 0,0 -610,-296 -838,-410"
     style="fill:#171515" /><path
     d="M 220,2392 C 562,2233 1725,1708 2364,1480 2980,1640 4074,2164 4416,2347 4029,2506 2615,3122 2022,3213 1429,3054 494,2575 220,2392"
     style="fill:#332e3b" /><path
     d="m 0,1369 c 328,-237 716,-453 981,-610 75,-44 121,-45 121,-45 l 181,135 -151,126 -994,627 c 0,0 -107,-153 -138,-237"
     style="fill:#211d1d" /><path
     d="m 1961,984 c -53,64 -327,249 -549,349 -50,-35 -81,-120 -81,-120 0,0 48,-54 21,-85 -31,-35 -89,0 -89,0 L 845,204 930,124 1053,45 1167,0 1819,755 c 0,0 -52,45 -24,87 28,43 81,11 81,11 0,0 68,72 84,132"
     style="fill:#211d1d" /><path
     d="m 3365.031,2210 c 0,65 -99,137 -215,137 -73,0 -156,-33 -156,-81 0,-42 67,-70 127,-70 28,0 53,5 72,14 2,1 5,2 8,2 10,0 29,-12 29,-32 0,-25 -30,-47 -53,-58 -48,-23 -103,-36 -162,-36 -105,0 -197,37 -273,73 -101,48 -185,102 -276,157 118,55 239,112 356,162 l -91,60 c -112,-60 -227,-118 -342,-175 -133,81 -274,163 -394,258 -21,16 -32,29 -32,46 0,49 184,115 239,140 l -99,52 c -362,-192 -728,-375 -1112,-545 l 96,-52 c 52,29 132,78 187,78 47,0 134,-49 192,-82 103,-59 211,-124 315,-184 -73,-33 -145,-67 -217,-99 l 88,-56 c 69,37 141,72 212,107 113,-63 233,-123 371,-159 74,-19 148,-30 237,-30 89,0 163,13 229,37 46,17 129,57 129,118 0,23 -10,37 -23,51 40,-7 86,-10 134,-10 77,0 144,9 209,24 88,20 215,74 215,153 z m -1321,-95 c 79,38 158,76 238,114 76,-42 154,-83 238,-117 -21,-11 -43,-29 -43,-54 0,-44 76,-70 127,-70 27,0 54,6 73,15 2,1 4,2 7,2 10,0 29,-13 29,-32 0,-26 -30,-45 -52,-57 -34,-16 -70,-24 -108,-24 -94,0 -178,38 -247,72 -95,47 -174,98 -262,151 z m -77,46 c -95,57 -241,145 -312,191 -50,33 -84,58 -104,78 -15,16 -23,29 -23,40 0,24 29,39 57,53 30,15 57,25 89,25 20,0 41,-4 65,-13 28,-10 61,-25 102,-48 107,-60 249,-147 364,-213 -79,-38 -159,-76 -238,-113 z"
     style="fill:#f3f3f4" />
</svg>

